<?xml version="1.0" encoding="utf-8"?>
<!-- Generator: Adobe Illustrator 27.5.0, SVG Export Plug-In . SVG Version: 6.00 Build 0)  -->
<svg version="1.1" xmlns="http://www.w3.org/2000/svg" xmlns:xlink="http://www.w3.org/1999/xlink" x="0px" y="0px"
	 viewBox="0 0 600 500" style="enable-background:new 0 0 600 500;" xml:space="preserve">
<g id="BACKGROUND">
	<circle style="fill:#F0ECD8;" cx="402.727" cy="147.051" r="104.892"/>
	<path style="fill:#F0ECD8;" d="M340.454,439.323h94.849c50.831-19.173,86.991-68.259,86.991-125.799
		c0-74.235-60.18-134.415-134.415-134.415c-74.235,0-134.415,60.18-134.415,134.415
		C253.463,371.064,289.622,420.151,340.454,439.323z"/>
	<ellipse style="fill:#F0ECD8;" cx="216.512" cy="198.072" rx="136.748" ry="139.856"/>
</g>
<g id="OBJECTS">
	<g>
		<path d="M325.075,436.146c-0.846-0.306-84.641-30.555-85.676-30.899l0.315-0.949c1.048,0.349,82.245,29.66,85.701,30.907
			L325.075,436.146z"/>
		
			<rect x="225.544" y="418.494" transform="matrix(0.9287 -0.3707 0.3707 0.9287 -135.7819 131.5517)" width="97.558" height="1.001"/>
		<polygon points="327.21,450.86 314.634,377.501 250.098,373.338 225.634,449.875 224.682,449.57 249.383,372.289 315.486,376.554 
			328.195,450.691 		"/>
		<path style="fill:#E8CB61;" d="M284.21,395.379c-8.304-1.595-16.491-3.791-24.474-6.579
			c-18.574-6.486-33.538-25.991-39.457-44.216c-6.73-20.72-7.727-42.257-5.158-63.74c2.346-19.621,16.58-23.695,35.97-21.342
			c12.92,1.568,25.101,6.925,36.393,13.395c23.572,13.506,44.165,32.18,59.905,54.323c8.515,11.978,15.85,25.905,14.873,40.568
			C359.743,405.556,309.769,400.288,284.21,395.379z"/>
		<g>
			<defs>
				<path id="SVGID_1_" d="M284.21,395.379c-8.304-1.595-16.491-3.791-24.474-6.579c-18.574-6.486-33.538-25.991-39.457-44.216
					c-6.73-20.72-7.727-42.257-5.158-63.74c2.346-19.621,16.58-23.695,35.97-21.342c12.92,1.568,25.101,6.925,36.393,13.395
					c23.572,13.506,44.165,32.18,59.905,54.323c8.515,11.978,15.85,25.905,14.873,40.568
					C359.743,405.556,309.769,400.288,284.21,395.379z"/>
			</defs>
			<clipPath id="SVGID_00000136388707627895963110000001537266723193185419_">
				<use xlink:href="#SVGID_1_"  style="overflow:visible;"/>
			</clipPath>
			<path style="clip-path:url(#SVGID_00000136388707627895963110000001537266723193185419_);fill:#F5BB42;" d="M205.777,395.662
				c13.111,9.292,29.255,15.943,46.442,19.468c8.565,1.757,17.009,2.654,25.789,2.403c9.046-0.258,17.938,1.909,27.073,0.366
				c8.785-1.484,24.556-4.145,27.447-11.583c2.479-6.379-2.124-13.065-7.337-18.372c-15.517-15.797-38.041-27.26-62.696-32.833
				c-8.675-1.961-17.732-3.226-26.745-2.682c-11.736,0.708-23.112,4.573-31.712,10.774c-6.201,4.471-11.15,10.678-10.347,17.196
				C194.44,386.473,199.952,391.534,205.777,395.662z"/>
		</g>
		<g>
			<defs>
				<path id="SVGID_00000160891885722269990400000017553344807679852722_" d="M284.21,395.379
					c-8.304-1.595-16.491-3.791-24.474-6.579c-18.574-6.486-33.538-25.991-39.457-44.216c-6.219-19.146-8.482-43.402-5.173-63.206
					c2.132-12.757,9.433-25.751,21.691-29.878c8.82-2.969,18.524-0.863,27.309,2.208c11.842,4.141,18.556,9.954,23.728,21.227
					c5.543,12.082,9.615,24.87,16.549,36.282c9.75,16.048,25.002,28.682,42.585,35.275c11.554,4.333,34.116,7.423,29.635,24.454
					c-4.876,18.533-24.413,24.894-41.605,26.668C318.081,399.36,300.911,398.587,284.21,395.379z"/>
			</defs>
			<clipPath id="SVGID_00000101825056125682334610000017754542556430545036_">
				<use xlink:href="#SVGID_00000160891885722269990400000017553344807679852722_"  style="overflow:visible;"/>
			</clipPath>
			<path style="clip-path:url(#SVGID_00000101825056125682334610000017754542556430545036_);fill:#D4A239;" d="M344.017,401.157
				c-3.534-0.889-7.064-1.795-10.569-2.792c-7.671-2.182-15.105-4.892-22.279-8.383c-13.722-6.678-27.125-14.354-38.784-24.277
				c-10.82-9.209-20.574-19.793-28.285-31.753c-3.743-5.805-6.761-11.924-9.725-18.148c-2.797-5.875-5.637-11.732-8.187-17.72
				c-4.466-10.49-8.913-22.273-8.481-33.924c-0.037-0.118-0.073-0.226-0.11-0.354c-7.962,24.22-10.233,50.708-3.602,75.326
				c6.632,24.617,22.708,47.113,45.301,58.928c15.796,8.26,33.869,11.061,51.659,12.187c8.874,0.562,31.748,3.247,35.895-7.701
				c-0.609-0.271-1.233-0.59-1.871-0.911C344.661,401.473,344.341,401.313,344.017,401.157z"/>
		</g>
	</g>
	<path style="fill:#FF4F4F;" d="M531.898,160.826c-2.124,0.641-3.685,3.64-3.685,3.64s-1.574-2.973-3.7-3.578
		c-6.158-1.753-8.91,3.801-6.552,8.926c2.274,4.945,10.288,10.893,10.288,10.893s7.987-6.082,10.24-11.064
		C540.824,164.478,538.049,158.97,531.898,160.826z"/>
	<path style="fill:#FF4F4F;" d="M444.711,66.56c-1.511,0.456-2.621,2.589-2.621,2.589s-1.119-2.115-2.632-2.545
		c-4.38-1.247-6.338,2.703-4.661,6.349c1.618,3.517,7.318,7.748,7.318,7.748s5.681-4.326,7.284-7.87
		C451.06,69.157,449.086,65.24,444.711,66.56z"/>
	<path style="fill:#FF4F4F;" d="M346.46,218.322c-2.124,0.641-3.685,3.64-3.685,3.64s-1.574-2.973-3.7-3.578
		c-6.158-1.753-8.91,3.8-6.552,8.926c2.274,4.945,10.288,10.893,10.288,10.893s7.987-6.082,10.24-11.064
		C355.386,221.974,352.61,216.467,346.46,218.322z"/>
	<path style="fill:#FF4F4F;" d="M197.701,237.852c-1.479,0.446-2.565,2.534-2.565,2.534s-1.096-2.07-2.576-2.491
		c-4.287-1.22-6.203,2.646-4.561,6.214c1.583,3.442,7.162,7.583,7.162,7.583s5.56-4.234,7.129-7.702
		C203.915,240.395,201.983,236.56,197.701,237.852z"/>
	<path style="fill:#FF4F4F;" d="M529.151,235.042c-1.575,0.475-2.732,2.699-2.732,2.699s-1.167-2.204-2.743-2.653
		c-4.565-1.3-6.606,2.818-4.858,6.618c1.686,3.666,7.627,8.076,7.627,8.076s5.922-4.509,7.592-8.203
		C535.769,237.75,533.711,233.666,529.151,235.042z"/>
	<path style="fill:#FF4F4F;" d="M168.869,259.962c-2.35,0.709-4.077,4.028-4.077,4.028s-1.741-3.289-4.094-3.959
		c-6.814-1.94-9.859,4.205-7.25,9.877c2.516,5.471,11.383,12.053,11.383,12.053s8.838-6.729,11.331-12.243
		C178.746,264.003,175.674,257.909,168.869,259.962z"/>
	<path style="fill:#FF4F4F;" d="M139.862,134.61c-2.35,0.709-4.077,4.028-4.077,4.028s-1.741-3.289-4.094-3.96
		c-6.814-1.94-9.859,4.205-7.25,9.877c2.517,5.471,11.383,12.053,11.383,12.053s8.838-6.73,11.331-12.243
		C149.739,138.651,146.667,132.557,139.862,134.61z"/>
	<path style="fill:#FF4F4F;" d="M249.675,67.272c-2.35,0.709-4.077,4.028-4.077,4.028s-1.741-3.289-4.094-3.959
		c-6.814-1.94-9.859,4.205-7.25,9.877c2.516,5.471,11.383,12.053,11.383,12.053s8.838-6.73,11.331-12.243
		C259.551,71.313,256.48,65.218,249.675,67.272z"/>
	<g>
		<path style="fill:#5D8CA2;" d="M294.371,190.287c1.079-0.425,2.184-0.786,3.301-1.106c0.566-7.447-2.627-15.661-9.723-12.286
			c0.135,0.601,0.309,1.196,0.448,1.792c0.16,0.684,0.283,1.374,0.269,2.079c-0.008,0.374-0.054,0.746-0.146,1.109
			c-0.111,0.439-0.216,0.777-0.673,0.923c-0.168,0.054-0.41-0.013-0.522-0.152c-1.019-1.276-1.309-2.867-1.497-4.463
			c-0.401,0.29-0.808,0.602-1.229,0.961c-6.895,5.873-11.818,13.75-15.044,22.396c-2.076,5.565-3.438,11.39-4.187,17.28
			c-0.59,4.644-1.847,11.345-0.479,15.926c0.328,1.099,1.148,2.125,2.269,2.365c1.122,0.239,2.448-0.594,2.445-1.741
			c0.262,2.974,3.579,2.473,5.032,0.894c11.261-12.238,19.126-27.56,22.534-43.836c-2.611,1.183-5.284,2.179-8.186,2.493
			c-0.438,0.047-0.832-0.474-0.517-0.854C289.974,192.247,292.21,191.138,294.371,190.287z M276.855,209.063
			c-2.003,3.156-3.551-2.333-3.862-3.564c-0.221-0.871-1.124-3.039-0.376-3.766c0.396-0.385,1.021-0.466,1.55-0.306
			c0.529,0.16,0.972,0.528,1.338,0.942c1.061,1.199,1.563,2.807,1.715,4.401C277.294,207.555,277.278,208.397,276.855,209.063z
			 M282.919,191.951c-0.11,0.478-0.338,0.811-0.802,0.329c-1.004-1.042-1.264-2.481-1.329-3.874
			c-0.027-0.591-0.407-3.273,0.988-2.419c0.415,0.254,0.585,0.763,0.706,1.234c0.297,1.163,0.477,2.356,0.534,3.556
			C283.022,190.916,283.023,191.498,282.919,191.951z M289.024,202.263c0.023-0.004,0.046-0.011,0.07-0.015
			c0.042-0.006,0.079,0.002,0.118,0.006c0.064-0.001,0.128-0.01,0.192-0.01c0.228,0.003,0.414,0.078,0.529,0.284
			c0.093,0.167,0.096,0.447-0.052,0.593c-1.61,1.584-3.832,2.403-6.074,2.437c-0.477,0.007-0.626-0.688-0.288-0.953
			c0.124-0.097,0.263-0.174,0.391-0.265c0.045-0.163,0.162-0.302,0.324-0.385C285.703,203.206,287.338,202.36,289.024,202.263z"/>
		<path style="fill:#E3AE3D;" d="M264.477,242.675c-2.784-8.124-7.76-15.285-12.676-22.327c-3.717-5.326-8.991-9.886-15.977-8.193
			c-2.339,0.567-4.422,1.854-5.689,3.913c-2.323,3.774-1.262,8.733,0.712,12.701c3.502,7.04,10.449,13.654,16.533,18.521
			c0.119,0.095,0.251,0.175,0.372,0.267c-0.018-0.014,1.648-0.552,1.765-0.574c0.876-0.168,1.763-0.275,2.654-0.321
			c0.376-0.019,0.783-0.019,1.09,0.2c1.233,0.882-1.312,1.724-1.838,1.875c-0.194,0.056-1.275,0.454-1.458,0.34
			c1.728,1.08,3.534,2.064,5.216,3.224c0.885,0.61,1.792,1.23,2.827,1.518c1.035,0.288,2.242,0.189,3.048-0.522
			c1.801-1.59-0.919-2.972,1.842-3.773c1.264-0.367,2.075-1.679,2.229-2.987C265.282,245.229,264.904,243.921,264.477,242.675z
			 M245.185,216.843c0.278-0.174,0.607-0.146,0.996,0.217c0.843,0.788,1.81,2.482,1.848,3.675c0.051,1.613-1.132,3.638-1.775,5.078
			c-0.165,0.37-0.431,0.798-0.836,0.771c-0.361-0.024-0.578-0.403-0.713-0.739c-0.704-1.753-0.963-3.677-0.777-5.555
			C243.977,219.802,244.335,217.376,245.185,216.843z M234.831,220.32c-0.479-0.244-0.937-0.54-1.382-0.831
			c-0.182-0.119-0.383-0.267-0.403-0.484c-0.018-0.19,0.12-0.368,0.29-0.453c0.17-0.085,0.368-0.096,0.558-0.096
			c1.235,0.001,2.572,0.353,3.514,1.163c0.224,0.193,0.237,0.576,0.124,0.822c-0.124,0.271-0.398,0.446-0.698,0.44
			C236.118,220.868,235.456,220.639,234.831,220.32z M238.295,228.292c-0.548-0.192-1.039-0.427-1.401-0.665
			c-0.068-0.045-0.136-0.092-0.185-0.157c-0.129-0.17-0.094-0.424,0.034-0.595c0.128-0.171,0.328-0.271,0.529-0.342
			c0.612-0.216,1.28-0.205,1.927-0.157c0.613,0.045,1.224,0.122,1.829,0.228c0.636,0.112,2.669,0.874,1.38,1.732
			C241.42,228.994,239.675,228.776,238.295,228.292z M249.737,237.411c-0.181,0.21-0.525,0.314-0.803,0.232
			c-0.011,0.002-0.018,0.01-0.03,0.012c-1.502,0.26-3.085-0.143-4.519-0.575c-1.508-0.454-3.031-1.031-4.372-1.868
			c-0.568-0.354-0.514-1.109,0.097-1.383c1.549-0.694,3.338-0.584,4.939-0.134c1.716,0.483,3.359,1.374,4.61,2.654
			C249.943,236.641,250.022,237.081,249.737,237.411z M253.137,228.935c-0.093,1.223-0.867,2.395-1.515,3.487
			c-0.302,0.009-0.463-0.35-0.517-0.646c-0.168-0.924-0.082-1.888,0.226-2.774c0.062-0.179,1.199-2.141,1.283-2.014
			C253.05,227.648,253.186,228.298,253.137,228.935z M263.129,245.233c-0.251,0.636-0.605,1.232-1.045,1.756
			c-0.043,0.052-0.096,0.107-0.164,0.107c-0.051,0-0.095-0.032-0.134-0.065c-0.375-0.316-0.567-0.814-0.586-1.304
			c-0.019-0.49,0.119-0.975,0.314-1.425c0.26-0.6,1.566-1.689,1.892-0.507c0.066,0.24,0.017,0.497-0.047,0.738
			C263.296,244.77,263.219,245.004,263.129,245.233z"/>
		<path style="fill:#E3AE3D;" d="M251.218,228.929c-0.006,0.031-0.012,0.062-0.019,0.093c0,0,0,0,0,0
			c-0.006,0.03-0.011,0.055-0.02,0.099c0.007-0.033,0.013-0.066,0.02-0.098c-0.008,0.038-0.017,0.077-0.025,0.115
			C251.189,229.068,251.203,228.999,251.218,228.929z"/>
		<path style="fill:#FF8D37;" d="M309.356,224.213c-0.653,0.254-1.322,0.52-2.036,0.525c-0.11,0.001-0.232-0.006-0.311-0.082
			c-0.068-0.066-0.087-0.167-0.093-0.262c-0.055-0.884,0.691-1.639,1.508-1.98c0.654-0.273,2.672-0.206,3.098-0.682
			c0.569-0.637-0.229-2.264-0.786-2.71c-0.956-0.765-2.347-0.514-3.526-0.182c-2.203,0.62-4.354,1.396-6.444,2.305
			c-0.073,0.032,0.549,5.563,0.313,6.223c-0.327,0.914-2.073,2.108-2.872,0.916c-0.203-0.303-0.198-0.695-0.186-1.06
			c0.049-1.48,0.219-3.028,0.109-4.494c-5.836,2.544-10.936,6.512-15.222,11.291c-1.047,1.167-3.276,3.092-3.251,4.729
			c0.016,0.986,0.746,2.173,0.889,3.2c0.16,1.149,0.15,2.323-0.039,3.468c-0.043,0.263-0.132,0.568-0.385,0.653
			c-0.406,0.137-0.688-0.403-0.769-0.824c-0.332-1.723-0.416-3.455-0.603-5.187c-3.719,3.725-5.704,9.818-6.888,14.826
			c-0.284,1.201-2.262,6.23-1.003,7.01c0.511,0.316,8.578-3.148,9.869-3.467c6.832-1.686,13.387-5.35,18.108-11.122
			c2.892-3.537,5.587-7.259,7.799-11.263c1.788-3.236,4.856-8.491,4.559-12.287C310.578,223.743,309.974,223.972,309.356,224.213z
			 M291.164,250.218c-1.644,0.537-4.116,0.645-4.733,0.745c-0.866,0.14-1.732,0.28-2.602,0.394c-0.185-0.345,0.125-0.741,0.42-0.999
			c1.13-0.985,2.432-1.798,3.87-2.222c0.829-0.245,4.421-0.398,4.553,0.69C292.753,249.476,292.09,249.915,291.164,250.218z
			 M293.63,232.4c-0.124,1.908-1.337,4.313-1.997,5.236c-0.216,0.302-0.667,0.605-0.905,0.319c-0.077-0.092-0.094-0.219-0.106-0.338
			c-0.055-0.542-0.052-1.514,0.057-1.775c-0.153-1.765-0.479-3.965,0.9-5.356c0.323-0.326,0.845-0.574,1.227-0.318
			C293.484,230.625,293.692,231.451,293.63,232.4z M304.867,234.864c-1.863,1.066-3.908,2.257-6.068,2.505
			c-0.728,0.083-2.672,0.174-3.005-0.766c-0.397-1.122,1.515-2.205,2.297-2.575c2.051-0.969,4.321-1.47,6.59-1.454
			c0.509,0.004,1.113,0.091,1.34,0.547c0.318,0.637-0.375,1.298-0.993,1.651C304.974,234.803,304.921,234.834,304.867,234.864z"/>
		<path style="fill:#1C0C03;" d="M268.21,275.972l-0.498-0.043c0.471-5.353,1.004-11.419,3.923-16.248
			c1.775-2.937,4.277-5.155,6.696-7.302l13.777-12.216l0.332,0.374l-13.777,12.217c-2.392,2.121-4.865,4.314-6.601,7.185
			C269.205,264.669,268.676,270.674,268.21,275.972z"/>
		<path style="fill:#1C0C03;" d="M265.612,285.691c-0.702-3.8-0.549-7.74-0.401-11.551c0.102-2.623,0.208-5.335,0.033-7.978
			c-0.768-11.634-6.772-21.836-12.34-30.485l0.421-0.271c5.602,8.702,11.643,18.971,12.418,30.723
			c0.176,2.669,0.07,5.395-0.032,8.03c-0.146,3.783-0.299,7.695,0.393,11.439L265.612,285.691z"/>
		<path style="fill:#1C0C03;" d="M266.916,280.969l-0.5-0.008l0.312-21.182c0.083-5.596,0.167-11.382,1.034-17.008
			c1.673-10.864,12.777-38.845,16.715-47.647l0.456,0.204c-3.93,8.785-15.01,36.701-16.677,47.519
			c-0.861,5.592-0.946,11.361-1.028,16.94L266.916,280.969z"/>
		<g>
			<g>
				<path style="fill:#E84B4B;" d="M253.438,304.715c0,0,28.089-0.327,28.102-0.495l1.868-28.391h-32.205
					C251.204,275.829,253.433,304.659,253.438,304.715z"/>
				<path style="fill:#1C0C03;" d="M253.286,284.946c6.017-2.572,12.088-4.991,18.214-7.095c1.676-0.682,3.353-1.355,5.032-2.023
					h-25.328l0.865,9.649C252.475,285.303,252.88,285.12,253.286,284.946z"/>
				<path style="fill:#E84B4B;" d="M283.938,270.527h-32.875c-0.289,0-0.567,0.031-0.838,0.079v7.785
					c0.273,0.049,0.552,0.081,0.838,0.081h32.1L283.938,270.527z"/>
			</g>
		</g>
		
			<rect x="255.538" y="278.325" transform="matrix(0.9999 -0.0137 0.0137 0.9999 -3.7832 3.6917)" style="fill:#1C0C03;" width="25.211" height="0.5"/>
	</g>
	<g>
		<path d="M177.551,125.012c-2.25-16.309,6.604-33.875,21.052-41.769l0.479,0.878c-14.098,7.702-22.736,24.841-20.542,40.754
			L177.551,125.012z"/>
		<path d="M186.453,124.337c-1.788-12.958,5.248-26.916,16.727-33.187l0.479,0.878c-11.129,6.08-17.949,19.61-16.216,32.172
			L186.453,124.337z"/>
		<path d="M196.543,122.428c-1.137-8.245,3.339-17.125,10.643-21.116l0.479,0.878c-6.953,3.798-11.214,12.252-10.132,20.101
			L196.543,122.428z"/>
	</g>
	<g>
		<path style="fill:#64B0CA;" d="M258.388,108.906c-24.059,0-43.562,9.044-43.562,20.2c0,9.52,14.207,17.498,33.324,19.634
			c-0.997-0.111-2.681,9.94-2.774,11.151c-0.349,4.516,0.001,9.084,1.044,13.492c0.286,1.208,0.688,2.5,1.702,3.217
			c0.093-7.95,1.569-16.386,5.768-23.238c0.926-1.511,2.042-2.841,3.261-4.069c0.412,0.005,0.823,0.014,1.238,0.014
			c24.059,0,43.562-9.044,43.562-20.2C301.95,117.95,282.447,108.906,258.388,108.906z"/>
		<path style="fill:#222540;" d="M249.296,134.106c-0.169,0-0.343-0.017-0.519-0.051c-0.828-0.162-1.614-0.699-2.051-1.403
			c-0.649-1.046-0.783-2.424-0.396-4.095c0.488-2.113,1.609-4.066,3.145-5.599c-0.106-0.087-0.217-0.171-0.332-0.25
			c-2.313-1.594-4.855-1.668-7.16-0.207c-3.01,1.907-4.845,6.004-4.268,9.529l-0.74,0.121c-0.633-3.867,1.304-8.191,4.606-10.284
			c2.575-1.631,5.411-1.552,7.987,0.223c0.161,0.111,0.313,0.228,0.458,0.351c0.892-0.783,1.9-1.432,2.99-1.902
			c3.312-1.432,7.305-1.189,10.421,0.629c0.59,0.344,1.084,0.708,1.489,1.098c1.602-0.953,3.38-1.586,5.012-1.723
			c0.821-0.07,1.472-0.026,2.05,0.131c0.581,0.159,1.172,0.46,1.806,0.922c2.662,1.94,4.172,5.312,3.848,8.59l-0.746-0.074
			c0.298-3.018-1.093-6.123-3.543-7.909c-0.56-0.408-1.07-0.671-1.562-0.805c-0.492-0.134-1.061-0.167-1.791-0.107
			c-1.482,0.124-3.096,0.688-4.563,1.54c0.084,0.109,0.164,0.22,0.237,0.333c0.869,1.34,0.961,3.033,1.035,4.393
			c0.064,1.178,0.136,2.513-0.254,3.75c-0.446,1.419-1.521,2.484-2.736,2.715c-0.788,0.149-1.618-0.055-2.339-0.573
			c-0.879-0.632-1.491-1.638-1.638-2.692c-0.26-1.884,0.345-3.81,1.752-5.567c0.75-0.938,1.711-1.793,2.777-2.508
			c-0.336-0.302-0.738-0.588-1.211-0.865c-2.914-1.7-6.648-1.926-9.746-0.588c-1,0.432-1.927,1.024-2.75,1.738
			c2.006,2.238,2.022,5.838,1.33,8.492c-0.208,0.799-0.52,1.689-1.252,2.224C250.26,133.961,249.794,134.106,249.296,134.106z
			 M250.015,123.476c-1.443,1.436-2.496,3.267-2.954,5.249c-0.34,1.471-0.238,2.659,0.303,3.531c0.331,0.533,0.928,0.94,1.558,1.063
			c0.339,0.067,0.839,0.078,1.278-0.243c0.542-0.396,0.794-1.136,0.969-1.808C251.809,128.812,251.816,125.495,250.015,123.476z
			 M264.795,123.228c-1.043,0.687-1.985,1.517-2.716,2.43c-1.274,1.592-1.826,3.32-1.594,4.996c0.117,0.841,0.627,1.679,1.332,2.186
			c0.553,0.398,1.18,0.555,1.762,0.445c0.948-0.179,1.796-1.044,2.161-2.203c0.35-1.107,0.284-2.315,0.221-3.483
			c-0.073-1.338-0.155-2.854-0.915-4.026C264.969,123.454,264.886,123.339,264.795,123.228z"/>
	</g>
	<g>
		<path style="fill:#E8CB61;" d="M414.675,65.331c0-12.368-23.615-22.395-52.746-22.395c-29.131,0-52.746,10.027-52.746,22.395
			s23.615,22.395,52.746,22.395c0.351,0,0.697-0.008,1.046-0.011c0.97-0.008,3.516,6.185,3.925,7.096
			c1.22,2.719,2.191,5.549,2.905,8.442c1.463,5.935,1.488,11.978,2.15,18.037c3.039-12.152,4.116-24.445,0.009-33.974
			C396.293,85.325,414.675,76.242,414.675,65.331z"/>
		<path style="fill:#222540;" d="M377.174,73.004c-0.176,0-0.348-0.03-0.513-0.091c-0.567-0.208-0.971-0.74-1.235-1.625
			c-0.748-2.513-0.293-5.359,1.247-7.808c0.487-0.775,1.057-1.469,1.691-2.068c-1.15-1.129-2.666-1.886-4.283-2.059
			c-1.735-0.187-3.624,0.229-5.951,1.302c-0.692,0.319-1.391,0.696-2.068,1.127c1.146,2.68,0.079,6.101-1.403,8.5
			c-0.496,0.803-1.376,1.736-2.362,1.943c-0.485,0.102-0.951,0.012-1.346-0.261c-0.573-0.395-0.881-1.106-0.916-2.114
			c-0.118-3.481,2.225-6.362,5.057-8.323c-0.154-0.259-0.336-0.507-0.549-0.741c-1.208-1.332-3.241-1.969-6.014-1.916
			c-3.292,0.072-6.219,0.912-8.464,2.429c-0.163,0.11-0.322,0.224-0.478,0.341c0.746,1.094,1.217,2.417,1.306,3.768
			c0.121,1.852-0.473,3.496-1.672,4.63c-0.744,0.704-1.856,1.074-2.772,0.928c-0.617-0.101-1.089-0.425-1.363-0.938
			c-0.271-0.506-0.269-1.091-0.236-1.545c0.185-2.589,1.543-5.115,3.702-6.969c-0.302-0.354-0.64-0.669-1.007-0.936
			c-2.569-1.859-6.5-1.98-10.019-0.309c-3.18,1.512-5.71,4.102-8.235,6.847l-0.552-0.508c2.577-2.802,5.163-5.447,8.465-7.017
			c3.762-1.788,7.993-1.639,10.78,0.379c0.421,0.305,0.807,0.667,1.151,1.073c0.167-0.125,0.337-0.248,0.512-0.365
			c2.364-1.598,5.431-2.482,8.867-2.558c3.007-0.059,5.227,0.662,6.586,2.162c0.239,0.264,0.445,0.542,0.62,0.831
			c0.688-0.434,1.396-0.815,2.097-1.139c2.456-1.133,4.472-1.566,6.346-1.368c1.802,0.193,3.492,1.042,4.766,2.31
			c1.253-1.021,2.71-1.697,4.244-1.942c2.588-0.417,5.351,0.407,7.58,2.254c2.227,1.846,3.546,4.408,3.619,7.029l-0.75,0.021
			c-0.066-2.404-1.287-4.764-3.348-6.472c-2.063-1.709-4.607-2.47-6.983-2.091c-1.389,0.222-2.711,0.833-3.854,1.756
			c0.59,0.706,1.06,1.513,1.369,2.389c0.996,2.824,0.241,6.143-1.878,8.258C378.34,72.701,377.734,73.004,377.174,73.004z
			 M378.871,61.964c-0.585,0.555-1.112,1.198-1.564,1.916c-1.425,2.267-1.849,4.889-1.163,7.195
			c0.192,0.643,0.445,1.014,0.775,1.135c0.562,0.205,1.219-0.367,1.476-0.623c1.919-1.915,2.602-4.92,1.701-7.478
			C379.818,63.324,379.398,62.6,378.871,61.964z M365.424,62.208c-2.612,1.832-4.748,4.47-4.641,7.618
			c0.018,0.521,0.134,1.207,0.591,1.522c0.229,0.157,0.479,0.204,0.766,0.145c0.706-0.149,1.452-0.912,1.878-1.603
			C365.372,67.698,366.372,64.608,365.424,62.208z M349.002,62.114c-1.988,1.722-3.237,4.047-3.407,6.423
			c-0.026,0.375-0.029,0.803,0.149,1.138c0.163,0.304,0.439,0.489,0.822,0.552c0.672,0.11,1.573-0.199,2.137-0.732
			c1.035-0.978,1.546-2.412,1.439-4.037C350.065,64.259,349.654,63.087,349.002,62.114z"/>
	</g>
	<g>
		<g>
			<path style="fill:#B1D4E0;" d="M486.598,262.383v11.73c0,4.557,3.464,8.304,7.903,8.752c0.037,6.52-0.041,13.215,0.889,19.581
				c0.486,0.132,0.976,0.253,1.47,0.34c0.735-6.534,0.387-13.374,0.172-20.034c4.076-0.768,7.161-4.341,7.161-8.639v-11.73H486.598z
				"/>
			<polyline style="fill:#B1D4E0;" points="487.698,304.169 496.129,299.404 505.659,304.169 			"/>
		</g>
		<path style="fill:#E84B4B;" d="M494.163,274.898c-1.424,0.061-2.85,0.005-4.274,0.011c-0.552,0.002-1.104,0.013-1.656,0.037
			c0.039,2.98,1.894,5.522,4.511,6.566c1.766-0.001,3.533-0.001,5.299-0.007c2.647-1.053,4.52-3.631,4.52-6.653v-0.157
			C499.763,274.755,496.961,274.778,494.163,274.898z"/>
	</g>
	<g>
		<path style="fill:#E69771;" d="M450.718,432.92c0.128-0.995,0.256-1.989,0.384-2.984c0.263-2.046,0.527-4.093,0.79-6.139
			c0.593-4.605,0.86-8.448,4.548-11.92c1.425-1.342,3.378-2.144,5.334-2.058c2.398,0.106,5.282,1.866,5.755,4.409
			c0.668,3.597-1.379,8.677-2.338,12.115c-1.254,4.495-2.728,8.93-4.416,13.281c-0.673,1.735-1.492,4.359-2.97,5.602
			c-1.482,1.246-2.982,0.311-4.683-0.247c-4.048-1.329-3.387-4.421-2.921-8.042C450.374,435.599,450.546,434.259,450.718,432.92z"/>
		<path style="fill:#E69771;" d="M459.626,449.683c-0.382,0.193-0.815,0.299-1.303,0.302c-5.289,0.035-13.16,0.367-18.443,0.077
			c-2.003-0.11-3.924,0.664-5.906-0.186c-1.393-0.598-2.484-2.195-1.977-3.624c0.281-0.793,0.975-1.364,1.688-1.81
			c5.177-3.245,12.621-2.071,16.957-6.375c2.091-2.075,3.333-4.697,5.389-6.813c0.327-0.337,0.711-0.683,1.18-0.705
			c0.878-0.042,1.359,0.994,1.561,1.849C459.437,435.209,463.78,447.583,459.626,449.683z"/>
		<path style="fill:#E69771;" d="M391.485,437.376c-0.579,1.613-1.171,3.22-1.762,4.822c-0.518,1.405-1.116,2.912-2.387,3.705
			c-1.776,1.108-4.281,0.283-5.561-1.374c-2.988-3.867-1.297-10.361-1.009-14.755c0.229-3.5,0.586-6.991,1.068-10.465
			c0.816-5.875,2.364-12.297,7.235-15.683c1.264-0.879,2.845-1.517,4.331-1.113c1.194,0.325,2.13,1.277,2.758,2.344
			c1.415,2.405,1.481,5.356,1.288,8.14C396.867,421.374,394.331,429.447,391.485,437.376z"/>
		<path style="fill:#64B0CA;" d="M391.219,343.686c5.08-35.63,9.26-72.111,17.761-107.068c1.488-6.117,3.916-13.044,9.839-15.176
			c4.511-1.623,9.728,0.319,13.093,3.734c3.365,3.415,5.184,8.049,6.485,12.663c7.697,27.29-0.764,58.167-9.907,84.052
			c-5.308,15.028-8.847,30.188-11.754,45.712c-3.689,19.697-11.736,40.962-20.132,58.77c-4.21-1.023-10.598-4.517-14.426-6.545
			c-0.394-0.209-0.807-0.443-1.02-0.835c-0.226-0.416-0.181-0.92-0.129-1.391c2.271-20.544,5.91-43.2,8.742-63.624
			C390.246,350.555,390.729,347.123,391.219,343.686z"/>
		<g>
			<path style="fill:#64B0CA;" d="M474.405,396.893c3.568-18.239,4.116-36.574,1.248-54.86c-1.357-8.493,0.369-19.474-0.848-28.586
				c-1.772-13.266,1.952-28.193,3.511-41.55c0.499-4.273,0.996-8.619,0.255-12.857c-2.168-12.393-13.556-19.148-13.66-32.75
				c-0.012-1.615-0.075-3.564-1.474-4.371c-0.62-0.357-1.368-0.387-2.083-0.409c-6.295-0.186-14.589-1.605-20.259,1.948
				c-3.468,2.173-10.609,9.605-11.142,13.528c-0.402,2.962,0.395,5.94,1.141,8.835c7.052,27.374,9.024,54.98,11.452,82.955
				c1.622,18.692,3.235,37.384,4.848,56.077c0.827,9.585,1.585,19.179,2.481,28.758c0.583,6.235-0.212,5.641,4.854,7.54
				c0.962,0.361,12.418,1.785,12.5,1.566C470.29,414.314,472.687,405.67,474.405,396.893z"/>
		</g>
		<path style="fill:#FF4F4F;" d="M457.449,230.762c-15.503,0.388-31.022,0.143-46.504-0.736c-0.858-0.05-3.751-25.422-4.122-27.877
			c-1.345-8.898-1.031-17.43-0.813-26.434c0.16-6.598,3.577-11.581,9.814-14.069c2.747-1.096,6.079-0.157,9.013,0.262
			c1.255,0.179,2.755-1.225,4.057-1.103c1.642,0.154,3.28,0.334,4.903,0.597c3.379,0.547,6.805,1.024,10.27,0.712
			c0.352-0.032,3.144-0.58,3.506-0.609c4.278-0.335,14.134,1.633,17.734,4.08c7.674,5.215,4.511,19.798,4.424,27.769
			c-0.136,12.365-0.725,24.725-1.765,37.047C464.462,230.554,460.956,230.674,457.449,230.762z"/>
		<path style="fill:#FF4F4F;" d="M401.289,180.426c-1.369,3.029-3.595,5.702-6.744,6.781c-1.006,0.344-2.121,0.494-3.128,0.154
			c-1.445-0.489-2.377-1.856-3.201-3.139c-3.559-5.54-7.174-11.187-11.994-15.734c-3.528-3.328-9.788-8.5-14.698-4.366
			c-1.248,1.05-2.062,2.531-2.639,4.057c-1.65,4.361-1.436,9.357,0.419,13.62c1.961,4.506,4.322,9.016,6.673,13.363
			c2.855,5.278,6.28,10.401,11.059,14.03c6.595,5.007,15.471,6.71,23.561,4.946c8.09-1.763,15.319-6.85,20.107-13.606
			c4.788-6.756,7.179-15.089,7.189-23.369c0.004-3.158-0.342-6.376-1.618-9.266c-2.067-4.679-6.23-8.327-11.526-6.943
			c-3.044,0.796-5.827,2.563-7.841,4.981c-1.732,2.079-2.859,4.569-3.699,7.122C402.428,175.426,402.296,178.201,401.289,180.426z"
			/>
		<path style="fill:#FF4F4F;" d="M461.259,160.667c5.22-0.665,10.206,4.094,12.728,11.212c2.125,5.996,2.651,12.361,3.157,18.655
			c0.399,4.955,2.548,11.475,1.029,16.208c0.201-0.625,3.296-1.819,3.939-2.184c6.242-3.543,12.55-7.373,19.373-9.752
			c2.791-0.973,5.777-1.748,8.682-1.2c5.201,0.981,6.387,5.913,7.482,10.369c1.901,7.735-6.275,13.197-11.954,17.004
			c-6.073,4.072-12.404,7.757-18.944,11.027c-4.248,2.124-8.683,4.1-13.41,4.564c-3.762,0.369-7.618-0.255-11.071-1.793
			c-9.771-4.351-10.285-18.641-11.685-27.838c-1.879-12.337-4.925-28.734,2.355-39.952
			C455.546,162.972,458.437,161.027,461.259,160.667z"/>
		<path style="fill:#E69771;" d="M423.58,139.412c0.461,0.57,1.016,1.053,1.688,1.414c1.355,0.726,1.622,1.516,1.726,3.029
			c0.248,3.631-0.128,7.147-0.37,10.757c-0.082,1.227-0.343,2.326-0.943,3.417c-0.607,1.104-1.701,1.889-2.893,2.301
			c-1.191,0.412-2.477,0.478-3.735,0.395c-0.786-0.051-1.572-0.159-2.359-0.126c0.206,4.049,5.136,6.2,8.351,7.563
			c3.955,1.676,8.283,2.483,12.577,2.289c6.928-0.314,13.708-3.232,18.697-8.049c-6.821-0.914-13.093-5.839-12.49-14.328
			c0.493-6.943,2.911-16.678-0.194-23.25c-4.393-9.297-19.859-12.463-22.259-0.01c-0.509,2.638-0.313,5.36,0.004,8.028
			C421.655,135.147,422.18,137.679,423.58,139.412z"/>
		<path style="fill:#222540;" d="M486.351,116.843c3.468-4.98,2.574-12.239-1.334-16.882c-2.972-3.531-7.363-5.606-11.961-6.267
			c-0.941-0.404-2.067-0.48-3.041-0.575c-1.581-0.154-3.181-0.15-4.764-0.032c-3.183,0.238-6.324,0.919-9.282,2.132
			c-5.638,2.312-10.438,6.461-13.166,11.954c-0.733,1.476-1.321,3.03-1.714,4.632c-0.103,0.42-0.196,0.859-0.281,1.302
			c0.093-0.488-8.695-1.863-9.484-2.005c-2.133-0.381-4.332-0.762-6.449-0.303c-2.151,0.466-4.095,1.825-5.272,3.684
			c-1.177,1.86-1.573,4.198-1.074,6.341c0.12,0.515,0.293,1.026,0.596,1.46c0.742,1.063,2.119,1.474,3.409,1.607
			c3.297,0.339,6.582-0.665,9.653-1.912c-0.255,0.535-0.513,1.085-0.567,1.675c-0.054,0.59,0.14,1.24,0.629,1.574
			c0.343,0.235,0.778,0.285,1.193,0.295c1.457,0.033,2.922-0.36,4.166-1.12c-2.842,1.736,1.056,6.614,2.123,8.352
			c0.863,1.406,1.751,2.804,2.734,4.129c0.517,0.697,1.239,1.919,2.121,2.214c1.672,0.558,3.473-0.48,4.678-1.766
			c5.438-5.801,4.232-20.417-3.633-23.59c-0.058-0.332-0.121-0.663-0.193-0.983c-0.008-0.037-0.028-0.064-0.042-0.096
			c0.377-1.056,1.291-2.012,2.385-2.36c1.912-0.608,3.973,0.028,5.877,0.661c2.044,0.68,4.324,1.57,5.134,3.567
			c0.482,1.19,0.324,2.528,0.2,3.806c-0.744,7.718,0.509,16.372,6.372,21.446c6.049,5.236,16.252,4.641,21.652-1.262
			C492.416,132.619,492.103,122.404,486.351,116.843z"/>
		<path style="fill:#D7AA95;" d="M467.65,300.169c0.001-0.166,0.003-0.333,0.004-0.5"/>
		<path style="fill:#E69771;" d="M389.945,442.329c0.076,0.837,0.151,1.674,0.227,2.511c0.103,1.145,0.198,2.349-0.272,3.398
			c-1.529,3.418-7.386,1.165-10.235,1.279c-3.599,0.145-7.177,0.055-10.772,0.092c-2.136,0.022-5.459,1.07-7.192-0.561
			c-1.104-1.039-0.888-2.964,0.09-4.122c0.978-1.159,2.485-1.714,3.949-2.112c3.042-0.827,6.194-1.206,9.209-2.137
			c2.875-0.888,4.368-3.257,5.46-6.006c0.37-0.931,0.656-1.905,1.171-2.764c0.516-0.859,1.318-1.613,2.306-1.777
			c4.806-0.798,5.497,5.966,5.784,9.143C389.762,440.292,389.854,441.31,389.945,442.329z"/>
		<path style="fill:#222540;" d="M430.593,141.807c-0.376,0.004-0.752,0.001-1.128-0.011c-1.099-0.033-2.195-0.134-3.281-0.301
			c0.11,0.017,0.288,0.385,0.336,0.474c0.093,0.175,0.136,0.334,0.169,0.522c0.082,0.455,0.162,0.894,0.195,1.357
			c0.086,1.218,0.145,2.438,0.178,3.659c0.31-0.558,0.613-1.08,1.005-1.59c0.433-0.563,0.896-1.104,1.387-1.62
			c0.941-0.987,1.971-1.95,3.184-2.603c-0.224-0.013-0.473,0.049-0.701,0.063c-0.274,0.017-0.549,0.029-0.823,0.038
			C430.94,141.802,430.766,141.806,430.593,141.807z"/>
		<path style="fill:#E69771;" d="M442.561,135.725c-0.198,0.083-0.398,0.135-0.596,0.15c-1.686,0.125-3.53-2.17-4.087-3.547
			c-0.446-1.102-0.831-0.695-0.45-2.289c0.566-2.37,3.11-2.455,4.385-2.078c1.727,0.51,3.256,2.226,3.292,4.048
			C445.129,133.255,443.883,135.171,442.561,135.725z"/>
		<path style="fill:#222540;" d="M440.616,130.828c0.543-0.602,1.668-0.169,1.978,0.574c0.31,0.743,0.074,1.585-0.164,2.353"/>
		<path style="fill:#FFFFFF;" d="M428.7,135.199c-0.15,1.19-1.243,2.189-2.441,2.23c-1.199,0.042-2.359-0.879-2.591-2.055"/>
		<path style="fill:#222540;" d="M454.451,348.733l-0.482-0.574c2.988-2.514,5.23-5.965,6.313-9.718l0.721,0.207
			C459.879,342.543,457.553,346.125,454.451,348.733z"/>
		<path style="fill:#222540;" d="M403.75,343.971c-1.137-2.035-1.935-4.229-2.373-6.524l0.736-0.141
			c0.424,2.216,1.194,4.335,2.291,6.3L403.75,343.971z"/>
		<path style="fill:#E69771;" d="M543.045,187.201c-1.89-0.133-4.402,0.51-5.436,0.838c-2.307,0.732-4.701,1.631-7.083,1.196
			c-1.649-0.301-3.116-1.219-4.714-1.729c-5.267-1.682-10.659,4.622-14.368,7.494c-0.514,0.398-1.046,0.817-1.329,1.403
			c-1.093,2.258,1.656,6.556,3.304,7.967c3.079-2.553,6.1-5.031,9.409-7.311c0.246-0.17,0.506-0.345,0.803-0.38
			c0.326-0.038,0.645,0.098,0.947,0.228c5.195,2.231,11.572,1.406,16.305-1.648c1.797-1.16,4.025-3.609,4.444-5.762
			C545.64,187.893,544.535,187.306,543.045,187.201z"/>
		<path style="fill:#222540;" d="M408.042,214.819c-0.075-3.874-0.239-7.27-0.383-10.267c-0.446-9.282-0.77-15.988,1.992-26.379
			l0.725,0.192c-2.731,10.278-2.411,16.936-1.968,26.15c0.145,3.002,0.308,6.405,0.384,10.289L408.042,214.819z"/>
		<path style="fill:#222540;" d="M372.146,443.533c-0.2-0.326-0.413-0.649-0.645-0.963c-0.58-0.782-1.265-1.589-2.215-1.803
			c-0.79-0.178-1.604,0.094-2.369,0.362c-1.666,0.585-3.332,1.169-4.998,1.754c-2.862,1.004-6.063,2.33-7.098,5.181
			c-0.191,0.527-0.294,1.109-0.14,1.648c0.229,0.798,0.991,1.353,1.793,1.568c1.986,0.533,4.831-0.143,6.934-0.062
			c2.985,0.116,5.972,0.197,8.959,0.258c5.454,0.139,10.867-0.488,16.324-0.679c0.514-0.018,1.054-0.044,1.49-0.317
			c2.713-1.696-2.538-2.154-3.171-2.131c-3.176,0.117-6.38,0.859-9.56,0.484C374.391,448.474,373.607,445.918,372.146,443.533z"/>
		<path style="fill:#222540;" d="M428.703,450.892h5.444c2.149-0.102,4.422-0.337,6.504-0.054c0.125,0.017,0.238,0.036,0.361,0.054
			h19.491c0.282-0.002,0.564-0.012,0.846-0.012c0.299,0,0.625-0.008,0.855-0.199c0.341-0.282,0.296-0.849,0.026-1.199
			c-0.27-0.35-0.696-0.536-1.103-0.708c-0.929-0.393-1.872-0.791-2.871-0.934c-0.855-0.123-1.724-0.056-2.585,0.012
			c-2.401,0.188-8.128,1.748-10.157,0.303c-0.924-0.658-1.25-2.382-1.844-3.311c-0.828-1.295-1.906-2.468-3.346-3.08
			c-1.778-0.756-3.397-0.359-4.991,0.317c-0.916,0.388-1.823,0.869-2.749,1.277c-1.383,0.609-2.802,1.243-3.859,2.324
			c-0.999,1.021-2.084,3.461-0.853,4.746C428.085,450.648,428.378,450.787,428.703,450.892z"/>
		<path style="fill:#222540;" d="M456.002,230.977c-4.08-13.617-5.341-28.273-3.647-42.386l0.744,0.09
			c-1.681,14.01-0.429,28.562,3.622,42.081L456.002,230.977z"/>
		<path style="fill:#E69771;" d="M332.049,160.28c-0.564-0.406-1.13-0.858-1.728-1.355c-2.264-1.884-0.203-2.149,1.493-2.402
			c2.441-0.365,4.861-0.914,7.298-1.314c4.769-0.782,9.568-1.399,14.39-1.734c2.344-0.163,4.838-0.244,6.886,0.909
			c1.932,1.088,6.136,8.175,6.516,10.562c0.211,1.325,0.037,2.683-0.248,3.993c-0.301,1.38-0.823,2.861-2.047,3.566
			c-1.151,0.664-2.649,0.435-3.798-0.232c-1.149-0.667-2.025-1.709-2.876-2.73c-1.269-1.523-2.208-3.272-3.242-4.954
			c-1.22-1.985-1.421-2.501-3.865-2.004C345.013,163.768,337.049,163.884,332.049,160.28z"/>
		<path style="fill:#222540;" d="M361.044,173.911l-0.031-0.749c1.541-0.063,3.044-0.868,4.125-2.206
			c1.081-1.337,1.55-2.977,1.288-4.496l0.739-0.128c0.299,1.732-0.228,3.589-1.443,5.095
			C364.505,172.933,362.801,173.838,361.044,173.911z"/>
		<g>
			<g>
				<path style="fill:#E8CB61;" d="M349.763,154.946c5.143-0.455,10.32-0.552,15.437-1.233c1.061-0.141,2.167-0.326,3.021-0.935
					c0.444-0.317,0.807-0.754,0.931-1.259c0.167-0.674-0.102-1.362-0.332-2.015c-1.067-3.032-1.355-6.307-0.836-9.479
					c0.172-1.051,0.432-2.103,0.381-3.162c-0.044-0.917-0.382-2.635-1.739-2.518c-0.008,0.001-6.19,0.531-6.19,0.531
					c-4.673,0.401-9.347,0.866-14.025,1.204c-1.775,0.128-2.792,1.201-4.28,1.937c-1.765,0.873-3.186,2.152-4.768,3.27
					c-1.708,1.208-3.491,2.321-5.338,3.334c-3.646,2-7.539,3.606-11.576,4.766c-0.651,0.187-1.318,0.368-1.88,0.728
					c-2.672,1.71-0.793,5.126,1.404,6.234c0.905,0.457,2.064,1.208,3.102,1.343c1.027,0.134,2.302-0.087,3.352-0.141
					c2.582-0.133,5.157-0.388,7.724-0.693C339.358,156.238,344.538,155.408,349.763,154.946z"/>
				<path style="fill:#5D8CA2;" d="M320.079,157.501c0.582,0.281,1.236,0.481,1.947,0.587c1.162,0.173,2.35,0.12,3.528,0.065
					c3.973-0.183,7.988-0.333,11.954-0.926c3.901-0.626,7.832-1.149,11.787-1.271c4.262-0.131,8.516,0.193,12.777,0.079
					c2.073-0.055,4.149-0.213,6.191-0.586c0.829-0.151,1.906-0.096,2.645-0.526c1.023-0.596,0.512-1.708-0.019-2.478
					c-0.711-1.031-1.422-2.061-2.132-3.092c-0.098-0.143-0.202-0.29-0.361-0.374c-0.202-0.106-0.451-0.088-0.683-0.065
					c-4.232,0.422-8.346,1.568-12.518,2.375c-3.547,0.686-7.138,1.127-10.727,1.567c-4.761,0.584-9.522,1.169-14.284,1.753
					c-2.116,0.26-4.238,0.52-6.368,0.532c-1.478,0.009-3.006-0.066-4.454-0.338c-0.925-0.174-2.202-1.115-2.128-2.134
					C317.077,154.844,318.204,156.595,320.079,157.501z"/>
				<path d="M344.291,137.281c0.116,1.305,5.5,1.893,12.026,1.313c6.526-0.579,11.723-2.106,11.607-3.41
					c-0.116-1.304-5.5-1.892-12.026-1.313S344.176,135.977,344.291,137.281z"/>
				<path style="fill:#E8CB61;" d="M346.162,136.359c0.055-0.562,0.024-1.157-0.291-1.635c-0.597-0.907-2.036-1.048-3.082-0.59
					c-1.047,0.458-1.788,1.351-2.472,2.22c-1.933,2.456-3.794,5.026-6.355,6.923c-0.553,0.41-1.158,0.81-1.466,1.401
					c-0.308,0.591-0.168,1.441,0.48,1.685c0.278,0.105,0.497-0.049,0.783,0.034c1.162,0.337,2.445,0.069,3.56-0.408
					c2.461-1.052,3.709-2.872,5.509-4.584C344.438,139.875,345.937,138.635,346.162,136.359z"/>
			</g>
			<path d="M328.356,149.137l-0.066-0.495c4.951-0.662,9.685-3.058,12.988-6.574l0.364,0.343
				C338.262,146.009,333.419,148.461,328.356,149.137z"/>
			<path style="fill:#DE594D;" d="M330.602,149.174c-0.91-1.225-2.014-2.325-3.266-3.253c-0.435-0.322-0.999,0.3-0.563,0.624
				c1.199,0.888,2.245,1.929,3.116,3.102C330.205,150.072,330.919,149.6,330.602,149.174z"/>
			<path style="fill:#DE594D;" d="M333.358,148.424c-0.984-1.434-2.187-2.734-3.56-3.857c-0.418-0.342-0.98,0.282-0.563,0.624
				c1.321,1.081,2.464,2.327,3.41,3.706C332.944,149.333,333.657,148.86,333.358,148.424z"/>
			<path style="fill:#DE594D;" d="M336.493,147.384c-1.119-1.559-2.49-2.957-4.056-4.138c-0.432-0.326-0.996,0.297-0.563,0.624
				c1.512,1.14,2.825,2.481,3.906,3.987C336.089,148.287,336.802,147.815,336.493,147.384z"/>
			<path style="fill:#DE594D;" d="M338.969,145.482c-1.084-1.523-2.408-2.895-3.918-4.062c-0.428-0.331-0.991,0.292-0.563,0.624
				c1.457,1.127,2.722,2.442,3.768,3.911C338.563,146.386,339.276,145.913,338.969,145.482z"/>
			<path d="M344.217,140.105l-0.326-0.379c0.71-0.61,1.379-1.274,1.986-1.974l0.378,0.328
				C345.631,138.798,344.945,139.479,344.217,140.105z"/>
			<path d="M347.416,150.096l-0.496-0.063c0.181-1.447,0.712-2.871,1.536-4.117c0.523-0.791,1.107-1.181,1.729-1.146
				c0.386,0.02,0.766,0.206,1.13,0.554c0.525,0.503,0.842,1.119,1.03,1.753c0.177-0.781,0.489-1.496,1.055-2.095
				c0.24-0.255,0.468-0.41,0.716-0.488c0.805-0.251,1.569,0.354,1.971,1.065c0.186,0.329,0.329,0.676,0.43,1.034
				c0.05-0.159,0.104-0.317,0.162-0.474c0.387-1.046,1.274-2.231,2.516-2.093c0.736,0.077,1.401,0.645,1.78,1.521
				c0.352,0.812,0.457,1.7,0.305,2.571l-0.492-0.086c0.135-0.774,0.041-1.565-0.271-2.287c-0.115-0.265-0.553-1.137-1.373-1.223
				c-0.952-0.101-1.67,0.891-1.996,1.77c-0.216,0.583-0.372,1.184-0.464,1.792c-0.011,0.204-0.035,0.407-0.073,0.608l-0.495-0.068
				c0.017-0.197,0.04-0.395,0.069-0.59c0.036-0.772-0.146-1.547-0.533-2.23c-0.293-0.518-0.853-0.998-1.386-0.834
				c-0.163,0.051-0.323,0.164-0.502,0.354c-0.977,1.033-1.106,2.526-1.16,4.094l-0.5-0.013c0.032-1.769-0.329-2.951-1.134-3.722
				c-0.275-0.263-0.547-0.403-0.809-0.417c-0.456-0.021-0.869,0.29-1.287,0.923C348.091,147.375,347.587,148.725,347.416,150.096z"
				/>
			<path d="M324.478,153.027c-0.154-0.827-0.313-1.682-0.634-2.468c-0.351-0.857-0.871-1.535-1.504-1.961l0.279-0.415
				c0.716,0.482,1.299,1.238,1.688,2.187c0.341,0.834,0.505,1.715,0.663,2.567L324.478,153.027z"/>
		</g>
		<path style="fill:#222540;" d="M437.172,289.317l-0.748-0.064c0.44-5.063-0.363-10.266-1.141-15.296
			c-0.997-6.458-2.028-13.136-0.426-19.563l0.729,0.182c-1.567,6.279-0.547,12.882,0.438,19.267
			C436.809,278.917,437.619,284.164,437.172,289.317z"/>
		<path style="fill:#FF4F4F;" d="M446.905,113.581c-1.261-1.924-3.659-3.035-5.946-2.45c-1.705,0.436-1.464,2.683,0,3.223
			c1.741,0.642,3.76,0.483,5.552,0.194C446.924,114.481,447.12,113.909,446.905,113.581z"/>
		<path style="fill:#222540;" d="M471.808,219.272l-0.719-0.217c1.438-4.752,3.999-9.174,7.404-12.788l0.545,0.515
			C475.713,210.312,473.212,214.631,471.808,219.272z"/>
		<path style="fill:#222540;" d="M515.121,205.944c-1.813-0.77-3.339-2.386-4.298-4.552c-0.886-2.001-1.196-4.174-1.418-6.054
			l0.744-0.088c0.268,2.265,0.601,4.124,1.359,5.838c0.882,1.991,2.269,3.47,3.905,4.165L515.121,205.944z"/>
	</g>
	<g>
		<path style="fill:#222540;" d="M381.634,287.865c-1.425-10.959-3.493-21.952-6.146-32.675l0.728-0.18
			c2.66,10.749,4.734,21.771,6.163,32.757L381.634,287.865z"/>
		<rect x="355.501" y="276.011" style="fill:#E8CB61;" width="67.021" height="28.345"/>
		<rect x="355.499" y="282.994" style="fill:#222540;" width="67.157" height="0.75"/>
		<path style="fill:#222540;" d="M398.919,300.73l-0.58-1.681c-0.685-1.981-1.726-4.294-3.725-4.583
			c-1.688-0.249-3.33,1.052-5.004,3.964l-0.836,1.453l0.137-1.67c0.077-0.936-0.348-1.883-1.163-2.602
			c-0.955-0.842-2.254-1.216-3.384-0.975c-2.094,0.443-3.806,2.627-3.983,5.081l-0.748-0.055c0.204-2.819,2.128-5.242,4.576-5.761
			c1.36-0.284,2.907,0.152,4.036,1.146c0.655,0.577,1.103,1.283,1.304,2.033c0.978-1.508,2.777-3.699,5.174-3.358
			c1.978,0.286,3.122,2.068,3.886,3.909c0.696-1.85,2.51-3.249,4.52-3.322c2.446-0.079,4.747,1.808,5.126,4.225l-0.74,0.117
			c-0.317-2.021-2.328-3.694-4.358-3.592c-2.045,0.074-3.917,1.858-4.087,3.897L398.919,300.73z"/>
		<g>
			<g>
				<path style="fill:#E84B4B;" d="M379.887,275.164c5.324-0.144,10.659,0.083,15.97-0.295c1.101-0.078,2.251-0.199,3.169-0.772
					c0.477-0.298,0.878-0.725,1.039-1.237c0.214-0.684-0.019-1.409-0.215-2.096c-0.907-3.189-0.997-6.578-0.262-9.811
					c0.244-1.071,0.578-2.138,0.592-3.232c0.012-0.947-0.227-2.736-1.632-2.702c-0.008,0-6.406,0.156-6.406,0.156
					c-4.836,0.118-9.677,0.302-14.515,0.354c-1.836,0.02-2.95,1.06-4.528,1.724c-1.872,0.787-3.416,2.014-5.115,3.065
					c-1.834,1.136-3.741,2.169-5.706,3.095c-3.88,1.828-7.99,3.237-12.219,4.176c-0.682,0.151-1.38,0.296-1.981,0.631
					c-2.859,1.591-1.14,5.227,1.052,6.507c0.903,0.527,2.048,1.374,3.109,1.578c1.049,0.202,2.375,0.056,3.46,0.067
					c2.667,0.026,5.334-0.074,7.996-0.226C369.093,275.838,374.479,275.31,379.887,275.164z"/>
				<path style="fill:#5D8CA2;" d="M349.166,275.921c0.582,0.326,1.242,0.573,1.967,0.727c1.185,0.252,2.412,0.271,3.628,0.29
					c4.102,0.063,8.245,0.161,12.365-0.199c4.056-0.399,8.135-0.689,12.215-0.564c4.396,0.134,8.755,0.736,13.15,0.888
					c2.137,0.074,4.285,0.043,6.41-0.212c0.863-0.103,1.968,0.022,2.756-0.375c1.091-0.548,0.635-1.726,0.137-2.552
					c-0.667-1.106-1.333-2.212-2-3.318c-0.092-0.153-0.19-0.312-0.348-0.408c-0.201-0.122-0.459-0.119-0.699-0.11
					c-4.383,0.168-8.691,1.088-13.037,1.655c-3.695,0.482-7.42,0.71-11.142,0.936c-4.939,0.301-9.877,0.602-14.816,0.904
					c-2.194,0.134-4.396,0.268-6.59,0.146c-1.522-0.084-3.09-0.257-4.564-0.629c-0.942-0.238-2.197-1.287-2.056-2.331
					C346.243,272.996,347.292,274.87,349.166,275.921z"/>
				<path d="M375.369,256.633c0.037,1.35,5.543,2.296,12.298,2.111c6.755-0.184,12.201-1.428,12.164-2.778
					c-0.037-1.35-5.543-2.295-12.298-2.111C380.779,254.039,375.332,255.283,375.369,256.633z"/>
				<path style="fill:#E84B4B;" d="M377.353,255.801c0.092-0.575,0.098-1.19-0.196-1.702c-0.558-0.971-2.03-1.207-3.136-0.802
					c-1.107,0.406-1.926,1.278-2.685,2.129c-2.146,2.406-4.224,4.934-6.98,6.727c-0.595,0.387-1.243,0.761-1.598,1.35
					c-0.354,0.589-0.264,1.473,0.388,1.765c0.279,0.125,0.514-0.019,0.804,0.085c1.175,0.42,2.513,0.226,3.691-0.195
					c2.6-0.928,4-2.723,5.961-4.372C375.357,259.313,376.978,258.131,377.353,255.801z"/>
			</g>
			<path style="fill:#E84B4B;" d="M358.197,267.576c5.216-0.374,10.266-2.553,13.945-6.017"/>
			<path d="M360.525,268.012c-0.86-1.319-1.927-2.521-3.157-3.555c-0.428-0.359-1.047,0.246-0.619,0.607
				c1.178,0.99,2.189,2.128,3.012,3.39C360.06,268.912,360.824,268.471,360.525,268.012z"/>
			<path d="M363.409,267.414c-0.923-1.539-2.079-2.952-3.422-4.196c-0.409-0.379-1.027,0.228-0.619,0.607
				c1.291,1.196,2.39,2.551,3.277,4.031C362.926,268.324,363.69,267.882,363.409,267.414z"/>
			<path d="M366.703,266.541c-1.054-1.675-2.377-3.202-3.914-4.516c-0.424-0.363-1.044,0.243-0.619,0.607
				c1.485,1.27,2.751,2.732,3.769,4.351C366.23,267.446,366.994,267.005,366.703,266.541z"/>
			<path d="M369.372,264.739c-1.02-1.637-2.297-3.132-3.778-4.429c-0.42-0.368-1.039,0.238-0.619,0.606
				c1.429,1.252,2.649,2.685,3.633,4.265C368.897,265.645,369.661,265.203,369.372,264.739z"/>
			<path style="fill:#E84B4B;" d="M374.958,259.329c0.782-0.592,1.518-1.238,2.198-1.931"/>
			<path style="fill:#FFFFFF;" d="M377.77,270.022l-0.491-0.092c0.277-1.477,0.913-2.908,1.839-4.139
				c0.586-0.779,1.211-1.138,1.845-1.067c0.393,0.043,0.771,0.258,1.124,0.639c0.516,0.559,0.803,1.223,0.955,1.897
				c0.23-0.804,0.597-1.529,1.224-2.116c0.166-0.155,0.426-0.372,0.765-0.456c0.839-0.202,1.585,0.463,1.952,1.218
				c0.174,0.357,0.302,0.732,0.382,1.115c0.064-0.169,0.133-0.336,0.206-0.501c0.465-1.052,1.461-2.199,2.714-1.993
				c0.749,0.126,1.396,0.751,1.731,1.674c0.31,0.858,0.362,1.779,0.151,2.662l-0.486-0.115c0.188-0.789,0.141-1.61-0.136-2.377
				c-0.102-0.281-0.5-1.209-1.343-1.35c-0.978-0.172-1.782,0.813-2.175,1.701c-0.26,0.587-0.458,1.196-0.592,1.816
				c-0.023,0.209-0.062,0.417-0.114,0.622l-0.489-0.099c0.03-0.202,0.066-0.403,0.109-0.604c0.086-0.794-0.053-1.604-0.408-2.333
				c-0.271-0.556-0.816-1.096-1.383-0.95c-0.171,0.042-0.344,0.148-0.543,0.335c-1.071,1.002-1.299,2.533-1.455,4.146l-0.498-0.044
				c0.144-1.82-0.153-3.063-0.935-3.909c-0.269-0.29-0.542-0.452-0.812-0.482c-0.449-0.036-0.918,0.244-1.391,0.872
				C378.637,267.262,378.033,268.62,377.77,270.022z"/>
			<path d="M353.984,271.592c-0.106-0.862-0.216-1.754-0.498-2.584c-0.307-0.904-0.801-1.637-1.427-2.117l0.305-0.396
				c0.705,0.541,1.257,1.354,1.596,2.354c0.298,0.879,0.411,1.796,0.521,2.684L353.984,271.592z"/>
		</g>
	</g>
	<g>
		<rect x="146.695" y="377.447" transform="matrix(0.2558 -0.9667 0.9667 0.2558 -200.6296 496.2612)" width="150.661" height="2"/>
		<rect x="480.324" y="303.117" transform="matrix(0.9666 -0.2563 0.2563 0.9666 -80.9199 136.0081)" width="2" height="150.661"/>
		<rect x="187.607" y="303.915" width="329.067" height="2"/>
	</g>
	<g>
		<ellipse transform="matrix(0.2743 -0.9616 0.9616 0.2743 -112.4444 249.2123)" cx="108.904" cy="199.111" rx="20.04" ry="20.04"/>
		<rect x="104.616" y="229.365" style="fill:#B3B3B3;" width="8.969" height="48.888"/>
		<g>
			<g>
				
					<rect x="77.777" y="338.152" transform="matrix(0.9707 0.2404 -0.2404 0.9707 96.9036 -7.7522)" style="fill:#DEDEDE;" width="4.904" height="110.392"/>
				
					<rect x="89.16" y="288.724" transform="matrix(0.9707 0.2404 -0.2404 0.9707 85.0665 -12.2616)" style="fill:#DEDEDE;" width="7.277" height="107.734"/>
				
					<rect x="97.261" y="282.681" transform="matrix(0.9707 0.2404 -0.2404 0.9707 76.9378 -15.3606)" style="fill:#DEDEDE;" width="8.351" height="50.055"/>
				<path d="M82.563,398.8l-6.942-1.719c-1.113-0.275-1.791-1.401-1.516-2.513l0.14-0.564c0.275-1.113,1.401-1.791,2.513-1.516
					l6.942,1.719c1.113,0.275,1.791,1.401,1.516,2.513l-0.14,0.563C84.801,398.397,83.676,399.075,82.563,398.8z"/>
				<path d="M69.864,450.081l-6.942-1.719c-1.112-0.276-1.791-1.401-1.516-2.513l0.139-0.564c0.276-1.113,1.401-1.791,2.513-1.516
					l6.942,1.719c1.113,0.276,1.791,1.401,1.516,2.513l-0.14,0.563C72.102,449.678,70.977,450.357,69.864,450.081z"/>
				<path d="M97.703,335.293l-5.837-1.445c-1.323-0.328-2.13-1.666-1.802-2.989l0.166-0.67c0.328-1.323,1.666-2.13,2.989-1.802
					l5.836,1.445c1.323,0.328,2.13,1.666,1.802,2.989l-0.166,0.67C100.364,334.814,99.026,335.621,97.703,335.293z"/>
			</g>
			<g>
				
					<rect x="135.899" y="338.152" transform="matrix(-0.9707 0.2404 -0.2404 -0.9707 367.1966 741.9064)" style="fill:#DEDEDE;" width="4.904" height="110.392"/>
				
					<rect x="122.143" y="288.724" transform="matrix(-0.9707 0.2404 -0.2404 -0.9707 330.2222 644.9051)" style="fill:#DEDEDE;" width="7.277" height="107.734"/>
				
					<rect x="112.968" y="282.681" transform="matrix(-0.9707 0.2404 -0.2404 -0.9707 304.8168 578.2381)" style="fill:#DEDEDE;" width="8.351" height="50.055"/>
				<path d="M136.017,398.8l6.942-1.719c1.113-0.275,1.791-1.401,1.516-2.513l-0.139-0.564c-0.275-1.113-1.401-1.791-2.513-1.516
					l-6.942,1.719c-1.113,0.275-1.791,1.401-1.516,2.513l0.14,0.563C133.779,398.397,134.905,399.075,136.017,398.8z"/>
				<path d="M148.716,450.081l6.942-1.719c1.112-0.276,1.791-1.401,1.516-2.513l-0.139-0.564c-0.275-1.113-1.401-1.791-2.513-1.516
					l-6.942,1.719c-1.113,0.276-1.791,1.401-1.516,2.513l0.139,0.563C146.478,449.678,147.604,450.357,148.716,450.081z"/>
				<path d="M120.878,335.293l5.836-1.445c1.323-0.328,2.13-1.666,1.802-2.989l-0.166-0.67c-0.328-1.323-1.666-2.13-2.989-1.802
					l-5.837,1.445c-1.323,0.328-2.13,1.666-1.802,2.989l0.166,0.67C118.216,334.814,119.554,335.621,120.878,335.293z"/>
			</g>
		</g>
		<path d="M117.523,233.433h-16.991c-0.795,0-1.439-0.644-1.439-1.439v-3.179c0-0.795,0.644-1.439,1.439-1.439h16.991
			c0.795,0,1.439,0.644,1.439,1.439v3.179C118.962,232.789,118.318,233.433,117.523,233.433z"/>
		<path style="fill:#5D8CA2;" d="M121.819,229.21H96.235c-2.461,0-4.456-1.995-4.456-4.456v-30.594c0-2.461,1.995-4.456,4.456-4.456
			h25.584c2.461,0,4.456,1.995,4.456,4.456v30.594C126.275,227.215,124.28,229.21,121.819,229.21z"/>
		<circle cx="108.904" cy="207.483" r="11.828"/>
		<path d="M182.676,226.517l-47.899-8.735c-2.531-0.462-4.583-2.963-4.583-5.586v-23.618c0-2.623,2.052-4.376,4.583-3.914
			l47.899,8.736c2.531,0.462,4.583,2.962,4.583,5.586v23.618C187.259,225.226,185.207,226.979,182.676,226.517z"/>
		<polygon style="fill:#64B0CA;" points="180.378,226.098 137.075,218.2 137.075,185.083 180.378,192.98 		"/>
		<path style="fill:#FF4F4F;" d="M175.846,200.729c0,2.123-1.661,3.541-3.709,3.168c-2.049-0.374-3.709-2.398-3.709-4.521
			c0-2.123,1.661-3.541,3.709-3.167C174.185,196.582,175.846,198.606,175.846,200.729z"/>
		<g>
			<rect x="106.838" y="330.757" style="fill:#B3B3B3;" width="4.904" height="118.392"/>
			<rect x="105.651" y="279.796" style="fill:#B3B3B3;" width="7.277" height="111.734"/>
			<rect x="105.115" y="272.699" style="fill:#B3B3B3;" width="8.351" height="50.055"/>
			<path style="fill:#171717;" d="M112.866,394.684h-7.151c-1.146,0-2.075-0.929-2.075-2.075v-0.58c0-1.146,0.929-2.075,2.075-2.075
				h7.151c1.146,0,2.075,0.929,2.075,2.075v0.58C114.941,393.755,114.012,394.684,112.866,394.684z"/>
			<path style="fill:#171717;" d="M112.866,451.514h-7.151c-1.146,0-2.075-0.929-2.075-2.075v-0.58c0-1.146,0.929-2.075,2.075-2.075
				h7.151c1.146,0,2.075,0.929,2.075,2.075v0.58C114.941,450.585,114.012,451.514,112.866,451.514z"/>
			<path style="fill:#171717;" d="M112.297,325.4h-6.013c-1.363,0-2.468-1.105-2.468-2.468v-0.69c0-1.363,1.105-2.468,2.468-2.468
				h6.013c1.363,0,2.468,1.105,2.468,2.468v0.69C114.765,324.295,113.66,325.4,112.297,325.4z"/>
		</g>
		<path d="M120.313,284.668H98.268c-0.795,0-1.439-0.645-1.439-1.439V270.91c0-0.795,0.644-1.439,1.439-1.439h22.045
			c0.795,0,1.439,0.644,1.439,1.439v12.319C121.752,284.024,121.107,284.668,120.313,284.668z"/>
	</g>
	<rect x="42.043" y="450.737" width="515.913" height="1"/>
</g>
</svg>
