<?xml version="1.0" encoding="utf-8"?>
<!-- Generator: Adobe Illustrator 27.5.0, SVG Export Plug-In . SVG Version: 6.00 Build 0)  -->
<svg version="1.1" xmlns="http://www.w3.org/2000/svg" xmlns:xlink="http://www.w3.org/1999/xlink" x="0px" y="0px"
	 viewBox="0 0 3710 3710" style="enable-background:new 0 0 3710 3710;" xml:space="preserve">
<g id="Background">
	<g>
		<g>
			<rect style="fill:#FFFFFF;" width="3710" height="3710"/>
		</g>
	</g>
</g>
<g id="Illustration">
	<g>
		<linearGradient id="SVGID_1_" gradientUnits="userSpaceOnUse" x1="3487.021" y1="3702.2065" x2="1541.2159" y2="1630.8662">
			<stop  offset="0" style="stop-color:#B37CFF"/>
			<stop  offset="1" style="stop-color:#F895E7"/>
		</linearGradient>
		<path style="opacity:0.3;fill:url(#SVGID_1_);" d="M2902.795,2871.194c-71.831,74.041-136.103,117.565-185.312,150.422
			c-479.925,320.45-1028.531,228.089-1198.146,196.52c-273.654-50.933-504.655-86.864-703.127-266.175
			c-450.987-407.449-429.052-1257.419-84.443-1783.938c40.86-62.43,384.948-572.475,934.742-644.344
			c13.447-1.758,23.481-2.759,32.268-3.689c85.052-9.005,612.101-56.532,1041.857,303.518
			c61.518,51.539,160.517,144.503,252.322,286.288C3328.635,1628.224,3329.698,2431.158,2902.795,2871.194z"/>
		<g>
			<g>
				<g>
					<path style="fill:#E992EC;" d="M3049.151,1290.696c-0.735,0-1.461-0.316-1.966-0.924c-0.894-1.085-0.741-2.688,0.343-3.583
						c2.6-2.145,5.157-4.33,7.678-6.551c1.052-0.926,2.665-0.832,3.592,0.226c0.93,1.053,0.828,2.662-0.227,3.592
						c-2.56,2.258-5.162,4.477-7.802,6.657C3050.295,1290.505,3049.721,1290.696,3049.151,1290.696z"/>
					<path style="fill:#E992EC;" d="M2858.779,1362.81c-1.365,0-2.496-1.084-2.541-2.46c-0.05-1.404,1.052-2.581,2.456-2.629
						c6.487-0.22,13.057-0.651,19.532-1.281c1.382-0.15,2.645,0.887,2.779,2.285c0.137,1.4-0.887,2.645-2.287,2.781
						c-6.579,0.641-13.258,1.08-19.85,1.303C2858.838,1362.81,2858.809,1362.81,2858.779,1362.81z M2826.725,1362.262
						c-0.058,0-0.117-0.002-0.177-0.006c-6.594-0.451-13.256-1.116-19.8-1.979c-1.392-0.182-2.374-1.461-2.19-2.854
						c0.182-1.394,1.412-2.386,2.856-2.191c6.438,0.848,12.995,1.503,19.482,1.946c1.402,0.096,2.46,1.31,2.366,2.713
						C2829.171,1361.234,2828.052,1362.262,2826.725,1362.262z M2910.176,1356.782c-1.189,0-2.25-0.834-2.493-2.042
						c-0.279-1.378,0.614-2.72,1.994-2.999c6.351-1.28,12.763-2.785,19.059-4.472c1.364-0.362,2.752,0.443,3.117,1.8
						c0.363,1.357-0.442,2.753-1.799,3.117c-6.398,1.715-12.915,3.244-19.373,4.546
						C2910.511,1356.766,2910.342,1356.782,2910.176,1356.782z M2775.547,1354.503c-0.194,0-0.393-0.022-0.589-0.068
						c-6.415-1.52-12.878-3.263-19.206-5.185c-1.345-0.409-2.103-1.831-1.695-3.175c0.407-1.344,1.817-2.105,3.176-1.696
						c6.227,1.891,12.585,3.607,18.898,5.103c1.367,0.325,2.215,1.695,1.889,3.064
						C2777.743,1353.715,2776.7,1354.503,2775.547,1354.503z M2959.909,1342.428c-1.027,0-1.993-0.625-2.379-1.642
						c-0.5-1.314,0.159-2.784,1.474-3.283l1.705-0.653c5.501-2.119,11.011-4.423,16.382-6.846c1.28-0.582,2.789-0.007,3.365,1.274
						c0.579,1.281,0.01,2.787-1.272,3.366c-5.456,2.462-11.056,4.802-16.646,6.956l-1.725,0.66
						C2960.516,1342.374,2960.21,1342.428,2959.909,1342.428z M2726.324,1338.51c-0.328,0-0.661-0.065-0.982-0.198
						c-6.099-2.551-12.192-5.32-18.104-8.236c-1.26-0.622-1.78-2.148-1.156-3.409c0.621-1.26,2.145-1.775,3.408-1.157
						c5.818,2.87,11.811,5.596,17.816,8.104c1.297,0.542,1.909,2.033,1.367,3.331
						C2728.266,1337.921,2727.319,1338.51,2726.324,1338.51z M3006.663,1320.23c-0.88,0-1.733-0.455-2.205-1.27
						c-0.706-1.216-0.291-2.774,0.927-3.477c5.627-3.26,11.22-6.737,16.621-10.335c1.173-0.783,2.749-0.464,3.53,0.705
						c0.78,1.171,0.462,2.751-0.706,3.53c-5.491,3.657-11.173,7.192-16.895,10.504
						C3007.535,1320.119,3007.095,1320.23,3006.663,1320.23z M2680.364,1314.737c-0.46,0-0.928-0.124-1.348-0.388
						c-5.612-3.511-11.172-7.234-16.524-11.066c-1.143-0.818-1.407-2.407-0.589-3.55c0.82-1.145,2.406-1.407,3.552-0.588
						c5.266,3.769,10.737,7.433,16.26,10.89c1.193,0.746,1.554,2.316,0.808,3.507
						C2682.042,1314.313,2681.211,1314.737,2680.364,1314.737z M2638.899,1283.809c-0.599,0-1.201-0.21-1.683-0.636
						c-4.956-4.369-9.833-8.95-14.491-13.613c-0.994-0.995-0.994-2.606,0-3.6c0.994-0.992,2.605-0.993,3.599,0.001
						c4.586,4.589,9.383,9.095,14.257,13.395c1.054,0.93,1.156,2.538,0.226,3.593
						C2640.306,1283.519,2639.603,1283.809,2638.899,1283.809z M2603.07,1246.525c-0.741,0-1.474-0.321-1.976-0.938
						c-4.156-5.108-8.212-10.424-12.053-15.803c-0.818-1.143-0.552-2.733,0.592-3.551c1.141-0.815,2.731-0.552,3.55,0.593
						c3.78,5.292,7.769,10.522,11.859,15.547c0.887,1.091,0.723,2.694-0.368,3.58
						C2604.201,1246.339,2603.634,1246.525,2603.07,1246.525z M2573.845,1203.848c-0.885,0-1.745-0.461-2.215-1.285
						c-3.266-5.734-6.395-11.647-9.303-17.577c-0.616-1.261-0.094-2.786,1.165-3.405c1.263-0.62,2.789-0.097,3.408,1.165
						c2.859,5.835,5.938,11.654,9.155,17.296c0.696,1.222,0.269,2.775-0.952,3.471
						C2574.704,1203.741,2574.272,1203.848,2573.845,1203.848z M2551.969,1156.952c-1.033,0-2.005-0.635-2.386-1.662
						c-2.309-6.22-4.442-12.565-6.343-18.856c-0.408-1.345,0.353-2.765,1.7-3.172c1.34-0.409,2.766,0.354,3.171,1.7
						c1.871,6.19,3.972,12.434,6.243,18.557c0.49,1.318-0.183,2.783-1.501,3.271
						C2552.563,1156.9,2552.262,1156.952,2551.969,1156.952z M2537.955,1107.125c-1.193,0-2.259-0.844-2.495-2.059
						c-1.255-6.453-2.329-13.059-3.189-19.636c-0.184-1.395,0.798-2.672,2.192-2.855c1.392-0.172,2.672,0.801,2.854,2.193
						c0.848,6.474,1.904,12.975,3.139,19.326c0.268,1.379-0.632,2.715-2.011,2.983
						C2538.281,1107.11,2538.117,1107.125,2537.955,1107.125z M2532.285,1055.681c-1.372,0-2.505-1.095-2.542-2.476
						c-0.077-2.855-0.114-5.708-0.114-8.557c0-3.792,0.069-7.607,0.206-11.34c0.05-1.373,1.178-2.452,2.54-2.452
						c0.033,0,0.065,0,0.094,0.001c1.407,0.052,2.503,1.232,2.451,2.637c-0.135,3.671-0.201,7.423-0.201,11.154
						c0,2.802,0.037,5.609,0.115,8.417c0.037,1.406-1.072,2.575-2.476,2.614C2532.333,1055.681,2532.31,1055.681,2532.285,1055.681z
						"/>
					<path style="fill:#E992EC;" d="M2535.187,1003.823c-0.117,0-0.234-0.008-0.353-0.023c-1.392-0.194-2.364-1.48-2.17-2.872
						c0.47-3.389,0.997-6.768,1.578-10.135c0.239-1.385,1.552-2.309,2.94-2.075c1.387,0.238,2.314,1.555,2.076,2.942
						c-0.572,3.31-1.089,6.635-1.554,9.969C2537.528,1002.902,2536.437,1003.823,2535.187,1003.823z"/>
				</g>
				<g>
					<path style="fill:#E992EC;" d="M2659.962,793.367c-0.78,0-1.548-0.357-2.048-1.031c-0.838-1.13-0.599-2.725,0.532-3.56
						c2.744-2.031,5.525-4.02,8.344-5.969c1.149-0.799,2.742-0.512,3.54,0.647c0.8,1.156,0.509,2.741-0.646,3.541
						c-2.774,1.917-5.51,3.876-8.21,5.872C2661.019,793.204,2660.487,793.367,2659.962,793.367z"/>
					<path style="fill:#E992EC;" d="M3162.981,1071.12c-0.065,0-0.132-0.003-0.199-0.008c-1.399-0.108-2.448-1.331-2.341-2.733
						c0.527-6.835,0.828-13.783,0.899-20.655c0.015-1.397,1.151-2.519,2.545-2.519c0.008,0,0.017,0,0.028,0
						c1.404,0.015,2.533,1.165,2.518,2.571c-0.072,6.984-0.38,14.047-0.915,20.993
						C3165.414,1070.105,3164.298,1071.12,3162.981,1071.12z M3162.404,1016.467c-1.295,0-2.401-0.982-2.531-2.297
						c-0.669-6.819-1.578-13.717-2.702-20.498c-0.231-1.387,0.708-2.698,2.095-2.927c1.372-0.235,2.697,0.71,2.926,2.095
						c1.143,6.894,2.065,13.903,2.746,20.834c0.137,1.399-0.885,2.645-2.284,2.781
						C3162.571,1016.464,3162.486,1016.467,3162.404,1016.467z M3152.355,962.74c-1.114,0-2.135-0.737-2.448-1.863
						c-1.839-6.596-3.927-13.233-6.201-19.731c-0.465-1.326,0.234-2.779,1.558-3.244c1.333-0.458,2.784,0.235,3.244,1.561
						c2.314,6.601,4.435,13.345,6.301,20.047c0.378,1.354-0.412,2.758-1.767,3.136
						C3152.812,962.709,3152.581,962.74,3152.355,962.74z M3133.241,911.531c-0.955,0-1.867-0.537-2.302-1.455
						c-2.943-6.204-6.127-12.388-9.465-18.378c-0.686-1.228-0.246-2.778,0.982-3.463c1.228-0.682,2.779-0.244,3.463,0.985
						c3.395,6.087,6.631,12.37,9.619,18.676c0.604,1.27,0.062,2.788-1.208,3.39C3133.977,911.453,3133.606,911.531,3133.241,911.531
						z M3105.651,864.361c-0.798,0-1.583-0.373-2.078-1.074c-3.969-5.6-8.175-11.135-12.497-16.451
						c-0.887-1.09-0.723-2.693,0.368-3.58c1.094-0.887,2.697-0.72,3.579,0.369c4.394,5.402,8.667,11.027,12.702,16.719
						c0.812,1.147,0.544,2.735-0.604,3.548C3106.672,864.21,3106.16,864.361,3105.651,864.361z M3070.316,822.721
						c-0.646,0-1.295-0.245-1.789-0.736c-4.872-4.821-9.973-9.544-15.165-14.041c-1.064-0.92-1.178-2.528-0.258-3.591
						c0.919-1.062,2.533-1.177,3.589-0.257c5.277,4.569,10.464,9.37,15.413,14.269c0.999,0.989,1.009,2.601,0.02,3.601
						C3071.629,822.468,3070.972,822.721,3070.316,822.721z M3028.292,787.812c-0.5,0-1.007-0.147-1.449-0.453
						c-5.645-3.914-11.486-7.689-17.364-11.219c-1.206-0.723-1.596-2.288-0.872-3.492c0.721-1.204,2.284-1.598,3.492-0.872
						c5.973,3.586,11.911,7.422,17.647,11.4c1.154,0.802,1.442,2.387,0.639,3.542
						C3029.893,787.43,3029.097,787.812,3028.292,787.812z M2697.089,769.722c-0.905,0-1.78-0.482-2.24-1.332
						c-0.671-1.236-0.211-2.781,1.024-3.45c6.122-3.322,12.443-6.486,18.786-9.404c1.285-0.59,2.791-0.027,3.375,1.248
						c0.589,1.276,0.03,2.788-1.247,3.375c-6.241,2.873-12.461,5.987-18.488,9.255
						C2697.915,769.623,2697.499,769.722,2697.089,769.722z M2980.873,760.647c-0.358,0-0.721-0.076-1.069-0.237
						c-6.227-2.885-12.629-5.603-19.035-8.075c-1.31-0.507-1.964-1.981-1.457-3.292c0.507-1.311,1.983-1.959,3.291-1.458
						c6.507,2.513,13.014,5.274,19.343,8.207c1.275,0.591,1.83,2.104,1.238,3.379
						C2982.754,760.102,2981.834,760.647,2980.873,760.647z M2747.194,747.878c-1.062,0-2.053-0.67-2.411-1.732
						c-0.449-1.331,0.263-2.775,1.596-3.225c6.619-2.236,13.387-4.278,20.118-6.07c1.347-0.359,2.751,0.445,3.114,1.805
						c0.361,1.358-0.447,2.753-1.807,3.114c-6.622,1.764-13.283,3.774-19.795,5.973
						C2747.738,747.835,2747.465,747.878,2747.194,747.878z M2929.498,742.013c-0.219,0-0.44-0.028-0.661-0.087
						c-6.629-1.776-13.405-3.354-20.138-4.689c-1.38-0.273-2.274-1.613-2.001-2.991c0.271-1.38,1.608-2.284,2.991-2.002
						c6.843,1.357,13.73,2.96,20.466,4.766c1.356,0.364,2.162,1.759,1.799,3.117
						C2931.651,741.263,2930.622,742.013,2929.498,742.013z M2800.29,734.91c-1.236,0-2.319-0.9-2.513-2.159
						c-0.214-1.389,0.738-2.688,2.128-2.902c6.895-1.061,13.914-1.904,20.866-2.504c1.431-0.147,2.632,0.916,2.754,2.316
						c0.122,1.401-0.915,2.634-2.316,2.755c-6.838,0.591-13.745,1.422-20.529,2.464C2800.549,734.9,2800.417,734.91,2800.29,734.91z
						 M2875.671,732.486c-0.075,0-0.151-0.003-0.227-0.01c-6.837-0.605-13.784-0.988-20.647-1.138
						c-1.406-0.031-2.521-1.196-2.49-2.601c0.032-1.403,1.151-2.426,2.6-2.489c6.977,0.154,14.038,0.543,20.985,1.158
						c1.402,0.124,2.436,1.36,2.312,2.76C2878.086,731.49,2876.976,732.486,2875.671,732.486z"/>
					<path style="fill:#E992EC;" d="M3156.508,1114.845c-0.181,0-0.365-0.019-0.552-0.06c-1.372-0.303-2.24-1.662-1.937-3.035
						c0.726-3.282,1.397-6.579,2.019-9.889c0.261-1.382,1.588-2.292,2.97-2.032c1.382,0.26,2.292,1.589,2.031,2.971
						c-0.632,3.362-1.313,6.711-2.049,10.048C3158.728,1114.036,3157.677,1114.845,3156.508,1114.845z"/>
				</g>
				<g>
					
						<linearGradient id="SVGID_00000105395372775483911440000000750858984154944421_" gradientUnits="userSpaceOnUse" x1="2718.1177" y1="887.0267" x2="3463.0837" y2="2201.3191" gradientTransform="matrix(0.9969 0.0793 -0.0793 0.9969 89.7113 -304.5272)">
						<stop  offset="0" style="stop-color:#A737D5"/>
						<stop  offset="1" style="stop-color:#EF497A"/>
					</linearGradient>
					<path style="fill:url(#SVGID_00000105395372775483911440000000750858984154944421_);" d="M3076.537,1126.053
						c0.702-1.456,0.403-3.198-0.744-4.337l-32.749-32.487c4.686-21.026,6.053-42.952,3.708-64.997l36.188-28.558
						c1.27-1.001,1.763-2.698,1.23-4.225l-18.246-52.236c-0.534-1.527-1.977-2.546-3.593-2.54l-46.099,0.184
						c-11.892-18.711-26.613-35.016-43.371-48.552l5.398-45.813c0.189-1.606-0.661-3.155-2.117-3.857l-49.839-24.035
						c-1.458-0.703-3.198-0.404-4.337,0.745l-32.487,32.748c-21.026-4.686-42.952-6.052-64.997-3.708l-28.559-36.188
						c-1.001-1.269-2.698-1.763-4.224-1.23l-52.237,18.246c-1.526,0.533-2.547,1.977-2.54,3.593l0.184,46.099
						c-18.71,11.891-35.016,26.612-48.551,43.371l-45.813-5.398c-1.605-0.188-3.154,0.661-3.856,2.118l-24.034,49.839
						c-0.703,1.457-0.404,3.198,0.744,4.337l32.749,32.487c-4.687,21.027-6.053,42.952-3.708,64.997l-36.188,28.559
						c-1.269,1.002-1.763,2.698-1.23,4.225l18.247,52.237c0.533,1.526,1.976,2.546,3.593,2.539l46.099-0.184
						c11.891,18.711,26.612,35.016,43.371,48.552l-5.398,45.811c-0.19,1.606,0.661,3.156,2.117,3.857l49.838,24.035
						c1.457,0.702,3.198,0.404,4.337-0.745l32.487-32.748c21.026,4.687,42.952,6.052,64.997,3.708l28.559,36.188
						c1,1.269,2.698,1.763,4.225,1.229l52.236-18.246c1.527-0.534,2.547-1.976,2.541-3.594l-0.184-46.099
						c18.709-11.891,35.015-26.612,48.552-43.371l45.812,5.398c1.606,0.189,3.155-0.661,3.857-2.117L3076.537,1126.053z"/>
					<path style="fill:#FFFFFF;" d="M2845.771,1097.105c-16.797,0-33.284-8.159-43.209-23.197
						c-7.604-11.521-10.263-25.313-7.494-38.835c2.769-13.523,10.641-25.158,22.161-32.76c11.521-7.603,25.313-10.263,38.835-7.494
						c13.521,2.77,25.156,10.641,32.76,22.162c15.694,23.782,9.115,55.898-14.668,71.593
						C2865.413,1094.344,2855.54,1097.105,2845.771,1097.105z M2845.598,998.843c-9.025,0-17.859,2.632-25.564,7.718
						c-10.388,6.854-17.481,17.343-19.979,29.533c-2.496,12.189-0.097,24.623,6.758,35.01
						c14.148,21.439,43.103,27.369,64.541,13.221c21.438-14.149,27.371-43.102,13.22-64.542
						c-6.852-10.385-17.341-17.481-29.531-19.979C2851.896,999.162,2848.734,998.843,2845.598,998.843z"/>
					<path style="fill:#FFFFFF;" d="M2844.717,1181.09c-56.253,0.002-108.997-35.169-128.571-91.201
						c-5.17-14.802-7.621-29.905-7.619-44.764c0.008-56.244,35.176-108.98,91.199-128.549c34.306-11.988,71.231-9.893,103.967,5.894
						c32.737,15.787,57.365,43.376,69.35,77.686l0,0c2.923,8.37,5.033,17.016,6.284,25.738c0.117,0.821,0.226,1.641,0.328,2.462
						c0.012,0.107,0.02,0.212,0.02,0.317c0,1.265-0.942,2.362-2.233,2.522c-1.354,0.178-2.667-0.816-2.838-2.211
						c-1.146-9.198-3.286-18.334-6.369-27.151c-11.535-33.026-35.243-59.582-66.752-74.778
						c-31.512-15.196-67.048-17.209-100.077-5.676c-53.927,18.837-87.781,69.601-87.788,123.741
						c-0.003,14.303,2.359,28.841,7.335,43.09c23.815,68.172,98.657,104.262,166.829,80.453
						c22.416-7.83,42.253-21.558,57.365-39.699c0.899-1.079,2.505-1.226,3.584-0.327c0.604,0.503,0.917,1.225,0.917,1.953
						c0,0.576-0.192,1.155-0.589,1.632c-15.704,18.85-36.312,33.113-59.597,41.246
						C2874.669,1178.636,2859.569,1181.089,2844.717,1181.09z"/>
				</g>
			</g>
			
				<linearGradient id="SVGID_00000113338791806110997780000002034973248226589590_" gradientUnits="userSpaceOnUse" x1="2347.3184" y1="649.5632" x2="2764.7354" y2="1385.9833">
				<stop  offset="0" style="stop-color:#A737D5"/>
				<stop  offset="1" style="stop-color:#EF497A"/>
			</linearGradient>
			<path style="fill:url(#SVGID_00000113338791806110997780000002034973248226589590_);" d="M2555.477,816.477l-19.734-16.691
				c1.683-11.952,1.473-24.258-0.815-36.467l18.943-17.558c0.665-0.616,0.865-1.586,0.5-2.415l-12.51-28.365
				c-0.366-0.829-1.218-1.335-2.12-1.259l-25.739,2.15c-7.473-9.922-16.418-18.376-26.38-25.192l0.981-25.827
				c0.034-0.905-0.509-1.732-1.354-2.06l-28.904-11.211c-0.845-0.327-1.805-0.084-2.39,0.608l-16.69,19.734
				c-11.952-1.683-24.259-1.473-36.467,0.816l-17.558-18.944c-0.616-0.664-1.585-0.865-2.415-0.499l-28.365,12.51
				c-0.829,0.365-1.335,1.217-1.26,2.12l2.151,25.739c-9.922,7.472-18.376,16.418-25.191,26.38l-25.828-0.981
				c-0.905-0.034-1.732,0.51-2.06,1.354l-11.21,28.903c-0.328,0.845-0.083,1.804,0.608,2.389l19.734,16.69
				c-1.684,11.952-1.473,24.258,0.815,36.467l-18.944,17.558c-0.664,0.616-0.865,1.585-0.499,2.414l12.511,28.365
				c0.365,0.829,1.217,1.335,2.12,1.259l25.739-2.15c7.472,9.922,16.418,18.375,26.38,25.191l-0.981,25.826
				c-0.035,0.906,0.51,1.733,1.354,2.061l28.904,11.21c0.844,0.328,1.803,0.084,2.389-0.608l16.691-19.733
				c11.952,1.683,24.259,1.473,36.467-0.816l17.558,18.943c0.615,0.665,1.585,0.865,2.414,0.499l28.365-12.51
				c0.829-0.365,1.335-1.217,1.26-2.12l-2.151-25.739c9.922-7.473,18.375-16.418,25.191-26.38l25.827,0.98
				c0.906,0.034,1.732-0.509,2.061-1.354l11.211-28.904C2556.413,818.021,2556.169,817.062,2555.477,816.477z"/>
			<path style="fill:#FFFFFF;" d="M2423.606,814.155c-8.953,0-17.819-3.969-23.74-11.558c-10.203-13.073-7.867-32.008,5.205-42.21
				c13.069-10.202,32.006-7.868,42.21,5.206c10.203,13.073,7.867,32.008-5.207,42.21
				C2436.591,812.083,2430.076,814.155,2423.606,814.155z M2423.521,759.108c-5.538,0-10.884,1.831-15.319,5.292
				c-10.859,8.474-12.798,24.206-4.325,35.065c8.476,10.863,24.208,12.794,35.064,4.323c5.262-4.105,8.608-10.013,9.426-16.636
				c0.818-6.623-0.994-13.167-5.098-18.428c-4.107-5.261-10.015-8.607-16.639-9.425
				C2425.592,759.172,2424.553,759.108,2423.521,759.108z"/>
			<g>
				<path style="fill:#E992EC;" d="M2559.326,882.535c-0.507,0-1.021-0.152-1.466-0.467c-1.148-0.812-1.422-2.401-0.608-3.548
					c1.916-2.708,3.775-5.519,5.528-8.354c0.735-1.196,2.309-1.569,3.502-0.828c1.196,0.739,1.566,2.307,0.828,3.502
					c-1.807,2.926-3.726,5.825-5.702,8.62C2560.91,882.161,2560.124,882.535,2559.326,882.535z"/>
				<path style="fill:#E992EC;" d="M2429.263,952.745c-1.365,0-2.495-1.083-2.54-2.459c-0.047-1.405,1.051-2.582,2.458-2.63
					c6.361-0.214,12.771-0.805,19.054-1.758c1.38-0.212,2.69,0.745,2.898,2.135c0.211,1.39-0.743,2.687-2.133,2.898
					c-6.48,0.982-13.091,1.592-19.651,1.813C2429.323,952.745,2429.293,952.745,2429.263,952.745z M2397.776,950.823
					c-0.129,0-0.264-0.01-0.398-0.031c-6.482-1.016-12.969-2.424-19.28-4.182c-1.354-0.378-2.145-1.781-1.767-3.136
					c0.375-1.354,1.784-2.145,3.134-1.769c6.122,1.707,12.413,3.072,18.704,4.058c1.387,0.217,2.337,1.52,2.12,2.908
					C2400.09,949.927,2399.009,950.823,2397.776,950.823z M2479.226,943.275c-1.046,0-2.026-0.651-2.399-1.693
					c-0.47-1.325,0.221-2.78,1.547-3.251c5.995-2.135,11.923-4.645,17.62-7.465c1.26-0.622,2.784-0.105,3.41,1.154
					c0.624,1.259,0.107,2.786-1.153,3.41c-5.874,2.907-11.988,5.497-18.172,7.697
					C2479.798,943.226,2479.509,943.275,2479.226,943.275z M2349.33,935.39c-0.38,0-0.769-0.086-1.131-0.267
					c-5.878-2.925-11.635-6.228-17.113-9.819c-1.176-0.771-1.504-2.349-0.734-3.524c0.771-1.173,2.349-1.504,3.522-0.733
					c5.312,3.48,10.894,6.683,16.591,9.521c1.26,0.626,1.772,2.154,1.146,3.412C2351.167,934.873,2350.264,935.39,2349.33,935.39z
					 M2523.949,919.073c-0.771,0-1.531-0.347-2.031-1.008c-0.85-1.119-0.629-2.716,0.49-3.565c0.609-0.461,1.21-0.925,1.814-1.395
					c4.43-3.456,8.72-7.171,12.751-11.038c1.016-0.973,2.627-0.94,3.599,0.074c0.972,1.014,0.939,2.626-0.074,3.599
					c-4.156,3.987-8.578,7.816-13.146,11.38c-0.621,0.483-1.243,0.961-1.867,1.435
					C2525.025,918.905,2524.483,919.073,2523.949,919.073z M2307.86,905.991c-0.638,0-1.28-0.239-1.775-0.719
					c-4.685-4.554-9.169-9.449-13.325-14.549c-0.887-1.09-0.723-2.694,0.365-3.582c1.094-0.886,2.694-0.721,3.582,0.366
					c4.031,4.95,8.382,9.698,12.927,14.114c1.007,0.979,1.032,2.591,0.05,3.599C2309.188,905.733,2308.524,905.991,2307.86,905.991z
					 M2277.186,865.437c-0.905,0-1.782-0.483-2.242-1.336c-3.123-5.78-5.929-11.799-8.34-17.888
					c-0.517-1.306,0.122-2.785,1.429-3.303c1.3-0.514,2.786,0.12,3.303,1.429c2.339,5.902,5.059,11.738,8.085,17.343
					c0.668,1.237,0.207,2.782-1.029,3.449C2278.009,865.338,2277.594,865.437,2277.186,865.437z"/>
				<path style="fill:#E992EC;" d="M2260.185,817.411c-1.201,0-2.27-0.853-2.498-2.075c-0.632-3.358-1.166-6.792-1.594-10.207
					c-0.174-1.394,0.815-2.667,2.209-2.841c1.412-0.184,2.665,0.815,2.841,2.21c0.415,3.313,0.935,6.644,1.543,9.899
					c0.261,1.381-0.648,2.711-2.031,2.972C2260.498,817.398,2260.339,817.411,2260.185,817.411z"/>
			</g>
			<g>
				<path style="fill:#E992EC;" d="M2290.026,687.601c-0.527,0-1.058-0.163-1.516-0.502c-1.128-0.838-1.362-2.432-0.524-3.561
					c2.048-2.759,4.208-5.486,6.415-8.103c0.905-1.076,2.511-1.217,3.586-0.305c1.076,0.906,1.211,2.512,0.306,3.586
					c-2.142,2.539-4.235,5.182-6.221,7.857C2291.572,687.246,2290.804,687.601,2290.026,687.601z"/>
				<path style="fill:#E992EC;" d="M2580.951,733.179c-1.061,0-2.051-0.667-2.411-1.727c-2.011-5.919-4.392-11.788-7.079-17.443
					c-0.604-1.27-0.062-2.789,1.208-3.391c1.263-0.604,2.789-0.062,3.39,1.207c2.772,5.832,5.228,11.885,7.303,17.989
					c0.452,1.331-0.261,2.776-1.593,3.228C2581.498,733.134,2581.222,733.179,2580.951,733.179z M2557.879,688.791
					c-0.785,0-1.561-0.362-2.058-1.044c-1.064-1.456-2.153-2.902-3.269-4.333c-2.749-3.522-5.667-6.964-8.672-10.232
					c-0.952-1.034-0.883-2.645,0.151-3.595c1.037-0.95,2.645-0.885,3.597,0.15c3.097,3.367,6.102,6.915,8.935,10.545
					c1.151,1.476,2.274,2.963,3.368,4.462c0.83,1.136,0.582,2.728-0.554,3.557C2558.926,688.632,2558.399,688.791,2557.879,688.791z
					 M2318.491,657.861c-0.738,0-1.472-0.319-1.974-0.936c-0.889-1.09-0.728-2.693,0.364-3.581c0.939-0.767,1.889-1.527,2.85-2.274
					c4.136-3.229,8.466-6.297,12.866-9.118c1.18-0.758,2.754-0.414,3.517,0.768c0.758,1.184,0.415,2.758-0.768,3.517
					c-4.268,2.736-8.469,5.713-12.486,8.849c-0.935,0.727-1.854,1.461-2.763,2.203
					C2319.625,657.673,2319.055,657.861,2318.491,657.861z M2522.701,653.224c-0.527,0-1.061-0.164-1.516-0.503
					c-5.013-3.731-10.303-7.211-15.724-10.343c-1.218-0.702-1.635-2.259-0.932-3.476c0.703-1.216,2.262-1.639,3.478-0.931
					c5.59,3.229,11.046,6.818,16.216,10.666c1.128,0.839,1.363,2.433,0.522,3.562
					C2524.245,652.87,2523.479,653.224,2522.701,653.224z M2361.552,632.397c-1.007,0-1.961-0.604-2.361-1.595
					c-0.525-1.305,0.106-2.788,1.411-3.312c5.99-2.412,12.182-4.495,18.398-6.191c1.365-0.361,2.759,0.427,3.127,1.786
					c0.371,1.355-0.43,2.755-1.784,3.125c-6.027,1.644-12.03,3.664-17.842,6.002C2362.19,632.338,2361.87,632.397,2361.552,632.397z
					 M2478.528,629.789c-0.278,0-0.562-0.047-0.84-0.145c-5.898-2.061-11.985-3.805-18.098-5.181
					c-1.372-0.308-2.232-1.67-1.924-3.043c0.306-1.373,1.666-2.229,3.043-1.924c6.301,1.418,12.58,3.216,18.659,5.343
					c1.327,0.464,2.026,1.915,1.563,3.243C2480.563,629.131,2479.579,629.789,2478.528,629.789z M2410.249,620.96
					c-1.315,0-2.428-1.011-2.535-2.344c-0.112-1.402,0.935-2.627,2.336-2.739c4.412-0.35,8.896-0.527,13.328-0.527
					c0.015,0,0.032,0,0.047,0c2.011,0,4.021,0.035,6.032,0.107c1.404,0.051,2.503,1.231,2.451,2.634
					c-0.047,1.407-1.297,2.514-2.634,2.453c-1.961-0.069-3.979-0.137-5.896-0.104c-4.298,0-8.647,0.172-12.925,0.512
					C2410.383,620.958,2410.316,620.96,2410.249,620.96z"/>
				<path style="fill:#E992EC;" d="M2589.235,773.586c-1.317,0-2.431-1.013-2.535-2.348c-0.259-3.326-0.624-6.677-1.081-9.961
					c-0.194-1.392,0.775-2.678,2.167-2.872c1.397-0.21,2.679,0.775,2.873,2.168c0.472,3.385,0.847,6.84,1.116,10.27
					c0.11,1.401-0.939,2.626-2.339,2.735C2589.369,773.583,2589.302,773.586,2589.235,773.586z"/>
			</g>
			<path style="fill:#FFFFFF;" d="M2423.052,861.257c-29.73,0.001-58.135-17.23-70.883-46.133
				c-4.462-10.118-6.574-20.688-6.574-31.097c-0.005-29.735,17.227-58.143,46.132-70.893c39.021-17.215,84.772,0.537,101.988,39.558
				c0.753,1.706,1.444,3.439,2.07,5.191c1.084,3.025,1.979,6.108,2.675,9.224c0.094,0.423,0.186,0.845,0.274,1.269
				c0.035,0.171,0.052,0.343,0.052,0.512c0.002,1.184-0.828,2.246-2.031,2.494c-1.402,0.285-2.722-0.603-3.008-1.98
				c-1.031-5.005-2.61-9.935-4.69-14.656v0.001c-13.315-30.185-44.892-46.75-76.078-42.418c-5.995,0.831-11.968,2.436-17.799,4.862
				c-0.244,0.102-0.49,0.206-0.733,0.311c-0.224,0.096-0.443,0.192-0.666,0.289c-27.001,11.91-43.097,38.45-43.095,66.227
				c0,9.722,1.974,19.597,6.142,29.05c16.08,36.455,58.816,53.027,95.277,36.953c11.986-5.287,22.296-13.704,29.815-24.341
				c0.81-1.147,2.394-1.422,3.547-0.609c0.701,0.496,1.076,1.281,1.076,2.081c0,0.508-0.152,1.02-0.467,1.466
				c-8.051,11.39-19.087,20.402-31.917,26.061C2444.038,859.144,2433.464,861.257,2423.052,861.257z"/>
		</g>
		<g>
			
				<linearGradient id="SVGID_00000054974359002795099280000008318726583445667492_" gradientUnits="userSpaceOnUse" x1="3752.3638" y1="1429.7623" x2="1833.9709" y2="3948.2681">
				<stop  offset="0" style="stop-color:#FDF53F"/>
				<stop  offset="1" style="stop-color:#D93C65"/>
			</linearGradient>
			<path style="fill:url(#SVGID_00000054974359002795099280000008318726583445667492_);" d="M3050.11,1514.797l61.869,3.875
				c30.601,1.917,54.303,27.525,53.853,58.182l-21.6,1468.703c-0.492,33.445-28.12,60.095-61.562,59.38l-424.981-9.077
				L3050.11,1514.797z"/>
			
				<linearGradient id="SVGID_00000010294739562837284630000017983780970907562152_" gradientUnits="userSpaceOnUse" x1="3582.4995" y1="2228.4209" x2="2070.6694" y2="2339.9229">
				<stop  offset="0" style="stop-color:#53D8FF"/>
				<stop  offset="1" style="stop-color:#3840F7"/>
			</linearGradient>
			<path style="fill:url(#SVGID_00000010294739562837284630000017983780970907562152_);" d="M2307.868,1516.022l784.573-37.929
				c16.23-0.785,29.676,12.444,29.157,28.684l-48.401,1513.424c-1.033,32.299-28.192,57.566-60.482,56.268l-551.45-22.167
				L2307.868,1516.022z"/>
			
				<linearGradient id="SVGID_00000039109377155345948040000017906780868363303047_" gradientUnits="userSpaceOnUse" x1="3191.969" y1="2249.0759" x2="1929.3778" y2="2311.3857">
				<stop  offset="0" style="stop-color:#53D8FF"/>
				<stop  offset="1" style="stop-color:#3840F7"/>
			</linearGradient>
			<path style="fill:url(#SVGID_00000039109377155345948040000017906780868363303047_);" d="M2349.75,1547.844l690.052-88.048
				c17.739-2.263,33.339,11.78,32.946,29.658l-33.559,1526.441c-0.473,21.522-17.726,38.9-39.243,39.529l-507.671,14.848
				L2349.75,1547.844z"/>
			
				<linearGradient id="SVGID_00000154389227610161058890000012819991118013230218_" gradientUnits="userSpaceOnUse" x1="3114.1401" y1="2135.1399" x2="1520.3976" y2="2572.9268">
				<stop  offset="0" style="stop-color:#FDF53F"/>
				<stop  offset="1" style="stop-color:#D93C65"/>
			</linearGradient>
			<path style="fill:url(#SVGID_00000154389227610161058890000012819991118013230218_);" d="M2168.385,1471.963l756.543-47.095
				c37.705-2.347,69.575,27.6,69.575,65.378V3049c0,31.609-25.625,57.234-57.235,57.234H2239.75
				c-32.911,0-60.074-25.74-61.844-58.604l-80.539-1495.896C2095.129,1510.157,2126.829,1474.551,2168.385,1471.963z"/>
			
				<linearGradient id="SVGID_00000103258201976390634620000009665977244683555718_" gradientUnits="userSpaceOnUse" x1="3022.9355" y1="1798.355" x2="1357.9827" y2="2255.7029">
				<stop  offset="0" style="stop-color:#FDF53F"/>
				<stop  offset="1" style="stop-color:#D93C65"/>
			</linearGradient>
			<path style="fill:url(#SVGID_00000103258201976390634620000009665977244683555718_);" d="M3043.787,2038.743h-98.567
				c-5.257,0-9.519-4.262-9.519-9.519v-446.117c0-5.257,4.262-9.519,9.519-9.519h98.567c5.257,0,9.519,4.262,9.519,9.519v446.117
				C3053.306,2034.481,3049.044,2038.743,3043.787,2038.743z"/>
		</g>
		<g>
			
				<linearGradient id="SVGID_00000018953518079505764050000002053874826060558249_" gradientUnits="userSpaceOnUse" x1="1589.589" y1="867.5223" x2="221.3172" y2="3401.3638">
				<stop  offset="0" style="stop-color:#B37CFF"/>
				<stop  offset="1" style="stop-color:#F895E7"/>
			</linearGradient>
			
				<rect x="529.629" y="2404.464" style="fill:url(#SVGID_00000018953518079505764050000002053874826060558249_);" width="92.639" height="680.348"/>
			
				<linearGradient id="SVGID_00000168814690558356392580000013276198703943759506_" gradientUnits="userSpaceOnUse" x1="1758.3131" y1="958.6332" x2="390.0399" y2="3492.4775">
				<stop  offset="0" style="stop-color:#B37CFF"/>
				<stop  offset="1" style="stop-color:#F895E7"/>
			</linearGradient>
			
				<rect x="684.42" y="2638.29" style="fill:url(#SVGID_00000168814690558356392580000013276198703943759506_);" width="92.639" height="446.522"/>
			
				<linearGradient id="SVGID_00000167398176134969290800000014006193689903704235_" gradientUnits="userSpaceOnUse" x1="1757.355" y1="958.1207" x2="389.0818" y2="3491.9648">
				<stop  offset="0" style="stop-color:#B37CFF"/>
				<stop  offset="1" style="stop-color:#F895E7"/>
			</linearGradient>
			
				<rect x="839.213" y="2060.408" style="fill:url(#SVGID_00000167398176134969290800000014006193689903704235_);" width="92.639" height="1024.404"/>
			
				<linearGradient id="SVGID_00000149354958186636672140000009152970775200559501_" gradientUnits="userSpaceOnUse" x1="2039.8995" y1="1110.6927" x2="671.6216" y2="3644.5459">
				<stop  offset="0" style="stop-color:#B37CFF"/>
				<stop  offset="1" style="stop-color:#F895E7"/>
			</linearGradient>
			
				<rect x="994.005" y="2838.712" style="fill:url(#SVGID_00000149354958186636672140000009152970775200559501_);" width="92.639" height="246.1"/>
			
				<linearGradient id="SVGID_00000073716644414667889200000000597806395639874460_" gradientUnits="userSpaceOnUse" x1="2025.6774" y1="1103.0076" x2="657.4031" y2="3636.8538">
				<stop  offset="0" style="stop-color:#B37CFF"/>
				<stop  offset="1" style="stop-color:#F895E7"/>
			</linearGradient>
			
				<rect x="1148.796" y="2197.364" style="fill:url(#SVGID_00000073716644414667889200000000597806395639874460_);" width="92.64" height="887.449"/>
			
				<linearGradient id="SVGID_00000178896089276309621370000001436793906718672808_" gradientUnits="userSpaceOnUse" x1="2177.6406" y1="1185.0732" x2="809.3672" y2="3718.918">
				<stop  offset="0" style="stop-color:#B37CFF"/>
				<stop  offset="1" style="stop-color:#F895E7"/>
			</linearGradient>
			
				<rect x="1303.588" y="2351.019" style="fill:url(#SVGID_00000178896089276309621370000001436793906718672808_);" width="92.64" height="733.794"/>
			
				<linearGradient id="SVGID_00000069360869110679908670000008337122191495240082_" gradientUnits="userSpaceOnUse" x1="2332.4011" y1="1268.642" x2="964.1285" y2="3802.4851">
				<stop  offset="0" style="stop-color:#B37CFF"/>
				<stop  offset="1" style="stop-color:#F895E7"/>
			</linearGradient>
			
				<rect x="1458.38" y="2518.037" style="fill:url(#SVGID_00000069360869110679908670000008337122191495240082_);" width="92.64" height="566.776"/>
			
				<linearGradient id="SVGID_00000163795707432087346400000013218069240669330817_" gradientUnits="userSpaceOnUse" x1="2313.2893" y1="1258.321" x2="945.0173" y2="3792.1633">
				<stop  offset="0" style="stop-color:#B37CFF"/>
				<stop  offset="1" style="stop-color:#F895E7"/>
			</linearGradient>
			
				<rect x="1613.172" y="1853.307" style="fill:url(#SVGID_00000163795707432087346400000013218069240669330817_);" width="92.639" height="1231.505"/>
			
				<linearGradient id="SVGID_00000176032950135254404070000014879449325704084407_" gradientUnits="userSpaceOnUse" x1="2460.3672" y1="1337.7432" x2="1092.0931" y2="3871.5889">
				<stop  offset="0" style="stop-color:#B37CFF"/>
				<stop  offset="1" style="stop-color:#F895E7"/>
			</linearGradient>
			
				<rect x="1767.964" y="1983.581" style="fill:url(#SVGID_00000176032950135254404070000014879449325704084407_);" width="92.64" height="1101.231"/>
			
				<linearGradient id="SVGID_00000168077390560931054980000000972126960061424544_" gradientUnits="userSpaceOnUse" x1="2621.4099" y1="1424.7073" x2="1253.136" y2="3958.5527">
				<stop  offset="0" style="stop-color:#B37CFF"/>
				<stop  offset="1" style="stop-color:#F895E7"/>
			</linearGradient>
			
				<rect x="1922.755" y="2180.661" style="fill:url(#SVGID_00000168077390560931054980000000972126960061424544_);" width="92.64" height="904.151"/>
			
				<linearGradient id="SVGID_00000178884104526361077600000003620448610737010569_" gradientUnits="userSpaceOnUse" x1="2883.5908" y1="1566.2847" x2="1515.3201" y2="4100.124">
				<stop  offset="0" style="stop-color:#B37CFF"/>
				<stop  offset="1" style="stop-color:#F895E7"/>
			</linearGradient>
			
				<rect x="2077.548" y="2861.552" style="fill:url(#SVGID_00000178884104526361077600000003620448610737010569_);" width="92.639" height="223.26"/>
		</g>
		<g>
			<g>
				
					<linearGradient id="SVGID_00000132080578446274547250000006723989196973527428_" gradientUnits="userSpaceOnUse" x1="2463.7239" y1="962.8237" x2="484.6216" y2="4123" gradientTransform="matrix(0.9997 0.0257 -0.0257 0.9997 75.1036 -19.5996)">
					<stop  offset="0" style="stop-color:#2B3582"/>
					<stop  offset="1" style="stop-color:#150E42"/>
				</linearGradient>
				<path style="fill:url(#SVGID_00000132080578446274547250000006723989196973527428_);" d="M1105.217,764.356l1464.298,24.452
					c80.785,1.349,146.34,65.769,149.101,146.517l72.637,2124.766c2.159,63.188-48.429,115.612-111.654,115.705l-1678.78,2.48
					c-59.409,0.087-107.336-48.574-106.343-107.974L930.153,933.67C931.741,838.573,1010.12,762.769,1105.217,764.356z"/>
				<path style="fill:#FFFFFF;" d="M1246.772,3145.648c-0.033,0-0.068,0-0.102,0l-187.748-5.565
					c-62.434-1.851-112.38-54.166-111.338-116.618l4.736-283.528c0.031-1.847,1.537-3.322,3.376-3.322c0.02,0,0.04,0,0.058,0
					c1.865,0.033,3.353,1.57,3.322,3.434l-4.736,283.528c-0.982,58.777,46.023,108.011,104.783,109.749l187.748,5.565
					c1.864,0.056,3.332,1.613,3.276,3.477C1250.093,3144.2,1248.592,3145.648,1246.772,3145.648z"/>
				<path style="fill:#FFFFFF;" d="M957.164,2655.551c-0.02,0-0.04,0-0.058,0c-1.865-0.033-3.353-1.57-3.322-3.434l0.767-45.918
					c0.031-1.848,1.537-3.322,3.377-3.322c0.02,0,0.039,0,0.058,0c1.865,0.033,3.353,1.57,3.322,3.434l-0.767,45.918
					C960.51,2654.076,959.004,2655.551,957.164,2655.551z"/>
				<g>
					
						<linearGradient id="SVGID_00000168109628330137883850000017321523795459412905_" gradientUnits="userSpaceOnUse" x1="2820.3762" y1="558.1754" x2="404.2753" y2="3999.1299">
						<stop  offset="0" style="stop-color:#53D8FF"/>
						<stop  offset="1" style="stop-color:#3840F7"/>
					</linearGradient>
					<path style="fill:url(#SVGID_00000168109628330137883850000017321523795459412905_);" d="M1110.007,747.223
						c199.511,30.456,885.732,125.806,1454.979,91.658c25.96-1.558,48.132,18.462,49.078,44.451l77.726,2134.315
						c1.066,29.264-21.679,53.896-50.937,55.137c-239.343,10.158-1224.977,48.415-1575.599,5.761
						c-21.339-2.595-37.264-20.865-37.031-42.361l24.225-2240.023C1052.775,765.732,1079.927,742.631,1110.007,747.223z"/>
					<path style="opacity:0.7;fill:#FFFFFF;" d="M1121.119,802.896c191.997,29.31,852.378,121.07,1400.189,88.207
						c24.982-1.5,46.32,17.767,47.231,42.778l74.798,2053.947c1.027,28.162-20.862,51.865-49.018,53.06
						c-230.33,9.775-1178.851,46.592-1516.268,5.544c-20.536-2.498-35.863-20.079-35.639-40.766l23.313-2155.674
						C1066.04,820.709,1092.169,798.477,1121.119,802.896z"/>
				</g>
				
					<linearGradient id="SVGID_00000117674186635394559100000017634795471512108206_" gradientUnits="userSpaceOnUse" x1="1584.762" y1="3243.1646" x2="911.1649" y2="4129.2656" gradientTransform="matrix(0.9999 0.0167 -0.0167 0.9999 569.5972 -2996.5071)">
					<stop  offset="0" style="stop-color:#2B3582"/>
					<stop  offset="1" style="stop-color:#150E42"/>
				</linearGradient>
				<path style="fill:url(#SVGID_00000117674186635394559100000017634795471512108206_);" d="M1933.017,488.643
					c-52.278-37.678-98.281-37.717-130.817-28.705c-29.679,8.222-49.295,36.415-46.998,67.127l11.416,152.629l165.896,17.518
					C1932.515,697.211,2035.543,562.539,1933.017,488.643z M1857.901,610.369c-22.879-0.382-41.117-19.239-40.736-42.119
					c0.382-22.88,19.24-41.118,42.119-40.736c22.879,0.383,41.118,19.24,40.736,42.119
					C1899.637,592.515,1880.781,610.752,1857.901,610.369z"/>
				<path style="fill:#FFFFFF;" d="M1781.4,619.536c-2.872-1.107-5.008-3.791-5.251-7.07l-1.816-24.309
					c-0.339-4.532,3.058-8.477,7.59-8.816c4.527-0.347,8.487,3.048,8.823,7.595l1.816,24.309c0.339,4.531-3.06,8.477-7.591,8.814
					C1783.716,620.153,1782.502,619.961,1781.4,619.536z M1777.839,571.902c-2.872-1.107-5.008-3.789-5.251-7.07l-1.382-18.456
					c-2.337-31.262,17.793-59.991,47.866-68.325c20.585-5.702,41.72-6.222,62.808-1.534c4.364,1.044,7.237,5.381,6.245,9.822
					c-0.985,4.435-5.381,7.237-9.82,6.25c-18.423-4.102-36.875-3.65-54.837,1.325c-22.525,6.238-37.6,27.783-35.847,51.241
					l1.381,18.457c0.337,4.531-3.06,8.475-7.591,8.815C1780.155,572.519,1778.942,572.327,1777.839,571.902z"/>
				
					<linearGradient id="SVGID_00000016047227708153798880000014442992763291187615_" gradientUnits="userSpaceOnUse" x1="1658.65" y1="3299.3313" x2="985.0543" y2="4185.4307" gradientTransform="matrix(0.9999 0.0167 -0.0167 0.9999 569.5972 -2996.5071)">
					<stop  offset="0" style="stop-color:#2B3582"/>
					<stop  offset="1" style="stop-color:#150E42"/>
				</linearGradient>
				<path style="fill:url(#SVGID_00000016047227708153798880000014442992763291187615_);" d="M1538.22,774.392l1.28-76.62
					c0.44-26.448,22.716-47.266,49.135-45.919l527.957,26.919c23.431,1.195,42.108,20.018,43.12,43.457l3.186,73.694
					L1538.22,774.392z"/>
				<path style="fill:#FFFFFF;" d="M1736.84,682.574c-0.02,0-0.04,0-0.058,0l-22.717-0.379c-1.865-0.033-3.353-1.57-3.322-3.434
					c0.031-1.848,1.537-3.322,3.376-3.322c0.02,0,0.04,0,0.058,0l22.717,0.379c1.866,0.033,3.353,1.57,3.322,3.434
					C1740.185,681.1,1738.679,682.574,1736.84,682.574z"/>
				<path style="fill:#FFFFFF;" d="M1564.322,754.482c-3.13-1.206-5.328-4.267-5.267-7.819l0.517-30.997
					c0.211-12.727,5.365-24.607,14.517-33.458c9.151-8.85,21.201-13.612,33.931-13.401l83.521,1.398
					c4.522,0.09,8.167,3.819,8.089,8.372c-0.076,4.545-3.822,8.166-8.368,8.093l-83.52-1.4
					c-17.198-0.287-31.427,13.471-31.711,30.673l-0.519,30.997c-0.076,4.545-3.823,8.166-8.368,8.093
					C1566.151,755.013,1565.201,754.82,1564.322,754.482z"/>
				
					<linearGradient id="SVGID_00000142158829479746949790000001368508257326310062_" gradientUnits="userSpaceOnUse" x1="1573.7659" y1="3353.5327" x2="1108.6617" y2="4207.5586" gradientTransform="matrix(0.9999 0.0167 -0.0167 0.9999 569.5972 -2996.5071)">
					<stop  offset="0" style="stop-color:#2B3582"/>
					<stop  offset="1" style="stop-color:#150E42"/>
				</linearGradient>
				<path style="fill:url(#SVGID_00000142158829479746949790000001368508257326310062_);" d="M1373.166,743.585l923.76,15.401
					c33.216,0.553,61.214,24.93,66.334,57.754l0.707,4.529c5.606,35.952-22.541,68.281-58.923,67.673l-947.724-15.826
					c-21.774-0.362-38.821-18.857-37.413-40.588l2.747-42.385C1324.371,763.635,1346.603,743.143,1373.166,743.585z"/>
			</g>
			<g>
				
					<linearGradient id="SVGID_00000182516508206558976580000018327742402917333398_" gradientUnits="userSpaceOnUse" x1="1455.9063" y1="1972.381" x2="1965.2839" y2="1308.2399" gradientTransform="matrix(0.9938 -0.1111 0.1111 0.9938 -309.5731 106.7949)">
					<stop  offset="0" style="stop-color:#53D8FF"/>
					<stop  offset="1" style="stop-color:#3840F7"/>
				</linearGradient>
				<path style="fill:url(#SVGID_00000182516508206558976580000018327742402917333398_);" d="M1649.016,1677.977
					c26.151-68.616,83.168-121.303,154.42-137.538l-29.976-312.969c-0.256-2.673-2.668-4.629-5.333-4.302
					c-203.294,24.95-368.737,171.701-431.587,368.708c-0.914,2.866,0.792,5.917,3.706,6.667L1649.016,1677.977z"/>
				
					<linearGradient id="SVGID_00000116956528151443812190000003967081393290803617_" gradientUnits="userSpaceOnUse" x1="1984.1571" y1="1942.9681" x2="2274.8318" y2="2497.0659" gradientTransform="matrix(0.9938 -0.1111 0.1111 0.9938 -309.5731 106.7949)">
					<stop  offset="0" style="stop-color:#CB236D"/>
					<stop  offset="1" style="stop-color:#4C246D"/>
				</linearGradient>
				<path style="fill:url(#SVGID_00000116956528151443812190000003967081393290803617_);" d="M2067.938,1782.711
					c-4.19,0.354-7.633,3.433-8.435,7.561c-2.247,11.561-6.24,33.706-6.983,36.534c-3.615,13.753-8.138,27.278-13.746,40.35
					c-10.4,24.241-24.622,46.983-43.201,65.808c-47.088,47.711-120.645,63.817-185.043,50.005c-1.835-0.394-3.66-0.834-5.48-1.292
					c-3.369-0.848-6.849,0.9-8.17,4.113l-124.632,279.524c80.269,29.622,152.912,55.029,242.009,39.25
					c258.862-45.846,439.941-280.425,433.328-545.492L2067.938,1782.711z"/>
				
					<linearGradient id="SVGID_00000101098582115471552700000001984739040673821335_" gradientUnits="userSpaceOnUse" x1="2109.7668" y1="1121.6394" x2="2129.3877" y2="3309.5674" gradientTransform="matrix(0.9938 -0.1111 0.1111 0.9938 -309.5731 106.7949)">
					<stop  offset="0" style="stop-color:#A737D5"/>
					<stop  offset="0.6915" style="stop-color:#D94396"/>
					<stop  offset="1" style="stop-color:#EF497A"/>
				</linearGradient>
				<path style="fill:url(#SVGID_00000101098582115471552700000001984739040673821335_);" d="M2067.938,1782.711
					c-5.329,106.071-73.222,196.073-177.443,211.316c-29.321,4.288-65.201,1.375-92.186-6.197c-2.814-0.79-5.776,0.656-6.955,3.331
					l-127.036,288.123c80.269,29.622,164.555,40.654,254.355,29.551c301.852-37.322,505.441-324.082,487.759-568.197
					L2067.938,1782.711z"/>
				
					<linearGradient id="SVGID_00000143578180888490874240000003372823417712328862_" gradientUnits="userSpaceOnUse" x1="1519.5756" y1="1792.8214" x2="1848.089" y2="2432.6216" gradientTransform="matrix(0.9938 -0.1111 0.1111 0.9938 -309.5731 106.7949)">
					<stop  offset="0" style="stop-color:#53D8FF"/>
					<stop  offset="0.7893" style="stop-color:#3E60F9"/>
					<stop  offset="1" style="stop-color:#3840F7"/>
				</linearGradient>
				<path style="fill:url(#SVGID_00000143578180888490874240000003372823417712328862_);" d="M1622.969,2245.974l124.562-296.829
					c0.882-2.102,0.138-4.519-1.758-5.785c-52.474-35.03-96.869-84.898-104.716-155.122c-1.935-17.319-12.432-41.67-10.73-58.314
					l-304.681-72.022c-10.351,54.719-12.84,112.004-6.32,170.344c21.075,188.596,139.821,343.269,288.068,423.242
					C1613.188,2254.614,1620.421,2252.045,1622.969,2245.974z"/>
				
					<linearGradient id="SVGID_00000115498026877875997440000015403301377399560349_" gradientUnits="userSpaceOnUse" x1="2256.093" y1="1058.5731" x2="405.5569" y2="3617.8274" gradientTransform="matrix(0.9938 -0.1111 0.1111 0.9938 -309.5731 106.7949)">
					<stop  offset="0" style="stop-color:#53D8FF"/>
					<stop  offset="0.7893" style="stop-color:#3E60F9"/>
					<stop  offset="1" style="stop-color:#3840F7"/>
				</linearGradient>
				<path style="fill:url(#SVGID_00000115498026877875997440000015403301377399560349_);" d="M1606.504,2239.774l130.603-294.004
					c1.659-3.735,0.454-8.126-2.896-10.468c-50.863-35.557-87.169-93.492-94.888-162.573c-1.935-17.319-1.952-34.413-0.25-51.057
					l-310.59-78.129c-2.474-0.622-4.975,0.973-5.428,3.483c-9.628,53.316-11.799,109.015-5.464,165.711
					C1339.181,2005.922,1453.223,2161.604,1606.504,2239.774z"/>
				<g>
					
						<linearGradient id="SVGID_00000029758700833617957750000006235975600829266091_" gradientUnits="userSpaceOnUse" x1="1590.8798" y1="2179.5435" x2="4554.188" y2="-558.8282" gradientTransform="matrix(0.9938 -0.1111 0.1111 0.9938 -309.5731 106.7949)">
						<stop  offset="0" style="stop-color:#CB236D"/>
						<stop  offset="1" style="stop-color:#4C246D"/>
					</linearGradient>
					<path style="fill:url(#SVGID_00000029758700833617957750000006235975600829266091_);" d="M1860.715,1535.54
						c94.137,5.13,174.492,74.933,197.497,170.813c1.23,5.128,5.968,8.623,11.226,8.214l448.622-34.968
						c1.239-1.502,1.892-2.293,3.131-3.795c-43.149-373.744-347.049-664.114-710.913-666.381L1860.715,1535.54z"/>
				</g>
			</g>
			<path style="fill:#FFFFFF;" d="M2470.8,2936.024H1230.5c-3.222,0-5.833-2.612-5.833-5.833v-55.083
				c0-3.222,2.612-5.833,5.833-5.833h1240.3c3.222,0,5.833,2.612,5.833,5.833v55.083
				C2476.634,2933.412,2474.022,2936.024,2470.8,2936.024z"/>
			<path style="fill:#FFFFFF;" d="M2470.8,2806.194H1230.5c-3.222,0-5.833-2.612-5.833-5.833v-55.083
				c0-3.222,2.612-5.833,5.833-5.833h1240.3c3.222,0,5.833,2.612,5.833,5.833v55.083
				C2476.634,2803.583,2474.022,2806.194,2470.8,2806.194z"/>
			<path style="fill:#FFFFFF;" d="M2470.8,2677.858H1230.5c-3.222,0-5.833-2.612-5.833-5.833v-55.083
				c0-3.222,2.612-5.833,5.833-5.833h1240.3c3.222,0,5.833,2.612,5.833,5.833v55.083
				C2476.634,2675.247,2474.022,2677.858,2470.8,2677.858z"/>
		</g>
		<g>
			<g>
				<g>
					
						<linearGradient id="SVGID_00000026143289756061602450000013710014869947401625_" gradientUnits="userSpaceOnUse" x1="1154.3218" y1="1089.6422" x2="282.6809" y2="2822.79">
						<stop  offset="0" style="stop-color:#FDF53F"/>
						<stop  offset="1" style="stop-color:#D93C65"/>
					</linearGradient>
					<path style="fill:url(#SVGID_00000026143289756061602450000013710014869947401625_);" d="M1197.715,1428.55
						c-9.052-1.8-18.221,2.293-23.007,10.185c-3.33,5.491-6.875,10.905-10.637,16.229c-87.762,124.214-260.216,153.87-384.43,66.108
						c-23.783-16.803-44.085-36.719-60.774-58.799l-126.649,53.759c28.799,45.319,66.608,84.927,112.041,116.578
						c88.649,61.758,197.623,85.992,304.1,67.682c108.044-18.58,202.384-78.12,265.644-167.656
						c12.292-17.397,23.122-35.523,32.46-54.229c6.457-12.934-1.128-28.47-15.308-31.287
						C1260.879,1441.104,1229.233,1434.815,1197.715,1428.55z"/>
					
						<linearGradient id="SVGID_00000030450053680484464980000009782678312159717791_" gradientUnits="userSpaceOnUse" x1="913.824" y1="968.6905" x2="42.1831" y2="2701.8384">
						<stop  offset="0" style="stop-color:#FDF53F"/>
						<stop  offset="1" style="stop-color:#D93C65"/>
					</linearGradient>
					<path style="fill:url(#SVGID_00000030450053680484464980000009782678312159717791_);" d="M772.761,1515.165l-158.942,69.051
						c-22.365,9.716-47.135-7.5-45.824-31.849l10.42-193.467c1.454-26.991,33.097-40.738,53.817-23.381l148.522,124.416
						C799.446,1475.594,795.125,1505.449,772.761,1515.165z"/>
				</g>
				<g>
					
						<linearGradient id="SVGID_00000040544576541402018880000003420024090288145580_" gradientUnits="userSpaceOnUse" x1="958.73" y1="1094.4286" x2="2347.2754" y2="314.005" gradientTransform="matrix(0.9475 -0.3198 0.3198 0.9475 -526.4624 478.454)">
						<stop  offset="0" style="stop-color:#FDF53F"/>
						<stop  offset="1" style="stop-color:#D93C65"/>
					</linearGradient>
					<path style="fill:url(#SVGID_00000040544576541402018880000003420024090288145580_);" d="M688.796,1146.297
						c9.082,3.09,19.067-0.134,24.763-7.852c32.361-43.844,77.958-78.563,133.39-97.276
						c87.611-29.576,179.917-12.458,249.759,37.889c35.136-32.37,69.513-64.044,100.504-92.603
						c-26.912-22.228-56.867-41.204-89.45-56.329c-95.991-44.559-205.99-50.141-306.071-15.739
						c-89.591,30.797-164.215,90.222-213.898,169.502c-7.502,11.971-1.711,27.818,11.692,32.285
						C624.987,1124.673,654.836,1134.74,688.796,1146.297z"/>
					
						<linearGradient id="SVGID_00000015317610735678774210000008764625295521273272_" gradientUnits="userSpaceOnUse" x1="1079.754" y1="1309.7581" x2="2468.2988" y2="529.3349" gradientTransform="matrix(0.9475 -0.3198 0.3198 0.9475 -526.4624 478.454)">
						<stop  offset="0" style="stop-color:#FDF53F"/>
						<stop  offset="1" style="stop-color:#D93C65"/>
					</linearGradient>
					<path style="fill:url(#SVGID_00000015317610735678774210000008764625295521273272_);" d="M1042.779,1047.215l132.347-111.87
						c18.623-15.741,47.3-6.381,53.051,17.314l45.697,188.281c6.375,26.268-19.974,48.54-44.813,37.879l-178.043-76.411
						C1028.61,1092.793,1024.157,1062.957,1042.779,1047.215z"/>
				</g>
			</g>
			<g>
				<g>
					
						<linearGradient id="SVGID_00000116943938660427735240000009963612781431126956_" gradientUnits="userSpaceOnUse" x1="640.3001" y1="1343.0266" x2="718.8167" y2="1251.8914">
						<stop  offset="0" style="stop-color:#FDF53F"/>
						<stop  offset="1" style="stop-color:#D93C65"/>
					</linearGradient>
					
						<circle style="fill:url(#SVGID_00000116943938660427735240000009963612781431126956_);" cx="720.403" cy="1250.051" r="58.537"/>
					
						<linearGradient id="SVGID_00000122691733805065771380000010370021839033704611_" gradientUnits="userSpaceOnUse" x1="763.1835" y1="1185.4205" x2="531.0078" y2="1536.1719">
						<stop  offset="0" style="stop-color:#FDF53F"/>
						<stop  offset="1" style="stop-color:#D93C65"/>
					</linearGradient>
					
						<circle style="fill:url(#SVGID_00000122691733805065771380000010370021839033704611_);" cx="720.403" cy="1250.051" r="56.591"/>
					<path style="fill:#FFFFFF;" d="M673.736,1229.922c-0.511,0-1.031-0.115-1.519-0.363c-1.664-0.841-2.334-2.87-1.493-4.536
						c9.521-18.87,28.557-30.591,49.679-30.591c3.372,0,6.746,0.303,10.029,0.904c1.836,0.333,3.053,2.092,2.718,3.929
						c-0.337,1.834-2.08,3.075-3.931,2.715c-2.883-0.524-5.851-0.792-8.816-0.792c-18.557,0-35.281,10.299-43.648,26.876
						C676.16,1229.242,674.971,1229.922,673.736,1229.922z"/>
					<circle style="opacity:0.78;fill:#FFFFFF;" cx="721.635" cy="1251.284" r="47.897"/>
					<g>
						
							<linearGradient id="SVGID_00000103962210105983785730000015079071804643697552_" gradientUnits="userSpaceOnUse" x1="756.2577" y1="1195.4709" x2="632.6292" y2="1403.0227">
							<stop  offset="0" style="stop-color:#FDF53F"/>
							<stop  offset="1" style="stop-color:#D93C65"/>
						</linearGradient>
						<path style="fill:url(#SVGID_00000103962210105983785730000015079071804643697552_);" d="M716.935,1286.891v-5.211
							c-5.432-0.218-10.806-1.5-14.621-3.17c-1.363-0.596-2.058-2.125-1.666-3.561l1.324-4.854c0.486-1.781,2.422-2.701,4.124-1.988
							c3.786,1.587,8.459,2.843,13.5,2.843c5.232,0,9.134-1.774,9.134-5.41c0-3.281-3.015-5.232-10.287-7.183
							c-10.376-2.838-17.825-7.361-17.825-16.495c0-8.248,6.031-14.544,16.495-16.229v-5.211c0-1.677,1.359-3.036,3.036-3.036h3.062
							c1.677,0,3.036,1.36,3.036,3.036v4.679c5.027,0.201,8.685,1.061,11.589,2.081c1.488,0.523,2.301,2.125,1.888,3.647
							l-1.218,4.489c-0.469,1.731-2.319,2.679-3.997,2.045c-2.673-1.011-6.453-2.064-11.366-2.064c-6.208,0-7.982,2.572-7.982,4.878
							c0,2.838,3.724,4.788,11.795,7.272c11.529,3.458,16.317,8.247,16.317,16.849c0,7.893-5.853,14.987-17.204,16.761v5.832
							c0,1.677-1.359,3.036-3.036,3.036h-3.062C718.295,1289.927,716.935,1288.568,716.935,1286.891z"/>
					</g>
				</g>
				<g>
					
						<linearGradient id="SVGID_00000135686101282488723780000007855328596783463612_" gradientUnits="userSpaceOnUse" x1="747.5847" y1="1342.4877" x2="884.2686" y2="1183.837">
						<stop  offset="0" style="stop-color:#FDF53F"/>
						<stop  offset="1" style="stop-color:#D93C65"/>
					</linearGradient>
					
						<circle style="fill:url(#SVGID_00000135686101282488723780000007855328596783463612_);" cx="887.029" cy="1180.632" r="101.903"/>
					
						<linearGradient id="SVGID_00000067955171169734325050000014807088281565800121_" gradientUnits="userSpaceOnUse" x1="961.504" y1="1068.1227" x2="557.3259" y2="1678.7206">
						<stop  offset="0" style="stop-color:#FDF53F"/>
						<stop  offset="1" style="stop-color:#D93C65"/>
					</linearGradient>
					
						<circle style="fill:url(#SVGID_00000067955171169734325050000014807088281565800121_);" cx="887.029" cy="1180.632" r="98.515"/>
					<path style="fill:#FFFFFF;" d="M805.792,1143.087c-0.511,0-1.031-0.115-1.519-0.363c-1.666-0.841-2.334-2.873-1.493-4.536
						c16.148-31.996,48.43-51.873,84.248-51.873c5.72,0,11.444,0.515,17.013,1.531c1.836,0.333,3.053,2.091,2.718,3.929
						c-0.333,1.834-2.096,3.071-3.929,2.715c-5.171-0.94-10.487-1.418-15.802-1.418c-33.253,0-63.224,18.454-78.218,48.158
						C808.217,1142.408,807.028,1143.087,805.792,1143.087z"/>
					
						<ellipse transform="matrix(0.7071 -0.7071 0.7071 0.7071 -575.9173 975.1702)" style="opacity:0.78;fill:#FFFFFF;" cx="889.176" cy="1182.779" rx="83.38" ry="83.38"/>
					<g>
						
							<linearGradient id="SVGID_00000023270203994393924630000015804181476323393209_" gradientUnits="userSpaceOnUse" x1="949.4468" y1="1085.6185" x2="734.2306" y2="1446.9309">
							<stop  offset="0" style="stop-color:#FDF53F"/>
							<stop  offset="1" style="stop-color:#D93C65"/>
						</linearGradient>
						<path style="fill:url(#SVGID_00000023270203994393924630000015804181476323393209_);" d="M880.994,1244.765v-9.071
							c-9.457-0.379-18.81-2.61-25.454-5.519c-2.372-1.038-3.581-3.701-2.9-6.199l2.305-8.45c0.845-3.1,4.217-4.703,7.18-3.461
							c6.59,2.763,14.727,4.948,23.501,4.948c9.109,0,15.901-3.088,15.901-9.418c0-5.711-5.249-9.108-17.908-12.504
							c-18.062-4.94-31.03-12.814-31.03-28.715c0-14.358,10.498-25.319,28.715-28.251v-9.072c0-2.919,2.367-5.285,5.286-5.285h5.33
							c2.919,0,5.286,2.366,5.286,5.285v8.145c8.75,0.35,15.12,1.846,20.175,3.623c2.59,0.91,4.005,3.7,3.286,6.349l-2.119,7.815
							c-0.817,3.013-4.038,4.664-6.958,3.559c-4.654-1.76-11.234-3.592-19.787-3.592c-10.807,0-13.894,4.477-13.894,8.491
							c0,4.94,6.484,8.336,20.532,12.659c20.07,6.021,28.406,14.357,28.406,29.332c0,13.74-10.189,26.09-29.949,29.178v10.152
							c0,2.919-2.366,5.286-5.285,5.286h-5.33C883.36,1250.051,880.994,1247.684,880.994,1244.765z"/>
					</g>
				</g>
				<g>
					
						<linearGradient id="SVGID_00000067935553466709567190000003900426022798898344_" gradientUnits="userSpaceOnUse" x1="813.8212" y1="1574.7853" x2="954.4672" y2="1411.5356">
						<stop  offset="0" style="stop-color:#FDF53F"/>
						<stop  offset="1" style="stop-color:#D93C65"/>
					</linearGradient>
					
						<circle style="fill:url(#SVGID_00000067935553466709567190000003900426022798898344_);" cx="957.308" cy="1408.238" r="104.857"/>
					
						<linearGradient id="SVGID_00000028306998781868420690000008423063388606647975_" gradientUnits="userSpaceOnUse" x1="1033.9413" y1="1292.4673" x2="618.0476" y2="1920.764">
						<stop  offset="0" style="stop-color:#FDF53F"/>
						<stop  offset="1" style="stop-color:#D93C65"/>
					</linearGradient>
					
						<circle style="fill:url(#SVGID_00000028306998781868420690000008423063388606647975_);" cx="957.308" cy="1408.238" r="101.37"/>
					<path style="fill:#FFFFFF;" d="M873.716,1369.507c-0.511,0-1.031-0.116-1.519-0.363c-1.666-0.841-2.334-2.873-1.493-4.536
						c16.604-32.89,49.788-53.324,86.604-53.324c5.87,0,11.752,0.528,17.488,1.574c1.834,0.333,3.052,2.091,2.718,3.926
						c-0.333,1.838-2.082,3.085-3.929,2.718c-5.334-0.97-10.812-1.461-16.277-1.461c-34.251,0-65.125,19.009-80.573,49.61
						C876.141,1368.827,874.951,1369.507,873.716,1369.507z"/>
					
						<ellipse transform="matrix(0.4179 -0.9085 0.9085 0.4179 -722.8328 1692.8167)" style="opacity:0.78;fill:#FFFFFF;" cx="959.517" cy="1410.447" rx="85.797" ry="85.797"/>
					<g>
						
							<linearGradient id="SVGID_00000125580657929694699460000012803113059467491221_" gradientUnits="userSpaceOnUse" x1="1021.5348" y1="1310.47" x2="800.08" y2="1682.2559">
							<stop  offset="0" style="stop-color:#FDF53F"/>
							<stop  offset="1" style="stop-color:#D93C65"/>
						</linearGradient>
						<path style="fill:url(#SVGID_00000125580657929694699460000012803113059467491221_);" d="M951.097,1474.23v-9.335
							c-9.731-0.389-19.355-2.686-26.191-5.678c-2.441-1.068-3.685-3.808-2.984-6.379l2.371-8.695
							c0.87-3.19,4.339-4.839,7.388-3.561c6.781,2.843,15.154,5.092,24.183,5.092c9.372,0,16.362-3.178,16.362-9.691
							c0-5.877-5.401-9.372-18.427-12.866c-18.586-5.083-31.93-13.185-31.93-29.547c0-14.774,10.803-26.053,29.547-29.07v-9.335
							c0-3.004,2.435-5.438,5.439-5.438h5.484c3.004,0,5.438,2.435,5.438,5.438v8.382c9.004,0.36,15.559,1.9,20.76,3.728
							c2.665,0.936,4.121,3.807,3.382,6.533l-2.181,8.041c-0.841,3.101-4.155,4.799-7.16,3.663
							c-4.789-1.811-11.56-3.697-20.361-3.697c-11.12,0-14.297,4.606-14.297,8.737c0,5.083,6.672,8.578,21.127,13.026
							c20.651,6.195,29.229,14.773,29.229,30.182c0,14.138-10.484,26.847-30.818,30.024v10.447c0,3.003-2.435,5.438-5.439,5.438
							h-5.485C953.532,1479.668,951.097,1477.233,951.097,1474.23z"/>
					</g>
				</g>
				<g>
					
						<linearGradient id="SVGID_00000067210420316243751970000002870932472566746532_" gradientUnits="userSpaceOnUse" x1="986.6937" y1="1387.4303" x2="1089.7439" y2="1267.8185">
						<stop  offset="0" style="stop-color:#FDF53F"/>
						<stop  offset="1" style="stop-color:#D93C65"/>
					</linearGradient>
					
						<circle style="fill:url(#SVGID_00000067210420316243751970000002870932472566746532_);" cx="1091.825" cy="1265.402" r="76.828"/>
					
						<linearGradient id="SVGID_00000151516437169278749590000016108928722974751881_" gradientUnits="userSpaceOnUse" x1="1147.974" y1="1180.578" x2="843.2514" y2="1640.927">
						<stop  offset="0" style="stop-color:#FDF53F"/>
						<stop  offset="1" style="stop-color:#D93C65"/>
					</linearGradient>
					
						<circle style="fill:url(#SVGID_00000151516437169278749590000016108928722974751881_);" cx="1091.825" cy="1265.403" r="74.273"/>
					<path style="fill:#FFFFFF;" d="M1030.578,1237.928c-0.511,0-1.031-0.115-1.519-0.363c-1.666-0.841-2.334-2.873-1.493-4.536
						c12.317-24.406,36.94-39.568,64.26-39.568c4.35,0,8.714,0.393,12.971,1.165c1.836,0.337,3.053,2.095,2.72,3.929
						c-0.333,1.838-2.083,3.075-3.927,2.718c-3.86-0.699-7.818-1.056-11.764-1.056c-24.755,0-47.068,13.74-58.23,35.853
						C1033.002,1237.249,1031.813,1237.928,1030.578,1237.928z"/>
					<circle style="opacity:0.78;fill:#FFFFFF;" cx="1093.444" cy="1267.021" r="62.863"/>
					<g>
						
							<linearGradient id="SVGID_00000113310784842813485110000016313812020848882329_" gradientUnits="userSpaceOnUse" x1="1138.884" y1="1193.7683" x2="976.6254" y2="1466.1736">
							<stop  offset="0" style="stop-color:#FDF53F"/>
							<stop  offset="1" style="stop-color:#D93C65"/>
						</linearGradient>
						<path style="fill:url(#SVGID_00000113310784842813485110000016313812020848882329_);" d="M1087.275,1313.754v-6.839
							c-7.13-0.286-14.182-1.968-19.19-4.161c-1.788-0.783-2.7-2.79-2.186-4.674l1.737-6.371c0.637-2.337,3.179-3.546,5.413-2.609
							c4.969,2.083,11.103,3.731,17.718,3.731c6.867,0,11.988-2.328,11.988-7.1c0-4.306-3.957-6.867-13.502-9.427
							c-13.617-3.725-23.395-9.661-23.395-21.649c0-10.825,7.915-19.088,21.649-21.299v-6.84c0-2.201,1.784-3.985,3.985-3.985h4.018
							c2.201,0,3.985,1.784,3.985,3.985v6.141c6.597,0.264,11.399,1.393,15.21,2.732c1.953,0.686,3.02,2.79,2.478,4.787
							l-1.598,5.892c-0.616,2.272-3.044,3.516-5.246,2.684c-3.509-1.327-8.47-2.709-14.918-2.709
							c-8.148,0-10.475,3.375-10.475,6.402c0,3.724,4.888,6.285,15.48,9.544c15.131,4.539,21.416,10.824,21.416,22.114
							c0,10.359-7.681,19.67-22.58,21.999v7.654c0,2.2-1.784,3.985-3.985,3.985h-4.019
							C1089.059,1317.739,1087.275,1315.955,1087.275,1313.754z"/>
					</g>
				</g>
			</g>
		</g>
		<g>
			
				<linearGradient id="SVGID_00000003080880828822343070000015213448823955220415_" gradientUnits="userSpaceOnUse" x1="1938.4076" y1="2398.196" x2="2873.6248" y2="2398.196" gradientTransform="matrix(0.9427 -0.3337 0.3337 0.9427 -2043.3789 1161.892)">
				<stop  offset="0" style="stop-color:#2B3582"/>
				<stop  offset="1" style="stop-color:#150E42"/>
			</linearGradient>
			<path style="fill:url(#SVGID_00000003080880828822343070000015213448823955220415_);" d="M1370.373,2259.59L656.292,2848.03
				c-29.95,24.679-32.527,69.639-5.596,97.58l4.422,4.588c23.829,24.721,63.228,25.319,87.794,1.332l665.576-649.878
				L1370.373,2259.59z"/>
			
				<ellipse transform="matrix(0.9427 -0.3337 0.3337 0.9427 -553.0936 673.3344)" style="opacity:0.21;fill:#FFFFFF;" cx="1683.611" cy="1946.79" rx="429.225" ry="421.482"/>
			
				<linearGradient id="SVGID_00000023271962417758415560000010989946882994897044_" gradientUnits="userSpaceOnUse" x1="387.5548" y1="2066.3906" x2="1342.7753" y2="2066.3906" gradientTransform="matrix(0.9557 -0.2943 0.2943 0.9557 248.6347 226.5585)">
				<stop  offset="0" style="stop-color:#2B3582"/>
				<stop  offset="1" style="stop-color:#150E42"/>
			</linearGradient>
			<path style="fill:url(#SVGID_00000023271962417758415560000010989946882994897044_);" d="M1527.129,1504.67
				c-248.661,88.011-380.182,357.302-293.76,601.477c86.423,244.177,358.063,370.773,606.724,282.762
				c248.661-88.011,380.183-357.3,293.759-601.478C2047.431,1543.258,1775.791,1416.659,1527.129,1504.67z M1817.106,2323.963
				c-212.133,75.083-443.871-32.916-517.598-241.226c-73.728-208.307,38.474-438.04,250.607-513.122
				c212.135-75.083,443.872,32.918,517.6,241.225C2141.443,2019.15,2029.242,2248.881,1817.106,2323.963z"/>
			<path style="fill:#FFFFFF;" d="M1285.919,2147.464c-0.619,0-1.212-0.34-1.509-0.929c-5.031-9.971-9.73-20.267-13.971-30.601
				c-0.355-0.863,0.058-1.851,0.92-2.204c0.858-0.356,1.851,0.056,2.204,0.921c4.208,10.253,8.872,20.468,13.862,30.364
				c0.421,0.833,0.086,1.849-0.747,2.268C1286.433,2147.406,1286.175,2147.464,1285.919,2147.464z M1245.248,2022.745
				c-0.813,0-1.529-0.587-1.664-1.415c-4.947-30.129-6.669-60.882-5.117-91.406c4.396-86.429,34.309-169.378,86.508-239.876
				c53.441-72.177,126.871-126.322,212.348-156.574c80.395-28.453,166.447-33.781,248.866-15.406c0.91,0.203,1.485,1.105,1.28,2.016
				c-0.201,0.91-1.105,1.495-2.016,1.28c-81.794-18.235-167.207-12.945-247.002,15.294
				c-84.843,30.028-157.723,83.766-210.763,155.402c-51.8,69.962-81.485,152.274-85.847,238.037
				c-1.54,30.284,0.167,60.794,5.074,90.686c0.152,0.92-0.472,1.79-1.392,1.94
				C1245.431,2022.739,1245.339,2022.745,1245.248,2022.745z"/>
			<path style="fill:#FFFFFF;" d="M708.666,2948.731c-27.675,0.002-45.606-9.679-53.312-28.78
				c-7.838-19.426-1.91-42.139,14.751-56.518l84.834-73.212c0.701-0.61,1.773-0.534,2.382,0.175c0.61,0.706,0.531,1.773-0.175,2.382
				l-84.834,73.212c-15.566,13.435-21.121,34.612-13.824,52.697c7.139,17.695,24.023,26.664,50.185,26.665
				c0.285,0,0.539-0.002,0.859-0.003c0.927,0,1.682,0.747,1.689,1.677c0.006,0.932-0.744,1.694-1.678,1.701
				C709.252,2948.729,708.957,2948.731,708.666,2948.731z"/>
			<path style="fill:#FFFFFF;" d="M782.183,2770.631c-0.473,0-0.945-0.198-1.278-0.585c-0.61-0.706-0.531-1.773,0.175-2.382
				l10.994-9.49c0.703-0.61,1.773-0.534,2.382,0.175c0.61,0.706,0.531,1.773-0.175,2.382l-10.994,9.49
				C782.969,2770.496,782.574,2770.631,782.183,2770.631z"/>
		</g>
		<g>
			
				<linearGradient id="SVGID_00000091014198132488180450000001788465927594000561_" gradientUnits="userSpaceOnUse" x1="792.5336" y1="3220.4517" x2="973.5513" y2="2754.4482">
				<stop  offset="0" style="stop-color:#F9B776"/>
				<stop  offset="1" style="stop-color:#F47960"/>
			</linearGradient>
			<path style="fill:url(#SVGID_00000091014198132488180450000001788465927594000561_);" d="M936.107,2795.634l-64.118,16.029
				l16.029,120.221c0,0-24.044,24.044-32.059,56.104c-8.015,32.059-15.405,166.669-15.405,166.669l-15.214,9.198l-1.851,7.678
				l44.263,59.515l-7.34-47.369c-1.165-7.52,0.853-22.769,0.218-23.089c24.044-64.118,75.476-244.736,75.476-244.736V2795.634z"/>
			
				<linearGradient id="SVGID_00000042706079512383427670000001238524685666151593_" gradientUnits="userSpaceOnUse" x1="789.7833" y1="4719.3809" x2="1388.0728" y2="-2273.1304">
				<stop  offset="0" style="stop-color:#F9B776"/>
				<stop  offset="1" style="stop-color:#F47960"/>
			</linearGradient>
			<path style="fill:url(#SVGID_00000042706079512383427670000001238524685666151593_);" d="M954.842,3172.358
				c-0.694-0.011-1.376,0.044-2.074,0c3.098-38.653,17.258-208.771,31.427-272.532c16.029-72.133-24.044-216.398-24.044-216.398
				l-72.133,72.133l40.074,136.25c-27.463,41.193,4.479,282.431,3.791,282.327l0.044,0.536l-10.456,14.378l1.272,7.795
				l63.877,37.694l-25.134-40.815C957.497,3187.246,955.292,3179.901,954.842,3172.358z"/>
			
				<linearGradient id="SVGID_00000047055645213064041860000004159985931649343886_" gradientUnits="userSpaceOnUse" x1="811.2894" y1="2483.2371" x2="888.0184" y2="2483.2371">
				<stop  offset="0" style="stop-color:#F9B776"/>
				<stop  offset="1" style="stop-color:#F47960"/>
			</linearGradient>
			<path style="fill:url(#SVGID_00000047055645213064041860000004159985931649343886_);" d="M873.709,2363.514
				c0,0-140.444,158.287,0,239.446l14.309-10.361c0,0-69.726-66.768,0-148.502L873.709,2363.514z"/>
			
				<linearGradient id="SVGID_00000103959019222709019680000014490634399246528660_" gradientUnits="userSpaceOnUse" x1="-647.7446" y1="3091.9385" x2="-714.8865" y2="3205.5632" gradientTransform="matrix(-1 0 0 1 226.0466 0)">
				<stop  offset="0" style="stop-color:#53D8FF"/>
				<stop  offset="1" style="stop-color:#3840F7"/>
			</linearGradient>
			<path style="fill:url(#SVGID_00000103959019222709019680000014490634399246528660_);" d="M990.828,3240.453h-20.385
				c-3.816,0-7.414-1.752-9.741-4.776c-6.355-8.258-19.521-24.368-25.817-24.788c-8.475-0.566-7.391,29.563-7.391,29.563h-4.751
				l-6.017-37.44c-1.514-9.42,3.171-18.752,11.63-23.166l0,0c0,0,1.938,14.327,12.442,20.665
				c10.505,6.338,42.747,29.033,42.747,29.033s3.949-0.563,8.285,0.22C998.262,3230.929,997.363,3240.453,990.828,3240.453z"/>
			
				<linearGradient id="SVGID_00000127021894356765377940000016384402986623140012_" gradientUnits="userSpaceOnUse" x1="-2235.2139" y1="2409.0554" x2="-2302.3521" y2="2522.6741" gradientTransform="matrix(-0.9218 -0.3878 -0.3878 0.9218 -307.1377 -31.6312)">
				<stop  offset="0" style="stop-color:#53D8FF"/>
				<stop  offset="1" style="stop-color:#3840F7"/>
			</linearGradient>
			<path style="fill:url(#SVGID_00000127021894356765377940000016384402986623140012_);" d="M869.338,3238.13l-18.789-7.905
				c-3.516-1.479-6.155-4.49-7.127-8.18c-2.656-10.075-8.544-30.031-14.184-32.86c-7.592-3.809-18.277,24.385-18.277,24.385
				l-4.379-1.842l8.972-36.844c2.257-9.271,10.194-16.056,19.702-16.844l0,0c0,0-3.769,13.958,3.455,23.873
				c7.225,9.915,28.145,43.338,28.145,43.338s3.858,1.012,7.551,3.416C879.884,3232.233,875.363,3240.664,869.338,3238.13z"/>
			
				<linearGradient id="SVGID_00000082327672692856732690000004238083196175628186_" gradientUnits="userSpaceOnUse" x1="1018.6027" y1="2506.9099" x2="844.2767" y2="2914.7078">
				<stop  offset="0" style="stop-color:#A737D5"/>
				<stop  offset="0.6915" style="stop-color:#D94396"/>
				<stop  offset="1" style="stop-color:#EF497A"/>
			</linearGradient>
			<path style="fill:url(#SVGID_00000082327672692856732690000004238083196175628186_);" d="M978.521,2561.459
				c0,0-2.357,14.447,1.096,54.163c3.454,39.716,19.962,132.962,16.601,222.178c0,0-46.93,10.937-128.464,5.756
				c0,0-34.41-139.293-26.026-192.247c8.382-52.955,53.854-90.944,53.854-90.944L978.521,2561.459z"/>
			
				<linearGradient id="SVGID_00000172400606020487439940000012871026179803166380_" gradientUnits="userSpaceOnUse" x1="895.0855" y1="2312.0381" x2="949.5808" y2="2312.0381">
				<stop  offset="0" style="stop-color:#F9B776"/>
				<stop  offset="1" style="stop-color:#F47960"/>
			</linearGradient>
			<polygon style="fill:url(#SVGID_00000172400606020487439940000012871026179803166380_);" points="943.844,2296.068 
				949.581,2363.514 895.086,2363.514 908.635,2260.562 			"/>
			
				<linearGradient id="SVGID_00000085935244196910410720000004573575054935152547_" gradientUnits="userSpaceOnUse" x1="908.5756" y1="2479.731" x2="620.0024" y2="2849.9395">
				<stop  offset="0" style="stop-color:#FDF53F"/>
				<stop  offset="1" style="stop-color:#D93C65"/>
			</linearGradient>
			<path style="fill:url(#SVGID_00000085935244196910410720000004573575054935152547_);" d="M878.942,2354.188
				c18.808-1.038,60.857-2.957,90.646-1.333c15.684,0.854,28.822,12.107,32.031,27.483l7.266,34.819
				c2.707,12.969,2.302,26.395-1.18,39.177l-29.183,107.126c0,0-25.956,15.598-82.94-1.094c0,0-50.043-119.335-29.559-195.674
				C867.614,2358.763,872.813,2354.526,878.942,2354.188z"/>
			
				<linearGradient id="SVGID_00000140695655091982861840000009672871367814447237_" gradientUnits="userSpaceOnUse" x1="1214.8159" y1="2343.1072" x2="743.5005" y2="2613.115">
				<stop  offset="0" style="stop-color:#F9B776"/>
				<stop  offset="1" style="stop-color:#F47960"/>
			</linearGradient>
			<path style="fill:url(#SVGID_00000140695655091982861840000009672871367814447237_);" d="M1000.195,2374.092
				c8.027,21.145,15.276,43.317,23.065,64.083c3.96,10.393,7.978,20.582,12.275,29.938c2.174,4.66,4.562,8.942,6.753,12.824
				c2.194,3.843,4.665,7.04,5.951,8.511c0.252,0.218-0.593,0.385-0.876,0.398c-0.171,0.021,5.426,0.918,7.143,1.206l6.708-0.04
				c9.615-0.495,20.505-2.19,31.429-4.312c22.033-4.108,44.941-9.876,68.462-14.24l0.181-0.033c4.5-0.835,8.826,2.137,9.661,6.638
				c0.55,2.968-0.566,5.868-2.673,7.733c-9.484,8.348-19.537,15.206-29.965,21.882c-5.249,3.209-10.589,6.355-16.018,9.376
				c-5.536,2.821-11.087,5.666-16.852,8.295c-11.608,5.058-23.6,9.717-37.414,12.71c-3.631,0.607-7.214,1.244-10.949,1.745
				c-4.189,0.146-7.994,0.517-12.57,0.252c-2.43-0.241-4.872-0.539-7.307-0.893c-1.298-0.229-2.253-0.253-3.826-0.688
				c-1.669-0.5-3.334-1.062-4.976-1.678c-3.431-1.231-5.648-2.721-8.434-4.271c-2.314-1.525-4.424-3.121-6.47-4.756
				c-7.553-6.433-12.242-12.818-16.375-18.948c-4.122-6.124-7.389-12.26-10.322-18.274c-5.883-12.011-10.477-23.913-14.204-35.898
				c-7.553-24.016-12.671-47.619-14.832-72.691c-1.034-12.009,7.862-22.582,19.872-23.617c9.939-0.856,18.896,5.091,22.273,13.975
				L1000.195,2374.092z"/>
			
				<linearGradient id="SVGID_00000049198636916484870250000001839059774586814616_" gradientUnits="userSpaceOnUse" x1="1261.6465" y1="2424.8535" x2="790.332" y2="2694.8608">
				<stop  offset="0" style="stop-color:#F9B776"/>
				<stop  offset="1" style="stop-color:#F47960"/>
			</linearGradient>
			<path style="fill:url(#SVGID_00000049198636916484870250000001839059774586814616_);" d="M1153.703,2483.237l9.724-23.084
				l51.182-12.754c0,0,4.095,8.872-17.402,12.754c0,0,7.678,8.487,3.583,18.468
				C1196.697,2488.602,1153.191,2498.601,1153.703,2483.237z"/>
			
				<linearGradient id="SVGID_00000012437419943882108080000008960855493196693906_" gradientUnits="userSpaceOnUse" x1="985.8505" y1="2312.0166" x2="879.9521" y2="2157.165">
				<stop  offset="0" style="stop-color:#F9B776"/>
				<stop  offset="1" style="stop-color:#F47960"/>
			</linearGradient>
			<path style="fill:url(#SVGID_00000012437419943882108080000008960855493196693906_);" d="M966.918,2218.175
				c1.946,1.148,17.277,55.221,4.43,77.893c-12.847,22.671-52.08-2.723-62.713-35.506
				C898.003,2227.779,915.085,2187.607,966.918,2218.175z"/>
			
				<linearGradient id="SVGID_00000181795214547310576480000006862449402010803890_" gradientUnits="userSpaceOnUse" x1="638.767" y1="2354.6433" x2="983.812" y2="2354.6433">
				<stop  offset="0" style="stop-color:#CB236D"/>
				<stop  offset="1" style="stop-color:#4C246D"/>
			</linearGradient>
			<path style="fill:url(#SVGID_00000181795214547310576480000006862449402010803890_);" d="M865.235,2260.562
				c-8.8,43.115-37.958,31.316-58.609,50.498c-33.47,31.089-81.352-0.959-127.9,28.502c-33.604,21.268-49.796,75.682-33.669,119.614
				c22.336,60.848,98.665,85.871,138.221,67.338c37.804-17.712,32.421-70.76,83.286-91.261c21.594-8.704,32.255-3.048,45.188-15.948
				c22.639-22.582,16.53-66.405,14.177-83.287c-5.107-36.632-17.389-43.264-11.519-59.364c11.417-31.314,64.672-24.853,69.11-46.96
				c4.041-20.131-34.558-58.289-70.883-52.276C856.435,2186.721,869.155,2241.354,865.235,2260.562z"/>
			<path style="opacity:0.6;fill:#FFFFFF;" d="M661.841,2448.871c-0.667,0-1.267-0.451-1.431-1.127
				c-7.196-29.872-3.931-54.371,9.708-72.818c22.633-30.613,66.621-33.643,67.064-33.668c0.693-0.115,1.506,0.567,1.557,1.38
				c0.049,0.81-0.566,1.508-1.379,1.557c-0.429,0.026-43.086,2.986-64.889,32.499c-13.087,17.711-16.182,41.385-9.199,70.361
				c0.19,0.79-0.296,1.586-1.086,1.776C662.071,2448.856,661.953,2448.871,661.841,2448.871z"/>
			<path style="opacity:0.72;fill:#FFFFFF;" d="M805.911,2476.217c-0.06,0-0.124-0.009-0.187-0.023
				c-0.391-0.104-0.627-0.506-0.526-0.9c7.01-26.892,19.309-45.568,36.552-55.515c12.543-7.236,24.291-7.908,34.653-8.502
				c9.992-0.575,18.622-1.072,25.568-7.248c14.357-12.768,13.526-43.465-2.472-91.24c-0.129-0.385,0.081-0.802,0.465-0.931
				c0.388-0.129,0.802,0.081,0.931,0.466c16.202,48.385,16.891,79.608,2.052,92.804c-7.328,6.518-16.193,7.029-26.461,7.618
				c-10.199,0.586-21.76,1.25-34.002,8.311c-16.889,9.739-28.955,28.114-35.861,54.612
				C806.538,2475.998,806.239,2476.217,805.911,2476.217z"/>
			<path style="opacity:0.72;fill:#FFFFFF;" d="M886.054,2249.862c-0.077,0-0.155-0.011-0.236-0.037
				c-0.385-0.129-0.592-0.549-0.462-0.933c5.571-16.576,21.625-14.113,38.634-11.498c10.765,1.656,21.894,3.359,31.335,0.566
				c7.044-2.089,11.228-5.325,12.437-9.621c2.066-7.313-5.17-15.469-5.242-15.553c-0.273-0.302-0.247-0.767,0.055-1.037
				c0.298-0.273,0.768-0.247,1.038,0.054c0.322,0.356,7.848,8.831,5.569,16.932c-1.356,4.813-5.877,8.392-13.437,10.633
				c-9.762,2.891-21.053,1.158-31.979-0.52c-17.073-2.621-31.835-4.894-37.014,10.515
				C886.649,2249.67,886.361,2249.862,886.054,2249.862z"/>
		</g>
	</g>
</g>
</svg>
