<?xml version="1.0" encoding="utf-8"?>
<!-- Generator: Adobe Illustrator 27.5.0, SVG Export Plug-In . SVG Version: 6.00 Build 0)  -->
<svg version="1.1" xmlns="http://www.w3.org/2000/svg" xmlns:xlink="http://www.w3.org/1999/xlink" x="0px" y="0px"
	 viewBox="0 0 3710 3710" style="enable-background:new 0 0 3710 3710;" xml:space="preserve">
<g id="Background">
	<g>
		<g>
			<rect style="fill:#FFFFFF;" width="3710" height="3710"/>
		</g>
	</g>
</g>
<g id="Illustration">
	<g>
		<linearGradient id="SVGID_1_" gradientUnits="userSpaceOnUse" x1="3602.011" y1="4055.3013" x2="1123.3103" y2="976.9105">
			<stop  offset="0" style="stop-color:#DAE3FE"/>
			<stop  offset="1" style="stop-color:#E9EFFD"/>
		</linearGradient>
		<path style="fill:url(#SVGID_1_);" d="M2929.287,2834.917c-57.438,59.591-111.785,98.02-154.724,128.382
			c-504.737,356.897-1101.975,252.864-1228.905,227.457c-187.436-37.517-549.745-110.035-811.688-413.603
			c-396.298-459.273-334.588-1182.844-27.193-1660.484c56.227-87.369,353.237-572.284,956.908-650.049
			c365.335-47.063,791.198,47.857,1099.597,302.483C3410.637,1303.586,3364.552,2383.336,2929.287,2834.917z"/>
		<g>
			<path style="fill:#BDD0FB;" d="M3053.898,1297.201c-0.094-5.915-2.929-11.546-7.861-15.615
				c-4.934-4.068-11.545-6.23-18.335-5.993l-515.946,18.009c-8.855,0.309-15.789,6.744-15.58,14.457l26.19,960.212l521.695-5.541
				c6.688-0.071,13.068-2.454,17.736-6.625c4.667-4.17,7.238-9.786,7.145-15.607L3053.898,1297.201z"/>
			<g style="opacity:0.2;">
				<g>
					<polygon style="fill:#FFFFFF;" points="2636.951,1446.86 2560.715,1446.838 2556.922,1350.902 2633.647,1350.902 					"/>
					<polygon style="fill:#FFFFFF;" points="2755.754,1446.604 2683.228,1446.574 2680.22,1350.902 2753.208,1350.902 					"/>
					<polygon style="fill:#FFFFFF;" points="2877.195,1446.342 2801.783,1446.319 2799.531,1350.902 2875.422,1350.902 					"/>
					<polygon style="fill:#FFFFFF;" points="2997.972,1446.082 2922.972,1446.058 2921.489,1350.902 2996.962,1350.902 					"/>
				</g>
				<g>
					<polygon style="fill:#FFFFFF;" points="2642.333,1602.927 2566.894,1603.354 2563.179,1509.578 2639.097,1509.308 					"/>
					<polygon style="fill:#FFFFFF;" points="2759.899,1602.261 2688.128,1602.667 2685.181,1509.144 2757.406,1508.888 					"/>
					<polygon style="fill:#FFFFFF;" points="2880.084,1601.58 2805.452,1602.002 2803.246,1508.725 2878.347,1508.458 					"/>
					<polygon style="fill:#FFFFFF;" points="2999.617,1600.903 2925.389,1601.323 2923.936,1508.296 2998.628,1508.03 					"/>
				</g>
				<g>
					<polygon style="fill:#FFFFFF;" points="2647.606,1755.443 2572.947,1756.123 2569.308,1664.261 2644.436,1663.732 					"/>
					<polygon style="fill:#FFFFFF;" points="2763.961,1754.384 2692.927,1755.031 2690.041,1663.411 2761.519,1662.909 					"/>
					<polygon style="fill:#FFFFFF;" points="2882.914,1753.302 2809.045,1753.974 2806.884,1662.59 2881.212,1662.067 					"/>
					<polygon style="fill:#FFFFFF;" points="3001.229,1752.225 2927.756,1752.894 2926.333,1661.75 3000.26,1661.23 					"/>
				</g>
				<g>
					<polygon style="fill:#FFFFFF;" points="2652.771,1904.878 2578.877,1905.799 2575.311,1815.793 2649.665,1815.017 					"/>
					<polygon style="fill:#FFFFFF;" points="2767.94,1903.441 2697.631,1904.318 2694.802,1814.545 2765.547,1813.806 					"/>
					<polygon style="fill:#FFFFFF;" points="2885.687,1901.973 2812.567,1902.885 2810.449,1813.337 2884.019,1812.569 					"/>
					<polygon style="fill:#FFFFFF;" points="3002.809,1900.512 2930.076,1901.419 2928.681,1812.103 3001.858,1811.338 					"/>
				</g>
				<g>
					<polygon style="fill:#FFFFFF;" points="2657.834,2051.322 2584.688,2052.476 2581.193,1964.27 2654.79,1963.256 					"/>
					<polygon style="fill:#FFFFFF;" points="2771.84,2049.524 2702.24,2050.622 2699.468,1962.639 2769.495,1961.674 					"/>
					<polygon style="fill:#FFFFFF;" points="2888.405,2047.685 2816.018,2048.827 2813.943,1961.061 2886.771,1960.057 					"/>
					<polygon style="fill:#FFFFFF;" points="3004.357,2045.856 2932.351,2046.992 2930.983,1959.447 3003.426,1958.448 					"/>
				</g>
				<g>
					<polygon style="fill:#FFFFFF;" points="2662.796,2194.865 2590.384,2196.242 2586.958,2109.783 2659.812,2108.54 					"/>
					<polygon style="fill:#FFFFFF;" points="2775.664,2192.719 2706.757,2194.029 2704.041,2107.785 2773.364,2106.602 					"/>
					<polygon style="fill:#FFFFFF;" points="2891.069,2190.525 2819.401,2191.888 2817.367,2105.851 2889.467,2104.621 					"/>
					<polygon style="fill:#FFFFFF;" points="3005.875,2188.342 2934.58,2189.698 2933.239,2103.874 3004.962,2102.649 					"/>
				</g>
			</g>
		</g>
		<g>
			<path style="fill:#91B3FA;" d="M3240.433,1676.134c-0.249-14.576-11.056-26.569-24.302-26.569h-500.679
				c-13.424,0-26.607,12.619-26.607,27.394v1320.49c0,7.107,3.721,13.923,8.293,18.941c4.573,5.019,11.347,7.828,17.806,7.809
				l523.488-1.572c6.514-0.02,12.891-2.916,17.448-8.04c4.556-5.124,7.125-12.206,7.003-19.374L3240.433,1676.134z"/>
			<g style="opacity:0.5;">
				<g>
					<polygon style="fill:#FFFFFF;" points="2871.709,1805.168 2729.076,1804.958 2727.945,1724.496 2870.716,1724.496 					"/>
					<polygon style="fill:#FFFFFF;" points="3031.583,1805.128 2889.094,1804.917 2888.118,1724.496 3030.746,1724.496 					"/>
					<polygon style="fill:#FFFFFF;" points="3191.298,1805.087 3048.952,1804.877 3048.131,1724.496 3190.615,1724.496 					"/>
				</g>
				<g>
					<polygon style="fill:#FFFFFF;" points="2873.491,1949.594 2731.107,1949.694 2729.979,1869.757 2872.502,1869.693 					"/>
					<polygon style="fill:#FFFFFF;" points="3033.088,1949.481 2890.846,1949.581 2889.874,1869.685 3032.253,1869.62 					"/>
					<polygon style="fill:#FFFFFF;" points="3192.524,1949.369 3050.426,1949.469 3049.607,1869.613 3191.844,1869.548 					"/>
				</g>
				<g>
					<polygon style="fill:#FFFFFF;" points="2875.268,2093.026 2733.131,2093.191 2732.008,2013.532 2874.281,2013.403 					"/>
					<polygon style="fill:#FFFFFF;" points="3034.587,2092.842 2892.592,2093.006 2891.623,2013.387 3033.754,2013.259 					"/>
					<polygon style="fill:#FFFFFF;" points="3193.746,2092.658 3051.894,2092.823 3051.079,2013.243 3193.067,2013.114 					"/>
				</g>
				<g>
					<polygon style="fill:#FFFFFF;" points="2877.038,2235.963 2735.148,2236.191 2734.028,2156.807 2876.055,2156.615 					"/>
					<polygon style="fill:#FFFFFF;" points="3036.08,2235.708 2894.332,2235.935 2893.367,2156.591 3035.251,2156.399 					"/>
					<polygon style="fill:#FFFFFF;" points="3194.964,2235.452 3053.358,2235.68 3052.546,2156.375 3194.287,2156.184 					"/>
				</g>
				<g>
					<polygon style="fill:#FFFFFF;" points="2878.802,2378.405 2737.158,2378.696 2736.042,2299.587 2877.822,2299.331 					"/>
					<polygon style="fill:#FFFFFF;" points="3037.568,2378.079 2896.067,2378.37 2895.104,2299.3 3036.742,2299.044 					"/>
					<polygon style="fill:#FFFFFF;" points="3196.177,2377.753 3054.816,2378.044 3054.007,2299.013 3195.504,2298.758 					"/>
				</g>
				<g>
					<polygon style="fill:#FFFFFF;" points="2880.56,2520.356 2739.162,2520.71 2738.049,2441.874 2879.583,2441.555 					"/>
					<polygon style="fill:#FFFFFF;" points="3039.052,2519.96 2897.795,2520.313 2896.835,2441.516 3038.228,2441.198 					"/>
					<polygon style="fill:#FFFFFF;" points="3197.387,2519.564 3056.27,2519.917 3055.463,2441.159 3196.715,2440.841 					"/>
				</g>
				<g>
					<polygon style="fill:#FFFFFF;" points="2882.312,2661.819 2741.158,2662.234 2740.05,2583.67 2881.339,2583.288 					"/>
					<polygon style="fill:#FFFFFF;" points="3040.531,2661.353 2899.517,2661.767 2898.561,2583.242 3039.71,2582.861 					"/>
					<polygon style="fill:#FFFFFF;" points="3198.592,2660.887 3057.719,2661.302 3056.914,2582.815 3197.923,2582.434 					"/>
				</g>
				<g>
					<polygon style="fill:#FFFFFF;" points="2884.058,2802.794 2743.147,2803.271 2742.042,2724.978 2883.088,2724.534 					"/>
					<polygon style="fill:#FFFFFF;" points="3042.003,2802.259 2901.233,2802.736 2900.28,2724.48 3041.186,2724.038 					"/>
					<polygon style="fill:#FFFFFF;" points="3199.793,2801.725 3059.162,2802.201 3058.361,2723.983 3199.125,2723.542 					"/>
				</g>
				<g>
					<polygon style="fill:#FFFFFF;" points="2885.798,2943.286 2745.13,2943.825 2744.029,2865.799 2884.832,2865.294 					"/>
					<polygon style="fill:#FFFFFF;" points="3043.471,2942.682 2902.943,2943.22 2901.994,2865.233 3042.656,2864.729 					"/>
					<polygon style="fill:#FFFFFF;" points="3200.99,2942.079 3060.601,2942.617 3059.802,2864.667 3200.325,2864.163 					"/>
				</g>
			</g>
		</g>
		<g>
			<path style="fill:#91B3FA;" d="M2510.098,1416.817c-0.127-7.997-3.96-15.61-10.628-21.112c-6.671-5.501-15.61-8.422-24.79-8.102
				l-697.568,24.348c-11.973,0.417-21.348,9.118-21.064,19.547l35.41,1298.223l705.34-7.492c9.042-0.096,17.669-3.319,23.979-8.958
				c6.31-5.638,9.786-13.23,9.66-21.101L2510.098,1416.817z"/>
			<g style="opacity:0.2;">
				<g>
					<polygon style="fill:#FFFFFF;" points="1946.38,1619.158 1843.307,1619.128 1838.178,1489.422 1941.912,1489.422 					"/>
					<polygon style="fill:#FFFFFF;" points="2107.002,1618.812 2008.946,1618.772 2004.879,1489.422 2103.561,1489.422 					"/>
					<polygon style="fill:#FFFFFF;" points="2271.193,1618.458 2169.235,1618.427 2166.189,1489.422 2268.796,1489.422 					"/>
					<polygon style="fill:#FFFFFF;" points="2434.486,1618.106 2333.085,1618.074 2331.079,1489.422 2433.12,1489.422 					"/>
				</g>
				<g>
					<polygon style="fill:#FFFFFF;" points="1953.656,1830.163 1851.661,1830.74 1846.638,1703.954 1949.281,1703.589 					"/>
					<polygon style="fill:#FFFFFF;" points="2112.607,1829.263 2015.571,1829.813 2011.587,1703.368 2109.237,1703.021 					"/>
					<polygon style="fill:#FFFFFF;" points="2275.099,1828.343 2174.195,1828.914 2171.212,1702.801 2272.75,1702.44 					"/>
					<polygon style="fill:#FFFFFF;" points="2436.709,1827.427 2336.352,1827.995 2334.387,1702.221 2435.372,1701.862 					"/>
				</g>
				<g>
					<polygon style="fill:#FFFFFF;" points="1960.784,2036.369 1859.844,2037.287 1854.924,1913.088 1956.499,1912.374 					"/>
					<polygon style="fill:#FFFFFF;" points="2118.099,2034.937 2022.06,2035.811 2018.158,1911.94 2114.796,1911.26 					"/>
					<polygon style="fill:#FFFFFF;" points="2278.925,2033.473 2179.053,2034.382 2176.132,1910.829 2276.624,1910.122 					"/>
					<polygon style="fill:#FFFFFF;" points="2438.889,2032.017 2339.552,2032.921 2337.628,1909.693 2437.579,1908.99 					"/>
				</g>
				<g>
					<polygon style="fill:#FFFFFF;" points="1967.769,2238.406 1867.862,2239.652 1863.041,2117.963 1963.569,2116.913 					"/>
					<polygon style="fill:#FFFFFF;" points="2123.479,2236.464 2028.419,2237.65 2024.595,2116.275 2120.243,2115.276 					"/>
					<polygon style="fill:#FFFFFF;" points="2282.674,2234.479 2183.815,2235.712 2180.952,2114.642 2280.42,2113.603 					"/>
					<polygon style="fill:#FFFFFF;" points="2441.025,2232.504 2342.69,2233.73 2340.803,2112.973 2439.74,2111.939 					"/>
				</g>
				<g>
					<polygon style="fill:#FFFFFF;" points="1974.613,2436.401 1875.719,2437.962 1870.994,2318.706 1970.497,2317.334 					"/>
					<polygon style="fill:#FFFFFF;" points="2128.752,2433.97 2034.65,2435.455 2030.903,2316.501 2125.581,2315.195 					"/>
					<polygon style="fill:#FFFFFF;" points="2286.349,2431.484 2188.481,2433.028 2185.675,2314.367 2284.139,2313.009 					"/>
					<polygon style="fill:#FFFFFF;" points="2443.118,2429.011 2345.764,2430.547 2343.915,2312.185 2441.859,2310.835 					"/>
				</g>
				<g>
					<polygon style="fill:#FFFFFF;" points="1981.322,2630.474 1883.42,2632.335 1878.788,2515.442 1977.287,2513.761 					"/>
					<polygon style="fill:#FFFFFF;" points="2133.921,2627.573 2040.758,2629.344 2037.085,2512.74 2130.812,2511.141 					"/>
					<polygon style="fill:#FFFFFF;" points="2289.951,2624.606 2193.055,2626.448 2190.305,2510.125 2287.785,2508.462 					"/>
					<polygon style="fill:#FFFFFF;" points="2445.17,2621.655 2348.778,2623.488 2346.965,2507.452 2443.936,2505.797 					"/>
				</g>
			</g>
		</g>
		<g>
			<path style="fill:#BDD0FB;" d="M1796.643,1164.701c-0.337-17.002-14.948-30.993-32.857-30.993h-676.927
				c-18.15,0-35.974,14.72-35.974,31.955v1540.346c0,8.29,5.031,16.241,11.212,22.095c6.183,5.854,15.342,9.131,24.073,9.109
				l707.764-1.834c8.807-0.023,17.429-3.402,23.589-9.379c6.16-5.977,9.634-14.239,9.468-22.599L1796.643,1164.701z"/>
			<g style="opacity:0.5;">
				<g>
					<polygon style="fill:#FFFFFF;" points="1298.122,1315.218 1105.28,1314.973 1103.75,1221.115 1296.78,1221.115 					"/>
					<polygon style="fill:#FFFFFF;" points="1514.275,1315.172 1321.627,1314.926 1320.308,1221.115 1513.143,1221.115 					"/>
					<polygon style="fill:#FFFFFF;" points="1730.212,1315.124 1537.757,1314.879 1536.647,1221.115 1729.288,1221.115 					"/>
				</g>
				<g>
					<polygon style="fill:#FFFFFF;" points="1300.532,1483.69 1108.026,1483.808 1106.501,1390.562 1299.194,1390.487 					"/>
					<polygon style="fill:#FFFFFF;" points="1516.309,1483.559 1323.996,1483.676 1322.681,1390.478 1515.18,1390.402 					"/>
					<polygon style="fill:#FFFFFF;" points="1731.87,1483.428 1539.75,1483.545 1538.644,1390.393 1730.95,1390.318 					"/>
				</g>
				<g>
					<polygon style="fill:#FFFFFF;" points="1302.933,1651.004 1110.763,1651.196 1109.243,1558.274 1301.6,1558.124 					"/>
					<polygon style="fill:#FFFFFF;" points="1518.336,1650.789 1326.357,1650.98 1325.046,1558.105 1517.21,1557.955 					"/>
					<polygon style="fill:#FFFFFF;" points="1733.521,1650.574 1541.736,1650.766 1540.634,1557.937 1732.604,1557.787 					"/>
				</g>
				<g>
					<polygon style="fill:#FFFFFF;" points="1305.327,1817.739 1113.489,1818.005 1111.976,1725.404 1303.998,1725.18 					"/>
					<polygon style="fill:#FFFFFF;" points="1520.355,1817.441 1328.709,1817.706 1327.404,1725.152 1519.234,1724.928 					"/>
					<polygon style="fill:#FFFFFF;" points="1735.168,1817.143 1543.715,1817.409 1542.616,1724.9 1734.254,1724.677 					"/>
				</g>
				<g>
					<polygon style="fill:#FFFFFF;" points="1307.712,1983.897 1116.207,1984.237 1114.698,1891.957 1306.387,1891.658 					"/>
					<polygon style="fill:#FFFFFF;" points="1522.367,1983.517 1331.054,1983.856 1329.753,1891.621 1521.25,1891.323 					"/>
					<polygon style="fill:#FFFFFF;" points="1736.809,1983.137 1545.686,1983.475 1544.592,1891.287 1735.898,1890.989 					"/>
				</g>
				<g>
					<polygon style="fill:#FFFFFF;" points="1310.089,2149.483 1118.916,2149.895 1117.412,2057.933 1308.769,2057.561 					"/>
					<polygon style="fill:#FFFFFF;" points="1524.373,2149.02 1333.391,2149.432 1332.094,2057.516 1523.259,2057.144 					"/>
					<polygon style="fill:#FFFFFF;" points="1738.444,2148.558 1547.652,2148.969 1546.56,2057.099 1737.536,2056.728 					"/>
				</g>
				<g>
					<polygon style="fill:#FFFFFF;" points="1312.457,2314.497 1121.615,2314.982 1120.116,2223.337 1311.142,2222.892 					"/>
					<polygon style="fill:#FFFFFF;" points="1526.372,2313.954 1335.719,2314.438 1334.426,2222.838 1525.262,2222.394 					"/>
					<polygon style="fill:#FFFFFF;" points="1740.073,2313.411 1549.61,2313.895 1548.522,2222.34 1739.168,2221.896 					"/>
				</g>
				<g>
					<polygon style="fill:#FFFFFF;" points="1314.818,2478.945 1124.305,2479.501 1122.811,2388.172 1313.507,2387.655 					"/>
					<polygon style="fill:#FFFFFF;" points="1528.363,2478.321 1338.039,2478.876 1336.751,2387.592 1527.257,2387.076 					"/>
					<polygon style="fill:#FFFFFF;" points="1741.697,2477.697 1551.562,2478.253 1550.479,2387.013 1740.795,2386.497 					"/>
				</g>
				<g>
					<polygon style="fill:#FFFFFF;" points="1317.17,2642.828 1126.985,2643.457 1125.497,2552.44 1315.864,2551.851 					"/>
					<polygon style="fill:#FFFFFF;" points="1530.348,2642.123 1340.352,2642.751 1339.068,2551.779 1529.246,2551.191 					"/>
					<polygon style="fill:#FFFFFF;" points="1743.315,2641.42 1553.507,2642.047 1552.427,2551.12 1742.417,2550.531 					"/>
				</g>
			</g>
		</g>
		<g>
			<path style="fill:#BDD0FB;" d="M1093.667,1364.286c-0.183-11.385-8.203-20.546-18.031-20.546h-596.13
				c-9.96,0-20.54,9.444-20.54,20.984v1611.872c0,8.613,4.212,16.873,9.476,22.956c5.264,6.082,13.028,9.488,20.463,9.464
				l602.659-1.906c7.5-0.023,14.832-3.534,20.078-9.743c5.245-6.209,8.199-14.62,8.058-23.307L1093.667,1364.286z"/>
			<g style="opacity:0.51;">
				<polygon style="fill:#FFFFFF;" points="751.318,1457.971 556.31,1457.189 556.383,1428.92 751.173,1429.634 				"/>
				<polygon style="fill:#FFFFFF;" points="751.853,1562.092 556.043,1561.057 556.116,1532.556 751.706,1533.521 				"/>
				<polygon style="fill:#FFFFFF;" points="752.392,1667.074 555.773,1665.782 555.848,1637.045 752.244,1638.267 				"/>
				<polygon style="fill:#FFFFFF;" points="752.935,1772.929 555.502,1771.375 555.576,1742.401 752.786,1743.883 				"/>
				<polygon style="fill:#FFFFFF;" points="753.484,1879.665 555.228,1877.845 555.304,1848.629 753.333,1850.376 				"/>
				<polygon style="fill:#FFFFFF;" points="754.593,2095.826 554.673,2093.461 554.75,2063.754 754.44,2066.044 				"/>
				<polygon style="fill:#FFFFFF;" points="756.294,2426.969 553.824,2423.752 553.902,2393.284 756.137,2396.422 				"/>
				<polygon style="fill:#FFFFFF;" points="754.036,1987.293 554.952,1985.203 555.028,1955.743 753.885,1957.76 				"/>
				<polygon style="fill:#FFFFFF;" points="755.155,2205.277 554.392,2202.633 554.47,2172.675 755.001,2175.243 				"/>
				<polygon style="fill:#FFFFFF;" points="755.722,2315.654 554.109,2312.725 554.187,2282.514 755.566,2285.365 				"/>
				<polygon style="fill:#FFFFFF;" points="756.87,2539.237 553.536,2535.726 553.615,2504.998 756.712,2508.428 				"/>
				<polygon style="fill:#FFFFFF;" points="757.451,2652.468 553.245,2648.658 553.325,2617.666 757.292,2621.394 				"/>
				<polygon style="fill:#FFFFFF;" points="758.038,2766.677 552.952,2762.563 553.032,2731.305 757.877,2735.335 				"/>
				<polygon style="fill:#FFFFFF;" points="758.63,2881.873 552.656,2877.45 552.737,2845.921 758.467,2850.258 				"/>
				<polygon style="fill:#FFFFFF;" points="1006.988,1458.995 810.757,1458.208 810.544,1429.851 1006.555,1430.569 				"/>
				<polygon style="fill:#FFFFFF;" points="1008.58,1563.449 811.537,1562.408 811.323,1533.816 1008.143,1534.787 				"/>
				<polygon style="fill:#FFFFFF;" points="1010.185,1668.769 812.323,1667.468 812.107,1638.64 1009.745,1639.87 				"/>
				<polygon style="fill:#FFFFFF;" points="1011.803,1774.968 813.116,1773.404 812.898,1744.335 1011.359,1745.827 				"/>
				<polygon style="fill:#FFFFFF;" points="1013.435,1882.052 813.915,1880.22 813.696,1850.909 1012.987,1852.667 				"/>
				<polygon style="fill:#FFFFFF;" points="1016.74,2098.928 815.534,2096.548 815.311,2066.742 1016.285,2069.046 				"/>
				<polygon style="fill:#FFFFFF;" points="1021.803,2431.19 818.014,2427.951 817.786,2397.379 1021.336,2400.538 				"/>
				<polygon style="fill:#FFFFFF;" points="1015.08,1990.035 814.721,1987.931 814.5,1958.374 1014.629,1960.403 				"/>
				<polygon style="fill:#FFFFFF;" points="1018.413,2208.746 816.354,2206.083 816.129,2176.026 1017.954,2178.611 				"/>
				<polygon style="fill:#FFFFFF;" points="1020.101,2319.495 817.18,2316.547 816.953,2286.234 1019.638,2289.103 				"/>
				<polygon style="fill:#FFFFFF;" points="1023.52,2543.842 818.855,2540.307 818.625,2509.474 1023.048,2512.927 				"/>
				<polygon style="fill:#FFFFFF;" points="1025.251,2657.465 819.703,2653.629 819.47,2622.53 1024.776,2626.283 				"/>
				<polygon style="fill:#FFFFFF;" points="1026.998,2772.072 820.558,2767.931 820.324,2736.563 1026.518,2740.62 				"/>
				<polygon style="fill:#FFFFFF;" points="1028.76,2887.672 821.421,2883.221 821.184,2851.581 1028.276,2855.947 				"/>
			</g>
		</g>
		<g>
			<g>
				<g>
					<path style="fill:#7D97F4;" d="M923.624,1865.692c17.276-48.544,28.009-98.581,26.128-151.624
						c-4.742-133.648-94.81-247.64-163.571-355.853c-63.197-99.457-118.48-251.779,58.692-256.483
						c141.15-3.748,320.496,118.303,354.692,261.773c40.467,169.802-20.331,395.783,95.614,541.632
						c162.201,204.036,257.157,143.271,296.291,512.449c16.722,157.746-61.431,254.022-156.432,312.558
						c-149.947,92.392-341.545,81.792-480.315-26.668c-122.596-95.819-205.105-243.499-199.208-401.171
						C761.471,2143.06,871.885,2011.07,923.624,1865.692z"/>
					<path style="fill:#91B3FA;" d="M1166.372,3040.618c-0.248,0-0.498-0.018-0.75-0.052c-2.909-0.41-4.936-3.101-4.527-6.011
						c113.333-805,18.745-1267.263-80.561-1513.301c-107.431-266.17-243.273-343.303-244.632-344.053
						c-2.572-1.415-3.514-4.647-2.101-7.221c1.411-2.573,4.643-3.52,7.216-2.109c5.661,3.101,139.894,79.013,248.832,348.028
						c63.764,157.466,105.281,348.781,123.4,568.632c22.624,274.533,8.622,594.668-41.615,951.51
						C1171.258,3038.696,1168.98,3040.618,1166.372,3040.618z"/>
				</g>
				<path style="fill:#91B3FA;" d="M742.893,1491.288c6.574-2.553,13.948-3.915,21.962-3.843
					c44.321,0.393,67.199,44.665,83.89,79.405c14.295,29.75,31.255,65.902,28.3,100.088c-3.195,36.96-38.523,70.578-70.327,36.767
					c-36.151-38.432-90.55-97.556-96.71-152.909C706.947,1523.28,720.124,1500.131,742.893,1491.288z"/>
			</g>
			<g>
				<path style="fill:#7D97F4;" d="M492.765,2536.377c-30.418-116.094-1.893-256.1,6.284-383.145
					c4.323-67.172,2.618-133.197-15.024-198.539c-17.54-64.965-56.166-133.145-34.516-202.017
					c43.628-138.754,187.163-92.928,276.302-1.402c103.44,106.211,148.431,292.915,198.51,435.047
					c30.19,85.684,71.189,172.507,91.694,260.91c33.968,146.446,11.34,253.016-52.266,330.11
					c-61.005,73.945-163.224,98.771-251.424,61.219C632.649,2804.634,541.835,2723.66,492.765,2536.377z"/>
				<path style="fill:#91B3FA;" d="M864.047,3051.368c-0.11,0-0.219-0.004-0.331-0.011c-2.932-0.18-5.165-2.702-4.985-5.636
					c0.112-1.814,10.804-184.253-14.674-431.886c-23.499-228.379-83.448-560.507-235.601-845.813
					c-1.382-2.594-0.403-5.816,2.19-7.198c2.599-1.39,5.817-0.401,7.198,2.19c152.999,286.892,213.232,620.552,236.818,849.938
					c25.549,248.454,14.802,431.598,14.691,433.419C869.179,3049.195,866.837,3051.368,864.047,3051.368z"/>
			</g>
		</g>
		<g>
			
				<linearGradient id="SVGID_00000085214090612488885320000000864459507741522562_" gradientUnits="userSpaceOnUse" x1="2413.2983" y1="1173.5389" x2="1208.7061" y2="4831.1304">
				<stop  offset="0" style="stop-color:#09005D"/>
				<stop  offset="1" style="stop-color:#1A0F91"/>
			</linearGradient>
			<path style="fill:url(#SVGID_00000085214090612488885320000000864459507741522562_);" d="M3098.017,3087.516H925.158
				c-5.326,0-9.644-4.318-9.644-9.644V1708.697c0-5.326,4.318-9.644,9.644-9.644h2172.859c5.326,0,9.644,4.318,9.644,9.644v1369.175
				C3107.66,3083.198,3103.343,3087.516,3098.017,3087.516z"/>
			<path style="fill:#91B3FA;" d="M3029.579,3035.945H975.912c-5.326,0-9.644-4.318-9.644-9.644V1759.164
				c0-5.326,4.318-9.644,9.644-9.644h2053.667c5.326,0,9.644,4.318,9.644,9.644v1267.136
				C3039.223,3031.627,3034.905,3035.945,3029.579,3035.945z"/>
			
				<linearGradient id="SVGID_00000098931403801102201620000010942953912695258780_" gradientUnits="userSpaceOnUse" x1="1010.2521" y1="2435.9304" x2="2584.6113" y2="2435.9304">
				<stop  offset="0" style="stop-color:#4F52FF"/>
				<stop  offset="1" style="stop-color:#4042E2"/>
			</linearGradient>
			<path style="fill:url(#SVGID_00000098931403801102201620000010942953912695258780_);" d="M2574.967,2980.526H1019.896
				c-5.326,0-9.644-4.318-9.644-9.644V1900.979c0-5.326,4.318-9.644,9.644-9.644h1555.071c5.326,0,9.644,4.318,9.644,9.644v1069.903
				C2584.611,2976.208,2580.294,2980.526,2574.967,2980.526z"/>
			<g>
				
					<linearGradient id="SVGID_00000168091984987664450290000004558801934690498735_" gradientUnits="userSpaceOnUse" x1="1140.7651" y1="2589.7979" x2="2348.7952" y2="2589.7979">
					<stop  offset="0" style="stop-color:#DAE3FE"/>
					<stop  offset="1" style="stop-color:#E9EFFD"/>
				</linearGradient>
				<path style="fill:url(#SVGID_00000168091984987664450290000004558801934690498735_);" d="M2346.141,2864.379l-295.804-416.547
					c-2.979-4.193-8.025-6.717-13.433-6.717c-5.408,0-10.459,2.523-13.438,6.715l-170.109,239.459l-278.615-392.333
					c-2.979-4.193-8.025-6.717-13.433-6.717c-5.408,0-10.454,2.523-13.433,6.716l-404.449,569.423
					c-3.26,4.59-3.546,12.374-0.737,17.216c2.805,4.841,8.248,9.764,14.17,9.764h554.261h284.443h337.14
					c5.922,0,11.365-4.922,14.17-9.763C2349.677,2876.753,2349.396,2868.969,2346.141,2864.379z"/>
				
					<linearGradient id="SVGID_00000134965276841943679930000012761242642592681645_" gradientUnits="userSpaceOnUse" x1="1873.6792" y1="2186.4063" x2="2128.6135" y2="2186.4063">
					<stop  offset="0" style="stop-color:#DAE3FE"/>
					<stop  offset="1" style="stop-color:#E9EFFD"/>
				</linearGradient>
				
					<circle style="fill:url(#SVGID_00000134965276841943679930000012761242642592681645_);" cx="2001.146" cy="2186.406" r="127.467"/>
			</g>
			<path style="fill:#7D97F4;" d="M2951.152,2121.481h-299.383c-9.052,0-16.391-7.339-16.391-16.392v-178.104
				c0-9.053,7.339-16.391,16.391-16.391h299.383c9.053,0,16.392,7.339,16.392,16.391v178.104
				C2967.543,2114.143,2960.205,2121.481,2951.152,2121.481z"/>
			<path style="fill:#7D97F4;" d="M2951.152,2389.55h-299.383c-9.052,0-16.391-7.339-16.391-16.392v-178.104
				c0-9.053,7.339-16.392,16.391-16.392h299.383c9.053,0,16.392,7.339,16.392,16.392v178.104
				C2967.543,2382.211,2960.205,2389.55,2951.152,2389.55z"/>
			<path style="fill:#7D97F4;" d="M2951.152,2657.099h-299.383c-9.052,0-16.391-7.339-16.391-16.391v-178.104
				c0-9.053,7.339-16.391,16.391-16.391h299.383c9.053,0,16.392,7.339,16.392,16.391v178.104
				C2967.543,2649.761,2960.205,2657.099,2951.152,2657.099z"/>
			<path style="fill:#7D97F4;" d="M2951.152,2925.168h-299.383c-9.052,0-16.391-7.339-16.391-16.392v-178.104
				c0-9.053,7.339-16.392,16.391-16.392h299.383c9.053,0,16.392,7.339,16.392,16.392v178.104
				C2967.543,2917.829,2960.205,2925.168,2951.152,2925.168z"/>
		</g>
		<g>
			
				<linearGradient id="SVGID_00000082334247738814860680000010483218059580477375_" gradientUnits="userSpaceOnUse" x1="539.0317" y1="2276.1306" x2="690.0604" y2="2242.0837" gradientTransform="matrix(1 0 0 1 886.4202 0)">
				<stop  offset="0" style="stop-color:#FEBBBA"/>
				<stop  offset="1" style="stop-color:#FF928E"/>
			</linearGradient>
			<path style="fill:url(#SVGID_00000082334247738814860680000010483218059580477375_);" d="M1453.019,2246.943
				c6.681,10.164,17.483,24.158,9.826,36.396c-2.561,4.093-4.47,7.779-8.247,11.054c-6.22,5.394-13.932,8.77-21.743,11.374
				c-5.797,1.933-12.266,3.458-17.883,1.052c-0.608-0.26-0.888-0.711-0.628-1.254c3.642-0.139,9.944-5.353,13.496-7.13
				c4.54-2.272,9.097-4.629,12.545-8.458c1.471-1.633,2.744-3.457,4.014-5.276c4.748-6.803,3.182-16.413-4.922-19.955
				c-8.241-3.6-17.866-3.325-25.92,0.74c-2.661,1.344-5.186,3.09-8.039,3.849c-6.884,1.831-17.034-5.491-13.502-13.764
				c0.168-0.395,0.424-0.821,0.824-0.87c0.283-0.035,0.549,0.134,0.796,0.286c3.934,2.42,8.919,1.888,13.132,0.097
				c1.428-0.607,2.798-1.342,4.139-2.141c2.618-1.559,5.128-3.36,7.75-4.918c9.475-5.628,17.479-5.907,27.874-5.059
				c1.362,0.111,2.776,0.254,3.958,1.044C1451.532,2244.706,1452.292,2245.837,1453.019,2246.943z"/>
			
				<linearGradient id="SVGID_00000145754528523453664030000000389485500812635264_" gradientUnits="userSpaceOnUse" x1="5023.4082" y1="-2829.532" x2="4712.6323" y2="-2403.9043" gradientTransform="matrix(-0.9912 -0.1326 -0.1326 0.9912 2920.1396 126.5989)">
				<stop  offset="0" style="stop-color:#FF928E"/>
				<stop  offset="1" style="stop-color:#FE7062"/>
			</linearGradient>
			<path style="fill:url(#SVGID_00000145754528523453664030000000389485500812635264_);" d="M1343.218,2101.274
				c0,0,127.357,186.806,31.306,173.961c-5.957-0.797-83.396-11.153-83.396-11.153L1343.218,2101.274z"/>
			
				<linearGradient id="SVGID_00000016056552974745511630000014178688332749591699_" gradientUnits="userSpaceOnUse" x1="1019.9588" y1="3128.9985" x2="525.0696" y2="3667.2996" gradientTransform="matrix(1 0 0 1 407.8485 0)">
				<stop  offset="0" style="stop-color:#09005D"/>
				<stop  offset="1" style="stop-color:#1A0F91"/>
			</linearGradient>
			<path style="fill:url(#SVGID_00000016056552974745511630000014178688332749591699_);" d="M1271.372,3169.098
				c0,0-5.125,29.014-7.638,57.736c-0.982,11.225,7.672,20.971,18.93,21.439c38.249,1.594,120.063,4.691,149.422,3.382
				c4.413-0.198,7.298-4.716,5.665-8.82l0,0c-1.368-3.44-4.009-6.221-7.372-7.767l-135.143-62.111L1271.372,3169.098z"/>
			
				<linearGradient id="SVGID_00000062175962217505256110000009807562347007347637_" gradientUnits="userSpaceOnUse" x1="859.326" y1="3168.9792" x2="903.2833" y2="3168.9792" gradientTransform="matrix(1 0 0 1 407.8485 0)">
				<stop  offset="0" style="stop-color:#FEBBBA"/>
				<stop  offset="1" style="stop-color:#FF928E"/>
			</linearGradient>
			<path style="fill:url(#SVGID_00000062175962217505256110000009807562347007347637_);" d="M1267.175,3152.051l4.117,34.706
				c0,0,23.673,11.02,39.84-1.39l-9.804-38.675L1267.175,3152.051z"/>
			
				<linearGradient id="SVGID_00000119111474961994391990000009611603705991354755_" gradientUnits="userSpaceOnUse" x1="414.2777" y1="2682.7388" x2="180.2068" y2="3241.6431" gradientTransform="matrix(1 0 0 1 886.4202 0)">
				<stop  offset="0" style="stop-color:#09005D"/>
				<stop  offset="1" style="stop-color:#1A0F91"/>
			</linearGradient>
			<path style="fill:url(#SVGID_00000119111474961994391990000009611603705991354755_);" d="M1270.268,2499.58
				c-1.778,9.064-9.547,452.27,37.829,650.885c0.773,3.242-0.87,6.581-3.955,7.842c-7.267,2.969-21.512,7.268-38.583,7.842
				c-5.286,0.178-10.027-3.258-11.518-8.333c-13.543-46.082-78.434-276.965-86.9-497.522c-9.458-246.449,0-8.391,0-8.391
				l5.548-152.341L1270.268,2499.58z"/>
			
				<linearGradient id="SVGID_00000013162163595586201600000006434218466457695134_" gradientUnits="userSpaceOnUse" x1="908.9388" y1="3026.9319" x2="414.0502" y2="3565.2324" gradientTransform="matrix(1 0 0 1 407.8485 0)">
				<stop  offset="0" style="stop-color:#09005D"/>
				<stop  offset="1" style="stop-color:#1A0F91"/>
			</linearGradient>
			<path style="fill:url(#SVGID_00000013162163595586201600000006434218466457695134_);" d="M1115.914,3184.236
				c0,0-8.159,14.647-16.057,53.569c-1.426,7.029,3.485,13.757,10.623,14.459c12.629,1.241,32.072,2.839,47.646,2.731
				c7.18-0.049,12.783-6.3,11.918-13.428c-1.725-14.207-7.1-37.516-23.702-55.683L1115.914,3184.236z"/>
			
				<linearGradient id="SVGID_00000176001878311061558630000017700006662160662456_" gradientUnits="userSpaceOnUse" x1="700.8991" y1="3166.7246" x2="738.8534" y2="3166.7246" gradientTransform="matrix(1 0 0 1 407.8485 0)">
				<stop  offset="0" style="stop-color:#FEBBBA"/>
				<stop  offset="1" style="stop-color:#FF928E"/>
			</linearGradient>
			<path style="fill:url(#SVGID_00000176001878311061558630000017700006662160662456_);" d="M1108.748,3139.596l9.622,52.483
				c0,0,9.513,7.077,28.333,1.947l-4.593-56.469L1108.748,3139.596z"/>
			
				<linearGradient id="SVGID_00000123412959601183103320000005335567135003355561_" gradientUnits="userSpaceOnUse" x1="313.096" y1="2640.3635" x2="79.0251" y2="3199.2676" gradientTransform="matrix(1 0 0 1 886.4202 0)">
				<stop  offset="0" style="stop-color:#09005D"/>
				<stop  offset="1" style="stop-color:#1A0F91"/>
			</linearGradient>
			<path style="fill:url(#SVGID_00000123412959601183103320000005335567135003355561_);" d="M1082.755,2513.18
				c-38.746,233.84,8.405,577.954,24.308,645.305c0.974,4.123,4.302,7.282,8.481,7.976c7.098,1.176,18.785,2.136,30.306-1.21
				c3.969-1.153,6.759-4.733,6.92-8.864c2.134-54.452-1.707-388.732,34.396-520.841c1.83-6.695,5.919-12.534,11.575-16.555
				l70.074-49.816l5.372-80.524L1082.755,2513.18z"/>
			<g>
				
					<linearGradient id="SVGID_00000014610500365246688430000018030752218371743640_" gradientUnits="userSpaceOnUse" x1="5885.8306" y1="-3585.3057" x2="5575.0469" y2="-3159.6675" gradientTransform="matrix(-1 0 0 1 2786.4751 0)">
					<stop  offset="0" style="stop-color:#FF928E"/>
					<stop  offset="1" style="stop-color:#FE7062"/>
				</linearGradient>
				<path style="fill:url(#SVGID_00000014610500365246688430000018030752218371743640_);" d="M1341.275,2100.692
					c-114.188-36.059-255.863-0.104-255.863-0.104c-34.612,201.96-6.053,434.906-6.053,434.906
					c89.896,23.574,191.302-14.413,191.302-14.413C1285.602,2436.667,1375.432,2111.479,1341.275,2100.692z"/>
			</g>
			
				<linearGradient id="SVGID_00000005227263005963229010000003928045418357208989_" gradientUnits="userSpaceOnUse" x1="5945.1982" y1="-3541.9778" x2="5634.415" y2="-3116.3401" gradientTransform="matrix(-1 0 0 1 2786.4751 0)">
				<stop  offset="0" style="stop-color:#FF928E"/>
				<stop  offset="1" style="stop-color:#FE7062"/>
			</linearGradient>
			<path style="fill:url(#SVGID_00000005227263005963229010000003928045418357208989_);" d="M1129.95,2213.024l-44.537-112.435
				c0,0-108.459,73.694-126.295,167.129c20.493,1.51,57.784,6.839,94.285,25.27
				C1061.423,2248.869,1129.95,2213.024,1129.95,2213.024z"/>
			
				<linearGradient id="SVGID_00000088118377371881014850000009787225990955832203_" gradientUnits="userSpaceOnUse" x1="761.014" y1="2059.125" x2="873.3782" y2="2059.125" gradientTransform="matrix(1 0 0 1 407.8485 0)">
				<stop  offset="0" style="stop-color:#FEBBBA"/>
				<stop  offset="1" style="stop-color:#FF928E"/>
			</linearGradient>
			<path style="fill:url(#SVGID_00000088118377371881014850000009787225990955832203_);" d="M1206.024,1998.524l-36.946,106.846
				c-0.612,1.771,0.115,3.73,1.754,4.636c10.073,5.569,46.356,21.663,90.083-6.06c4.555-2.888,7.656-7.598,8.348-12.947
				l11.964-92.476H1206.024z"/>
			<g>
				
					<linearGradient id="SVGID_00000116916849995917753700000013145678047091315611_" gradientUnits="userSpaceOnUse" x1="-5011.4785" y1="-732.3463" x2="-5053.4678" y2="-870.8375" gradientTransform="matrix(0.746 -0.6659 0.6659 0.746 5534.1841 -803.1727)">
					<stop  offset="0" style="stop-color:#FEBBBA"/>
					<stop  offset="1" style="stop-color:#FF928E"/>
				</linearGradient>
				<path style="fill:url(#SVGID_00000116916849995917753700000013145678047091315611_);" d="M1286.415,1899.581
					c0,0,40.571,76.371,35.371,107.221c-5.201,30.85-55.482,28.635-99.39,3.579l-30.682-82.463L1286.415,1899.581z"/>
				
					<linearGradient id="SVGID_00000180362580779694409170000002229979722343846840_" gradientUnits="userSpaceOnUse" x1="-5049.3613" y1="-973.6458" x2="-5014.2373" y2="-773.3101" gradientTransform="matrix(0.746 -0.6659 0.6659 0.746 5534.1841 -803.1727)">
					<stop  offset="0" style="stop-color:#09005D"/>
					<stop  offset="1" style="stop-color:#1A0F91"/>
				</linearGradient>
				<path style="fill:url(#SVGID_00000180362580779694409170000002229979722343846840_);" d="M1224.336,1969.884
					c1.785-0.79,2.443-2.974,1.374-4.607c-3.25-4.965-9.344-15.096-11.288-23.965c0,0-7.293-4.671,18.564-10.86
					s64.416-15.796,72.521-37.804c7.902-21.458-12.86-75.421-45.984-32.424c-1.26,1.636-3.729,1.672-4.988,0.035
					c-5.43-7.068-19.705-21.738-39.526-12.844c-18.548,8.323-20.637,21.913-20.382,28.765c0.075,2.015-1.727,3.581-3.707,3.204
					c-9.378-1.789-31.882-3.325-42.385,19.76c-8.652,19.015-3.029,29.779,2.093,35.042c1.659,1.706,0.932,4.514-1.343,5.211
					c-6.164,1.886-14.123,7.113-13.326,21.552c1.102,19.962,23.42,18.203,29.775,17.293c1.041-0.15,2.09,0.208,2.795,0.988
					c5.449,6.029,29.996,31.63,56.565,34.717c2.301,0.267,4.084-2.004,3.33-4.194l-11.499-33.423
					c-0.534-1.552,0.209-3.255,1.71-3.92L1224.336,1969.884z"/>
				
					<linearGradient id="SVGID_00000090260754865375648730000000376967619400999835_" gradientUnits="userSpaceOnUse" x1="-5054.4019" y1="-732.991" x2="-5092.1802" y2="-857.5931" gradientTransform="matrix(0.746 -0.6659 0.6659 0.746 5534.1841 -803.1727)">
					<stop  offset="0" style="stop-color:#FEBBBA"/>
					<stop  offset="1" style="stop-color:#FF928E"/>
				</linearGradient>
				<path style="fill:url(#SVGID_00000090260754865375648730000000376967619400999835_);" d="M1228.958,1974.628
					c0,0-28.886-19.819-30.996-3.129c-2.111,16.69,26.013,24.175,39.942,17.953L1228.958,1974.628z"/>
			</g>
			<g>
				
					<linearGradient id="SVGID_00000140720603632924586310000009503958327252224131_" gradientUnits="userSpaceOnUse" x1="632.2966" y1="1505.6152" x2="598.192" y2="1716.6387" gradientTransform="matrix(1 0 0 1 886.4202 0)">
					<stop  offset="0" style="stop-color:#4F52FF"/>
					<stop  offset="1" style="stop-color:#4042E2"/>
				</linearGradient>
				<path style="fill:url(#SVGID_00000140720603632924586310000009503958327252224131_);" d="M1285.523,2389.395l207.509-110.185
					c4.178-2.218,6.583-6.758,6.072-11.461l-3.644-33.537l-217.107,115.282L1285.523,2389.395z"/>
				
					<linearGradient id="SVGID_00000168081862727459509140000003694891221151435149_" gradientUnits="userSpaceOnUse" x1="525.2977" y1="2064.4141" x2="471.0104" y2="2250.3064" gradientTransform="matrix(1 0 0 1 886.4202 0)">
					<stop  offset="0" style="stop-color:#4F52FF"/>
					<stop  offset="1" style="stop-color:#4042E2"/>
				</linearGradient>
				<polygon style="fill:url(#SVGID_00000168081862727459509140000003694891221151435149_);" points="1495.46,2234.212 
					1279.769,2352.161 1202.333,2324.845 1379.555,2228.769 				"/>
				
					<linearGradient id="SVGID_00000024711744510393305660000007261110247614943149_" gradientUnits="userSpaceOnUse" x1="1202.3329" y1="2357.1204" x2="1285.5228" y2="2357.1204">
					<stop  offset="0" style="stop-color:#4F52FF"/>
					<stop  offset="1" style="stop-color:#4042E2"/>
				</linearGradient>
				<polygon style="fill:url(#SVGID_00000024711744510393305660000007261110247614943149_);" points="1279.769,2352.161 
					1202.333,2324.845 1205.635,2358.969 1285.523,2389.395 				"/>
				
					<linearGradient id="SVGID_00000066505236652645937960000013257503560997573817_" gradientUnits="userSpaceOnUse" x1="364.1705" y1="2456.8188" x2="264.6439" y2="2668.2097" gradientTransform="matrix(1 0 0 1 886.4202 0)">
					<stop  offset="0" style="stop-color:#09005D"/>
					<stop  offset="1" style="stop-color:#1A0F91"/>
				</linearGradient>
				<path style="fill:url(#SVGID_00000066505236652645937960000013257503560997573817_);" d="M1223.946,2313.034l51.848,23.616
					c3.376,1.538,7.28,1.387,10.528-0.405l151.918-77.608l-64.683-22.931L1223.946,2313.034z"/>
				<g>
					
						<linearGradient id="SVGID_00000145050721671116996140000003107434236749500573_" gradientUnits="userSpaceOnUse" x1="361.2927" y1="2263.1099" x2="510.6578" y2="2347.2993" gradientTransform="matrix(1 0 0 1 886.4202 0)">
						<stop  offset="0" style="stop-color:#4F52FF"/>
						<stop  offset="1" style="stop-color:#4042E2"/>
					</linearGradient>
					
						<ellipse style="fill:url(#SVGID_00000145050721671116996140000003107434236749500573_);" cx="1304.38" cy="2295.05" rx="23.279" ry="17.17"/>
					
						<linearGradient id="SVGID_00000111912745356748588970000003485070689217902268_" gradientUnits="userSpaceOnUse" x1="362.9601" y1="2248.2231" x2="433.6134" y2="2288.0466" gradientTransform="matrix(1 0 0 1 886.4202 0)">
						<stop  offset="0" style="stop-color:#09005D"/>
						<stop  offset="1" style="stop-color:#1A0F91"/>
					</linearGradient>
					<path style="fill:url(#SVGID_00000111912745356748588970000003485070689217902268_);" d="M1305.417,2293.29h-5.54
						c-0.641,0-1.165-0.524-1.165-1.165v-27.758c0-0.641,0.524-1.165,1.165-1.165h5.54c0.641,0,1.165,0.524,1.165,1.165v27.758
						C1306.581,2292.766,1306.057,2293.29,1305.417,2293.29z"/>
					
						<linearGradient id="SVGID_00000069374077007360869810000011180488331342738079_" gradientUnits="userSpaceOnUse" x1="347.0081" y1="2255.0747" x2="439.1987" y2="2307.0378" gradientTransform="matrix(1 0 0 1 886.4202 0)">
						<stop  offset="0" style="stop-color:#09005D"/>
						<stop  offset="1" style="stop-color:#1A0F91"/>
					</linearGradient>
					
						<ellipse style="fill:url(#SVGID_00000069374077007360869810000011180488331342738079_);" cx="1302.932" cy="2294.25" rx="14.493" ry="10.048"/>
				</g>
				<g>
					
						<linearGradient id="SVGID_00000082363989920096106460000015520340268212935053_" gradientUnits="userSpaceOnUse" x1="428.1623" y1="2248.7473" x2="621.9219" y2="2346.1914" gradientTransform="matrix(0.9989 0.0473 -0.0473 0.9989 941.5676 -46.5167)">
						<stop  offset="0" style="stop-color:#09005D"/>
						<stop  offset="1" style="stop-color:#1A0F91"/>
					</linearGradient>
					<path style="fill:url(#SVGID_00000082363989920096106460000015520340268212935053_);" d="M1366.35,2350.997l24.297-81.23
						l50.939-21.702l-14.19,69.04c-0.408,1.985-1.697,3.677-3.504,4.596L1366.35,2350.997z"/>
					
						<linearGradient id="SVGID_00000182520848663724034590000011280606470716226471_" gradientUnits="userSpaceOnUse" x1="612.2494" y1="2284.4258" x2="534.064" y2="2341.2881" gradientTransform="matrix(0.9989 0.0473 -0.0473 0.9989 941.5676 -46.5167)">
						<stop  offset="0" style="stop-color:#09005D"/>
						<stop  offset="1" style="stop-color:#1A0F91"/>
					</linearGradient>
					<path style="fill:url(#SVGID_00000182520848663724034590000011280606470716226471_);" d="M1359.966,2349.03l24.274-79.566
						l6.407,0.303l-24.297,81.23l-2.514,1.28C1361.679,2353.375,1359.26,2351.346,1359.966,2349.03z"/>
					
						<linearGradient id="SVGID_00000121237858091207720840000007825349105680253869_" gradientUnits="userSpaceOnUse" x1="367.6957" y1="2338.4807" x2="489.5097" y2="2302.5237" gradientTransform="matrix(0.9986 0.0529 -0.0529 0.9986 946.7338 -52.1947)">
						<stop  offset="0" style="stop-color:#2B3582"/>
						<stop  offset="0.5652" style="stop-color:#1F1F5E"/>
						<stop  offset="1" style="stop-color:#150E42"/>
					</linearGradient>
					<path style="fill:url(#SVGID_00000121237858091207720840000007825349105680253869_);" d="M1462.789,2265.28l-125.507,56.706
						c-3.149,1.423-6.735-0.802-6.859-4.255l-2.558-71.224c-0.071-1.972,1.058-3.791,2.856-4.604l129.112-58.335
						c3.245-1.466,6.913,0.939,6.862,4.5l-1.047,72.853C1465.62,2262.805,1464.506,2264.504,1462.789,2265.28z"/>
					
						<linearGradient id="SVGID_00000056397551722378616180000003447518167541205648_" gradientUnits="userSpaceOnUse" x1="630.1531" y1="2231.2441" x2="386.5205" y2="2436.7173" gradientTransform="matrix(0.9986 0.0529 -0.0529 0.9986 946.7338 -52.1947)">
						<stop  offset="0" style="stop-color:#09005D"/>
						<stop  offset="1" style="stop-color:#1A0F91"/>
					</linearGradient>
					<path style="fill:url(#SVGID_00000056397551722378616180000003447518167541205648_);" d="M1467.521,2263.573l-124.589,56.292
						c-3.126,1.412-6.696-0.819-6.829-4.269l-2.738-71.143c-0.076-1.97,1.041-3.784,2.826-4.591l128.168-57.909
						c3.221-1.456,6.873,0.957,6.832,4.512l-0.841,72.76C1470.329,2261.108,1469.226,2262.802,1467.521,2263.573z"/>
				</g>
			</g>
			
				<linearGradient id="SVGID_00000119115542550441915670000005427856435909020044_" gradientUnits="userSpaceOnUse" x1="548.7956" y1="2340.2625" x2="832.9979" y2="2340.2625" gradientTransform="matrix(1 0 0 1 407.8485 0)">
				<stop  offset="0" style="stop-color:#FEBBBA"/>
				<stop  offset="1" style="stop-color:#FF928E"/>
			</linearGradient>
			<path style="fill:url(#SVGID_00000119115542550441915670000005427856435909020044_);" d="M1224.732,2318.821
				c0,0-121.773,68.82-162.861,10.056c-8.531-12.202-10.569-24.329-8.468-35.89c-36.501-18.431-73.792-23.76-94.285-25.27
				c-5.379,28.167-2.536,58.126,14.017,88.404c71.972,131.657,267.713-7.276,267.713-7.276L1224.732,2318.821z"/>
			
				<linearGradient id="SVGID_00000091010705200234654810000001898404017669915042_" gradientUnits="userSpaceOnUse" x1="811.8975" y1="2310.4641" x2="900.4383" y2="2310.4641" gradientTransform="matrix(1 0 0 1 407.8485 0)">
				<stop  offset="0" style="stop-color:#FEBBBA"/>
				<stop  offset="1" style="stop-color:#FF928E"/>
			</linearGradient>
			<path style="fill:url(#SVGID_00000091010705200234654810000001898404017669915042_);" d="M1226.157,2349.813
				c0,0-9.258-38.068-5.524-51.573c3.734-13.506,10.97-30.87,35.088-27.011c24.117,3.858,52.566,14.018,52.566,14.018
				s-1.438,17.591-19.766,11.916l11.366,8.795c0,0-1.625,14.086-17.107,6.561l10.571,11.664c0,0-6.649,11.568-18.04,4.148
				C1263.921,2320.91,1258.461,2354.397,1226.157,2349.813z"/>
		</g>
		<g>
			<g style="opacity:0.64;">
				<path style="fill:#91B3FA;" d="M2464.743,1465.633c-2.97,0-5.709-1.943-6.588-4.937c-1.057-3.603-2.049-7.263-2.946-10.88
					c-0.915-3.681,1.33-7.407,5.01-8.323c3.685-0.901,7.409,1.331,8.322,5.012c0.852,3.431,1.792,6.903,2.796,10.321
					c1.068,3.641-1.017,7.456-4.656,8.524C2466.034,1465.542,2465.383,1465.633,2464.743,1465.633z"/>
				<path style="fill:#91B3FA;" d="M2455.562,1419.078c-3.475,0-6.457-2.627-6.823-6.157c-0.794-7.62-1.268-15.365-1.409-23.017
					c-0.07-3.791,2.948-6.922,6.74-6.995c3.908-0.062,6.923,2.949,6.994,6.742c0.135,7.263,0.583,14.614,1.337,21.848
					c0.392,3.772-2.349,7.15-6.121,7.542C2456.04,1419.068,2455.799,1419.078,2455.562,1419.078z M2456.028,1360.198
					c-0.27,0-0.543-0.016-0.818-0.048c-3.767-0.448-6.458-3.863-6.01-7.63c0.904-7.622,2.145-15.277,3.686-22.749
					c0.766-3.716,4.406-6.101,8.113-5.339c3.714,0.765,6.107,4.397,5.34,8.113c-1.463,7.091-2.64,14.357-3.5,21.595
					C2462.425,1357.63,2459.459,1360.198,2456.028,1360.198z M2469.438,1302.884c-0.766,0-1.544-0.129-2.308-0.402
					c-3.572-1.275-5.436-5.202-4.162-8.776c2.57-7.204,5.487-14.391,8.669-21.365c1.576-3.45,5.654-4.966,9.101-3.397
					c3.451,1.575,4.971,5.65,3.397,9.101c-3.021,6.616-5.789,13.439-8.226,20.275
					C2474.905,1301.129,2472.261,1302.884,2469.438,1302.884z M2495.328,1249.994c-1.263,0-2.542-0.349-3.688-1.079
					c-3.198-2.039-4.135-6.286-2.097-9.484c4.113-6.444,8.562-12.803,13.223-18.894c2.305-3.007,6.616-3.582,9.629-1.28
					c3.012,2.305,3.584,6.616,1.28,9.629c-4.426,5.782-8.647,11.816-12.55,17.933
					C2499.815,1248.873,2497.595,1249.994,2495.328,1249.994z M2532.357,1204.201c-1.772,0-3.543-0.681-4.885-2.042
					c-2.667-2.699-2.64-7.048,0.059-9.713c5.449-5.385,11.193-10.598,17.073-15.491c2.916-2.431,7.249-2.031,9.672,0.882
					c2.428,2.914,2.032,7.247-0.883,9.672c-5.581,4.649-11.035,9.597-16.209,14.708
					C2535.846,1203.541,2534.101,1204.201,2532.357,1204.201z M2578.582,1167.74c-2.294,0-4.537-1.148-5.838-3.238
					c-2.004-3.222-1.018-7.456,2.203-9.46c6.504-4.048,13.258-7.861,20.075-11.336c3.381-1.72,7.518-0.378,9.238,3.002
					c1.723,3.381,0.378,7.515-3.002,9.237c-6.47,3.297-12.879,6.917-19.053,10.759
					C2581.074,1167.404,2579.82,1167.74,2578.582,1167.74z M2826.252,1151.566c-0.948,0-1.912-0.198-2.832-0.614
					c-6.628-3.005-13.458-5.755-20.301-8.172c-3.577-1.264-5.452-5.189-4.188-8.765c1.263-3.577,5.193-5.441,8.765-4.188
					c7.212,2.549,14.41,5.446,21.396,8.612c3.456,1.567,4.986,5.637,3.419,9.093
					C2831.362,1150.067,2828.865,1151.566,2826.252,1151.566z M2631.704,1142.433c-2.849,0-5.511-1.787-6.493-4.631
					c-1.237-3.585,0.667-7.496,4.253-8.733c7.247-2.501,14.68-4.714,22.09-6.576c3.685-0.918,7.41,1.309,8.336,4.988
					c0.924,3.678-1.309,7.411-4.988,8.336c-7.031,1.765-14.082,3.864-20.958,6.238
					C2633.202,1142.31,2632.447,1142.433,2631.704,1142.433z M2770.238,1133.44c-0.452,0-0.911-0.046-1.372-0.14
					c-7.13-1.446-14.405-2.605-21.621-3.439c-3.768-0.437-6.469-3.845-6.033-7.612c0.436-3.769,3.823-6.49,7.613-6.034
					c7.601,0.88,15.262,2.098,22.771,3.622c3.718,0.754,6.12,4.379,5.366,8.097
					C2776.301,1131.192,2773.438,1133.44,2770.238,1133.44z M2689.143,1129.622c-3.466,0-6.444-2.613-6.821-6.138
					c-0.404-3.77,2.326-7.156,6.098-7.558c7.615-0.816,15.355-1.312,23.007-1.47c0.048-0.003,0.098-0.003,0.146-0.003
					c3.727,0,6.785,2.981,6.864,6.723c0.079,3.794-2.931,6.933-6.724,7.011c-7.26,0.153-14.605,0.622-21.831,1.395
					C2689.635,1129.609,2689.388,1129.622,2689.143,1129.622z"/>
				<path style="fill:#91B3FA;" d="M2867.667,1175.11c-1.355,0-2.723-0.4-3.919-1.232c-2.872-1.999-5.867-3.992-8.906-5.924
					c-3.201-2.034-4.146-6.278-2.111-9.479c2.036-3.206,6.279-4.148,9.481-2.112c3.2,2.034,6.356,4.132,9.384,6.241
					c3.114,2.168,3.881,6.447,1.713,9.562C2871.975,1174.082,2869.838,1175.11,2867.667,1175.11z"/>
			</g>
			<g style="opacity:0.64;">
				<path style="fill:#91B3FA;" d="M2977.552,1349.739c-3.316,0-6.234-2.407-6.774-5.785c-0.561-3.515-1.203-7.059-1.908-10.531
					c-0.754-3.719,1.649-7.343,5.367-8.097c3.726-0.754,7.344,1.65,8.096,5.366c0.742,3.66,1.418,7.391,2.01,11.094
					c0.598,3.745-1.953,7.268-5.699,7.866C2978.276,1349.712,2977.911,1349.739,2977.552,1349.739z"/>
				<path style="fill:#91B3FA;" d="M2717.922,1654.81c-3.228,0.043-6.29-0.051-9.451-0.161c-3.791-0.129-6.759-3.308-6.627-7.099
					c0.133-3.791,3.296-6.831,7.102-6.627c3,0.105,5.995,0.185,8.972,0.15c4.178,0,8.399-0.105,12.559-0.311
					c3.878-0.166,7.013,2.731,7.201,6.52c0.188,3.788-2.731,7.013-6.52,7.201C2726.774,1654.7,2722.32,1654.81,2717.922,1654.81z
					 M2672.983,1651.03c-0.384,0-0.771-0.032-1.162-0.096c-7.437-1.269-14.903-2.863-22.187-4.744
					c-3.673-0.95-5.883-4.695-4.935-8.368c0.947-3.673,4.688-5.876,8.368-4.934c6.914,1.784,14.001,3.3,21.061,4.502
					c3.739,0.638,6.254,4.185,5.617,7.925C2679.175,1648.663,2676.269,1651.03,2672.983,1651.03z M2766.463,1650.271
					c-3.237,0-6.119-2.297-6.741-5.594c-0.704-3.729,1.748-7.319,5.476-8.025c7.031-1.325,14.084-2.968,20.964-4.88
					c3.657-1.009,7.443,1.124,8.457,4.781c1.016,3.654-1.124,7.44-4.778,8.457c-7.252,2.015-14.685,3.745-22.095,5.143
					C2767.315,1650.233,2766.885,1650.271,2766.463,1650.271z M2617.271,1635.063c-0.871,0-1.756-0.166-2.611-0.521
					c-6.974-2.868-13.906-6.069-20.601-9.508c-3.374-1.733-4.703-5.876-2.97-9.248c1.733-3.375,5.872-4.703,9.248-2.97
					c6.354,3.265,12.932,6.302,19.549,9.026c3.508,1.444,5.182,5.457,3.739,8.964
					C2622.533,1633.459,2619.972,1635.063,2617.271,1635.063z M2821.833,1633.314c-2.656,0-5.185-1.551-6.308-4.142
					c-1.506-3.48,0.094-7.526,3.575-9.031c6.577-2.85,13.098-5.999,19.383-9.369c3.342-1.795,7.507-0.536,9.298,2.807
					c1.793,3.343,0.535,7.507-2.808,9.299c-6.62,3.549-13.489,6.871-20.416,9.868
					C2823.669,1633.132,2822.742,1633.314,2821.833,1633.314z M2872.143,1604.619c-2.123,0-4.218-0.982-5.562-2.83
					c-2.229-3.069-1.549-7.365,1.519-9.594c5.794-4.209,11.473-8.709,16.882-13.375c2.871-2.479,7.21-2.157,9.687,0.717
					c2.478,2.874,2.157,7.209-0.715,9.688c-5.696,4.913-11.678,9.651-17.778,14.083
					C2874.956,1604.193,2873.543,1604.619,2872.143,1604.619z M2915.006,1565.655c-1.615,0-3.237-0.566-4.544-1.72
					c-2.844-2.511-3.114-6.852-0.602-9.696c4.735-5.361,9.301-10.987,13.568-16.723c2.263-3.045,6.564-3.673,9.612-1.411
					c3.042,2.264,3.674,6.568,1.41,9.61c-4.497,6.042-9.306,11.971-14.292,17.619
					C2918.8,1564.869,2916.907,1565.655,2915.006,1565.655z M2948.355,1518.262c-1.119,0-2.254-0.274-3.304-0.85
					c-3.324-1.83-4.536-6.005-2.707-9.329c3.444-6.257,6.663-12.747,9.573-19.288c1.539-3.469,5.601-5.025,9.066-3.485
					c3.466,1.54,5.026,5.599,3.485,9.066c-3.065,6.895-6.459,13.734-10.088,20.329
					C2953.128,1516.978,2950.78,1518.262,2948.355,1518.262z M2970.5,1464.702c-0.629,0-1.271-0.089-1.906-0.271
					c-3.645-1.052-5.747-4.859-4.695-8.505c1.976-6.85,3.687-13.887,5.087-20.914c0.739-3.719,4.357-6.123,8.076-5.396
					c3.721,0.74,6.136,4.357,5.396,8.078c-1.474,7.402-3.277,14.818-5.362,22.041
					C2976.228,1462.744,2973.481,1464.702,2970.5,1464.702z M2980.338,1407.614c-0.142,0-0.286-0.005-0.429-0.013
					c-3.787-0.233-6.667-3.493-6.432-7.279c0.327-5.31,0.494-10.686,0.494-15.98c0-1.857-0.021-3.708-0.061-5.556
					c-0.081-3.791,2.928-6.93,6.721-7.01c3.818-0.145,6.934,2.927,7.013,6.721c0.042,1.945,0.063,3.893,0.063,5.846
					c0,5.575-0.175,11.237-0.521,16.828C2986.962,1404.81,2983.937,1407.614,2980.338,1407.614z"/>
				<path style="fill:#91B3FA;" d="M2566.309,1607.128c-1.365,0-2.742-0.405-3.943-1.248c-3.092-2.173-6.149-4.416-9.086-6.67
					c-3.01-2.307-3.578-6.619-1.269-9.629c2.309-3.008,6.62-3.582,9.629-1.269c2.785,2.135,5.687,4.266,8.622,6.326
					c3.104,2.181,3.853,6.466,1.673,9.57C2570.597,1606.111,2568.47,1607.128,2566.309,1607.128z"/>
			</g>
			<g>
				<path style="fill:#91B3FA;" d="M2575.295,1528.487c0.852,1.044,2.274,1.434,3.539,0.968l36.104-13.277
					c14.233,10.961,30.316,19.733,47.799,25.742l8.806,37.42c0.308,1.313,1.417,2.285,2.758,2.421l45.906,4.651
					c1.342,0.135,2.622-0.595,3.187-1.818l16.131-34.895c18.334-2.381,35.849-7.748,51.99-15.633l32.708,20.247
					c1.147,0.709,2.617,0.614,3.662-0.239l35.749-29.172c1.045-0.853,1.434-2.275,0.968-3.54l-13.277-36.103
					c10.962-14.233,19.732-30.316,25.741-47.8l37.421-8.806c1.313-0.309,2.284-1.416,2.42-2.758l4.65-45.907
					c0.136-1.342-0.594-2.622-1.819-3.187l-34.895-16.131c-2.381-18.334-7.748-35.849-15.633-51.99l20.248-32.708
					c0.709-1.146,0.613-2.617-0.239-3.661l-29.173-35.749c-0.852-1.045-2.274-1.433-3.54-0.968l-36.104,13.277
					c-14.232-10.962-30.316-19.732-47.799-25.741l-8.805-37.421c-0.309-1.313-1.416-2.285-2.758-2.421l-45.907-4.65
					c-1.341-0.136-2.621,0.594-3.187,1.818l-16.131,34.895c-18.333,2.38-35.849,7.748-51.99,15.633l-32.707-20.247
					c-1.146-0.711-2.618-0.614-3.662,0.238l-35.749,29.173c-1.044,0.852-1.433,2.274-0.968,3.54l13.277,36.103
					c-10.962,14.232-19.732,30.316-25.741,47.799l-37.421,8.806c-1.312,0.308-2.284,1.416-2.42,2.758l-4.65,45.906
					c-0.136,1.342,0.594,2.622,1.818,3.188l34.895,16.131c2.381,18.333,7.749,35.848,15.633,51.99l-20.247,32.708
					c-0.71,1.146-0.614,2.617,0.239,3.662L2575.295,1528.487z"/>
				<g>
					<path style="fill:#BDD0FB;" d="M2717.565,1431.747c-10.494,0-20.671-3.349-29.247-9.723
						c-10.552-7.84-17.418-19.32-19.333-32.325c-1.917-13.004,1.344-25.979,9.185-36.529c7.841-10.549,19.32-17.418,32.326-19.333
						c13.01-1.921,25.978,1.344,36.529,9.186c10.551,7.84,17.417,19.32,19.333,32.325c3.956,26.846-14.665,51.905-41.511,55.862l0,0
						C2722.414,1431.57,2719.981,1431.747,2717.565,1431.747z M2723.645,1423.057h0.027H2723.645z M2717.741,1349.788
						c-1.606,0-3.223,0.118-4.841,0.357c-8.65,1.275-16.284,5.841-21.499,12.86c-5.214,7.016-7.384,15.642-6.109,24.292
						c1.274,8.65,5.841,16.286,12.858,21.499c7.016,5.216,15.643,7.381,24.293,6.109c17.854-2.632,30.239-19.299,27.608-37.151
						c-1.276-8.65-5.842-16.286-12.858-21.499C2731.489,1352.014,2724.72,1349.788,2717.741,1349.788z"/>
				</g>
				<path style="fill:#BDD0FB;" d="M2718.591,1495.94c-3.886,0-7.792-0.196-11.71-0.593h-0.001
					c-8.094-0.821-16.093-2.498-23.77-4.982c-1.162-0.375-1.901-1.451-1.902-2.61c0-0.282,0.045-0.566,0.136-0.848
					c0.467-1.446,2.014-2.232,3.459-1.768c7.307,2.364,14.922,3.96,22.632,4.741c28.841,2.927,57.126-5.565,79.599-23.903
					c22.473-18.338,36.459-44.331,39.381-73.189c0.378-3.734,0.566-7.459,0.566-11.161c-0.004-24.917-8.504-48.873-24.47-68.44
					c-18.338-22.473-44.33-36.459-73.188-39.381c-59.594-6.063-112.949,37.519-118.982,97.092
					c-0.373,3.673-0.557,7.351-0.555,11.019c0.002,15.891,3.482,31.611,10.246,46.008c0.177,0.378,0.261,0.775,0.26,1.167
					c0,1.03-0.583,2.02-1.579,2.487c-1.376,0.644-3.01,0.056-3.656-1.32c-7.106-15.127-10.763-31.643-10.767-48.339
					c-0.001-3.853,0.192-7.716,0.582-11.574c6.341-62.586,62.434-108.333,125.002-102.007
					c58.69,5.945,102.584,55.629,102.593,113.401c0.001,3.834-0.192,7.706-0.586,11.601c-3.072,30.318-17.765,57.625-41.374,76.891
					C2769.949,1487.008,2744.771,1495.94,2718.591,1495.94z"/>
			</g>
		</g>
		<g>
			<g style="opacity:0.64;">
				<path style="fill:#91B3FA;" d="M2887.236,1177.455c-3.723,0-7.155-2.435-8.256-6.188c-1.352-4.6-2.537-9.312-3.524-14.007
					c-0.977-4.651,2.002-9.218,6.655-10.193c4.654-0.996,9.218,1.997,10.196,6.655c0.893,4.251,1.968,8.522,3.192,12.695
					c1.34,4.56-1.271,9.346-5.833,10.684C2888.855,1177.341,2888.038,1177.455,2887.236,1177.455z"/>
				<path style="fill:#91B3FA;" d="M2880.316,1119.34c-0.136,0-0.272-0.003-0.41-0.01c-4.748-0.222-8.419-4.251-8.195-9.003
					c0.064-1.392,0.146-2.785,0.242-4.18c0.572-8.266,1.698-16.543,3.344-24.597c0.951-4.658,5.488-7.685,10.159-6.709
					c4.658,0.952,7.663,5.502,6.709,10.16c-1.495,7.311-2.516,14.824-3.035,22.337c-0.089,1.268-0.162,2.532-0.222,3.797
					C2888.694,1115.745,2884.885,1119.34,2880.316,1119.34z M2898.244,1049.407c-1.276,0-2.573-0.286-3.795-0.888
					c-4.266-2.099-6.021-7.261-3.923-11.525c4.254-8.646,9.24-17.043,14.819-24.96c2.741-3.884,8.115-4.816,11.996-2.079
					c3.888,2.741,4.817,8.112,2.078,11.999c-5.062,7.184-9.584,14.801-13.443,22.639
					C2904.478,1047.638,2901.422,1049.407,2898.244,1049.407z M2942.688,992.486c-2.441,0-4.868-1.032-6.571-3.04
					c-3.076-3.625-2.628-9.06,0.997-12.134c7.365-6.248,15.273-11.962,23.507-16.986c4.061-2.475,9.359-1.194,11.833,2.862
					c2.477,4.059,1.195,9.359-2.864,11.834c-7.472,4.56-14.653,9.749-21.338,15.419
					C2946.632,991.813,2944.655,992.486,2942.688,992.486z M3006.064,957.958c-3.698,0-7.116-2.401-8.24-6.127
					c-1.374-4.55,1.204-9.352,5.756-10.728c9.248-2.791,18.787-4.866,28.351-6.171c4.72-0.663,9.053,2.65,9.696,7.365
					c0.642,4.711-2.655,9.05-7.365,9.692c-8.673,1.187-17.323,3.07-25.708,5.599
					C3007.725,957.838,3006.888,957.958,3006.064,957.958z M3105.147,957.027c-0.769,0-1.551-0.104-2.327-0.323
					c-8.409-2.354-17.101-4.066-25.833-5.088c-4.723-0.555-8.103-4.829-7.55-9.554c0.552-4.718,4.813-8.081,9.551-7.55
					c9.623,1.127,19.204,3.017,28.476,5.613c4.579,1.281,7.25,6.033,5.967,10.61C3112.367,954.539,3108.91,957.027,3105.147,957.027
					z"/>
				<path style="fill:#91B3FA;" d="M3158.241,982.047c-1.696,0-3.41-0.501-4.91-1.543c-3.544-2.465-7.258-4.839-11.034-7.052
					c-4.103-2.405-5.479-7.681-3.074-11.784c2.403-4.099,7.679-5.478,11.781-3.074c4.162,2.442,8.253,5.058,12.164,7.779
					c3.903,2.714,4.865,8.081,2.149,11.982C3163.644,980.759,3160.966,982.047,3158.241,982.047z"/>
			</g>
			<g style="opacity:0.64;">
				<path style="fill:#91B3FA;" d="M3233.042,1105.824c-4.288,0-7.999-3.195-8.535-7.56c-0.531-4.328-1.239-8.676-2.102-12.927
					c-0.945-4.658,2.065-9.205,6.724-10.15c4.666-0.958,9.205,2.065,10.151,6.726c0.95,4.685,1.73,9.48,2.317,14.252
					c0.58,4.718-2.776,9.013-7.496,9.595C3233.746,1105.804,3233.392,1105.824,3233.042,1105.824z"/>
				<path style="fill:#91B3FA;" d="M3071.255,1304.158c-4.448,0-8.218-3.424-8.572-7.934c-0.373-4.742,3.168-8.885,7.908-9.258
					c8.604-0.676,17.207-2.025,25.57-4.005c4.634-1.09,9.267,1.766,10.361,6.393c1.096,4.628-1.766,9.265-6.393,10.361
					c-9.221,2.186-18.705,3.669-28.19,4.415C3071.711,1304.148,3071.482,1304.158,3071.255,1304.158z M3027.167,1302.134
					c-0.482,0-0.97-0.041-1.461-0.125c-9.379-1.601-18.695-3.945-27.684-6.964c-4.508-1.514-6.935-6.396-5.421-10.903
					c1.514-4.51,6.391-6.938,10.903-5.421c8.15,2.738,16.596,4.863,25.104,6.319c4.686,0.8,7.836,5.25,7.035,9.934
					C3034.925,1299.171,3031.284,1302.134,3027.167,1302.134z M3139.481,1284.474c-3.096,0-6.089-1.678-7.629-4.607
					c-2.211-4.21-0.59-9.416,3.618-11.625c7.615-4.002,14.995-8.633,21.93-13.761c3.824-2.828,9.213-2.021,12.041,1.802
					c2.828,3.82,2.021,9.211-1.801,12.039c-7.64,5.653-15.771,10.752-24.163,15.16
					C3142.2,1284.155,3140.831,1284.474,3139.481,1284.474z M3194.479,1239.552c-1.917,0-3.844-0.636-5.443-1.944
					c-3.682-3.01-4.227-8.435-1.217-12.113c5.46-6.679,10.439-13.828,14.799-21.247c2.41-4.103,7.681-5.475,11.784-3.06
					c4.1,2.408,5.47,7.684,3.06,11.784c-4.807,8.179-10.294,16.058-16.312,23.419
					C3199.448,1238.473,3196.972,1239.552,3194.479,1239.552z M3227.463,1176.652c-0.787,0-1.585-0.111-2.381-0.34
					c-4.569-1.312-7.21-6.08-5.897-10.651c2.371-8.256,4.125-16.785,5.213-25.353c0.599-4.715,4.891-8.051,9.623-7.459
					c4.716,0.599,8.056,4.91,7.457,9.625c-1.197,9.44-3.129,18.843-5.744,27.943
					C3234.649,1174.193,3231.206,1176.652,3227.463,1176.652z"/>
				<path style="fill:#91B3FA;" d="M2960.832,1276.202c-1.609,0-3.237-0.451-4.686-1.392c-4.029-2.623-7.994-5.424-11.785-8.33
					c-3.773-2.892-4.488-8.297-1.596-12.07c2.894-3.777,8.296-4.49,12.071-1.598c3.442,2.64,7.042,5.182,10.699,7.563
					c3.987,2.593,5.115,7.926,2.522,11.912C2966.406,1274.823,2963.647,1276.202,2960.832,1276.202z"/>
			</g>
			<g>
				<path style="fill:#91B3FA;" d="M2961.594,1215.742c0.573,0.703,1.53,0.964,2.381,0.651l24.283-8.93
					c9.573,7.373,20.391,13.272,32.15,17.314l5.923,25.169c0.207,0.883,0.952,1.537,1.855,1.628l30.877,3.128
					c0.903,0.091,1.763-0.4,2.144-1.223l10.85-23.47c12.332-1.602,24.112-5.212,34.969-10.515l22,13.618
					c0.771,0.477,1.76,0.413,2.462-0.161l24.045-19.622c0.703-0.574,0.965-1.53,0.651-2.381l-8.93-24.283
					c7.373-9.573,13.272-20.391,17.313-32.15l25.17-5.923c0.883-0.208,1.537-0.952,1.628-1.855l3.128-30.877
					c0.092-0.902-0.399-1.763-1.223-2.144l-23.47-10.85c-1.602-12.331-5.211-24.112-10.515-34.969l13.619-22
					c0.477-0.771,0.413-1.76-0.161-2.462l-19.622-24.045c-0.573-0.703-1.53-0.964-2.381-0.651l-24.284,8.93
					c-9.573-7.373-20.39-13.272-32.15-17.314l-5.923-25.17c-0.208-0.883-0.953-1.536-1.855-1.628l-30.878-3.128
					c-0.902-0.092-1.763,0.4-2.143,1.223l-10.85,23.471c-12.331,1.601-24.112,5.211-34.969,10.515l-21.999-13.618
					c-0.771-0.478-1.761-0.413-2.463,0.16l-24.045,19.622c-0.703,0.573-0.964,1.529-0.651,2.381l8.93,24.283
					c-7.373,9.573-13.272,20.391-17.313,32.15l-25.17,5.923c-0.883,0.207-1.537,0.953-1.628,1.855l-3.127,30.877
					c-0.092,0.902,0.399,1.763,1.222,2.144l23.471,10.85c1.602,12.331,5.211,24.111,10.514,34.969l-13.618,22
					c-0.478,0.771-0.413,1.76,0.16,2.463L2961.594,1215.742z"/>
				<g>
					<path style="fill:#BDD0FB;" d="M3057.275,1155.462c-8.079,0-15.913-2.576-22.517-7.483
						c-8.123-6.036-13.409-14.878-14.884-24.889c-3.047-20.665,11.289-39.959,31.958-43.005c10.017-1.48,20.001,1.036,28.125,7.072
						c8.123,6.036,13.408,14.874,14.883,24.886c1.476,10.011-1.036,20-7.071,28.125c-6.036,8.121-14.874,13.408-24.888,14.881l0,0
						C3061.008,1155.324,3059.135,1155.462,3057.275,1155.462z M3057.393,1100.336c-0.844,0-1.695,0.064-2.548,0.188
						c-9.398,1.386-15.915,10.156-14.531,19.552c0.671,4.553,3.075,8.572,6.768,11.316c3.695,2.744,8.235,3.884,12.786,3.215h0.002
						c4.552-0.669,8.571-3.074,11.315-6.766c2.744-3.693,3.886-8.233,3.215-12.786c-0.671-4.554-3.074-8.572-6.768-11.317
						C3064.63,1101.51,3061.067,1100.336,3057.393,1100.336z"/>
				</g>
				<path style="fill:#BDD0FB;" d="M3057.98,1195.447c-2.668,0-5.35-0.135-8.041-0.407c-5.251-0.531-10.445-1.591-15.453-3.147
					c-0.291-0.091-0.578-0.182-0.867-0.276c-1.456-0.471-2.383-1.819-2.385-3.272c0-0.353,0.055-0.71,0.17-1.066
					c0.583-1.806,2.525-2.798,4.336-2.213c4.811,1.557,9.822,2.61,14.891,3.121c10.925,1.106,21.717-0.269,31.73-3.938
					c7.034-2.576,13.682-6.282,19.72-11.05c0.108-0.084,0.215-0.168,0.321-0.256c0.2-0.158,0.4-0.319,0.598-0.481
					c14.785-12.066,23.987-29.167,25.908-48.151c0.249-2.458,0.373-4.906,0.373-7.345c-0.002-16.391-5.594-32.154-16.098-45.027
					c-12.065-14.784-29.166-23.988-48.151-25.908c-18.974-1.913-37.586,3.662-52.371,15.725
					c-14.783,12.066-23.986,29.167-25.908,48.151c-0.246,2.418-0.367,4.836-0.367,7.25c0.002,10.456,2.292,20.793,6.741,30.267
					c0.222,0.474,0.328,0.972,0.326,1.463c0,1.291-0.731,2.532-1.979,3.118c-1.723,0.81-3.771,0.071-4.582-1.655
					c-4.88-10.385-7.392-21.725-7.394-33.189c0-2.647,0.133-5.3,0.4-7.947c2.11-20.817,12.197-39.565,28.409-52.792
					c16.209-13.233,36.614-19.354,57.417-17.245c20.817,2.109,39.565,12.198,52.794,28.407
					c11.518,14.114,17.649,31.397,17.65,49.368c0,2.67-0.135,5.357-0.407,8.051c-2.108,20.817-12.197,39.565-28.407,52.792
					C3093.24,1189.316,3075.955,1195.447,3057.98,1195.447z"/>
			</g>
		</g>
		<g>
			
				<linearGradient id="SVGID_00000056424797383398805430000012511585320697136308_" gradientUnits="userSpaceOnUse" x1="2763.5015" y1="285.2354" x2="2667.231" y2="518.3109">
				<stop  offset="0" style="stop-color:#FF928E"/>
				<stop  offset="1" style="stop-color:#FE7062"/>
			</linearGradient>
			<path style="fill:url(#SVGID_00000056424797383398805430000012511585320697136308_);" d="M2272.93,732.745
				c0,0,528.25-14.277,563.943,10.708c35.693,24.985,14.277,82.093,0,92.801c-14.277,10.708-396.188,67.816-396.188,67.816
				L2272.93,732.745z"/>
			<path style="fill:#BDD0FB;" d="M2770.841,609.606c0,0-39.262-42.831-71.385-53.539c-32.123-10.708-289.11-24.985-299.818-7.138
				C2388.93,566.775,2767.272,652.437,2770.841,609.606z"/>
			
				<linearGradient id="SVGID_00000040557070838935947540000017862161124063335564_" gradientUnits="userSpaceOnUse" x1="2717.302" y1="707.4186" x2="2844.4958" y2="707.4186">
				<stop  offset="0" style="stop-color:#09005D"/>
				<stop  offset="1" style="stop-color:#1A0F91"/>
			</linearGradient>
			<path style="fill:url(#SVGID_00000040557070838935947540000017862161124063335564_);" d="M2717.302,735.16v-59.661
				c0-16.117,12.135-29.576,28.15-31.39c22.272-2.523,53.792-3.288,79.497,6.91c12.659,5.022,20.436,17.875,19.466,31.46
				l-4.167,58.344c-1.026,14.363-11.613,26.217-25.776,28.811c-18.624,3.411-46.049,5.131-75.225-4.382
				C2726.196,760.997,2717.302,748.885,2717.302,735.16z"/>
			<path style="fill:#91B3FA;" d="M2745.856,659.576l-5.163-41.301c-1.478-11.825,5.044-23.289,16.075-27.799
				c11.622-4.752,28.28-6.841,48.264,3.99c7.547,4.09,12.208,12.061,12.208,20.645v44.466
				C2794.894,675.819,2771.252,677.537,2745.856,659.576z"/>
			<path style="fill:#BDD0FB;" d="M2795.826,631.021c0,0,28.554,53.539,57.108,64.247c28.554,10.708,343.206,45.286,349.787,32.123
				c14.277-28.554-267.694-103.509-303.387-107.078C2899.334,620.314,2792.257,606.037,2795.826,631.021z"/>
			
				<linearGradient id="SVGID_00000037692906947772740580000012304023432834727608_" gradientUnits="userSpaceOnUse" x1="2147.188" y1="331.357" x2="1949.5804" y2="686.0365">
				<stop  offset="0" style="stop-color:#FF928E"/>
				<stop  offset="1" style="stop-color:#FE7062"/>
			</linearGradient>
			<path style="fill:url(#SVGID_00000037692906947772740580000012304023432834727608_);" d="M2205.114,732.745
				c0,0-528.25-14.277-563.943,10.708c-35.693,24.985-14.277,82.093,0,92.801c14.277,10.708,396.188,67.816,396.188,67.816
				L2205.114,732.745z"/>
			<path style="fill:#BDD0FB;" d="M1710.546,614.18c0,0,44.928-36.843,78.244-42.897c33.315-6.053,289.736,16.184,297.81,35.366
				C2094.674,625.832,1708.017,657.086,1710.546,614.18z"/>
			
				<linearGradient id="SVGID_00000054245540610098710510000011856866245955918728_" gradientUnits="userSpaceOnUse" x1="1633.5472" y1="707.4186" x2="1760.741" y2="707.4186">
				<stop  offset="0" style="stop-color:#09005D"/>
				<stop  offset="1" style="stop-color:#1A0F91"/>
			</linearGradient>
			<path style="fill:url(#SVGID_00000054245540610098710510000011856866245955918728_);" d="M1760.741,735.16v-59.661
				c0-16.117-12.135-29.576-28.15-31.39c-22.271-2.523-53.792-3.288-79.496,6.91c-12.659,5.022-20.436,17.875-19.466,31.46
				l4.168,58.344c1.026,14.363,11.612,26.217,25.776,28.811c18.624,3.411,46.049,5.131,75.225-4.382
				C1751.847,760.997,1760.741,748.885,1760.741,735.16z"/>
			<path style="fill:#91B3FA;" d="M1733.05,652.672l4.3-34.398c1.478-11.825-5.044-23.289-16.075-27.799
				c-11.622-4.752-28.28-6.841-48.264,3.99c-7.547,4.09-12.208,12.061-12.208,20.645v44.466c20.54,14.93,42.174,17.589,65.258,3.974
				C1729.963,661.248,1732.488,657.168,1733.05,652.672z"/>
			<path style="fill:#BDD0FB;" d="M1682.782,631.845c0,0-35.844,48.959-65.626,55.517c-29.782,6.559-346.161-3.743-350.813-17.705
				c-10.092-30.287,279.649-64.58,315.488-63.062C1581.83,606.595,1689.851,607.616,1682.782,631.845z"/>
			<path style="fill:#FFFFFF;" d="M3179.524,723.665c-0.069,0-0.138-0.005-0.208-0.013c-2.25-0.285-225.665-28.681-292.728-39.27
				c-68.073-10.746-79.391-49.502-79.84-51.146c-0.234-0.866,0.274-1.758,1.138-1.996c0.868-0.241,1.762,0.271,2.002,1.137
				c0.106,0.383,11.365,38.396,77.208,48.792c67.017,10.581,290.382,38.968,292.629,39.254c0.891,0.114,1.524,0.929,1.409,1.819
				C3181.032,723.064,3180.33,723.665,3179.524,723.665z"/>
			<path style="opacity:0.65;fill:#FFFFFF;" d="M2783.241,618.136c-2.718,0-5.691-0.18-8.933-0.586
				c-16.445-2.055-22.459-6.55-24.607-9.958c-1.837-2.915-1.079-5.283-1.046-5.382c0.138-0.427,0.597-0.655,1.029-0.515
				c0.422,0.142,0.653,0.597,0.518,1.023c-0.026,0.078-0.538,1.814,0.917,4.074c1.989,3.086,7.663,7.177,23.393,9.145
				c27.655,3.452,34.797-10.129,34.863-10.266c0.205-0.401,0.696-0.567,1.092-0.363c0.402,0.201,0.564,0.69,0.366,1.092
				C2810.563,606.936,2804.684,618.136,2783.241,618.136z"/>
			<path style="opacity:0.6;fill:#FFFFFF;" d="M1698.131,619.586c-2.184,0-4.529-0.078-7.043-0.246
				c-10.811-0.721-17.329-3.276-19.371-7.592c-1.884-3.977,0.798-7.807,0.914-7.969c0.257-0.361,0.759-0.449,1.135-0.19
				c0.363,0.261,0.452,0.769,0.191,1.135c-0.023,0.031-2.243,3.235-0.765,6.339c1.224,2.57,5.341,5.809,18.002,6.654
				c31.211,2.073,34.823-9.984,34.856-10.108c0.112-0.434,0.538-0.699,0.996-0.574c0.432,0.115,0.689,0.561,0.574,0.996
				C1727.484,608.54,1724.199,619.586,1698.131,619.586z"/>
			<path style="fill:#FFFFFF;" d="M1564.502,675.944c-72.926,0-269.279-14.584-271.457-14.746c-0.894-0.068-1.567-0.848-1.501-1.744
				c0.066-0.899,0.835-1.569,1.745-1.503c2.388,0.18,239.566,17.806,288.871,14.278c48.758-3.482,84.221-41.914,84.574-42.304
				c0.604-0.665,1.636-0.711,2.299-0.109c0.663,0.605,0.713,1.633,0.109,2.299c-0.363,0.398-36.707,39.785-86.751,43.359
				C1577.882,675.798,1571.809,675.944,1564.502,675.944z"/>
			
				<linearGradient id="SVGID_00000177455208263434555980000003693813690323562661_" gradientUnits="userSpaceOnUse" x1="2240.6509" y1="714.6858" x2="2235.5837" y2="1185.9015">
				<stop  offset="0" style="stop-color:#FF928E"/>
				<stop  offset="1" style="stop-color:#FE7062"/>
			</linearGradient>
			<path style="fill:url(#SVGID_00000177455208263434555980000003693813690323562661_);" d="M2286.347,714.039
				c35.503,0,70.235,10.193,100.1,29.391c92.868,59.698,302.629,191.365,379.467,213.319
				c99.939,28.554,164.186,39.262,167.755,82.093c3.569,42.831-67.816,82.093-167.755,53.539
				c-103.117-29.462-308.84,17.846-375.268,36.684c-14.447,4.097-29.398,6.147-44.415,6.147h-218.201
				c-15.017,0-29.967-2.05-44.415-6.147c-66.428-18.838-272.151-66.146-375.268-36.684
				c-99.939,28.554-171.324-10.708-167.755-53.539c3.569-42.831,67.816-53.539,167.755-82.093
				c76.838-21.954,286.599-153.622,379.467-213.319c29.865-19.198,64.597-29.391,100.101-29.391H2286.347z"/>
			<path style="opacity:0.33;fill:#FFFFFF;" d="M1576.268,1063.085c13.938,4.64,28.186,8.213,42.621,10.624
				c14.422,2.322,29.048,3.558,43.47,2.615c7.2-0.486,14.334-1.491,21.265-3.178c6.902-1.772,13.558-4.287,19.706-7.646
				c3.12-1.619,5.946-3.665,8.795-5.672c2.649-2.256,5.339-4.462,7.63-7.085c4.646-5.135,8.709-10.885,11.511-17.334l1.137-2.367
				l0.914-2.48l1.86-4.969l4.087-10.806c1.687-3.457,3.327-6.943,5.071-10.369l5.966-9.86c8.498-12.811,19.134-24.011,30.805-33.727
				c23.471-19.387,50.571-33.486,78.514-44.342c56.11-21.708,115.491-32.19,174.751-38.367
				c59.393-5.857,119.146-6.788,178.677-4.138c59.528,2.905,118.862,9.48,177.569,19.776
				c58.642,10.521,116.825,24.524,173.027,44.905c14.018,5.163,27.954,10.595,41.602,16.751
				c13.678,6.069,27.161,12.649,40.216,20.079c13.065,7.392,25.819,15.44,37.826,24.625l8.827,7.132
				c2.899,2.434,5.65,5.062,8.48,7.586c2.801,2.56,5.362,5.401,8.051,8.09c2.659,2.702,5.015,5.307,7.6,7.881
				c10.256,10.117,21.838,18.764,35.06,24.313c13.125,5.711,27.369,8.895,41.818,10.519c14.466,1.627,29.172,1.882,43.858,1.147
				c14.695-0.523,29.376-2.137,44.034-3.856l0.077-0.009c1.958-0.23,3.731,1.171,3.96,3.129c0.228,1.945-1.156,3.709-3.094,3.956
				c-14.804,1.884-29.645,3.662-44.623,4.344c-14.947,0.891-30.032,0.79-45.081-0.752c-15.021-1.544-30.109-4.721-44.297-10.73
				c-14.282-5.829-27.014-15.14-37.938-25.738c-2.705-2.629-5.33-5.536-7.893-8.108c-2.571-2.544-4.99-5.227-7.677-7.663
				c-2.72-2.403-5.345-4.903-8.137-7.23l-8.514-6.833c-11.613-8.823-24.049-16.618-36.836-23.795
				c-12.774-7.214-26.028-13.63-39.5-19.553c-13.437-6.009-27.2-11.319-41.052-16.369c-55.556-19.94-113.313-33.649-171.534-43.89
				c-58.293-10.046-117.245-16.3-176.328-19.093c-59.073-2.825-118.369-2.089-177.191,3.517
				c-58.67,5.908-117.403,16.137-172.306,37.187c-27.344,10.507-53.642,24.156-76.072,42.564
				c-11.156,9.222-21.209,19.767-29.179,31.701l-5.59,9.17l-4.741,9.615l-3.822,10.005l-2.06,5.452l-1.046,2.73l-1.29,2.641
				c-6.614,14.157-17.94,26.518-31.906,33.706c-6.909,3.692-14.27,6.373-21.765,8.218c-7.516,1.757-15.136,2.749-22.747,3.189
				c-15.239,0.846-30.378-0.6-45.216-3.132c-14.826-2.62-29.424-6.436-43.608-11.307l-0.029-0.01
				c-1.864-0.64-2.857-2.671-2.216-4.535C1572.402,1063.459,1574.413,1062.468,1576.268,1063.085z"/>
			<path style="fill:#BDD0FB;" d="M1605.778,866.817c0,0-45.383-34.409-82.514-43.011c-37.131-8.602-334.182-20.072-346.559-5.735
				C1164.328,832.408,1601.652,901.226,1605.778,866.817z"/>
			
				<linearGradient id="SVGID_00000128487430408867686440000010734804479033324431_" gradientUnits="userSpaceOnUse" x1="1544.7249" y1="964.9917" x2="1691.7478" y2="964.9917">
				<stop  offset="0" style="stop-color:#09005D"/>
				<stop  offset="1" style="stop-color:#1A0F91"/>
			</linearGradient>
			<path style="fill:url(#SVGID_00000128487430408867686440000010734804479033324431_);" d="M1691.748,997.058v-68.962
				c0-18.63-14.027-34.187-32.538-36.284c-25.744-2.916-62.178-3.8-91.89,7.987c-14.633,5.805-23.622,20.661-22.5,36.364
				l4.817,67.439c1.186,16.602,13.423,30.304,29.795,33.303c21.527,3.943,53.228,5.931,86.953-5.065
				C1681.468,1026.923,1691.748,1012.923,1691.748,997.058z"/>
			<path style="fill:#91B3FA;" d="M1658.742,909.69l5.967-47.74c1.693-13.544-5.664-26.771-18.27-32.005
				c-13.447-5.583-32.821-8.133-56.1,4.484c-8.723,4.728-14.111,13.941-14.111,23.863l0.547,41.633
				c0.101,7.681,4.452,14.676,11.276,18.202C1610.422,929.684,1633.582,927.485,1658.742,909.69z"/>
			<path style="fill:#BDD0FB;" d="M1630.713,877.879c0,0,39.609,57.882,73.776,66.555c34.166,8.673,400.061,8.412,405.95-7.547
				c12.774-34.62-320.706-84.899-362.167-84.464C1748.272,852.422,1623.437,849.628,1630.713,877.879z"/>
			<path style="fill:#BDD0FB;" d="M2852.688,873.696c0,0,38.635-41.844,73.678-56.834c35.043-14.989,325.463-78.447,340.166-66.507
				C3281.234,762.296,2862.792,906.846,2852.688,873.696z"/>
			
				<linearGradient id="SVGID_00000045580885795070584830000014590246646218824866_" gradientUnits="userSpaceOnUse" x1="2765.9446" y1="964.9917" x2="2912.9678" y2="964.9917">
				<stop  offset="0" style="stop-color:#09005D"/>
				<stop  offset="1" style="stop-color:#1A0F91"/>
			</linearGradient>
			<path style="fill:url(#SVGID_00000045580885795070584830000014590246646218824866_);" d="M2765.945,997.058v-68.962
				c0-18.63,14.027-34.187,32.539-36.284c25.744-2.916,62.177-3.8,91.89,7.987c14.633,5.805,23.622,20.661,22.5,36.364
				l-4.817,67.439c-1.186,16.602-13.423,30.304-29.794,33.303c-21.527,3.943-53.228,5.931-86.953-5.065
				C2776.225,1026.923,2765.945,1012.923,2765.945,997.058z"/>
			<path style="fill:#91B3FA;" d="M2798.95,909.69l-5.968-47.74c-1.708-13.669,5.831-26.919,18.581-32.133
				c13.434-5.493,32.689-7.908,55.789,4.612c8.723,4.728,14.111,13.941,14.111,23.863v51.398
				C2855.633,928.466,2828.305,930.452,2798.95,909.69z"/>
			<path style="fill:#BDD0FB;" d="M2818.915,887.331c0,0-28.829,63.938-60.941,78.477c-32.112,14.539-392.367,78.538-400.966,63.861
				c-18.655-31.838,300.813-139.901,341.705-146.753C2698.712,882.916,2821.116,858.242,2818.915,887.331z"/>
			<path style="opacity:0.54;fill:#FFFFFF;" d="M2838.893,860.844c-3.338,0-7-0.178-11.028-0.581
				c-13.855-1.385-21.789-4.735-23.581-9.954c-1.798-5.225,3.256-10.126,3.474-10.332c0.327-0.31,0.841-0.297,1.148,0.026
				c0.31,0.325,0.3,0.84-0.027,1.151c-0.043,0.043-4.516,4.394-3.055,8.631c1.082,3.136,5.813,7.218,22.205,8.858
				c34.566,3.462,41.952-10.129,42.025-10.266c0.208-0.398,0.706-0.558,1.092-0.356c0.399,0.203,0.561,0.688,0.363,1.089
				C2871.239,849.645,2865.294,860.843,2838.893,860.844z"/>
			<path style="fill:#FFFFFF;" d="M2392.496,1021.699c-0.778,0-1.468-0.563-1.6-1.357c-0.152-0.886,0.445-1.725,1.333-1.875
				c2.534-0.427,254.154-42.953,317.667-53.539c61.91-10.317,85.854-70.041,86.959-73.143c0.01-0.714,0.495-1.362,1.224-1.549
				c0.587-0.148,1.208,0.038,1.613,0.477c0.719,0.78,0.399,1.716,0.115,2.544c-0.218,0.635-24.686,64.101-89.377,74.882
				c-63.51,10.586-315.127,53.111-317.661,53.539C2392.678,1021.69,2392.589,1021.699,2392.496,1021.699z"/>
			<path style="fill:#FFFFFF;" d="M2895.766,868.221c-0.729,0-1.392-0.493-1.58-1.234c-0.218-0.871,0.313-1.755,1.184-1.973
				c2.428-0.607,243.68-61.206,342.313-110.523c0.802-0.399,1.785-0.079,2.184,0.727c0.403,0.803,0.076,1.781-0.726,2.182
				c-98.957,49.477-340.552,110.163-342.98,110.77C2896.027,868.204,2895.895,868.221,2895.766,868.221z"/>
			<path style="fill:#FFFFFF;" d="M2078.405,936.036c-0.007,0-0.017-0.002-0.023-0.002c-2.392-0.035-240.176-3.652-324.915-10.713
				c-85.745-7.144-100.748-49.286-101.346-51.075c-0.284-0.851,0.175-1.77,1.026-2.055c0.848-0.289,1.772,0.173,2.062,1.023
				c0.142,0.419,15.122,41.916,98.528,48.865c84.627,7.053,322.302,10.667,324.691,10.703c0.901,0.013,1.616,0.752,1.603,1.651
				C2080.018,935.322,2079.292,936.036,2078.405,936.036z"/>
			<path style="opacity:0.33;fill:#FFFFFF;" d="M2226.529,1113.446c0,4.928-3.995,8.923-8.923,8.923
				c-4.928,0-8.923-3.995-8.923-8.923c0-4.928,3.995-8.923,8.923-8.923C2222.534,1104.523,2226.529,1108.518,2226.529,1113.446z"/>
			<path style="opacity:0.33;fill:#FFFFFF;" d="M2231.883,1136.646c-2.957,0-5.354-2.397-5.354-5.354s2.397-5.354,5.354-5.354
				s5.354,2.397,5.354,5.354S2234.84,1136.646,2231.883,1136.646z"/>
			
				<linearGradient id="SVGID_00000166667547830830006120000006980862550843639210_" gradientUnits="userSpaceOnUse" x1="2361.1155" y1="805.3224" x2="2148.3071" y2="1367.7432">
				<stop  offset="0" style="stop-color:#FEBBBA"/>
				<stop  offset="1" style="stop-color:#FF928E"/>
			</linearGradient>
			<path style="fill:url(#SVGID_00000166667547830830006120000006980862550843639210_);" d="M2089.401,1074.679
				c2.997,37.026,9.036,103.404,16.751,145.465c1.398,7.622,7.785,13.292,15.515,13.839c44.242,3.127,189.893,11.869,244.228-4.11
				c6.399-1.882,11.021-7.431,11.905-14.042c3.718-27.829,13.908-106.901,16.076-153.142c0.41-8.754-5.855-16.374-14.523-17.672
				c-36.172-5.418-199.343-0.707-264.766,1.453C2099.67,1046.962,2088.197,1059.803,2089.401,1074.679z"/>
			
				<ellipse transform="matrix(0.2298 -0.9732 0.9732 0.2298 613.5118 3055.6365)" style="opacity:0.7;fill:#FFFFFF;" cx="2237.237" cy="1140.216" rx="74.954" ry="74.954"/>
			
				<linearGradient id="SVGID_00000131329802685571389160000008739553764046367921_" gradientUnits="userSpaceOnUse" x1="2176.5596" y1="1142.0001" x2="2301.4836" y2="1142.0001">
				<stop  offset="0" style="stop-color:#4F52FF"/>
				<stop  offset="1" style="stop-color:#4042E2"/>
			</linearGradient>
			<circle style="fill:url(#SVGID_00000131329802685571389160000008739553764046367921_);" cx="2239.021" cy="1142" r="62.462"/>
			
				<linearGradient id="SVGID_00000018217729668152735730000016583175338415869353_" gradientUnits="userSpaceOnUse" x1="2340.3511" y1="919.0758" x2="2272.7893" y2="1067.7112">
				<stop  offset="0" style="stop-color:#09005D"/>
				<stop  offset="1" style="stop-color:#1A0F91"/>
			</linearGradient>
			<circle style="fill:url(#SVGID_00000018217729668152735730000016583175338415869353_);" cx="2239.021" cy="1142" r="55.324"/>
		</g>
		<g>
			
				<linearGradient id="SVGID_00000128451363667746619200000001458337323768865190_" gradientUnits="userSpaceOnUse" x1="-4324.2407" y1="597.1041" x2="-4608.793" y2="946.9211" gradientTransform="matrix(-0.9922 -0.1247 -0.1247 0.9922 -1984.8905 715.4178)">
				<stop  offset="0" style="stop-color:#FEBBBA"/>
				<stop  offset="1" style="stop-color:#FF928E"/>
			</linearGradient>
			<path style="fill:url(#SVGID_00000128451363667746619200000001458337323768865190_);" d="M2258.277,1946.149
				c1.852-3.541,7.093-2.983,8.163,0.868c3.961,14.255,13.545,39.129,33.658,47.962c1.013,0.445,1.973,0.895,2.901,1.348
				c0.913-2.735,0.925-5.91-1.26-9.25c-6.253-9.557,5.035-22.608,5.035-22.608s0.747,11.495,9.485,18.733
				c7.526,6.235,11.139,20.107,5.996,31.488c-10.886,42.282-27.186,98.204,36.309,139.059
				c63.495,40.855,152.913-77.103,152.913-77.103l-44.381,140.694c0,0-68.502,50.551-148.181-20.531
				c-79.68-71.082-26.866-174.516-26.866-174.516S2231.275,1997.775,2258.277,1946.149z"/>
			
				<linearGradient id="SVGID_00000103961699886799021280000015223828611965737651_" gradientUnits="userSpaceOnUse" x1="4354.71" y1="-210.888" x2="4168.1152" y2="10.8303" gradientTransform="matrix(0.9602 0.2794 -0.2794 0.9602 -1346.4862 797.6744)">
				<stop  offset="0" style="stop-color:#09005D"/>
				<stop  offset="1" style="stop-color:#1A0F91"/>
			</linearGradient>
			<path style="fill:url(#SVGID_00000103961699886799021280000015223828611965737651_);" d="M2522.597,1869.926
				c0,0-18.396-82.516,76.124-60.672c0,0,45.881-7.497,48.214,35.807c0,0,29.574,19.488,7.921,56.965
				c0,0,87.893-33.949,126.189,43.09c38.295,77.04,3.094,119.43-33.808,130.471c0,0,29.897,15.012,15.746,48.907
				c-14.152,33.896-85.82,57.789-128.155,16.569c0,0-120.464,15.919-118.053-69.17c0,0-56.029-36.181,2.82-106.502
				C2578.442,1895.072,2522.597,1869.926,2522.597,1869.926z"/>
			
				<linearGradient id="SVGID_00000038394172696909163870000004156709218362556093_" gradientUnits="userSpaceOnUse" x1="3254.1543" y1="1297.8016" x2="2943.3718" y2="1723.4382">
				<stop  offset="0" style="stop-color:#FF928E"/>
				<stop  offset="1" style="stop-color:#FE7062"/>
			</linearGradient>
			<path style="fill:url(#SVGID_00000038394172696909163870000004156709218362556093_);" d="M2517.406,2061.19
				c18.994-5.694,74.296-16.207,126.898,32.336c8.921,8.233,12.567,20.743,9.385,32.458
				c-14.129,52.015-51.406,205.691-18.72,272.184c0,0-57.6,63.496-120.439,12.319c0,0-28.194-122.88-65.123-176.824
				c-25.496-37.243,40.654-139.853,57.391-164.643C2509.333,2065.268,2513.068,2062.491,2517.406,2061.19z"/>
			
				<linearGradient id="SVGID_00000094578671207137366650000003166136994565491352_" gradientUnits="userSpaceOnUse" x1="4084.51" y1="180.0182" x2="4099.7124" y2="72.0821" gradientTransform="matrix(0.9602 0.2794 -0.2794 0.9602 -1346.4862 797.6744)">
				<stop  offset="0" style="stop-color:#FEBBBA"/>
				<stop  offset="1" style="stop-color:#FF928E"/>
			</linearGradient>
			<path style="fill:url(#SVGID_00000094578671207137366650000003166136994565491352_);" d="M2569.848,1957.85
				c0,0,28.09,79.455,30.203,114.507c0,0-31.046,14.117-60.299-9.71c0,0-3.069-79.362-7.505-93.573L2569.848,1957.85z"/>
			
				<linearGradient id="SVGID_00000016035679000231168310000007528641316694499752_" gradientUnits="userSpaceOnUse" x1="4014.8142" y1="-51.2581" x2="4156.959" y2="112.1701" gradientTransform="matrix(0.9602 0.2794 -0.2794 0.9602 -1346.4862 797.6744)">
				<stop  offset="0" style="stop-color:#FEBBBA"/>
				<stop  offset="1" style="stop-color:#FF928E"/>
			</linearGradient>
			<path style="fill:url(#SVGID_00000016035679000231168310000007528641316694499752_);" d="M2530.831,1849.516
				c0,0-73.471,102.819-29.552,132.683c43.918,29.865,96.22-43.203,96.22-43.203s17.048-56.277-0.778-75.367
				C2578.895,1844.537,2530.831,1849.516,2530.831,1849.516z"/>
			
				<linearGradient id="SVGID_00000004533273522068514980000006009395659447884693_" gradientUnits="userSpaceOnUse" x1="4265.3408" y1="-286.0972" x2="4078.7422" y2="-64.3741" gradientTransform="matrix(0.9602 0.2794 -0.2794 0.9602 -1346.4862 797.6744)">
				<stop  offset="0" style="stop-color:#09005D"/>
				<stop  offset="1" style="stop-color:#1A0F91"/>
			</linearGradient>
			<path style="fill:url(#SVGID_00000004533273522068514980000006009395659447884693_);" d="M2564.838,1824.945
				c0,0-33.752,7.998-38.482,23.269c-4.73,15.272,47.864,29.433,62.6,30.126l11.874,61.625c0,0,35.102-57.972,21.197-91.453
				C2608.123,1815.031,2564.838,1824.945,2564.838,1824.945z"/>
			
				<linearGradient id="SVGID_00000140701567238134129080000008493790677459058336_" gradientUnits="userSpaceOnUse" x1="4050.3274" y1="-82.1501" x2="4192.4712" y2="81.2771" gradientTransform="matrix(0.9602 0.2794 -0.2794 0.9602 -1346.4862 797.6744)">
				<stop  offset="0" style="stop-color:#FEBBBA"/>
				<stop  offset="1" style="stop-color:#FF928E"/>
			</linearGradient>
			<path style="fill:url(#SVGID_00000140701567238134129080000008493790677459058336_);" d="M2583.256,1931.43
				c0,0,28.597-33.119,39.972-11.528c11.375,21.591-25.74,37.801-38.588,27.201L2583.256,1931.43z"/>
			
				<linearGradient id="SVGID_00000025406259028795639120000014557676282417223051_" gradientUnits="userSpaceOnUse" x1="-5048.1211" y1="3244.595" x2="-4708.9961" y2="2645.9661" gradientTransform="matrix(-1 -0.0095 -0.0095 1 -2240.9963 56.9446)">
				<stop  offset="0" style="stop-color:#FEBBBA"/>
				<stop  offset="1" style="stop-color:#FF928E"/>
			</linearGradient>
			<path style="fill:url(#SVGID_00000025406259028795639120000014557676282417223051_);" d="M2441.173,2668.488
				c0.216,5.578-9.578,49.826-14.909,73.428c-2.145,9.496-0.651,19.435,4.184,27.885l184.602,310.693
				c2.233,3.758,3.859,7.829,4.847,12.087c3.383,14.581,10.4,50.313,6.737,82.82l-9.55,19.834l41.301-9.378l8.986-110.914
				l-11.692-7.129c-10.101-6.159-17.967-15.366-22.47-26.306c-16.692-40.547-58.144-143.759-68.829-194.059
				c-12.143-57.166-75.624-103.598-75.624-103.598l11.153-26.367L2441.173,2668.488z"/>
			
				<linearGradient id="SVGID_00000165223678918737637900000015901881593013647757_" gradientUnits="userSpaceOnUse" x1="-4974.1943" y1="3032.9456" x2="-4875.0674" y2="3032.9456" gradientTransform="matrix(-1 -0.0095 -0.0095 1 -2240.9963 56.9446)">
				<stop  offset="0" style="stop-color:#09005D"/>
				<stop  offset="1" style="stop-color:#1A0F91"/>
			</linearGradient>
			<path style="fill:url(#SVGID_00000165223678918737637900000015901881593013647757_);" d="M2704.285,3147.692
				c0,0-22.303-35.36-24.927-49.124c-2.624-13.764-9.929-38.07-23.679-30.753c0,0-6.48,66.863-4.246,92.989
				s-29.534,25.286-29.534,25.286s-8.756,1.231-15.167,7.641c-4.428,4.427-1.261,12.106,4.986,12.509
				c10.395,0.67,26.909,0.845,44.247-2.505c6.06-1.171,10.552-6.327,10.919-12.488l4.577-76.954l28.134,35.524L2704.285,3147.692z"
				/>
			
				<linearGradient id="SVGID_00000049222750706014826180000012621940895497387448_" gradientUnits="userSpaceOnUse" x1="-4663.8091" y1="2801.7446" x2="-5170.9834" y2="2963.9226" gradientTransform="matrix(-1 -0.0095 -0.0095 1 -2240.9963 56.9446)">
				<stop  offset="0" style="stop-color:#FEBBBA"/>
				<stop  offset="1" style="stop-color:#FF928E"/>
			</linearGradient>
			<path style="fill:url(#SVGID_00000049222750706014826180000012621940895497387448_);" d="M2551.452,2717.978
				c0,0,6.51,277.913,7.393,317.384c0.881,39.47-6.233,126.942-45.801,153.087l17.218,12.747c0,0,21.517-18.289,42.539-53.485
				c23.615-39.539,30.756-46.763,30.756-46.763l-7.836-16.048c-3.431-7.026-4.439-14.973-2.859-22.631
				c8.538-41.385,37.064-179.036,44.845-208.679c9.185-34.992,9.838-81.722-22.117-120.837
				C2583.633,2693.638,2551.452,2717.978,2551.452,2717.978z"/>
			
				<linearGradient id="SVGID_00000087410962448129338090000015575499215402174631_" gradientUnits="userSpaceOnUse" x1="-4882.2905" y1="3050.8489" x2="-4764.1211" y2="3050.8489" gradientTransform="matrix(-1 -0.0095 -0.0095 1 -2240.9963 56.9446)">
				<stop  offset="0" style="stop-color:#09005D"/>
				<stop  offset="1" style="stop-color:#1A0F91"/>
			</linearGradient>
			<path style="fill:url(#SVGID_00000087410962448129338090000015575499215402174631_);" d="M2587.99,3213.722
				c1.228,0.012,2.271-0.867,2.444-2.083c1.318-9.265,6.798-46.41,11.285-56.028c5.138-11.015,21.922-57.378-0.01-61.313
				c0,0-54.524,79.66-64.99,90.4c-10.467,10.74-23.676,3.752-23.676,3.752s-10.198,3.013-17.888,12.841
				c-3.66,4.677-0.25,11.544,5.689,11.601l36.726,0.35c10.666,0.102,20.259-6.378,24.223-16.28
				c6.464-16.146,17.57-39.83,30.512-50.337l-6.725,64.396C2585.429,3212.455,2586.547,3213.708,2587.99,3213.722z"/>
			
				<linearGradient id="SVGID_00000010295102531516154590000011546841998124112265_" gradientUnits="userSpaceOnUse" x1="2804.2856" y1="2244.8408" x2="2716.4556" y2="2368.7034">
				<stop  offset="0" style="stop-color:#09005D"/>
				<stop  offset="1" style="stop-color:#1A0F91"/>
			</linearGradient>
			<path style="fill:url(#SVGID_00000010295102531516154590000011546841998124112265_);" d="M2505.838,2380.524
				c0,0,8.276,26.379-4.438,69.826l-78.87,275.419c-1.239,4.328,1.096,8.857,5.333,10.377
				c23.592,8.467,101.145,32.399,207.012,25.101c5.33-0.368,9.8-4.142,10.959-9.358c6.976-31.398,30.776-138.528,35.677-160.54
				c18.672-83.874,39.522-174.325-52.198-229.019C2587.041,2380.436,2547.616,2391.108,2505.838,2380.524z"/>
			
				<linearGradient id="SVGID_00000022556235352084328480000000226796976255360428_" gradientUnits="userSpaceOnUse" x1="-4904.9106" y1="1102.5061" x2="-4342.3418" y2="459.0104" gradientTransform="matrix(-0.9922 -0.1247 -0.1247 0.9922 -1984.8905 715.4178)">
				<stop  offset="0" style="stop-color:#FEBBBA"/>
				<stop  offset="1" style="stop-color:#FF928E"/>
			</linearGradient>
			<path style="fill:url(#SVGID_00000022556235352084328480000000226796976255360428_);" d="M2651.831,2103.906
				c0,0,89.737,74.575,112.006,176.481c22.27,101.905-131.128,112.736-131.128,112.736s-20.824-23.254-45.547-14.961
				c-24.722,8.293-1.914-40.585,27.012-40.457c28.926,0.129,15.526,23.001,56.446,4.466c39.861-18.056,64.5-73.898-37.205-158.547
				c-5.895-4.907-10.6-11.163-13.432-18.291C2600.225,2115.596,2615.896,2082.994,2651.831,2103.906z"/>
		</g>
	</g>
</g>
</svg>
