<?xml version="1.0" encoding="utf-8"?>
<!-- Generator: Adobe Illustrator 27.5.0, SVG Export Plug-In . SVG Version: 6.00 Build 0)  -->
<svg version="1.1" xmlns="http://www.w3.org/2000/svg" xmlns:xlink="http://www.w3.org/1999/xlink" x="0px" y="0px"
	 viewBox="0 0 3710 3710" style="enable-background:new 0 0 3710 3710;" xml:space="preserve">
<g id="Background">
	<g>
		<g>
			<rect style="fill:#FFFFFF;" width="3710" height="3710"/>
		</g>
	</g>
</g>
<g id="Illustration">
	<g>
		<path style="fill:#F4F7FA;" d="M3248.439,1864.256c47.261,241.15,143.048,729.899-86.175,1056.859
			c-416.015,593.401-1830.84,551.585-2428.453-196.57c-51.667-64.682-310.849-402.08-282.57-864.088
			c49.051-801.366,934.436-1511.657,1644.008-1372.151c415.28,81.646,691.291,438.825,804.921,585.872
			C2947.001,1134.781,3161.467,1420.476,3248.439,1864.256z"/>
		<g>
			<g>
				<defs>
					<path id="SVGID_1_" d="M1986.785,2915.744c89.735-46.252,213.911-127.518,299.675-268.028
						c112.478-184.277,60.064-308.546,165.798-644.679c66.854-212.534,115.651-360.183,246.416-409.319
						c102.474-38.505,243.016-11.901,309.607,69.851c55.368,67.976,66.094,182.037,57.406,258.795
						c-7.08,62.558-27.431,103.643-1.973,144.918c26.017,42.182,69.187,34.808,95.295,68
						c52.948,67.313-31.287,216.269-44.902,240.343c-151.441,267.795-471.732,386.212-612.067,436.183
						C2386.009,2853.126,2210.716,2902.291,1986.785,2915.744z"/>
				</defs>
				
					<linearGradient id="SVGID_00000005975638992221119800000000401627960368695721_" gradientUnits="userSpaceOnUse" x1="1986.785" y1="2246.0591" x2="3176.3076" y2="2246.0591">
					<stop  offset="0" style="stop-color:#FF9085"/>
					<stop  offset="1" style="stop-color:#FB6FBB"/>
				</linearGradient>
				
					<use xlink:href="#SVGID_1_"  style="overflow:visible;fill:url(#SVGID_00000005975638992221119800000000401627960368695721_);"/>
				<clipPath id="SVGID_00000160912548642128529470000003351368375446822835_">
					<use xlink:href="#SVGID_1_"  style="overflow:visible;"/>
				</clipPath>
				<g style="opacity:0.5;clip-path:url(#SVGID_00000160912548642128529470000003351368375446822835_);">
					<path style="fill:#FFFFFF;" d="M1890.772,2946.281l-0.603-7.027c136.217-11.665,257.83-37.2,361.46-75.896
						c152.759-57.042,261.764-141.347,323.99-250.572c48.743-85.554,67.932-183.162,94.49-318.257
						c21.207-107.871,26.507-186.23,31.183-255.366c6.113-90.408,10.944-161.817,48.798-256.656
						c38.412-96.237,99.184-185.459,180.629-265.188l4.931,5.04c-80.736,79.037-140.964,167.443-179.011,262.761
						c-37.441,93.809-42.238,164.73-48.313,254.519c-4.69,69.345-10.004,147.941-31.294,256.233
						c-25.687,130.661-45.974,233.851-95.286,320.405c-63.066,110.7-173.304,196.052-327.651,253.688
						C2149.869,2908.885,2027.626,2934.562,1890.772,2946.281z"/>
					<path style="fill:#FFFFFF;" d="M2688.279,2219.909l-3.075-2.533c-0.613-0.506-61.957-51.625-111.516-143.806
						c-45.744-85.076-90.63-223.604-44.714-400.418l6.826,1.772c-45.306,174.47-1.102,311.127,43.96,395.045
						c42.644,79.419,94.07,127.92,106.915,139.346c111.929-174.068,248.282-264.381,343.241-309.547
						c103.675-49.31,181.952-56.981,182.73-57.053l0.647,7.024c-0.768,0.071-78.046,7.684-180.65,56.542
						c-94.662,45.075-230.874,135.493-342.221,310.266L2688.279,2219.909z"/>
					<path style="fill:#FFFFFF;" d="M2622.317,2509.551l-0.813-2.432c-0.399-1.205-40.919-121.919-105.228-234.975
						c-63.91-112.356-263.208-201.914-265.212-202.805l2.865-6.445c2.025,0.901,203.417,91.388,268.477,205.764
						c59.584,104.747,98.84,216.003,104.956,233.785c237.159-4.965,615.371-448.938,619.176-453.438l5.386,4.554
						c-0.961,1.134-97.355,114.694-222.017,227.001c-167.777,151.15-304.047,228.187-405.029,228.971L2622.317,2509.551z"/>
					<path style="fill:#FFFFFF;" d="M2475.219,2865.763c-104.033,0-172.977-10.835-173.834-10.973l-6.943-1.115l5.045-4.896
						c83.319-80.922,104.167-184.909,61.964-309.073c-31.586-92.931-88.563-162.729-89.135-163.423l5.441-4.484
						c0.582,0.703,58.375,71.5,90.372,165.637c41.683,122.633,21.375,230.14-58.675,311.385
						c26.121,3.53,123.446,14.837,251.413,7.419c137.923-7.994,340.668-40,523.295-147.074l354.826-208.036l3.568,6.084
						l-354.825,208.035c-183.897,107.819-387.893,140.017-526.642,148.042C2530.561,2865.058,2501.74,2865.763,2475.219,2865.763z"
						/>
				</g>
			</g>
		</g>
		<g>
			<g>
				<defs>
					<path id="SVGID_00000085964545619425033660000013357163890850332844_" d="M2006.576,3064.356
						c158.449,74.995,370.998,147.926,605.901,150.4c59.948,0.631,430.277,4.531,458.948-151.629
						c10.1-55.008-30.723-83.42-18.505-157.202c14.477-87.425,81.06-103.492,159.617-184.306
						c46.875-48.221,184.054-189.342,126.5-329.567c-34.393-83.794-136.769-163.478-233.501-183.688
						c-141.886-29.643-243.827,74.476-413.267,253.631c-150.202,158.814-155.537,212.464-265.692,324.938
						C2344.824,2870.407,2214.4,2977.026,2006.576,3064.356z"/>
				</defs>
				
					<linearGradient id="SVGID_00000062882260602741498720000002868475454001613965_" gradientUnits="userSpaceOnUse" x1="3661.8223" y1="2404.6824" x2="2674.8354" y2="2817.1997">
					<stop  offset="0.0036" style="stop-color:#F36F56"/>
					<stop  offset="1" style="stop-color:#FFC444"/>
				</linearGradient>
				
					<use xlink:href="#SVGID_00000085964545619425033660000013357163890850332844_"  style="overflow:visible;fill:url(#SVGID_00000062882260602741498720000002868475454001613965_);"/>
				<clipPath id="SVGID_00000002347930185449304530000007202729920703843510_">
					<use xlink:href="#SVGID_00000085964545619425033660000013357163890850332844_"  style="overflow:visible;"/>
				</clipPath>
				<g style="opacity:0.5;clip-path:url(#SVGID_00000002347930185449304530000007202729920703843510_);">
					<path style="fill:#FFFFFF;" d="M1997.114,3062.204c-64.715,0-129.023-6.408-192.846-19.25
						c-179.064-36.03-347.635-119.217-501.029-247.249l4.518-5.415c152.483,127.271,320.002,209.954,497.902,245.75
						c236.988,47.688,481.176,6.001,725.787-123.905c254.757-135.295,446.147-332.37,561.844-473.872
						c80.105-97.968,131.869-223.611,153.861-373.438l6.977,1.025c-22.178,151.108-74.454,277.908-155.376,376.879
						c-116.107,142.002-308.204,339.791-563.997,475.636C2354.488,3014.099,2174.361,3062.204,1997.114,3062.204z"/>
					<path style="fill:#FFFFFF;" d="M2836.667,2707.975l-0.768-3.075c-0.193-0.76-18.948-77.077-15.525-178.682
						c3.165-93.875,26.427-229.244,119.282-341.033l5.427,4.506c-91.532,110.194-114.502,243.842-117.653,336.555
						c-3.031,89.212,11.185,158.681,14.591,173.856c439.115-62.49,552.415-314.8,576.698-390.795
						c0.744-2.335,1.016-3.173,1.291-3.747l6.364,3.039l-3.182-1.52l3.203,1.478c-0.179,0.414-0.479,1.396-0.961,2.896
						c-24.657,77.171-139.762,333.804-585.627,396.083L2836.667,2707.975z"/>
					<path style="fill:#FFFFFF;" d="M2943.29,3053.65c-98.929,0-240.041-27.467-407.874-137.73l-1.577-1.035l-0.014-1.885
						c-0.017-2.366-0.141-239.591,143.082-495.452l144.421-258.006l6.157,3.445l-144.422,258.006
						c-135.602,242.238-141.897,467.326-142.176,490.083c106.137,69.455,268.952,148.547,444.688,133.774
						c105.586-8.878,166.579-48.093,167.181-48.488l3.867,5.898c-0.616,0.404-62.78,40.465-169.995,49.578
						C2973.265,3052.975,2958.787,3053.65,2943.29,3053.65z"/>
				</g>
			</g>
		</g>
		<g>
			<g>
				
					<linearGradient id="SVGID_00000183952167985327469670000009002938779066330791_" gradientUnits="userSpaceOnUse" x1="1373.6403" y1="2107.9297" x2="805.2856" y2="2003.3525">
					<stop  offset="0" style="stop-color:#444B8C"/>
					<stop  offset="0.9964" style="stop-color:#26264F"/>
				</linearGradient>
				<path style="fill:url(#SVGID_00000183952167985327469670000009002938779066330791_);" d="M2394.29,3124.046
					c0,55.042-31.42,102.607-70.191,106.04L851.061,3367.024c-45.752,4.052-127.947-44.101-127.947-104.246V972.421
					c0-115.367,80.677-124.73,126.429-122.955l1474.556,76.012c38.77,1.505,70.191,47.507,70.191,102.552V3124.046z"/>
				
					<linearGradient id="SVGID_00000132807339276296573910000008813474294472036492_" gradientUnits="userSpaceOnUse" x1="2454.573" y1="4598.4946" x2="780.2424" y2="6117.9316" gradientTransform="matrix(0 -1 1 0 -3755.802 3738.6064)">
					<stop  offset="0" style="stop-color:#444B8C"/>
					<stop  offset="0.9964" style="stop-color:#26264F"/>
				</linearGradient>
				<path style="fill:url(#SVGID_00000132807339276296573910000008813474294472036492_);" d="M2450.944,3123.887
					c0,55.542-31.42,103.538-70.191,107.002L862.902,3366.517c-45.753,4.088-83.133-41.949-83.133-102.641V952.751
					c0-60.694,37.38-108.608,83.133-106.816l1517.851,59.448c38.771,1.518,70.191,47.937,70.191,103.481V3123.887z"/>
				
					<linearGradient id="SVGID_00000044152187803320653570000001707501768836292790_" gradientUnits="userSpaceOnUse" x1="1190.2979" y1="5881.0405" x2="2129.4116" y2="4733.2344" gradientTransform="matrix(0 -1 1 0 -3755.802 3738.6064)">
					<stop  offset="0" style="stop-color:#444B8C"/>
					<stop  offset="0.9964" style="stop-color:#26264F"/>
				</linearGradient>
				<path style="fill:url(#SVGID_00000044152187803320653570000001707501768836292790_);" d="M818.555,954.052v2306.574
					c0,32.428,19.879,56.991,44.347,54.869l1204.054-104.457l313.797-27.223c20.777-1.802,37.584-27.409,37.584-57.198V1007.768
					c0-29.788-16.808-54.552-37.584-55.312l-325.16-11.889l-1192.69-43.61C838.435,896.063,818.555,921.624,818.555,954.052z"/>
				
					<linearGradient id="SVGID_00000037668902036444065160000011006469368156295819_" gradientUnits="userSpaceOnUse" x1="2280.1191" y1="2960.1777" x2="894.3547" y2="1087.3627">
					<stop  offset="0.494" style="stop-color:#EBEFF2"/>
					<stop  offset="1" style="stop-color:#FFFFFF"/>
				</linearGradient>
				<path style="fill:url(#SVGID_00000037668902036444065160000011006469368156295819_);" d="M2397.613,3011.087
					c0,11.083-7.086,20.655-15.799,21.338L861.655,3151.593c-10.25,0.803-18.599-8.334-18.599-20.37V953.814
					c0-12.036,8.349-21.54,18.599-21.184l1520.159,52.815c8.713,0.303,15.799,9.567,15.799,20.65V3011.087z"/>
				
					<linearGradient id="SVGID_00000010273345523060717790000006052737097504357281_" gradientUnits="userSpaceOnUse" x1="1669.0254" y1="3025.0662" x2="1631.3414" y2="3312.0435">
					<stop  offset="0" style="stop-color:#444B8C"/>
					<stop  offset="0.9964" style="stop-color:#26264F"/>
				</linearGradient>
				<path style="fill:url(#SVGID_00000010273345523060717790000006052737097504357281_);" d="M1815.107,3186.078l-328.324,27.66
					c-10.991,0.926-19.911-6.784-19.911-17.223v-31.432c0-10.438,8.919-19.619,19.911-20.505l328.324-26.464
					c10.603-0.854,19.188,6.752,19.188,16.988v30.824C1834.296,3176.163,1825.71,3185.185,1815.107,3186.078z"/>
				
					<linearGradient id="SVGID_00000145738826442379476440000016925223363370791834_" gradientUnits="userSpaceOnUse" x1="1552.6512" y1="733.1027" x2="1627.7675" y2="851.468" gradientTransform="matrix(0.9977 0.0679 -0.0679 0.9977 89.18 18.069)">
					<stop  offset="0" style="stop-color:#FF9085"/>
					<stop  offset="1" style="stop-color:#FB6FBB"/>
				</linearGradient>
				<path style="fill:url(#SVGID_00000145738826442379476440000016925223363370791834_);" d="M1634.054,903.919
					c-0.512,7.525-9.74,13.026-20.61,12.286c-10.87-0.74-19.267-7.44-18.755-14.966c0.512-7.525,9.739-13.026,20.609-12.286
					C1626.169,889.693,1634.566,896.393,1634.054,903.919z"/>
			</g>
			<g>
				<defs>
					<path id="SVGID_00000136401799213167898000000006153595446443862406_" d="M3010.569,2990.071
						c-612.956,32.099-620.042,41.671-628.755,42.354L861.655,3151.593c-10.25,0.803-18.599-8.334-18.599-20.37V953.814
						c0-12.036,8.349-21.54,18.599-21.184l1520.159,52.815c8.713,0.303,15.799,9.567,628.755-0.366V2990.071z"/>
				</defs>
				<clipPath id="SVGID_00000063599937930067378680000009993383775640480645_">
					<use xlink:href="#SVGID_00000136401799213167898000000006153595446443862406_"  style="overflow:visible;"/>
				</clipPath>
				<g style="clip-path:url(#SVGID_00000063599937930067378680000009993383775640480645_);">
					
						<linearGradient id="SVGID_00000080897005636247685720000015650809388901552782_" gradientUnits="userSpaceOnUse" x1="2813.3037" y1="1357.3884" x2="2255.6917" y2="2368.0593">
						<stop  offset="0" style="stop-color:#FFC444"/>
						<stop  offset="0.9964" style="stop-color:#F36F56"/>
					</linearGradient>
					<path style="fill:url(#SVGID_00000080897005636247685720000015650809388901552782_);" d="M2674.593,1594.515
						c17.27-49.779,10.341-77.059,0-92.935c-14.42-22.139-47.457-40.496-108.424-85.191c-3.989-2.924-10.882-8.145-10.01-11.013
						c2.158-7.097,35.344-3.426,64.222,11.013c41.855,20.927,50.573,22.542,75.454,29.952c43.972,13.096,82.634,2.16,141.394-14.462
						c24.232-6.855,58.197-18.461,96.808-38.723c0,0,42.595-19.362,54.212,0l-61.957,30.978c0,0,54.212-23.234,85.191-7.745
						l-108.425,46.468c0,0,81.318-23.234,85.191-7.745c-52.849,37.701-99.468,50.57-135.531,54.212
						c-55.5,5.606-97.279-9.498-112.296,11.617c-12.123,17.045,0.466,47.468,15.489,73.574H2674.593z"/>
					
						<linearGradient id="SVGID_00000093165088319609550520000010439338763024865977_" gradientUnits="userSpaceOnUse" x1="2421.3726" y1="2026.0758" x2="1894.7411" y2="3138.7151">
						<stop  offset="0" style="stop-color:#AA80F9"/>
						<stop  offset="0.9964" style="stop-color:#6165D7"/>
					</linearGradient>
					<path style="fill:url(#SVGID_00000093165088319609550520000010439338763024865977_);" d="M1946.601,1958.511
						c48.306-72.365,107.631-115.72,150.582-141.868c15.506,6.84,39.335,18.266,66.524,35.448
						c78.459,49.584,87.082,85.289,153.667,126.635c35.313,21.927,79.048,49.083,135.198,45.381
						c64.635-4.262,108.933-46.99,127.343-64.749c126.286-121.812,76.883-352.579,71.445-376.46
						c47.758-1.291,95.517-2.582,143.275-3.872c25.121,44.054,163.56,324.962,61.957,607.951
						c-145.517,405.301-737.474,408.796-916.444,222.211C1833.566,2298.071,1834.194,2126.901,1946.601,1958.511z"/>
					
						<linearGradient id="SVGID_00000151521819152382823100000004304782993330098562_" gradientUnits="userSpaceOnUse" x1="-2380.9333" y1="2837.0984" x2="-2907.5654" y2="3949.7393" gradientTransform="matrix(-1 0 0 1 -658.8848 0)">
						<stop  offset="0" style="stop-color:#AA80F9"/>
						<stop  offset="0.9964" style="stop-color:#6165D7"/>
					</linearGradient>
					<path style="fill:url(#SVGID_00000151521819152382823100000004304782993330098562_);" d="M1027.959,3168.14
						c-16.14-22.92-44.597-70.374-66.47-132.139c-59.157-167.044-27.022-316.943-19.054-359.409
						c26.764-142.625,30.863-405.264-57.875-928.444c158.47-40,396.775-80.048,683.857-53.515
						c217.64,20.115,397.269,72.391,528.765,122.01c3.443,240.64-16.057,431.506-34.216,560.272
						c-29.101,206.367-57.438,272.236-60.755,448.686c-4.993,265.541,55.674,302.951,9.433,385.309
						C1878.747,3447.61,1213.286,3431.319,1027.959,3168.14z"/>
					
						<linearGradient id="SVGID_00000171688609508893828250000011985878580108030897_" gradientUnits="userSpaceOnUse" x1="-2265.4065" y1="1902.4031" x2="-1649.6228" y2="873.1202" gradientTransform="matrix(-1 0 0 1 -658.8848 0)">
						<stop  offset="0" style="stop-color:#FFC444"/>
						<stop  offset="0.9964" style="stop-color:#F36F56"/>
					</linearGradient>
					<path style="fill:url(#SVGID_00000171688609508893828250000011985878580108030897_);" d="M1472.339,1412.302
						c-7.885,74.862-15.769,149.723-23.654,224.585c-2.136,20.282-18.396,36.177-38.721,37.852
						c-80.459,6.631-160.919,13.263-241.377,19.894l446.207,136.805l204.548-97.547c-62.411-19.339-124.823-38.681-187.235-58.021
						c-16.032-4.968-27.631-18.918-29.589-35.588c-5.431-46.228-10.862-92.456-16.293-138.685L1472.339,1412.302z"/>
					
						<linearGradient id="SVGID_00000083786975382295406340000006984016993652412333_" gradientUnits="userSpaceOnUse" x1="-2307.4048" y1="1503.7152" x2="-1834.4115" y2="646.974" gradientTransform="matrix(-1 0 0 1 -658.8848 0)">
						<stop  offset="0" style="stop-color:#FFC444"/>
						<stop  offset="0.9964" style="stop-color:#F36F56"/>
					</linearGradient>
					<path style="fill:url(#SVGID_00000083786975382295406340000006984016993652412333_);" d="M1428.78,1377.471
						c49.187,112.874,172.27,206.293,235.871,178.578c63.601-27.714,56.833-168.128,7.647-281.003
						c-49.187-112.875-143.388-155.916-206.989-128.201C1401.709,1174.561,1379.594,1264.595,1428.78,1377.471z"/>
					
						<linearGradient id="SVGID_00000049903436428446195230000006488906028575454123_" gradientUnits="userSpaceOnUse" x1="-2033.3878" y1="924.6304" x2="-2301.1206" y2="1397.6249" gradientTransform="matrix(-1 0 0 1 -658.8848 0)">
						<stop  offset="0" style="stop-color:#444B8C"/>
						<stop  offset="0.9964" style="stop-color:#26264F"/>
					</linearGradient>
					<path style="fill:url(#SVGID_00000049903436428446195230000006488906028575454123_);" d="M1511.493,1367.238
						c-6.203,4.648-30.426-28.564-43.854-22.634c-11.326,5.002-14.393,37.607-0.661,59.969
						c11.688,19.035,27.251,17.134,31.784,31.982c7.455,24.412-25.056,60.878-37.222,56.585c-7.804-2.754-1.33-20.191-8.914-40.105
						c-14.907-39.142-63.852-34.638-103.813-64.578c-62.843-47.083-79.958-161.739-42.49-204.661
						c14.24-16.314,30.208-15.213,49.563-41.483c20.954-28.441,11.803-42.717,27.924-61.002
						c27.355-31.027,87.401-28.136,125.348-16.669c47.742,14.427,51.204,39.617,83.156,37.759
						c37.839-2.199,43.298-38.13,88.421-44.734c2.599-0.381,44.72-5.892,76.442,21.504c41.194,35.579,31.108,97.513,29.678,106.293
						c-9.139,56.121-54.94,106.728-105.606,118.117c-10.666,2.397-8.507,0.125-115.814-2.465
						c-35.452-0.856-56.88-1.115-64.014,11.357C1491.12,1330.477,1517.734,1362.56,1511.493,1367.238z"/>
					
						<linearGradient id="SVGID_00000108997998992333945130000006477929207826639779_" gradientUnits="userSpaceOnUse" x1="-2040.5118" y1="3625.127" x2="-988.6919" y2="881.2498" gradientTransform="matrix(-1 0 0 1 -658.8848 0)">
						<stop  offset="0" style="stop-color:#AA80F9"/>
						<stop  offset="0.9964" style="stop-color:#6165D7"/>
					</linearGradient>
					<path style="opacity:0.3;fill:url(#SVGID_00000108997998992333945130000006477929207826639779_);" d="M942.438,2164.064
						c56.949,25.838,87.645,58.574,105.216,88.756c67,115.083-36.062,227.9,37.938,371.789
						c50.927,99.024,118.429,81.936,151.75,174.513c42.745,118.763-50.278,197.073-45.525,318.676
						c2.396,61.316,29.846,137.91,122.913,225.432c-122.155-33.701-228.337-92.11-286.771-175.09
						c-16.14-22.92-44.597-70.374-66.47-132.139c-59.157-167.044-27.022-316.943-19.054-359.409
						C960.896,2578.219,968.567,2422.734,942.438,2164.064z"/>
					
						<linearGradient id="SVGID_00000074403396771057343820000012772324190043200641_" gradientUnits="userSpaceOnUse" x1="-1783.9227" y1="3119.6736" x2="-2310.5549" y2="4232.3145" gradientTransform="matrix(-1 0 0 1 -658.8848 0)">
						<stop  offset="0" style="stop-color:#AA80F9"/>
						<stop  offset="0.9964" style="stop-color:#6165D7"/>
					</linearGradient>
					<path style="fill:url(#SVGID_00000074403396771057343820000012772324190043200641_);" d="M691.505,3264.082
						c-198.704-96.064-203.812-436.279-206.54-611.562c-2.145-137.801-11.154-716.623,323.405-876.135
						c58.391-27.84,113.968-36.576,154.596-39.218c38.509,23.606,134.814,90.037,169.06,209.632
						c19.394,67.728,13.455,133.546-12.29,222.558c-66.617,230.325-166.109,271.123-227.216,423.253
						c-124.31,309.481,102.589,585.728-17.108,680.025C813.466,3321.435,701.705,3269.013,691.505,3264.082z"/>
				</g>
			</g>
		</g>
		<g>
			
				<linearGradient id="SVGID_00000115513493498574788440000018118368637756434863_" gradientUnits="userSpaceOnUse" x1="2150.4663" y1="2786.5791" x2="2750.2378" y2="2179.1191">
				<stop  offset="0" style="stop-color:#444B8C"/>
				<stop  offset="0.9964" style="stop-color:#26264F"/>
			</linearGradient>
			<path style="fill:url(#SVGID_00000115513493498574788440000018118368637756434863_);" d="M2839.106,2525.478l-1240.186,80.215
				c-34.263,2.216-62.15,33.519-62.15,69.908v204.985c0,36.388,27.887,63.481,62.15,60.523l1240.186-107.061
				c28.875-2.492,52.197-31.437,52.197-64.658v-187.137C2891.303,2549.033,2867.981,2523.61,2839.106,2525.478z"/>
			
				<linearGradient id="SVGID_00000134244140935958263320000007502064921005221283_" gradientUnits="userSpaceOnUse" x1="2261.4954" y1="2860.6799" x2="2852.812" y2="2261.7832">
				<stop  offset="0" style="stop-color:#444B8C"/>
				<stop  offset="0.9964" style="stop-color:#26264F"/>
			</linearGradient>
			<path style="fill:url(#SVGID_00000134244140935958263320000007502064921005221283_);" d="M2227.775,2969.911l-78.031-104.234
				l189.034-15.966l-79.109,120.478C2252.371,2981.304,2236.193,2981.156,2227.775,2969.911z"/>
			
				<linearGradient id="SVGID_00000063612937803945559230000005546574781849167799_" gradientUnits="userSpaceOnUse" x1="2162.5544" y1="2794.7219" x2="2762.6868" y2="2186.8965">
				<stop  offset="0" style="stop-color:#AB316D"/>
				<stop  offset="1" style="stop-color:#792D3D"/>
			</linearGradient>
			<path style="fill:url(#SVGID_00000063612937803945559230000005546574781849167799_);" d="M2851.832,2533.688l-1241.382,79.857
				c-34.295,2.206-62.209,33.515-62.209,69.921v205.081c0,36.405,27.913,63.519,62.209,60.572l1241.382-106.708
				c28.904-2.484,52.249-31.436,52.249-64.673v-187.23C2904.081,2557.271,2880.736,2531.828,2851.832,2533.688z"/>
			
				<linearGradient id="SVGID_00000004540583181271055110000012513910525180944789_" gradientUnits="userSpaceOnUse" x1="2273.6357" y1="2868.8413" x2="2865.28" y2="2269.6128">
				<stop  offset="0" style="stop-color:#AB316D"/>
				<stop  offset="1" style="stop-color:#792D3D"/>
			</linearGradient>
			<path style="fill:url(#SVGID_00000004540583181271055110000012513910525180944789_);" d="M2239.904,2978.14l-78.106-104.31
				l189.217-15.912l-79.186,120.51C2264.524,2989.546,2248.33,2989.393,2239.904,2978.14z"/>
			<g style="opacity:0.69;">
				<g>
					<g>
						<path style="fill:#FFFFFF;" d="M1803.258,2786.534l-111.32,8.508c-19.049,1.456-34.526,19.106-34.526,39.418v29.567
							l179.726-14.507v-29.224C1837.137,2800.22,1821.988,2785.103,1803.258,2786.534z"/>
						<path style="fill:#FFFFFF;" d="M1790.599,2724.587c0,25.27-19.133,47.197-42.799,48.979
							c-23.74,1.788-43.039-17.359-43.039-42.771c0-25.412,19.299-47.351,43.039-48.997
							C1771.466,2680.156,1790.599,2699.316,1790.599,2724.587z"/>
					</g>
					<g>
						<path style="fill:#FFFFFF;" d="M1892.779,2818.689c4.335,0.15,8.211-0.156,15.045-1.189
							c10.468-1.563,21.148-5.601,29.093-12.12c9.522-7.862,15.863-18.657,18.579-30.885l-0.679-0.193
							c-6.565,7.864-16.086,12.769-29.479,13.802c-25.033,1.931-46.261-15.41-46.261-46.467c0-31.302,23.279-59.308,55.797-61.587
							c37.799-2.649,55.616,27.422,55.616,64.614c0,33.031-9.691,58.015-25.722,75.204c-14.026,14.852-33.298,24.014-56.261,26.855
							c-5.923,0.972-11.85,1.205-15.729,1.273V2818.689z M1913.743,2736.862c0,13.772,6.823,25.062,20.904,24
							c9.299-0.701,15.868-6.103,19.038-11.983c1.131-2.291,1.81-4.793,1.81-9.454c0-16.922-5.886-33.177-21.529-32.053
							C1922.158,2708.221,1913.515,2720.156,1913.743,2736.862z"/>
						<path style="fill:#FFFFFF;" d="M2104.51,2701.186l-56.121,4.056l-3.131,24.606c3.131-0.719,5.813-0.917,9.387-1.182
							c13.834-1.021,27.866,1.347,38.096,8.609c10.881,7.202,17.536,19.811,17.536,38.26c0,29.372-23.093,57.216-62.111,60.374
							c-17.681,1.431-32.483-1.769-40.57-5.759l6.066-28.339c6.509,2.907,19.736,6.259,32.94,5.215
							c14.073-1.112,29.01-9.591,29.01-26.38c0-16.301-11.813-25.383-40.869-23.184c-8.066,0.61-13.673,1.523-19.733,2.959
							l9.649-83.98l79.852-5.61V2701.186z"/>
					</g>
				</g>
				<g>
					<path style="fill:#FFFFFF;" d="M2438.091,2691.837c-1.427-30.115-19.588-53.3-42.14-53.703
						c-17.884-0.32-33.758,13.126-42.193,32.706c-8.445-18.396-24.389-29.65-42.435-26.83c-22.882,3.575-41.412,29.59-42.871,60.26
						c-0.964,20.263,5.419,38.024,15.912,49.281l64.749,52.756c2.811,2.29,6.478,1.994,9.286-0.748l64.106-62.6
						C2432.79,2730.236,2439.032,2711.728,2438.091,2691.837z"/>
					<g>
						<path style="fill:#FFFFFF;" d="M2581.546,2637.315v22.572l-55.959,134.779l-33.825,2.733l56.219-127.797v-0.47l-62.539,4.52
							v-29.585L2581.546,2637.315z"/>
						<path style="fill:#FFFFFF;" d="M2689.528,2658.901l-51.827,3.746l-2.891,23.636c2.891-0.683,5.367-0.866,8.668-1.109
							c12.774-0.944,25.733,1.371,35.181,8.378c10.049,6.952,16.195,19.088,16.195,36.819c0,28.229-21.328,54.918-57.359,57.834
							c-16.325,1.322-29.991-1.798-37.457-5.657l5.6-27.21c6.01,2.813,18.221,6.072,30.412,5.108
							c12.994-1.027,26.788-9.13,26.788-25.265c0-15.664-10.909-24.426-37.737-22.396c-7.448,0.563-12.624,1.425-18.218,2.788
							l8.908-80.664l73.737-5.181V2658.901z"/>
						<path style="fill:#FFFFFF;" d="M2712.243,2739.979c0-18.175,9.187-31.456,23.658-39.765v-0.698
							c-12.839-6.483-19.164-18.356-19.164-31.635c0-25.624,20.182-44.042,46.6-45.893c30.765-2.156,43.477,17.323,43.477,35.611
							c0,12.963-6.051,26.146-18.976,34.527v0.696c12.724,4.602,24.015,16.245,24.015,35.684c0,27.305-19.973,47.203-50.545,49.678
							C2727.752,2780.899,2712.243,2760.485,2712.243,2739.979z M2780.557,2733.489c0-13.219-8.503-20.452-20.67-23.238
							c-10.153,4.026-16.048,12.847-16.048,23.775c-0.204,10.944,7.115,20.593,18.687,19.676
							C2773.471,2752.835,2780.557,2744.157,2780.557,2733.489z M2745.871,2664.591c0,10.229,8.128,16.136,18.682,19.068
							c7.095-2.847,13.373-10.736,13.373-20.247c0-9.278-4.657-18.222-16.009-17.407
							C2751.359,2646.762,2745.871,2655.06,2745.871,2664.591z"/>
					</g>
				</g>
			</g>
		</g>
		<g>
			
				<linearGradient id="SVGID_00000150810679125223015460000014829317481563003310_" gradientUnits="userSpaceOnUse" x1="2434.2256" y1="381.6641" x2="2921.2249" y2="1164.6306">
				<stop  offset="0" style="stop-color:#311944"/>
				<stop  offset="1" style="stop-color:#893976"/>
			</linearGradient>
			<path style="fill:url(#SVGID_00000150810679125223015460000014829317481563003310_);" d="M3200.026,518.813l-911.521-49.09
				c-75.08-4.043-136.264,51.228-136.264,123.472v499.461c0,72.245,61.185,132.318,136.264,134.168l298.004,7.342l139.069,164.344
				c8.385,9.909,23.058,11.522,33.395,3.671l0,0l133.746-160.471l307.307,7.571c69.495,1.713,125.549-52.835,125.549-121.825
				V650.492C3325.575,581.502,3269.521,522.555,3200.026,518.813z"/>
			
				<linearGradient id="SVGID_00000012431934827588132130000002353812387274547628_" gradientUnits="userSpaceOnUse" x1="2452.3682" y1="367.1501" x2="2939.3674" y2="1150.1163">
				<stop  offset="0" style="stop-color:#FF9085"/>
				<stop  offset="1" style="stop-color:#FB6FBB"/>
			</linearGradient>
			<path style="fill:url(#SVGID_00000012431934827588132130000002353812387274547628_);" d="M3218.169,504.299l-911.521-49.09
				c-75.08-4.043-136.265,51.228-136.265,123.472v499.46c0,72.245,61.185,132.318,136.265,134.168l298.004,7.342l135.674,160.331
				c9.655,11.409,27.202,11.541,37.027,0.277l133.509-153.064l307.307,7.571c69.495,1.712,125.549-52.835,125.549-121.825V635.978
				C3343.718,566.988,3287.664,508.041,3218.169,504.299z"/>
			<path style="fill:#FFFFFF;" d="M3070.245,801.248c-5.038-94.535-69.279-173.958-149.286-184.014
				c-63.632-7.996-120.251,27.972-150.391,86.167c-30.21-61.057-87.355-102.687-152.19-100.92
				c-82.456,2.247-149.434,77.115-154.715,173.455c-3.49,63.66,19.612,122.168,57.538,161.612l232.756,189.58
				c10.054,8.189,23.165,8.557,33.2,0.944l227.984-172.972C3051.518,919.138,3073.572,863.673,3070.245,801.248z"/>
		</g>
	</g>
</g>
</svg>
