<?xml version="1.0" encoding="utf-8"?>
<!-- Generator: Adobe Illustrator 27.5.0, SVG Export Plug-In . SVG Version: 6.00 Build 0)  -->
<svg version="1.1" xmlns="http://www.w3.org/2000/svg" xmlns:xlink="http://www.w3.org/1999/xlink" x="0px" y="0px"
	 viewBox="0 0 3710 3710" style="enable-background:new 0 0 3710 3710;" xml:space="preserve">
<g id="Background">
	<g>
		<g>
			<rect style="fill:#FFFFFF;" width="3710" height="3710"/>
		</g>
	</g>
</g>
<g id="Illustration">
	<g>
		<path style="fill:#F4F7FA;" d="M1899.813,455.642C1162.529,433.87,523.885,968.841,427.397,1670.789
			c-105.495,767.485,475.139,1458.037,1189.586,1568.639c888.652,137.571,1750.593-658.291,1673.2-1521.683
			C3231.875,1067.254,2649.276,477.772,1899.813,455.642z"/>
		<path style="fill:#D8DEE8;" d="M2948.534,1316.553l-62.683-7.001c-2.614-26.509-7.725-53.005-15.19-79.225l56.583-24.214
			c15.235-6.521,21.683-23.791,14.397-38.532l-45.165-91.362c-7.156-14.48-25.125-20.885-40.132-14.348l-55.722,24.276
			c-15.783-21.806-33.17-41.979-52.033-60.279l34.731-47.329c9.358-12.75,6.061-30.371-7.327-39.335l-82.896-55.511
			c-13.124-8.789-31.227-5.702-40.464,6.874l-34.237,46.615c-23.772-10.808-48.391-19.544-73.545-26.169l5.673-56.075
			c1.528-15.114-9.908-28.353-25.513-29.588l-96.771-7.654c-15.347-1.214-29.074,9.898-30.693,24.833l-5.945,54.855
			c-25.261,2.094-50.504,6.466-75.496,12.958l-22.394-49.603c-6.087-13.485-22.264-19.252-36.128-12.915l-86.305,39.453
			c-13.736,6.28-20.093,22.267-14.201,35.741l21.498,49.165c-21.277,14.297-41.047,30.166-59.113,47.478l-42.948-31.222
			c-11.836-8.607-28.646-5.74-37.57,6.382l-55.823,75.831c-8.93,12.13-6.685,29.053,5.043,37.822l42.345,31.658
			c-11.431,22.7-20.888,46.373-28.316,70.735l-52.63-5.878c-14.622-1.633-28.016,9.208-29.946,24.229l-12.127,94.406
			c-1.951,15.173,8.363,28.954,23.063,30.766l52.519,6.478c1.11,25.575,4.555,51.325,10.197,77.006l-49.324,21.488
			c-13.806,6.015-20.363,22.501-14.646,36.861l36.052,90.564c5.815,14.606,21.881,21.618,35.885,15.625l50.037-21.414
			c14.088,22.814,29.903,44.201,47.382,63.848l-32.989,44.914c-9.284,12.64-6.855,30.951,5.457,40.921l77.756,62.963
			c12.557,10.169,30.393,8.044,39.796-4.775l33.675-45.886c23.692,12.926,48.471,23.795,74.074,32.408l-6.351,58.595
			c-1.776,16.38,9.7,31.718,25.669,34.242l100.733,15.922c16.249,2.57,30.813-8.813,32.49-25.406l6.034-59.63
			c26.914-0.788,53.959-4.099,80.864-9.874l24.829,56.777c6.88,15.736,24.767,23.545,39.949,17.397l95.424-38.638
			c15.337-6.209,21.997-24.06,14.881-39.824l-25.884-57.331c23.135-14.913,44.631-31.656,64.174-50.149l50.885,38.044
			c13.993,10.463,33.275,8.164,43.027-5.163l60.973-83.303c9.748-13.316,6.167-32.457-7.958-42.727l-51.884-37.719
			c11.666-24.443,21.117-49.893,28.187-76.068l63.002,7.769c17.098,2.109,32.051-9.581,33.361-26.09l8.149-102.674
			C2978.274,1333.211,2965.522,1318.449,2948.534,1316.553z M2542.184,1608.659c-149.468,62.38-320.636-10.604-382.728-158.955
			c-60.613-144.818,4.723-310.276,146.262-373.379c143.374-63.92,315.299-0.997,383.818,144.475
			C2759.764,1369.909,2693.676,1545.433,2542.184,1608.659z"/>
		<g>
			<g>
				<linearGradient id="SVGID_1_" gradientUnits="userSpaceOnUse" x1="2540.7148" y1="1911.9938" x2="2248.1406" y2="4177.0698">
					<stop  offset="0" style="stop-color:#FF9085"/>
					<stop  offset="1" style="stop-color:#FB6FBB"/>
				</linearGradient>
				<path style="fill:url(#SVGID_1_);" d="M2401.153,2865.81c113.629-14.599,257.699-52.958,315.563-161.122
					c13.766-25.733,27.578-75.72-7.165-94.543c-31.759-17.207-72.829,0.968-96.434,23.359
					c-17.355,16.463-30.899,53.207-50.399,64.827c-28.541,17.007-43.907-29.397-43.306-48.547
					c1.343-42.817,54.011-60.346,89.015-69.643c58.101-15.432,125.749-28.66,122.109-94.136
					c-3.64-65.476-67.479-104.748-116.591-76.106c-40.463,23.604-34.766,73.982-62.415,104.207
					c-24.563,26.852-33.11-16.732-31.47-38.1c3.563-46.415,44.373-79.985,74.401-111.087
					c33.95-35.165,71.458-105.915,35.271-152.412c-20.824-26.756-73.726-33.023-104.993-28.509
					c-153.05,22.098-51.562,220.163-79.389,242.261c-27.827,22.098-54.156-16.585-54.087-75.406
					c0.069-58.82-8.934-102.198-70.317-83.374c-61.384,18.824-73.068,172.462-2.978,231.506
					c70.091,59.043-4.4,123.462-23.216,81.148c-13.584-30.553-25.527-110.565-64.787-119.341
					c-65.417-14.596-64.448,118.982-45.621,150.07c26.392,43.58,86.067,53.048,119.394,90.647
					c9.682,10.923,31.54,37.975,23.049,53.941c-11.842,22.267-44.881-1.554-57.02-11.874
					c-27.29-23.201-65.062-102.049-103.507-49.686C2118.788,2758.548,2198.178,2854.397,2401.153,2865.81z"/>
				<g style="opacity:0.8;">
					<path style="fill:#FFFFFF;" d="M2417.52,2852.811c-2.67,0-4.858-1.367-4.907-4.047c-0.045-2.32-3.207-234.86,98.513-511.885
						c0.937-2.545,3.761-3.657,6.303-2.724c2.546,0.934,3.853,3.852,2.917,6.398c-101.093,275.315-97.958,505.675-97.915,507.977
						c0.051,2.712-2.105,4.281-4.816,4.281C2417.583,2852.811,2417.551,2852.811,2417.52,2852.811z"/>
				</g>
			</g>
			
				<linearGradient id="SVGID_00000148658217084173121400000004373205885225231752_" gradientUnits="userSpaceOnUse" x1="2365.5349" y1="2254.7175" x2="2176.6748" y2="3716.8523">
				<stop  offset="0" style="stop-color:#FFC444"/>
				<stop  offset="0.9964" style="stop-color:#F36F56"/>
			</linearGradient>
			<path style="fill:url(#SVGID_00000148658217084173121400000004373205885225231752_);" d="M2459.311,2766.16
				c-18.419-15.672-57.553,8.837-73.796,18.161c-9.42,5.408-22.313,13.704-33.648,8.889c-11.905-5.056-11.067-17.553-3.868-26.409
				c12.889-15.855,37.622-20.212,55.595-27.94c19.307-8.301,37.036-19.602,46.556-39.088c7.592-15.537,9.325-38.504,0.779-53.807
				c-23.65-42.348-58.079-9.301-77.33,15.958c-9.341,12.257-30.263,33.371-46.122,18.919c-16.871-15.375-2.393-42.789,10.696-54.876
				c17.106-15.797,37.812-26.777,56.439-40.509c16.796-12.382,34.047-30.122,22.865-52.073
				c-8.638-16.958-30.381-26.344-48.946-24.906c-42.925,3.323-49.615,65.994-77.883,90.057c-9.994,8.508-32.716,15.272-44.637,6.924
				c-12.132-8.515-4.247-27.986,0.119-38.611c12.941-31.493,105.8-137.079,28.841-150.337c-19.369-3.337-46.063,2.76-61.283,15.075
				c-28.713,23.232-43.95,69.245-51.513,104.163c-11.896,54.925-11.222,115.931,2.057,170.557
				c29.35,120.725,98.33,159.502,98.33,159.502c29.833,9.82,67.138,14.662,98.065,8.115c36.355-7.695,79.833-34.607,97.812-68.183
				C2464.257,2794.88,2470.721,2775.868,2459.311,2766.16z"/>
		</g>
		<g>
			<g>
				
					<linearGradient id="SVGID_00000132791045432965338440000005987180976222655142_" gradientUnits="userSpaceOnUse" x1="-2563.3831" y1="2031.8873" x2="-2294.0911" y2="2450.7866" gradientTransform="matrix(-0.8887 -0.4585 -0.4585 0.8887 590.131 -1678.999)">
					<stop  offset="0.0036" style="stop-color:#FFFFFF"/>
					<stop  offset="1" style="stop-color:#F4F7FA"/>
				</linearGradient>
				<polygon style="fill:url(#SVGID_00000132791045432965338440000005987180976222655142_);" points="1311.763,2008.421 
					1807.062,2151.41 2195.215,806.889 1699.916,663.9 				"/>
				
					<linearGradient id="SVGID_00000051376703236641455350000017302979180955617678_" gradientUnits="userSpaceOnUse" x1="-1217.0969" y1="2143.2146" x2="-990.5267" y2="3282.0315" gradientTransform="matrix(-0.9608 -0.2774 -0.2774 0.9608 1453.3768 -1723.5433)">
					<stop  offset="0" style="stop-color:#FFC444"/>
					<stop  offset="0.9964" style="stop-color:#F36F56"/>
				</linearGradient>
				<polygon style="fill:url(#SVGID_00000051376703236641455350000017302979180955617678_);" points="1686.565,968.69 
					2060.153,1076.542 2125.456,850.339 1751.868,742.487 				"/>
				
					<linearGradient id="SVGID_00000135662514448338447660000004076093993256083636_" gradientUnits="userSpaceOnUse" x1="-1288.2914" y1="2060.9407" x2="-1061.7211" y2="3199.7581" gradientTransform="matrix(-0.9608 -0.2774 -0.2774 0.9608 1453.3768 -1723.5433)">
					<stop  offset="0" style="stop-color:#FFC444"/>
					<stop  offset="0.9964" style="stop-color:#F36F56"/>
				</linearGradient>
				<polygon style="fill:url(#SVGID_00000135662514448338447660000004076093993256083636_);" points="1610.136,1233.431 
					1983.724,1341.283 2049.027,1115.08 1675.439,1007.228 				"/>
				
					<linearGradient id="SVGID_00000042000456873172928310000012372172918022041528_" gradientUnits="userSpaceOnUse" x1="-1341.4562" y1="2069.2905" x2="-1114.8859" y2="3208.1079" gradientTransform="matrix(-0.9608 -0.2774 -0.2774 0.9608 1453.3768 -1723.5433)">
					<stop  offset="0" style="stop-color:#FFC444"/>
					<stop  offset="0.9964" style="stop-color:#F36F56"/>
				</linearGradient>
				<polygon style="fill:url(#SVGID_00000042000456873172928310000012372172918022041528_);" points="1533.708,1498.172 
					1907.296,1606.024 1972.599,1379.821 1599.011,1271.969 				"/>
				
					<linearGradient id="SVGID_00000065756245507186750460000013637156221384239252_" gradientUnits="userSpaceOnUse" x1="-1378.8794" y1="2156.762" x2="-1152.3091" y2="3295.5791" gradientTransform="matrix(-0.9608 -0.2774 -0.2774 0.9608 1453.3768 -1723.5433)">
					<stop  offset="0" style="stop-color:#FFC444"/>
					<stop  offset="0.9964" style="stop-color:#F36F56"/>
				</linearGradient>
				<polygon style="fill:url(#SVGID_00000065756245507186750460000013637156221384239252_);" points="1457.279,1762.913 
					1830.867,1870.765 1896.17,1644.562 1522.582,1536.71 				"/>
				<g style="opacity:0.3;">
					
						<linearGradient id="SVGID_00000119119264795971345740000007618530876945316785_" gradientUnits="userSpaceOnUse" x1="-2056.6797" y1="1563.0222" x2="-2372.9839" y2="2336.6851" gradientTransform="matrix(-0.8887 -0.4585 -0.4585 0.8887 590.131 -1678.999)">
						<stop  offset="0" style="stop-color:#FFC444"/>
						<stop  offset="0.9964" style="stop-color:#F36F56"/>
					</linearGradient>
					<path style="fill:url(#SVGID_00000119119264795971345740000007618530876945316785_);" d="M1699.916,663.9l263.297,76.012
						c-42.764,36.424-82.671,83.474-107.795,143.899c-47.806,114.978-8.256,196.958-18.891,358.19
						c-11.099,168.271-64.933,242.031-116.842,394.221c-37.873,111.042-75.037,264.799-81.054,466.563l-326.868-94.364
						L1699.916,663.9z"/>
				</g>
			</g>
			<g>
				
					<linearGradient id="SVGID_00000051370038751462585860000002705118480279004076_" gradientUnits="userSpaceOnUse" x1="-1910.6838" y1="1755.0863" x2="-2308.1973" y2="2475.3113" gradientTransform="matrix(-0.8887 -0.4585 -0.4585 0.8887 590.131 -1678.999)">
					<stop  offset="0.0036" style="stop-color:#FFFFFF"/>
					<stop  offset="1" style="stop-color:#F4F7FA"/>
				</linearGradient>
				<polygon style="fill:url(#SVGID_00000051370038751462585860000002705118480279004076_);" points="1404.898,2157.224 
					1907.727,2043.515 1599.056,678.552 1096.227,792.262 				"/>
				
					<linearGradient id="SVGID_00000167398552137308754370000001275566734388977548_" gradientUnits="userSpaceOnUse" x1="3304.082" y1="2526.1394" x2="3482.6541" y2="3484.7893" gradientTransform="matrix(-0.9754 0.2206 0.2206 0.9754 4052.6724 -2496.7732)">
					<stop  offset="0.0036" style="stop-color:#E38DDD"/>
					<stop  offset="1" style="stop-color:#9571F6"/>
				</linearGradient>
				<polygon style="fill:url(#SVGID_00000167398552137308754370000001275566734388977548_);" points="1231.578,1065.676 
					1610.846,979.909 1558.915,750.267 1179.647,836.034 				"/>
				
					<linearGradient id="SVGID_00000008864616704954850580000007005924621151281794_" gradientUnits="userSpaceOnUse" x1="3254.4844" y1="2535.3857" x2="3433.0562" y2="3494.0354" gradientTransform="matrix(-0.9754 0.2206 0.2206 0.9754 4052.6724 -2496.7732)">
					<stop  offset="0.0036" style="stop-color:#E38DDD"/>
					<stop  offset="1" style="stop-color:#9571F6"/>
				</linearGradient>
				<polygon style="fill:url(#SVGID_00000008864616704954850580000007005924621151281794_);" points="1292.357,1334.442 
					1671.624,1248.675 1619.693,1019.033 1240.426,1104.8 				"/>
				
					<linearGradient id="SVGID_00000046335750515602219450000017022379560886571929_" gradientUnits="userSpaceOnUse" x1="3204.887" y1="2544.6335" x2="3383.4587" y2="3503.2832" gradientTransform="matrix(-0.9754 0.2206 0.2206 0.9754 4052.6724 -2496.7732)">
					<stop  offset="0.0036" style="stop-color:#E38DDD"/>
					<stop  offset="1" style="stop-color:#9571F6"/>
				</linearGradient>
				<polygon style="fill:url(#SVGID_00000046335750515602219450000017022379560886571929_);" points="1353.135,1603.208 
					1732.403,1517.441 1680.472,1287.799 1301.204,1373.566 				"/>
				
					<linearGradient id="SVGID_00000002346146828349367470000009509539696735454386_" gradientUnits="userSpaceOnUse" x1="3122.5691" y1="2378.2253" x2="3301.1411" y2="3336.8755" gradientTransform="matrix(-0.9754 0.2206 0.2206 0.9754 4052.6724 -2496.7732)">
					<stop  offset="0.0036" style="stop-color:#E38DDD"/>
					<stop  offset="1" style="stop-color:#9571F6"/>
				</linearGradient>
				<polygon style="fill:url(#SVGID_00000002346146828349367470000009509539696735454386_);" points="1413.914,1871.974 
					1793.181,1786.207 1741.25,1556.564 1361.983,1642.332 				"/>
				<g style="opacity:0.3;">
					
						<linearGradient id="SVGID_00000027604082716891072480000004961241800438561455_" gradientUnits="userSpaceOnUse" x1="-1825.8427" y1="1801.9016" x2="-2223.3584" y2="2522.1309" gradientTransform="matrix(-0.8887 -0.4585 -0.4585 0.8887 590.131 -1678.999)">
						<stop  offset="0.0036" style="stop-color:#E38DDD"/>
						<stop  offset="1" style="stop-color:#9571F6"/>
					</linearGradient>
					<path style="fill:url(#SVGID_00000027604082716891072480000004961241800438561455_);" d="M1096.227,792.262l331.169-74.891
						c-37.523,83.457-39.841,148.63-32.888,196.15c19.533,133.519,117.926,167.407,169.295,329.04
						c48.168,151.564,2.245,249.49-4.739,372.707c-6.643,117.231,20.986,274.666,156.005,471.814l-310.172,70.142L1096.227,792.262z
						"/>
				</g>
			</g>
			<g>
				
					<linearGradient id="SVGID_00000096744164318137378860000000096878064604580781_" gradientUnits="userSpaceOnUse" x1="-2098.9248" y1="2378.0115" x2="-1974.9535" y2="2835.4214" gradientTransform="matrix(-0.8887 -0.4585 -0.4585 0.8887 590.131 -1678.999)">
					<stop  offset="0.0036" style="stop-color:#FFFFFF"/>
					<stop  offset="1" style="stop-color:#F4F7FA"/>
				</linearGradient>
				<polygon style="fill:url(#SVGID_00000096744164318137378860000000096878064604580781_);" points="1509.946,2229.775 
					1895.528,1887.584 966.63,840.899 581.049,1183.09 				"/>
				
					<linearGradient id="SVGID_00000005241633347695705020000012519597980138272178_" gradientUnits="userSpaceOnUse" x1="7472.0474" y1="769.6088" x2="7650.6221" y2="1728.2731" gradientTransform="matrix(-0.7479 0.6638 0.6638 0.7479 5956.2539 -4428.6152)">
					<stop  offset="0" style="stop-color:#FF9085"/>
					<stop  offset="1" style="stop-color:#FB6FBB"/>
				</linearGradient>
				<polygon style="fill:url(#SVGID_00000005241633347695705020000012519597980138272178_);" points="831.515,1357.28 
					1122.346,1099.177 966.068,923.082 675.237,1181.185 				"/>
				
					<linearGradient id="SVGID_00000018950515427048356590000008830293634392944041_" gradientUnits="userSpaceOnUse" x1="7411.5156" y1="720.1328" x2="7590.0903" y2="1678.797" gradientTransform="matrix(-0.7479 0.6638 0.6638 0.7479 5956.2539 -4428.6152)">
					<stop  offset="0" style="stop-color:#FF9085"/>
					<stop  offset="1" style="stop-color:#FB6FBB"/>
				</linearGradient>
				<polygon style="fill:url(#SVGID_00000018950515427048356590000008830293634392944041_);" points="1014.418,1563.375 
					1305.25,1305.272 1148.971,1129.178 858.14,1387.281 				"/>
				
					<linearGradient id="SVGID_00000003804256667688558780000006818339473809917580_" gradientUnits="userSpaceOnUse" x1="7355.5293" y1="695.0576" x2="7534.104" y2="1653.7217" gradientTransform="matrix(-0.7479 0.6638 0.6638 0.7479 5956.2539 -4428.6152)">
					<stop  offset="0" style="stop-color:#FF9085"/>
					<stop  offset="1" style="stop-color:#FB6FBB"/>
				</linearGradient>
				<polygon style="fill:url(#SVGID_00000003804256667688558780000006818339473809917580_);" points="1197.322,1769.471 
					1488.153,1511.369 1331.875,1335.274 1041.043,1593.377 				"/>
				
					<linearGradient id="SVGID_00000123414572628195739910000010808460483212494780_" gradientUnits="userSpaceOnUse" x1="7295.0972" y1="646.1154" x2="7473.6719" y2="1604.7794" gradientTransform="matrix(-0.7479 0.6638 0.6638 0.7479 5956.2539 -4428.6152)">
					<stop  offset="0" style="stop-color:#FF9085"/>
					<stop  offset="1" style="stop-color:#FB6FBB"/>
				</linearGradient>
				<polygon style="fill:url(#SVGID_00000123414572628195739910000010808460483212494780_);" points="1380.225,1975.567 
					1671.056,1717.464 1514.778,1541.37 1223.947,1799.473 				"/>
				<g style="opacity:0.3;">
					
						<linearGradient id="SVGID_00000126315974726930690570000015716100012680089521_" gradientUnits="userSpaceOnUse" x1="-1579.4943" y1="2023.9047" x2="-1947.0991" y2="2605.2339" gradientTransform="matrix(-0.8887 -0.4585 -0.4585 0.8887 590.131 -1678.999)">
						<stop  offset="0" style="stop-color:#FF9085"/>
						<stop  offset="1" style="stop-color:#FB6FBB"/>
					</linearGradient>
					<path style="fill:url(#SVGID_00000126315974726930690570000015716100012680089521_);" d="M581.049,1183.09l247.46-219.612
						c-4.351,126.255,30.251,201.442,64.598,247.837c80.291,108.454,183.023,91.842,304.654,210.036
						c114.053,110.831,119.836,218.836,171.89,330.736c46.15,99.208,135.047,215.122,318.595,319.452l-178.299,158.235
						L581.049,1183.09z"/>
				</g>
			</g>
			
				<linearGradient id="SVGID_00000116924369665313707560000012668422381894156968_" gradientUnits="userSpaceOnUse" x1="-1252.9187" y1="3507.2073" x2="-1143.2783" y2="3507.2073" gradientTransform="matrix(-0.9608 -0.2774 -0.2774 0.9608 1453.3768 -1723.5433)">
				<stop  offset="0.0036" style="stop-color:#E38DDD"/>
				<stop  offset="1" style="stop-color:#9571F6"/>
			</linearGradient>
			
				<circle style="fill:url(#SVGID_00000116924369665313707560000012668422381894156968_);" cx="1631.611" cy="1978.534" r="54.823"/>
		</g>
		<g>
			<g>
				<g>
					<g>
						<path style="fill:#BFC8D6;" d="M3279.016,2891.244l-2703.099-23.365v69.134c0,18.764,11.79,34.719,27.757,37.563
							l764.356,136.136c9.071,1.615,18.27,2.044,27.423,1.278l1854.188-155.217c16.554-1.385,29.375-17.391,29.375-36.669V2891.244z
							"/>
						<g>
							<path style="fill:#BFC8D6;" d="M2284.271,2780.454L566.234,2906.926c-30.743,2.263-55.739-21.784-55.739-53.718V1573.835
								c0-31.933,24.996-57.821,55.739-57.821l60.78,35.032l1657.258-35.032c25.328,0,45.806,23.401,45.806,52.269v1156.53
								C2330.078,2753.68,2309.599,2778.589,2284.271,2780.454z"/>
							<path style="fill:#FFFFFF;" d="M2311.666,2780.454L593.628,2906.926c-30.744,2.263-55.74-21.784-55.74-53.718V1573.835
								c0-31.933,24.996-57.821,55.74-57.821h1718.037c25.328,0,45.806,23.401,45.806,52.269v1156.53
								C2357.472,2753.68,2336.994,2778.589,2311.666,2780.454z"/>
							<path style="fill:#D8DEE8;" d="M2258.144,2698.917L657.971,2808.774c-25.018,1.717-45.349-18.02-45.349-44.09V1644.592
								c0-26.069,20.331-47.291,45.349-47.399l1600.173-6.898c20.894-0.09,37.794,19.086,37.794,42.831V2653.33
								C2295.938,2677.073,2279.038,2697.483,2258.144,2698.917z"/>
							<path style="fill:#FFFFFF;" d="M1513.323,1551.008c0,11.888-8.843,21.552-19.762,21.587
								c-10.933,0.035-19.805-9.596-19.805-21.51s8.872-21.579,19.805-21.588
								C1504.481,1529.489,1513.323,1539.119,1513.323,1551.008z"/>
							<path style="opacity:0.48;fill:#FFFFFF;" d="M593.622,2906.926l1709.345-125.832l8.698-0.64
								c11.621-0.856,22.188-6.6,30.259-15.314c-123.006-6.732-199.408-50.383-248.692-95.488
								c-98.974-90.58-81.807-179.906-188.538-239.46c-133.123-74.283-237.797,19.842-338.817-73.026
								c-61.242-56.303-31.175-98.289-106.535-182.427c-83.466-93.19-137.807-61.865-221.689-145.736
								c-106.062-106.05-53.017-188.56-144.377-264.7c-110.833-92.37-230.361-6.876-335.865-95.462
								c-45.505-38.207-70.474-93.754-83.512-152.828h-80.271c-30.744,0-55.74,25.888-55.74,57.821v1279.374
								C537.888,2885.139,562.88,2909.185,593.622,2906.926z"/>
						</g>
						
							<linearGradient id="SVGID_00000117671425721160445960000006397512079384088193_" gradientUnits="userSpaceOnUse" x1="575.917" y1="2911.1787" x2="3279.0161" y2="2911.1787">
							<stop  offset="0.494" style="stop-color:#EBEFF2"/>
							<stop  offset="1" style="stop-color:#FFFFFF"/>
						</linearGradient>
						<path style="fill:url(#SVGID_00000117671425721160445960000006397512079384088193_);" d="M2392.612,2773.439L575.917,2906.563
							l792.113,141.08c9.071,1.615,18.27,2.045,27.423,1.278l1883.563-157.677l-857.505-116.9
							C2411.921,2773.036,2402.249,2772.733,2392.612,2773.439z"/>
						<polygon style="fill:#D8DEE8;" points="841.001,2907.708 2353.454,2795.227 2821.545,2858.525 1322.121,2978.763 						"/>
					</g>
				</g>
				<path style="fill:#FFFFFF;" d="M1361.272,2385.739V2007.95c0-24.252,20.535-39.391,38.275-28.255l316.373,198.597
					c19.732,12.387,19.732,47.47,0,58.658l-316.373,179.371C1381.807,2426.378,1361.272,2409.99,1361.272,2385.739z"/>
			</g>
			<g>
				<g>
					<g>
						
							<linearGradient id="SVGID_00000026842310795413843920000003520073312421728948_" gradientUnits="userSpaceOnUse" x1="1722.1213" y1="1253.2938" x2="1274.8865" y2="3134.1274">
							<stop  offset="0.0036" style="stop-color:#E38DDD"/>
							<stop  offset="1" style="stop-color:#9571F6"/>
						</linearGradient>
						<path style="fill:url(#SVGID_00000026842310795413843920000003520073312421728948_);" d="M2402.182,2575.387
							c0,39.129-28.99,72.508-64.881,74.56l-1568.222,89.686c-42.64,2.439-77.345-30.342-77.345-73.227V1404.4
							c0-42.885,34.704-77.117,77.345-76.461l1568.222,24.126c35.891,0.552,64.881,32.719,64.881,71.848V2575.387z"/>
						<path style="opacity:0.3;fill:#FFFFFF;" d="M2359.949,2543.99c0,36.963-26.957,68.439-60.93,70.31l-1478.128,81.396
							c-39.965,2.201-72.845-28.677-72.845-68.976V1445.788c0-40.299,33.119-72.543,73.084-72.02l1477.59,19.311
							c33.973,0.444,61.229,30.772,61.229,67.735V2543.99z"/>
						
							<linearGradient id="SVGID_00000160892516988654531610000016947690448196756920_" gradientUnits="userSpaceOnUse" x1="1642.1406" y1="1041.427" x2="1512.4387" y2="1586.8846">
							<stop  offset="0.0036" style="stop-color:#E38DDD"/>
							<stop  offset="1" style="stop-color:#9571F6"/>
						</linearGradient>
						<path style="fill:url(#SVGID_00000160892516988654531610000016947690448196756920_);" d="M2402.182,1426.857v57.779
							l-1710.448-13.685v-63.326c0-42.885,36.899-80.309,79.53-79.653l1567.899,24.121
							C2375.049,1352.646,2402.182,1387.727,2402.182,1426.857z"/>
						<g>
							<path style="fill:#FFFFFF;" d="M812.141,1402.738c0,16.54-13.335,29.815-29.809,29.65
								c-16.503-0.165-29.901-13.749-29.901-30.34c0-16.591,13.398-29.865,29.901-29.648
								C798.807,1372.615,812.141,1386.198,812.141,1402.738z"/>
							<path style="fill:#FFFFFF;" d="M902.575,1403.784c0,16.463-13.211,29.676-29.532,29.513
								c-16.349-0.164-29.622-13.684-29.622-30.197s13.274-29.726,29.622-29.512
								C889.365,1373.802,902.575,1387.321,902.575,1403.784z"/>
							<path style="fill:#FFFFFF;" d="M992.171,1404.82c0,16.386-13.089,29.539-29.258,29.377
								c-16.197-0.162-29.348-13.619-29.348-30.055s13.151-29.589,29.348-29.376C979.082,1374.978,992.171,1388.433,992.171,1404.82
								z"/>
						</g>
					</g>
					<g style="opacity:0.9;">
						<polygon style="fill:#FFFFFF;" points="1230.209,2597.154 804.357,2618.926 804.357,1549.679 1230.209,1551.377 						"/>
						<polygon style="fill:#FFFFFF;" points="2324.754,1857.837 1265.403,1871.411 1265.403,1551.519 2324.754,1555.768 						"/>
						<polygon style="fill:#FFFFFF;" points="1698.294,2225.328 1265.403,2239.286 1265.403,1919.395 1698.294,1912.735 						"/>
						<polygon style="fill:#FFFFFF;" points="1698.294,2573.088 1265.403,2595.166 1265.403,2275.274 1698.294,2260.495 						"/>
						<polygon style="fill:#FFFFFF;" points="2324.754,2541.27 1747.567,2570.635 1747.567,1912 2324.754,1903.148 						"/>
					</g>
				</g>
				<g>
					
						<linearGradient id="SVGID_00000122681127742075741500000005076832679351244988_" gradientUnits="userSpaceOnUse" x1="1956.4005" y1="1741.7778" x2="2063.542" y2="2501.5125">
						<stop  offset="0.0036" style="stop-color:#E38DDD"/>
						<stop  offset="1" style="stop-color:#9571F6"/>
					</linearGradient>
					<path style="fill:url(#SVGID_00000122681127742075741500000005076832679351244988_);" d="M2215.91,2315.325l-87.522-128.581
						c-0.881-1.294-2.364-2.057-3.948-2.031c-1.584,0.025-3.059,0.836-3.924,2.158l-49.542,75.777l-82.651-121.483
						c-0.883-1.298-2.375-2.065-3.972-2.042c-1.597,0.023-3.084,0.834-3.96,2.158l-119.885,181.271
						c-0.974,1.473-1.06,3.94-0.22,5.456c0.838,1.516,2.465,3.042,4.235,3.005l164.773-3.395l83.897-1.729l98.865-2.037
						c1.731-0.036,3.309-1.61,4.115-3.142C2216.977,2319.178,2216.874,2316.743,2215.91,2315.325z"/>
					
						<linearGradient id="SVGID_00000103977902821463199580000003794311607693879449_" gradientUnits="userSpaceOnUse" x1="2057.1118" y1="1706.2654" x2="2168.6067" y2="2496.8689">
						<stop  offset="0.0036" style="stop-color:#E38DDD"/>
						<stop  offset="1" style="stop-color:#9571F6"/>
					</linearGradient>
					<path style="fill:url(#SVGID_00000103977902821463199580000003794311607693879449_);" d="M2150.722,2105.049
						c0.155,21.868-16.402,39.86-37.005,40.167c-20.63,0.307-37.468-17.232-37.584-39.152
						c-0.115-21.897,16.503-39.837,37.094-40.091C2133.791,2065.719,2150.567,2083.205,2150.722,2105.049z"/>
				</g>
				
					<linearGradient id="SVGID_00000168795269315743307700000001302309326093628825_" gradientUnits="userSpaceOnUse" x1="1075.0448" y1="1437.6534" x2="927.172" y2="2013.0131">
					<stop  offset="0.0036" style="stop-color:#E38DDD"/>
					<stop  offset="1" style="stop-color:#9571F6"/>
				</linearGradient>
				<path style="fill:url(#SVGID_00000168795269315743307700000001302309326093628825_);" d="M1180.937,1655.759
					c0,22.127-19.047,40.118-40.688,40.196l-243.005,0.877c-22.246,0.08-40.096-18.095-40.096-40.597v-0.225
					c0-22.502,17.077-40.738,39.323-40.724l244.273,0.157c21.64,0.013,40.192,17.968,40.192,40.095V1655.759z"/>
				
					<linearGradient id="SVGID_00000073704330555671403220000005046956934875715984_" gradientUnits="userSpaceOnUse" x1="1613.7917" y1="2163.9729" x2="1618.0181" y2="2193.9414">
					<stop  offset="0.0036" style="stop-color:#E38DDD"/>
					<stop  offset="1" style="stop-color:#9571F6"/>
				</linearGradient>
				<path style="fill:url(#SVGID_00000073704330555671403220000005046956934875715984_);" d="M1673.867,2177.258
					c0,5.403-4.16,9.908-9.295,10.063l-97.222,2.935c-5.191,0.157-9.402-4.123-9.402-9.56l0,0c0-5.436,4.211-9.966,9.402-10.117
					l97.222-2.832C1669.707,2167.597,1673.867,2171.856,1673.867,2177.258L1673.867,2177.258z"/>
				
					<linearGradient id="SVGID_00000142866760335144202450000004023731798898920601_" gradientUnits="userSpaceOnUse" x1="1613.9203" y1="2514.2183" x2="1617.8894" y2="2542.3633">
					<stop  offset="0.0036" style="stop-color:#E38DDD"/>
					<stop  offset="1" style="stop-color:#9571F6"/>
				</linearGradient>
				<path style="fill:url(#SVGID_00000142866760335144202450000004023731798898920601_);" d="M1673.867,2525.505
					c0,5.403-4.16,9.986-9.295,10.237l-97.222,4.76c-5.191,0.254-9.402-3.947-9.402-9.383l0,0c0-5.436,4.211-10.045,9.402-10.294
					l97.222-4.657C1669.707,2515.922,1673.867,2520.102,1673.867,2525.505L1673.867,2525.505z"/>
				<g>
					
						<linearGradient id="SVGID_00000158751354770724538960000005034608595654730400_" gradientUnits="userSpaceOnUse" x1="2157.4229" y1="1801.8212" x2="2161.7026" y2="1832.1683">
						<stop  offset="0.0036" style="stop-color:#E38DDD"/>
						<stop  offset="1" style="stop-color:#9571F6"/>
					</linearGradient>
					<path style="fill:url(#SVGID_00000158751354770724538960000005034608595654730400_);" d="M2173.771,1816.845
						c0,8.478-6.353,15.422-14.197,15.511c-7.85,0.089-14.219-6.722-14.219-15.213s6.369-15.436,14.219-15.512
						C2167.417,1801.557,2173.771,1808.368,2173.771,1816.845z"/>
					
						<linearGradient id="SVGID_00000020361363199326213260000011391225165001703594_" gradientUnits="userSpaceOnUse" x1="2203.1248" y1="1801.3798" x2="2207.3936" y2="1831.6492">
						<stop  offset="0.0036" style="stop-color:#E38DDD"/>
						<stop  offset="1" style="stop-color:#9571F6"/>
					</linearGradient>
					<path style="fill:url(#SVGID_00000020361363199326213260000011391225165001703594_);" d="M2219.395,1816.366
						c0,8.456-6.321,15.383-14.125,15.472c-7.811,0.089-14.147-6.705-14.147-15.175c0-8.469,6.336-15.397,14.147-15.472
						C2213.074,1801.116,2219.395,1807.91,2219.395,1816.366z"/>
					
						<linearGradient id="SVGID_00000103980492544147749220000016684343763034304902_" gradientUnits="userSpaceOnUse" x1="2248.5959" y1="1800.9408" x2="2252.8538" y2="1831.1327">
						<stop  offset="0.0036" style="stop-color:#E38DDD"/>
						<stop  offset="1" style="stop-color:#9571F6"/>
					</linearGradient>
					<path style="fill:url(#SVGID_00000103980492544147749220000016684343763034304902_);" d="M2264.789,1815.889
						c0,8.435-6.289,15.344-14.053,15.432c-7.771,0.088-14.076-6.689-14.076-15.137c0-8.448,6.305-15.358,14.076-15.433
						C2258.5,1800.677,2264.789,1807.454,2264.789,1815.889z"/>
				</g>
				
					<linearGradient id="SVGID_00000054252334711999900660000013342618272165302662_" gradientUnits="userSpaceOnUse" x1="4221.6025" y1="-2722.5466" x2="3854.8052" y2="-1295.3726" gradientTransform="matrix(0 1 -1 0 -1162 -2229)">
					<stop  offset="0.0036" style="stop-color:#E38DDD"/>
					<stop  offset="1" style="stop-color:#9571F6"/>
				</linearGradient>
				<path style="fill:url(#SVGID_00000054252334711999900660000013342618272165302662_);" d="M1177.417,1760.292
					c0-8.966-8.832-16.2-17.587-16.146l-282.672,1.733c-9.025,0.055-16.491,7.488-16.491,16.603v183.484
					c0,9.114,6.593,16.373,15.618,16.216l283.908-4.887c8.755-0.151,17.224-7.537,17.224-16.503V1760.292z"/>
				
					<linearGradient id="SVGID_00000183957422819608793920000006491524094748592020_" gradientUnits="userSpaceOnUse" x1="1077.5626" y1="1905.9312" x2="923.0625" y2="2507.0769">
					<stop  offset="0.0036" style="stop-color:#E38DDD"/>
					<stop  offset="1" style="stop-color:#9571F6"/>
				</linearGradient>
				<path style="fill:url(#SVGID_00000183957422819608793920000006491524094748592020_);" d="M1180.937,2129.819
					c0,22.127-19.047,40.558-40.688,41.175l-243.005,6.932c-22.246,0.634-40.096-17.092-40.096-39.594v-0.225
					c0-22.502,17.077-41.185,39.323-41.726l244.273-5.901c21.64-0.525,40.192,16.991,40.192,39.117V2129.819z"/>
				
					<linearGradient id="SVGID_00000107587780084849987510000001840850538406972314_" gradientUnits="userSpaceOnUse" x1="4698.9063" y1="-2719.552" x2="4334.1362" y2="-1300.2645" gradientTransform="matrix(0 1 -1 0 -1162 -2229)">
					<stop  offset="0.0036" style="stop-color:#E38DDD"/>
					<stop  offset="1" style="stop-color:#9571F6"/>
				</linearGradient>
				<path style="fill:url(#SVGID_00000107587780084849987510000001840850538406972314_);" d="M1177.417,2234.448
					c0-8.966-8.832-16.019-17.587-15.747l-282.672,8.766c-9.025,0.28-16.491,7.896-16.491,17.01v183.484
					c0,9.114,6.593,16.192,15.618,15.812l283.908-11.924c8.755-0.37,17.224-7.935,17.224-16.901V2234.448z"/>
			</g>
		</g>
		<g>
			
				<linearGradient id="SVGID_00000054964678874883416330000003390612499766828727_" gradientUnits="userSpaceOnUse" x1="2636.873" y1="1779.0103" x2="2367.9194" y2="3068.5098" gradientTransform="matrix(-1 0 0 1 5316.605 0)">
				<stop  offset="0" style="stop-color:#AA80F9"/>
				<stop  offset="0.9964" style="stop-color:#6165D7"/>
			</linearGradient>
			<path style="fill:url(#SVGID_00000054964678874883416330000003390612499766828727_);" d="M2619.698,2148.696
				c-23.399-24.983,41.378-118.839,76.049-159.965c30.289-35.928,61.421-72.857,99.65-68.182
				c33.565,4.105,66.225,39.502,68.182,73.427C2868.842,2085.24,2652.962,2184.212,2619.698,2148.696z"/>
			
				<linearGradient id="SVGID_00000174576884299616538460000003571795967153642401_" gradientUnits="userSpaceOnUse" x1="-193.2604" y1="3167.7207" x2="-112.7134" y2="3167.7207" gradientTransform="matrix(0.9996 0.0289 -0.0289 0.9996 3110.9297 -31.2392)">
				<stop  offset="0" style="stop-color:#311944"/>
				<stop  offset="1" style="stop-color:#893976"/>
			</linearGradient>
			<path style="fill:url(#SVGID_00000174576884299616538460000003571795967153642401_);" d="M2900.645,3113.152
				c4.405,3.58,5.215,12.521,5.743,18.366c0.238,2.611,0.355,3.917,0.064,4.838c-2.128,6.726-15.173,7.434-35.629,9.524
				c-32.327,3.303-41.947,5.847-44.477,1.037c-2.371-4.508,3.367-11.89,4.013-12.704c3.473-4.375,7.737-5.967,15.979-8.68
				c15.251-5.02,25.556-7.769,28.677-8.601C2894.497,3111.731,2897.752,3110.801,2900.645,3113.152z"/>
			
				<linearGradient id="SVGID_00000072271513874137226570000010838845926822992022_" gradientUnits="userSpaceOnUse" x1="2878.1848" y1="3104.2117" x2="2907.0618" y2="3104.2117">
				<stop  offset="0" style="stop-color:#FFC444"/>
				<stop  offset="0.9964" style="stop-color:#F36F56"/>
			</linearGradient>
			<path style="fill:url(#SVGID_00000072271513874137226570000010838845926822992022_);" d="M2881.42,3083.619l-3.235,36.838
				c0.919,1.779,11.868,7.115,20.565,2.539l8.312-36.21L2881.42,3083.619z"/>
			
				<linearGradient id="SVGID_00000101101746523515176690000003644744675862284196_" gradientUnits="userSpaceOnUse" x1="366.7028" y1="3442.4004" x2="452.2788" y2="3442.4004" gradientTransform="matrix(0.9642 0.2651 -0.2651 0.9642 3123.7549 -308.9189)">
				<stop  offset="0" style="stop-color:#311944"/>
				<stop  offset="1" style="stop-color:#893976"/>
			</linearGradient>
			<path style="fill:url(#SVGID_00000101101746523515176690000003644744675862284196_);" d="M2644.272,3108.417
				c5.279,5.83,6.482,16.565,1.892,21.854c-4.512,5.2-11.298,1.3-30.541,1.874c-20.613,0.616-25.995,5.484-40.002,1.619
				c-5.659-1.564-15.653-5.358-15.463-9.399c0.133-2.842,5.221-4.309,22.216-10.003c24.123-8.08,24.017-8.522,29.139-9.371
				C2624.38,3102.861,2637.3,3100.72,2644.272,3108.417z"/>
			
				<linearGradient id="SVGID_00000038398356962862889810000009883675551317175435_" gradientUnits="userSpaceOnUse" x1="2620.7273" y1="3094.678" x2="2656.3926" y2="3094.678">
				<stop  offset="0" style="stop-color:#FFC444"/>
				<stop  offset="0.9964" style="stop-color:#F36F56"/>
			</linearGradient>
			<path style="fill:url(#SVGID_00000038398356962862889810000009883675551317175435_);" d="M2631.066,3074.798l-10.338,34.39
				c0.781,1.845,11.291,7.998,20.311,4.1l15.354-33.378L2631.066,3074.798z"/>
			
				<linearGradient id="SVGID_00000019675215919915542830000015127322875042422187_" gradientUnits="userSpaceOnUse" x1="2723.7473" y1="2968.167" x2="2495.5002" y2="2453.6433" gradientTransform="matrix(-1 0 0 1 5316.605 0)">
				<stop  offset="0" style="stop-color:#311944"/>
				<stop  offset="1" style="stop-color:#893976"/>
			</linearGradient>
			<path style="fill:url(#SVGID_00000019675215919915542830000015127322875042422187_);" d="M2722.924,2321.613
				c-1.481,115.575-9.368,245.526-28.292,386.71c-18.703,139.539-44.913,265.618-73.504,376.487
				c13.191,3.549,26.381,7.098,39.571,10.646c33.465-31.204,75.68-80.324,96.05-149.739c12.642-43.083,8.429-65.222,16.448-118.213
				c12.769-84.374,38.633-128.579,65.365-196.618c24.022-61.14,52.417-150.869,67.641-270.808
				C2845.11,2347.257,2784.017,2334.434,2722.924,2321.613z"/>
			
				<linearGradient id="SVGID_00000082370403826582762710000000055568088157309848_" gradientUnits="userSpaceOnUse" x1="2156.2068" y1="3172.3469" x2="1927.9636" y2="2657.8323" gradientTransform="matrix(-0.9925 -0.1225 -0.1225 0.9925 5233.6001 108.1241)">
				<stop  offset="0" style="stop-color:#311944"/>
				<stop  offset="1" style="stop-color:#893976"/>
			</linearGradient>
			<path style="fill:url(#SVGID_00000082370403826582762710000000055568088157309848_);" d="M2841.99,2310.584
				c8.073,146.992,14.713,296.721,19.745,449.101c3.777,114.346,6.55,227.242,8.392,338.652c13.473,1.663,26.947,3.328,40.422,4.99
				c13.019-24.24,30.312-61.299,42.158-108.799c14.387-57.689,11.056-91.948,17.365-151.739
				c7.08-67.06,17.362-81.669,35.579-166.264c36.972-171.682,55.459-257.524,14.216-310.921
				C3006.481,2348.27,2964.51,2304.784,2841.99,2310.584z"/>
			
				<linearGradient id="SVGID_00000119110906989486394860000017209810372308158638_" gradientUnits="userSpaceOnUse" x1="2543.7473" y1="1759.5865" x2="2274.7942" y2="3049.0835" gradientTransform="matrix(-1 0 0 1 5316.605 0)">
				<stop  offset="0" style="stop-color:#AA80F9"/>
				<stop  offset="0.9964" style="stop-color:#6165D7"/>
			</linearGradient>
			<path style="fill:url(#SVGID_00000119110906989486394860000017209810372308158638_);" d="M3038.361,1941.152
				c-31.554-8.873-77.799-19.25-134.435-22.451c-80.778-4.566-121.167-6.849-149.788,12.387
				c-66.104,44.429-14.926,146.97-41.985,401.162c-3.864,36.3-4.731,72.859-7.529,109.257c-4.634,60.265-5.689,63.536-1.496,69.644
				c26.295,38.294,124.4-19.466,268.193,3.366c80.455,12.775,116.944,42.208,138.986,20.979
				c25.705-24.756,3.656-91.343-15.324-148.665c-21.787-65.796-35.246-66.643-47.613-116.195
				c-12.926-51.793-5.108-78.46-3.095-160.134C3045.238,2071.422,3045.033,2013.263,3038.361,1941.152z"/>
			<g>
				
					<linearGradient id="SVGID_00000116924331881244556260000006325958430264089012_" gradientUnits="userSpaceOnUse" x1="2312.4495" y1="2862.4111" x2="2414.5232" y2="2377.5625" gradientTransform="matrix(-1 0 0 1 5316.605 0)">
					<stop  offset="0" style="stop-color:#AA80F9"/>
					<stop  offset="0.9964" style="stop-color:#6165D7"/>
				</linearGradient>
				<path style="fill:url(#SVGID_00000116924331881244556260000006325958430264089012_);" d="M2842.825,2418.364
					c37.583-2.941,61.964,18.307,94.406,1.748c44.486-22.706,58.779-93.354,55.944-143.356
					c-4.307-75.971-47.688-95.997-40.21-145.105c4.044-26.557,23.005-61.816,91.082-97.838c0.908,30.318,0.735,56.16,0.229,76.69
					c-2.013,81.674-9.832,108.341,3.095,160.134c12.367,49.552,25.826,50.399,47.613,116.195
					c18.98,57.321,41.03,123.908,15.324,148.665c-22.042,21.229-58.531-8.204-138.986-20.979
					c-123.899-19.674-213.828,20.438-253.176,7.429C2765.691,2443.378,2808.816,2421.025,2842.825,2418.364z"/>
			</g>
			
				<linearGradient id="SVGID_00000039115311305932870670000012363038748405972137_" gradientUnits="userSpaceOnUse" x1="2359.5042" y1="1721.1588" x2="2090.5508" y2="3010.6565" gradientTransform="matrix(-1 0 0 1 5316.605 0)">
				<stop  offset="0" style="stop-color:#AA80F9"/>
				<stop  offset="0.9964" style="stop-color:#6165D7"/>
			</linearGradient>
			<path style="fill:url(#SVGID_00000039115311305932870670000012363038748405972137_);" d="M2987.096,1946.368
				c26.841-22.055,80.812,2.911,95.239,9.584c80.454,37.214,152.689,137.497,134.791,243.476
				c-2.684,15.895-15.131,90.237-78.082,126.259c-56.801,32.502-133.499,24.143-194.951-21.891
				c-8.397-7.453-16.797-14.903-25.196-22.355c-8.261-8.93-16.526-17.861-24.787-26.792c12.988-10.803,35.055-26.388,66.047-36.388
				c40.861-13.185,70.608,10.474,89.567-7.513c13.084-12.413,13.113-34.338,9.883-47.626c-6.512-26.781-30.12-34.313-49.825-53.322
				C2963.488,2065.138,2954.958,1972.775,2987.096,1946.368z"/>
			<g>
				
					<linearGradient id="SVGID_00000165221149668915493090000010837023085458270602_" gradientUnits="userSpaceOnUse" x1="2588.8008" y1="2441.0811" x2="2545.2791" y2="2317.7695" gradientTransform="matrix(-1 0 0 1 5316.605 0)">
					<stop  offset="0" style="stop-color:#444B8C"/>
					<stop  offset="0.9964" style="stop-color:#26264F"/>
				</linearGradient>
				<polygon style="fill:url(#SVGID_00000165221149668915493090000010837023085458270602_);" points="2601.361,2292.341 
					2961.136,2286.97 2865.466,2333.142 2600.441,2315.797 				"/>
				
					<linearGradient id="SVGID_00000072962650831624747250000002243987620930396561_" gradientUnits="userSpaceOnUse" x1="2398.6741" y1="2262.4219" x2="2414.6321" y2="2372.6768" gradientTransform="matrix(-1 0 0 1 5316.605 0)">
					<stop  offset="0" style="stop-color:#444B8C"/>
					<stop  offset="0.9964" style="stop-color:#26264F"/>
				</linearGradient>
				<path style="fill:url(#SVGID_00000072962650831624747250000002243987620930396561_);" d="M2973.833,2296.531v0.001
					c0,6.733-4.213,12.747-10.541,15.048l-114.96,45.068l-0.524-31.245l113.328-38.434
					C2967.496,2285.142,2973.833,2289.916,2973.833,2296.531z"/>
			</g>
			
				<linearGradient id="SVGID_00000127016136380709840230000017406999700739814300_" gradientUnits="userSpaceOnUse" x1="2828.4927" y1="2279.7288" x2="2918.6826" y2="2279.7288">
				<stop  offset="0" style="stop-color:#FFC444"/>
				<stop  offset="0.9964" style="stop-color:#F36F56"/>
			</linearGradient>
			<path style="fill:url(#SVGID_00000127016136380709840230000017406999700739814300_);" d="M2918.434,2275.243
				c2.208-0.493-10.757-26.326-20.936-23.345c-10.176,2.982-59.956,31.831-64.481,43.71c-4.525,11.878-4.525,11.878-4.525,11.878
				s21.715,1.698,35.181-2.827C2877.141,2300.134,2900.479,2279.247,2918.434,2275.243z"/>
			<g>
				<g>
					
						<linearGradient id="SVGID_00000093149566597733340010000009751183282590297511_" gradientUnits="userSpaceOnUse" x1="2714.873" y1="2272.0786" x2="2630.0217" y2="2151.5896" gradientTransform="matrix(-1 0 0 1 5316.605 0)">
						<stop  offset="0" style="stop-color:#444B8C"/>
						<stop  offset="0.9964" style="stop-color:#26264F"/>
					</linearGradient>
					<path style="fill:url(#SVGID_00000093149566597733340010000009751183282590297511_);" d="M2838.264,2106.179l25.36,230.902
						c0.875,7.967-10.279,19.837-18.285,19.458l-372.026-22.839c-6.113-0.291-11.203-4.79-12.238-10.821l-46.694-223.011
						c-1.393-8.115,13.195-16.497,21.427-16.268l389.86,10.962C2832.178,2094.747,2837.554,2099.704,2838.264,2106.179z"/>
					
						<linearGradient id="SVGID_00000155143764728898612500000017198873279067232698_" gradientUnits="userSpaceOnUse" x1="2552.1128" y1="2471.4856" x2="2737.8059" y2="2094.2969" gradientTransform="matrix(-1 0 0 1 5316.605 0)">
						<stop  offset="0" style="stop-color:#444B8C"/>
						<stop  offset="0.9964" style="stop-color:#26264F"/>
					</linearGradient>
					<path style="fill:url(#SVGID_00000155143764728898612500000017198873279067232698_);" d="M2829.762,2112.911l25.36,230.904
						c0.875,7.967-5.575,14.83-13.582,14.453l-376.732-17.835c-6.112-0.29-11.202-4.79-12.238-10.82l-38.489-224.031
						c-1.394-8.117,4.99-15.479,13.221-15.247l389.861,10.962C2823.674,2101.479,2829.053,2106.438,2829.762,2112.911z"/>
				</g>
				
					<linearGradient id="SVGID_00000108267305059209929780000013086542059062249882_" gradientUnits="userSpaceOnUse" x1="2461.4033" y1="2229.3933" x2="2869.3452" y2="2229.3933" gradientTransform="matrix(-1 0 0 1 5316.605 0)">
					<stop  offset="0" style="stop-color:#444B8C"/>
					<stop  offset="0.9964" style="stop-color:#26264F"/>
				</linearGradient>
				<path style="opacity:0.3;fill:url(#SVGID_00000108267305059209929780000013086542059062249882_);" d="M2608.546,2286.327
					c32.895-13.942,21.284-40.529,60.129-73.658c51.245-43.705,103.477-24.751,121.763-58.626
					c5.694-10.551,8.414-26.968-1.505-53.539l28.231,0.794c6.51,0.181,11.889,5.14,12.598,11.614l25.36,230.904
					c0.874,7.966-5.577,14.83-13.582,14.453l-376.732-17.835c-6.112-0.29-11.202-4.788-12.238-10.82l-5.311-30.914
					c11.43-6.361,25.09-12.145,41.027-15.378C2543.557,2272.11,2570.674,2302.378,2608.546,2286.327z"/>
			</g>
			
				<linearGradient id="SVGID_00000017497961027787783300000004822441709705654207_" gradientUnits="userSpaceOnUse" x1="2440.9229" y1="2325.8633" x2="2501.7676" y2="2325.8633">
				<stop  offset="0" style="stop-color:#FFC444"/>
				<stop  offset="0.9964" style="stop-color:#F36F56"/>
			</linearGradient>
			<path style="fill:url(#SVGID_00000017497961027787783300000004822441709705654207_);" d="M2441.076,2308.137
				c-0.613-1.86,0.686-3.776,2.642-3.876c7.962-0.406,26.429-0.571,36.624,5.672c13.243,8.112,30.367,22.915,15.947,30.384
				l-13.465,6.976c-0.618,0.321-1.292,0.42-1.971,0.271c-4.785-1.052-24.923-5.52-27.126-6.629
				C2451.721,2339.926,2444.043,2317.139,2441.076,2308.137z"/>
			<g>
				
					<linearGradient id="SVGID_00000018221820735631110150000012058605444223137931_" gradientUnits="userSpaceOnUse" x1="2815.1348" y1="1897.8995" x2="2976.4807" y2="1897.8995">
					<stop  offset="0" style="stop-color:#FFC444"/>
					<stop  offset="0.9964" style="stop-color:#F36F56"/>
				</linearGradient>
				<path style="fill:url(#SVGID_00000018221820735631110150000012058605444223137931_);" d="M2897.894,1830.447
					c-0.201,23.948,2.471,42.94,4.999,55.946c2.895,14.902,4.981,18.752,7.644,21.876c4.008,4.702,10.081,8.647,44.397,17.157
					c18.674,4.629,21.076,4.503,21.489,6.356c2.011,9.04-48.909,39.851-101.517,32.425c-32.197-4.544-61.491-22.913-59.693-32.559
					c1.81-9.707,33.971-4.499,43.556-22.061c6.668-12.218-0.806-29.562-9.642-43.926
					C2857.686,1849.627,2889.337,1846.481,2897.894,1830.447z"/>
				<g>
					
						<linearGradient id="SVGID_00000033335471912083197130000011204836645907070608_" gradientUnits="userSpaceOnUse" x1="3484.7151" y1="1424.379" x2="3574.6289" y2="1424.379" gradientTransform="matrix(0.9816 0.1911 -0.1911 0.9816 -313.7797 -233.5091)">
						<stop  offset="0.0036" style="stop-color:#26264F"/>
						<stop  offset="1" style="stop-color:#444B8C"/>
					</linearGradient>
					<path style="fill:url(#SVGID_00000033335471912083197130000011204836645907070608_);" d="M2840.133,1832.552
						c-5.529-11.36-2.621-28.746,8.102-38.006c9.228-7.968,21.127-7.043,28.251-6.492c20.644,1.601,44.477,14.99,49.72,35.297
						c3.106,12.035-12.708,32.704-15.287,36.472c-2.92,4.259-6.882,5.143-10.945,8.002c-5.631,3.965-14.47,10.294-28.958,20.934
						c-0.184-4.008-0.675-9.021-1.92-14.594c-0.479-2.145-2.447-10.541-6.453-17.965
						C2854.62,1841.318,2845.375,1843.318,2840.133,1832.552z"/>
					
						<linearGradient id="SVGID_00000113346942292779243580000008433844714947645063_" gradientUnits="userSpaceOnUse" x1="3486.9741" y1="1448.2546" x2="3565.0125" y2="1448.2546" gradientTransform="matrix(0.9816 0.1911 -0.1911 0.9816 -313.7797 -233.5091)">
						<stop  offset="0" style="stop-color:#FFC444"/>
						<stop  offset="0.9964" style="stop-color:#F36F56"/>
					</linearGradient>
					<path style="fill:url(#SVGID_00000113346942292779243580000008433844714947645063_);" d="M2890.203,1881.174
						c0,0-17.513,19.19-43.605,12.325c-23.361-6.148-16.493-59.883,0.812-68.2c5.774-2.774,16.175-2.368,23.937,1.532
						c4.584,2.304,5.835,4.638,13.399,8.255c6.978,3.339,9.211,2.928,11.067,5.226c2.319,2.876,3.237,8.996-4.417,23.606
						c5.405-3.691,11.164-4.39,14.651-1.83c0.555,0.41,1.965,1.83,2.553,3.683
						C2910.728,1872.476,2903.686,1879.138,2890.203,1881.174z"/>
					
						<linearGradient id="SVGID_00000049940146139345221790000010325741959449884346_" gradientUnits="userSpaceOnUse" x1="3486.1953" y1="1454.2305" x2="3563.8662" y2="1454.2305" gradientTransform="matrix(0.9816 0.1911 -0.1911 0.9816 -313.7797 -233.5091)">
						<stop  offset="0.0036" style="stop-color:#26264F"/>
						<stop  offset="1" style="stop-color:#444B8C"/>
					</linearGradient>
					<path style="fill:url(#SVGID_00000049940146139345221790000010325741959449884346_);" d="M2897.501,1837.348
						c-1.307,0.629,1.353,5.565,0.438,11.641c-1.771,11.794-16.344,23.528-28.652,22.367c-7.277-0.687-8.401-5.373-19.962-8.918
						c-7.157-2.195-13.422-2.45-17.412-2.359c-6.207,12.106-5.208,25.574,2.211,33.177c7.986,8.186,20.533,6.607,25.778,5.946
						c3.509-0.442,14.749-1.836,22.16-10.451c7.721-8.979,3.259-16.166,11.191-21.711c4.001-2.797,8.666-3.438,14.223-9.278
						c1.509-1.588,2.593-3.04,3.275-4.026C2905.906,1846.077,2899.393,1836.437,2897.501,1837.348z"/>
					
						<linearGradient id="SVGID_00000076579081233992209930000003384624046045900458_" gradientUnits="userSpaceOnUse" x1="3494.4775" y1="1461.6642" x2="3511.6279" y2="1461.6642" gradientTransform="matrix(0.9816 0.1911 -0.1911 0.9816 -313.7797 -233.5091)">
						<stop  offset="0" style="stop-color:#FFC444"/>
						<stop  offset="0.9964" style="stop-color:#F36F56"/>
					</linearGradient>
					<path style="fill:url(#SVGID_00000076579081233992209930000003384624046045900458_);" d="M2839.576,1866.505
						c0,0,4.591,3.665,13.517,4.888c0.434,0.058,0.884,0.277,0.895,0.51c0.04,0.877-6.356,3.53-11.291,1.047
						c-3.503-1.765-5.703-5.834-5.031-6.63C2837.951,1865.985,2838.78,1866.198,2839.576,1866.505z"/>
				</g>
			</g>
		</g>
		<g>
			
				<linearGradient id="SVGID_00000152232757853024795630000009918102109349263273_" gradientUnits="userSpaceOnUse" x1="1747.4891" y1="2359.4668" x2="1834.3147" y2="2012.1638" gradientTransform="matrix(-1 0 0 1 2497.4333 0)">
				<stop  offset="0" style="stop-color:#FF9085"/>
				<stop  offset="1" style="stop-color:#FB6FBB"/>
			</linearGradient>
			<path style="fill:url(#SVGID_00000152232757853024795630000009918102109349263273_);" d="M694.618,2013.754
				c-6.589,2.49-107.079,42.454-127.735,147.337c-1.668,8.473-17.813,98.584,43.297,162.243
				c68.525,71.382,200.474,69.613,252.849,9.938c12.214-13.916,18.657-29.34,22.266-42.299l0,0l-13.8-36.663
				c-16.838-20.328-39.765-25.145-52.009-28.163c-30.185-7.439-52.975,6.006-70.262-8.551c-9.565-8.052-11.466-19.644-13.164-29.999
				c-5.781-35.268,14.124-56.977,15.573-78.726c1.083-16.259,6.774-51.883-14.447-75.114
				C723.75,2019.047,705.137,2015.042,694.618,2013.754z"/>
			
				<linearGradient id="SVGID_00000060745251759026351830000001902162046336708282_" gradientUnits="userSpaceOnUse" x1="1500.1534" y1="3198.4326" x2="1541.3407" y2="3235.0688" gradientTransform="matrix(-0.9902 -0.14 -0.14 0.9902 2600.2761 206.9384)">
				<stop  offset="0" style="stop-color:#444B8C"/>
				<stop  offset="0.9964" style="stop-color:#26264F"/>
			</linearGradient>
			<path style="fill:url(#SVGID_00000060745251759026351830000001902162046336708282_);" d="M655.462,3182.64
				c-1.172-6.457-22.024-12.301-32.348-3.653c-5.127,4.293-8.657,12.999-5.691,16.93c1.079,1.43-3.341,3.946,0.894,3.995
				C632.364,3200.076,656.628,3189.056,655.462,3182.64z"/>
			
				<linearGradient id="SVGID_00000161613594720761527780000011267353777475434141_" gradientUnits="userSpaceOnUse" x1="614.562" y1="3235.1211" x2="614.562" y2="3163.3694" gradientTransform="matrix(-0.9902 -0.14 -0.14 0.9902 1684.075 77.4224)">
				<stop  offset="0" style="stop-color:#FFC444"/>
				<stop  offset="0.9964" style="stop-color:#F36F56"/>
			</linearGradient>
			<path style="fill:url(#SVGID_00000161613594720761527780000011267353777475434141_);" d="M633.607,3184.99l-21.444-3.031
				c9.935-11.962,8.095-50.054,8.095-50.054l22.806,5.09c0,0-2.599,10.456-7.019,25.879
				C634.531,3168.153,633.856,3176.416,633.607,3184.99z"/>
			
				<linearGradient id="SVGID_00000154417960930317471370000011664122603953104316_" gradientUnits="userSpaceOnUse" x1="1504.2942" y1="3193.7783" x2="1545.4812" y2="3230.4143" gradientTransform="matrix(-0.9902 -0.14 -0.14 0.9902 2600.2761 206.9384)">
				<stop  offset="0" style="stop-color:#444B8C"/>
				<stop  offset="0.9964" style="stop-color:#26264F"/>
			</linearGradient>
			<path style="fill:url(#SVGID_00000154417960930317471370000011664122603953104316_);" d="M635.509,3182.348
				c0,0-25.819-5.948-28.611-0.827c-2.793,5.122-4.961,18.834,11.419,18.391C634.698,3199.47,636.964,3186.69,635.509,3182.348z"/>
			
				<linearGradient id="SVGID_00000057862420406268002790000015075806997664744068_" gradientUnits="userSpaceOnUse" x1="1538.8671" y1="3186.7781" x2="1580.0562" y2="3223.416" gradientTransform="matrix(-1 0 0 1 2497.4333 0)">
				<stop  offset="0" style="stop-color:#444B8C"/>
				<stop  offset="0.9964" style="stop-color:#26264F"/>
			</linearGradient>
			<path style="fill:url(#SVGID_00000057862420406268002790000015075806997664744068_);" d="M949.709,3206.852
				c-2.064-6.229-23.529-9.097-32.542,0.911c-4.474,4.969-6.752,14.082-3.265,17.559c1.269,1.266-2.755,4.375,1.444,3.832
				C929.277,3227.349,951.76,3213.041,949.709,3206.852z"/>
			
				<linearGradient id="SVGID_00000159438416916006362570000003996669097132960411_" gradientUnits="userSpaceOnUse" x1="653.2322" y1="3223.489" x2="653.2322" y2="3151.7341" gradientTransform="matrix(-1 0 0 1 1572.123 0)">
				<stop  offset="0" style="stop-color:#FFC444"/>
				<stop  offset="0.9964" style="stop-color:#F36F56"/>
			</linearGradient>
			<path style="fill:url(#SVGID_00000159438416916006362570000003996669097132960411_);" d="M928.396,3212.237h-21.657
				c8.163-13.235,1.01-50.695,1.01-50.695l23.294,1.848c0,0-1.109,10.717-3.328,26.607
				C926.956,3195.437,927.443,3203.713,928.396,3212.237z"/>
			
				<linearGradient id="SVGID_00000078733093366002400770000007998784903070902463_" gradientUnits="userSpaceOnUse" x1="700.5847" y1="3256.3933" x2="432.0033" y2="2171.999" gradientTransform="matrix(1 0 0 1 221.6861 0)">
				<stop  offset="0" style="stop-color:#444B8C"/>
				<stop  offset="0.9964" style="stop-color:#26264F"/>
			</linearGradient>
			<path style="fill:url(#SVGID_00000078733093366002400770000007998784903070902463_);" d="M984.526,2393.223
				c10.032,33.131,24.36,86.604,33.583,153.693c26.307,191.36-29.607,197.465-19.165,409.516
				c3.333,67.688-58.64,223.769-64.103,227.215c-2.644,0.256-5.511,0.428-8.571,0.336c-5.39-0.163-12.99-0.989-21.828-3.639
				c-9.817-1.691-45.212-97.56-37.008-154.559c5.806-40.343,4.122-83.637,0.757-170.229c-0.545-14.03-36.443-272.973-36.443-272.973
				l0,0c-10.92,95.846-23.477,177.285-34.365,240.425c-34.978,202.859-148.707,325.644-154.639,327.613
				c-1.172,0.471-11.844,4.347-20.568-1.403c-3.884-2.56-5.205-5.862-5.205-5.862c-3.042-2.383,0.897-202.532,35.586-353.163
				c50.351-218.638,28.426-269.795,44.378-367.453C710.737,2338.24,984.526,2393.223,984.526,2393.223z"/>
			
				<linearGradient id="SVGID_00000024698914139830786580000001883030111235278768_" gradientUnits="userSpaceOnUse" x1="1140.2717" y1="2447.9739" x2="461.1381" y2="1975.6613">
				<stop  offset="0" style="stop-color:#FF9085"/>
				<stop  offset="1" style="stop-color:#FB6FBB"/>
			</linearGradient>
			<path style="fill:url(#SVGID_00000024698914139830786580000001883030111235278768_);" d="M998.011,2426.254
				c-30.236,15.517-108.11,43.324-200.923,29.511c-41.149-6.127-74.285-19.577-98.032-31.904c-0.724-0.363-1.45-0.725-2.139-1.087
				c24.109-72.908,5.221-111.918-3.698-147.882c-12.724-51.264-12.907-47.385-23.385-88.135
				c-17.256-67.216-20.085-135.882-8.23-149.913c31.978-37.886,89.622-39.263,119.532-40.17
				c33.426-0.979,110.286-12.762,152.595,25.306c0.726,0.652-7.94,5.293-3.661,10.296c3.951,4.641,17.547,20.919,29.873,42.889
				c8.918,15.916,17.003,34.478,25.125,62.104c14.321,48.762,18.453,90.31,19.83,108.401c0.436,5.982,0.836,11.783,1.197,17.366
				C1011.716,2352.875,1004.573,2396.235,998.011,2426.254z"/>
			
				<linearGradient id="SVGID_00000023264176412671385630000004365358249983485585_" gradientUnits="userSpaceOnUse" x1="1543.0085" y1="3182.1243" x2="1584.1967" y2="3218.7612" gradientTransform="matrix(-1 0 0 1 2497.4333 0)">
				<stop  offset="0" style="stop-color:#444B8C"/>
				<stop  offset="0.9964" style="stop-color:#26264F"/>
			</linearGradient>
			<path style="fill:url(#SVGID_00000023264176412671385630000004365358249983485585_);" d="M929.91,3209.355
				c0,0-26.397-2.276-28.445,3.186c-2.048,5.461-2.276,19.343,13.881,16.612C931.504,3226.422,931.959,3213.451,929.91,3209.355z"/>
			<g>
				
					<linearGradient id="SVGID_00000095327777075083828000000006140185388850764190_" gradientUnits="userSpaceOnUse" x1="1667.3683" y1="1740.1726" x2="1890.4183" y2="2020.798" gradientTransform="matrix(-0.9976 0.0697 0.0697 0.9976 2456.6868 20.5189)">
					<stop  offset="0" style="stop-color:#FFC444"/>
					<stop  offset="0.9964" style="stop-color:#F36F56"/>
				</linearGradient>
				<path style="fill:url(#SVGID_00000095327777075083828000000006140185388850764190_);" d="M877.353,1953.953
					c9.109-18.187,3.112-37.815,1.773-42.054c-5.606-17.746-7.413-20.37-11.03-23.955l-5.087-4.677c0,0-0.309-0.199-0.636-0.392
					c-3.451-2.035-16.009-4.858-18.673-4.805c-8.511,0.167-23.646,31.789-30.253,79.351c-0.685,1.729-1.362,3.475-2.03,5.239
					c-4.159,10.976-7.633,21.728-10.531,32.177c-56.981,8.853-64.466,16.134-64.45,20.035c0.034,8.213,33.354,15.377,58.167,17.257
					c54.115,4.099,108.191-13.878,107.241-23.849c-0.413-4.341-11.456-9.264-57.282-12.036c0.537-7.588,1.074-15.177,1.61-22.766
					C849.804,1972.4,870.644,1967.352,877.353,1953.953z"/>
				<path style="fill:#26264F;" d="M882.534,1873.164c-2.865,14.577-12.745,28.828-16.73,30.655
					c-0.514,0.236-3.448,1.755-6.398,4.751c-0.402,0.407-0.782,0.902-1.164,1.563c-4.97,8.575,7.557,22.214,3.941,25.786
					c-2.623,2.59-11.785-3.32-13.464-0.97c-1.581,2.211,5.703,8.83,3.878,11.492c-1.378,2.01-6.07-0.978-9.923,1.764
					c-1.92,1.365-1.707,2.783-4.387,7.574c-1.516,2.709-3.465,5.617-4.843,7.179c-6.695,7.591-21.576,7.963-23.662,4.005
					c-0.58-1.103,0.231-1.778,0.069-5.135c0,0-0.15-3.111-1.555-6.945c-2.005-5.478-8.457-10.363-14.651-16.932
					c-11.469-12.165-13.511-21.041-14.064-24.014c-0.196-1.058-0.294-1.848-0.363-2.417c-1.388-11.42,1.645-27.215,8.354-35.994
					c11.238-14.706,28.013-3.455,46.076-16.688c20.84-15.267,15.475-42.672,25.378-43.672
					C869.942,1814.061,887.831,1846.21,882.534,1873.164z"/>
				
					<linearGradient id="SVGID_00000044179111344162260790000005114422234240684685_" gradientUnits="userSpaceOnUse" x1="1676.7775" y1="1732.6952" x2="1899.8223" y2="2013.3141" gradientTransform="matrix(-0.9976 0.0697 0.0697 0.9976 2456.6868 20.5189)">
					<stop  offset="0" style="stop-color:#FFC444"/>
					<stop  offset="0.9964" style="stop-color:#F36F56"/>
				</linearGradient>
				<path style="fill:url(#SVGID_00000044179111344162260790000005114422234240684685_);" d="M857.601,1931.478
					c-2.627-5.603-9.8-2.2-11.063,4.149c-1.265,6.348,3.618,14.145,9.835,14.044C862.59,1949.569,861.136,1939.018,857.601,1931.478
					z"/>
			</g>
			<g>
				
					<linearGradient id="SVGID_00000018217531187167735970000014887525423449949591_" gradientUnits="userSpaceOnUse" x1="669.6348" y1="2284.5803" x2="710.6474" y2="2284.5803">
					<stop  offset="0" style="stop-color:#FF9085"/>
					<stop  offset="1" style="stop-color:#FB6FBB"/>
				</linearGradient>
				<path style="fill:url(#SVGID_00000018217531187167735970000014887525423449949591_);" d="M707.584,2377.61
					c-0.068,0-0.144-0.004-0.213-0.011c-1.071-0.118-1.838-1.083-1.717-2.15c3.927-35.374-3.411-61.105-9.882-83.809
					c-1.588-5.56-3.13-10.957-4.444-16.285c-7.201-29.035-10.353-40.258-13.695-52.142c-2.195-7.797-4.436-15.788-7.938-29.221
					c-0.266-1.041,0.357-2.1,1.39-2.37c1.048-0.296,2.112,0.357,2.378,1.39c3.486,13.399,5.727,21.371,7.915,29.149
					c3.35,11.914,6.51,23.164,13.718,52.259c1.314,5.287,2.841,10.638,4.413,16.153c6.57,23.05,14.022,49.172,10.004,85.309
					C709.407,2376.873,708.564,2377.61,707.584,2377.61z"/>
			</g>
			
				<linearGradient id="SVGID_00000019671967178080810750000003341148185215919783_" gradientUnits="userSpaceOnUse" x1="699.0556" y1="2348.2437" x2="1008.1265" y2="2348.2437">
				<stop  offset="0" style="stop-color:#FF9085"/>
				<stop  offset="1" style="stop-color:#FB6FBB"/>
			</linearGradient>
			<path style="opacity:0.2;fill:url(#SVGID_00000019671967178080810750000003341148185215919783_);" d="M998.011,2426.254
				c-30.236,15.517-108.11,43.324-200.923,29.511c-41.149-6.127-74.285-19.577-98.032-31.904
				c10.768-8.375,24.038-22.406,45.971-46.261c26.575-28.859,57.717-18.091,76.025-7.215c13.197,7.795,29.549,8.012,42.927,0.616
				c13.413-7.432,21.898-21.39,22.296-36.69c0.218-7.033-0.11-15.045-0.979-24.109c-6.272-65.657,84.69-71.24,84.69-71.24
				c12.834-6.671,25.017,4.097,36.109,24.073C1011.716,2352.875,1004.573,2396.235,998.011,2426.254z"/>
			
				<linearGradient id="SVGID_00000013913671521565405260000016347623854541216643_" gradientUnits="userSpaceOnUse" x1="1246.7865" y1="2139.571" x2="1308.4109" y2="2217.1025">
				<stop  offset="0" style="stop-color:#FFC444"/>
				<stop  offset="0.9964" style="stop-color:#F36F56"/>
			</linearGradient>
			<path style="fill:url(#SVGID_00000013913671521565405260000016347623854541216643_);" d="M1316,2133.774
				c-3.659,0.351-8.088,4.059-11.201,5.824c-4.425,2.51-8.882,4.975-13.393,7.325c-8.71,4.537-17.934,7.904-27.896,7.719
				c0.277-1.419,0.769-2.844,1.33-4.202c1.686-3.948,3.912-7.358,2.583-8.542c-1.901-1.723-10.265,1.831-17.981,9.224
				c-3.123,2.943-6.102,6.568-8.542,10.696c-3.938,6.71-3.274,10.381-6.569,15.498c-4.898,4.391-8.574,5.355-8.574,5.355v1.4
				l0.554,1.723c-4.38,3.338-9.325,5.312-13.2,6.604c6.819,1.831,13.48,3.697,20.264,5.563l4.713,7.861
				c0,0,25.704-5.384,41.211-14.788c7.25-4.415,9.746-9.87,10.356-14.393c0.431-3.015-0.008-5.599-0.402-7.25
				c-0.323-1.184-0.614-1.902-0.614-1.902s21.174-8.793,29.537-27.817C1319.442,2136.8,1319.564,2133.432,1316,2133.774z"/>
			
				<linearGradient id="SVGID_00000035511830402673814090000000679345090433001627_" gradientUnits="userSpaceOnUse" x1="1931.6797" y1="2485.5605" x2="1282.6381" y2="2034.1758" gradientTransform="matrix(-1 0 0 1 2497.4333 0)">
				<stop  offset="0" style="stop-color:#FF9085"/>
				<stop  offset="1" style="stop-color:#FB6FBB"/>
			</linearGradient>
			<path style="fill:url(#SVGID_00000035511830402673814090000000679345090433001627_);" d="M1226.302,2174.763
				c12.089,8.459,18.572,19.948,21.933,27.281c-8.888,20.861-29.046,59.598-70.769,88.145
				c-68.41,46.807-168.719,48.382-238.586-4.998c-83.473-63.773-97.42-186.064-62.36-238.435
				c4.036-6.029,17.306-25.85,37.905-28.124c13.009-1.437,30.716,3.928,58.692,36.682c58.293,68.252,37.703,110.867,72.142,130.835
				C1096.902,2216.092,1173.644,2137.913,1226.302,2174.763z"/>
		</g>
	</g>
</g>
</svg>
