<?xml version="1.0" encoding="utf-8"?>
<!-- Generator: Adobe Illustrator 27.5.0, SVG Export Plug-In . SVG Version: 6.00 Build 0)  -->
<svg version="1.1" xmlns="http://www.w3.org/2000/svg" xmlns:xlink="http://www.w3.org/1999/xlink" x="0px" y="0px"
	 viewBox="0 0 3710 3710" style="enable-background:new 0 0 3710 3710;" xml:space="preserve">
<g id="Background">
	<g>
		<g>
			<rect style="fill:#FFFFFF;" width="3710" height="3710"/>
		</g>
	</g>
</g>
<g id="Illustration">
	<g>
		<path style="fill:#F4F7FA;" d="M3197.591,1637.573c-75.464-493.947-384.866-1100.796-996.123-1164.303
			c0,0-464.095-56.45-921.592,29.106c-271.524,50.777-509.611,201.93-660.263,419.175
			c-150.653,217.245-200.976,482.145-139.903,734.695c39.666,164.033,66.471,333.802,59.115,502.356
			c-12.803,293.352-5.437,567.176,279.255,742.123c254.197,156.209,574.108,293.979,879.307,318.109
			c207.411,16.399,440.01-10.138,639.916-64.138C3356.065,2879.496,3273.055,2131.519,3197.591,1637.573z"/>
		<g>
			<g>
				<path style="fill:#D8DEE8;" d="M2061.06,2622.845c-19.739-1.589-61.28-22.447-69.867-32.349
					c-57.146-65.897-172.155-182.322-171.176-274.525c0.168-15.747,69.639-33.71,78.777-48.597
					c41.513-22.204,57.291-27.332,86.387-67.827c85.898-119.555-133.107-325.693,105.901-413.4
					c175.07-64.243,328.161-10.252,295.724-285.28c-32.438-275.028,162.119-788.436,462.793-610.006
					c172.559,102.402,14.122,345.257,108.52,514.193c89.702,160.533,26.51,299.307-143.458,406.449
					c-169.969,107.141-72.966,178.521-14.641,332.377c70.06,184.814-217.162,232.021-351.624,242.502
					C2340.116,2394.825,2070.095,2489.371,2061.06,2622.845z"/>
				<g>
					<defs>
						<path id="SVGID_1_" d="M1774.442,2294.359c48.238,127.29,92.081,258.805,139.966,387.253
							c77.633,2.537,169.014,3.629,181.537-92.272c17.411-133.333,244.435-195.353,352.67-203.211
							c133.96-9.726,421.561-57.659,351.417-242.284c-58.396-153.699-155.321-225.249,14.641-332.354
							c169.962-107.105,233.117-245.893,143.446-406.448c-94.365-168.959,64.031-411.694-108.52-514.186
							c-300.661-178.587-495.291,335.273-462.756,609.9c32.534,274.626-121.022,222.306-295.664,285.083
							c-238.424,85.703-21.591,299.167-105.411,411.166C1920.057,2284.806,1864.308,2272.04,1774.442,2294.359z"/>
					</defs>
					<use xlink:href="#SVGID_1_"  style="overflow:visible;fill:#D8DEE8;"/>
					<clipPath id="SVGID_00000019650505292377216360000008601533672902931108_">
						<use xlink:href="#SVGID_1_"  style="overflow:visible;"/>
					</clipPath>
					<g style="opacity:0.8;clip-path:url(#SVGID_00000019650505292377216360000008601533672902931108_);">
						<g>
							<path style="fill:#D8DEE8;" d="M1908.248,2460.688l-1.64-2.993c568.83-311.995,890.91-927.658,861.568-1646.896l3.413-0.14
								c13.899,340.727-54.068,670.699-196.549,954.244c-73.397,146.06-165.959,278.605-275.118,393.952
								C2186.323,2278.894,2054.545,2380.447,1908.248,2460.688z"/>
						</g>
						<g>
							<path style="fill:#D8DEE8;" d="M2209.886,2243.919l-1.14-3.216c175.829-62.194,458.544-74.315,630.217-27.021l-0.906,3.29
								C2666.953,2169.839,2385.158,2181.927,2209.886,2243.919z"/>
						</g>
						<g>
							<path style="fill:#D8DEE8;" d="M2019.094,2398.244l-2.407-2.42c68.591-68.192,100.069-168.418,93.57-297.896
								c-4.767-94.889-29.446-203-73.354-321.328l3.2-1.187c44.028,118.655,68.777,227.107,73.56,322.343
								C2120.216,2228.243,2088.397,2329.342,2019.094,2398.244z"/>
						</g>
						<g>
							<path style="fill:#D8DEE8;" d="M2593.763,1723.772l-2.527-2.293c122.442-134.929,309.061-178.449,444.055-191.195l0.32,3.396
								C2901.22,1546.371,2715.471,1589.653,2593.763,1723.772z"/>
						</g>
						<g>
							<path style="fill:#D8DEE8;" d="M2728.504,1329.037l-3.413-0.083c4.963-205.476-121.542-380.209-197.395-466.077l2.56-2.26
								C2606.436,946.86,2733.494,1122.396,2728.504,1329.037z"/>
						</g>
					</g>
				</g>
			</g>
		</g>
		<g>
			<g>
				<defs>
					<path id="SVGID_00000114764315349889712510000012403051655351228070_" d="M2130.438,2801.081
						c-94.347,2.638-188.973,3.146-283.801,1.518c-1.255,1.611-66.535-193.002,9.999-314.531
						c152.083-236.104-6.434-396.158-61.495-497.828c-84.509-142.16-87.448-332.48,86.399-327.287
						c168.679,1.14,134.339-339.676,60.578-593.92c-46.246-121.924,45.884-295.912,158.52-351.769
						c114.45-60.067,249.403-2.005,330.681,242.94c107.31,281.288-74.315,494.208-127.342,654.01
						c-52.234,156.904,148.239,241.195,25.594,393.639c-102.102,134.245-241.521,242.353-160.401,374.186
						C2251.549,2511.996,2257.853,2628.973,2130.438,2801.081z"/>
				</defs>
				<clipPath id="SVGID_00000095317726794482805870000008913106041224978840_">
					<use xlink:href="#SVGID_00000114764315349889712510000012403051655351228070_"  style="overflow:visible;"/>
				</clipPath>
			</g>
			<g>
				<defs>
					<path id="SVGID_00000101800953410190115680000013329139689941145994_" d="M2130.438,2801.081
						c-94.347,2.638-188.973,3.146-283.801,1.518c-1.255,1.611-66.535-193.002,9.999-314.531
						c152.083-236.104-6.434-396.158-61.495-497.828c-84.509-142.16-87.448-332.48,86.399-327.287
						c168.679,1.14,134.339-339.676,60.578-593.92c-46.246-121.924,45.884-295.912,158.52-351.769
						c114.45-60.067,249.403-2.005,330.681,242.94c107.31,281.288-74.315,494.208-127.342,654.01
						c-52.234,156.904,148.239,241.195,25.594,393.639c-102.102,134.245-241.521,242.353-160.401,374.186
						C2251.549,2511.996,2257.853,2628.973,2130.438,2801.081z"/>
				</defs>
				<use xlink:href="#SVGID_00000101800953410190115680000013329139689941145994_"  style="overflow:visible;fill:#BFC6D1;"/>
				<clipPath id="SVGID_00000139977818371887489110000004579701041201951873_">
					<use xlink:href="#SVGID_00000101800953410190115680000013329139689941145994_"  style="overflow:visible;"/>
				</clipPath>
				<path style="clip-path:url(#SVGID_00000139977818371887489110000004579701041201951873_);fill:#BFC6D1;" d="M2130.438,2801.081
					c-94.347,2.638-188.973,3.146-283.801,1.518c-1.255,1.611-66.535-193.002,9.999-314.531
					c152.083-236.104-6.434-396.158-61.495-497.828c-83.91-142.149-82.809-312.24,71.666-341.9
					c170.74-36.26,151.912-326.101,75.312-579.307c-46.246-121.924,45.884-295.912,158.52-351.769
					c114.45-60.067,249.403-2.005,330.681,242.94c107.31,281.288-74.315,494.208-127.342,654.01
					c-52.234,156.904,148.239,241.195,25.594,393.639c-102.102,134.245-241.521,242.353-160.401,374.186
					C2251.549,2511.996,2257.853,2628.973,2130.438,2801.081z"/>
				<g style="opacity:0.8;clip-path:url(#SVGID_00000139977818371887489110000004579701041201951873_);">
					<g>
						<path style="fill:#BFC6D1;" d="M2005.974,2835.128c-0.34-1.768,13.609-437.578,93.246-873.675
							c9.28-69.964,20.269-140.806,30.899-209.315c59.218-381.746,115.152-742.322-76.153-1098.893l3.007-1.613
							c86.146,160.563,129.334,338.503,132.034,543.984c2.413,183.606-27.036,373.451-55.514,557.045
							c-10.626,68.49-21.612,139.313-30.899,209.323c-76.397,418.359-94.399,859.473-93.253,872.599L2005.974,2835.128z"/>
					</g>
					<g>
						<path style="fill:#BFC6D1;" d="M2180.94,1398.148l-2.893-1.81c82.513-131.944,177.772-315.585,228.95-414.243
							c39.582-76.307,41.388-79.247,43.592-79.29l0.066,3.413l-0.033-1.707l0.923,1.393c-2.343,2.238-19.629,35.567-41.518,77.762
							C2358.83,1082.368,2263.527,1266.087,2180.94,1398.148z"/>
					</g>
					<g>
						<path style="fill:#BFC6D1;" d="M2184.807,1236.497c-44.208-126.983-113.165-203.47-163.226-245.275
							c-55.054-45.971-100.629-62.032-105.662-62.032c-0.047,0-0.09,0.002-0.13,0.005c0.003,0,0.363-0.03,0.717-0.368l-2.36-2.467
							c0.767-0.735,1.857-0.767,4.457-0.14c12.209,2.937,59.257,22.002,113.449,69.469
							c68.271,59.793,122.208,142.676,155.983,239.685L2184.807,1236.497z"/>
					</g>
					<g>
						<path style="fill:#BFC6D1;" d="M2056.039,2244.573c-14.759-265.744-234.127-477.452-327.756-556.139
							c-4.65-3.908-6.563-5.523-7.143-6.213l2.613-2.197c0.413,0.492,3.2,2.833,6.726,5.796
							c67.38,56.629,126.545,118.203,175.849,183.016c94.673,124.448,146.191,250.801,153.117,375.546L2056.039,2244.573z"/>
					</g>
					<g>
						<path style="fill:#BFC6D1;" d="M2078.425,2109.132l-3.167-1.267c78.807-197.153,308.354-250.391,311.167-250.391
							c0.003,0,0.01,0,0.013,0l1.53,1.355l-0.863,1.855l-0.807-1.478l0.137,1.667
							C2384.229,1861.164,2156.718,1913.27,2078.425,2109.132z"/>
					</g>
					<g>
						<path style="fill:#BFC6D1;" d="M2009.257,2763.758c-7.356-53.256-42.118-140.127-165.96-251.539
							c-6.656-5.99-6.656-5.99-6.69-6.981l1.707-0.053l1.44-0.883c0.37,0.473,2.9,2.747,5.827,5.382
							c124.608,112.1,159.623,199.788,167.056,253.609L2009.257,2763.758z"/>
					</g>
					<g>
						<path style="fill:#BFC6D1;" d="M2018.48,2659.521l-3.393-0.37c10.683-98.408,129.574-190.037,199.498-235.898
							c2.257-1.482,3.713-2.432,4.223-2.818l2.06,2.72c-0.533,0.403-2.05,1.403-4.413,2.953
							C2147.038,2471.638,2029.013,2562.506,2018.48,2659.521z"/>
					</g>
				</g>
			</g>
			<g>
				<defs>
					<path id="SVGID_00000083806743041577883340000000989382869791784833_" d="M2130.438,2801.081
						c-94.347,2.638-188.973,3.146-283.801,1.518c-1.255,1.611-66.535-193.002,9.999-314.531
						c152.083-236.104-6.434-396.158-61.495-497.828c-84.509-142.16-87.448-332.48,86.399-327.287
						c168.679,1.14,134.339-339.676,60.578-593.92c-46.246-121.924,45.884-295.912,158.52-351.769
						c114.45-60.067,249.403-2.005,330.681,242.94c107.31,281.288-74.315,494.208-127.342,654.01
						c-52.234,156.904,148.239,241.195,25.594,393.639c-102.102,134.245-241.521,242.353-160.401,374.186
						C2251.549,2511.996,2257.853,2628.973,2130.438,2801.081z"/>
				</defs>
				<clipPath id="SVGID_00000152962828697390674480000005793301182428305803_">
					<use xlink:href="#SVGID_00000083806743041577883340000000989382869791784833_"  style="overflow:visible;"/>
				</clipPath>
			</g>
		</g>
		<g>
			<g>
				<path style="fill:#26264F;" d="M3208.433,2662.626l-2686.906-22.903v67.766c0,18.393,11.719,34.033,27.591,36.82
					l759.777,133.443c9.017,1.584,18.161,2.004,27.259,1.252l1843.081-152.147c16.454-1.358,29.198-17.047,29.198-35.944V2662.626z"
					/>
				<g>
					<path style="fill:#26264F;" d="M2233.365,2554.028l-1684.053,123.97c-30.135,2.218-54.637-21.354-54.637-52.655V1371.276
						c0-31.302,24.502-56.677,54.637-56.677h1684.053c24.827,0,44.9,22.938,44.9,51.235v1133.653
						C2278.265,2527.783,2258.192,2552.2,2233.365,2554.028z"/>
					
						<linearGradient id="SVGID_00000026126912857199629150000009977323896831010442_" gradientUnits="userSpaceOnUse" x1="521.5269" y1="1996.3711" x2="2305.1172" y2="1996.3711">
						<stop  offset="0" style="stop-color:#444B8C"/>
						<stop  offset="0.9964" style="stop-color:#26264F"/>
					</linearGradient>
					<path style="fill:url(#SVGID_00000026126912857199629150000009977323896831010442_);" d="M2260.217,2554.028l-1684.053,123.97
						c-30.136,2.218-54.637-21.354-54.637-52.655V1371.276c0-31.302,24.501-56.677,54.637-56.677h1684.053
						c24.828,0,44.9,22.938,44.9,51.235v1133.653C2305.117,2527.783,2285.045,2552.2,2260.217,2554.028z"/>
					
						<linearGradient id="SVGID_00000125584619388324542270000013629768577832645510_" gradientUnits="userSpaceOnUse" x1="594.7827" y1="1984.6501" x2="2244.8008" y2="1984.6501">
						<stop  offset="0.0036" style="stop-color:#E38DDD"/>
						<stop  offset="1" style="stop-color:#9571F6"/>
					</linearGradient>
					<path style="fill:url(#SVGID_00000125584619388324542270000013629768577832645510_);" d="M2207.755,2474.104l-1568.52,107.685
						c-24.523,1.683-44.452-17.664-44.452-43.217V1440.634c0-25.554,19.929-46.355,44.452-46.461l1568.52-6.762
						c20.48-0.089,37.046,18.708,37.046,41.983v1000.024C2244.801,2452.692,2228.235,2472.698,2207.755,2474.104z"/>
					<path style="fill:#FFFFFF;" d="M1477.667,1348.901c0,11.652-8.668,21.126-19.371,21.16
						c-10.717,0.034-19.414-9.406-19.414-21.084s8.697-21.153,19.414-21.161C1468.999,1327.808,1477.667,1337.248,1477.667,1348.901
						z"/>
					<path style="opacity:0.48;fill:#FFFFFF;" d="M576.158,2677.998l1675.533-123.343l8.526-0.627
						c11.391-0.839,21.749-6.469,29.66-15.011c-120.573-6.598-195.464-49.387-243.773-93.599
						c-97.016-88.788-80.188-176.347-184.809-234.723c-130.49-72.813-233.094,19.45-332.115-71.582
						c-60.031-55.19-30.559-96.345-104.427-178.818c-81.815-91.347-135.081-60.641-217.304-142.853
						c-103.964-103.952-51.968-184.83-141.521-259.464c-108.641-90.543-225.804-6.74-329.221-93.573
						c-44.605-37.451-69.08-91.899-81.86-149.805h-78.683c-30.135,0-54.638,25.376-54.638,56.677v1254.067
						C521.527,2656.642,546.024,2680.212,576.158,2677.998z"/>
				</g>
				
					<linearGradient id="SVGID_00000098210064344872686460000005758261855990977454_" gradientUnits="userSpaceOnUse" x1="521.5269" y1="2682.1667" x2="3208.4331" y2="2682.1667">
					<stop  offset="0" style="stop-color:#444B8C"/>
					<stop  offset="0.9964" style="stop-color:#26264F"/>
				</linearGradient>
				<path style="fill:url(#SVGID_00000098210064344872686460000005758261855990977454_);" d="M2327.339,2547.152l-1805.813,130.49
					l787.368,138.289c9.017,1.583,18.161,2.004,27.259,1.253l1872.279-154.558l-852.368-114.588
					C2346.532,2546.757,2336.918,2546.46,2327.339,2547.152z"/>
				<polygon style="fill:#26264F;" points="785.023,2678.764 2288.416,2568.509 2753.702,2630.555 1263.261,2748.414 				"/>
			</g>
		</g>
		<g>
			<g>
				
					<linearGradient id="SVGID_00000175302136476373764600000015676117840314868367_" gradientUnits="userSpaceOnUse" x1="675.3524" y1="1676.873" x2="2549.2344" y2="1676.873">
					<stop  offset="0" style="stop-color:#AB316D"/>
					<stop  offset="1" style="stop-color:#792D3D"/>
				</linearGradient>
				<path style="fill:url(#SVGID_00000175302136476373764600000015676117840314868367_);" d="M2549.234,1109.964v1121.521
					c0,30.075-19.674,32.302-44.799,33.557l-623.728,39.415l-1131.395,71.469l-15.095,0.962
					c-32.47,1.646-58.896-24.889-58.866-59.25l0.761-1184.366l-0.029-96.841c0.029-34.329,26.279-61.019,58.749-59.592l2.111,0.101
					l421.082,18.241l1346.44,58.4C2529.591,1054.661,2549.234,1079.921,2549.234,1109.964z"/>
				<g>
					<g>
						<g>
							<path style="fill:#FFFFFF;" d="M2573.086,1199.778V2230.42c0,30.146-19.649,55.582-44.808,56.834l-644.222,32.347
								l-1126.519,56.544c-2.844,0.146-5.578,0.062-8.304-0.22c-28.518-2.878-50.733-27.76-50.704-59.17l0.583-1177.389v-9.131
								l503.108,18.641l1346.232,49.972L2573.086,1199.778z"/>
							
								<linearGradient id="SVGID_00000009577423723074931400000013183318610383644823_" gradientUnits="userSpaceOnUse" x1="1779.7014" y1="873.0736" x2="997.629" y2="2151.5928">
								<stop  offset="0" style="stop-color:#FF9085"/>
								<stop  offset="1" style="stop-color:#FB6FBB"/>
							</linearGradient>
							<path style="fill:url(#SVGID_00000009577423723074931400000013183318610383644823_);" d="M2573.086,1106.863v92.914
								l-24.508-0.795L1202.366,1155.6l-503.255-16.234v-9.131l0.338-97.018c0-26.296,15.565-48.109,37.371-56.277
								c6.712-2.525,14.073-3.754,21.724-3.421l397.098,17.237l1372.652,59.62
								C2553.422,1051.455,2573.086,1076.752,2573.086,1106.863z"/>
							<path style="fill:#FFFFFF;" d="M836.042,1056.889c-0.009,15.152-11.579,27.016-25.866,26.499
								c-14.314-0.518-25.93-13.265-25.92-28.47c0.01-15.205,11.641-27.067,25.955-26.496
								C824.498,1028.993,836.052,1041.737,836.042,1056.889z"/>
						</g>
					</g>
				</g>
			</g>
			<g>
				<polygon style="fill:#D8DEE8;" points="2448.943,1622.06 861.809,1618.602 861.809,1275.511 2448.943,1316.842 				"/>
				<polygon style="fill:#D8DEE8;" points="1541.034,2226.173 861.809,2254.75 861.809,1754.409 1541.034,1749.453 				"/>
				<polygon style="fill:#D8DEE8;" points="2448.943,2187.983 1680.975,2220.255 1680.975,1748.44 2448.943,1742.875 				"/>
			</g>
			<path style="opacity:0.3;fill:#D8DEE8;" d="M1884.382,2319.603l-1126.684,56.543c-2.844,0.147-5.658,0.062-8.385-0.221
				l-15.095,0.962c-32.47,1.646-58.896-24.889-58.866-59.25l0.761-1184.366l-0.029-96.841c0.029-34.329,26.279-61.019,58.749-59.592
				l2.111,0.101c6.712-2.525,14.01-3.754,21.661-3.421l397.067,17.237c0.823,1.464,1.589,2.928,2.354,4.426
				c21.19,40.2,39.262,91.424,44.443,153.695c0.177,2.23,0.352,4.461,0.47,6.723c4.534,67.133-5.945,146.761-43.237,238.907
				c-103.003,254.721,11.566,507.818,167.1,608.429c4.804,3.121,9.638,6.074,14.532,8.863c47.822,27.58,98.91,40.762,148.342,35.314
				c89.98-9.916,180.597,10.848,253.24,60.198c9.291,6.322,18.288,13.078,26.959,20.331
				c51.42,42.968,91.074,102.213,110.833,176.815C1882.042,2309.439,1883.257,2314.489,1884.382,2319.603z"/>
		</g>
		<g>
			<g>
				
					<linearGradient id="SVGID_00000029745444987127523860000013540683118017643951_" gradientUnits="userSpaceOnUse" x1="660.2504" y1="3118.3804" x2="1511.8035" y2="3118.3804">
					<stop  offset="0" style="stop-color:#F57E53"/>
					<stop  offset="0.0045" style="stop-color:#F58152"/>
					<stop  offset="0.042" style="stop-color:#F99A4D"/>
					<stop  offset="0.084" style="stop-color:#FCAD49"/>
					<stop  offset="0.1333" style="stop-color:#FEBA46"/>
					<stop  offset="0.1962" style="stop-color:#FFC244"/>
					<stop  offset="0.3183" style="stop-color:#FFC444"/>
					<stop  offset="0.455" style="stop-color:#FDB946"/>
					<stop  offset="0.6941" style="stop-color:#F99C4C"/>
					<stop  offset="0.9964" style="stop-color:#F36F56"/>
				</linearGradient>
				<path style="fill:url(#SVGID_00000029745444987127523860000013540683118017643951_);" d="M723.528,3053.321v82.09
					c0,26.526,165.699,48.029,370.098,48.029c204.401,0,370.1-21.502,370.1-48.029v-82.09H723.528z"/>
				
					<linearGradient id="SVGID_00000025422618373474711270000010661422943172884155_" gradientUnits="userSpaceOnUse" x1="1089.9404" y1="3022.4558" x2="1134.8335" y2="3398.2766">
					<stop  offset="0" style="stop-color:#FFDB44"/>
					<stop  offset="1" style="stop-color:#FEEF06"/>
				</linearGradient>
				<path style="fill:url(#SVGID_00000025422618373474711270000010661422943172884155_);" d="M1463.726,3053.321
					c0,26.526-165.698,48.029-370.1,48.029c-204.4,0-370.098-21.503-370.098-48.029c0-26.525,165.699-48.03,370.098-48.03
					C1298.028,3005.291,1463.726,3026.795,1463.726,3053.321z"/>
				
					<linearGradient id="SVGID_00000009590234100949670860000004099194794503361933_" gradientUnits="userSpaceOnUse" x1="1087.9882" y1="3005.6958" x2="1101.7755" y2="3121.1165">
					<stop  offset="0" style="stop-color:#FFDB44"/>
					<stop  offset="1" style="stop-color:#FEEF06"/>
				</linearGradient>
				<path style="fill:url(#SVGID_00000009590234100949670860000004099194794503361933_);" d="M1093.626,3104.662
					c-181.023,0-370.314-17.29-370.314-50.64c0-1.831,0.653-5.051,2.485-5.051c1.832,0,1.044,2.518,1.044,4.349
					c0,21.15,150.634,44.714,366.785,44.714s366.785-23.563,366.785-44.714c0-1.831,0.313-3.548,2.144-3.548
					c1.831,0,1.39,2.444,1.39,4.276C1463.945,3087.398,1274.649,3104.662,1093.626,3104.662z"/>
				<g>
					<path style="fill:#FCB048;" d="M1058.654,3055.998c3.631-2.514,7.495-4.991,11.632-7.441c4.097-2.444,9.435-4.653,15.899-6.626
						c6.502-1.975,14.635-3.58,24.398-4.825c9.762-1.246,21.969-1.902,36.543-1.973c14.304-0.07,27.718,0.385,40.283,1.364
						c12.525,0.975,23.58,2.439,33.125,4.386c9.507,1.946,17.271,4.353,23.255,7.214c5.945,2.87,9.488,6.152,10.63,9.854
						l41.673,0.421c3.024,0.02,5.7,0.264,7.989,0.74c2.328,0.475,3.456,1.074,3.459,1.802l0.017,3.431l-53.574-0.516
						c-1.879,4.202-6.667,8.046-14.364,11.533c-7.657,3.49-17.45,6.508-29.377,9.063l-19.511-2.714
						c-1.745-0.267-3.181-0.606-4.308-1.02c-1.125-0.409-1.671-0.855-1.673-1.342c-0.003-0.66,1.505-1.412,4.525-2.256
						c3.019-0.848,6.426-1.897,10.218-3.148c3.793-1.245,7.506-2.719,11.181-4.421c3.636-1.698,6.068-3.728,7.336-6.091
						l-126.452-1.254c-3.322,2.445-7.07,4.845-11.167,7.206c-4.137,2.36-9.591,4.485-16.405,6.372
						c-6.813,1.886-15.295,3.417-25.444,4.596c-10.19,1.176-22.939,1.801-38.366,1.877c-11.59,0.057-22.873-0.383-33.924-1.315
						c-11.052-0.936-20.866-2.334-29.442-4.196c-8.576-1.866-15.603-4.172-21.121-6.916c-5.479-2.748-8.557-5.902-9.194-9.47
						l-34.307-0.353c-3.023-0.018-5.699-0.255-8.105-0.713c-2.366-0.458-3.571-1.066-3.575-1.827l-0.016-3.432l46.905,0.446
						c2.076-3.614,6.324-6.766,12.824-9.447c6.499-2.685,14.434-5.072,23.804-7.162l15.71,2.157c4.771,0.67,7.139,1.454,7.144,2.355
						c0.002,0.487-0.965,1.088-2.937,1.808c-2.013,0.721-4.334,1.582-7.043,2.581c-2.669,1.003-5.299,2.176-7.813,3.524
						c-2.552,1.346-4.444,2.87-5.714,4.577L1058.654,3055.998z M942.93,3060.674c0.942,2.251,3.044,4.187,6.231,5.817
						c3.186,1.635,7.147,2.973,11.921,4.024c4.773,1.051,10.126,1.82,16.058,2.312c5.972,0.491,12.215,0.722,18.726,0.691
						c7.597-0.037,14.224-0.366,19.881-0.982c5.617-0.621,10.575-1.457,14.873-2.519c4.259-1.062,8.013-2.291,11.184-3.693
						c3.172-1.404,5.994-2.924,8.544-4.565L942.93,3060.674z M1218.211,3057.605c-0.941-2.28-3.238-4.278-6.813-5.995
						c-3.574-1.713-8.156-3.159-13.705-4.325c-5.548-1.17-12.026-2.039-19.432-2.608c-7.368-0.569-15.509-0.834-24.425-0.79
						c-7.907,0.038-14.767,0.394-20.461,1.06c-5.695,0.672-10.653,1.567-14.872,2.701c-4.181,1.129-7.78,2.446-10.679,3.949
						c-2.938,1.504-5.683,3.113-8.193,4.825L1218.211,3057.605z"/>
				</g>
				
					<linearGradient id="SVGID_00000048487131142584297200000010082048720233002386_" gradientUnits="userSpaceOnUse" x1="568.3004" y1="1018.8235" x2="582.0388" y2="1133.834" gradientTransform="matrix(-1 0 0 -1 1669.249 4127.8389)">
					<stop  offset="0.0036" style="stop-color:#F36F56"/>
					<stop  offset="0.3059" style="stop-color:#F99C4C"/>
					<stop  offset="0.545" style="stop-color:#FDB946"/>
					<stop  offset="0.6817" style="stop-color:#FFC444"/>
					<stop  offset="0.8038" style="stop-color:#FFC244"/>
					<stop  offset="0.8667" style="stop-color:#FEBA46"/>
					<stop  offset="0.916" style="stop-color:#FCAD49"/>
					<stop  offset="0.958" style="stop-color:#F99A4D"/>
					<stop  offset="0.9955" style="stop-color:#F58152"/>
					<stop  offset="1" style="stop-color:#F57E53"/>
				</linearGradient>
				<path style="fill:url(#SVGID_00000048487131142584297200000010082048720233002386_);" d="M1093.677,3010.491
					c-165.021,0-336.844,14.521-364.329,42.631c1.076,0.992,2.076,2.05,3.005,3.163c23.165-19.518,165.043-39.168,361.324-39.168
					c201.319,0,345.472,20.675,362.934,40.672c0.858-1.097,1.774-2.146,2.767-3.135
					C1436.678,3025.549,1261.629,3010.491,1093.677,3010.491z"/>
			</g>
			<g>
				
					<linearGradient id="SVGID_00000028326894584243857960000017844628065184638865_" gradientUnits="userSpaceOnUse" x1="557.3642" y1="3032.155" x2="1408.9182" y2="3032.155">
					<stop  offset="0" style="stop-color:#F57E53"/>
					<stop  offset="0.0045" style="stop-color:#F58152"/>
					<stop  offset="0.042" style="stop-color:#F99A4D"/>
					<stop  offset="0.084" style="stop-color:#FCAD49"/>
					<stop  offset="0.1333" style="stop-color:#FEBA46"/>
					<stop  offset="0.1962" style="stop-color:#FFC244"/>
					<stop  offset="0.3183" style="stop-color:#FFC444"/>
					<stop  offset="0.455" style="stop-color:#FDB946"/>
					<stop  offset="0.6941" style="stop-color:#F99C4C"/>
					<stop  offset="0.9964" style="stop-color:#F36F56"/>
				</linearGradient>
				<path style="fill:url(#SVGID_00000028326894584243857960000017844628065184638865_);" d="M620.642,2967.096v82.09
					c0,26.526,165.699,48.029,370.1,48.029c204.4,0,370.099-21.502,370.099-48.029v-82.09H620.642z"/>
				
					<linearGradient id="SVGID_00000059269368101272623920000002157954731043825054_" gradientUnits="userSpaceOnUse" x1="987.0547" y1="2936.2312" x2="1031.9478" y2="3312.0525">
					<stop  offset="0" style="stop-color:#FFDB44"/>
					<stop  offset="1" style="stop-color:#FEEF06"/>
				</linearGradient>
				
					<ellipse style="fill:url(#SVGID_00000059269368101272623920000002157954731043825054_);" cx="990.742" cy="2967.096" rx="370.099" ry="48.029"/>
				
					<linearGradient id="SVGID_00000010280110342937743250000006603258550190367659_" gradientUnits="userSpaceOnUse" x1="985.1025" y1="2919.4714" x2="998.8898" y2="3034.8914">
					<stop  offset="0" style="stop-color:#FFDB44"/>
					<stop  offset="1" style="stop-color:#FEEF06"/>
				</linearGradient>
				<path style="fill:url(#SVGID_00000010280110342937743250000006603258550190367659_);" d="M990.74,3018.437
					c-181.022,0-370.314-17.29-370.314-50.639c0-1.832,0.654-5.05,2.485-5.05c1.832,0,1.044,2.517,1.044,4.348
					c0,21.15,150.634,44.714,366.785,44.714s366.785-23.564,366.785-44.714c0-1.831,0.313-3.547,2.143-3.547
					c1.832,0,1.39,2.444,1.39,4.276C1361.059,3001.173,1171.763,3018.437,990.74,3018.437z"/>
				<g>
					<path style="fill:#FCB048;" d="M955.769,2969.773c3.631-2.514,7.496-4.991,11.631-7.44c4.097-2.445,9.436-4.655,15.899-6.628
						c6.502-1.974,14.635-3.58,24.397-4.824c9.762-1.245,21.97-1.902,36.545-1.974c14.303-0.07,27.717,0.384,40.281,1.364
						c12.525,0.975,23.58,2.439,33.126,4.385c9.506,1.947,17.271,4.354,23.254,7.214c5.944,2.869,9.488,6.152,10.63,9.853
						l41.673,0.422c3.023,0.019,5.699,0.265,7.989,0.74c2.328,0.475,3.455,1.075,3.459,1.802l0.016,3.431l-53.574-0.516
						c-1.879,4.202-6.666,8.046-14.363,11.532c-7.658,3.49-17.451,6.509-29.377,9.063l-19.511-2.714
						c-1.745-0.266-3.182-0.606-4.307-1.02c-1.127-0.408-1.672-0.855-1.674-1.341c-0.003-0.66,1.504-1.412,4.524-2.256
						c3.019-0.848,6.425-1.898,10.218-3.147c3.792-1.246,7.507-2.72,11.181-4.421c3.635-1.698,6.067-3.728,7.334-6.091
						l-126.452-1.254c-3.321,2.446-7.07,4.846-11.167,7.206c-4.136,2.359-9.591,4.485-16.404,6.372
						c-6.814,1.887-15.295,3.417-25.445,4.597c-10.188,1.175-22.939,1.801-38.366,1.876c-11.59,0.056-22.872-0.384-33.924-1.315
						c-11.052-0.937-20.866-2.334-29.442-4.197c-8.576-1.866-15.603-4.171-21.121-6.916c-5.479-2.749-8.557-5.902-9.194-9.47
						l-34.307-0.352c-3.024-0.019-5.7-0.255-8.105-0.714c-2.367-0.458-3.572-1.065-3.576-1.827l-0.017-3.432l46.906,0.448
						c2.076-3.616,6.324-6.767,12.823-9.448c6.499-2.685,14.434-5.072,23.805-7.162l15.71,2.156
						c4.771,0.671,7.139,1.455,7.144,2.356c0.003,0.487-0.963,1.087-2.937,1.808c-2.011,0.721-4.333,1.583-7.041,2.582
						c-2.67,1.003-5.301,2.176-7.814,3.525c-2.551,1.345-4.443,2.868-5.714,4.576L955.769,2969.773z M840.044,2974.448
						c0.941,2.25,3.044,4.187,6.231,5.817c3.187,1.635,7.147,2.973,11.92,4.024c4.773,1.052,10.126,1.821,16.06,2.312
						c5.971,0.491,12.214,0.723,18.726,0.691c7.598-0.037,14.224-0.366,19.881-0.982c5.618-0.62,10.575-1.457,14.872-2.519
						c4.258-1.061,8.013-2.289,11.184-3.693c3.172-1.403,5.994-2.923,8.545-4.564L840.044,2974.448z M1115.326,2971.381
						c-0.942-2.28-3.239-4.279-6.813-5.996c-3.575-1.713-8.155-3.159-13.704-4.324c-5.549-1.17-12.027-2.04-19.434-2.608
						c-7.368-0.569-15.509-0.834-24.424-0.79c-7.908,0.039-14.767,0.394-20.462,1.061c-5.695,0.67-10.652,1.566-14.872,2.699
						c-4.18,1.13-7.779,2.446-10.679,3.95c-2.939,1.504-5.684,3.112-8.195,4.825L1115.326,2971.381z"/>
				</g>
				
					<linearGradient id="SVGID_00000164488643243884991960000004137114110578746284_" gradientUnits="userSpaceOnUse" x1="671.1854" y1="1105.0477" x2="684.924" y2="1220.0596" gradientTransform="matrix(-1 0 0 -1 1669.249 4127.8389)">
					<stop  offset="0.0036" style="stop-color:#F36F56"/>
					<stop  offset="0.3059" style="stop-color:#F99C4C"/>
					<stop  offset="0.545" style="stop-color:#FDB946"/>
					<stop  offset="0.6817" style="stop-color:#FFC444"/>
					<stop  offset="0.8038" style="stop-color:#FFC244"/>
					<stop  offset="0.8667" style="stop-color:#FEBA46"/>
					<stop  offset="0.916" style="stop-color:#FCAD49"/>
					<stop  offset="0.958" style="stop-color:#F99A4D"/>
					<stop  offset="0.9955" style="stop-color:#F58152"/>
					<stop  offset="1" style="stop-color:#F57E53"/>
				</linearGradient>
				<path style="fill:url(#SVGID_00000164488643243884991960000004137114110578746284_);" d="M990.792,2924.265
					c-165.021,0-336.844,14.521-364.328,42.631c1.076,0.992,2.075,2.05,3.004,3.163c23.166-19.518,165.044-39.167,361.324-39.167
					c201.319,0,345.471,20.675,362.933,40.673c0.858-1.097,1.775-2.147,2.768-3.136
					C1333.793,2939.324,1158.744,2924.265,990.792,2924.265z"/>
			</g>
			<g>
				
					<linearGradient id="SVGID_00000047769071473959873530000008879822918346185652_" gradientUnits="userSpaceOnUse" x1="646.1409" y1="2946.1826" x2="1497.6948" y2="2946.1826">
					<stop  offset="0" style="stop-color:#F57E53"/>
					<stop  offset="0.0045" style="stop-color:#F58152"/>
					<stop  offset="0.042" style="stop-color:#F99A4D"/>
					<stop  offset="0.084" style="stop-color:#FCAD49"/>
					<stop  offset="0.1333" style="stop-color:#FEBA46"/>
					<stop  offset="0.1962" style="stop-color:#FFC244"/>
					<stop  offset="0.3183" style="stop-color:#FFC444"/>
					<stop  offset="0.455" style="stop-color:#FDB946"/>
					<stop  offset="0.6941" style="stop-color:#F99C4C"/>
					<stop  offset="0.9964" style="stop-color:#F36F56"/>
				</linearGradient>
				<path style="fill:url(#SVGID_00000047769071473959873530000008879822918346185652_);" d="M709.419,2881.124v82.089
					c0,26.526,165.699,48.029,370.099,48.029c204.4,0,370.1-21.502,370.1-48.029v-82.089H709.419z"/>
				
					<linearGradient id="SVGID_00000179618870194824442490000011780147736395649679_" gradientUnits="userSpaceOnUse" x1="1075.8308" y1="2850.2583" x2="1120.7239" y2="3226.0796">
					<stop  offset="0" style="stop-color:#FFDB44"/>
					<stop  offset="1" style="stop-color:#FEEF06"/>
				</linearGradient>
				<path style="fill:url(#SVGID_00000179618870194824442490000011780147736395649679_);" d="M1449.617,2881.123
					c0,26.526-165.699,48.029-370.099,48.029s-370.1-21.504-370.1-48.029c0-26.526,165.7-48.029,370.1-48.029
					S1449.617,2854.597,1449.617,2881.123z"/>
				
					<linearGradient id="SVGID_00000062907803363709945990000000458701410627131568_" gradientUnits="userSpaceOnUse" x1="1073.8789" y1="2833.498" x2="1087.6663" y2="2948.9185">
					<stop  offset="0" style="stop-color:#FFDB44"/>
					<stop  offset="1" style="stop-color:#FEEF06"/>
				</linearGradient>
				<path style="fill:url(#SVGID_00000062907803363709945990000000458701410627131568_);" d="M1079.517,2932.464
					c-181.022,0-370.314-17.291-370.314-50.64c0-1.832,0.653-5.051,2.485-5.051c1.831,0,1.043,2.518,1.043,4.35
					c0,21.149,150.634,44.713,366.785,44.713s366.785-23.564,366.785-44.713c0-1.832,0.313-3.548,2.143-3.548
					c1.832,0,1.39,2.444,1.39,4.276C1449.835,2915.2,1260.539,2932.464,1079.517,2932.464z"/>
				<g>
					<path style="fill:#FCB048;" d="M1044.545,2883.8c3.631-2.514,7.496-4.991,11.631-7.44c4.097-2.445,9.436-4.655,15.9-6.628
						c6.502-1.975,14.635-3.58,24.397-4.825c9.762-1.245,21.97-1.902,36.544-1.973c14.303-0.07,27.718,0.384,40.281,1.363
						c12.526,0.975,23.58,2.44,33.125,4.386c9.507,1.946,17.271,4.354,23.255,7.214c5.944,2.869,9.488,6.152,10.63,9.853
						l41.673,0.422c3.024,0.019,5.699,0.264,7.989,0.74c2.328,0.476,3.455,1.075,3.459,1.802l0.016,3.431l-53.573-0.516
						c-1.879,4.203-6.667,8.047-14.364,11.532c-7.658,3.491-17.451,6.509-29.376,9.063l-19.512-2.714
						c-1.745-0.266-3.182-0.606-4.307-1.02c-1.126-0.408-1.671-0.855-1.674-1.341c-0.003-0.661,1.505-1.413,4.525-2.256
						c3.019-0.848,6.425-1.897,10.218-3.147c3.792-1.246,7.507-2.72,11.181-4.422c3.635-1.697,6.068-3.727,7.334-6.09
						l-126.452-1.254c-3.321,2.445-7.07,4.845-11.167,7.205c-4.136,2.36-9.591,4.486-16.404,6.372
						c-6.814,1.887-15.295,3.417-25.445,4.597c-10.189,1.175-22.939,1.801-38.367,1.876c-11.59,0.056-22.872-0.384-33.924-1.315
						c-11.052-0.936-20.867-2.334-29.442-4.197c-8.576-1.866-15.603-4.171-21.121-6.916c-5.479-2.749-8.556-5.903-9.194-9.47
						l-34.307-0.352c-3.024-0.019-5.699-0.256-8.105-0.714c-2.367-0.458-3.572-1.066-3.576-1.827l-0.016-3.432l46.905,0.447
						c2.076-3.615,6.325-6.766,12.824-9.448c6.499-2.685,14.434-5.072,23.804-7.161l15.71,2.156c4.771,0.67,7.14,1.455,7.144,2.356
						c0.003,0.486-0.963,1.087-2.937,1.808c-2.011,0.72-4.333,1.583-7.042,2.582c-2.67,1.003-5.3,2.176-7.813,3.524
						c-2.552,1.345-4.444,2.869-5.714,4.576L1044.545,2883.8z M928.821,2888.477c0.941,2.25,3.044,4.186,6.231,5.816
						c3.186,1.634,7.147,2.973,11.919,4.025c4.773,1.052,10.126,1.82,16.06,2.312c5.972,0.491,12.214,0.723,18.726,0.691
						c7.598-0.038,14.224-0.366,19.881-0.982c5.618-0.619,10.576-1.456,14.872-2.518c4.259-1.061,8.013-2.29,11.185-3.694
						c3.172-1.403,5.994-2.924,8.545-4.565L928.821,2888.477z M1204.102,2885.408c-0.942-2.28-3.238-4.279-6.812-5.996
						c-3.575-1.712-8.156-3.158-13.705-4.324c-5.549-1.17-12.027-2.04-19.434-2.608c-7.367-0.569-15.509-0.834-24.425-0.79
						c-7.908,0.039-14.767,0.394-20.462,1.061c-5.695,0.67-10.652,1.566-14.871,2.7c-4.181,1.129-7.78,2.445-10.68,3.949
						c-2.939,1.504-5.683,3.112-8.195,4.825L1204.102,2885.408z"/>
				</g>
				
					<linearGradient id="SVGID_00000024706664714444764710000002531187259985329569_" gradientUnits="userSpaceOnUse" x1="582.4094" y1="1191.0204" x2="596.1479" y2="1306.032" gradientTransform="matrix(-1 0 0 -1 1669.249 4127.8389)">
					<stop  offset="0.0036" style="stop-color:#F36F56"/>
					<stop  offset="0.3059" style="stop-color:#F99C4C"/>
					<stop  offset="0.545" style="stop-color:#FDB946"/>
					<stop  offset="0.6817" style="stop-color:#FFC444"/>
					<stop  offset="0.8038" style="stop-color:#FFC244"/>
					<stop  offset="0.8667" style="stop-color:#FEBA46"/>
					<stop  offset="0.916" style="stop-color:#FCAD49"/>
					<stop  offset="0.958" style="stop-color:#F99A4D"/>
					<stop  offset="0.9955" style="stop-color:#F58152"/>
					<stop  offset="1" style="stop-color:#F57E53"/>
				</linearGradient>
				<path style="fill:url(#SVGID_00000024706664714444764710000002531187259985329569_);" d="M1079.568,2838.293
					c-165.021,0-336.844,14.521-364.328,42.631c1.076,0.992,2.075,2.049,3.004,3.163c23.165-19.518,165.044-39.167,361.324-39.167
					c201.319,0,345.472,20.674,362.933,40.672c0.858-1.098,1.776-2.147,2.768-3.136
					C1422.569,2853.352,1247.52,2838.293,1079.568,2838.293z"/>
			</g>
			<g>
				
					<linearGradient id="SVGID_00000051369960262966470870000002891879709424199600_" gradientUnits="userSpaceOnUse" x1="700.0127" y1="2859.957" x2="1551.5667" y2="2859.957">
					<stop  offset="0" style="stop-color:#F57E53"/>
					<stop  offset="0.0045" style="stop-color:#F58152"/>
					<stop  offset="0.042" style="stop-color:#F99A4D"/>
					<stop  offset="0.084" style="stop-color:#FCAD49"/>
					<stop  offset="0.1333" style="stop-color:#FEBA46"/>
					<stop  offset="0.1962" style="stop-color:#FFC244"/>
					<stop  offset="0.3183" style="stop-color:#FFC444"/>
					<stop  offset="0.455" style="stop-color:#FDB946"/>
					<stop  offset="0.6941" style="stop-color:#F99C4C"/>
					<stop  offset="0.9964" style="stop-color:#F36F56"/>
				</linearGradient>
				<path style="fill:url(#SVGID_00000051369960262966470870000002891879709424199600_);" d="M763.291,2794.898v82.089
					c0,26.526,165.699,48.029,370.099,48.029c204.4,0,370.1-21.502,370.1-48.029v-82.089H763.291z"/>
				
					<linearGradient id="SVGID_00000003817165424805687310000003608256190351967934_" gradientUnits="userSpaceOnUse" x1="1129.7031" y1="2764.0327" x2="1174.5963" y2="3139.8542">
					<stop  offset="0" style="stop-color:#FFDB44"/>
					<stop  offset="1" style="stop-color:#FEEF06"/>
				</linearGradient>
				
					<ellipse style="fill:url(#SVGID_00000003817165424805687310000003608256190351967934_);" cx="1133.39" cy="2794.898" rx="370.099" ry="48.029"/>
				
					<linearGradient id="SVGID_00000134230965675505087290000012299779796086685374_" gradientUnits="userSpaceOnUse" x1="1127.7509" y1="2747.2732" x2="1141.5382" y2="2862.6931">
					<stop  offset="0" style="stop-color:#FFDB44"/>
					<stop  offset="1" style="stop-color:#FEEF06"/>
				</linearGradient>
				<path style="fill:url(#SVGID_00000134230965675505087290000012299779796086685374_);" d="M1133.389,2846.238
					c-181.023,0-370.314-17.29-370.314-50.639c0-1.832,0.653-5.051,2.485-5.051c1.832,0,1.044,2.518,1.044,4.349
					c0,21.149,150.634,44.713,366.785,44.713c216.151,0,366.785-23.563,366.785-44.713c0-1.832,0.312-3.547,2.143-3.547
					s1.39,2.443,1.39,4.275C1503.708,2828.975,1314.411,2846.238,1133.389,2846.238z"/>
				<g>
					<path style="fill:#FCB048;" d="M1098.417,2797.575c3.631-2.514,7.495-4.991,11.631-7.44c4.097-2.445,9.435-4.654,15.899-6.628
						c6.502-1.974,14.635-3.579,24.397-4.825c9.762-1.245,21.97-1.902,36.544-1.973c14.303-0.07,27.718,0.384,40.282,1.364
						c12.526,0.975,23.58,2.44,33.125,4.386c9.507,1.946,17.271,4.354,23.255,7.214c5.945,2.868,9.489,6.152,10.63,9.852
						l41.673,0.422c3.024,0.019,5.7,0.264,7.989,0.739c2.328,0.476,3.455,1.075,3.459,1.802l0.017,3.432l-53.574-0.516
						c-1.879,4.202-6.667,8.046-14.363,11.532c-7.658,3.49-17.45,6.509-29.376,9.063l-19.512-2.713
						c-1.746-0.267-3.181-0.607-4.307-1.019c-1.126-0.41-1.671-0.855-1.674-1.342c-0.003-0.66,1.505-1.412,4.525-2.256
						c3.019-0.848,6.426-1.898,10.219-3.147c3.792-1.246,7.506-2.72,11.181-4.421c3.635-1.698,6.068-3.728,7.335-6.091
						l-126.452-1.253c-3.321,2.445-7.07,4.845-11.167,7.205c-4.136,2.36-9.591,4.485-16.404,6.372
						c-6.813,1.887-15.295,3.418-25.445,4.597c-10.189,1.176-22.939,1.801-38.366,1.876c-11.59,0.057-22.872-0.382-33.924-1.314
						c-11.053-0.936-20.867-2.335-29.443-4.197c-8.576-1.866-15.603-4.171-21.121-6.916c-5.479-2.749-8.557-5.903-9.194-9.471
						l-34.307-0.352c-3.023-0.019-5.699-0.255-8.105-0.713c-2.367-0.458-3.572-1.066-3.576-1.828l-0.016-3.43l46.905,0.447
						c2.076-3.615,6.325-6.767,12.824-9.448c6.499-2.685,14.434-5.072,23.804-7.161l15.71,2.156c4.771,0.67,7.139,1.455,7.144,2.355
						c0.002,0.487-0.964,1.088-2.937,1.809c-2.012,0.72-4.334,1.583-7.042,2.581c-2.669,1.003-5.3,2.176-7.813,3.525
						c-2.552,1.345-4.443,2.87-5.714,4.576L1098.417,2797.575z M982.692,2802.251c0.942,2.25,3.044,4.186,6.231,5.817
						c3.186,1.634,7.147,2.973,11.92,4.025c4.773,1.051,10.126,1.82,16.059,2.312c5.972,0.49,12.214,0.723,18.726,0.691
						c7.598-0.038,14.224-0.366,19.881-0.982c5.618-0.62,10.576-1.457,14.873-2.518c4.258-1.062,8.013-2.291,11.184-3.694
						c3.172-1.403,5.994-2.923,8.545-4.565L982.692,2802.251z M1257.974,2799.183c-0.941-2.281-3.238-4.279-6.812-5.997
						c-3.575-1.712-8.156-3.158-13.705-4.324c-5.549-1.17-12.026-2.04-19.433-2.608c-7.368-0.569-15.509-0.833-24.424-0.79
						c-7.908,0.04-14.767,0.395-20.462,1.061c-5.695,0.671-10.653,1.567-14.872,2.7c-4.181,1.129-7.78,2.446-10.68,3.949
						c-2.939,1.504-5.683,3.112-8.194,4.825L1257.974,2799.183z"/>
				</g>
				
					<linearGradient id="SVGID_00000126295737809192308960000016538158563191450292_" gradientUnits="userSpaceOnUse" x1="528.5376" y1="1277.246" x2="542.2761" y2="1392.2573" gradientTransform="matrix(-1 0 0 -1 1669.249 4127.8389)">
					<stop  offset="0.0036" style="stop-color:#F36F56"/>
					<stop  offset="0.3059" style="stop-color:#F99C4C"/>
					<stop  offset="0.545" style="stop-color:#FDB946"/>
					<stop  offset="0.6817" style="stop-color:#FFC444"/>
					<stop  offset="0.8038" style="stop-color:#FFC244"/>
					<stop  offset="0.8667" style="stop-color:#FEBA46"/>
					<stop  offset="0.916" style="stop-color:#FCAD49"/>
					<stop  offset="0.958" style="stop-color:#F99A4D"/>
					<stop  offset="0.9955" style="stop-color:#F58152"/>
					<stop  offset="1" style="stop-color:#F57E53"/>
				</linearGradient>
				<path style="fill:url(#SVGID_00000126295737809192308960000016538158563191450292_);" d="M1133.44,2752.068
					c-165.021,0-336.843,14.521-364.328,42.631c1.076,0.992,2.075,2.051,3.004,3.163c23.166-19.517,165.044-39.167,361.324-39.167
					c201.319,0,345.472,20.674,362.934,40.672c0.858-1.096,1.775-2.147,2.767-3.135
					C1476.441,2767.126,1301.392,2752.068,1133.44,2752.068z"/>
			</g>
			<g>
				
					<linearGradient id="SVGID_00000158019658176244352190000017464967736239781044_" gradientUnits="userSpaceOnUse" x1="660.2504" y1="2766.9297" x2="1511.8035" y2="2766.9297">
					<stop  offset="0" style="stop-color:#F57E53"/>
					<stop  offset="0.0045" style="stop-color:#F58152"/>
					<stop  offset="0.042" style="stop-color:#F99A4D"/>
					<stop  offset="0.084" style="stop-color:#FCAD49"/>
					<stop  offset="0.1333" style="stop-color:#FEBA46"/>
					<stop  offset="0.1962" style="stop-color:#FFC244"/>
					<stop  offset="0.3183" style="stop-color:#FFC444"/>
					<stop  offset="0.455" style="stop-color:#FDB946"/>
					<stop  offset="0.6941" style="stop-color:#F99C4C"/>
					<stop  offset="0.9964" style="stop-color:#F36F56"/>
				</linearGradient>
				<path style="fill:url(#SVGID_00000158019658176244352190000017464967736239781044_);" d="M723.528,2701.871v82.089
					c0,26.526,165.699,48.029,370.098,48.029c204.401,0,370.1-21.502,370.1-48.029v-82.089H723.528z"/>
				
					<linearGradient id="SVGID_00000060721991521405014750000018042637062441384360_" gradientUnits="userSpaceOnUse" x1="1089.9404" y1="2671.0054" x2="1134.8335" y2="3046.8267">
					<stop  offset="0" style="stop-color:#FFDB44"/>
					<stop  offset="1" style="stop-color:#FEEF06"/>
				</linearGradient>
				
					<ellipse style="fill:url(#SVGID_00000060721991521405014750000018042637062441384360_);" cx="1093.627" cy="2701.87" rx="370.099" ry="48.029"/>
				
					<linearGradient id="SVGID_00000103953527264878769400000010106646898258811050_" gradientUnits="userSpaceOnUse" x1="1087.9882" y1="2654.2456" x2="1101.7755" y2="2769.6658">
					<stop  offset="0" style="stop-color:#FFDB44"/>
					<stop  offset="1" style="stop-color:#FEEF06"/>
				</linearGradient>
				<path style="fill:url(#SVGID_00000103953527264878769400000010106646898258811050_);" d="M1093.626,2753.211
					c-181.023,0-370.314-17.29-370.314-50.639c0-1.832,0.653-5.051,2.485-5.051c1.832,0,1.044,2.518,1.044,4.349
					c0,21.15,150.634,44.713,366.785,44.713s366.785-23.563,366.785-44.713c0-1.831,0.313-3.547,2.144-3.547
					c1.831,0,1.39,2.444,1.39,4.275C1463.945,2735.948,1274.649,2753.211,1093.626,2753.211z"/>
				<g>
					<path style="fill:#FCB048;" d="M1058.654,2704.547c3.631-2.514,7.495-4.991,11.632-7.44c4.097-2.445,9.435-4.654,15.899-6.628
						c6.502-1.974,14.635-3.579,24.398-4.824c9.762-1.245,21.969-1.902,36.543-1.973c14.304-0.07,27.718,0.384,40.283,1.364
						c12.525,0.975,23.58,2.44,33.125,4.386c9.507,1.946,17.271,4.354,23.255,7.214c5.945,2.868,9.488,6.152,10.63,9.852
						l41.673,0.422c3.024,0.018,5.7,0.264,7.989,0.739c2.328,0.475,3.456,1.075,3.459,1.802l0.017,3.432l-53.574-0.516
						c-1.879,4.202-6.667,8.046-14.364,11.532c-7.657,3.49-17.45,6.508-29.377,9.063l-19.511-2.713
						c-1.745-0.267-3.181-0.607-4.308-1.019c-1.125-0.41-1.671-0.855-1.673-1.342c-0.003-0.66,1.505-1.412,4.525-2.256
						c3.019-0.848,6.426-1.898,10.218-3.147c3.793-1.246,7.506-2.72,11.181-4.421c3.636-1.698,6.068-3.728,7.336-6.091
						l-126.452-1.254c-3.322,2.445-7.07,4.845-11.167,7.205c-4.137,2.36-9.591,4.485-16.405,6.372
						c-6.813,1.886-15.295,3.418-25.444,4.597c-10.19,1.175-22.939,1.801-38.366,1.876c-11.59,0.057-22.873-0.382-33.924-1.314
						c-11.052-0.936-20.866-2.335-29.442-4.197c-8.576-1.866-15.603-4.171-21.121-6.916c-5.479-2.749-8.557-5.903-9.194-9.471
						l-34.307-0.352c-3.023-0.019-5.699-0.255-8.105-0.713c-2.366-0.458-3.571-1.066-3.575-1.828l-0.016-3.43l46.905,0.447
						c2.076-3.615,6.324-6.767,12.824-9.448c6.499-2.684,14.434-5.072,23.804-7.161l15.71,2.157c4.771,0.67,7.139,1.454,7.144,2.355
						c0.002,0.487-0.965,1.088-2.937,1.808c-2.013,0.72-4.334,1.583-7.043,2.582c-2.669,1.003-5.299,2.176-7.813,3.525
						c-2.552,1.346-4.444,2.87-5.714,4.576L1058.654,2704.547z M942.93,2709.223c0.942,2.25,3.044,4.187,6.231,5.817
						c3.186,1.634,7.147,2.973,11.921,4.025c4.773,1.051,10.126,1.82,16.058,2.312c5.972,0.49,12.215,0.723,18.726,0.691
						c7.597-0.037,14.224-0.366,19.881-0.982c5.617-0.62,10.575-1.457,14.873-2.518c4.259-1.062,8.013-2.291,11.184-3.695
						c3.172-1.403,5.994-2.923,8.544-4.564L942.93,2709.223z M1218.211,2706.156c-0.941-2.281-3.238-4.279-6.813-5.997
						c-3.574-1.712-8.156-3.158-13.705-4.324c-5.548-1.17-12.026-2.04-19.432-2.608c-7.368-0.569-15.509-0.833-24.425-0.79
						c-7.907,0.039-14.767,0.395-20.461,1.061c-5.695,0.671-10.653,1.567-14.872,2.7c-4.181,1.129-7.78,2.445-10.679,3.949
						c-2.938,1.504-5.683,3.112-8.193,4.825L1218.211,2706.156z"/>
				</g>
				
					<linearGradient id="SVGID_00000086674463808442641460000013998544845366595736_" gradientUnits="userSpaceOnUse" x1="568.3003" y1="1370.2733" x2="582.0388" y2="1485.2847" gradientTransform="matrix(-1 0 0 -1 1669.249 4127.8389)">
					<stop  offset="0.0036" style="stop-color:#F36F56"/>
					<stop  offset="0.3059" style="stop-color:#F99C4C"/>
					<stop  offset="0.545" style="stop-color:#FDB946"/>
					<stop  offset="0.6817" style="stop-color:#FFC444"/>
					<stop  offset="0.8038" style="stop-color:#FFC244"/>
					<stop  offset="0.8667" style="stop-color:#FEBA46"/>
					<stop  offset="0.916" style="stop-color:#FCAD49"/>
					<stop  offset="0.958" style="stop-color:#F99A4D"/>
					<stop  offset="0.9955" style="stop-color:#F58152"/>
					<stop  offset="1" style="stop-color:#F57E53"/>
				</linearGradient>
				<path style="fill:url(#SVGID_00000086674463808442641460000013998544845366595736_);" d="M1093.677,2659.04
					c-165.021,0-336.844,14.521-364.329,42.631c1.076,0.992,2.076,2.051,3.005,3.163c23.165-19.516,165.043-39.167,361.324-39.167
					c201.319,0,345.472,20.674,362.934,40.672c0.858-1.097,1.774-2.147,2.767-3.135
					C1436.678,2674.099,1261.629,2659.04,1093.677,2659.04z"/>
			</g>
			<g>
				
					<linearGradient id="SVGID_00000060741627942337562780000012799621907611348102_" gradientUnits="userSpaceOnUse" x1="557.3642" y1="2680.7051" x2="1408.9182" y2="2680.7051">
					<stop  offset="0" style="stop-color:#F57E53"/>
					<stop  offset="0.0045" style="stop-color:#F58152"/>
					<stop  offset="0.042" style="stop-color:#F99A4D"/>
					<stop  offset="0.084" style="stop-color:#FCAD49"/>
					<stop  offset="0.1333" style="stop-color:#FEBA46"/>
					<stop  offset="0.1962" style="stop-color:#FFC244"/>
					<stop  offset="0.3183" style="stop-color:#FFC444"/>
					<stop  offset="0.455" style="stop-color:#FDB946"/>
					<stop  offset="0.6941" style="stop-color:#F99C4C"/>
					<stop  offset="0.9964" style="stop-color:#F36F56"/>
				</linearGradient>
				<path style="fill:url(#SVGID_00000060741627942337562780000012799621907611348102_);" d="M620.642,2615.646v82.089
					c0,26.526,165.699,48.029,370.1,48.029c204.4,0,370.099-21.503,370.099-48.029v-82.089H620.642z"/>
				
					<linearGradient id="SVGID_00000161627515432974434420000014187407771049179035_" gradientUnits="userSpaceOnUse" x1="987.0547" y1="2584.7805" x2="1031.9476" y2="2960.6006">
					<stop  offset="0" style="stop-color:#FFDB44"/>
					<stop  offset="1" style="stop-color:#FEEF06"/>
				</linearGradient>
				
					<ellipse style="fill:url(#SVGID_00000161627515432974434420000014187407771049179035_);" cx="990.742" cy="2615.645" rx="370.099" ry="48.029"/>
				
					<linearGradient id="SVGID_00000081644676444634017860000003593231589115819691_" gradientUnits="userSpaceOnUse" x1="985.1025" y1="2568.0203" x2="998.8898" y2="2683.4409">
					<stop  offset="0" style="stop-color:#FFDB44"/>
					<stop  offset="1" style="stop-color:#FEEF06"/>
				</linearGradient>
				<path style="fill:url(#SVGID_00000081644676444634017860000003593231589115819691_);" d="M990.74,2666.986
					c-181.022,0-370.314-17.29-370.314-50.64c0-1.832,0.654-5.051,2.485-5.051c1.832,0,1.044,2.518,1.044,4.35
					c0,21.15,150.634,44.714,366.785,44.714s366.785-23.564,366.785-44.714c0-1.832,0.313-3.548,2.143-3.548
					c1.832,0,1.39,2.444,1.39,4.275C1361.059,2649.723,1171.763,2666.986,990.74,2666.986z"/>
				<g>
					<path style="fill:#FCB048;" d="M955.769,2618.323c3.631-2.514,7.496-4.992,11.631-7.441c4.097-2.444,9.436-4.654,15.899-6.627
						c6.502-1.974,14.635-3.58,24.397-4.825c9.762-1.246,21.97-1.902,36.545-1.974c14.303-0.07,27.717,0.385,40.281,1.364
						c12.525,0.976,23.58,2.44,33.126,4.386c9.506,1.946,17.271,4.354,23.254,7.214c5.944,2.869,9.488,6.152,10.63,9.853
						l41.673,0.422c3.023,0.018,5.699,0.263,7.989,0.739c2.328,0.475,3.455,1.075,3.459,1.802l0.016,3.431l-53.574-0.515
						c-1.879,4.201-6.666,8.046-14.363,11.532c-7.658,3.491-17.451,6.508-29.377,9.063l-19.511-2.714
						c-1.745-0.267-3.182-0.606-4.307-1.019c-1.127-0.41-1.672-0.855-1.674-1.342c-0.003-0.659,1.504-1.411,4.524-2.256
						c3.019-0.848,6.425-1.897,10.218-3.147c3.792-1.246,7.507-2.719,11.181-4.422c3.635-1.697,6.067-3.728,7.334-6.09
						l-126.452-1.254c-3.321,2.445-7.07,4.845-11.167,7.205c-4.136,2.36-9.591,4.485-16.404,6.373
						c-6.814,1.886-15.295,3.417-25.445,4.597c-10.188,1.176-22.939,1.801-38.366,1.876c-11.59,0.057-22.872-0.382-33.924-1.314
						c-11.052-0.936-20.866-2.335-29.442-4.197c-8.576-1.865-15.603-4.171-21.121-6.915c-5.479-2.749-8.557-5.903-9.194-9.471
						l-34.307-0.352c-3.024-0.019-5.7-0.256-8.105-0.713c-2.367-0.458-3.572-1.066-3.576-1.827l-0.017-3.431l46.906,0.447
						c2.076-3.615,6.324-6.767,12.823-9.448c6.499-2.684,14.434-5.072,23.805-7.161l15.71,2.157c4.771,0.67,7.139,1.454,7.144,2.355
						c0.003,0.486-0.963,1.088-2.937,1.808c-2.011,0.72-4.333,1.583-7.041,2.581c-2.67,1.003-5.301,2.176-7.814,3.525
						c-2.551,1.346-4.443,2.87-5.714,4.577L955.769,2618.323z M840.044,2622.998c0.941,2.251,3.044,4.187,6.231,5.817
						c3.187,1.635,7.147,2.973,11.92,4.025c4.773,1.051,10.126,1.82,16.06,2.312c5.971,0.491,12.214,0.723,18.726,0.691
						c7.598-0.038,14.224-0.366,19.881-0.982c5.618-0.62,10.575-1.456,14.872-2.518c4.258-1.062,8.013-2.291,11.184-3.694
						s5.994-2.923,8.545-4.564L840.044,2622.998z M1115.326,2619.93c-0.942-2.281-3.239-4.278-6.813-5.995
						c-3.575-1.713-8.155-3.159-13.704-4.325c-5.549-1.17-12.027-2.04-19.434-2.608c-7.368-0.569-15.509-0.834-24.424-0.79
						c-7.908,0.039-14.767,0.394-20.462,1.061c-5.695,0.672-10.652,1.567-14.872,2.701c-4.18,1.129-7.779,2.445-10.679,3.949
						c-2.939,1.503-5.684,3.112-8.195,4.826L1115.326,2619.93z"/>
				</g>
				
					<linearGradient id="SVGID_00000095319136517342161040000014039205318241093823_" gradientUnits="userSpaceOnUse" x1="671.1856" y1="1456.4991" x2="684.924" y2="1571.5095" gradientTransform="matrix(-1 0 0 -1 1669.249 4127.8389)">
					<stop  offset="0.0036" style="stop-color:#F36F56"/>
					<stop  offset="0.3059" style="stop-color:#F99C4C"/>
					<stop  offset="0.545" style="stop-color:#FDB946"/>
					<stop  offset="0.6817" style="stop-color:#FFC444"/>
					<stop  offset="0.8038" style="stop-color:#FFC244"/>
					<stop  offset="0.8667" style="stop-color:#FEBA46"/>
					<stop  offset="0.916" style="stop-color:#FCAD49"/>
					<stop  offset="0.958" style="stop-color:#F99A4D"/>
					<stop  offset="0.9955" style="stop-color:#F58152"/>
					<stop  offset="1" style="stop-color:#F57E53"/>
				</linearGradient>
				<path style="fill:url(#SVGID_00000095319136517342161040000014039205318241093823_);" d="M990.792,2572.815
					c-165.021,0-336.844,14.521-364.328,42.631c1.076,0.992,2.075,2.05,3.004,3.163c23.166-19.517,165.044-39.167,361.324-39.167
					c201.319,0,345.471,20.674,362.933,40.671c0.858-1.097,1.775-2.146,2.768-3.135
					C1333.793,2587.873,1158.744,2572.815,990.792,2572.815z"/>
			</g>
			<g>
				
					<linearGradient id="SVGID_00000072241068159825057660000002807138065519657658_" gradientUnits="userSpaceOnUse" x1="646.1409" y1="2594.7319" x2="1497.6948" y2="2594.7319">
					<stop  offset="0" style="stop-color:#F57E53"/>
					<stop  offset="0.0045" style="stop-color:#F58152"/>
					<stop  offset="0.042" style="stop-color:#F99A4D"/>
					<stop  offset="0.084" style="stop-color:#FCAD49"/>
					<stop  offset="0.1333" style="stop-color:#FEBA46"/>
					<stop  offset="0.1962" style="stop-color:#FFC244"/>
					<stop  offset="0.3183" style="stop-color:#FFC444"/>
					<stop  offset="0.455" style="stop-color:#FDB946"/>
					<stop  offset="0.6941" style="stop-color:#F99C4C"/>
					<stop  offset="0.9964" style="stop-color:#F36F56"/>
				</linearGradient>
				<path style="fill:url(#SVGID_00000072241068159825057660000002807138065519657658_);" d="M709.419,2529.672v82.091
					c0,26.526,165.699,48.029,370.099,48.029c204.4,0,370.1-21.503,370.1-48.029v-82.091H709.419z"/>
				
					<linearGradient id="SVGID_00000109010420087684781960000015976121717818020748_" gradientUnits="userSpaceOnUse" x1="1075.8307" y1="2498.8076" x2="1120.7238" y2="2874.6282">
					<stop  offset="0" style="stop-color:#FFDB44"/>
					<stop  offset="1" style="stop-color:#FEEF06"/>
				</linearGradient>
				
					<ellipse style="fill:url(#SVGID_00000109010420087684781960000015976121717818020748_);" cx="1079.518" cy="2529.672" rx="370.099" ry="48.029"/>
				
					<linearGradient id="SVGID_00000080205407381850997650000005650657890593240210_" gradientUnits="userSpaceOnUse" x1="1073.8789" y1="2482.0474" x2="1087.6663" y2="2597.468">
					<stop  offset="0" style="stop-color:#FFDB44"/>
					<stop  offset="1" style="stop-color:#FEEF06"/>
				</linearGradient>
				<path style="fill:url(#SVGID_00000080205407381850997650000005650657890593240210_);" d="M1079.517,2581.013
					c-181.022,0-370.314-17.29-370.314-50.64c0-1.832,0.653-5.051,2.485-5.051c1.831,0,1.043,2.518,1.043,4.349
					c0,21.15,150.634,44.714,366.785,44.714s366.785-23.563,366.785-44.714c0-1.832,0.313-3.547,2.143-3.547
					c1.832,0,1.39,2.444,1.39,4.275C1449.835,2563.75,1260.539,2581.013,1079.517,2581.013z"/>
				<g>
					<path style="fill:#FCB048;" d="M1044.545,2532.35c3.631-2.514,7.496-4.992,11.631-7.441c4.097-2.445,9.436-4.653,15.9-6.628
						c6.502-1.973,14.635-3.579,24.397-4.824c9.762-1.246,21.97-1.902,36.544-1.973c14.303-0.07,27.718,0.385,40.281,1.363
						c12.526,0.976,23.58,2.44,33.125,4.386c9.507,1.947,17.271,4.354,23.255,7.214c5.944,2.869,9.488,6.152,10.63,9.853
						l41.673,0.422c3.024,0.02,5.699,0.264,7.989,0.739c2.328,0.475,3.455,1.075,3.459,1.803l0.016,3.431l-53.573-0.515
						c-1.879,4.202-6.667,8.046-14.364,11.533c-7.658,3.49-17.451,6.508-29.376,9.063l-19.512-2.713
						c-1.745-0.267-3.182-0.606-4.307-1.02c-1.126-0.409-1.671-0.855-1.674-1.342c-0.003-0.66,1.505-1.412,4.525-2.256
						c3.019-0.848,6.425-1.897,10.218-3.147c3.792-1.245,7.507-2.719,11.181-4.421c3.635-1.698,6.068-3.728,7.334-6.091
						l-126.452-1.254c-3.321,2.445-7.07,4.845-11.167,7.205c-4.136,2.36-9.591,4.486-16.404,6.372
						c-6.814,1.887-15.295,3.418-25.445,4.597c-10.189,1.176-22.939,1.801-38.367,1.877c-11.59,0.056-22.872-0.383-33.924-1.315
						c-11.052-0.936-20.867-2.334-29.442-4.196c-8.576-1.866-15.603-4.172-21.121-6.916c-5.479-2.749-8.556-5.903-9.194-9.47
						l-34.307-0.353c-3.024-0.02-5.699-0.255-8.105-0.713c-2.367-0.458-3.572-1.066-3.576-1.827l-0.016-3.432l46.905,0.446
						c2.076-3.615,6.325-6.767,12.824-9.447c6.499-2.685,14.434-5.072,23.804-7.162l15.71,2.157c4.771,0.67,7.14,1.454,7.144,2.355
						c0.003,0.487-0.963,1.088-2.937,1.808c-2.011,0.72-4.333,1.583-7.042,2.582c-2.67,1.003-5.3,2.175-7.813,3.524
						c-2.552,1.345-4.444,2.87-5.714,4.577L1044.545,2532.35z M928.821,2537.025c0.941,2.251,3.044,4.186,6.231,5.817
						c3.186,1.635,7.147,2.973,11.919,4.025c4.773,1.051,10.126,1.82,16.06,2.312c5.972,0.491,12.214,0.723,18.726,0.691
						c7.598-0.037,14.224-0.366,19.881-0.982c5.618-0.62,10.576-1.457,14.872-2.518c4.259-1.062,8.013-2.291,11.185-3.693
						c3.172-1.404,5.994-2.924,8.545-4.566L928.821,2537.025z M1204.102,2533.957c-0.942-2.28-3.238-4.279-6.812-5.995
						c-3.575-1.713-8.156-3.159-13.705-4.325c-5.549-1.171-12.027-2.04-19.434-2.608c-7.367-0.569-15.509-0.834-24.425-0.79
						c-7.908,0.039-14.767,0.394-20.462,1.061c-5.695,0.672-10.652,1.568-14.871,2.701c-4.181,1.129-7.78,2.446-10.68,3.948
						c-2.939,1.504-5.683,3.114-8.195,4.826L1204.102,2533.957z"/>
				</g>
				
					<linearGradient id="SVGID_00000071540125111585829880000017618935821379467167_" gradientUnits="userSpaceOnUse" x1="582.4095" y1="1542.4718" x2="596.1479" y2="1657.4823" gradientTransform="matrix(-1 0 0 -1 1669.249 4127.8389)">
					<stop  offset="0.0036" style="stop-color:#F36F56"/>
					<stop  offset="0.3059" style="stop-color:#F99C4C"/>
					<stop  offset="0.545" style="stop-color:#FDB946"/>
					<stop  offset="0.6817" style="stop-color:#FFC444"/>
					<stop  offset="0.8038" style="stop-color:#FFC244"/>
					<stop  offset="0.8667" style="stop-color:#FEBA46"/>
					<stop  offset="0.916" style="stop-color:#FCAD49"/>
					<stop  offset="0.958" style="stop-color:#F99A4D"/>
					<stop  offset="0.9955" style="stop-color:#F58152"/>
					<stop  offset="1" style="stop-color:#F57E53"/>
				</linearGradient>
				<path style="fill:url(#SVGID_00000071540125111585829880000017618935821379467167_);" d="M1079.568,2486.843
					c-165.021,0-336.844,14.521-364.328,42.631c1.076,0.991,2.075,2.05,3.004,3.163c23.165-19.518,165.044-39.168,361.324-39.168
					c201.319,0,345.472,20.674,362.933,40.672c0.858-1.097,1.776-2.147,2.768-3.135
					C1422.569,2501.9,1247.52,2486.843,1079.568,2486.843z"/>
			</g>
			<g>
				
					<linearGradient id="SVGID_00000080891209533247530640000000700208915446598784_" gradientUnits="userSpaceOnUse" x1="599.9648" y1="2508.5068" x2="1451.5181" y2="2508.5068">
					<stop  offset="0" style="stop-color:#F57E53"/>
					<stop  offset="0.0045" style="stop-color:#F58152"/>
					<stop  offset="0.042" style="stop-color:#F99A4D"/>
					<stop  offset="0.084" style="stop-color:#FCAD49"/>
					<stop  offset="0.1333" style="stop-color:#FEBA46"/>
					<stop  offset="0.1962" style="stop-color:#FFC244"/>
					<stop  offset="0.3183" style="stop-color:#FFC444"/>
					<stop  offset="0.455" style="stop-color:#FDB946"/>
					<stop  offset="0.6941" style="stop-color:#F99C4C"/>
					<stop  offset="0.9964" style="stop-color:#F36F56"/>
				</linearGradient>
				<path style="fill:url(#SVGID_00000080891209533247530640000000700208915446598784_);" d="M663.243,2443.448v82.09
					c0,26.526,165.698,48.029,370.099,48.029s370.099-21.502,370.099-48.029v-82.09H663.243z"/>
				
					<linearGradient id="SVGID_00000042008178260941610860000006803972824243787162_" gradientUnits="userSpaceOnUse" x1="1029.6549" y1="2412.5825" x2="1074.548" y2="2788.4038">
					<stop  offset="0" style="stop-color:#FFDB44"/>
					<stop  offset="1" style="stop-color:#FEEF06"/>
				</linearGradient>
				
					<ellipse style="fill:url(#SVGID_00000042008178260941610860000006803972824243787162_);" cx="1033.341" cy="2443.447" rx="370.099" ry="48.029"/>
				
					<linearGradient id="SVGID_00000137104549223058045770000014553681228985672860_" gradientUnits="userSpaceOnUse" x1="1027.7028" y1="2395.8218" x2="1041.4902" y2="2511.2429">
					<stop  offset="0" style="stop-color:#FFDB44"/>
					<stop  offset="1" style="stop-color:#FEEF06"/>
				</linearGradient>
				<path style="fill:url(#SVGID_00000137104549223058045770000014553681228985672860_);" d="M1033.341,2494.789
					c-181.023,0-370.314-17.29-370.314-50.64c0-1.831,0.653-5.051,2.485-5.051c1.831,0,1.044,2.518,1.044,4.35
					c0,21.15,150.634,44.714,366.785,44.714c216.151,0,366.785-23.564,366.785-44.714c0-1.832,0.313-3.547,2.144-3.547
					c1.832,0,1.39,2.443,1.39,4.276C1403.659,2477.524,1214.363,2494.789,1033.341,2494.789z"/>
				<g>
					<path style="fill:#FCB048;" d="M998.369,2446.124c3.631-2.514,7.495-4.991,11.631-7.44c4.097-2.444,9.435-4.654,15.899-6.628
						c6.502-1.974,14.635-3.58,24.397-4.825c9.762-1.245,21.969-1.901,36.544-1.973c14.304-0.07,27.718,0.384,40.282,1.363
						c12.525,0.976,23.58,2.44,33.125,4.386c9.507,1.946,17.272,4.354,23.256,7.214c5.944,2.87,9.488,6.152,10.63,9.854
						l41.673,0.421c3.023,0.019,5.699,0.263,7.989,0.74c2.328,0.476,3.455,1.074,3.459,1.802l0.016,3.432l-53.574-0.516
						c-1.879,4.203-6.666,8.046-14.363,11.532c-7.658,3.49-17.45,6.509-29.377,9.064l-19.511-2.714
						c-1.745-0.266-3.182-0.606-4.308-1.02c-1.126-0.408-1.671-0.855-1.673-1.341c-0.003-0.66,1.504-1.412,4.524-2.257
						c3.019-0.848,6.426-1.897,10.218-3.147c3.793-1.246,7.507-2.719,11.181-4.421c3.636-1.698,6.068-3.727,7.336-6.091
						l-126.452-1.254c-3.322,2.444-7.07,4.845-11.167,7.205c-4.136,2.36-9.591,4.486-16.405,6.372
						c-6.812,1.886-15.295,3.417-25.444,4.597c-10.189,1.176-22.939,1.801-38.366,1.877c-11.59,0.056-22.872-0.384-33.924-1.315
						c-11.052-0.936-20.866-2.334-29.442-4.196c-8.576-1.866-15.603-4.172-21.121-6.916c-5.479-2.748-8.557-5.903-9.195-9.47
						l-34.307-0.353c-3.023-0.018-5.699-0.255-8.105-0.713c-2.367-0.458-3.572-1.066-3.575-1.827l-0.017-3.432l46.906,0.446
						c2.076-3.615,6.324-6.766,12.823-9.446c6.499-2.685,14.434-5.073,23.805-7.162l15.71,2.157c4.771,0.67,7.139,1.455,7.144,2.356
						c0.003,0.487-0.963,1.088-2.937,1.808c-2.012,0.721-4.333,1.583-7.042,2.582c-2.67,1.003-5.3,2.175-7.813,3.524
						c-2.551,1.345-4.443,2.869-5.714,4.576L998.369,2446.124z M882.644,2450.8c0.942,2.25,3.044,4.186,6.23,5.816
						c3.187,1.635,7.147,2.974,11.921,4.025c4.773,1.051,10.126,1.82,16.059,2.312c5.972,0.491,12.214,0.722,18.726,0.691
						c7.598-0.038,14.224-0.366,19.882-0.982c5.617-0.62,10.574-1.457,14.872-2.519c4.259-1.061,8.013-2.29,11.185-3.693
						c3.172-1.403,5.994-2.924,8.544-4.565L882.644,2450.8z M1157.926,2447.732c-0.942-2.279-3.239-4.278-6.813-5.996
						c-3.575-1.713-8.156-3.158-13.704-4.325c-5.549-1.17-12.027-2.039-19.434-2.608c-7.368-0.569-15.509-0.833-24.425-0.789
						c-7.907,0.038-14.767,0.393-20.461,1.061c-5.695,0.671-10.653,1.567-14.872,2.7c-4.181,1.13-7.779,2.446-10.679,3.949
						c-2.939,1.504-5.683,3.113-8.194,4.826L1157.926,2447.732z"/>
				</g>
				
					<linearGradient id="SVGID_00000007411991310302774510000010970499088059421350_" gradientUnits="userSpaceOnUse" x1="628.5853" y1="1628.6967" x2="642.3237" y2="1743.7079" gradientTransform="matrix(-1 0 0 -1 1669.249 4127.8389)">
					<stop  offset="0.0036" style="stop-color:#F36F56"/>
					<stop  offset="0.3059" style="stop-color:#F99C4C"/>
					<stop  offset="0.545" style="stop-color:#FDB946"/>
					<stop  offset="0.6817" style="stop-color:#FFC444"/>
					<stop  offset="0.8038" style="stop-color:#FFC244"/>
					<stop  offset="0.8667" style="stop-color:#FEBA46"/>
					<stop  offset="0.916" style="stop-color:#FCAD49"/>
					<stop  offset="0.958" style="stop-color:#F99A4D"/>
					<stop  offset="0.9955" style="stop-color:#F58152"/>
					<stop  offset="1" style="stop-color:#F57E53"/>
				</linearGradient>
				<path style="fill:url(#SVGID_00000007411991310302774510000010970499088059421350_);" d="M1033.392,2400.617
					c-165.02,0-336.844,14.521-364.328,42.631c1.076,0.991,2.075,2.05,3.004,3.163c23.166-19.518,165.044-39.167,361.324-39.167
					c201.319,0,345.472,20.673,362.934,40.672c0.858-1.097,1.774-2.147,2.768-3.136
					C1376.392,2415.675,1201.344,2400.617,1033.392,2400.617z"/>
			</g>
			<g>
				
					<linearGradient id="SVGID_00000010288780912821492640000015232310653529561749_" gradientUnits="userSpaceOnUse" x1="1753.7527" y1="2223.3577" x2="2605.3108" y2="2223.3577" gradientTransform="matrix(0.5796 0.8149 -0.8149 0.5796 2214.3765 -230.3409)">
					<stop  offset="0" style="stop-color:#F57E53"/>
					<stop  offset="0.0045" style="stop-color:#F58152"/>
					<stop  offset="0.042" style="stop-color:#F99A4D"/>
					<stop  offset="0.084" style="stop-color:#FCAD49"/>
					<stop  offset="0.1333" style="stop-color:#FEBA46"/>
					<stop  offset="0.1962" style="stop-color:#FFC244"/>
					<stop  offset="0.3183" style="stop-color:#FFC444"/>
					<stop  offset="0.455" style="stop-color:#FDB946"/>
					<stop  offset="0.6941" style="stop-color:#F99C4C"/>
					<stop  offset="0.9964" style="stop-color:#F36F56"/>
				</linearGradient>
				<path style="fill:url(#SVGID_00000010288780912821492640000015232310653529561749_);" d="M1508.716,2501.318l-66.893,47.581
					c-21.616,15.375,56.906,162.864,175.381,329.427c118.476,166.562,232.042,289.124,253.658,273.748l66.893-47.581
					L1508.716,2501.318z"/>
				
					<linearGradient id="SVGID_00000154416300900181969770000010912431309083526566_" gradientUnits="userSpaceOnUse" x1="2183.4441" y1="2127.4431" x2="2228.3315" y2="2503.217" gradientTransform="matrix(0.5796 0.8149 -0.8149 0.5796 2214.3765 -230.3409)">
					<stop  offset="0" style="stop-color:#FFDB44"/>
					<stop  offset="1" style="stop-color:#FEEF06"/>
				</linearGradient>
				<path style="fill:url(#SVGID_00000154416300900181969770000010912431309083526566_);" d="M1937.755,3104.492
					c-21.615,15.375-135.182-107.187-253.657-273.749c-118.476-166.561-196.997-314.051-175.382-329.426
					c21.615-15.375,135.182,107.187,253.657,273.748C1880.849,2941.628,1959.37,3089.117,1937.755,3104.492z"/>
				
					<linearGradient id="SVGID_00000133499169706832443260000017889639129080675481_" gradientUnits="userSpaceOnUse" x1="2181.4932" y1="2110.6909" x2="2195.2781" y2="2226.0916" gradientTransform="matrix(0.5796 0.8149 -0.8149 0.5796 2214.3765 -230.3409)">
					<stop  offset="0" style="stop-color:#FFDB44"/>
					<stop  offset="1" style="stop-color:#FEEF06"/>
				</linearGradient>
				<path style="fill:url(#SVGID_00000133499169706832443260000017889639129080675481_);" d="M1681.398,2832.663
					c-104.925-147.512-200.554-311.785-173.378-331.115c1.492-1.061,4.494-2.395,5.556-0.902c1.061,1.493-1.447,2.31-2.939,3.372
					c-17.234,12.259,50.875,148.666,176.163,324.803c125.287,176.138,231.8,285.229,249.035,272.97
					c1.492-1.062,3.071-1.802,4.133-0.31c1.062,1.493-1.186,2.549-2.679,3.611
					C1910.113,3124.422,1786.324,2980.174,1681.398,2832.663z"/>
				<g>
					<path style="fill:#FCB048;" d="M1700.782,2775.958c4.154,1.502,8.412,3.215,12.805,5.166c4.367,1.922,9.261,4.991,14.616,9.114
						c5.378,4.156,11.4,9.851,18.072,17.085c6.674,7.234,14.284,16.801,22.79,28.635c8.348,11.616,15.753,22.81,22.238,33.616
						c6.465,10.771,11.68,20.629,15.626,29.535c3.925,8.874,6.464,16.597,7.601,23.131c1.108,6.507,0.486,11.298-1.867,14.373
						l23.81,34.202c1.737,2.476,3.089,4.798,4.029,6.939c0.962,2.172,1.127,3.438,0.535,3.862l-2.786,2.003l-30.633-43.955
						c-4.513,0.905-10.422-0.768-17.723-5.02c-7.282-4.217-15.418-10.447-24.413-18.685l-9.098-17.472
						c-0.795-1.577-1.35-2.944-1.666-4.102c-0.319-1.155-0.272-1.857,0.124-2.142c0.535-0.385,2.022,0.408,4.461,2.379
						c2.442,1.969,5.27,4.136,8.488,6.502c3.213,2.369,6.567,4.541,10.083,6.548c3.491,1.979,6.554,2.783,9.214,2.447
						l-72.273-103.77c-3.917-1.29-8.046-2.953-12.344-4.923c-4.321-2.003-9.215-5.217-14.701-9.675
						c-5.487-4.458-11.651-10.483-18.495-18.07c-6.864-7.622-14.763-17.65-23.768-30.177c-6.765-9.411-12.945-18.86-18.593-28.406
						c-5.643-9.549-10.192-18.357-13.645-26.425c-3.45-8.07-5.645-15.132-6.608-21.219c-0.936-6.058-0.15-10.394,2.388-12.982
						l-19.599-28.161c-1.737-2.475-3.095-4.792-4.116-7.018c-0.999-2.194-1.202-3.528-0.584-3.972l2.786-2.003l26.824,38.482
						c4.149-0.404,9.179,1.231,15.131,4.973c5.954,3.74,12.499,8.822,19.633,15.247l7.348,14.052
						c2.219,4.277,2.953,6.661,2.222,7.187c-0.396,0.284-1.445-0.154-3.176-1.345c-1.753-1.222-3.802-2.614-6.186-4.242
						c-2.365-1.594-4.844-3.058-7.401-4.323c-2.575-1.3-4.914-1.958-7.041-2.004L1700.782,2775.958z M1629.895,2684.366
						c-1.288,2.072-1.646,4.907-1.128,8.45c0.516,3.544,1.72,7.546,3.63,12.046c1.91,4.498,4.387,9.306,7.425,14.427
						c3.061,5.15,6.491,10.371,10.292,15.66c4.433,6.169,8.543,11.379,12.323,15.631c3.761,4.218,7.317,7.772,10.673,10.659
						c3.334,2.855,6.511,5.202,9.492,6.973c2.983,1.771,5.857,3.189,8.673,4.316L1629.895,2684.366z M1791.957,2906.91
						c1.312-2.089,1.609-5.119,0.937-9.027c-0.677-3.905-2.154-8.477-4.42-13.674c-2.263-5.2-5.309-10.983-9.138-17.347
						c-3.807-6.334-8.311-13.122-13.514-20.361c-4.615-6.422-8.88-11.805-12.724-16.06c-3.848-4.251-7.451-7.772-10.821-10.553
						c-3.344-2.753-6.502-4.922-9.409-6.413c-2.928-1.523-5.83-2.828-8.681-3.88L1791.957,2906.91z"/>
				</g>
				
					<linearGradient id="SVGID_00000028298828891184049000000003412002587059069867_" gradientUnits="userSpaceOnUse" x1="-524.6354" y1="1913.3962" x2="-510.8994" y2="2028.3861" gradientTransform="matrix(-0.5796 -0.8149 0.8149 -0.5796 -181.2018 3522.6223)">
					<stop  offset="0.0036" style="stop-color:#F36F56"/>
					<stop  offset="0.3059" style="stop-color:#F99C4C"/>
					<stop  offset="0.545" style="stop-color:#FDB946"/>
					<stop  offset="0.6817" style="stop-color:#FFC444"/>
					<stop  offset="0.8038" style="stop-color:#FFC244"/>
					<stop  offset="0.8667" style="stop-color:#FEBA46"/>
					<stop  offset="0.916" style="stop-color:#FCAD49"/>
					<stop  offset="0.958" style="stop-color:#F99A4D"/>
					<stop  offset="0.9955" style="stop-color:#F58152"/>
					<stop  offset="1" style="stop-color:#F57E53"/>
				</linearGradient>
				<path style="fill:url(#SVGID_00000028298828891184049000000003412002587059069867_);" d="M1758.166,2778.12
					c-95.651-134.472-207.077-266.071-245.914-272.174c-0.185,1.452-0.468,2.88-0.836,4.281
					c29.331,7.565,127.58,111.789,241.35,271.734c116.69,164.052,183.398,293.502,177.224,319.323
					c1.391,0.063,2.778,0.201,4.159,0.438C1944.708,3066.353,1855.516,2914.981,1758.166,2778.12z"/>
			</g>
		</g>
		<g>
			<g>
				
					<linearGradient id="SVGID_00000085938777986755901410000009673379940396047518_" gradientUnits="userSpaceOnUse" x1="1423.9805" y1="967.8086" x2="1084.368" y2="3854.5303">
					<stop  offset="0.0036" style="stop-color:#F36F56"/>
					<stop  offset="1" style="stop-color:#FFC444"/>
				</linearGradient>
				<path style="fill:url(#SVGID_00000085938777986755901410000009673379940396047518_);" d="M1658.714,1469.512
					c-5.022-4.302-11.974-5.563-18.187-3.299l-417.94,152.309c-6.159,2.244-10.648,7.607-11.772,14.063
					c-1.126,6.456,1.285,13.022,6.321,17.216l70.427,58.665c-0.12,0.09-0.244,0.173-0.364,0.263
					c-2.361,1.851-4.695,3.795-6.975,5.789c-41.986,36.865-83.964,73.738-125.938,110.615
					c-47.731,41.948-95.454,83.903-143.166,125.867c-4.012,3.528-6.282,8.633-6.217,13.974c0.063,5.342,2.462,10.386,6.552,13.821
					c80.199,67.329,160.103,134.404,239.717,201.226c0.642,0.54,1.328,1.013,2.029,1.455l-0.015,0.013c0,0,26.79,23.71,53.58-11.296
					c-7.419-1.952-15.304-4.358-20.894-6.125c23.983-37.975,47.998-75.922,72.078-113.815
					c37.665-59.273,75.449-118.445,113.346-177.518c1.594-2.452,3.068-4.953,4.499-7.473l74.261,61.859c0,0,0.579,0.531,1.7,1.238
					c1.459,0.955,3.028,1.694,4.667,2.195c5.737,1.988,15.474,3.178,29.774-2.09c25.039-9.225,24.999-20.466,25.941-25.227
					c0.542-2.733-15.029-5.217-28.396-6.839l81.024-409.423C1666.048,1480.49,1663.736,1473.815,1658.714,1469.512z"/>
				<g>
					
						<linearGradient id="SVGID_00000031186159908662630530000010895594156950748854_" gradientUnits="userSpaceOnUse" x1="1347.4961" y1="1323.2985" x2="1112.4089" y2="3321.5503">
						<stop  offset="0" style="stop-color:#FFC444"/>
						<stop  offset="0.9964" style="stop-color:#F36F56"/>
					</linearGradient>
					<path style="fill:url(#SVGID_00000031186159908662630530000010895594156950748854_);" d="M1497.12,1681.414
						c-41.628-34.681-119.47-26.224-178.295,17.828c-2.361,1.851-4.695,3.795-6.976,5.789
						c-41.986,36.865-83.964,73.738-125.938,110.615c-47.731,41.948-95.454,83.903-143.166,125.867
						c-4.012,3.528-6.282,8.632-6.217,13.974c0.063,5.342,2.462,10.386,6.552,13.821c80.199,67.329,160.103,134.404,239.717,201.226
						c4.049,3.399,9.371,4.88,14.597,4.068c5.226-0.812,9.862-3.835,12.685-8.307c26.441-41.893,52.938-83.737,79.496-125.53
						c37.665-59.273,75.449-118.445,113.346-177.517c1.639-2.522,3.158-5.093,4.627-7.685
						C1541.94,1791.609,1538.552,1715.864,1497.12,1681.414z"/>
					
						<linearGradient id="SVGID_00000042736103509434650570000001021786040876360601_" gradientUnits="userSpaceOnUse" x1="1485.2307" y1="1415.9933" x2="1246.8097" y2="3442.583">
						<stop  offset="0" style="stop-color:#FFC444"/>
						<stop  offset="0.9964" style="stop-color:#F36F56"/>
					</linearGradient>
					<path style="fill:url(#SVGID_00000042736103509434650570000001021786040876360601_);" d="M1690.341,1460.024
						c-5.022-4.302-11.974-5.563-18.187-3.299l-417.94,152.309c-6.159,2.244-10.648,7.607-11.772,14.063
						c-1.126,6.456,1.285,13.022,6.321,17.216l332.919,277.321c4.965,4.137,11.744,5.35,17.836,3.192
						c6.092-2.158,10.597-7.368,11.851-13.708l85.022-429.63C1697.675,1471.002,1695.363,1464.327,1690.341,1460.024z"/>
				</g>
			</g>
			<g>
				
					<linearGradient id="SVGID_00000016777602742235372720000009913630483133281714_" gradientUnits="userSpaceOnUse" x1="607.8785" y1="720.5409" x2="143.9783" y2="1283.7113" gradientTransform="matrix(0.9441 -0.3295 0.3295 0.9441 781.354 844.4187)">
					<stop  offset="0.0036" style="stop-color:#F36F56"/>
					<stop  offset="1" style="stop-color:#FFC444"/>
				</linearGradient>
				<path style="fill:url(#SVGID_00000016777602742235372720000009913630483133281714_);" d="M1624.779,1314.524
					c9.061,52.455,10.591,96.146,3.759,98.665c-6.923,2.282-32.914-32.872-58.449-79.577c-25.522-46.642-28.32-93.892-4.962-102.112
					C1588.528,1223.401,1615.73,1262.13,1624.779,1314.524z"/>
				
					<linearGradient id="SVGID_00000074429275263518342590000004542472852539351739_" gradientUnits="userSpaceOnUse" x1="3896.2791" y1="1457.3805" x2="3432.3816" y2="2020.5474" gradientTransform="matrix(0.7984 0.6021 -0.6021 0.7984 -532.7766 -2146.3643)">
					<stop  offset="0.0036" style="stop-color:#F36F56"/>
					<stop  offset="1" style="stop-color:#FFC444"/>
				</linearGradient>
				<path style="fill:url(#SVGID_00000074429275263518342590000004542472852539351739_);" d="M1813.582,1363.49
					c-38.589,36.668-74.073,62.205-79.962,57.922c-5.742-4.49,9.056-45.628,33.714-92.802
					c24.612-47.128,62.351-75.697,82.161-60.837C1869.227,1282.736,1852.127,1326.867,1813.582,1363.49z"/>
				
					<linearGradient id="SVGID_00000115494488210267814660000001759393882143946404_" gradientUnits="userSpaceOnUse" x1="6426.3823" y1="-2067.3657" x2="5962.4907" y2="-1504.2061" gradientTransform="matrix(-0.4088 0.9126 -0.9126 -0.4088 2505.1824 -5302.4658)">
					<stop  offset="0.0036" style="stop-color:#F36F56"/>
					<stop  offset="1" style="stop-color:#FFC444"/>
				</linearGradient>
				<path style="fill:url(#SVGID_00000115494488210267814660000001759393882143946404_);" d="M1813.354,1565.433
					c-44.353-29.434-77.164-58.326-74.303-65.022c3.095-6.599,46.498-1.353,97.985,12.158c51.432,13.476,87.7,43.89,77.636,66.515
					C1904.487,1601.656,1857.654,1594.835,1813.354,1565.433z"/>
			</g>
		</g>
		<g>
			
				<linearGradient id="SVGID_00000026879608564646426230000015187514779018256008_" gradientUnits="userSpaceOnUse" x1="3988.2415" y1="768.5966" x2="3933.333" y2="889.1165" gradientTransform="matrix(-0.9294 0.3691 0.3691 0.9294 5705.8306 -499.6633)">
				<stop  offset="0" style="stop-color:#AB316D"/>
				<stop  offset="1" style="stop-color:#792D3D"/>
			</linearGradient>
			<path style="fill:url(#SVGID_00000026879608564646426230000015187514779018256008_);" d="M2374.708,1684.89l4.323-12.587
				l-12.839-11.807c-2.865-2.635-7.101-3.103-10.476-1.164c-17.869,10.268-71.595,46.417-85.452,116.429
				c-0.728,3.676,0.922,7.419,4.127,9.359c5.822,3.525,12.637,6.465,12.637,6.465L2374.708,1684.89z"/>
			
				<linearGradient id="SVGID_00000178206137958815709790000012828400377224644482_" gradientUnits="userSpaceOnUse" x1="3923.895" y1="945.907" x2="3865.9333" y2="1073.1279" gradientTransform="matrix(-0.9294 0.3691 0.3691 0.9294 5705.8306 -499.6633)">
				<stop  offset="0" style="stop-color:#AB316D"/>
				<stop  offset="1" style="stop-color:#792D3D"/>
			</linearGradient>
			<path style="fill:url(#SVGID_00000178206137958815709790000012828400377224644482_);" d="M2441.822,1832.918l-5.89,40.892
				c0,0,0.033,11.767-1.703,16.383c4.852,5.926,16.552,8.419,16.552,8.419l21.429-46.707l-29.032-19.169L2441.822,1832.918z"/>
			
				<linearGradient id="SVGID_00000140000897129634104590000000191853325173793965_" gradientUnits="userSpaceOnUse" x1="2405.532" y1="1876.579" x2="2457.7026" y2="1876.579">
				<stop  offset="0" style="stop-color:#FFC444"/>
				<stop  offset="0.9964" style="stop-color:#F36F56"/>
			</linearGradient>
			<path style="fill:url(#SVGID_00000140000897129634104590000000191853325173793965_);" d="M2409.733,1910.905l-4.199-26.731
				c0,0-0.685-23.431,22.538-39.062c23.223-15.631,29.63-2.086,29.63-2.086l-13.813,12.869c0,0-8.974,8.257-8.593,27.028
				c-2.346,20.483-8.994,32.655-8.994,32.655L2409.733,1910.905z"/>
			
				<linearGradient id="SVGID_00000015325019060468334370000003838635760464343469_" gradientUnits="userSpaceOnUse" x1="4018.3013" y1="697.4234" x2="3761.1289" y2="1261.8958" gradientTransform="matrix(-0.9294 0.3691 0.3691 0.9294 5705.8306 -499.6633)">
				<stop  offset="0" style="stop-color:#FF9085"/>
				<stop  offset="1" style="stop-color:#FB6FBB"/>
			</linearGradient>
			<path style="fill:url(#SVGID_00000015325019060468334370000003838635760464343469_);" d="M2509.424,1838.649
				c0,0-106.842-95.117-130.393-166.346c-72.66,22.934-92.002,119.282-92.002,119.282s149.598,42.797,199.413,78.708
				C2503.632,1865.836,2509.424,1838.649,2509.424,1838.649z"/>
			
				<linearGradient id="SVGID_00000168813873696271399620000000027995769091141257_" gradientUnits="userSpaceOnUse" x1="3855.0916" y1="992.6301" x2="3840.3704" y2="1024.9419" gradientTransform="matrix(-0.9294 0.3691 0.3691 0.9294 5705.8306 -499.6633)">
				<stop  offset="0" style="stop-color:#AB316D"/>
				<stop  offset="1" style="stop-color:#792D3D"/>
			</linearGradient>
			<path style="fill:url(#SVGID_00000168813873696271399620000000027995769091141257_);" d="M2494.696,1851.898
				c0,0,4.974-9.681,14.728-13.249c4.283-1.799,1.472,26.339-22.983,31.645C2489.193,1864.161,2491.945,1858.03,2494.696,1851.898
				L2494.696,1851.898z"/>
			
				<linearGradient id="SVGID_00000034786429278759842840000003832896600049810858_" gradientUnits="userSpaceOnUse" x1="4098.9199" y1="1695.9899" x2="4239.1084" y2="1695.9899" gradientTransform="matrix(-1 0 0 1 6450.8296 0)">
				<stop  offset="0" style="stop-color:#AB316D"/>
				<stop  offset="1" style="stop-color:#792D3D"/>
			</linearGradient>
			<path style="fill:url(#SVGID_00000034786429278759842840000003832896600049810858_);" d="M2228.793,1789.017
				c4.08-1.62,7.18-5.343,7.78-10.006c16.554-128.524,105.025-152.126,105.889-152.344c6.684-1.665,10.744-8.45,9.072-15.134
				c-1.675-6.683-8.45-10.745-15.134-9.073c-4.331,1.078-105.872,28.134-124.575,173.362c-0.882,6.833,3.947,13.09,10.779,13.968
				C2224.778,1790.074,2226.894,1789.772,2228.793,1789.017z"/>
			<g>
				
					<linearGradient id="SVGID_00000080891953553912982410000008469337356606062735_" gradientUnits="userSpaceOnUse" x1="-3481.8755" y1="3153.3535" x2="-3481.8755" y2="3092.1763" gradientTransform="matrix(1 0 0 1 6258.4619 0)">
					<stop  offset="0" style="stop-color:#FFC444"/>
					<stop  offset="0.9964" style="stop-color:#F36F56"/>
				</linearGradient>
				<path style="fill:url(#SVGID_00000080891953553912982410000008469337356606062735_);" d="M2759.847,3096.973
					c0,0,13.364,33.604,9.847,48.507c14.349-0.281,23.633-2.109,23.633-2.109s-5.768-15.326-6.893-22.918
					c-1.521-10.258-1.407-26.855-1.407-26.855L2759.847,3096.973z"/>
				<path style="fill:#26264F;" d="M2512.836,3184.94c0.823,0.994,2.285,3.07,2.407,5.883c0.067,1.528-0.282,2.785-0.722,3.941
					c-2.171,5.711-5.582,6.464-9.262,12.525c-2.248,3.703-1.823,4.82-3.884,6.491c-2.715,2.203-6,2.329-8.848,2.361
					c-4.811,0.056-11.738-0.117-20.459-1.155c4.571-5.888,9.431-11.868,14.6-17.907c2.267-2.648,4.531-5.235,6.787-7.76
					l13.438-4.538C2508.874,3184.834,2510.855,3184.887,2512.836,3184.94z"/>
				
					<linearGradient id="SVGID_00000021094962807446324810000007348828464916856715_" gradientUnits="userSpaceOnUse" x1="-3767.073" y1="3180.3845" x2="-3767.073" y2="3110.1265" gradientTransform="matrix(1 0 0 1 6258.4619 0)">
					<stop  offset="0" style="stop-color:#FFC444"/>
					<stop  offset="0.9964" style="stop-color:#F36F56"/>
				</linearGradient>
				<path style="fill:url(#SVGID_00000021094962807446324810000007348828464916856715_);" d="M2501.661,3119.73
					c0,0-7.682,40.059,2.093,51.276c8.327,11.217-4.021,3.216-4.021,3.216l-14.746,12.862l-8.847,15.274
					c0,0,8.144-39.207,5.972-54.766c-2.172-15.559-3.258-26.052-3.258-26.052L2501.661,3119.73z"/>
				
					<linearGradient id="SVGID_00000109729560386623304340000006361134271793413031_" gradientUnits="userSpaceOnUse" x1="2640.697" y1="3507.5371" x2="2565.6072" y2="2565.498">
					<stop  offset="0" style="stop-color:#311944"/>
					<stop  offset="1" style="stop-color:#893976"/>
				</linearGradient>
				<path style="fill:url(#SVGID_00000109729560386623304340000006361134271793413031_);" d="M2426.487,2367.447
					c-9.824,32.439-23.852,84.796-32.882,150.485c-25.758,187.367,28.989,193.343,18.765,400.969
					c-3.263,66.275,57.417,219.098,62.765,222.474c2.589,0.25,5.398,0.42,8.393,0.329c5.278-0.16,12.719-0.968,21.372-3.563
					c9.612-1.655,44.268-95.523,36.236-151.334c-5.685-39.5-4.037-81.891-0.742-166.676c0.534-13.738,35.683-267.276,35.683-267.276
					l0,0c10.692,93.846,22.987,173.585,33.647,235.407c34.248,198.625,145.604,318.847,151.412,320.775
					c1.147,0.461,11.596,4.257,20.139-1.374c3.802-2.506,5.096-5.74,5.096-5.74c2.98-2.333-0.878-198.305-34.843-345.792
					c-49.3-214.075-27.832-264.166-43.451-359.785C2694.56,2313.61,2426.487,2367.447,2426.487,2367.447z"/>
				<g>
					<path style="fill:#26264F;" d="M2766.178,3158.232c0,0-3.331,0-3.054,4.3c0.278,4.3-1.5,19.092,15.432,19.786
						c16.931,0.693,19.542-1.198,20.097-1.198s-4.441-14.149-4.441-14.149l-5.413-6.935l-14.572-1.526L2766.178,3158.232z"/>
					<path style="fill:#444B8C;" d="M2803.72,3173.08c-0.361-3.572-2.361-9.195-4.373-13.719c-2.99-6.722-0.536-9.238-3.393-15.36
						c-0.988-2.117-1.948-4.125-4.035-6.113c-0.48-0.458-5.153-4.773-11.957-4.553c-1.339,0.043-3.4,0.132-5.628,1.32
						c-2.626,1.398-3.941,3.499-5.064,5.343c-1.766,2.898-1.36,3.788-4.079,12.092c-0.219,0.666-0.698,2.115-1.066,4.114
						c-0.282,1.53-0.396,2.815-0.446,3.694c4.441,0,21.511,0.694,25.119,3.329c3.609,2.636,5.413,7.075,5.413,11.513
						s2.22,6.519,4.441,6.38C2800.637,3180.996,2804.579,3177.323,2803.72,3173.08z"/>
				</g>
				<path style="fill:#444B8C;" d="M2499.598,3165.379c3.635,0.057,6.3,2.948,8.311,9.915c2.011,6.967,11.663,13.13,0.402,11.656
					c-11.261-1.473-19.438,14.47-23.459,20.366c-4.022,5.895-14.818,11.133-14.55,5.372c0.268-5.761,5.031-8.454,6.372-14.349
					C2478.016,3192.444,2491.309,3165.249,2499.598,3165.379z"/>
				<g>
					
						<linearGradient id="SVGID_00000183940249341565807670000012502851214618635942_" gradientUnits="userSpaceOnUse" x1="2578.2192" y1="1937.1852" x2="2663.5718" y2="1937.1852">
						<stop  offset="0" style="stop-color:#FFC444"/>
						<stop  offset="0.9964" style="stop-color:#F36F56"/>
					</linearGradient>
					<path style="fill:url(#SVGID_00000183940249341565807670000012502851214618635942_);" d="M2578.765,1936.901
						c-3.147-19.666,8.236-36.227,10.734-39.791c10.463-14.919,12.923-16.837,17.357-19.119l6.127-2.869
						c0,0,0.348-0.094,0.709-0.178c3.823-0.884,16.38,0.181,18.852,1.014c7.899,2.664,22.178,39.292,4.872,83.008
						c-1.972,4.983,1.189,11.856,0.705,10.98c10.118,18.307,24.441,10.878,25.313,13.326c1.889,5.303-16.058,6.674-33.457,12.306
						c-21.816,7.063-47.955,4.508-49.596-2.682c-0.664-2.911,2.439-7.662,17.378-15.843c1.457-4.245,2.913-8.49,4.37-12.735
						C2599.055,1962.242,2581.083,1951.388,2578.765,1936.901z"/>
					<path style="fill:#26264F;" d="M2602.915,1864.663c-4.904,8.775-3.131,20.988,1.405,28.826
						c2.712,4.688,4.447,4.753,5.201,8.125c2.114,9.47-13.601,18.517-11.277,22.914c1.66,3.142,10.1-0.683,12.857,3.063
						c3.02,4.104-5.475,10.917-6.211,23.705c-0.115,1.993-0.811,14.092,6.138,19.035c6.486,4.614,16.599,0.074,28.022-4.983
						c12.599-5.578,20.852-12.228,23.247-14.25c7.545-6.371,15.658-13.222,20.603-24.91c1.172-2.769,7.939-19.458,1.455-38.063
						c-8.52-24.447-35.514-39.489-57.849-36.542C2622.887,1852.06,2608.928,1853.902,2602.915,1864.663z"/>
					
						<linearGradient id="SVGID_00000041294255136683548070000010445509206020885123_" gradientUnits="userSpaceOnUse" x1="2596.9158" y1="1929.7673" x2="2612.9963" y2="1929.7673">
						<stop  offset="0" style="stop-color:#FFC444"/>
						<stop  offset="0.9964" style="stop-color:#F36F56"/>
					</linearGradient>
					<path style="fill:url(#SVGID_00000041294255136683548070000010445509206020885123_);" d="M2603.83,1921.733
						c4.103-4.458,9.799,0.833,9.109,7.133c-0.69,6.3-7.546,12.143-13.321,10.216
						C2593.842,1937.156,2598.309,1927.733,2603.83,1921.733z"/>
				</g>
				
					<linearGradient id="SVGID_00000150781773799456969190000008398563723955816084_" gradientUnits="userSpaceOnUse" x1="-2416.8103" y1="2022.1611" x2="-2650.7466" y2="1526.2168" gradientTransform="matrix(1 0 0 1 4942.6836 0)">
					<stop  offset="0" style="stop-color:#AA80F9"/>
					<stop  offset="0.9964" style="stop-color:#6165D7"/>
				</linearGradient>
				<path style="fill:url(#SVGID_00000150781773799456969190000008398563723955816084_);" d="M2625.618,1979.188
					c-32.731-0.963-96.126-11.651-137.563,25.633c-0.72,0.648-4.072,4.318-8.25,9.216c-3.88,4.547-17.191,20.464-29.258,41.98
					c-8.74,15.585-16.629,33.751-24.588,60.824c-14.038,47.746-18.065,88.404-19.412,106.118
					c-7.573,99.618-0.063,145.577,6.752,176.83c29.593,15.203,105.85,42.404,196.71,28.887
					c41.494-6.172,74.701-19.979,98.068-32.305c-23.576-71.384-5.08-109.583,3.646-144.791
					c17.23-69.514,21.126-96.808,69.828-196.776c13.427-27.562,54.899-6.274,34.479-30.464
					C2784.711,1987.241,2654.923,1980.051,2625.618,1979.188z"/>
				
					<linearGradient id="SVGID_00000069366793645246550420000005809114004513883020_" gradientUnits="userSpaceOnUse" x1="-2473.3757" y1="1226.4998" x2="-2707.3091" y2="730.5618" gradientTransform="matrix(0.9294 -0.3691 0.3691 0.9294 4276.7993 67.2367)">
					<stop  offset="0" style="stop-color:#AA80F9"/>
					<stop  offset="0.9964" style="stop-color:#6165D7"/>
				</linearGradient>
				<path style="fill:url(#SVGID_00000069366793645246550420000005809114004513883020_);" d="M2515.107,1989.232
					c-30.862,8.777-90.068,35.274-95.792,27.605c-0.938-1.258-1.802-3.552,4.013-19.697c11.638-32.31,21.611-41.206,20.564-56.904
					c-0.371-5.56-2.237-13.672-9.635-23.248c-0.077-0.041-19.139-9.95-19.208-10.004c-5.614-4.315-11.228-8.631-19.208-10.003
					c-12.633,1.955-27.072,5.714-41.993,12.877c-88.063,42.274-148.228,181.629-97.836,260.262
					c46.234,72.146,188.636,98.017,301.181,7.606C2558.091,2032.358,2536.139,1983.25,2515.107,1989.232z"/>
				
					<linearGradient id="SVGID_00000165919034743652549090000007459455109457012654_" gradientUnits="userSpaceOnUse" x1="-1667.1907" y1="1821.0485" x2="-2045.6666" y2="2103.8652" gradientTransform="matrix(1 0 0 1 4942.6836 0)">
					<stop  offset="0" style="stop-color:#AA80F9"/>
					<stop  offset="0.9964" style="stop-color:#6165D7"/>
				</linearGradient>
				<path style="opacity:0.3;fill:url(#SVGID_00000165919034743652549090000007459455109457012654_);" d="M2541.91,2322.623
					c43.295-18.887,30.964-92.441,72.784-106.057c26.552-8.644,43.892,16.979,68.625,4.159
					c26.516-13.743,25.409-52.948,41.591-54.068c2.384-0.165,5.171,0.511,8.37,2.769c-8.279,26.023-13.439,49.404-21.557,82.155
					c-8.726,35.207-27.223,73.406-3.646,144.79c-23.367,12.327-56.574,26.133-98.068,32.305
					c-90.86,13.517-167.117-13.684-196.71-28.887c-4.017-18.419-8.25-42.057-9.52-78.669c15.335-6.839,31.596-10.899,48.712-10.974
					C2495.4,2309.957,2513.935,2334.827,2541.91,2322.623z"/>
				
					<linearGradient id="SVGID_00000150798234968139358000000010977938124223731368_" gradientUnits="userSpaceOnUse" x1="2661.1697" y1="2328.3665" x2="2709.9978" y2="2328.3665">
					<stop  offset="0" style="stop-color:#FFC444"/>
					<stop  offset="0.9964" style="stop-color:#F36F56"/>
				</linearGradient>
				<path style="fill:url(#SVGID_00000150798234968139358000000010977938124223731368_);" d="M2701.471,2315.208
					c0,0-4.568,3.045-11.572,1.522c-7.003-1.522-15.53-7.308-23.143-9.745c-7.613-2.436-8.222,8.832,3.045,14.617
					c11.267,5.786,21.011,17.358,25.274,26.188c4.263,8.831,14.921-10.658,14.921-10.658L2701.471,2315.208z"/>
				
					<linearGradient id="SVGID_00000101822474568228828450000006525975749769416361_" gradientUnits="userSpaceOnUse" x1="-2261.6799" y1="1948.9862" x2="-2495.6152" y2="1453.0439" gradientTransform="matrix(1 0 0 1 4942.6836 0)">
					<stop  offset="0" style="stop-color:#AA80F9"/>
					<stop  offset="0.9964" style="stop-color:#6165D7"/>
				</linearGradient>
				<path style="fill:url(#SVGID_00000101822474568228828450000006525975749769416361_);" d="M2706.351,1993.9
					c17.3-0.704,95.936-2.039,160.902,56.941c13.063,11.86,75.144,68.219,69.883,148.824
					c-6.31,96.679-106.258,178.564-183.119,166.896c-17.924-2.72-32.476-10.208-43.353-17.641l0.002-0.001l-12.786-36.164
					c-0.207-25.841,13.928-43.908,21.196-53.89c17.918-24.608,43.466-28.909,47.235-50.714c2.085-12.064-3.801-21.944-9.058-30.77
					c-17.91-30.063-46.51-33.769-61.311-49.146C2680.663,2112.362,2663.189,2072.579,2706.351,1993.9z"/>
			</g>
		</g>
		<g>
			<g>
				<path style="fill:#26264F;" d="M1308.313,1125.1l81.494,181.743l11.33,4.239c0,0-7.089-67.252-8.685-71.957
					c-1.594-4.702-32.207-101.598-32.207-101.598L1308.313,1125.1z"/>
				<g>
					<path style="fill:#26264F;" d="M1678.498,731.927l-617.926-63.267c-11.374-0.696-20.759,9.721-20.759,22.971v404.183
						c0,13.624,9.9,25.711,21.573,26.264l565.948-9.897c13.783,0.542,84.611,29.65,84.611,15.312V734.967
						C1711.945,720.202,1693.048,732.897,1678.498,731.927z"/>
				</g>
				<g>
					
						<linearGradient id="SVGID_00000157992306920425024050000007730097706882329004_" gradientUnits="userSpaceOnUse" x1="1049.0229" y1="989.9518" x2="1724.5573" y2="989.9518">
						<stop  offset="0.0036" style="stop-color:#E38DDD"/>
						<stop  offset="1" style="stop-color:#9571F6"/>
					</linearGradient>
					<path style="fill:url(#SVGID_00000157992306920425024050000007730097706882329004_);" d="M1698.181,707.221l-628.302-38.366
						c-11.427-0.698-20.856,9.742-20.856,23.024v405.125c0,13.656,9.946,25.774,21.674,26.332l255.58,12.006l74.86,175.741
						l61.33-169.903l236.809,12.079c14.224,0.677,25.281-9.911,25.281-24.287V735.374
						C1724.557,720.569,1712.856,708.117,1698.181,707.221z"/>
				</g>
				
					<linearGradient id="SVGID_00000064341396494232329020000012954443439192324256_" gradientUnits="userSpaceOnUse" x1="1049.0229" y1="913.6207" x2="1724.5573" y2="913.6207">
					<stop  offset="0.0036" style="stop-color:#E38DDD"/>
					<stop  offset="1" style="stop-color:#9571F6"/>
				</linearGradient>
				<path style="opacity:0.3;fill:url(#SVGID_00000064341396494232329020000012954443439192324256_);" d="M1717.473,716.789
					l-661.154-42.837c-4.451,4.203-7.296,10.629-7.296,17.926v59.748c10.899-4.905,20.169-5.56,27.735-4.519
					c21.069,2.898,26.133,18.412,67.207,42.574c39.171,23.043,43.325,14.283,60.87,30.569
					c34.228,31.772,19.189,65.103,49.438,99.429c31.972,36.282,59.955,12.401,107.162,48.899
					c51.043,39.464,34.571,78.881,77.228,107.804c61.204,41.498,125.505-17.677,180.477,23.91
					c16.888,12.776,27.751,31.189,34.782,50.808l45.354,2.159c14.224,0.677,25.281-9.911,25.281-24.287V735.374
					C1724.557,728.308,1721.866,721.788,1717.473,716.789z"/>
			</g>
			<g>
				<g>
					<path style="fill:#FFFFFF;" d="M1223.473,759.715L1223.473,759.715c4.708,0.831,8.517,5.51,8.517,10.453v16.868
						c9.406,1.813,18.82,4.232,28.241,7.251c6.943,2.225,13.836,4.767,20.679,7.624c4.099,1.711,6.891,6.213,6.473,10.602
						l-1.996,20.962c-0.53,5.562-5.876,8.447-10.91,5.741c-4.509-2.424-9.134-4.558-13.875-6.403
						c-8.277-3.221-17.011-5.575-26.206-7.058l-2.406-0.388v48.307c24.527,8.923,42.515,19.8,54.127,32.655
						c11.548,12.783,17.298,28.075,17.298,45.928c0,19.306-6.357,34.315-19.131,45.077c-12.853,10.828-30.892,16.168-54.251,15.966
						v18.619c0,4.945-3.812,8.534-8.524,8.015l-0.151-0.016c-4.723-0.52-8.56-4.967-8.56-9.932v-18.377l-3.799-0.442
						c-10.978-1.279-21.502-3.172-31.563-5.682c-7.455-1.86-14.74-4.098-21.85-6.716c-4.302-1.584-7.256-6.019-6.861-10.533
						l2.37-27.096c0.512-5.857,6.251-8.875,11.681-6.276c6.327,3.029,12.731,5.655,19.209,7.882
						c10.091,3.468,20.312,5.958,30.661,7.477l0.152-53.759c-23.611-7.762-41.313-18.006-52.954-30.72
						c-11.705-12.783-17.581-28.476-17.581-47.025c0-19.196,6.372-33.526,19.059-42.948c12.613-9.366,30.524-13.122,53.6-11.324
						v-17.254C1214.922,762.228,1218.755,758.882,1223.473,759.715z M1214.922,823.566c-7.292-0.006-12.981,1.631-17.054,4.917
						c-4.081,3.293-6.124,7.979-6.124,14.055c0,5.756,1.89,10.71,5.666,14.855c3.769,4.137,9.612,7.652,17.513,10.541V823.566z
						 M1230.033,922.026v49.281c7.915,0.58,13.982-0.942,18.215-4.558c4.225-3.609,6.334-8.982,6.334-16.123
						c0-6.511-1.96-12.053-5.886-16.633C1244.763,929.405,1238.549,925.417,1230.033,922.026z"/>
				</g>
				<g>
					<path style="fill:#FFFFFF;" d="M1393.953,773.051L1393.953,773.051c4.655,0.825,8.421,5.475,8.421,10.39v16.772
						c9.3,1.799,18.607,4.2,27.922,7.198c6.864,2.209,13.68,4.734,20.446,7.572c4.053,1.7,6.814,6.175,6.4,10.539l-1.973,20.844
						c-0.524,5.531-5.809,8.402-10.787,5.713c-4.458-2.408-9.031-4.529-13.719-6.361c-8.183-3.199-16.819-5.536-25.911-7.007
						l-2.378-0.385v48.034c24.25,8.862,42.035,19.67,53.517,32.448c11.418,12.706,17.103,27.909,17.103,45.661
						c0,19.197-6.286,34.124-18.916,44.83c-12.708,10.772-30.543,16.088-53.639,15.898v18.513c0,4.917-3.769,8.487-8.428,7.973
						l-0.15-0.016c-4.67-0.515-8.463-4.935-8.463-9.872v-18.273l-3.756-0.438c-10.854-1.267-21.259-3.145-31.206-5.638
						c-7.371-1.847-14.573-4.069-21.603-6.669c-4.253-1.573-7.173-5.982-6.783-10.471l2.343-26.943
						c0.506-5.824,6.18-8.827,11.549-6.245c6.256,3.009,12.587,5.618,18.992,7.829c9.977,3.444,20.082,5.916,30.314,7.423
						l0.15-53.455c-23.344-7.708-40.845-17.887-52.355-30.524c-11.572-12.706-17.382-28.307-17.382-46.75
						c0-19.087,6.3-33.338,18.844-42.712c12.47-9.318,30.178-13.061,52.994-11.283v-17.157
						C1385.498,775.553,1389.288,772.225,1393.953,773.051z M1385.498,836.544c-7.21-0.003-12.834,1.628-16.861,4.897
						c-4.035,3.276-6.055,7.936-6.055,13.978c0,5.724,1.869,10.648,5.601,14.768c3.726,4.112,9.503,7.605,17.315,10.474V836.544z
						 M1400.439,934.44v49.002c7.826,0.573,13.824-0.943,18.01-4.54c4.177-3.59,6.263-8.933,6.263-16.035
						c0-6.474-1.938-11.984-5.82-16.536C1415.002,941.771,1408.858,937.808,1400.439,934.44z"/>
				</g>
				<g>
					<path style="fill:#FFFFFF;" d="M1562.512,786.236L1562.512,786.236c4.602,0.818,8.326,5.441,8.326,10.327v16.678
						c9.195,1.785,18.398,4.168,27.609,7.145c6.787,2.194,13.526,4.701,20.216,7.521c4.007,1.689,6.737,6.137,6.329,10.477
						l-1.951,20.728c-0.518,5.5-5.744,8.357-10.666,5.685c-4.408-2.393-8.93-4.499-13.565-6.32
						c-8.092-3.178-16.63-5.498-25.62-6.957l-2.352-0.382v47.764c23.978,8.802,41.563,19.542,52.916,32.243
						c11.29,12.63,16.912,27.745,16.912,45.398c0,19.089-6.215,33.935-18.704,44.585c-12.565,10.717-30.201,16.01-53.037,15.829
						v18.409c0,4.889-3.727,8.44-8.334,7.932l-0.148-0.016c-4.617-0.51-8.368-4.904-8.368-9.813v-18.17l-3.714-0.434
						c-10.732-1.256-21.02-3.119-30.855-5.593c-7.288-1.833-14.409-4.041-21.36-6.623c-4.205-1.563-7.093-5.945-6.707-10.409
						l2.316-26.792c0.5-5.791,6.11-8.78,11.419-6.215c6.185,2.989,12.445,5.581,18.778,7.777c9.865,3.421,19.856,5.875,29.974,7.369
						l0.148-53.154c-23.082-7.655-40.386-17.77-51.766-30.33c-11.442-12.629-17.186-28.14-17.186-46.479
						c0-18.979,6.229-33.153,18.631-42.479c12.329-9.271,29.839-13,52.398-11.242v-17.06
						C1554.153,788.728,1557.9,785.417,1562.512,786.236z M1554.153,849.375c-7.129,0-12.69,1.624-16.672,4.876
						c-3.989,3.259-5.987,7.894-5.987,13.902c0,5.692,1.848,10.588,5.539,14.683c3.684,4.088,9.396,7.558,17.12,10.408V849.375z
						 M1568.926,946.714v48.726c7.738,0.567,13.669-0.943,17.807-4.521c4.13-3.572,6.193-8.885,6.193-15.947
						c0-6.438-1.917-11.916-5.755-16.441C1583.325,953.997,1577.25,950.06,1568.926,946.714z"/>
				</g>
			</g>
		</g>
	</g>
</g>
</svg>
