<?xml version="1.0" encoding="utf-8"?>
<!-- Generator: Adobe Illustrator 27.5.0, SVG Export Plug-In . SVG Version: 6.00 Build 0)  -->
<svg version="1.1" xmlns="http://www.w3.org/2000/svg" xmlns:xlink="http://www.w3.org/1999/xlink" x="0px" y="0px"
	 viewBox="0 0 500 500" style="enable-background:new 0 0 500 500;" xml:space="preserve">
<g id="Background_Complete">
	<rect x="416.779" y="398.494" style="fill:#EBEBEB;" width="33.122" height="0.25"/>
	<rect x="322.527" y="401.208" style="fill:#EBEBEB;" width="8.693" height="0.25"/>
	<rect x="396.586" y="389.208" style="fill:#EBEBEB;" width="19.192" height="0.25"/>
	<rect x="52.459" y="390.888" style="fill:#EBEBEB;" width="43.193" height="0.25"/>
	<rect x="104.556" y="390.888" style="fill:#EBEBEB;" width="6.333" height="0.25"/>
	
		<rect x="178.184" y="348.398" transform="matrix(0.0046 -1 1 0.0046 -217.7352 571.7415)" style="fill:#EBEBEB;" width="0.25" height="93.676"/>
	<g>
		<path style="fill:#EBEBEB;" d="M238.401,337.8H45.302c-3.147,0-5.708-2.561-5.708-5.708V60.66c0-3.147,2.561-5.708,5.708-5.708
			h193.099c3.146,0,5.707,2.561,5.707,5.708v271.432C244.108,335.239,241.547,337.8,238.401,337.8z M45.302,55.203
			c-3.01,0-5.458,2.448-5.458,5.458v271.432c0,3.01,2.448,5.458,5.458,5.458h193.099c3.009,0,5.457-2.448,5.457-5.458V60.66
			c0-3.009-2.448-5.458-5.457-5.458H45.302z"/>
		<g>
			<path style="fill:#EBEBEB;" d="M454.698,337.8H261.599c-3.146,0-5.707-2.561-5.707-5.708V60.66c0-3.147,2.561-5.708,5.707-5.708
				h193.099c3.148,0,5.708,2.561,5.708,5.708v271.432C460.406,335.239,457.845,337.8,454.698,337.8z M261.599,55.203
				c-3.009,0-5.457,2.448-5.457,5.458v271.432c0,3.01,2.448,5.458,5.457,5.458h193.099c3.01,0,5.458-2.448,5.458-5.458V60.66
				c0-3.009-2.448-5.458-5.458-5.458H261.599z"/>
		</g>
	</g>
	<rect y="382.398" style="fill:#EBEBEB;" width="500" height="0.25"/>
	<g>
		<g>
			<path style="fill:#E0E0E0;" d="M427.805,382.043H284.445c-10.863,0-19.669-8.806-19.669-19.669v-42.669
				c0-10.863,8.806-19.669,19.669-19.669h143.361c10.863,0,19.669,8.806,19.669,19.669v42.669
				C447.475,373.237,438.668,382.043,427.805,382.043z"/>
			<path style="fill:#F5F5F5;" d="M418.178,382.648H274.818c-10.863,0-19.669-8.806-19.669-19.669V320.31
				c0-10.863,8.806-19.669,19.669-19.669h143.361c10.863,0,19.669,8.806,19.669,19.669v42.669
				C437.848,373.842,429.041,382.648,418.178,382.648z"/>
			<path style="fill:#E0E0E0;" d="M429.473,338.969H264.597v-16.857c0-7.587,6.151-13.738,13.738-13.738h137.4
				c7.587,0,13.738,6.151,13.738,13.738V338.969z"/>
			<path style="fill:#E0E0E0;" d="M415.735,373.704h-137.4c-7.587,0-13.738-6.151-13.738-13.738v-16.857h164.876v16.857
				C429.473,367.554,423.322,373.704,415.735,373.704z"/>
			<g>
				<rect x="362.316" y="314.297" style="fill:#E6E6E6;" width="23.367" height="24.875"/>
				<rect x="356.33" y="314.297" style="fill:#F5F5F5;" width="5.985" height="24.875"/>
				<rect x="374.257" y="310.461" style="fill:#E6E6E6;" width="17.553" height="28.711"/>
				<rect x="369.189" y="310.461" style="fill:#F5F5F5;" width="5.075" height="28.711"/>
				<rect x="379.429" y="314.297" style="fill:#EBEBEB;" width="14.8" height="24.875"/>
				<rect x="376.048" y="314.297" style="fill:#F5F5F5;" width="3.381" height="24.875"/>
				<rect x="391.542" y="318.506" style="fill:#E6E6E6;" width="19.412" height="20.666"/>
				<rect x="386.571" y="318.506" style="fill:#F5F5F5;" width="4.97" height="20.666"/>
				<rect x="401.46" y="315.319" style="fill:#E6E6E6;" width="14.583" height="23.852"/>
				<rect x="397.251" y="315.319" style="fill:#F5F5F5;" width="4.217" height="23.852"/>
				<rect x="405.759" y="318.506" style="fill:#E6E6E6;" width="14.165" height="20.666"/>
				<rect x="402.945" y="318.506" style="fill:#F0F0F0;" width="2.806" height="20.666"/>
			</g>
			<g>
				<rect x="289.599" y="347.888" style="fill:#E6E6E6;" width="23.367" height="24.875"/>
				<rect x="283.613" y="347.888" style="fill:#F5F5F5;" width="5.985" height="24.875"/>
				<rect x="301.54" y="344.052" style="fill:#E6E6E6;" width="17.553" height="28.711"/>
				<rect x="296.472" y="344.052" style="fill:#F5F5F5;" width="5.075" height="28.711"/>
				<rect x="369.317" y="347.888" style="fill:#E6E6E6;" width="23.367" height="24.875"/>
				<rect x="363.332" y="347.888" style="fill:#F5F5F5;" width="5.985" height="24.875"/>
				<rect x="381.258" y="344.052" style="fill:#E6E6E6;" width="17.553" height="28.711"/>
				<rect x="376.191" y="344.052" style="fill:#F5F5F5;" width="5.075" height="28.711"/>
				<rect x="306.712" y="347.888" style="fill:#EBEBEB;" width="14.8" height="24.875"/>
				<rect x="303.331" y="347.888" style="fill:#F5F5F5;" width="3.381" height="24.875"/>
				<rect x="318.824" y="352.097" style="fill:#E6E6E6;" width="19.412" height="20.666"/>
				<rect x="313.854" y="352.097" style="fill:#F5F5F5;" width="4.97" height="20.666"/>
				<rect x="328.743" y="348.91" style="fill:#E6E6E6;" width="14.583" height="23.852"/>
				<rect x="324.534" y="348.91" style="fill:#F5F5F5;" width="4.217" height="23.852"/>
				<rect x="333.042" y="352.097" style="fill:#E6E6E6;" width="14.165" height="20.666"/>
				<rect x="330.228" y="352.097" style="fill:#F0F0F0;" width="2.806" height="20.666"/>
			</g>
			<g>
				<g>
					<g>
						<g>
							<path style="fill:#EBEBEB;" d="M312.773,315.055c-0.498-0.98-1.633-1.547-2.666-1.331s-1.878,1.198-1.985,2.304
								c-0.73-0.546-1.775-0.574-2.53-0.067c-0.755,0.507-1.175,1.518-1.018,2.449c-0.823-0.665-2.173-0.39-2.704,0.55
								c-0.531,0.941-0.119,2.327,0.826,2.777c-0.643,0.046-1.195,0.688-1.178,1.368c0.017,0.681,0.6,1.29,1.244,1.301
								c-0.651,0.015-1.251,0.588-1.329,1.271c-0.079,0.684,0.373,1.392,1.002,1.572c-0.662,0.294-0.829,1.381-0.29,1.882
								s1.538,0.183,1.727-0.548c0.101,0.211,0.413,0.261,0.568,0.09c0.155-0.171,0.095-0.498-0.109-0.596
								c0.298,0.42,1.059,0.225,1.142-0.292c-0.224,1.198,1.206,2.326,2.229,1.758c-0.295,0.501,0.122,1.199,0.66,1.355
								c0.538,0.156,1.106-0.064,1.612-0.314c0.506-0.25,1.022-0.541,1.58-0.533c0.489,0.007,0.945,0.243,1.414,0.393
								c1.488,0.477,3.208,0.023,4.309-1.138c0.773,1.038,2.606,0.759,3.07-0.468c0.119,0.589,0.64,1.059,1.208,1.092
								c0.569,0.034,1.135-0.373,1.316-0.944c0.012,0.262,0.023,0.525,0.035,0.787c1.072,0.254,2.131-1.13,1.671-2.186
								c0.765,0.014,1.49-0.647,1.588-1.449c0.099-0.802-0.441-1.637-1.185-1.831c1.261-0.354,2.224-1.662,2.238-3.042
								c0.014-1.38-0.922-2.709-2.176-3.091c-0.494-0.151-1.075-0.147-1.469,0.201c-0.395,0.349-0.447,1.115-0.006,1.395
								c0.379-1.237-0.183-2.719-1.266-3.336c-1.083-0.617-2.563-0.3-3.332,0.715c0.375-0.526,0.382-1.311,0.017-1.844
								c-0.365-0.533-1.073-0.771-1.663-0.559c-0.147-0.849-0.993-1.491-1.801-1.366s-1.445,0.997-1.355,1.855
								c-0.093-0.717-1.208-0.927-1.529-0.288C312.186,314.822,312.773,315.055,312.773,315.055z"/>
						</g>
					</g>
					<g>
						<g>
							<path style="fill:#FAFAFA;" d="M313.073,323.038c-0.331-0.23-0.749-0.354-1.143-0.275c-0.395,0.079-0.752,0.384-0.833,0.779
								c-0.081,0.395,0.164,0.846,0.556,0.941c0.476,0.115,0.953-0.277,1.438-0.209c0.173,0.025,0.333,0.107,0.502,0.152
								c0.697,0.186,1.388-0.269,1.967-0.7c0.204-0.152,0.412-0.308,0.548-0.523c0.136-0.214,0.186-0.502,0.058-0.722
								c-0.178-0.306-0.6-0.35-0.952-0.31c-0.705,0.081-1.385,0.365-1.938,0.81c0.018-0.11,0.036-0.221,0.054-0.331L313.073,323.038
								z"/>
						</g>
						<g>
							<path style="fill:#FAFAFA;" d="M323.206,322.44c-0.189-0.132-0.384-0.268-0.609-0.32c-0.225-0.053-0.489-0.005-0.631,0.177
								c-0.195,0.249-0.071,0.639,0.176,0.837c0.247,0.197,0.576,0.252,0.888,0.301c0.321,0.05,0.727,0.061,0.885-0.222
								c0.116-0.207,0.023-0.48-0.15-0.642c-0.173-0.162-0.406-0.239-0.632-0.312L323.206,322.44z"/>
						</g>
						<g>
							<path style="fill:#FAFAFA;" d="M307.199,317.169c-0.645,0.27-1.144,0.866-1.294,1.549c-0.045,0.206-0.039,0.465,0.141,0.575
								c0.128,0.078,0.292,0.046,0.437,0.011c0.618-0.147,1.237-0.294,1.855-0.44c-0.296,0.114-0.599,0.232-0.836,0.444
								c-0.236,0.211-0.395,0.54-0.318,0.847c0.091,0.361,0.487,0.584,0.859,0.578s0.719-0.19,1.022-0.408
								c0.323-0.232,0.639-0.553,0.645-0.95c0.006-0.398-0.494-0.766-0.8-0.511c0.707-0.192,1.382-0.5,1.991-0.907
								c0.22-0.147,0.437-0.313,0.576-0.539c0.139-0.226,0.186-0.524,0.059-0.756c-0.634-1.152-1.435,0.538-1.825,0.688
								C308.972,317.636,308.138,316.777,307.199,317.169z"/>
							<path style="fill:#FAFAFA;" d="M304.315,322.086c-0.065,0.225-0.02,0.497,0.163,0.643c0.183,0.146,0.508,0.097,0.592-0.122
								c-0.414,0.129-0.856,0.278-1.114,0.627c-0.258,0.349-0.194,0.958,0.218,1.093c0.257,0.084,0.532-0.042,0.77-0.172
								c0.672-0.368,1.314-0.79,1.916-1.263c-0.184,0.425,0.259,0.907,0.72,0.947c0.461,0.04,0.893-0.21,1.288-0.45
								c0.485-0.295,1.042-0.745,0.914-1.299c-0.111-0.482-0.727-0.695-1.201-0.554c-0.474,0.141-0.83,0.523-1.162,0.89
								c0.26-0.379-0.109-0.942-0.565-1.003c-0.443-0.06-0.884,0.21-1.16,0.536c0.516-0.283,0.631-1.021-0.06-1.106
								C305.186,320.797,304.424,321.712,304.315,322.086z"/>
							<path style="fill:#FAFAFA;" d="M318.472,320.43c-0.39-0.146-0.878,0.108-0.983,0.51s0.197,0.862,0.608,0.925
								c-0.302,0.026-0.592,0.177-0.786,0.41c-0.108,0.129-0.19,0.296-0.165,0.463c0.036,0.25,0.302,0.414,0.554,0.423
								c0.252,0.009,0.492-0.098,0.722-0.202c-0.249,0.023-0.513,0.052-0.71,0.206c-0.198,0.153-0.283,0.478-0.106,0.654
								c0.148,0.147,0.392,0.123,0.594,0.066c0.452-0.127,0.873-0.363,1.215-0.684c0.257,0.285,0.639,0.491,1.018,0.429
								c0.379-0.062,0.701-0.465,0.582-0.831c-0.085-0.261-0.357-0.425-0.629-0.458c-0.272-0.033-0.545,0.042-0.805,0.126
								c0.267-0.189,0.549-0.401,0.647-0.713c0.098-0.312-0.113-0.731-0.44-0.706c-0.367,0.029-0.554,0.528-0.844,0.708
								C318.586,321.42,319.255,320.723,318.472,320.43z"/>
							<g>
								<path style="fill:#FAFAFA;" d="M311.862,318.904c-0.417,0.283-0.562,0.84-0.533,1.343c0.032,0.556,0.285,1.149,0.794,1.372
									c0.671,0.293,1.508-0.265,1.631-0.986c0.123-0.721-0.35-1.455-1-1.793C312.755,318.841,312.28,318.622,311.862,318.904z"/>
							</g>
							<g>
								<path style="fill:#FAFAFA;" d="M316.544,318.305c0.058,0.05,0.115,0.099,0.173,0.149c-0.284-0.36-0.885-0.407-1.222-0.096
									c-0.337,0.311-0.34,0.913-0.004,1.226c0.335,0.313,0.936,0.27,1.223-0.088c0.484,0.225,1.122,0.137,1.463-0.274
									c0.34-0.411,0.263-1.127-0.201-1.391c-0.464-0.263-1.17,0.132-1.121,0.663c-0.067-0.075-0.134-0.15-0.201-0.224
									L316.544,318.305z"/>
							</g>
							<g>
								<path style="fill:#FAFAFA;" d="M321.712,319.139c-0.331,0.326-0.676,0.675-0.798,1.124c-0.121,0.449,0.079,1.02,0.53,1.135
									c0.448,0.114,0.873-0.256,1.128-0.641c0.231-0.348,0.407-0.781,0.274-1.176s-0.702-0.63-0.987-0.325L321.712,319.139z"/>
							</g>
							<path style="fill:#FAFAFA;" d="M314.265,316.427c-0.169-0.376-0.704-0.508-1.054-0.29c-0.35,0.218-0.479,0.709-0.326,1.092
								c0.153,0.383,0.546,0.643,0.956,0.688c0.508,0.056,1.108-0.355,0.994-0.853c0.219,0.289,0.612,0.403,0.973,0.368
								c0.361-0.035,0.695-0.199,1.01-0.38c0.426-0.245,0.881-0.625,0.836-1.115c-0.036-0.39-0.414-0.691-0.804-0.727
								c-0.39-0.036-0.775,0.145-1.073,0.4c-0.234,0.2-0.429,0.447-0.682,0.622c-0.253,0.175-0.598,0.269-0.869,0.123
								L314.265,316.427z"/>
						</g>
					</g>
				</g>
				<g>
					<polygon style="fill:#F0F0F0;" points="320.625,339.168 307.819,339.168 306.565,326.261 321.879,326.261 					"/>
					<polygon style="fill:#FAFAFA;" points="322.871,326.927 305.447,326.927 305.133,325.21 323.184,325.21 					"/>
				</g>
			</g>
			<g>
				<g>
					<polygon style="fill:#E0E0E0;" points="423.488,299.727 408.788,299.727 413.394,284.887 414.068,282.717 417.393,282.717 
											"/>
					<polygon style="fill:#E0E0E0;" points="414.068,282.717 413.394,284.887 408.788,299.727 395.199,299.525 390.83,284.887 
						390.156,282.717 					"/>
					<polygon style="fill:#FAFAFA;" points="414.068,282.717 413.394,284.887 408.788,299.727 380.878,299.312 386.824,282.717 
											"/>
					<polygon style="fill:#EBEBEB;" points="414.068,282.717 413.394,284.887 386.054,284.887 386.824,282.717 					"/>
				</g>
				<g>
					<g>
						<path style="fill:#EBEBEB;" d="M390.256,291.937h-6.129l2.138-6.037l5.862,0.065L390.256,291.937z M384.835,291.437h5.054
							l1.56-4.98l-4.832-0.054L384.835,291.437z"/>
					</g>
					<g>
						<path style="fill:#EBEBEB;" d="M397.112,291.937h-6.128l2.138-6.037l5.862,0.065L397.112,291.937z M391.691,291.437h5.054
							l1.56-4.98l-4.832-0.054L391.691,291.437z"/>
					</g>
					<g>
						<path style="fill:#EBEBEB;" d="M403.969,291.937h-6.129l2.139-6.037l5.862,0.065L403.969,291.937z M398.548,291.437h5.054
							l1.56-4.98l-4.832-0.054L398.548,291.437z"/>
					</g>
					<g>
						<path style="fill:#EBEBEB;" d="M410.826,291.937h-6.128l2.138-6.037l5.861,0.065L410.826,291.937z M405.405,291.437h5.054
							l1.56-4.98l-4.831-0.054L405.405,291.437z"/>
					</g>
				</g>
				<g>
					<g>
						<path style="fill:#EBEBEB;" d="M388.117,298.342h-6.129l2.138-6.037l5.862,0.066L388.117,298.342z M382.696,297.842h5.054
							l1.56-4.979l-4.831-0.054L382.696,297.842z"/>
					</g>
					<g>
						<path style="fill:#EBEBEB;" d="M394.974,298.342h-6.128l2.138-6.037l5.861,0.066L394.974,298.342z M389.553,297.842h5.054
							l1.56-4.979l-4.831-0.054L389.553,297.842z"/>
					</g>
					<g>
						<path style="fill:#EBEBEB;" d="M401.831,298.342h-6.129l2.139-6.037l5.862,0.066L401.831,298.342z M396.409,297.842h5.054
							l1.56-4.979l-4.832-0.054L396.409,297.842z"/>
					</g>
					<g>
						<path style="fill:#EBEBEB;" d="M408.687,298.342h-6.129l2.138-6.037l5.861,0.066L408.687,298.342z M403.266,297.842h5.054
							l1.559-4.979l-4.831-0.054L403.266,297.842z"/>
					</g>
				</g>
			</g>
			<g>
				<path style="fill:#F0F0F0;" d="M353.894,300.036H336.75v-9.837c0-4.734,3.838-8.572,8.572-8.572l0,0
					c4.734,0,8.572,3.838,8.572,8.572V300.036z"/>
				<g>
					<g>
						<g>
							<g>
								<circle style="fill:#FFFFFF;" cx="345.22" cy="290.654" r="7.232"/>
								<path style="fill:#EBEBEB;" d="M350.922,290.654c0,3.206-2.599,5.804-5.804,5.804s-5.804-2.599-5.804-5.804
									s2.599-5.804,5.804-5.804S350.922,287.448,350.922,290.654z"/>
							</g>
							<g>
								<g>
									<path style="fill:#FAFAFA;" d="M345.798,290.785c0,0.346-0.28,0.626-0.626,0.626c-0.346,0-0.626-0.28-0.626-0.626
										c0-0.346,0.28-0.626,0.626-0.626C345.518,290.159,345.798,290.439,345.798,290.785z"/>
								</g>
								<g>
									<polygon style="fill:#FAFAFA;" points="345.101,291.015 342.445,288.516 342.703,288.242 345.109,290.506 349.421,286.697 
										349.67,286.978 									"/>
								</g>
							</g>
						</g>
					</g>
				</g>
			</g>
		</g>
		<g>
			<g>
				<polygon style="fill:#E6E6E6;" points="390.556,95.735 401.435,106.614 390.556,117.494 				"/>
			</g>
			<g>
				<polygon style="fill:#E6E6E6;" points="373.99,91.81 388.697,106.517 373.99,121.224 				"/>
			</g>
		</g>
		<polyline style="fill:none;stroke:#E6E6E6;stroke-width:9;stroke-miterlimit:10;" points="425.565,134.559 441.115,148.043 
			425.565,163.61 		"/>
		<g>
			
				<polyline style="fill:none;stroke:#E6E6E6;stroke-width:5;stroke-linecap:round;stroke-linejoin:round;stroke-miterlimit:10;" points="
				124.806,323.505 141.36,337.86 124.806,354.433 			"/>
			
				<polyline style="fill:none;stroke:#E6E6E6;stroke-width:5;stroke-linecap:round;stroke-linejoin:round;stroke-miterlimit:10;" points="
				135.988,323.505 152.542,337.86 135.988,354.433 			"/>
		</g>
	</g>
</g>
<g id="Background_Simple" style="display:none;">
	<path style="display:inline;fill:#EBEBEB;" d="M-88.921,392.426c0.238,0,0.475,0,0.713,0"/>
	<g style="display:inline;">
		<g>
			<path style="fill:#407BFF;" d="M166.486,69.151c-34.434,5.828-72.926,29.682-89.354,58.289
				c-16.427,28.608-20.45,62.597-14.254,94.482c6.195,31.885,22.179,61.724,43.285,87.569
				c28.457,34.845,69.914,62.962,116.326,70.89c44.974,7.682,92.726-10.497,131.46-32.999
				c38.734-22.502,69.722-57.475,81.803-98.296c4.727-15.972,6.443-33.502-0.569-48.737c-9.793-21.277-35.153-33.739-60.068-35.531
				c-24.914-1.792-40.145,5.342-63.383,13.849C304.52,156.69,279.584,50.009,166.486,69.151z"/>
		</g>
		<g style="opacity:0.9;">
			<path style="fill:#FFFFFF;" d="M166.486,69.151c-34.434,5.828-72.926,29.682-89.354,58.289
				c-16.427,28.608-20.45,62.597-14.254,94.482c6.195,31.885,22.179,61.724,43.285,87.569
				c28.457,34.845,69.914,62.962,116.326,70.89c44.974,7.682,92.726-10.497,131.46-32.999
				c38.734-22.502,69.722-57.475,81.803-98.296c4.727-15.972,6.443-33.502-0.569-48.737c-9.793-21.277-35.153-33.739-60.068-35.531
				c-24.914-1.792-40.145,5.342-63.383,13.849C304.52,156.69,279.584,50.009,166.486,69.151z"/>
		</g>
	</g>
</g>
<g id="Shadow">
	<ellipse id="_x3C_Path_x3E__359_" style="fill:#F5F5F5;" cx="250" cy="415.693" rx="193.889" ry="11.323"/>
</g>
<g id="Plant">
	<g>
		<g>
			<path style="fill:#407BFF;" d="M238.514,342.542c0,0-13.627-10.737-24.898-0.485l4.533,0.6l-6.766,1.768
				c-0.875,1.063-1.731,2.26-2.554,3.639c-0.985,1.652-1.894,3.195-2.743,4.652l4.526,0.94l-6.942,3.26
				c-7.109,12.535-8.304,16.347-8.304,16.347s5.981,0.145,13.49-1.431l4-10.42l0.818,9.201c4.581-1.366,9.355-3.437,13.493-6.565
				l-1.769-9.309l5.412,6.088c2.883-3.014,5.179-6.776,6.513-11.426l-3.065-2.947l3.61,0.74
				C238.171,345.722,238.406,344.186,238.514,342.542z"/>
			<path style="opacity:0.2;fill:#FFFFFF;" d="M238.514,342.542c0,0-13.627-10.737-24.898-0.485l4.533,0.6l-6.766,1.768
				c-0.875,1.063-1.731,2.26-2.554,3.639c-0.985,1.652-1.894,3.195-2.743,4.652l4.526,0.94l-6.942,3.26
				c-7.109,12.535-8.304,16.347-8.304,16.347s5.981,0.145,13.49-1.431l4-10.42l0.818,9.201c4.581-1.366,9.355-3.437,13.493-6.565
				l-1.769-9.309l5.412,6.088c2.883-3.014,5.179-6.776,6.513-11.426l-3.065-2.947l3.61,0.74
				C238.171,345.722,238.406,344.186,238.514,342.542z"/>
			<path style="fill:#407BFF;" d="M265.31,334.495c0,0,17.607-13.872,32.169-0.626l-5.856,0.775l8.742,2.285
				c1.131,1.374,2.236,2.92,3.299,4.702c1.273,2.134,2.447,4.128,3.543,6.01l-5.848,1.214l8.969,4.212
				c9.185,16.196,10.729,21.12,10.729,21.12s-7.728,0.187-17.429-1.849l-5.168-13.463l-1.056,11.887
				c-5.918-1.765-12.087-4.44-17.432-8.482l2.285-12.027l-6.992,7.866c-3.725-3.894-6.691-8.755-8.415-14.762l3.96-3.808
				l-4.664,0.957C265.752,338.603,265.448,336.619,265.31,334.495z"/>
			<path style="opacity:0.3;fill:#FFFFFF;" d="M265.31,334.495c0,0,17.607-13.872,32.169-0.626l-5.856,0.775l8.742,2.285
				c1.131,1.374,2.236,2.92,3.299,4.702c1.273,2.134,2.447,4.128,3.543,6.01l-5.848,1.214l8.969,4.212
				c9.185,16.196,10.729,21.12,10.729,21.12s-7.728,0.187-17.429-1.849l-5.168-13.463l-1.056,11.887
				c-5.918-1.765-12.087-4.44-17.432-8.482l2.285-12.027l-6.992,7.866c-3.725-3.894-6.691-8.755-8.415-14.762l3.96-3.808
				l-4.664,0.957C265.752,338.603,265.448,336.619,265.31,334.495z"/>
			<path style="fill:#407BFF;" d="M258.104,309.1c0,0-2.641,22.259-22.304,23.19l3.593-4.689l-7.797,4.566
				c-1.771-0.172-3.646-0.483-5.658-0.992c-2.409-0.609-4.649-1.189-6.756-1.745l3.277-4.993l-9.32,3.364
				c-17.947-4.957-22.521-7.348-22.521-7.348s5.332-5.597,13.631-11.017l13.174,5.866l-7.658-9.153
				c5.433-2.937,11.686-5.407,18.324-6.329l6.889,10.121l-0.618-10.507c5.388,0.12,10.922,1.459,16.388,4.488l-0.108,5.493
				l2.621-3.975C254.886,306.508,256.504,307.696,258.104,309.1z"/>
			<path style="opacity:0.5;fill:#FFFFFF;" d="M258.104,309.1c0,0-2.641,22.259-22.304,23.19l3.593-4.689l-7.797,4.566
				c-1.771-0.172-3.646-0.483-5.658-0.992c-2.409-0.609-4.649-1.189-6.756-1.745l3.277-4.993l-9.32,3.364
				c-17.947-4.957-22.521-7.348-22.521-7.348s5.332-5.597,13.631-11.017l13.174,5.866l-7.658-9.153
				c5.433-2.937,11.686-5.407,18.324-6.329l6.889,10.121l-0.618-10.507c5.388,0.12,10.922,1.459,16.388,4.488l-0.108,5.493
				l2.621-3.975C254.886,306.508,256.504,307.696,258.104,309.1z"/>
			<path style="fill:#407BFF;" d="M215.214,352.419c0,0,30.118-42.336,39.783,20.082h-3.452c0,0-3.281-28.596-14.758-30.725
				C225.311,339.647,215.214,352.419,215.214,352.419z"/>
			<path style="fill:#407BFF;" d="M289.909,344.656c0,0-29.044-58.701-38.364,27.844h3.329c0,0,3.164-39.65,14.231-42.602
				C280.172,326.948,289.909,344.656,289.909,344.656z"/>
			<path style="fill:#407BFF;" d="M220.944,318.591c0,0,44.063-6.792,37.16,54.768h3.452
				C261.556,373.358,270.08,312.032,220.944,318.591z"/>
		</g>
		<path style="fill:#263238;" d="M245.78,407.647l-1.427-38.128h25.495l-1.427,38.128c-0.13,3.471-2.982,6.218-6.456,6.218h-9.729
			C248.762,413.865,245.91,411.118,245.78,407.647z"/>
	</g>
</g>
<g id="Screen">
	<g>
		<g>
			<g>
				<g>
					<polygon style="fill:#407BFF;" points="365.664,294.202 69.213,294.202 55.135,92.879 351.586,92.879 					"/>
				</g>
				<polygon style="fill:#263238;" points="352.584,108.316 56.214,108.316 55.135,92.879 351.505,92.879 				"/>
				<path style="opacity:0.7;fill:#FFFFFF;" d="M322.136,99.818c0.123,1.759-1.203,3.185-2.963,3.185
					c-1.759,0-3.285-1.426-3.408-3.185c-0.123-1.759,1.204-3.185,2.963-3.185C320.487,96.632,322.013,98.059,322.136,99.818z"/>
				<path style="opacity:0.7;fill:#FFFFFF;" d="M331.692,99.818c0.123,1.759-1.203,3.185-2.963,3.185
					c-1.759,0-3.285-1.426-3.408-3.185c-0.123-1.759,1.203-3.185,2.963-3.185C330.043,96.632,331.569,98.059,331.692,99.818z"/>
				<path style="opacity:0.7;fill:#FFFFFF;" d="M341.248,99.818c0.123,1.759-1.203,3.185-2.963,3.185
					c-1.759,0-3.285-1.426-3.408-3.185c-0.123-1.759,1.203-3.185,2.963-3.185C339.599,96.632,341.125,98.059,341.248,99.818z"/>
			</g>
			<polygon style="opacity:0.4;fill:#FFFFFF;" points="365.664,294.202 69.213,294.202 59.683,157.923 356.135,157.923 			"/>
			<path style="opacity:0.4;fill:#FFFFFF;" d="M126.279,157.923H59.683l2.225-13.222c0.773-4.595,4.652-7.837,9.375-7.837h40.449
				c4.723,0,9.056,3.242,10.472,7.837L126.279,157.923z"/>
			<path style="opacity:0.1;" d="M195.478,157.923h-66.596l2.225-13.222c0.773-4.595,4.652-7.837,9.376-7.837h40.449
				c4.723,0,9.056,3.242,10.471,7.837L195.478,157.923z"/>
			<path style="opacity:0.1;" d="M264.678,157.923h-66.596l2.225-13.222c0.773-4.595,4.652-7.837,9.375-7.837h40.449
				c4.723,0,9.056,3.242,10.472,7.837L264.678,157.923z"/>
			<g>
				<path d="M93.023,150.439h-3.035l-0.481,1.401h-1.55l2.456-6.537h1.494l3.38,6.537H93.7L93.023,150.439z M92.467,149.29
					l-1.212-2.503l-0.862,2.503H92.467z"/>
			</g>
			<g>
				<path d="M164.417,150.056c0.079,1.13-0.772,1.784-2.49,1.784h-3.381l-0.457-6.537h3.194c1.634,0,2.522,0.682,2.593,1.7
					c0.046,0.654-0.255,1.158-0.768,1.438C163.854,148.674,164.36,149.234,164.417,150.056z M159.673,146.442l0.108,1.541h1.504
					c0.737,0,1.121-0.261,1.085-0.775s-0.455-0.766-1.193-0.766H159.673z M162.884,149.897c-0.038-0.551-0.477-0.813-1.261-0.813
					h-1.765l0.113,1.616h1.765C162.52,150.7,162.923,150.458,162.884,149.897z"/>
			</g>
			<g>
				<path d="M226.234,148.571c-0.138-1.97,1.276-3.38,3.312-3.38c1.13,0,2.102,0.411,2.77,1.158l-0.908,0.896
					c-0.474-0.504-1.043-0.766-1.697-0.766c-1.223,0-2.032,0.859-1.946,2.092c0.086,1.233,1.015,2.092,2.238,2.092
					c0.654,0,1.187-0.261,1.589-0.775l1.034,0.896c-0.563,0.756-1.478,1.168-2.617,1.168
					C227.983,151.952,226.371,150.542,226.234,148.571z"/>
			</g>
			<g>
				<g>
					<path style="fill:#263238;" d="M324.39,221.831h-44.464c-5.395,0-10.074-4.373-10.451-9.768l-0.695-9.945
						c-0.377-5.395,3.69-9.768,9.085-9.768h44.464c5.395,0,10.074,4.373,10.451,9.768l0.695,9.945
						C333.853,217.458,329.785,221.831,324.39,221.831z"/>
					<path style="fill:#407BFF;" d="M322.39,220.174h-42.58c-5.395,0-10.074-4.373-10.451-9.768l-0.579-8.287
						c-0.377-5.395,3.69-9.768,9.085-9.768h42.58c5.395,0,10.074,4.373,10.451,9.768l0.579,8.287
						C331.853,215.8,327.785,220.174,322.39,220.174z"/>
					<path style="opacity:0.6;fill:#FFFFFF;" d="M322.39,220.174h-42.58c-5.395,0-10.074-4.373-10.451-9.768l-0.579-8.287
						c-0.377-5.395,3.69-9.768,9.085-9.768h42.58c5.395,0,10.074,4.373,10.451,9.768l0.579,8.287
						C331.853,215.8,327.785,220.174,322.39,220.174z"/>
				</g>
				<g>
					<path d="M286.616,202.75l0.511,7.306h-1.388l-3.953-4.436l0.31,4.436h-1.67l-0.511-7.306h1.398l3.943,4.436l-0.31-4.436
						H286.616z"/>
					<path d="M294.416,208.699l0.095,1.357h-5.657l-0.511-7.306h5.521l0.095,1.357h-3.841l0.111,1.587h3.392l0.092,1.315h-3.392
						l0.118,1.69H294.416z"/>
					<path d="M300.383,210.056l-1.941-2.536l-1.555,2.536h-1.941l2.443-3.715l-2.819-3.591h1.92l1.846,2.37l1.484-2.37h1.826
						l-2.3,3.528l2.988,3.778H300.383z"/>
					<path d="M304.013,204.128h-2.338l-0.096-1.378h6.366l0.096,1.378h-2.338l0.415,5.928h-1.69L304.013,204.128z"/>
				</g>
				<g>
					<polygon style="fill:#263238;" points="311.477,201.461 318.976,206.262 312.148,211.063 					"/>
				</g>
			</g>
			
				<line style="fill:none;stroke:#407BFF;stroke-linecap:round;stroke-linejoin:round;stroke-miterlimit:10;" x1="110.867" y1="87.753" x2="196.411" y2="87.753"/>
			
				<line style="fill:none;stroke:#407BFF;stroke-linecap:round;stroke-linejoin:round;stroke-miterlimit:10;" x1="88.074" y1="87.753" x2="100.886" y2="87.753"/>
		</g>
		<g>
			<g>
				<polygon style="fill:#407BFF;" points="173.322,260.18 93.686,260.18 93.141,252.393 172.777,252.393 				"/>
				<polygon style="opacity:0.1;" points="173.322,260.18 93.686,260.18 93.141,252.393 172.777,252.393 				"/>
				<polygon style="fill:#263238;" points="198.058,270.068 94.377,270.068 94.206,267.625 197.887,267.625 				"/>
				<polygon style="fill:#263238;" points="182.447,279.991 95.071,279.991 94.9,277.548 182.277,277.548 				"/>
				<polygon style="fill:#263238;" points="229.518,118.587 83.785,118.587 83.614,116.144 229.347,116.144 				"/>
				<polygon style="fill:#263238;" points="262.621,128.51 84.479,128.51 84.308,126.068 262.45,126.068 				"/>
			</g>
			<g>
				<g>
					<path style="fill:#407BFF;" d="M238.752,244.831H98.404c-2.844,0-5.311-2.306-5.51-5.15l-4.72-67.507
						c-0.199-2.844,1.946-5.15,4.79-5.15h140.348c2.844,0,5.311,2.306,5.51,5.15l4.721,67.507
						C243.741,242.525,241.597,244.831,238.752,244.831z"/>
					<path style="opacity:0.4;fill:#FFFFFF;" d="M238.752,244.831H98.404c-2.844,0-5.311-2.306-5.51-5.15l-4.72-67.507
						c-0.199-2.844,1.946-5.15,4.79-5.15h140.348c2.844,0,5.311,2.306,5.51,5.15l4.721,67.507
						C243.741,242.525,241.597,244.831,238.752,244.831z"/>
				</g>
				<path style="opacity:0.7;fill:#FFFFFF;" d="M238.529,241.63c1.075,0,1.889-0.874,1.814-1.949l-4.721-67.507
					c-0.075-1.075-1.011-1.95-2.087-1.95H93.187c-1.075,0-1.889,0.875-1.814,1.95l4.721,67.507c0.075,1.075,1.011,1.949,2.087,1.949
					H238.529z"/>
			</g>
			<g>
				<g>
					<path style="fill:#407BFF;" d="M132.698,201.937l-36.651,37.072l0.047,0.672c0.075,1.075,1.67,1.949,3.554,1.949h77.843
						L132.698,201.937z"/>
					<path style="opacity:0.3;fill:#FFFFFF;" d="M132.698,201.937l-36.651,37.072l0.047,0.672c0.075,1.075,1.67,1.949,3.554,1.949
						h77.843L132.698,201.937z"/>
				</g>
				<path style="fill:#407BFF;" d="M240.161,237.092l-46.719-40.753l-45.588,45.292h89.206c1.884,0,3.357-0.874,3.282-1.949
					L240.161,237.092z"/>
				<g>
					<path style="fill:#407BFF;" d="M170.172,197.84c0.278,3.979-2.722,7.204-6.7,7.204c-3.979,0-7.43-3.225-7.708-7.204
						c-0.278-3.979,2.722-7.204,6.7-7.204C166.443,190.635,169.894,193.861,170.172,197.84z"/>
					<path style="opacity:0.4;fill:#FFFFFF;" d="M170.172,197.84c0.278,3.979-2.722,7.204-6.7,7.204
						c-3.979,0-7.43-3.225-7.708-7.204c-0.278-3.979,2.722-7.204,6.7-7.204C166.443,190.635,169.894,193.861,170.172,197.84z"/>
				</g>
			</g>
		</g>
	</g>
</g>
<g id="Character">
	<g>
		<g>
			<path style="fill:#EEC1BB;" d="M338.772,208.036l-9.334-0.204c0,0-6.409-2.205-7.161-1.76l-3.165,0.242
				c-1.331,0.788-1.895,2.513-1.284,3.931l0.962,2.232c0.506,1.174,1.692,1.827,2.923,1.608l8.078-1.079l9.929-0.117
				L338.772,208.036z"/>
			<path style="fill:#407BFF;" d="M384.942,186.022c0,0-4.039-3.6-11.477,1.575c-6.904,4.804-16.497,14.596-19.945,15.009
				l-20.079,3.998v7.849c0,0,14.052-0.864,20.118-1.303c7.082-0.513,14.311-5.936,17.668-9.836
				C375.25,198.642,383.704,190.57,384.942,186.022z"/>
			<path style="opacity:0.1;" d="M356.576,212.643c6.041-1.526,11.771-5.984,14.651-9.329c4.022-4.672,10.278-15.745,11.516-20.292
				C382.743,183.022,362.774,205.713,356.576,212.643z"/>
		</g>
		<g>
			<polygon style="fill:#FFC3BD;" points="426.753,399.643 432.334,397.728 431.767,388.075 430.807,379.259 422.038,380.229 
				424.526,390.504 			"/>
			<path style="fill:#263238;" d="M421.497,412.976c0.709-0.955,1.587-1.772,2.591-2.409l0,0c0,0,2.436-4.07,1.499-14.221
				l3.995-2.209c1.396-0.735,3.102-0.526,4.28,0.524c0.163,0.143,0.302,0.311,0.413,0.498c0.479,0.974,0.896,1.978,1.25,3.004
				c1.148,3.507,2.083,7.081,2.801,10.701l-0.766,0.221l-2.023-6.651c-0.655-2.268-1.765,0.88-1.637,3.457
				c0.128,2.577-0.266,5.484-5.248,6.879C422.869,414.385,420.38,414.78,421.497,412.976z"/>
			<path style="fill:#FFC3BD;" d="M425.452,392.66c0,0,0.234,4.689,0.043,10.006c0.042,2.699-0.436,5.382-1.407,7.901
				c0,0,3.921-0.292,4.899-3.233c0.978-2.942,0.987-12.11,4.907-12.637c-0.459-0.555-0.98-1.056-1.553-1.492
				C431.428,392.492,425.452,392.66,425.452,392.66z"/>
		</g>
		<g>
			<polygon style="fill:#FFC3BD;" points="369.532,400.932 375.428,400.69 377.641,391.276 379.238,382.553 370.557,380.979 
				370.008,391.537 			"/>
			<path style="fill:#263238;" d="M360.689,412.209c0.952-0.713,2.027-1.245,3.171-1.569l0,0c0,0,3.497-3.205,5.497-13.201
				l4.459-0.977c1.548-0.306,3.123,0.382,3.952,1.724c0.115,0.184,0.201,0.385,0.254,0.595c0.181,1.07,0.294,2.151,0.34,3.236
				c0.099,3.689-0.025,7.381-0.371,11.055l-0.797-0.007l-0.04-6.952c0.019-2.36-1.943,0.34-2.556,2.846
				c-0.613,2.506-1.82,5.18-6.993,5.095C361.601,413.951,359.103,413.618,360.689,412.209z"/>
			<path style="fill:#FFC3BD;" d="M370.28,393.867c0,0-1.115,4.561-2.816,9.602c-0.731,2.599-1.955,5.033-3.605,7.17
				c0,0,3.841,0.84,5.618-1.7c1.777-2.54,4.404-11.324,8.311-10.71c-0.281-0.663-0.638-1.292-1.063-1.873
				C376.055,395.413,370.28,393.867,370.28,393.867z"/>
			<g>
				<path style="fill:#263238;" d="M368.803,325.114l1.318,63.546l7.814,0.816c0,0,5.983-22.694,7.347-45.482
					c0.303-5.26-0.944-11.382-0.361-15.534c0.513-3.638,1.959-5.913,3.977-14.146c1.294-5.236,2.717-11.697,3.895-17.936
					c0-0.012,0-0.012,0.012-0.023c1.061-5.644,1.913-11.114,2.262-15.359c0,0,1.096-1.423,2.402-3.93
					c2.402-4.618,5.516-12.945,3.743-22.799l-27.825-7.405L368.803,325.114z"/>
			</g>
			<path style="opacity:0.2;" d="M390.378,267.329c0.14,0.676,0.991,16.49,1.703,31.371c0.233-0.688,0.466-1.469,0.711-2.321
				c0-0.012,0-0.012,0.012-0.023c1.061-5.644,1.913-11.114,2.262-15.359c0,0,1.096-1.423,2.402-3.93
				c0.933-4.175,1.749-7.848,2.274-10.018L390.378,267.329z"/>
			<g>
				<path style="fill:#263238;" d="M386.461,250.887l17.951,76.303l19.404,60.521l7.718-1.444c0,0-0.738-23.458-5.947-45.688
					c-1.202-5.129-4.145-10.636-4.774-14.781c-0.552-3.634,0.182-6.227-0.227-14.7c-0.495-10.247-1.854-23.78-5.447-33.554
					c0,0,7.045-13.732,0.097-27.508L386.461,250.887z"/>
			</g>
		</g>
		<path style="fill:#263238;" d="M372.096,196.354c-0.66,6.324-0.426,9.86-0.069,14.997c0.278,6.703,1.736,13.753,3.56,24.606
			c3.673,2.145,22.235,1.259,34.113-0.278c-0.721-9.507,0.46-20.377,6.902-41.77c1.493-4.958-1.841-9.724-7.154-10.228
			c-1.424-0.139-2.935-0.252-4.48-0.321c-5.423-0.361-10.865-0.361-16.288,0c-1.736,0.156-3.612,0.365-5.366,0.59
			C376.984,184.775,373.259,189.643,372.096,196.354z"/>
		<polygon style="fill:#263238;" points="375.586,235.958 409.699,235.68 416.959,254.277 390.382,264.306 374.227,261.67 		"/>
		<path style="fill:#FFFFFF;" d="M374.944,238.241c11.975,1.323,24.061,1.299,36.031-0.069c0.468-0.105,0.762-0.569,0.657-1.037
			c-0.008-0.037-0.019-0.074-0.032-0.109c-0.295-0.695-0.59-1.381-0.868-2.075c-0.125-0.312-0.438-0.505-0.773-0.478
			c-11.513,1.268-23.13,1.268-34.642,0c-0.423-0.053-0.81,0.246-0.863,0.67c-0.002,0.017-0.004,0.034-0.005,0.051
			c-0.078,0.721-0.148,1.433-0.217,2.153c-0.051,0.443,0.267,0.843,0.71,0.894C374.943,238.241,374.943,238.241,374.944,238.241z"/>
		<path style="fill:#407BFF;" d="M396.139,287.061c0.163,3.44,3.638,5.714,6.869,4.513c7.324-2.729,19.289-0.595,24.653-5.224
			c0.385-7.067-11.907-43.161-10.706-61.843c1.201-18.682,3.522-34.962,1.108-38.484c-1.971-2.869-9.819-3.358-12.618-3.44
			c-0.63-0.023-1.003-0.023-1.003-0.023s-6.158,5.481-8,18.683c-0.956,6.939-1.435,15.977-1.609,25.819
			C394.459,247.434,395.404,271.248,396.139,287.061z"/>
		<path style="opacity:0.2;" d="M404.435,261.433l14.018-2.861l0.3,0.937c0.451,1.41-0.419,2.9-1.869,3.2l-9.107,1.884
			c-1.254,0.26-2.501-0.474-2.884-1.696L404.435,261.433z"/>
		<g>
			<path style="fill:#407BFF;" d="M380.054,228.04c-0.44,16.14,0,35.92,0.94,58.79c0.19,4.81-4.42,4.46-8.94,3.53
				c-6.72-1.38-9.39-0.88-9.39-0.88s10.73-37.3,8.99-62.57c-1.74-25.26-0.53-34.19,3.57-38.86c2.86-3.28,8.09-4.4,10.96-4.78
				c1.24-0.16,2.04-0.19,2.04-0.19s0,0.01-0.01,0.02C383.044,189.77,380.674,205.27,380.054,228.04z"/>
		</g>
		<g>
			<path style="fill:#407BFF;" d="M376.022,262.88l-8.389-1.892l-0.3,0.937c-0.451,1.41,0.419,2.9,1.869,3.2l3.478,0.916
				c1.254,0.26,2.501-0.474,2.884-1.696L376.022,262.88z"/>
			<path style="opacity:0.2;" d="M376.022,262.88l-8.389-1.892l-0.3,0.937c-0.451,1.41,0.419,2.9,1.869,3.2l3.478,0.916
				c1.254,0.26,2.501-0.474,2.884-1.696L376.022,262.88z"/>
		</g>
		<g>
			<path style="fill:#FFC3BD;" d="M400.735,166.966c-0.924,4.992-1.808,14.159,1.653,17.176c0,0-3.937,3.732-12.606,7.722
				c-2.724-0.459-2.653-6.465-2.653-6.465c5.474-1.77,5.303-5.844,4.313-9.605L400.735,166.966z"/>
			<path style="opacity:0.2;" d="M396.944,170.564l-5.51,5.223c0.243,0.88,0.407,1.779,0.492,2.688
				c2.091-0.476,4.946-3.021,5.155-5.251C397.194,172.336,397.147,171.436,396.944,170.564z"/>
			<path style="fill:#FFC3BD;" d="M404.122,156.757c-0.835,8.057-1.02,11.481-5.264,15.657c-6.342,6.258-15.948,4.034-17.534-3.979
				c-1.414-7.216,0.197-19.18,8.16-22.474c5.204-2.403,11.37-0.132,13.773,5.071C404.083,152.819,404.383,154.805,404.122,156.757z"
				/>
			<path style="fill:#BA4D3C;" d="M385.95,160.039c-0.897,1.444-1.975,2.767-3.207,3.938c0.696,0.934,2.245,0.757,2.245,0.757
				L385.95,160.039z"/>
			<path style="fill:#263238;" d="M387.936,167.704c-0.374,0.015-0.747-0.008-1.117-0.067c-0.103-0.014-0.174-0.109-0.16-0.212
				c0-0.003,0.001-0.007,0.002-0.01c0.023-0.11,0.128-0.182,0.239-0.166c1.698,0.232,3.41-0.317,4.655-1.494
				c0.081-0.072,0.205-0.065,0.277,0.016c0,0,0,0,0,0c0.072,0.081,0.065,0.205-0.016,0.277c0,0,0,0,0,0.001
				C390.771,167.061,389.389,167.65,387.936,167.704z"/>
			<path style="fill:#263238;" d="M402.326,154.727c-2.223,5.54-4.475,11.387-2.27,16.934c4.953-3.925,8.061-10.086,8.275-16.402
				C405.659,155.537,404.808,155.753,402.326,154.727z"/>
			<path style="fill:#263238;" d="M402.326,154.727c-2.223,5.54-4.475,11.387-2.27,16.934c4.953-3.925,8.061-10.086,8.275-16.402
				C405.659,155.537,404.808,155.753,402.326,154.727z"/>
			<path style="fill:#FFC3BD;" d="M404.312,164.828c-0.716,1.395-1.988,2.423-3.503,2.828c-1.867,0.416-2.601-1.736-1.889-3.834
				c0.664-1.89,2.368-4.374,4.157-3.841C404.866,160.514,405.284,163.003,404.312,164.828z"/>
		</g>
		<path style="opacity:0.2;fill:#FFFFFF;" d="M406.798,202.465l-6.636-5.493l8.921-2.332c0,0-3.184-12-3.639-12.059
			c-0.63-0.023-1.003-0.023-1.003-0.023s-6.158,5.481-8,18.683c-0.956,6.939-1.435,15.977-1.609,25.819L406.798,202.465z"/>
		<path style="opacity:0.2;fill:#FFFFFF;" d="M388.224,183.08c0,0,0,0.01-0.01,0.02c-5.17,6.67-7.54,22.17-8.16,44.94
			c-3.14-9.61-4.55-24.47-4.55-24.47l4.03-5.73l-2.77-1.19l8.47-12.93c0.28-0.21,0.61-0.35,0.95-0.45
			C387.174,182.98,388.224,183.08,388.224,183.08z"/>
		<g>
			<g>
				<path style="opacity:0.1;" d="M418.558,205.024l-3.653-6.422c0,0-3.741,13.199,1.388,31.641
					C416.934,221.531,417.787,212.518,418.558,205.024z"/>
				<path style="fill:#EEC1BB;" d="M428.43,250.005l2.482,9.712l-1.934,5.464c-0.379,0.626-0.45,1.392-0.191,2.077l0.752,1.99
					c0.391,1.034,1.441,1.663,2.537,1.52l4.163-0.545c1.448-0.189,2.386-1.625,1.978-3.027l-2.387-7.687l-0.504-11.07
					L428.43,250.005z"/>
				<path style="fill:#407BFF;" d="M418.063,186.022c0,0,8.76,8.697,15.081,39.842c3.579,17.633,4.232,29.302,4.232,29.302
					l-8.432,1.784c0,0-3.275-20.511-12.787-47.072C414.255,204.567,409.909,194.516,418.063,186.022z"/>
			</g>
		</g>
		<path style="fill:#407BFF;" d="M402.262,145.467c2.586,0.374,4.981,1.915,6.393,4.113c1.412,2.198,1.818,5.017,1.083,7.524
			c-0.28,0.954-1.197,2.508-2.112,2.899c-0.308-1.19-0.316-2.463-0.624-3.653c-0.544,1.107-1.455,1.902-2.643,2.235
			c-1.188,0.333-2.445,0.325-3.485-0.338c0,0,0.771-2.008,0.503-2.804c-0.099,0.748-0.606,1.663-1.278,2.005
			c-0.672,0.342-1.512,0.331-2.175-0.029c0.639-1.031,0.306-2.788-0.488-3.705c0,0-0.336,1.228-0.915,1.786
			s-1.765,0.845-2.469,0.457c0.819-0.616,1.006-2.337,0.039-3.349c-0.435-0.456-1.218-0.799-1.649-0.339
			c-1.506,1.607-3.52,2.283-5.478,1.274c1.198-0.3,1.719-1.17,1.775-2.403c-2.071-0.355-2.614,0.086-3.801,0.453
			c-1.742,0.538-3.02,3.1-2.958,3.822c-0.507-3.011,0.436-6.753,2.691-8.812c2.254-2.059,5.338-3.076,8.39-3.165
			C396.112,143.348,399.24,145.03,402.262,145.467z"/>
		<g>
			<path style="fill:#263238;" d="M390.822,159.322c-0.054,0.675-0.452,1.224-0.878,1.219c-0.426-0.005-0.74-0.558-0.694-1.231
				c0.046-0.674,0.452-1.232,0.878-1.227C390.553,158.088,390.868,158.64,390.822,159.322z"/>
			<path style="fill:#263238;" d="M383.862,159.118c-0.055,0.675-0.444,1.224-0.878,1.219c-0.434-0.005-0.74-0.558-0.685-1.232
				c0.054-0.674,0.444-1.223,0.878-1.219C383.611,157.891,383.916,158.436,383.862,159.118z"/>
			<path style="fill:#263238;" d="M383.359,157.923l-1.553-0.488C381.806,157.435,382.527,158.722,383.359,157.923z"/>
			<path style="fill:#263238;" d="M393.259,156.153c-0.102-0.012-0.192-0.069-0.247-0.156c-0.512-0.835-1.41-1.355-2.389-1.383
				c-0.198,0.014-0.37-0.135-0.384-0.333c-0.001-0.014-0.001-0.029,0-0.043c0.007-0.223,0.185-0.402,0.407-0.411
				c1.241,0.013,2.389,0.661,3.041,1.718c0.108,0.188,0.048,0.427-0.137,0.541C393.466,156.147,393.361,156.171,393.259,156.153z"/>
			<path style="fill:#263238;" d="M381.602,155.654c-0.2,0.034-0.39-0.1-0.424-0.301c-0.02-0.115,0.017-0.232,0.097-0.316
				c0.759-1.05,1.965-1.685,3.26-1.717c0.203,0.01,0.359,0.183,0.348,0.386c-0.001,0.008-0.001,0.017-0.002,0.025
				c-0.023,0.22-0.212,0.386-0.434,0.38c-1.024,0.041-1.973,0.552-2.57,1.386C381.81,155.582,381.711,155.638,381.602,155.654z"/>
			<path style="fill:#263238;" d="M390.319,158.127l-1.554-0.488C388.765,157.639,389.486,158.918,390.319,158.127z"/>
		</g>
		
			<rect x="400.047" y="165.818" transform="matrix(-0.9966 0.0822 -0.0822 -0.9966 813.5648 299.3151)" style="fill:#407BFF;" width="1.155" height="1.155"/>
	</g>
</g>
</svg>
