<?xml version="1.0" encoding="utf-8"?>
<!-- Generator: Adobe Illustrator 27.5.0, SVG Export Plug-In . SVG Version: 6.00 Build 0)  -->
<svg version="1.1" xmlns="http://www.w3.org/2000/svg" xmlns:xlink="http://www.w3.org/1999/xlink" x="0px" y="0px"
	 viewBox="0 0 750 500" style="enable-background:new 0 0 750 500;" xml:space="preserve">
<g id="Files">
	<g>
		<g>
			<g>
				
					<polygon style="fill:#FFFFFF;stroke:#9ABAE3;stroke-width:2.5;stroke-linecap:round;stroke-linejoin:round;stroke-miterlimit:10;" points="
					165.628,116.85 107.369,99.19 129.544,26.035 175.288,39.901 183.997,56.256 				"/>
				<g>
					
						<line style="fill:none;stroke:#9ABAE3;stroke-width:2.5;stroke-linecap:round;stroke-linejoin:round;stroke-miterlimit:10;" x1="123.685" y1="67.009" x2="169.926" y2="81.026"/>
					
						<line style="fill:none;stroke:#9ABAE3;stroke-width:2.5;stroke-linecap:round;stroke-linejoin:round;stroke-miterlimit:10;" x1="122.495" y1="70.936" x2="168.736" y2="84.954"/>
					
						<line style="fill:none;stroke:#9ABAE3;stroke-width:2.5;stroke-linecap:round;stroke-linejoin:round;stroke-miterlimit:10;" x1="121.304" y1="74.864" x2="154.854" y2="85.034"/>
					
						<line style="fill:none;stroke:#9ABAE3;stroke-width:2.5;stroke-linecap:round;stroke-linejoin:round;stroke-miterlimit:10;" x1="118.923" y1="82.718" x2="165.165" y2="96.736"/>
					
						<line style="fill:none;stroke:#9ABAE3;stroke-width:2.5;stroke-linecap:round;stroke-linejoin:round;stroke-miterlimit:10;" x1="117.733" y1="86.646" x2="163.974" y2="100.663"/>
					
						<line style="fill:none;stroke:#9ABAE3;stroke-width:2.5;stroke-linecap:round;stroke-linejoin:round;stroke-miterlimit:10;" x1="116.542" y1="90.573" x2="162.784" y2="104.59"/>
					
						<line style="fill:none;stroke:#9ABAE3;stroke-width:2.5;stroke-linecap:round;stroke-linejoin:round;stroke-miterlimit:10;" x1="115.352" y1="94.5" x2="148.902" y2="104.67"/>
					
						<line style="fill:none;stroke:#9ABAE3;stroke-width:2.5;stroke-linecap:round;stroke-linejoin:round;stroke-miterlimit:10;" x1="133.35" y1="35.127" x2="166.9" y2="45.297"/>
					
						<line style="fill:none;stroke:#9ABAE3;stroke-width:2.5;stroke-linecap:round;stroke-linejoin:round;stroke-miterlimit:10;" x1="132.159" y1="39.054" x2="165.709" y2="49.224"/>
					
						<line style="fill:none;stroke:#9ABAE3;stroke-width:2.5;stroke-linecap:round;stroke-linejoin:round;stroke-miterlimit:10;" x1="130.969" y1="42.981" x2="164.519" y2="53.152"/>
					
						<line style="fill:none;stroke:#9ABAE3;stroke-width:2.5;stroke-linecap:round;stroke-linejoin:round;stroke-miterlimit:10;" x1="129.778" y1="46.909" x2="163.328" y2="57.079"/>
					
						<line style="fill:none;stroke:#9ABAE3;stroke-width:2.5;stroke-linecap:round;stroke-linejoin:round;stroke-miterlimit:10;" x1="126.975" y1="56.154" x2="173.217" y2="70.172"/>
					
						<line style="fill:none;stroke:#9ABAE3;stroke-width:2.5;stroke-linecap:round;stroke-linejoin:round;stroke-miterlimit:10;" x1="125.785" y1="60.082" x2="159.335" y2="70.252"/>
				</g>
				
					<polygon style="fill:#FFFFFF;stroke:#9ABAE3;stroke-width:2.5;stroke-linecap:round;stroke-linejoin:round;stroke-miterlimit:10;" points="
					171.48,52.461 183.997,56.256 175.274,39.945 				"/>
			</g>
		</g>
		<g>
			<g>
				
					<polygon style="fill:#FFFFFF;stroke:#9ABAE3;stroke-width:2.5;stroke-linecap:round;stroke-linejoin:round;stroke-miterlimit:10;" points="
					689.595,363.902 631.335,346.241 653.511,273.086 699.254,286.953 707.963,303.307 				"/>
				<g>
					
						<line style="fill:#FFFFFF;stroke:#9ABAE3;stroke-width:2.5;stroke-linecap:round;stroke-linejoin:round;stroke-miterlimit:10;" x1="647.651" y1="314.061" x2="693.893" y2="328.078"/>
					
						<line style="fill:#FFFFFF;stroke:#9ABAE3;stroke-width:2.5;stroke-linecap:round;stroke-linejoin:round;stroke-miterlimit:10;" x1="646.461" y1="317.988" x2="692.702" y2="332.005"/>
					
						<line style="fill:#FFFFFF;stroke:#9ABAE3;stroke-width:2.5;stroke-linecap:round;stroke-linejoin:round;stroke-miterlimit:10;" x1="645.27" y1="321.915" x2="678.821" y2="332.085"/>
					
						<line style="fill:#FFFFFF;stroke:#9ABAE3;stroke-width:2.5;stroke-linecap:round;stroke-linejoin:round;stroke-miterlimit:10;" x1="642.889" y1="329.77" x2="689.131" y2="343.787"/>
					
						<line style="fill:#FFFFFF;stroke:#9ABAE3;stroke-width:2.5;stroke-linecap:round;stroke-linejoin:round;stroke-miterlimit:10;" x1="641.699" y1="333.697" x2="687.94" y2="347.715"/>
					
						<line style="fill:#FFFFFF;stroke:#9ABAE3;stroke-width:2.5;stroke-linecap:round;stroke-linejoin:round;stroke-miterlimit:10;" x1="640.508" y1="337.625" x2="686.75" y2="351.642"/>
					
						<line style="fill:#FFFFFF;stroke:#9ABAE3;stroke-width:2.5;stroke-linecap:round;stroke-linejoin:round;stroke-miterlimit:10;" x1="639.318" y1="341.552" x2="672.868" y2="351.722"/>
					
						<line style="fill:#FFFFFF;stroke:#9ABAE3;stroke-width:2.5;stroke-linecap:round;stroke-linejoin:round;stroke-miterlimit:10;" x1="657.316" y1="282.178" x2="690.866" y2="292.349"/>
					
						<line style="fill:#FFFFFF;stroke:#9ABAE3;stroke-width:2.5;stroke-linecap:round;stroke-linejoin:round;stroke-miterlimit:10;" x1="656.125" y1="286.106" x2="689.676" y2="296.276"/>
					
						<line style="fill:#FFFFFF;stroke:#9ABAE3;stroke-width:2.5;stroke-linecap:round;stroke-linejoin:round;stroke-miterlimit:10;" x1="654.935" y1="290.033" x2="688.485" y2="300.203"/>
					
						<line style="fill:#FFFFFF;stroke:#9ABAE3;stroke-width:2.5;stroke-linecap:round;stroke-linejoin:round;stroke-miterlimit:10;" x1="653.745" y1="293.96" x2="687.295" y2="304.13"/>
					
						<line style="fill:#FFFFFF;stroke:#9ABAE3;stroke-width:2.5;stroke-linecap:round;stroke-linejoin:round;stroke-miterlimit:10;" x1="650.942" y1="303.206" x2="697.183" y2="317.223"/>
					
						<line style="fill:#FFFFFF;stroke:#9ABAE3;stroke-width:2.5;stroke-linecap:round;stroke-linejoin:round;stroke-miterlimit:10;" x1="649.751" y1="307.133" x2="683.302" y2="317.303"/>
				</g>
				
					<polygon style="fill:#FFFFFF;stroke:#9ABAE3;stroke-width:2.5;stroke-linecap:round;stroke-linejoin:round;stroke-miterlimit:10;" points="
					695.447,299.513 707.963,303.307 699.241,286.997 				"/>
			</g>
		</g>
		<g>
			<g>
				
					<polygon style="fill:#FFFFFF;stroke:#EC644E;stroke-width:2.5;stroke-linecap:round;stroke-linejoin:round;stroke-miterlimit:10;" points="
					705.009,138.206 645.796,152.344 628.044,77.992 674.536,66.891 690.305,76.62 				"/>
				
					<polygon style="fill:#FFFFFF;stroke:#EC644E;stroke-width:2.5;stroke-linecap:round;stroke-linejoin:round;stroke-miterlimit:10;" points="
					677.584,79.657 690.305,76.62 674.547,66.936 				"/>
				
					<rect x="647.15" y="107.655" transform="matrix(0.9727 -0.2322 0.2322 0.9727 -8.8098 159.5416)" style="fill:#FFFFFF;stroke:#EC644E;stroke-width:2.5;stroke-linecap:round;stroke-linejoin:round;stroke-miterlimit:10;" width="52.108" height="19.066"/>
				<g>
					<path style="fill:#EC644E;" d="M661.371,114.659l2.419,10.132l-2.783,0.664l-0.947-3.967l-3.396,0.811l0.947,3.967
						l-2.783,0.664l-2.419-10.132l2.783-0.664l0.893,3.739l3.396-0.811l-0.893-3.739L661.371,114.659z"/>
					<path style="fill:#EC644E;" d="M671.582,114.785l-2.911,0.695l1.84,7.706l-2.783,0.664l-1.84-7.706l-2.925,0.698l-0.579-2.426
						l8.619-2.058L671.582,114.785z"/>
					<path style="fill:#EC644E;" d="M682.099,120.419l-1.274-5.337l-0.802,4.159l-1.484,0.354l-2.594-3.348l1.274,5.337
						l-2.783,0.664l-2.419-10.132l3.04-0.726l3.321,4.245l1.06-5.291l3.026-0.722l2.419,10.132L682.099,120.419z"/>
					<path style="fill:#EC644E;" d="M686.622,119.339l-2.419-10.132l2.783-0.664l1.84,7.706l4.595-1.097l0.579,2.426
						L686.622,119.339z"/>
				</g>
			</g>
		</g>
		<g>
			<g>
				<g>
					<g>
						
							<path style="fill:#EC644E;stroke:#263238;stroke-width:2.5;stroke-linecap:round;stroke-linejoin:round;stroke-miterlimit:10;" d="
							M70.67,74.812v53.742c0,1.861,1.508,3.369,3.369,3.369l68.274,0c1.861,0,3.369-1.509,3.369-3.369l0-48.064
							c0-1.861-1.509-3.369-3.369-3.369H97.376c-1.57,0-2.932-1.084-3.284-2.615l-0.103-0.448c-0.352-1.53-1.714-2.615-3.284-2.615
							H74.039C72.178,71.442,70.67,72.951,70.67,74.812z"/>
					</g>
				</g>
			</g>
			<g>
				<g>
					<g>
						<path style="fill:#EC644E;" d="M64.512,74.812v53.742c0,1.861,1.509,3.369,3.369,3.369l74.431,0
							c1.861,0,3.369-1.509,3.369-3.369l0-48.064c0-1.861-1.509-3.369-3.369-3.369H91.219c-1.57,0-2.932-1.084-3.284-2.615
							l-0.103-0.448c-0.352-1.53-1.714-2.615-3.284-2.615H67.882C66.021,71.442,64.512,72.951,64.512,74.812z"/>
					</g>
				</g>
			</g>
			<g>
				<g>
					<g>
						<path style="fill:#FFFFFF;" d="M145.685,80.493v48.06c0,1.86-1.51,3.37-3.37,3.37h-5.21c1.86,0,3.37-1.51,3.37-3.37v-48.06
							c0-1.86-1.51-3.37-3.37-3.37h5.21C144.175,77.123,145.685,78.633,145.685,80.493z"/>
					</g>
				</g>
			</g>
			<g>
				<g>
					<g>
						
							<path style="fill:none;stroke:#263238;stroke-width:2.5;stroke-linecap:round;stroke-linejoin:round;stroke-miterlimit:10;" d="
							M64.512,74.812v53.742c0,1.861,1.509,3.369,3.369,3.369l74.431,0c1.861,0,3.369-1.509,3.369-3.369l0-48.064
							c0-1.861-1.509-3.369-3.369-3.369H91.219c-1.57,0-2.932-1.084-3.284-2.615l-0.103-0.448c-0.352-1.53-1.714-2.615-3.284-2.615
							H67.882C66.021,71.442,64.512,72.951,64.512,74.812z"/>
					</g>
				</g>
			</g>
		</g>
		<g>
			<g>
				<g>
					<g>
						
							<path style="fill:#FFFFFF;stroke:#9ABAE3;stroke-width:2.5;stroke-linecap:round;stroke-linejoin:round;stroke-miterlimit:10;" d="
							M35.802,194.457l12.858,52.181c0.445,1.807,2.271,2.911,4.078,2.465l72.27-17.808c1.807-0.445,2.911-2.271,2.465-4.078
							l-11.5-46.668c-0.445-1.807-2.271-2.911-4.078-2.465l-49.61,12.225c-1.525,0.376-3.106-0.351-3.814-1.753l-0.207-0.411
							c-0.708-1.402-2.289-2.129-3.814-1.753l-16.183,3.988C36.461,190.825,35.357,192.65,35.802,194.457z"/>
					</g>
				</g>
			</g>
		</g>
	</g>
</g>
<g id="Device">
	<g>
		
			<path style="fill:#9ABAE3;stroke:#263238;stroke-width:2.5;stroke-linecap:round;stroke-linejoin:round;stroke-miterlimit:10;" d="
			M680.218,428.585H90.856V437c0,11.966,9.7,21.665,21.665,21.665h546.03c11.966,0,21.666-9.7,21.666-21.665V428.585z"/>
		
			<rect x="326.457" y="428.585" style="fill:#9ABAE3;stroke:#263238;stroke-width:2.5;stroke-linecap:round;stroke-linejoin:round;stroke-miterlimit:10;" width="118.16" height="15.04"/>
		
			<path style="fill:#9ABAE3;stroke:#263238;stroke-width:2.5;stroke-linecap:round;stroke-linejoin:round;stroke-miterlimit:10;" d="
			M637.297,100.793H133.777c-6.143,0-11.123,4.98-11.123,11.123v316.669H648.42V111.916
			C648.42,105.772,643.44,100.793,637.297,100.793z"/>
		
			<rect x="143.311" y="121.806" style="fill:#FFFFFF;stroke:#263238;stroke-width:2.5;stroke-linecap:round;stroke-linejoin:round;stroke-miterlimit:10;" width="484.453" height="285.767"/>
	</g>
</g>
<g id="Search_bar">
	<g>
		
			<path style="fill:#FFFFFF;stroke:#263238;stroke-width:2.5;stroke-linecap:round;stroke-linejoin:round;stroke-miterlimit:10;" d="
			M523.29,317.868H247.784c-14.541,0-26.329-11.788-26.329-26.329v0c0-14.541,11.788-26.329,26.329-26.329H523.29
			c14.541,0,26.329,11.788,26.329,26.329v0C549.619,306.08,537.831,317.868,523.29,317.868z"/>
		<g>
			
				<path style="fill:#EC644E;stroke:#263238;stroke-width:2.5;stroke-linecap:round;stroke-linejoin:round;stroke-miterlimit:10;" d="
				M275.593,265.211v52.658h-27.81c-14.544,0-26.329-11.785-26.329-26.329c0-7.268,2.944-13.854,7.709-18.62
				c4.765-4.765,11.352-7.709,18.62-7.709H275.593z"/>
			<g>
				
					<circle style="fill:none;stroke:#FFFFFF;stroke-width:2.5;stroke-linecap:round;stroke-linejoin:round;stroke-miterlimit:10;" cx="247.413" cy="288.328" r="10.131"/>
				
					<line style="fill:none;stroke:#FFFFFF;stroke-width:2.5;stroke-linecap:round;stroke-linejoin:round;stroke-miterlimit:10;" x1="254.072" y1="295.95" x2="263.004" y2="304.883"/>
			</g>
		</g>
		<g>
			<path style="fill:#EC644E;" d="M335.062,233.775c-0.822-0.493-1.671-0.931-2.547-1.315c-0.739-0.329-1.568-0.637-2.486-0.925
				c-0.918-0.288-1.815-0.431-2.691-0.431c-0.713,0-1.281,0.11-1.705,0.329c-0.425,0.22-0.637,0.589-0.637,1.109
				c0,0.384,0.124,0.699,0.37,0.945c0.246,0.247,0.602,0.473,1.068,0.678c0.466,0.206,1.034,0.404,1.706,0.596
				c0.671,0.192,1.431,0.425,2.28,0.699c1.342,0.411,2.554,0.863,3.636,1.355c1.081,0.493,2.006,1.076,2.773,1.747
				c0.767,0.671,1.356,1.486,1.767,2.444c0.411,0.96,0.616,2.124,0.616,3.493c0,1.753-0.322,3.226-0.965,4.417
				c-0.644,1.191-1.493,2.144-2.547,2.855c-1.055,0.713-2.247,1.226-3.575,1.541c-1.329,0.314-2.664,0.472-4.006,0.472
				c-1.068,0-2.164-0.082-3.287-0.247c-1.124-0.164-2.239-0.396-3.349-0.698c-1.109-0.301-2.178-0.657-3.205-1.068
				c-1.027-0.411-1.979-0.876-2.855-1.397l3.451-7.026c0.959,0.603,1.958,1.137,3,1.603c0.876,0.411,1.87,0.78,2.979,1.109
				c1.109,0.329,2.239,0.493,3.39,0.493c0.876,0,1.485-0.116,1.828-0.349c0.342-0.232,0.514-0.541,0.514-0.924
				c0-0.411-0.171-0.76-0.514-1.048c-0.343-0.288-0.815-0.54-1.418-0.76c-0.603-0.219-1.294-0.438-2.075-0.657
				c-0.781-0.219-1.609-0.479-2.486-0.781c-1.288-0.438-2.397-0.91-3.328-1.417c-0.932-0.506-1.699-1.082-2.301-1.726
				c-0.603-0.644-1.048-1.377-1.336-2.198c-0.288-0.822-0.432-1.767-0.432-2.835c0-1.616,0.294-3.04,0.884-4.273
				c0.588-1.232,1.39-2.26,2.403-3.082c1.013-0.822,2.171-1.444,3.472-1.869c1.301-0.424,2.677-0.637,4.129-0.637
				c1.068,0,2.109,0.103,3.123,0.309c1.013,0.205,1.993,0.466,2.938,0.78c0.945,0.316,1.829,0.658,2.65,1.027
				c0.822,0.37,1.561,0.719,2.219,1.048L335.062,233.775z"/>
			<path style="fill:#EC644E;" d="M352.852,253.825c-1.89,0-3.575-0.294-5.054-0.883c-1.479-0.588-2.719-1.39-3.718-2.403
				c-1.001-1.013-1.76-2.178-2.28-3.493c-0.521-1.315-0.781-2.698-0.781-4.15c0-1.561,0.253-3.041,0.76-4.438
				c0.506-1.397,1.259-2.615,2.26-3.657c1-1.04,2.232-1.87,3.698-2.486c1.465-0.616,3.17-0.924,5.115-0.924
				c1.917,0,3.616,0.308,5.095,0.924c1.479,0.616,2.718,1.438,3.718,2.465c1,1.027,1.752,2.219,2.26,3.575
				c0.506,1.356,0.76,2.773,0.76,4.253c0,0.411-0.02,0.829-0.061,1.253c-0.042,0.425-0.089,0.801-0.144,1.13h-15.161
				c0.082,1.15,0.506,1.979,1.273,2.486c0.767,0.507,1.603,0.76,2.506,0.76c0.849,0,1.65-0.191,2.404-0.575
				c0.753-0.383,1.253-0.917,1.499-1.602l6.615,1.89c-0.877,1.726-2.226,3.137-4.047,4.232
				C357.748,253.278,355.509,253.825,352.852,253.825z M356.304,240.308c-0.138-1.041-0.521-1.862-1.15-2.465
				c-0.631-0.602-1.439-0.904-2.424-0.904c-0.986,0-1.794,0.302-2.424,0.904c-0.63,0.603-1.014,1.425-1.15,2.465H356.304z"/>
			<path style="fill:#EC644E;" d="M373.602,253.825c-1.068,0-2.068-0.178-3-0.534c-0.932-0.356-1.732-0.842-2.403-1.459
				c-0.672-0.616-1.199-1.349-1.582-2.198c-0.384-0.849-0.575-1.767-0.575-2.752c0-1.096,0.232-2.096,0.698-3
				c0.466-0.904,1.109-1.685,1.931-2.342c0.822-0.657,1.801-1.164,2.938-1.52c1.136-0.355,2.389-0.534,3.759-0.534
				c1.753,0,3.205,0.274,4.355,0.822v-0.657c0-1.013-0.295-1.767-0.883-2.26c-0.589-0.493-1.541-0.739-2.856-0.739
				c-1.232,0-2.369,0.199-3.41,0.596c-1.041,0.397-2.136,0.979-3.287,1.746l-2.26-4.848c2.849-1.835,6.095-2.753,9.738-2.753
				c3.452,0,6.108,0.767,7.971,2.301c1.862,1.535,2.794,3.835,2.794,6.903v4.191c0,0.74,0.109,1.253,0.329,1.541
				c0.219,0.288,0.602,0.459,1.15,0.513v6.574c-0.631,0.137-1.227,0.239-1.787,0.308c-0.563,0.068-1.063,0.103-1.5,0.103
				c-1.397,0-2.459-0.253-3.184-0.76c-0.726-0.507-1.199-1.253-1.418-2.239l-0.165-0.781c-0.959,1.232-2.068,2.171-3.328,2.814
				C376.368,253.503,375.025,253.825,373.602,253.825z M375.943,248.237c0.466,0,0.945-0.075,1.438-0.226
				c0.493-0.15,0.931-0.35,1.315-0.596c0.301-0.219,0.548-0.458,0.74-0.719c0.191-0.26,0.288-0.527,0.288-0.801v-1.603
				c-0.466-0.164-0.973-0.301-1.52-0.411c-0.548-0.109-1.041-0.165-1.479-0.165c-0.959,0-1.753,0.233-2.383,0.699
				c-0.631,0.466-0.945,1.055-0.945,1.767c0,0.603,0.24,1.096,0.719,1.479C374.594,248.046,375.204,248.237,375.943,248.237z"/>
			<path style="fill:#EC644E;" d="M406.513,238.458c-1.507,0-2.876,0.165-4.109,0.493c-1.232,0.329-2.15,0.877-2.752,1.644v12.819
				h-7.807v-21.612h7.148v4.109c0.767-1.452,1.719-2.568,2.855-3.349c1.137-0.781,2.363-1.171,3.678-1.171
				c0.52,0,0.849,0.014,0.986,0.041V238.458z"/>
			<path style="fill:#EC644E;" d="M407.744,242.608c0-1.479,0.261-2.896,0.781-4.253c0.52-1.356,1.28-2.547,2.28-3.575
				c0.999-1.027,2.239-1.849,3.719-2.465c1.479-0.616,3.177-0.924,5.095-0.924c2.629,0,4.827,0.548,6.595,1.643
				c1.767,1.096,3.088,2.506,3.965,4.232l-7.602,2.301c-0.739-1.068-1.74-1.602-2.999-1.602c-1.068,0-1.973,0.404-2.712,1.212
				c-0.74,0.808-1.109,1.952-1.109,3.431c0,1.479,0.369,2.624,1.109,3.431c0.739,0.808,1.644,1.212,2.712,1.212
				c1.259,0,2.26-0.534,2.999-1.603l7.602,2.301c-0.877,1.726-2.198,3.137-3.965,4.232c-1.768,1.096-3.966,1.643-6.595,1.643
				c-1.918,0-3.616-0.308-5.095-0.924c-1.479-0.616-2.72-1.438-3.719-2.465c-1-1.027-1.761-2.219-2.28-3.575
				C408.005,245.505,407.744,244.088,407.744,242.608z"/>
			<path style="fill:#EC644E;" d="M454.38,253.415h-7.807v-12.162c0-1.068-0.24-1.842-0.72-2.321
				c-0.479-0.479-1.075-0.719-1.787-0.719c-0.246,0-0.541,0.076-0.884,0.226c-0.343,0.151-0.685,0.357-1.026,0.616
				c-0.343,0.261-0.665,0.583-0.966,0.966c-0.302,0.384-0.549,0.808-0.739,1.273v12.121h-7.807V223.42h7.807v11.587
				c0.766-1.177,1.767-2.075,2.999-2.691c1.232-0.616,2.615-0.924,4.149-0.924c1.507,0,2.712,0.261,3.616,0.781
				c0.903,0.52,1.588,1.171,2.055,1.952c0.465,0.781,0.766,1.623,0.903,2.527c0.137,0.904,0.206,1.753,0.206,2.547V253.415z"/>
		</g>
	</g>
</g>
<g id="Rocket">
	<g>
		
			<path style="fill:#FFFFFF;stroke:#EC644E;stroke-width:2.5;stroke-linecap:round;stroke-linejoin:round;stroke-miterlimit:10;" d="
			M698.621,458.665H505.263c-0.813-2.741-1.24-5.648-1.24-8.66c0-14.454,9.868-26.584,23.228-30.043
			c-1.428-2.094-2.261-4.616-2.261-7.336c0-7.19,5.825-13.016,13.026-13.016c1.469,0,2.887,0.24,4.2,0.698
			c4.762-11.004,15.725-18.706,28.48-18.706c2.887,0,5.69,0.396,8.337,1.136c-0.052-0.459-0.073-0.907-0.073-1.376
			c0-7.19,5.825-13.026,13.016-13.026c2.355,0,4.575,0.625,6.482,1.73c12.714-24.666,35.443-81.281,5.88-127.153l18.193-12.976
			c0,0,29.173,27.695,37.122,67.077c8.056,39.911-2.275,82.42-9.841,97.009c12.338,1.626,21.852,12.182,21.852,24.947
			c0,4.596-1.23,8.899-3.376,12.599C683.897,431.78,696.714,443.524,698.621,458.665z"/>
		<g>
			
				<path style="fill:#FFFFFF;stroke:#EC644E;stroke-width:2.5;stroke-linecap:round;stroke-linejoin:round;stroke-miterlimit:10;" d="
				M567.688,396.498c2.264-7.34,9.102-12.674,17.186-12.674c9.931,0,17.982,8.051,17.982,17.982"/>
			
				<path style="fill:#FFFFFF;stroke:#EC644E;stroke-width:2.5;stroke-linecap:round;stroke-linejoin:round;stroke-miterlimit:10;" d="
				M534.141,439.064c-0.722-6.309,2.685-12.617,8.805-15.3c7.519-3.296,16.286,0.128,19.582,7.647"/>
			
				<path style="fill:#FFFFFF;stroke:#EC644E;stroke-width:2.5;stroke-linecap:round;stroke-linejoin:round;stroke-miterlimit:10;" d="
				M595.046,407.008c0.42-4.488,3.099-8.657,7.446-10.782c6.637-3.246,14.649-0.496,17.894,6.141"/>
			
				<path style="fill:#FFFFFF;stroke:#EC644E;stroke-width:2.5;stroke-linecap:round;stroke-linejoin:round;stroke-miterlimit:10;" d="
				M554.307,439.03c1.361-3.281,4.348-5.795,8.115-6.383c5.752-0.898,11.142,3.036,12.041,8.788"/>
			
				<path style="fill:#FFFFFF;stroke:#EC644E;stroke-width:2.5;stroke-linecap:round;stroke-linejoin:round;stroke-miterlimit:10;" d="
				M612.312,394.868c1.361-3.281,4.348-5.795,8.115-6.383c5.752-0.898,11.142,3.036,12.04,8.788"/>
			
				<path style="fill:#FFFFFF;stroke:#EC644E;stroke-width:2.5;stroke-linecap:round;stroke-linejoin:round;stroke-miterlimit:10;" d="
				M651.381,436.567c0.828-3.454,3.382-6.407,7.009-7.581c5.539-1.792,11.481,1.245,13.274,6.783"/>
		</g>
		<g>
			<g>
				<path style="fill:#FFFFFF;" d="M578.247,236.463l51.248-30.979c0,0-25.851-56.906-53.165-99.792
					c-18.625-29.247-56.143-23.156-56.143-23.156s-22.831,30.389-5.591,60.474C539.885,187.12,578.247,236.463,578.247,236.463z"/>
				<path style="fill:#FFFFFF;" d="M578.245,236.468l51.255-30.984c0,0-0.093-0.211-0.285-0.622l-45.529,27.518
					c0,0-38.364-49.349-63.65-93.456c-13.6-23.742-2.251-47.667,3.135-56.711c-1.903,0.144-2.99,0.326-2.99,0.326
					s-22.823,30.386-5.586,60.474C539.882,187.118,578.245,236.468,578.245,236.468z"/>
				<path style="fill:none;stroke:#263238;stroke-width:2.5;stroke-linecap:round;stroke-linejoin:round;stroke-miterlimit:10;" d="
					M578.247,236.463l51.248-30.979c0,0-25.851-56.906-53.165-99.792c-18.625-29.247-56.143-23.156-56.143-23.156
					s-22.831,30.389-5.591,60.474C539.885,187.12,578.247,236.463,578.247,236.463z"/>
			</g>
			
				<rect x="589.396" y="220.515" transform="matrix(-0.8558 0.5173 -0.5173 -0.8558 1239.4324 101.883)" style="fill:#9ABAE3;stroke:#263238;stroke-width:2.5;stroke-linecap:round;stroke-linejoin:round;stroke-miterlimit:10;" width="32.24" height="6.354"/>
			<polygon style="fill:#EC644E;" points="597.197,250.29 632.933,228.688 620.955,218.072 593.364,234.751 			"/>
			<polygon style="fill:#FFFFFF;" points="597.198,250.283 632.938,228.689 620.954,218.077 615.505,221.371 627.46,231.977 
				597.197,250.26 			"/>
			
				<polygon style="fill:none;stroke:#263238;stroke-width:2.5;stroke-linecap:round;stroke-linejoin:round;stroke-miterlimit:10;" points="
				597.197,250.29 632.933,228.688 620.955,218.072 593.364,234.751 			"/>
			<g>
				
					<line style="fill:none;stroke:#263238;stroke-width:2.5;stroke-linecap:round;stroke-linejoin:round;stroke-miterlimit:10;" x1="558.354" y1="145.674" x2="603.872" y2="220.974"/>
				<path style="fill:none;stroke:#263238;stroke-width:2.5;stroke-linecap:round;stroke-linejoin:round;stroke-miterlimit:10;" d="
					M559.229,168.027c0.735,1.215,2.315,1.605,3.531,0.87c1.215-0.735,1.605-2.315,0.87-3.531c-0.735-1.215-2.315-1.605-3.531-0.87
					C558.884,165.231,558.495,166.811,559.229,168.027z"/>
				<path style="fill:none;stroke:#263238;stroke-width:2.5;stroke-linecap:round;stroke-linejoin:round;stroke-miterlimit:10;" d="
					M574.271,192.909c0.735,1.215,2.315,1.605,3.531,0.87c1.215-0.735,1.605-2.315,0.87-3.531c-0.735-1.215-2.315-1.605-3.531-0.87
					C573.926,190.113,573.536,191.694,574.271,192.909z"/>
				<path style="fill:none;stroke:#263238;stroke-width:2.5;stroke-linecap:round;stroke-linejoin:round;stroke-miterlimit:10;" d="
					M589.312,217.792c0.735,1.215,2.315,1.605,3.531,0.87c1.215-0.735,1.605-2.315,0.87-3.531c-0.735-1.215-2.315-1.605-3.531-0.87
					C588.967,214.996,588.577,216.577,589.312,217.792z"/>
			</g>
			<g>
				<path style="fill:#EC644E;" d="M532.201,143.445c7.93,8.906,21.579,9.697,30.485,1.767c8.906-7.93,9.697-21.579,1.767-30.485
					c-7.93-8.906-21.579-9.697-30.485-1.767C525.062,120.89,524.271,134.538,532.201,143.445z"/>
				
					<path style="fill:#9ABAE3;stroke:#263238;stroke-width:2.5;stroke-linecap:round;stroke-linejoin:round;stroke-miterlimit:10;" d="
					M533.539,138.025c4.937,8.167,15.56,10.786,23.727,5.849c8.167-4.937,10.786-15.56,5.849-23.727
					c-4.937-8.167-15.56-10.786-23.727-5.849C531.221,119.235,528.602,129.858,533.539,138.025z"/>
				
					<line style="fill:none;stroke:#FFFFFF;stroke-width:2.5;stroke-linecap:round;stroke-linejoin:round;stroke-miterlimit:10;" x1="560.815" y1="130.438" x2="537.547" y2="124.702"/>
				
					<line style="fill:none;stroke:#FFFFFF;stroke-width:2.5;stroke-linecap:round;stroke-linejoin:round;stroke-miterlimit:10;" x1="550.753" y1="134.439" x2="543.51" y2="132.653"/>
			</g>
			
				<polygon style="fill:#263238;stroke:#263238;stroke-width:2.5;stroke-linecap:round;stroke-linejoin:round;stroke-miterlimit:10;" points="
				497.37,44.789 521.402,81.803 518.975,83.27 			"/>
			<g>
				<g>
					<path style="fill:#EC644E;" d="M597.5,149.746l24,50.287l44.277,23.077C665.777,223.11,661.621,160.598,597.5,149.746z"/>
					<path style="fill:#FFFFFF;" d="M658.513,219.32l7.271,3.792c0,0-4.164-62.509-68.289-73.369l2.671,5.604
						C643.331,166.826,655.307,203.428,658.513,219.32z"/>
					
						<path style="fill:none;stroke:#263238;stroke-width:2.5;stroke-linecap:round;stroke-linejoin:round;stroke-miterlimit:10;" d="
						M597.5,149.746l24,50.287l44.277,23.077C665.777,223.11,661.621,160.598,597.5,149.746z"/>
				</g>
				
					<path style="fill:#EC644E;stroke:#263238;stroke-width:2.5;stroke-linecap:round;stroke-linejoin:round;stroke-miterlimit:10;" d="
					M543.767,182.227l33.372,44.622l-0.145,49.93C576.994,276.779,523.575,244.046,543.767,182.227z"/>
			</g>
		</g>
	</g>
</g>
<g id="Floor">
	
		<line style="fill:none;stroke:#263238;stroke-width:2.5;stroke-linecap:round;stroke-linejoin:round;stroke-miterlimit:10;" x1="43.36" y1="458.665" x2="706.64" y2="458.665"/>
</g>
<g id="Character">
	<g>
		<g>
			<g>
				<g>
					<g>
						<g>
							<polygon style="fill:#EC644E;" points="167.714,451.5 167.714,465.831 219.483,465.831 203.182,451.5 							"/>
							
								<polygon style="fill:none;stroke:#263238;stroke-width:2.5;stroke-linecap:round;stroke-linejoin:round;stroke-miterlimit:10;" points="
								167.714,451.5 167.714,465.831 219.483,465.831 203.182,451.5 							"/>
						</g>
						<g>
							
								<polygon style="fill:#FFFFFF;stroke:#263238;stroke-width:2.5;stroke-linecap:round;stroke-linejoin:round;stroke-miterlimit:10;" points="
								203.909,434.305 203.182,451.5 167.71,451.5 165.303,434.305 							"/>
							
								<line style="fill:none;stroke:#263238;stroke-width:2.5;stroke-linecap:round;stroke-linejoin:round;stroke-miterlimit:10;" x1="170.4" y1="439.23" x2="203.749" y2="439.23"/>
						</g>
					</g>
					<g>
						<path style="fill:#9ABAE3;" d="M155.62,269.734h46.549c3.709,21.936,9.03,83.939,8.492,90.208
							c-0.431,5.029,0.916,62.911,1.963,80.073c0.258,4.236-3.759,8.286-3.759,8.286s3.634-5.599-28.669-0.129
							c-6.114,1.035-17.413,1.232-18.712-4.212c-0.619-2.596,1.237-8.846,1.237-8.846c-0.638-12.063,0.423-34.669-0.124-48.346
							c-0.717-17.913,3.432-26.307,3.432-26.307c-1.535-8.634-2.323-30.191-5.004-49.738L155.62,269.734z"/>
						<path style="fill:#FFFFFF;" d="M206.316,440.019c0.134,2.173-0.863,4.301-1.867,5.856c5.476,0.439,4.509,2.277,4.427,2.418
							c0.231-0.238,4.003-4.167,3.75-8.274c-1.049-17.165-2.396-75.044-1.964-80.074c0.536-6.272-4.784-68.274-8.49-90.208h-6.31
							c3.705,21.934,9.025,83.936,8.49,90.208C203.92,364.974,205.267,422.854,206.316,440.019z"/>
						
							<path style="fill:none;stroke:#263238;stroke-width:2.5;stroke-linecap:round;stroke-linejoin:round;stroke-miterlimit:10;" d="
							M155.62,269.734h46.549c3.709,21.936,9.03,83.939,8.492,90.208c-0.431,5.029,0.916,62.911,1.963,80.073
							c0.258,4.236-3.759,8.286-3.759,8.286s3.693-6.939-28.61-1.469c-6.114,1.035-17.472,2.572-18.771-2.872
							c-0.619-2.596,1.237-8.846,1.237-8.846c-0.638-12.063,0.423-34.669-0.124-48.346c-0.717-17.913,3.432-26.307,3.432-26.307
							c-1.535-8.634-2.323-30.191-5.004-49.738L155.62,269.734z"/>
						
							<path style="fill:none;stroke:#263238;stroke-width:2.5;stroke-linecap:round;stroke-linejoin:round;stroke-miterlimit:10;" d="
							M194.79,294.55c0,0,5.452,56.007,5.406,64.516c-0.026,4.716,0.575,77.143,0.575,77.143"/>
						<path style="fill:#263238;" d="M202.561,445.134l-0.022,4.583c0,0,5.855,0.896,6.988-0.937
							C210.66,446.948,202.561,445.134,202.561,445.134z"/>
						
							<path style="fill:none;stroke:#263238;stroke-width:2.5;stroke-linecap:round;stroke-linejoin:round;stroke-miterlimit:10;" d="
							M189.449,276.223c0,0,1.093,15.961,11.198,12.868"/>
					</g>
				</g>
				<g>
					<g>
						<g>
							<polygon style="fill:#EC644E;" points="135.883,451.5 135.883,465.831 84.114,465.831 100.415,451.5 							"/>
							
								<polygon style="fill:none;stroke:#263238;stroke-width:2.5;stroke-linecap:round;stroke-linejoin:round;stroke-miterlimit:10;" points="
								135.883,451.5 135.883,465.831 84.114,465.831 100.415,451.5 							"/>
						</g>
						<g>
							
								<polygon style="fill:#FFFFFF;stroke:#263238;stroke-width:2.5;stroke-linecap:round;stroke-linejoin:round;stroke-miterlimit:10;" points="
								103.164,434.305 100.415,451.5 135.887,451.5 140.906,434.305 							"/>
							
								<line style="fill:none;stroke:#263238;stroke-width:2.5;stroke-linecap:round;stroke-linejoin:round;stroke-miterlimit:10;" x1="134.216" y1="439.23" x2="102.431" y2="439.23"/>
						</g>
					</g>
					<g>
						
							<path style="fill:#9ABAE3;stroke:#263238;stroke-width:2.5;stroke-linecap:round;stroke-linejoin:round;stroke-miterlimit:10;" d="
							M175.85,302.433c-3.34,1.484-8.311,3.247-8.719,5.785c-4.198,26.148-8.927,51.025-8.927,51.025s-0.939,10.109-1.316,18.037
							c-0.792,16.66-9.931,41.931-12.711,56.98c0,0,1.046,9.317-0.957,11.788c-2.468,3.043-3.959,1.26-14.834,0.352
							c-33.292-2.779-32.458,0.504-32.458,0.504s-6.618-3.881-4.734-11.363c6.696-26.593,15.334-66.672,16.526-75.415
							c0.567-4.156,18.759-90.39,18.759-90.39h46.028"/>
						<path style="fill:#263238;" d="M102.663,445.073l-0.491,3.438c0,0-6.067,0.56-7.03-1.272
							C94.179,445.406,102.663,445.073,102.663,445.073z"/>
						
							<path style="fill:none;stroke:#263238;stroke-width:2.5;stroke-linecap:round;stroke-linejoin:round;stroke-miterlimit:10;" d="
							M129.979,294.55c0,0-14.528,63.237-15.45,70.028c-0.615,4.529-14.689,70.144-14.689,70.144"/>
						
							<path style="fill:none;stroke:#263238;stroke-width:2.5;stroke-linecap:round;stroke-linejoin:round;stroke-miterlimit:10;" d="
							M147.32,276.223c0,0-1.66,15.961-17,12.868"/>
						
							<path style="fill:none;stroke:#263238;stroke-width:2.5;stroke-linecap:round;stroke-linejoin:round;stroke-miterlimit:10;" d="
							M176.924,273.979c0,0,0.699,20.165-0.559,22.145s-6.578,3.093-7.072,2.722c-0.495-0.371,0-24.866,0-24.866"/>
					</g>
				</g>
			</g>
			<g>
				<g>
					<g>
						
							<path style="fill:#FCD8C3;stroke:#263238;stroke-width:2.5;stroke-linecap:round;stroke-linejoin:round;stroke-miterlimit:10;" d="
							M242.02,184.316c-0.016-1.58,4.297-21.367,2.673-25.605c-1.624-4.238-21.75-4.533-24.238-2.157
							c-2.488,2.376-4.408,24.91-4.637,26.29L242.02,184.316z"/>
						
							<path style="fill:#FCD8C3;stroke:#263238;stroke-width:2.5;stroke-linecap:round;stroke-linejoin:round;stroke-miterlimit:10;" d="
							M229.744,152.381c-0.863-2.865-2.597-6.033-6.187-4.838c-3.591,1.195-4.118,11.016-3.845,13.202
							c0.359,2.867,4.176,3.49,5.927-0.776c1.592-3.88,2.102-5.168,2.102-5.168"/>
						
							<path style="fill:#FCD8C3;stroke:#263238;stroke-width:2.5;stroke-linecap:round;stroke-linejoin:round;stroke-miterlimit:10;" d="
							M237.997,154.094c-0.448-3.209-1.777-6.888-5.818-6.205c-4.041,0.682-6.237,11.105-6.307,13.491
							c-0.092,3.127,3.89,4.429,6.472,0.154c2.348-3.888,3.108-5.182,3.108-5.182"/>
						
							<path style="fill:#FCD8C3;stroke:#263238;stroke-width:2.5;stroke-linecap:round;stroke-linejoin:round;stroke-miterlimit:10;" d="
							M245.049,161.107c0.324-5.496-1.124-8.671-5.216-8.889c-4.092-0.218-8.515,9.472-9.105,11.785
							c-0.774,3.032,2.827,5.172,6.282,1.565c3.142-3.28,4.166-4.377,4.166-4.377"/>
						
							<path style="fill:#FCD8C3;stroke:#263238;stroke-width:2.5;stroke-linecap:round;stroke-linejoin:round;stroke-miterlimit:10;" d="
							M217.195,179.171c0,0-5.438-7.765-4.596-14.148c0.335-2.542,3.881-8.874,5.267-12.048c1.386-3.175,6.318-4.319,5.462,3.146
							c-0.856,7.465-1.528,8.348-1.528,8.348s3.651,0.411,8.639,5.223"/>
					</g>
					<g>
						<path style="fill:#EC644E;" d="M175.172,184.685c11.857-2.259,31.399,15.305,31.399,15.305l4.038-22.066
							c3.12-2.137,4.005-1.193,16.669,2.744c15.376,4.78,20.405-3.39,20.405-3.39s2.174,3.655,1.036,8.391
							c-3.231,13.454-9.709,38.962-12.605,45.029c-7.876,16.5-40.404,7.973-59.228-10.929
							C165.322,208.156,152.026,189.094,175.172,184.685z"/>
						<path style="fill:#FFFFFF;" d="M248.719,185.665c-3.23,13.453-9.705,38.969-12.604,45.032
							c-2.833,5.94-8.858,8.64-16.295,8.773c5.05-1.108,9.048-3.78,11.208-8.309c2.937-6.167,9.525-32.11,12.813-45.762
							c0.455-1.885,0.388-3.6,0.142-4.993c2.643-1.402,3.704-3.126,3.704-3.126S249.856,180.928,248.719,185.665z"/>
						
							<path style="fill:none;stroke:#263238;stroke-width:2.5;stroke-linecap:round;stroke-linejoin:round;stroke-miterlimit:10;" d="
							M175.172,184.685c11.857-2.259,31.399,15.305,31.399,15.305l4.038-22.066c3.12-2.137,4.005-1.193,16.669,2.744
							c15.376,4.78,20.405-3.39,20.405-3.39s2.174,3.655,1.036,8.391c-3.231,13.454-9.709,38.962-12.605,45.029
							c-7.876,16.5-40.404,7.973-59.228-10.929C165.322,208.156,152.026,189.094,175.172,184.685z"/>
						<path style="fill:#263238;" d="M248.341,177.131c0.395-2.206-5.466-1.807-5.466-1.807l-0.778,5.134
							C242.098,180.458,248.012,178.97,248.341,177.131z"/>
						
							<path style="fill:none;stroke:#263238;stroke-width:2.5;stroke-linecap:round;stroke-linejoin:round;stroke-miterlimit:10;" d="
							M204.808,207.183c0,0,0-1.617,1.762-7.193"/>
						<g>
							<path style="fill:#263238;" d="M242.909,190.609c-0.205,1.646-1.378,2.856-2.619,2.701c-1.241-0.155-2.081-1.615-1.875-3.262
								s1.378-2.856,2.619-2.701C242.274,187.503,243.114,188.963,242.909,190.609z"/>
							<path style="fill:#263238;" d="M241.458,202.24c-0.205,1.646-1.378,2.856-2.619,2.701c-1.241-0.155-2.081-1.615-1.875-3.262
								c0.206-1.646,1.378-2.856,2.619-2.701C240.823,199.133,241.663,200.594,241.458,202.24z"/>
						</g>
					</g>
				</g>
				<g>
					<g>
						<path style="fill:#EC644E;" d="M139.182,191.901c-7.376,7.743-12.598,31.595-14.878,50.971c0,0-5.483,12.292-4.834,21.079
							c0.356,4.82,3.966,6.84,5.947,7.799l76.567-0.41c3.129-1.567,8.418-3.643,5.014-17.034
							c-1.325-5.212-2.461-15.426-4.754-26.584c-1.67-8.126-2.958-20.427-9.818-31.999c-1.567-2.644-8.979-12.079-25.05-11.273
							C155.009,185.069,148.368,182.258,139.182,191.901z"/>
						<path style="fill:#FFFFFF;" d="M201.985,271.34l-76.57,0.41c-0.02-0.01-0.03-0.02-0.05-0.02l72.11-0.39
							c3.13-1.57,8.42-3.64,5.02-17.04c-1.33-5.21-1.33-13.03-3.76-26.58c-1.1-6.17-0.612-14.481-1.585-21.82
							c4.57,10.47,3.665,14.87,5.095,21.82c2.29,11.16,3.43,21.37,4.75,26.58C210.405,267.7,205.115,269.77,201.985,271.34z"/>
						
							<path style="fill:none;stroke:#263238;stroke-width:2.5;stroke-linecap:round;stroke-linejoin:round;stroke-miterlimit:10;" d="
							M178.581,184.533c-2.453-0.259-7.99-0.249-11.203-0.085c-12.368,0.634-19.009-2.191-28.195,7.453
							c-7.376,7.743-12.598,31.595-14.878,50.971c0,0-5.483,12.292-4.834,21.079c0.356,4.82,3.966,6.84,5.947,7.799l76.567-0.41
							c3.129-1.567,8.418-3.643,5.014-17.034c-1.325-5.212-2.461-15.426-4.754-26.584c-1.084-5.275-1.951-13.274-4.303-21.403"/>
						
							<path style="fill:none;stroke:#263238;stroke-width:2.5;stroke-linecap:round;stroke-linejoin:round;stroke-miterlimit:10;" d="
							M148.441,264.993c0,0,8.491,5.065,18.092,5.611c9.601,0.546,18.919-4.533,18.919-4.533"/>
						
							<path style="fill:none;stroke:#263238;stroke-width:2.5;stroke-linecap:round;stroke-linejoin:round;stroke-miterlimit:10;" d="
							M185.447,270.83c3.757-0.572,13.425-5.837,13.425-5.837"/>
						
							<polyline style="fill:none;stroke:#263238;stroke-width:2.5;stroke-linecap:round;stroke-linejoin:round;stroke-miterlimit:10;" points="
							181.29,214.43 181.997,224.478 188.524,227.072 193.866,223.361 193.178,213.593 185.84,214.11 						"/>
					</g>
				</g>
				<g>
					<g>
						<g>
							<g>
								<g>
									
										<path style="fill:#FFFFFF;stroke:#263238;stroke-width:2.5;stroke-linecap:round;stroke-linejoin:round;stroke-miterlimit:10;" d="
										M101.34,318.494c0,0-42.759-36.421-43.597-37.132c-4.677-3.971,1.228-11.286,6.125-7.128
										c0.3,0.255,43.369,36.954,43.369,36.954"/>
								</g>
								
									<path style="fill:#EC644E;stroke:#263238;stroke-width:2.5;stroke-linecap:round;stroke-linejoin:round;stroke-miterlimit:10;" d="
									M171.392,356.249c9.267-20.03,0.545-43.796-19.495-53.068c-20.04-9.272-43.801-0.534-53.068,19.495
									c-9.272,20.04-0.545,43.796,19.495,53.068C138.365,385.016,162.12,376.289,171.392,356.249z M106.688,326.312
									c7.258-15.687,25.871-22.524,41.568-15.262c15.687,7.258,22.524,25.871,15.267,41.557
									c-7.263,15.697-25.875,22.535-41.562,15.277C106.263,360.622,99.425,342.009,106.688,326.312z"/>
							</g>
							<g>
								
									<path style="fill:#FCD8C3;stroke:#263238;stroke-width:2.5;stroke-linecap:round;stroke-linejoin:round;stroke-miterlimit:10;" d="
									M81.751,304.42c0,0-6.318,2.429-6.667-4.718c0,0-4.002-2.251-4.319-6.997c-0.572-8.58,7.456-17.936,12.463-23.169
									c0,0,17.065,0.25,25.315,15.283c0.05,0.091-3.483,15.059-7.672,20.285l-4.488-3.59c0,0-3.825-0.733-7.147,5.176
									C86.878,310.884,81.483,308.605,81.751,304.42z"/>
								
									<path style="fill:none;stroke:#263238;stroke-width:2.5;stroke-linecap:round;stroke-linejoin:round;stroke-miterlimit:10;" d="
									M81.759,305.103c-0.31-4.009,2.482-7.837,2.482-7.837"/>
								
									<path style="fill:none;stroke:#263238;stroke-width:2.5;stroke-linecap:round;stroke-linejoin:round;stroke-miterlimit:10;" d="
									M75.084,299.702c0-2.255,1.816-6.243,1.816-6.243"/>
							</g>
						</g>
						<g>
							
								<path style="fill:#EC644E;stroke:#263238;stroke-width:2.5;stroke-linecap:round;stroke-linejoin:round;stroke-miterlimit:10;" d="
								M152.947,184.791c-8.18-0.256-22.236,2.681-32.411,15.588c-10.175,12.907-15.912,27.764-18.681,31.602
								c-1.764,2.445-14.282,20.707-20.579,30.557c-3.588,5.613-0.912,7.198-0.912,7.198c9.124,1.01,34.547,17.327,29.927,24.31
								c0,0,3.651-2.212,6.152-7.599c5.706-12.286,11.915-32.653,13.537-35.647c1.047-1.932,4.736-15.099,10.239-31.582
								c0.665-1.992,4.323-4.486,4.323-4.486"/>
							<path style="fill:#263238;" d="M110.456,295.044c-0.998,1.537-5.357-0.494-5.357-0.494l2.378-8.102
								C107.476,286.447,112.525,291.857,110.456,295.044z"/>
						</g>
					</g>
					<polygon style="fill:#263238;" points="171.819,191.965 171.117,195.586 167.217,195.722 165.964,192.489 169.28,191.038 					
						"/>
					
						<polygon style="fill:#FFFFFF;stroke:#263238;stroke-width:2.5;stroke-linecap:round;stroke-linejoin:round;stroke-miterlimit:10;" points="
						156.985,185.183 153.702,199.989 168.93,195.057 183.149,197.894 174.18,185.178 					"/>
					<g>
						<path style="fill:#263238;" d="M170.385,186.823c0,0,2.922,4.315,0.456,4.841c-3.866,0.825-9.214-5.293-9.214-5.293
							L170.385,186.823z"/>
						<g>
							<g>
								
									<path style="fill:#FCD8C3;stroke:#263238;stroke-width:2.5;stroke-linecap:round;stroke-linejoin:round;stroke-miterlimit:10;" d="
									M157.034,178.263c-1.468-6.499,1.779-12.771,7.254-14.008c5.475-1.237,11.103,3.029,12.572,9.528
									c1.469,6.499-1.779,12.771-7.254,14.008C164.131,189.028,158.503,184.762,157.034,178.263z"/>
								<path style="fill:#FFFFFF;" d="M169.605,187.792c-1.528,0.344-3.072,0.261-4.53-0.186c0.739,0.039,1.484-0.023,2.23-0.189
									c5.189-1.175,8.267-7.119,6.877-13.283c-1.394-6.164-6.73-10.206-11.918-9.034c-0.13,0.031-0.265,0.062-0.392,0.101
									c0.742-0.429,1.553-0.752,2.417-0.946c5.473-1.235,11.102,3.03,12.571,9.529
									C178.329,180.284,175.082,186.553,169.605,187.792z"/>
								
									<path style="fill:none;stroke:#263238;stroke-width:2.5;stroke-linecap:round;stroke-linejoin:round;stroke-miterlimit:10;" d="
									M157.034,178.263c-1.468-6.499,1.779-12.771,7.254-14.008c5.475-1.237,11.103,3.029,12.572,9.528
									c1.469,6.499-1.779,12.771-7.254,14.008C164.131,189.028,158.503,184.762,157.034,178.263z"/>
							</g>
						</g>
						<path style="fill:#263238;" d="M158.818,182.619c0,0,4.778-3.917,1.893-12.414c0,0,8.022,2.478,11.779-3.757
							c0,0-9.166-7.134-14.799,3.077C154.937,174.515,158.818,182.619,158.818,182.619z"/>
						<circle style="fill:#263238;" cx="171.626" cy="163.747" r="3.573"/>
					</g>
				</g>
			</g>
		</g>
		
			<rect x="125.365" y="270.83" style="fill:#263238;stroke:#263238;stroke-width:2.5;stroke-linecap:round;stroke-linejoin:round;stroke-miterlimit:10;" width="77.793" height="5.393"/>
		<rect x="168.226" y="271.085" style="fill:#EC644E;" width="10.32" height="4.882"/>
		
			<line style="fill:none;stroke:#9ABAE3;stroke-width:2.5;stroke-linecap:round;stroke-linejoin:round;stroke-miterlimit:10;" x1="136.17" y1="280.021" x2="136.17" y2="269.736"/>
		<polygon style="fill:#263238;" points="171.117,190.329 167.217,190.465 165.487,233.111 173.572,245.543 179.824,233.096 		"/>
	</g>
</g>
</svg>
