<?xml version="1.0" encoding="utf-8"?>
<!-- Generator: Adobe Illustrator 27.5.0, SVG Export Plug-In . SVG Version: 6.00 Build 0)  -->
<svg version="1.1" xmlns="http://www.w3.org/2000/svg" xmlns:xlink="http://www.w3.org/1999/xlink" x="0px" y="0px"
	 viewBox="0 0 500 500" style="enable-background:new 0 0 500 500;" xml:space="preserve">
<g id="Device">
	<g id="Tablet_00000013900095751377896300000004850558121607395721_">
		<g>
			
				<path style="fill:#00826F;stroke:#00826F;stroke-width:1.5;stroke-linecap:round;stroke-linejoin:round;stroke-miterlimit:10;" d="
				M328.436,273.211H75.368c-5.668,0-11.314,4.473-12.61,9.991L31.818,414.889c-1.296,5.518,2.248,9.991,7.916,9.991h253.068
				c5.668,0,11.314-4.473,12.61-9.991l30.939-131.688C337.648,277.684,334.104,273.211,328.436,273.211z"/>
			
				<path style="fill:#303030;stroke:#303030;stroke-width:1.5;stroke-linecap:round;stroke-linejoin:round;stroke-miterlimit:10;" d="
				M335.81,273.211H82.741c-5.668,0-11.314,4.473-12.61,9.991L39.192,414.889c-1.296,5.518,2.248,9.991,7.916,9.991h253.068
				c5.668,0,11.314-4.473,12.61-9.991l30.939-131.688C345.022,277.684,341.478,273.211,335.81,273.211z"/>
		</g>
		
			<path style="fill:#00826F;stroke:#00826F;stroke-width:1.5;stroke-linecap:round;stroke-linejoin:round;stroke-miterlimit:10;" d="
			M326.483,232.733H61.796c-5.668,0-9.666,4.517-8.93,10.09l23.688,179.318c0.736,5.572,5.928,10.09,11.596,10.09h264.687
			c5.668,0,9.666-4.517,8.93-10.09l-23.688-179.318C337.343,237.251,332.151,232.733,326.483,232.733z"/>
		
			<path style="fill:#303030;stroke:#303030;stroke-width:1.5;stroke-linecap:round;stroke-linejoin:round;stroke-miterlimit:10;" d="
			M334.678,232.992H69.992c-5.668,0-9.666,4.517-8.93,10.09L84.749,422.4c0.736,5.572,5.928,10.09,11.596,10.09h264.687
			c5.668,0,9.666-4.517,8.93-10.09l-23.688-179.318C345.538,237.509,340.347,232.992,334.678,232.992z"/>
		
			<path style="fill:#FFFFFF;stroke:#303030;stroke-width:1.5;stroke-linecap:round;stroke-linejoin:round;stroke-miterlimit:10;" d="
			M323.517,242.335H83.622c-5.137,0-8.761,4.094-8.094,9.145l21.469,162.522c0.667,5.05,5.372,9.145,10.51,9.145h239.895
			c5.137,0,8.761-4.094,8.094-9.145l-21.469-162.522C333.359,246.429,328.654,242.335,323.517,242.335z"/>
		
			<path style="fill:#FFFFFF;stroke:#303030;stroke-width:1.5;stroke-linecap:round;stroke-linejoin:round;stroke-miterlimit:10;" d="
			M323.517,242.335H83.622c-5.137,0-8.761,4.094-8.094,9.145l21.469,162.522c0.667,5.05,5.372,9.145,10.51,9.145h239.895
			c5.137,0,8.761-4.094,8.094-9.145l-21.469-162.522C333.359,246.429,328.654,242.335,323.517,242.335z"/>
		
			<path style="fill:#FFFFFF;stroke:#303030;stroke-width:1.5;stroke-linecap:round;stroke-linejoin:round;stroke-miterlimit:10;" d="
			M323.517,242.335H83.622c-5.137,0-8.761,4.094-8.094,9.145l21.469,162.522c0.667,5.05,5.372,9.145,10.51,9.145h239.895
			c5.137,0,8.761-4.094,8.094-9.145l-21.469-162.522C333.359,246.429,328.654,242.335,323.517,242.335z"/>
		
			<line style="fill:none;stroke:#303030;stroke-width:1.5;stroke-linecap:round;stroke-linejoin:round;stroke-miterlimit:10;" x1="58.126" y1="294.603" x2="61.879" y2="323.018"/>
	</g>
</g>
<g id="Rocket_00000036934029970885785020000008716897399106723512_">
	<g id="Rocket_00000178884025712409802810000015596067728381097856_">
		<g>
			<path style="fill:#FF95FB;" d="M129.192,290.258c-2.4,0-4.346,1.946-4.346,4.346c0,2.4,1.946,4.346,4.346,4.346
				c2.4,0,4.346-1.946,4.346-4.346C133.538,292.203,131.592,290.258,129.192,290.258z"/>
			<path style="fill:#FF95FB;" d="M96.997,414.001c0.667,5.05,5.372,9.145,10.51,9.145h239.895c5.137,0,8.761-4.094,8.094-9.145
				l-16.087-121.743c-1.882-0.435-5.217-0.568-6.844-0.568c-18.813,0-34.742,12.33-40.161,29.348
				c-3.63-4.049-8.885-6.612-14.751-6.612c-9.374,0-17.209,6.512-19.276,15.254c-19.878-8.69-33.611-27.844-35.039-49.981
				l-3.242-50.248h-17.31l-3.255,50.523c-1.271,19.721-12.311,37.083-28.773,46.784c-4.248-7.368-12.2-12.331-21.316-12.331
				c-5.739,0-11.015,1.971-15.199,5.266c-5.813-16.318-21.392-28.002-39.706-28.002c-4.689,0-9.195,0.774-13.407,2.19
				L96.997,414.001z"/>
			<path style="fill:none;stroke:#303030;stroke-width:1.5;stroke-linecap:round;stroke-linejoin:round;stroke-miterlimit:10;" d="
				M81.221,294.573l15.776,119.428c0.667,5.05,5.372,9.145,10.51,9.145h239.895c5.137,0,8.761-4.094,8.094-9.145l-16.12-122.03"/>
			<path style="fill:#FF95FB;" d="M135.339,306.736c0.995,0,1.802-0.807,1.802-1.802s-0.807-1.802-1.802-1.802
				c-0.995,0-1.802,0.807-1.802,1.802S134.344,306.736,135.339,306.736z"/>
			<circle style="fill:#FF95FB;" cx="296.743" cy="299.752" r="1.802"/>
			<circle style="fill:#FF95FB;" cx="288.95" cy="306.736" r="4.346"/>
		</g>
		<g id="Rocket_00000084495165261003266560000013689877956626323115_">
			
				<path style="fill:#00826F;stroke:#303030;stroke-width:1.5;stroke-linecap:round;stroke-linejoin:round;stroke-miterlimit:10;" d="
				M187.893,191.101L187.893,191.101c-4.619,0-8.59,3.277-9.465,7.813l-9.007,46.691h4.99l9.238-22.75
				c1.935-4.766,7.18-7.275,12.105-5.791l0,0L187.893,191.101z"/>
			
				<path style="fill:#00826F;stroke:#303030;stroke-width:1.5;stroke-linecap:round;stroke-linejoin:round;stroke-miterlimit:10;" d="
				M235.035,191.101L235.035,191.101c4.62,0,8.59,3.277,9.465,7.813l9.007,46.691h-4.99l-9.238-22.75
				c-1.935-4.766-7.18-7.275-12.105-5.791l0,0L235.035,191.101z"/>
			
				<path style="fill:#303030;stroke:#303030;stroke-width:1.5;stroke-linecap:round;stroke-linejoin:round;stroke-miterlimit:10;" d="
				M223.151,230.893c-0.204,4.552-23.17,4.552-23.374,0l1.842-18.392h19.691L223.151,230.893z"/>
			
				<path style="fill:#FFFFFF;stroke:#303030;stroke-width:1.5;stroke-linecap:round;stroke-linejoin:round;stroke-miterlimit:10;" d="
				M240.034,128.241c-6.901-52.534-28.572-70.866-28.57-70.843c0.002-0.023-21.669,18.309-28.57,70.843
				c-7.703,58.639,15.725,95.336,15.725,95.336c8.563,2.859,17.127,2.859,25.69,0C224.309,223.577,247.737,186.88,240.034,128.241z"
				/>
			
				<path style="fill:#F55571;stroke:#303030;stroke-width:1.5;stroke-linecap:round;stroke-linejoin:round;stroke-miterlimit:10;" d="
				M232.706,95.154c-9.011-27.426-21.243-37.774-21.242-37.756c0.002-0.017-12.231,10.33-21.242,37.756
				c6.369,1.705,13.584,2.677,21.242,2.677C219.122,97.831,226.337,96.859,232.706,95.154z"/>
			<path style="fill:none;stroke:#303030;stroke-width:1.5;stroke-linecap:round;stroke-linejoin:round;stroke-miterlimit:10;" d="
				M185.844,168.29c7.651,2.1,16.365,3.293,25.62,3.293c9.255,0,17.969-1.194,25.62-3.293"/>
			
				<circle style="fill:#FFFFFF;stroke:#303030;stroke-width:1.5;stroke-linecap:round;stroke-linejoin:round;stroke-miterlimit:10;" cx="211.464" cy="91.143" r="1.908"/>
			
				<circle style="fill:#FFFFFF;stroke:#303030;stroke-width:1.5;stroke-linecap:round;stroke-linejoin:round;stroke-miterlimit:10;" cx="223.676" cy="89.88" r="1.908"/>
			
				<path style="fill:#FFFFFF;stroke:#303030;stroke-width:1.5;stroke-linecap:round;stroke-linejoin:round;stroke-miterlimit:10;" d="
				M201.16,89.88c0,1.053-0.854,1.907-1.908,1.907c-1.053,0-1.908-0.854-1.908-1.907c0-1.054,0.854-1.908,1.908-1.908
				C200.306,87.973,201.16,88.827,201.16,89.88z"/>
			<g>
				
					<ellipse transform="matrix(0.7071 -0.7071 0.7071 0.7071 -34.2709 188.6869)" style="fill:#303030;stroke:#303030;stroke-width:1.5;stroke-linecap:round;stroke-linejoin:round;stroke-miterlimit:10;" cx="210.63" cy="135.712" rx="17.637" ry="17.637"/>
				
					<ellipse transform="matrix(0.2298 -0.9732 0.9732 0.2298 31.4409 311.1513)" style="fill:#00826F;stroke:#303030;stroke-width:1.5;stroke-linecap:round;stroke-linejoin:round;stroke-miterlimit:10;" cx="212.299" cy="135.712" rx="17.637" ry="17.637"/>
				
					<ellipse transform="matrix(0.9239 -0.3827 0.3827 0.9239 -35.7745 91.5735)" style="fill:#FFFFFF;stroke:#303030;stroke-width:1.5;stroke-linecap:round;stroke-linejoin:round;stroke-miterlimit:10;" cx="212.299" cy="135.712" rx="13.219" ry="13.219"/>
				<g>
					
						<line style="fill:none;stroke:#FF95FB;stroke-width:1.5;stroke-linecap:round;stroke-linejoin:round;stroke-miterlimit:10;" x1="218.123" y1="129.888" x2="206.475" y2="141.536"/>
					
						<line style="fill:none;stroke:#FF95FB;stroke-width:1.5;stroke-linecap:round;stroke-linejoin:round;stroke-miterlimit:10;" x1="219.309" y1="137.972" x2="215.002" y2="142.278"/>
					
						<line style="fill:none;stroke:#FF95FB;stroke-width:1.5;stroke-linecap:round;stroke-linejoin:round;stroke-miterlimit:10;" x1="209.811" y1="128.918" x2="205.505" y2="133.225"/>
				</g>
			</g>
			
				<rect x="209.112" y="194.85" style="fill:#00826F;stroke:#303030;stroke-width:1.5;stroke-linecap:round;stroke-linejoin:round;stroke-miterlimit:10;" width="4.705" height="60.026"/>
		</g>
	</g>
</g>
<g id="Search_Bar">
	<g id="Search">
		
			<path style="fill:#FFFFFF;stroke:#303030;stroke-width:1.5;stroke-linecap:round;stroke-linejoin:round;stroke-miterlimit:10;" d="
			M299.304,402.931h-150.04c-3.908,0-7.192-2.934-7.631-6.817l0,0c-0.515-4.555,3.048-8.544,7.631-8.544h150.04
			c3.908,0,7.192,2.934,7.632,6.817l0,0C307.45,398.942,303.887,402.931,299.304,402.931z"/>
		<g>
			
				<circle style="fill:#FFFFFF;stroke:#00826F;stroke-width:1.5;stroke-linecap:round;stroke-linejoin:round;stroke-miterlimit:10;" cx="294.755" cy="394.466" r="3.132"/>
			
				<line style="fill:#FFFFFF;stroke:#00826F;stroke-width:1.5;stroke-linecap:round;stroke-linejoin:round;stroke-miterlimit:10;" x1="296.97" y1="396.68" x2="299.458" y2="399.169"/>
		</g>
		<g>
			<path style="fill:#303030;stroke:#303030;stroke-miterlimit:10;" d="M187.441,377.352c-2.852,0-5.344-0.467-7.472-1.402
				c-1.071-0.469-2.109-1.061-3.113-1.775c-1.654-1.176-1.9-3.542-0.523-5.032l0.027-0.029c1.17-1.266,3.074-1.395,4.487-0.408
				c0.545,0.381,1.106,0.714,1.683,1c1.42,0.707,3.033,1.058,4.836,1.058c1.639,0,2.883-0.296,3.735-0.885
				c0.85-0.59,1.231-1.41,1.141-2.46c-0.082-0.951-0.443-1.721-1.084-2.311c-0.641-0.589-1.463-1.098-2.466-1.524
				c-1.004-0.425-2.105-0.836-3.302-1.229c-1.198-0.394-2.392-0.844-3.583-1.352c-1.192-0.509-2.304-1.147-3.337-1.918
				c-1.033-0.771-1.895-1.737-2.585-2.902c-0.69-1.163-1.111-2.631-1.263-4.402c-0.183-2.13,0.175-3.965,1.075-5.506
				c0.9-1.541,2.233-2.712,4-3.516c1.766-0.803,3.847-1.205,6.24-1.205c2.425,0,4.683,0.427,6.773,1.278
				c0.74,0.302,1.439,0.643,2.098,1.023c1.837,1.061,2.152,3.595,0.712,5.154l0,0c-1.092,1.182-2.89,1.454-4.238,0.575
				c-0.418-0.273-0.835-0.508-1.249-0.703c-1.111-0.524-2.338-0.787-3.682-0.787c-1.344,0-2.387,0.255-3.131,0.762
				c-0.743,0.509-1.074,1.239-0.992,2.189c0.076,0.885,0.433,1.598,1.069,2.139s1.455,1.008,2.456,1.401
				c1,0.394,2.1,0.787,3.298,1.181c1.197,0.393,2.392,0.853,3.586,1.377c1.192,0.525,2.306,1.188,3.342,1.991
				c1.036,0.803,1.902,1.82,2.598,3.049c0.695,1.23,1.121,2.746,1.276,4.548c0.285,3.311-0.672,5.91-2.87,7.794
				C194.786,376.41,191.604,377.352,187.441,377.352z"/>
			<path style="fill:#303030;stroke:#303030;stroke-miterlimit:10;" d="M205.637,376.811l-2.985-34.717h7.72l2.985,34.717H205.637z
				 M209.124,348.733l-0.571-6.639h15.828c1.672,0,3.066,1.279,3.209,2.945l0.017,0.196c0.162,1.881-1.321,3.497-3.209,3.497
				H209.124z M210.291,362.305l-0.554-6.443h14.353c1.672,0,3.066,1.279,3.209,2.945l0,0c0.162,1.881-1.322,3.497-3.209,3.497
				H210.291z M211.538,376.811l-0.575-6.687h16.074c1.672,0,3.066,1.279,3.209,2.945l0.021,0.245
				c0.162,1.881-1.321,3.497-3.209,3.497H211.538z"/>
			<path style="fill:#303030;stroke:#303030;stroke-miterlimit:10;" d="M251.863,377.401c-2.623,0-5.08-0.459-7.372-1.377
				c-2.292-0.917-4.344-2.196-6.157-3.836c-1.813-1.639-3.272-3.548-4.377-5.729c-1.106-2.18-1.766-4.531-1.983-7.057
				c-0.22-2.556,0.036-4.916,0.768-7.081c0.731-2.164,1.847-4.056,3.347-5.68c1.499-1.623,3.317-2.884,5.453-3.786
				c2.135-0.901,4.514-1.353,7.137-1.353c2.589,0,5.03,0.452,7.32,1.353c2.29,0.902,4.333,2.163,6.128,3.786
				c1.795,1.624,3.245,3.525,4.351,5.705c1.105,2.18,1.768,4.549,1.987,7.106c0.217,2.525-0.04,4.876-0.77,7.056
				c-0.731,2.181-1.846,4.082-3.345,5.705c-1.5,1.623-3.316,2.893-5.451,3.81C256.765,376.942,254.42,377.401,251.863,377.401z
				 M251.16,370.369c2.066,0,3.837-0.458,5.315-1.377c1.478-0.918,2.572-2.204,3.283-3.861c0.71-1.655,0.972-3.565,0.786-5.729
				c-0.141-1.639-0.515-3.122-1.121-4.449c-0.606-1.328-1.41-2.476-2.41-3.443c-1.002-0.966-2.155-1.704-3.461-2.212
				c-1.306-0.509-2.73-0.764-4.27-0.764c-2.065,0-3.838,0.452-5.317,1.353c-1.48,0.902-2.576,2.163-3.288,3.785
				c-0.714,1.624-0.975,3.533-0.786,5.729c0.141,1.64,0.515,3.132,1.122,4.476c0.607,1.344,1.403,2.5,2.388,3.466
				c0.984,0.968,2.139,1.714,3.462,2.238C248.187,370.108,249.619,370.369,251.16,370.369z"/>
		</g>
	</g>
</g>
<g id="Code_Tab">
	<g id="Tab">
		<g>
			<path style="fill:#FFFFFF;" d="M46.617,257.073c-6.003,0-10.887-4.884-10.887-10.887v-90.187c0-6.003,4.884-10.887,10.887-10.887
				h70.63c6.003,0,10.887,4.884,10.887,10.887v90.187c0,6.003-4.884,10.887-10.887,10.887H46.617z"/>
			<path style="fill:#FF95FB;" d="M117.248,145.862c5.59,0,10.137,4.548,10.137,10.137v90.186c0,5.59-4.548,10.137-10.137,10.137
				h-70.63c-5.59,0-10.137-4.547-10.137-10.137V156c0-5.59,4.547-10.137,10.137-10.137H117.248 M117.248,144.362h-70.63
				c-6.427,0-11.637,5.21-11.637,11.637v90.186c0,6.427,5.21,11.637,11.637,11.637h70.63c6.427,0,11.637-5.21,11.637-11.637V156
				C128.885,149.573,123.675,144.362,117.248,144.362L117.248,144.362z"/>
		</g>
		
			<path style="fill:#FFFFFF;stroke:#FF95FB;stroke-width:1.5;stroke-linecap:round;stroke-linejoin:round;stroke-miterlimit:10;" d="
			M117.65,144.362H46.215c-6.205,0-11.235,5.03-11.235,11.235v3.762h93.905v-3.762C128.885,149.393,123.855,144.362,117.65,144.362z
			"/>
		<g>
			<g>
				<path style="fill:#00826F;" d="M76.32,151.861c0,1.849-1.499,3.349-3.349,3.349c-1.849,0-3.349-1.499-3.349-3.349
					s1.499-3.349,3.349-3.349C74.821,148.512,76.32,150.011,76.32,151.861z"/>
				<path style="fill:#F55571;" d="M64.134,151.861c0,1.849-1.499,3.349-3.349,3.349s-3.349-1.499-3.349-3.349
					s1.499-3.349,3.349-3.349S64.134,150.011,64.134,151.861z"/>
				<path style="fill:#303030;" d="M51.947,151.861c0,1.849-1.499,3.349-3.349,3.349s-3.349-1.499-3.349-3.349
					s1.499-3.349,3.349-3.349S51.947,150.011,51.947,151.861z"/>
			</g>
		</g>
		<g id="Icon_00000139252811247191753920000018100222152549573801_">
			<path style="fill:#00826F;" d="M66.263,201.858l-18.341-7.329v-6.145l18.341-7.329c2.378-0.95,4.963,0.801,4.963,3.361v0
				c0,1.506-0.932,2.854-2.34,3.386l-14.676,5.545v-3.782l14.676,5.545c1.408,0.532,2.34,1.881,2.34,3.386l0,0
				C71.226,201.057,68.64,202.808,66.263,201.858z"/>
			<path style="fill:#00826F;" d="M74.241,206.103l8.117-32.467c0.403-1.611,1.851-2.742,3.512-2.742h0.242
				c2.355,0,4.083,2.213,3.512,4.498l-8.117,32.467c-0.403,1.611-1.851,2.742-3.512,2.742h-0.242
				C75.398,210.601,73.67,208.387,74.241,206.103z"/>
			<path style="fill:#00826F;" d="M92.639,184.417L92.639,184.417c0-2.561,2.586-4.312,4.963-3.362l18.34,7.329v6.145l-18.34,7.329
				c-2.378,0.95-4.963-0.801-4.963-3.361l0,0c0-1.506,0.932-2.854,2.34-3.386l14.676-5.545v3.782l-14.676-5.545
				C93.571,187.271,92.639,185.922,92.639,184.417z"/>
		</g>
		<g>
			
				<line style="fill:none;stroke:#303030;stroke-width:1.5;stroke-linecap:round;stroke-linejoin:round;stroke-miterlimit:10;" x1="47.922" y1="224.815" x2="115.943" y2="224.815"/>
			
				<line style="fill:none;stroke:#303030;stroke-width:1.5;stroke-linecap:round;stroke-linejoin:round;stroke-miterlimit:10;" x1="47.922" y1="234.488" x2="115.943" y2="234.488"/>
			
				<line style="fill:none;stroke:#303030;stroke-width:1.5;stroke-linecap:round;stroke-linejoin:round;stroke-miterlimit:10;" x1="47.922" y1="244.161" x2="115.943" y2="244.161"/>
		</g>
	</g>
</g>
<g id="Character">
	<g id="Character_00000103258375111753166200000017603299099011992723_">
		<g id="Character_00000090273489510323185100000016340417939311286937_">
			<g id="Legs_00000031205982961677620640000017330771699984154523_">
				<g id="Leg_00000016061142579603754310000005502753334607817658_">
					<path style="fill:#FFC4B0;" d="M391.987,419.71c-0.226-3.152-6.355-72.548-9.747-96.849
						c-4.613-33.049-5.286-81.966,3.933-115.474l47.437,0.12c13.841,18.057,15.5,45.67-17.013,74.409l-1.072,64.205
						c-1.543,12.991,5.129,18.481,1.6,44.952c-1.294,9.708-3.271,27.543-3.676,28.637
						C412.756,429.824,392.852,431.767,391.987,419.71z"/>
					<g>
						<g>
							<path style="fill:#00826F;" d="M357.329,429.279c4.876-1.286,7.676-2.362,11.888-4.807
								c4.879-2.833,13.568-9.804,15.55-11.458c2.58-2.154,8.998-1.811,12.107,2.687c1.068-0.485,2.203-0.871,3.34-0.661
								c1.081,0.201,1.987,0.911,2.845,1.6c1.594,1.279,3.934,3.945,7.423,2.65c3.197-1.187,3.688-4.315,3.688-4.315l0.451-3.627
								c2.145,0.337,2.221,1.83,2.373,3.247c0.362,3.376,0.714,4.447,1.557,9.018c0.61,3.314,2.112,7.321,0.519,14.859
								c-0.604,4.127-4.757,4.887-11.176,4.887c-8.258,0-36.155,0-36.155,0c-5.92,0-15.088,0-18.663,0
								c-3.575,0-6.359-2.89-6.294-4.13C347.064,433.764,349.315,431.393,357.329,429.279z"/>
						</g>
						
							<path style="fill:none;stroke:#303030;stroke-width:1.5;stroke-linecap:round;stroke-linejoin:round;stroke-miterlimit:10;" d="
							M375.912,431.769c-2.423-3.12-7.596-6.077-12.151-4.557"/>
						
							<path style="fill:none;stroke:#303030;stroke-width:1.5;stroke-linecap:round;stroke-linejoin:round;stroke-miterlimit:10;" d="
							M371.466,423.06c2.168,1.185,3.383,2.696,4.853,5.135"/>
						
							<path style="fill:none;stroke:#303030;stroke-width:1.5;stroke-linecap:round;stroke-linejoin:round;stroke-miterlimit:10;" d="
							M369.216,424.471c2.788-0.121,6.733,0.682,13.391,1.805"/>
						
							<path style="fill:none;stroke:#303030;stroke-width:1.5;stroke-linecap:round;stroke-linejoin:round;stroke-miterlimit:10;" d="
							M376.964,419.388c2.168,1.185,3.193,2.385,4.664,4.824"/>
						
							<path style="fill:none;stroke:#303030;stroke-width:1.5;stroke-linecap:round;stroke-linejoin:round;stroke-miterlimit:10;" d="
							M374.714,420.799c2.788-0.121,6.733,0.683,13.391,1.805"/>
						
							<path style="fill:none;stroke:#303030;stroke-width:1.5;stroke-linecap:round;stroke-linejoin:round;stroke-miterlimit:10;" d="
							M382.345,415.128c2.168,1.185,3.5,3.284,4.97,5.723"/>
						
							<path style="fill:none;stroke:#303030;stroke-width:1.5;stroke-linecap:round;stroke-linejoin:round;stroke-miterlimit:10;" d="
							M380.212,417.127c2.788-0.121,6.733,0.683,13.391,1.805"/>
						
							<path style="fill:none;stroke:#303030;stroke-width:1.5;stroke-linecap:round;stroke-linejoin:round;stroke-miterlimit:10;" d="
							M418.133,425.63c-0.624,0.88-1.412,1.62-2.419,2.14c-2.014,1.039-4.44,1.252-6.605,0.579c-3.41-1.06-6.036-4.151-9.571-4.661
							c-2.571-0.371-5.112,0.708-7.445,1.85c-4.312,2.109-11.076,6.046-11.948,7.382c-0.872,1.336-1.584,5.513-2.269,9.539"/>
						
							<path style="fill:#FFFFFF;stroke:#303030;stroke-width:1.5;stroke-linecap:round;stroke-linejoin:round;stroke-miterlimit:10;" d="
							M349.235,447.504c3.178,0.857,20.739,0.735,20.739,0.735s29.206,0,35.887,0c6.681,0,10.237-0.212,11.94-2.57
							c1.004-1.39,1.557-3.625,1.268-7.197c-2.775,2.449-2.066,3.144-13.481,3.144c-11.415,0-39.272,0.088-45.324,0
							c-4.214-0.061-10.764,0.505-13.483-2.388C345.784,440.558,344.388,446.197,349.235,447.504z"/>
					</g>
				</g>
				<g id="Leg_00000011002209658620272790000003095007500639720875_">
					<path style="fill:#FFC4B0;" d="M387.193,207.387l46.418,0.12c5.098,26.588,16.52,64.819,17.6,96.796
						c0.539,15.959,1.634,27.459,4.537,39.323c4.969,20.31,7.13,25.279,8.039,45.156c0.293,6.409,0.013,34.205,0,39.575
						c-14.374,20.66-21.651,0-21.651,0s-5.331-19.728-6.914-25.963c-5.172-20.374-8.21-38.026-13.7-50.774
						c-10.581-24.568-20.271-71.363-20.271-71.363S385.591,231.596,387.193,207.387z"/>
					<g>
						<g>
							<path style="fill:#00826F;" d="M468.597,437.045c1.106,3.586,3.222,7.537,3.722,11.257c0.5,3.72,0.558,7.247-2.364,9.603
								c-1.55,1.25-3.519,1.853-5.47,2.25c-5.735,1.167-11.882,1.136-17.407-0.797c-1.932-0.676-3.758-1.953-5.138-3.464
								c-2.312-2.532-2.235-6.166-2.371-9.592c-0.124-3.099,0.282-7.03,0.324-10.131c0.049-3.644-0.143-6.168-0.314-9.024
								c-0.282-4.723-2.641-8.467-0.23-9.15l0.605,2.205c0,0,2.695-1.356,5.166,0c0.872-3.932,5.409-5.616,7.733-5.886
								c4.058-0.471,7.14-0.111,9.989,2.107c2.645,2.059,2.51,4.917,2.836,7.915C466.314,430.19,466.941,431.691,468.597,437.045z"
								/>
						</g>
						<g>
							
								<path style="fill:none;stroke:#303030;stroke-width:1.5;stroke-linecap:round;stroke-linejoin:round;stroke-miterlimit:10;" d="
								M465.137,441.215c-5.864-1.702-12.25-1.559-18.031,0.405"/>
							
								<path style="fill:none;stroke:#303030;stroke-width:1.5;stroke-linecap:round;stroke-linejoin:round;stroke-miterlimit:10;" d="
								M465.137,438.597c-4.061-2.094-9.927-3.664-18.275-3.733"/>
							
								<path style="fill:none;stroke:#303030;stroke-width:1.5;stroke-linecap:round;stroke-linejoin:round;stroke-miterlimit:10;" d="
								M464.217,434.238c-3.404,0.626-11.173,1.478-17.112,4.359"/>
							
								<path style="fill:none;stroke:#303030;stroke-width:1.5;stroke-linecap:round;stroke-linejoin:round;stroke-miterlimit:10;" d="
								M463.888,432.103c-3.762-2.111-9.19-3.706-16.905-3.811"/>
							
								<path style="fill:none;stroke:#303030;stroke-width:1.5;stroke-linecap:round;stroke-linejoin:round;stroke-miterlimit:10;" d="
								M463.02,427.741c-3.143,0.611-10.319,1.429-15.795,4.283"/>
							
								<path style="fill:none;stroke:#303030;stroke-width:1.5;stroke-linecap:round;stroke-linejoin:round;stroke-miterlimit:10;" d="
								M462.794,425.687c-3.524-2.125-8.601-3.74-15.81-3.874"/>
							
								<path style="fill:none;stroke:#303030;stroke-width:1.5;stroke-linecap:round;stroke-linejoin:round;stroke-miterlimit:10;" d="
								M461.966,421.323c-2.935,0.599-9.637,1.39-14.743,4.222"/>
							
								<path style="fill:none;stroke:#303030;stroke-width:1.5;stroke-linecap:round;stroke-linejoin:round;stroke-miterlimit:10;" d="
								M439.254,423.434c0,0,2.263,2.823,2.828,3.806c1.152,2.006,0.895,4.364,0.841,6.677c-0.054,2.313-0.272,4.662,0.258,6.914
								c0.304,1.29,0.85,2.525,1.007,3.841c0.191,1.601-0.205,3.207-0.598,4.771c-0.652,2.595-0.856,3.721-1.508,6.316"/>
							
								<path style="fill:none;stroke:#303030;stroke-width:1.5;stroke-linecap:round;stroke-linejoin:round;stroke-miterlimit:10;" d="
								M467.372,433.748c0.064,1.957,0.128,3.913,0.192,5.87c0.033,1.021,0.067,2.047,0.249,3.052
								c0.257,1.419,0.803,2.767,1.316,4.115c1.187,3.12,2.228,6.423,1.869,9.742"/>
						</g>
						
							<path style="fill:#FFFFFF;stroke:#303030;stroke-width:1.5;stroke-linecap:round;stroke-linejoin:round;stroke-miterlimit:10;" d="
							M439.457,457.566c0.152,1.883,2.115,6.919,12.44,8.421c8.203,1.193,15.065-0.448,18.577-3.363
							c2.42-2.021,2.649-6.974,2.112-12.261l-0.061-0.021c0.215,2.95-0.193,5.64-2.571,7.559c-1.544,1.249-3.515,1.86-5.473,2.256
							c-5.732,1.168-11.875,1.136-17.401-0.796c-1.93-0.679-3.765-1.951-5.136-3.466c-2.317-2.535-2.241-6.169-2.37-9.59
							c-0.018-0.379-0.025-0.768-0.023-1.167C439.245,450.747,439.129,453.499,439.457,457.566z"/>
					</g>
				</g>
				<g>
					<path style="fill:#00826F;" d="M464.666,385.005c0-12.908-0.983-16.39-3.613-26.645c-4.19-16.337-6.47-25.088-8.073-45.516
						c-2.824-36.001,8.275-76.867-16.789-102.63l-51.313-0.097c-11.996,25.545-11.737,66.129-7.631,104.996
						c2.157,20.419,3.541,21.34,4.89,32.964c2.04,17.572,2.907,21.157,5.159,38.403c10.445,6.108,23.609,5.713,31.379,0.016
						c1.932-9.688,0.958-19.94,0.146-28.374c-0.864-8.98-1.16-13.207-1.16-13.207s0.43,1.71,3.72,11.504
						c0.817,2.432,4.374,13.151,8.633,31.627C438.697,394.088,458.379,393.264,464.666,385.005z"/>
					<g>
						<path style="fill:#00826F;" d="M386.754,382.372c-3.553,0.671-1.942,4.526-1.457,8.41c0.484,3.884-0.664,8.155,2.117,10.555
							c2.781,2.4,8.699,4.055,16.345,4.25c7.646,0.195,14.886-3.399,15.953-5.392c1.777-3.318,0.722-8.677,1.495-11.842
							c0.773-3.165,0.212-5.068-1.952-5.376l-0.501,3.129c0,0-4.919,4.579-16.017,4.095c-11.098-0.483-15.546-4.545-15.546-4.545
							L386.754,382.372z"/>
						
							<path style="fill:none;stroke:#303030;stroke-width:1.5;stroke-linecap:round;stroke-linejoin:round;stroke-miterlimit:10;" d="
							M418.753,386.107c0,0-4.919,4.579-16.017,4.095c-11.098-0.483-15.546-4.545-15.546-4.545"/>
					</g>
					<g>
						<path style="fill:#00826F;" d="M429.305,385.005c-3.806,1.124-1.747,4.923-0.764,8.719c0.984,3.796,0.227,8.184,3.549,10.21
							c3.321,2.026,9.984,2.907,18.365,2.117c8.382-0.791,15.875-5.292,16.809-7.408c1.555-3.523-0.225-8.711,0.249-11.953
							c0.475-3.243-0.474-5.193-2.877-5.22l0.029,3.536c0,0-4.938,4.948-17.128,5.897c-12.189,0.949-17.522-2.856-17.522-2.856
							L429.305,385.005z"/>
						
							<path style="fill:none;stroke:#303030;stroke-width:1.5;stroke-linecap:round;stroke-linejoin:round;stroke-miterlimit:10;" d="
							M464.666,385.005c0,0-4.938,4.948-17.128,5.897c-12.189,0.949-17.522-2.856-17.522-2.856"/>
					</g>
					<g>
						
							<path style="fill:none;stroke:#303030;stroke-width:1.5;stroke-linecap:round;stroke-linejoin:round;stroke-miterlimit:10;" d="
							M430.196,211.061c5.976,8.671,17.258,24.839,17.598,52.749c0.302,24.826,0.564,48.816,5.149,71.403
							c3.821,18.824,12.472,30.833,11.723,49.792"/>
						
							<path style="fill:none;stroke:#303030;stroke-width:1.5;stroke-linecap:round;stroke-linejoin:round;stroke-miterlimit:10;" d="
							M442.729,234.839c-7.422,2.786-10.457-1.811-13.849-8.952c-3.392-7.142-7.32-14.303-7.32-14.303"/>
					</g>
					<g>
						
							<path style="fill:none;stroke:#303030;stroke-width:1.5;stroke-linecap:round;stroke-linejoin:round;stroke-miterlimit:10;" d="
							M397.581,211.185c-0.12,2.742-2.295,21.171-2.295,30.517c0,8.18,2.761,16.042,4.866,22.159
							c5.957,17.304,6.424,39.861,12.9,64.494c1.631,6.206,4.861,19.722,4.861,19.722"/>
						
							<path style="fill:none;stroke:#303030;stroke-width:1.5;stroke-linecap:round;stroke-linejoin:round;stroke-miterlimit:10;" d="
							M395.286,244.311c2.309-1.117,6.217-1.886,6.915-13.297c0.698-11.411,1.675-19.43,1.675-19.43"/>
					</g>
				</g>
			</g>
			<g id="Head_00000080926589571528155330000013239897623841157249_">
				<g id="Hair_00000060748445982950883860000006976826817883537847_">
					<path style="fill:#303030;" d="M410.055,142.934c0.665-0.012,1.159,0.188,2.159,0.24c0.887,0.045,1.889-0.222,2.736-0.46
						c0.218-0.061,2.866-1.264,2.644-1.404c2.32,1.461,4.984,2.573,7.722,2.426c2.738-0.147,5.518-1.808,6.334-4.425
						c1.127,1.839,3.493,2.821,5.592,2.321c-1.004-1.334-1.04-3.318-0.084-4.687c0.537-0.769,1.471-2.061,2.085-2.77
						c1.419-1.637,2.117-4.278,1.808-6.422c-0.343-2.379-1.477-4.157-3.226-5.8c-1.828-1.718-3.182-3.244-3.71-5.242
						c-1.168-4.42-1.103-7.853-7.153-9.958c-1.558-1.02-8.185-5.91-18.659-2.955c-10.474,2.955-12.644,10.306-12.644,10.306
						c-9.883,1.77-8.468,8.171-7.823,9.818c0.585,1.493,1.928,2.887,1.536,4.442c-0.313,1.243-1.602,1.929-2.484,2.86
						c-1.654,1.746-1.834,4.606-0.671,6.71s3.477,3.439,5.865,3.725c-0.613-1.121-0.584-2.566,0.074-3.662
						c0.277,1.851,1.653,3.406,3.302,4.292c2.811,1.511,6.592,1.768,9.7,1.508c1.298-0.108,2.52-0.292,3.767-0.667
						C409.388,142.993,409.741,142.94,410.055,142.934z"/>
					<g>
						<g>
							<path style="fill:#303030;" d="M432.611,113.929c0.443,4.431,4.909,6.243,7.525,9.233c2.574,2.942,2.432,7.631-0.428,10.344
								c-1.652,1.567-4.016,2.866-3.996,5.456c0.005,0.643,1.005,0.645,1,0c-0.018-2.343,2.514-3.52,3.936-4.976
								c1.268-1.299,2.027-3.015,2.258-4.806c0.228-1.772-0.082-3.622-0.956-5.188c-1.023-1.832-2.737-3.114-4.336-4.41
								c-1.787-1.448-3.76-3.218-4.003-5.653C433.548,113.295,432.547,113.289,432.611,113.929L432.611,113.929z"/>
						</g>
					</g>
					<g>
						<g>
							<path style="fill:#303030;" d="M393.027,112.85c-2.835,0.782-6.005,2.356-6.77,5.466c-0.407,1.654-0.049,3.398,0.69,4.904
								c0.723,1.472,2.522,2.894,2.228,4.68c-0.333,2.03-2.777,2.835-4.278,1.447c-0.472-0.436-1.181,0.269-0.707,0.707
								c1.14,1.055,2.9,1.341,4.267,0.539c1.377-0.808,2.064-2.565,1.6-4.091c-0.255-0.839-0.781-1.54-1.287-2.24
								c-0.575-0.795-1.073-1.628-1.37-2.569c-0.567-1.793-0.369-3.728,0.91-5.167c1.283-1.445,3.159-2.209,4.982-2.712
								C393.913,113.643,393.65,112.678,393.027,112.85L393.027,112.85z"/>
						</g>
					</g>
				</g>
				
					<ellipse transform="matrix(0.9871 -0.1602 0.1602 0.9871 -13.83 67.6673)" style="fill:#303030;" cx="412.797" cy="119.615" rx="19.131" ry="19.132"/>
				<path style="fill:#FFC4B0;" d="M421.881,106.582c-0.403,12.773,6.116,15.643,6.116,15.643c-0.881,1.639-1.558,3.378-2.012,5.169
					c1.437-1.84,3.582-3.297,5.981-3.451c2.399-0.154,4.964,1.269,5.547,3.499c0.577,2.204-0.93,4.574-3.062,5.576
					c-2.132,1.002-5.036,1.031-7.636-0.346l-0.003-0.002c-1.012,2.176-3.128,4.336-6.127,5.738l0.35,9.929l2.824,0.754
					l-21.243,14.561l0.416-14.391l3.355-0.82l1.001-7.992c-4.011-0.465-15.636-4.285-13.448-19.544
					c0.439-3.063,1.498-5.866,2.956-8.274l0.001,0C402.432,104.046,413.24,103.125,421.881,106.582z"/>
				<g>
					
						<path style="fill:none;stroke:#303030;stroke-width:1.5;stroke-linecap:round;stroke-linejoin:round;stroke-miterlimit:10;" d="
						M434.585,127.606c-0.555-0.38-1.911-0.661-3.272-0.281c-1.361,0.38-2.482,1.462-2.867,2.765"/>
					
						<path style="fill:none;stroke:#303030;stroke-width:1.5;stroke-linecap:round;stroke-linejoin:round;stroke-miterlimit:10;" d="
						M432.27,129.112c-0.409-0.277-1.844-0.977-3.228-0.211"/>
				</g>
				<g>
					<path style="fill:#D48983;" d="M411.978,124.758c0.008,0.348,0.297,0.624,0.646,0.616c0.348-0.008,0.624-0.297,0.616-0.646
						c-0.008-0.348-0.297-0.624-0.646-0.616C412.246,124.12,411.97,124.41,411.978,124.758z"/>
					<path style="fill:#D48983;" d="M414.952,127.138c0.008,0.348,0.297,0.624,0.646,0.616c0.348-0.008,0.624-0.297,0.616-0.646
						c-0.008-0.349-0.297-0.624-0.646-0.616C415.219,126.5,414.944,126.789,414.952,127.138z"/>
					<path style="fill:#D48983;" d="M417.775,125.161c0.008,0.348,0.297,0.624,0.646,0.616c0.348-0.008,0.624-0.297,0.616-0.646
						c-0.008-0.348-0.297-0.624-0.646-0.616C418.042,124.523,417.766,124.813,417.775,125.161z"/>
					<path style="fill:#D48983;" d="M400.702,123.974c0.008,0.348,0.297,0.624,0.646,0.616c0.348-0.008,0.624-0.297,0.616-0.646
						c-0.008-0.348-0.297-0.624-0.646-0.616C400.969,123.336,400.694,123.626,400.702,123.974z"/>
					<path style="fill:#D48983;" d="M397.882,126.16c0.008,0.348,0.297,0.624,0.646,0.616c0.348-0.008,0.624-0.297,0.616-0.646
						c-0.008-0.349-0.297-0.624-0.646-0.616C398.15,125.523,397.874,125.812,397.882,126.16z"/>
					<path style="fill:#D48983;" d="M395.72,123.628c0.008,0.348,0.297,0.624,0.646,0.616c0.348-0.008,0.624-0.297,0.616-0.646
						c-0.008-0.348-0.297-0.624-0.646-0.616C395.988,122.99,395.712,123.279,395.72,123.628z"/>
					<path style="fill:#303030;" d="M415.819,139.781c0,0-3.198,1.263-8.433,0.666l-0.28,2.235
						C407.106,142.683,412.189,143.061,415.819,139.781z"/>
					
						<path style="fill:none;stroke:#303030;stroke-width:1.5;stroke-linecap:round;stroke-linejoin:round;stroke-miterlimit:10;" d="
						M408.483,117.263c-0.091,1.316-0.459,2.91-2.016,5.337c-0.181,0.282-0.376,0.566-0.453,0.892
						c-0.115,0.489,0.059,1.01,0.353,1.417c0.294,0.407,0.699,0.719,1.103,1.017"/>
					<g>
						<g>
							<path style="fill:#FFFFFF;" d="M396.961,118.748c0.709-1.342,2.289-2.17,3.855-2.019c1.567,0.151,3.657,1.273,3.679,3.506
								C403.536,122.308,398.52,122.09,396.961,118.748z"/>
							<path style="fill:#303030;" d="M397.92,119.478c0.347,1.116,1.577,1.733,2.747,1.378c1.17-0.355,1.838-1.547,1.491-2.663
								c-0.347-1.116-1.577-1.733-2.747-1.378C398.241,117.17,397.573,118.362,397.92,119.478z"/>
							<polygon style="fill:#FFFFFF;" points="402.318,118.157 400.039,118.835 402.432,119.37 							"/>
							
								<path style="fill:none;stroke:#303030;stroke-width:1.5;stroke-linecap:round;stroke-linejoin:round;stroke-miterlimit:10;" d="
								M404.496,120.235c-0.701-1.976-2.1-2.662-3.457-3.023c-1.488-0.395-2.674-0.167-4.052,1.001"/>
						</g>
						
							<path style="fill:none;stroke:#303030;stroke-width:1.5;stroke-linecap:round;stroke-linejoin:round;stroke-miterlimit:10;" d="
							M395.658,117.055c0.186,0.584,0.724,1.039,1.33,1.127"/>
						
							<path style="fill:none;stroke:#303030;stroke-width:1.5;stroke-linecap:round;stroke-linejoin:round;stroke-miterlimit:10;" d="
							M403.878,112.459c-2.24-0.468-4.434,0.074-6.15,1.317"/>
					</g>
					<g>
						<g>
							<path style="fill:#FFFFFF;" d="M419.423,120.447c-0.546-1.416-2.018-2.423-3.592-2.457c-1.574-0.034-3.781,0.835-4.065,3.05
								C412.476,123.21,417.483,123.583,419.423,120.447z"/>
							<path style="fill:#303030;" d="M412.363,121.027c0.37,1.108,1.612,1.7,2.775,1.321c1.163-0.379,1.805-1.585,1.435-2.693
								c-0.37-1.108-1.612-1.7-2.775-1.321C412.636,118.713,411.993,119.919,412.363,121.027z"/>
							<polygon style="fill:#FFFFFF;" points="416.732,119.615 414.468,120.341 416.871,120.826 							"/>
							
								<path style="fill:none;stroke:#303030;stroke-width:1.5;stroke-linecap:round;stroke-linejoin:round;stroke-miterlimit:10;" d="
								M411.766,121.04c0.928-1.88,2.398-2.397,3.788-2.596c1.524-0.218,2.675,0.147,3.907,1.47"/>
						</g>
						
							<path style="fill:none;stroke:#303030;stroke-width:1.5;stroke-linecap:round;stroke-linejoin:round;stroke-miterlimit:10;" d="
							M420.915,118.918c-0.253,0.558-0.841,0.947-1.453,0.963"/>
						
							<path style="fill:none;stroke:#303030;stroke-width:1.5;stroke-linecap:round;stroke-linejoin:round;stroke-miterlimit:10;" d="
							M413.727,113.062c2.771-0.219,4.515,0.232,6.459,2.136"/>
					</g>
					<g>
						<path style="fill:#303030;" d="M409.646,129.793c-1.239,0.124-2.74,0.437-3.135,1.541c-0.679-1.278-1.675-1.617-1.675-1.617
							s1.153-0.705,2.44-0.626C408.562,129.169,409.646,129.793,409.646,129.793z"/>
						<path style="fill:#FFFFFF;" d="M411.735,130.287c-0.37,0.611-1.906,2.098-4.442,1.837c-0.552-0.074-0.589-0.417-0.782-0.791
							c0.068-0.525,0.883-1.544,3.135-1.541C410.251,130.154,411.131,130.29,411.735,130.287z"/>
						
							<path style="fill:none;stroke:#303030;stroke-width:1.5;stroke-linecap:round;stroke-linejoin:round;stroke-miterlimit:10;" d="
							M403.632,129.81c1.243,0.002,2.401-0.754,3.644-0.72c0.969,0.027,1.851,0.527,2.764,0.852
							c0.913,0.325,2.032,0.443,2.765-0.191"/>
						
							<path style="fill:none;stroke:#303030;stroke-width:1.5;stroke-linecap:round;stroke-linejoin:round;stroke-miterlimit:10;" d="
							M404.724,129.756c0.834,0.402,1.517,0.966,1.902,1.808c0.062,0.136,0.164,0.469,0.666,0.561
							c0.921,0.169,3.436-0.175,4.489-1.911"/>
					</g>
				</g>
				<g>
					<path style="fill:#303030;" d="M409.416,102.911c-3.433,3.594-3.647,10.03-1.877,11.532c1.77,1.502,17.11,2.272,17.11,2.272
						s2.253-7.582-1.234-10.746C419.929,102.804,409.416,102.911,409.416,102.911z"/>
					<path style="fill:#303030;" d="M409.416,102.911c-4.358,0.706-6.568,6.046-7.452,8.664c-0.884,2.618-2.141,3.583-6.957,3.624
						C390.19,115.239,394.614,99.901,409.416,102.911z"/>
				</g>
			</g>
			<g id="Arm_00000127740478878383905740000018174291681928083871_">
				<g id="Arm_00000132798299512938303740000013066491114962251147_">
					<g>
						<path style="fill:#FFC4B0;" d="M377.594,195.645c6.257-7.005,14.8-17.575,14.8-17.575l1.966-25.732
							c-6.232,1.072-11.124,3.532-16.072,9.796c-3.331,4.218-18.616,23.267-18.616,23.267s-16.039,4.664-17.948,4.938
							c-1.908,0.274-5.131,0.761-7.041-0.396c-1.327-0.804-2.054-1.152-3.415-1.876c-2.937-1.562-6.321-1.389-9.542-1.571
							c-0.587-0.033-1.187-0.065-1.751,0.102c-0.564,0.167-1.092,0.574-1.238,1.143c-0.179,0.701,0.264,1.424,0.831,1.874
							c0.566,0.45,1.255,0.718,1.848,1.132c1.25,0.872-1.202,0.64-1.616,0.638c-2.569-0.014-5.127-0.298-7.685-0.501
							c-3.446-0.273-4.091-0.094-5.001,0.583c-1.819,1.353-0.94,2.335-0.94,2.335s-2.083-0.724-2.675,0.894
							c-0.592,1.618,1.553,2.513,1.553,2.513s0.004,2.749,2.119,3.94c2.775,1.562,5.139,2.574,8.79,3.133
							c3.651,0.56,8.838,1.631,16.51,1.391c7.672-0.241,19.348-0.495,28.855-1.404C369.646,203.474,371.337,202.65,377.594,195.645z
							"/>
					</g>
					
						<path style="fill:none;stroke:#303030;stroke-width:1.5;stroke-linecap:round;stroke-linejoin:round;stroke-miterlimit:10;" d="
						M315.625,202.216c-0.964-0.432-1.637-1.017-4.766-3.196c-0.362-0.252-0.757-0.569-0.78-1.01
						c-0.019-0.366,0.238-0.696,0.542-0.901c0.847-0.571,1.989-0.393,2.946-0.037c3.207,1.195,6.452,4.161,9.896,1.954
						c0.784-0.503,1.487-1.129,2.299-1.585c2.293-1.29,5.379-0.98,7.37,0.739"/>
					
						<path style="fill:none;stroke:#303030;stroke-width:1.5;stroke-linecap:round;stroke-linejoin:round;stroke-miterlimit:10;" d="
						M305.053,197.21c0.945-0.566,2.151-0.084,5.059,0.539"/>
					
						<path style="fill:none;stroke:#303030;stroke-width:1.5;stroke-linecap:round;stroke-linejoin:round;stroke-miterlimit:10;" d="
						M306.174,193.803c1.681,0.247,9.713,1.296,9.713,1.296"/>
				</g>
				<g>
					
						<path style="fill:#FFFFFF;stroke:#303030;stroke-width:1.5;stroke-linecap:round;stroke-linejoin:round;stroke-miterlimit:10;" d="
						M385.555,154.021c-4.896,2.409-7.16,5.9-11.968,11.968c-4.084,5.155-6.844,8.964-6.844,8.964s2.104,5.18,8.477,10.076
						c5.589,4.294,11.502,4.663,11.502,4.663l9.129-11.036L385.555,154.021z"/>
					
						<path style="fill:#F55571;stroke:#303030;stroke-width:1.5;stroke-linecap:round;stroke-linejoin:round;stroke-miterlimit:10;" d="
						M368.812,172.166l-2.841,3.74c0,0,0.987,3.872,8.174,9.132c6.642,4.861,12.416,4.836,12.416,4.836l2.992-3.605
						c0,0-5.733,0.334-12.758-4.948C372.08,177.776,368.812,172.166,368.812,172.166z"/>
				</g>
			</g>
			<g id="Chest_00000118387414725944741090000001683992958766532527_">
				<g>
					<path style="fill:#303030;" d="M384.966,204.131l-0.3,6.956c0,0,4.119,4.053,16.248,4.885
						c12.129,0.831,28.053-1.932,35.279-5.756l-0.489-7.794L384.966,204.131z"/>
					<polygon style="fill:#00826F;" points="419.252,216.833 416.483,216.937 415.018,206.792 417.787,206.688 					"/>
					<polygon style="fill:#00826F;" points="387.068,214.673 389.292,214.68 390.194,204.49 387.97,204.483 					"/>
					<g>
						
							<path style="fill:none;stroke:#FFFFFF;stroke-width:1.5;stroke-linecap:round;stroke-linejoin:round;stroke-miterlimit:10;" d="
							M398.711,208.969c-5.477-0.491-6.304,5.272-0.38,5.892c4.109,0.43,4.712,0.316,4.797-2.339
							C403.238,209.016,402.484,209.307,398.711,208.969z"/>
						
							<line style="fill:none;stroke:#FFFFFF;stroke-width:1.5;stroke-linecap:round;stroke-linejoin:round;stroke-miterlimit:10;" x1="403.12" y1="212.342" x2="400.22" y2="212.148"/>
					</g>
				</g>
				<g>
					
						<path id="Chest_00000116213062733477795760000000214496577427434143_" style="fill:#FFFFFF;stroke:#303030;stroke-width:1.5;stroke-linecap:round;stroke-linejoin:round;stroke-miterlimit:10;" d="
						M385.555,154.021c7.79-3.288,13.589-4.9,13.589-4.9c2.82-3.594,4.746-5.127,7.145-5.434l0.096,4.752
						c-1.256,4.399-0.849,10.238-0.849,10.238s11.198-8.451,15.988-11.815l0.133-4.166c0,0,1.707,0.807,4.224,6.425
						c3.518,0.808,14.598,4.663,19.256,6.785c0,0,1.869,4.945-4.975,25.801c-3.969,12.095-0.89,18.982-4.184,21.67
						c-3.294,2.689-10.609,5.488-28.871,5.365c-12.295-0.083-21.36-4.309-22.457-5.567c-2.691-3.085-1.802-14.681-1.802-14.681
						s-3.47-5.538-2.82-10.962c0.642-5.359,2.216-8.168,4.861-12.401L385.555,154.021z"/>
					
						<path style="fill:none;stroke:#303030;stroke-width:1.5;stroke-linecap:round;stroke-linejoin:round;stroke-miterlimit:10;" d="
						M402.879,164.156c-1.521,3.186-3.369,7.174-4.077,10.633c-1.839,8.989-1.302,15.882-1.302,28.972"/>
					
						<path style="fill:none;stroke:#303030;stroke-width:1.5;stroke-linecap:round;stroke-linejoin:round;stroke-miterlimit:10;" d="
						M406.289,160.636l5.492-1.784l3.617,7.493c0,0,10.482-7.969,10.482-17.224"/>
					
						<path style="fill:none;stroke:#303030;stroke-width:1.5;stroke-linecap:round;stroke-linejoin:round;stroke-miterlimit:10;" d="
						M403.632,160.139l-1.018-3.663c0,0-5.476,3.863-6.579,5.794c-1.104-4.69,3.11-13.149,3.11-13.149"/>
					
						<path style="fill:none;stroke:#303030;stroke-width:1.5;stroke-linecap:round;stroke-linejoin:round;stroke-miterlimit:10;" d="
						M384.888,165.132c2.53-3.852,4.379-5.724,4.379-5.724"/>
				</g>
			</g>
			<g id="Magnifying_Glass_00000117651490164319005410000014304450629142903682_">
				<g>
					
						<path style="fill:#F55571;stroke:#303030;stroke-width:2;stroke-linecap:round;stroke-linejoin:round;stroke-miterlimit:10;" d="
						M418.226,227.399c3.624-1.126,5.325-3.544,5.389-7.063c0.017-0.929-0.443-1.805-1.176-2.377l-2.047-1.596l-7.05,8.94l2.052,1.6
						C416.195,227.528,417.255,227.7,418.226,227.399z"/>
					
						<path style="fill:#303030;stroke:#303030;stroke-width:2;stroke-linecap:round;stroke-linejoin:round;stroke-miterlimit:10;" d="
						M371.267,191.715c0.609-3.853,2.708-6.544,6.296-8.073c0.382-0.162,0.794-0.108,1.089,0.122l40.884,31.919
						c0.636,0.496,1.003,1.299,0.928,2.183c-0.284,3.347-1.999,5.754-5.399,7.055c-0.911,0.348-1.873,0.253-2.569-0.29
						l-40.846-31.89C371.356,192.512,371.202,192.125,371.267,191.715z"/>
					
						<path style="fill:#303030;stroke:#303030;stroke-width:2;stroke-linecap:round;stroke-linejoin:round;stroke-miterlimit:10;" d="
						M361.822,180.814c0.308-1.951,1.371-3.314,3.189-4.088c0.193-0.082,0.402-0.055,0.551,0.062l27.309,21.295
						c0.322,0.251,0.508,0.658,0.47,1.106c-0.144,1.695-1.013,2.914-2.734,3.573c-0.461,0.176-0.948,0.128-1.301-0.147
						l-27.289-21.281C361.867,181.217,361.789,181.021,361.822,180.814z"/>
					
						<line style="fill:none;stroke:#FFFFFF;stroke-width:2;stroke-linecap:round;stroke-linejoin:round;stroke-miterlimit:10;" x1="379.549" y1="186.655" x2="413.711" y2="213.195"/>
				</g>
				<g>
					
						<path style="fill:#303030;stroke:#303030;stroke-width:2;stroke-linecap:round;stroke-linejoin:round;stroke-miterlimit:10;" d="
						M329.787,98.219c-27.121-3.394-51.864,15.843-55.258,42.965c-3.395,27.121,15.843,51.864,42.965,55.258
						c27.121,3.395,51.855-15.844,55.25-42.966C376.138,126.355,356.908,101.613,329.787,98.219z M318.396,189.235
						c-23.145-2.897-39.556-24.004-36.66-47.149c2.896-23.137,24.003-39.548,47.148-36.651
						c23.137,2.896,39.548,24.003,36.652,47.139C362.639,175.719,341.533,192.13,318.396,189.235z"/>
					
						<path style="fill:#F55571;stroke:#303030;stroke-width:2;stroke-linecap:round;stroke-linejoin:round;stroke-miterlimit:10;" d="
						M333.078,98.631c-27.121-3.395-51.864,15.843-55.258,42.965c-3.395,27.121,15.843,51.864,42.965,55.258
						c27.121,3.394,51.855-15.844,55.25-42.966C379.429,126.767,360.2,102.025,333.078,98.631z M321.687,189.646
						c-23.145-2.897-39.556-24.004-36.66-47.149c2.896-23.137,24.003-39.548,47.148-36.651
						c23.137,2.896,39.548,24.003,36.652,47.139C365.931,176.131,344.824,192.542,321.687,189.646z"/>
				</g>
				<g>
					
						<line style="fill:none;stroke:#FF95FB;stroke-width:2;stroke-linecap:round;stroke-linejoin:round;stroke-miterlimit:10;" x1="303.268" y1="127.987" x2="349.635" y2="166.564"/>
					
						<line style="fill:none;stroke:#FF95FB;stroke-width:2;stroke-linecap:round;stroke-linejoin:round;stroke-miterlimit:10;" x1="316.496" y1="118.29" x2="349.553" y2="145.793"/>
					
						<line style="fill:none;stroke:#FF95FB;stroke-width:2;stroke-linecap:round;stroke-linejoin:round;stroke-miterlimit:10;" x1="301.971" y1="148.8" x2="335.028" y2="176.303"/>
				</g>
			</g>
			<g id="Arm_00000002384485246400960860000001896554843351058066_">
				<g id="Arm_00000009549266147698484850000001132764267076619438_">
					<g>
						<path style="fill:#FFC4B0;" d="M405.328,216.202c0.275-0.821,1.077-1.426,1.81-1.82c1.498-0.805,3.13-1.317,4.778-1.712
							c0.83-0.199,1.668-0.355,2.502-0.535c0.562-0.121,1.239-0.454,0.657-1.045c-1.098-1.114-2.571-1.82-3.999-2.457
							c-1.118-0.499-2.354-0.96-3.077-1.981c-0.83-1.172-0.053-2.137,1.092-2.075c3.836,0.21,7.759,2.282,11.19,4.011
							c3.729,1.879,7.903,3.975,12.079,2.169c6.915-2.991,14.289-12.998,14.286-13.007c0,0-9.01-15.159-9.01-16.995
							c0,0-1.444-16.598,7.5-24.848c3.683,1.757,7.452,8.637,10.009,14.332c2.03,4.52,8.09,16.722,9.761,20.255
							c3.188,6.738,3.524,11.087-2.684,16.932c-4.777,4.498-16.943,13.222-24.162,16.105c-2.428,0.97-5.049,1.564-7.673,1.527
							c-3.338-0.048-6.314-1.952-9.637-1.946c-1.28,0.002-2.289-0.058-3.565,0.047c-2.477,0.203-4.038,0.736-5.324-0.101
							c-0.55-0.359-1.259-1.299-0.357-2.487c-0.99,0.427-2.09,0.555-3.01-0.088c-0.667-0.467-1.381-1.42-0.159-2.536
							c-0.58,0.254-1.241,0.369-1.853,0.206C405.559,217.906,405.018,217.123,405.328,216.202z"/>
					</g>
					
						<path style="fill:none;stroke:#303030;stroke-width:1.5;stroke-linecap:round;stroke-linejoin:round;stroke-miterlimit:10;" d="
						M417.391,215.486c-3.567-0.059-6.087,0.48-9.055,2.46"/>
					
						<path style="fill:none;stroke:#303030;stroke-width:1.5;stroke-linecap:round;stroke-linejoin:round;stroke-miterlimit:10;" d="
						M418.739,219.072c-3.451-0.201-5.417,0.202-7.234,1.498"/>
					
						<path style="fill:none;stroke:#303030;stroke-width:1.5;stroke-linecap:round;stroke-linejoin:round;stroke-miterlimit:10;" d="
						M454.736,193.667c-4.442,0-6.848,2.889-8.09,4.082"/>
				</g>
				<g>
					
						<path style="fill:#FFFFFF;stroke:#303030;stroke-width:1.5;stroke-linecap:round;stroke-linejoin:round;stroke-miterlimit:10;" d="
						M445.136,155.906c3.876,2.079,5.841,5.822,8.415,10.439c3.806,6.825,7.954,15.45,7.954,15.45s-11.331,10.238-18.985,11.232
						l-3.489-4.999c-2.673-3.83-3.935-8.472-3.526-13.124C436.055,168.65,439.379,161.883,445.136,155.906z"/>
					
						<path style="fill:#F55571;stroke:#303030;stroke-width:1.5;stroke-linecap:round;stroke-linejoin:round;stroke-miterlimit:10;" d="
						M440.52,190.161l2.294,3.507c0,0,3.475-0.206,10.741-4.248c7.266-4.043,8.87-8.383,8.87-8.383l-2.17-3.869
						c0,0-2.076,4.624-9.153,8.776C447.077,188.304,440.52,190.161,440.52,190.161z"/>
				</g>
			</g>
		</g>
	</g>
</g>
</svg>
