<?xml version="1.0" encoding="utf-8"?>
<!-- Generator: Adobe Illustrator 27.5.0, SVG Export Plug-In . SVG Version: 6.00 Build 0)  -->
<svg version="1.1" xmlns="http://www.w3.org/2000/svg" xmlns:xlink="http://www.w3.org/1999/xlink" x="0px" y="0px"
	 viewBox="0 0 500 500" style="enable-background:new 0 0 500 500;" xml:space="preserve">
<g id="Background_complete">
	<g>
		<g>
			<g>
				<g>
					<g>
						<path style="fill:#E0E0E0;" d="M443.92,330.198H263.174c-3.232,0-5.862-2.63-5.862-5.862V61.062
							c0-3.232,2.63-5.862,5.862-5.862H443.92c3.232,0,5.862,2.629,5.862,5.862v263.273
							C449.783,327.568,447.153,330.198,443.92,330.198z M263.174,55.45c-3.095,0-5.612,2.518-5.612,5.612v263.273
							c0,3.095,2.518,5.612,5.612,5.612H443.92c3.095,0,5.612-2.518,5.612-5.612V61.062c0-3.094-2.518-5.612-5.612-5.612H263.174z"
							/>
					</g>
				</g>
				<g>
					<g>
						<path style="fill:#E0E0E0;" d="M235.493,330.198H54.746c-3.232,0-5.862-2.63-5.862-5.862V61.062
							c0-3.232,2.629-5.862,5.862-5.862h180.747c3.232,0,5.862,2.629,5.862,5.862v263.273
							C241.355,327.568,238.725,330.198,235.493,330.198z M54.746,55.45c-3.094,0-5.612,2.518-5.612,5.612v263.273
							c0,3.095,2.518,5.612,5.612,5.612h180.747c3.095,0,5.612-2.518,5.612-5.612V61.062c0-3.094-2.518-5.612-5.612-5.612H54.746z"
							/>
					</g>
				</g>
			</g>
			<g>
				<g>
					<rect x="0" y="391.267" style="fill:#E0E0E0;" width="500" height="0.25"/>
				</g>
			</g>
		</g>
		<rect x="51.672" y="405.531" style="fill:#E0E0E0;" width="16.06" height="0.25"/>
		<rect x="170.352" y="402.821" style="fill:#E0E0E0;" width="53.53" height="0.25"/>
		<rect x="68.732" y="414.821" style="fill:#E0E0E0;" width="36.25" height="0.25"/>
		<rect x="378.352" y="402.691" style="fill:#E0E0E0;" width="43.19" height="0.25"/>
		<rect x="430.452" y="402.691" style="fill:#E0E0E0;" width="6.33" height="0.25"/>
		<rect x="316.212" y="408.921" style="fill:#E0E0E0;" width="53.89" height="0.25"/>
	</g>
	<path style="fill:#E0E0E0;" d="M189.439,355.592c-0.621-2.995-1.808-5.78-3.431-8.254l2.955-3.57l-6.318-6.319l-3.57,2.955
		c-2.473-1.622-5.258-2.81-8.253-3.431l-0.433-4.601h-8.935l-0.434,4.601c-2.995,0.621-5.78,1.808-8.253,3.431l-3.57-2.955
		l-6.318,6.319l2.955,3.57c-1.623,2.473-2.81,5.258-3.431,8.253l-4.601,0.434v8.935l4.601,0.434
		c0.621,2.995,1.808,5.779,3.431,8.253l-2.955,3.57l6.318,6.318l3.57-2.956c2.473,1.624,5.258,2.81,8.253,3.431l0.434,4.601h8.935
		l0.433-4.601c2.995-0.621,5.78-1.808,8.253-3.432l3.57,2.956l6.318-6.318l-2.955-3.569c1.623-2.474,2.81-5.258,3.431-8.253
		l4.601-0.434v-8.935L189.439,355.592z M178.018,360.493c0,6.68-5.416,12.096-12.096,12.096c-6.681,0-12.096-5.416-12.096-12.096
		c0-6.681,5.416-12.096,12.096-12.096C172.602,348.396,178.018,353.812,178.018,360.493z"/>
	<path style="fill:#E0E0E0;" d="M121.267,254.913c-0.43-2.074-1.252-4.002-2.376-5.715l2.046-2.472l-4.375-4.375l-2.472,2.046
		c-1.713-1.123-3.641-1.946-5.715-2.376l-0.3-3.186h-6.187l-0.3,3.186c-2.074,0.43-4.002,1.252-5.715,2.376l-2.472-2.046
		l-4.375,4.375l2.046,2.472c-1.124,1.712-1.946,3.641-2.376,5.715l-3.186,0.3v6.187l3.186,0.3c0.43,2.074,1.252,4.002,2.376,5.715
		l-2.046,2.472l4.375,4.375l2.472-2.047c1.712,1.124,3.641,1.946,5.715,2.376l0.3,3.186h6.187l0.3-3.186
		c2.074-0.43,4.002-1.252,5.715-2.376l2.472,2.047l4.375-4.375l-2.046-2.472c1.124-1.713,1.946-3.641,2.376-5.715l3.186-0.3v-6.187
		L121.267,254.913z M113.358,258.306c0,4.626-3.75,8.376-8.376,8.376s-8.376-3.75-8.376-8.376c0-4.626,3.75-8.376,8.376-8.376
		S113.358,253.68,113.358,258.306z"/>
	<path style="fill:#F0F0F0;" d="M283.086,92.382c-0.749-3.613-2.181-6.972-4.139-9.955l3.565-4.306l-7.621-7.621l-4.306,3.564
		c-2.983-1.957-6.342-3.389-9.955-4.138l-0.523-5.55H249.33l-0.523,5.55c-3.613,0.749-6.972,2.181-9.955,4.138l-4.306-3.564
		l-7.621,7.621l3.564,4.306c-1.958,2.983-3.389,6.342-4.139,9.955l-5.55,0.523v10.777l5.55,0.523
		c0.749,3.613,2.181,6.971,4.139,9.954l-3.564,4.306l7.621,7.621l4.306-3.565c2.983,1.959,6.342,3.39,9.955,4.139l0.523,5.55h10.778
		l0.523-5.549c3.613-0.749,6.972-2.181,9.955-4.139l4.306,3.565l7.621-7.621l-3.565-4.305c1.958-2.984,3.39-6.342,4.139-9.955
		l5.549-0.523V92.906L283.086,92.382z M269.309,98.294c0,8.058-6.532,14.59-14.59,14.59c-8.058,0-14.59-6.533-14.59-14.59
		c0-8.058,6.532-14.59,14.59-14.59C262.777,83.704,269.309,90.236,269.309,98.294z"/>
	<path style="fill:#F0F0F0;" d="M316.406,68.725c-0.344-1.66-1.002-3.203-1.901-4.573l1.638-1.978l-3.501-3.501l-1.978,1.637
		c-1.37-0.899-2.914-1.557-4.573-1.901l-0.24-2.55h-4.951l-0.24,2.55c-1.66,0.344-3.203,1.002-4.573,1.901l-1.978-1.637
		l-3.501,3.501l1.637,1.978c-0.899,1.37-1.557,2.913-1.901,4.573l-2.549,0.24v4.951l2.549,0.24c0.344,1.66,1.002,3.202,1.901,4.573
		l-1.637,1.978l3.501,3.501l1.978-1.638c1.37,0.9,2.913,1.557,4.573,1.901l0.24,2.549h4.951l0.24-2.549
		c1.66-0.344,3.203-1.002,4.573-1.902l1.978,1.638l3.501-3.501l-1.638-1.978c0.9-1.371,1.557-2.914,1.901-4.573l2.549-0.24v-4.951
		L316.406,68.725z M310.077,71.44c0,3.702-3.001,6.703-6.703,6.703c-3.702,0-6.703-3.001-6.703-6.703
		c0-3.702,3.001-6.703,6.703-6.703C307.077,64.738,310.077,67.738,310.077,71.44z"/>
	<g>
		<g>
			<path style="fill:#F0F0F0;" d="M378.605,138.992V116.57h13.745v22.015c0,6.232,2.387,8.56,6.232,8.56
				c3.843,0,6.232-2.329,6.232-8.56V116.57h13.511v22.422c0,12.23-7.338,19.278-19.86,19.278
				C385.944,158.27,378.605,151.222,378.605,138.992z"/>
			<path style="fill:#F0F0F0;" d="M424.617,116.57h13.745v40.768h-13.745V116.57z"/>
		</g>
	</g>
	<g>
		<path style="fill:#F0F0F0;" d="M59.493,95.944V64.737h19.129v30.639c0,8.674,3.323,11.914,8.672,11.914
			c5.35,0,8.673-3.241,8.673-11.914V64.737h18.805v31.207c0,17.02-10.213,26.829-27.639,26.829S59.493,112.964,59.493,95.944z"/>
		<path style="fill:#F0F0F0;" d="M158.625,121.476l-9.808-15.158l-9.564,15.158h-21.804l20.507-28.612l-19.777-28.127h21.479
			l9.646,14.266l9.402-14.266h20.588l-19.697,27.397l20.912,29.341H158.625z"/>
	</g>
	<g>
		<path style="fill:#263238;" d="M384.407,186.758c-1.072-5.173-3.122-9.983-5.926-14.254l5.104-6.165l-10.912-10.912l-6.165,5.103
			c-4.272-2.802-9.081-4.853-14.254-5.925l-0.749-7.946h-15.432l-0.749,7.946c-5.172,1.073-9.982,3.123-14.253,5.925l-6.165-5.103
			l-10.912,10.912l5.104,6.165c-2.803,4.271-4.853,9.08-5.926,14.254l-7.946,0.749v15.431l7.946,0.749
			c1.073,5.173,3.123,9.981,5.926,14.253l-5.104,6.165l10.912,10.912l6.165-5.105c4.271,2.804,9.081,4.853,14.253,5.926l0.749,7.946
			h15.432l0.749-7.945c5.172-1.072,9.982-3.123,14.254-5.927l6.165,5.105l10.912-10.912l-5.104-6.164
			c2.803-4.272,4.853-9.081,5.926-14.253l7.946-0.749v-15.431L384.407,186.758z M364.681,195.222c0,11.537-9.353,20.89-20.891,20.89
			c-11.538,0-20.891-9.353-20.891-20.89c0-11.538,9.353-20.891,20.891-20.891C355.328,174.332,364.681,183.685,364.681,195.222z"/>
		<path style="opacity:0.7;fill:#FFFFFF;" d="M384.407,186.758c-1.072-5.173-3.122-9.983-5.926-14.254l5.104-6.165l-10.912-10.912
			l-6.165,5.103c-4.272-2.802-9.081-4.853-14.254-5.925l-0.749-7.946h-15.432l-0.749,7.946c-5.172,1.073-9.982,3.123-14.253,5.925
			l-6.165-5.103l-10.912,10.912l5.104,6.165c-2.803,4.271-4.853,9.08-5.926,14.254l-7.946,0.749v15.431l7.946,0.749
			c1.073,5.173,3.123,9.981,5.926,14.253l-5.104,6.165l10.912,10.912l6.165-5.105c4.271,2.804,9.081,4.853,14.253,5.926l0.749,7.946
			h15.432l0.749-7.945c5.172-1.072,9.982-3.123,14.254-5.927l6.165,5.105l10.912-10.912l-5.104-6.164
			c2.803-4.272,4.853-9.081,5.926-14.253l7.946-0.749v-15.431L384.407,186.758z M364.681,195.222c0,11.537-9.353,20.89-20.891,20.89
			c-11.538,0-20.891-9.353-20.891-20.89c0-11.538,9.353-20.891,20.891-20.891C355.328,174.332,364.681,183.685,364.681,195.222z"/>
	</g>
	<g>
		<path style="fill:#263238;" d="M452.422,203.375c-0.528-2.549-1.538-4.918-2.92-7.023l2.515-3.037l-5.376-5.376l-3.038,2.514
			c-2.105-1.381-4.474-2.391-7.023-2.919l-0.369-3.915h-7.603l-0.369,3.915c-2.548,0.529-4.918,1.539-7.023,2.919l-3.038-2.514
			l-5.376,5.376l2.514,3.038c-1.381,2.104-2.391,4.474-2.92,7.023l-3.915,0.369v7.603l3.915,0.369
			c0.529,2.548,1.539,4.918,2.92,7.022l-2.514,3.038l5.376,5.376l3.038-2.515c2.104,1.382,4.474,2.391,7.023,2.92l0.369,3.915h7.603
			l0.369-3.915c2.548-0.528,4.918-1.538,7.023-2.92l3.038,2.515l5.376-5.376l-2.515-3.037c1.381-2.105,2.391-4.474,2.92-7.023
			l3.915-0.369v-7.603L452.422,203.375z M442.703,207.545c0,5.684-4.608,10.293-10.293,10.293c-5.685,0-10.293-4.608-10.293-10.293
			c0-5.685,4.608-10.293,10.293-10.293C438.095,197.252,442.703,201.86,442.703,207.545z"/>
		<path style="opacity:0.8;fill:#FFFFFF;" d="M452.422,203.375c-0.528-2.549-1.538-4.918-2.92-7.023l2.515-3.037l-5.376-5.376
			l-3.038,2.514c-2.105-1.381-4.474-2.391-7.023-2.919l-0.369-3.915h-7.603l-0.369,3.915c-2.548,0.529-4.918,1.539-7.023,2.919
			l-3.038-2.514l-5.376,5.376l2.514,3.038c-1.381,2.104-2.391,4.474-2.92,7.023l-3.915,0.369v7.603l3.915,0.369
			c0.529,2.548,1.539,4.918,2.92,7.022l-2.514,3.038l5.376,5.376l3.038-2.515c2.104,1.382,4.474,2.391,7.023,2.92l0.369,3.915h7.603
			l0.369-3.915c2.548-0.528,4.918-1.538,7.023-2.92l3.038,2.515l5.376-5.376l-2.515-3.037c1.381-2.105,2.391-4.474,2.92-7.023
			l3.915-0.369v-7.603L452.422,203.375z M442.703,207.545c0,5.684-4.608,10.293-10.293,10.293c-5.685,0-10.293-4.608-10.293-10.293
			c0-5.685,4.608-10.293,10.293-10.293C438.095,197.252,442.703,201.86,442.703,207.545z"/>
	</g>
	<g>
		<path style="fill:#263238;" d="M187.922,125.784c-0.606-2.924-1.764-5.642-3.349-8.055l2.884-3.484l-6.167-6.167l-3.484,2.884
			c-2.414-1.584-5.132-2.742-8.055-3.349l-0.423-4.491h-8.721l-0.423,4.491c-2.923,0.606-5.641,1.765-8.055,3.349l-3.484-2.884
			l-6.167,6.167l2.884,3.484c-1.584,2.414-2.742,5.132-3.349,8.055l-4.491,0.423v8.72l4.491,0.423
			c0.606,2.923,1.765,5.641,3.349,8.055l-2.884,3.484l6.167,6.167l3.484-2.885c2.414,1.585,5.132,2.743,8.055,3.349l0.423,4.491
			h8.721l0.423-4.49c2.923-0.606,5.641-1.765,8.055-3.35l3.484,2.885l6.167-6.167l-2.884-3.484c1.584-2.415,2.743-5.132,3.349-8.055
			l4.49-0.423v-8.72L187.922,125.784z M176.774,130.567c0,6.52-5.286,11.806-11.806,11.806c-6.52,0-11.806-5.286-11.806-11.806
			c0-6.52,5.286-11.806,11.806-11.806C171.488,118.761,176.774,124.047,176.774,130.567z"/>
		<path style="opacity:0.8;fill:#FFFFFF;" d="M187.922,125.784c-0.606-2.924-1.764-5.642-3.349-8.055l2.884-3.484l-6.167-6.167
			l-3.484,2.884c-2.414-1.584-5.132-2.742-8.055-3.349l-0.423-4.491h-8.721l-0.423,4.491c-2.923,0.606-5.641,1.765-8.055,3.349
			l-3.484-2.884l-6.167,6.167l2.884,3.484c-1.584,2.414-2.742,5.132-3.349,8.055l-4.491,0.423v8.72l4.491,0.423
			c0.606,2.923,1.765,5.641,3.349,8.055l-2.884,3.484l6.167,6.167l3.484-2.885c2.414,1.585,5.132,2.743,8.055,3.349l0.423,4.491
			h8.721l0.423-4.49c2.923-0.606,5.641-1.765,8.055-3.35l3.484,2.885l6.167-6.167l-2.884-3.484c1.584-2.415,2.743-5.132,3.349-8.055
			l4.49-0.423v-8.72L187.922,125.784z M176.774,130.567c0,6.52-5.286,11.806-11.806,11.806c-6.52,0-11.806-5.286-11.806-11.806
			c0-6.52,5.286-11.806,11.806-11.806C171.488,118.761,176.774,124.047,176.774,130.567z"/>
	</g>
	<g>
		<path style="fill:#263238;" d="M369.409,116.071c-0.377-1.82-1.099-3.512-2.085-5.015l1.796-2.169l-3.839-3.84l-2.169,1.796
			c-1.503-0.986-3.195-1.707-5.015-2.085l-0.263-2.796h-5.43l-0.263,2.796c-1.82,0.377-3.512,1.099-5.015,2.085l-2.169-1.796
			l-3.84,3.84l1.796,2.169c-0.986,1.503-1.708,3.195-2.085,5.015l-2.796,0.264v5.429l2.796,0.264
			c0.378,1.82,1.099,3.512,2.085,5.015l-1.796,2.169l3.84,3.84l2.169-1.796c1.503,0.987,3.195,1.708,5.015,2.085l0.263,2.796h5.43
			l0.263-2.796c1.82-0.377,3.512-1.099,5.015-2.085l2.169,1.796l3.839-3.84l-1.796-2.169c0.987-1.503,1.708-3.195,2.085-5.015
			l2.796-0.264v-5.429L369.409,116.071z M362.468,119.049c0,4.059-3.291,7.35-7.35,7.35s-7.351-3.291-7.351-7.35
			c0-4.06,3.291-7.351,7.351-7.351S362.468,114.99,362.468,119.049z"/>
		<path style="opacity:0.8;fill:#FFFFFF;" d="M369.409,116.071c-0.377-1.82-1.099-3.512-2.085-5.015l1.796-2.169l-3.839-3.84
			l-2.169,1.796c-1.503-0.986-3.195-1.707-5.015-2.085l-0.263-2.796h-5.43l-0.263,2.796c-1.82,0.377-3.512,1.099-5.015,2.085
			l-2.169-1.796l-3.84,3.84l1.796,2.169c-0.986,1.503-1.708,3.195-2.085,5.015l-2.796,0.264v5.429l2.796,0.264
			c0.378,1.82,1.099,3.512,2.085,5.015l-1.796,2.169l3.84,3.84l2.169-1.796c1.503,0.987,3.195,1.708,5.015,2.085l0.263,2.796h5.43
			l0.263-2.796c1.82-0.377,3.512-1.099,5.015-2.085l2.169,1.796l3.839-3.84l-1.796-2.169c0.987-1.503,1.708-3.195,2.085-5.015
			l2.796-0.264v-5.429L369.409,116.071z M362.468,119.049c0,4.059-3.291,7.35-7.35,7.35s-7.351-3.291-7.351-7.35
			c0-4.06,3.291-7.351,7.351-7.351S362.468,114.99,362.468,119.049z"/>
	</g>
</g>
<g id="Background_simple" style="display:none;">
	<g style="display:inline;">
		<path style="fill:#407BFF;" d="M406.939,107.833c-4.418-14.449-13.428-28.271-27.337-40.392
			c-16.394-14.286-41.749-28.681-74.353-23.493c-60.191,9.578-60.376,48.787-101.159,41.912
			c-46.195-7.788-100.001-0.585-114.073,39.53c-26.729,76.193,142.118,163.6,233.128,135.818
			C379.804,243.913,430.395,184.554,406.939,107.833z"/>
		<path style="opacity:0.9;fill:#FFFFFF;" d="M406.939,107.833c-4.418-14.449-13.428-28.271-27.337-40.392
			c-16.394-14.286-41.749-28.681-74.353-23.493c-60.191,9.578-60.376,48.787-101.159,41.912
			c-46.195-7.788-100.001-0.585-114.073,39.53c-26.729,76.193,142.118,163.6,233.128,135.818
			C379.804,243.913,430.395,184.554,406.939,107.833z"/>
	</g>
</g>
<g id="Shadow">
	<g>
		<g>
			<path style="fill:#F5F5F5;" d="M468.598,450.962c0,7.863-93.517,14.237-208.875,14.237s-208.875-6.374-208.875-14.237
				c0-7.863,93.516-14.237,208.875-14.237S468.598,443.098,468.598,450.962z"/>
		</g>
	</g>
</g>
<g id="Text">
	<g>
		<path style="fill:#407BFF;" d="M441.012,324.341h-20.741c-4.852,0-8.784-3.933-8.784-8.784v-20.741
			c0-4.852,3.933-8.784,8.784-8.784h20.741c4.852,0,8.784,3.933,8.784,8.784v20.741
			C449.797,320.408,445.864,324.341,441.012,324.341z"/>
		<path style="opacity:0.5;fill:#FFFFFF;" d="M441.012,324.341h-20.741c-4.852,0-8.784-3.933-8.784-8.784v-20.741
			c0-4.852,3.933-8.784,8.784-8.784h20.741c4.852,0,8.784,3.933,8.784,8.784v20.741
			C449.797,320.408,445.864,324.341,441.012,324.341z"/>
		<g>
			<path style="fill:#407BFF;" d="M427.259,308.349h-5.5l-0.972,2.522h-4.962l6.326-14.473h4.797l6.327,14.473h-5.045
				L427.259,308.349z M425.915,304.834l-1.406-3.639l-1.406,3.639H425.915z"/>
			<path style="fill:#407BFF;" d="M445.105,304.792v6.079h-4.343v-1.488c-0.537,1.137-1.612,1.695-3.204,1.695
				c-2.77,0-4.197-1.571-4.197-3.516c0-2.191,1.654-3.411,5.169-3.411h1.882c-0.146-0.868-0.807-1.323-2.13-1.323
				c-1.014,0-2.15,0.331-2.895,0.89l-1.489-3.081c1.323-0.827,3.329-1.282,5.087-1.282
				C442.871,299.355,445.105,301.03,445.105,304.792z M440.432,307.191v-0.785h-1.158c-0.992,0-1.427,0.331-1.427,0.951
				c0,0.517,0.414,0.909,1.117,0.909C439.605,308.266,440.184,307.936,440.432,307.191z"/>
		</g>
	</g>
</g>
<g id="Image">
	<g>
		<g>
			<path style="fill:#407BFF;" d="M414.755,282.07h-34.868c-2.789,0-5.05-2.261-5.05-5.05v-29.113c0-2.789,2.261-5.05,5.05-5.05
				h34.868c2.789,0,5.05,2.261,5.05,5.05v29.113C419.805,279.809,417.544,282.07,414.755,282.07z"/>
			<path style="opacity:0.6;fill:#FFFFFF;" d="M414.755,282.07h-34.868c-2.789,0-5.05-2.261-5.05-5.05v-29.113
				c0-2.789,2.261-5.05,5.05-5.05h34.868c2.789,0,5.05,2.261,5.05,5.05v29.113C419.805,279.809,417.544,282.07,414.755,282.07z"/>
			<path style="fill:#407BFF;" d="M409.27,261.153l-10.585,8.287l-6.551-3.887c-1.215-0.721-2.75-0.61-3.848,0.279l-13.401,10.841
				l0,0c-0.053,2.966,2.334,5.401,5.301,5.405l34.296,0.052c2.949-0.033,5.323-2.434,5.323-5.383v-12.099l-6.694-3.782
				C411.89,260.175,410.374,260.289,409.27,261.153z"/>
			<path style="fill:#407BFF;" d="M404.237,254.863c0,2.684-2.126,4.86-4.747,4.86c-2.622,0-4.747-2.176-4.747-4.86
				c0-2.684,2.126-4.86,4.747-4.86C402.112,250.003,404.237,252.179,404.237,254.863z"/>
		</g>
	</g>
</g>
<g id="Colors">
	<rect x="390.091" y="289.582" style="fill:#407BFF;" width="12.037" height="12.037"/>
	<rect x="390.091" y="304.41" style="fill:#263238;" width="12.037" height="12.037"/>
	<g>
		<rect x="426.392" y="252.288" style="fill:#407BFF;" width="12.037" height="12.037"/>
		<rect x="426.392" y="252.288" style="opacity:0.8;fill:#FFFFFF;" width="12.037" height="12.037"/>
	</g>
</g>
<g id="Speech_Bubble">
	<g>
		<g>
			<g>
				<path style="fill:#407BFF;" d="M111.036,95.774c7.378-8.201,20.007-8.868,28.207-1.49c8.201,7.378,8.868,20.007,1.49,28.207
					c-5.696,6.331-14.515,8.151-22.017,5.266l-5.335,2.743l-0.598-6.31c-0.084-0.073-0.174-0.134-0.257-0.209
					C104.326,116.604,103.659,103.975,111.036,95.774z"/>
			</g>
			<g style="opacity:0.3;">
				<path style="fill:#FFFFFF;" d="M111.036,95.774c7.378-8.201,20.007-8.868,28.207-1.49c8.201,7.378,8.868,20.007,1.49,28.207
					c-5.696,6.331-14.515,8.151-22.017,5.266l-5.335,2.743l-0.598-6.31c-0.084-0.073-0.174-0.134-0.257-0.209
					C104.326,116.604,103.659,103.975,111.036,95.774z"/>
			</g>
			<path style="fill:none;stroke:#407BFF;stroke-width:0.5;stroke-linecap:round;stroke-linejoin:round;stroke-miterlimit:10;" d="
				M113.019,90.458c-5.671,3.165-9.544,9.336-9.928,15.818"/>
			<path style="fill:none;stroke:#407BFF;stroke-width:0.5;stroke-linecap:round;stroke-linejoin:round;stroke-miterlimit:10;" d="
				M103.02,109.255c-0.132,0.982-0.058,1.99,0.215,2.943"/>
		</g>
		<g>
			<polygon style="fill:#FFFFFF;" points="125.141,117.155 116.71,109.461 119.395,106.519 125.049,111.678 134.442,102.505 
				137.225,105.354 			"/>
		</g>
	</g>
</g>
<g id="Character_1">
	<g>
		<g>
			<g>
				<g>
					<g>
						<g>
							<g>
								<g>
									<g>
										<path style="fill:#E9B376;" d="M178.441,198.06c0,0-1.257-2.482-0.516-4.66s0.754-4.114,1.417-5.695
											c0.663-1.581,1.381,0.619,1.526,1.866c0.145,1.247,0.322,2.66,1.241,2.399c0.919-0.26,6.665-6.137,7.98-6.353
											c1.316-0.216,0.684,1.025,0.684,1.025s1.434-1.39,2.139-0.972c0.183,0.108,0.433,0.658-0.121,1.394
											c-1.247,1.655-4.042,4.994-4.042,4.994c0.156-0.195,3.901-4.07,4.538-4.577c0.832-0.663,1.562-0.551,1.931-0.056
											c0.524,0.704-3.954,5.667-3.997,6.008c0,0,2.483-2.943,3.594-2.718c1.11,0.225-0.352,2.163-1.965,3.627
											c-1.479,1.342-4.03,4.362-5.666,5.58c-2.016,1.501-3.707,2.057-5.771,0.917
											C179.348,199.702,178.441,198.06,178.441,198.06z"/>
									</g>
								</g>
							</g>
						</g>
					</g>
				</g>
				
					<path style="opacity:0.3;fill:none;stroke:#000000;stroke-width:0.25;stroke-linecap:round;stroke-linejoin:round;stroke-miterlimit:10;" d="
					M190.549,186.789c-1.121,1.143-2.19,2.336-3.203,3.576"/>
				
					<path style="opacity:0.3;fill:none;stroke:#000000;stroke-width:0.25;stroke-linecap:round;stroke-linejoin:round;stroke-miterlimit:10;" d="
					M190.295,194.611c-1.044-1.785-2.624-3.251-4.482-4.16"/>
				
					<path style="opacity:0.3;fill:none;stroke:#000000;stroke-width:0.25;stroke-linecap:round;stroke-linejoin:round;stroke-miterlimit:10;" d="
					M182.276,192.989c0.507,0.673,0.771,1.525,0.732,2.367c-0.039,0.842-0.38,1.666-0.947,2.29"/>
			</g>
			<path style="fill:#EBB373;" d="M132.729,185.292c0,0,4.289-0.74,11.461,7.093c9.065,9.901,16.394,17.319,16.394,17.319
				l19.234-13.584l4.766,4.708c0,0-17.946,22.291-22.441,23.481c-4.495,1.19-6.451-0.327-9.36-2.707
				c-2.909-2.38-21.021-20.624-20.624-20.492C132.556,201.243,132.729,185.292,132.729,185.292z"/>
		</g>
		<path style="fill:#EBB373;" d="M138.649,431.011c-0.065-0.585-2.166-12.815-2.166-12.815l-11.717,2.667l3.307,12.515l8.019,1.354
			L138.649,431.011z"/>
		<path style="fill:#EBB373;" d="M43.789,197.003c0.59,0.361,21.418,18.42,21.659,18.3c0.241-0.12,21.791-17.096,23.116-17.698
			c1.324-0.602,8.224,11.437,7.603,11.437c-0.62,0-21.201,18.117-29.785,18.599c-8.584,0.482-26.801-27.508-26.801-27.508
			L43.789,197.003z"/>
		<polygon style="fill:#EBB373;" points="224.364,406.903 217.242,413.102 200.949,398.939 208.071,392.73 		"/>
		<g>
			<g>
				<path style="fill:#263238;" d="M210.805,410.671l2.642-2.663c0.598-0.603,1.456-0.858,2.295-0.731
					c3.621,0.545,3.973-1.396,3.659-5.023c0.93-1.185,2.432-0.262,2.846-0.023l9.218,5.194c0.776,0.427,1.06,1.403,0.632,2.179
					c-0.076,0.138-0.172,0.264-0.285,0.374c-3.209,3.234-4.727,4.765-8.721,8.79l-12.214,12.311
					c-3.329,3.356-7.402,0.696-6.343-0.997c4.794-7.579,7.331-13.796,7.429-17.512C212.001,411.901,211.402,412.031,210.805,410.671
					z"/>
				<path style="fill:#407BFF;" d="M208.23,415.689c1.17-0.182,2.319-0.485,3.426-0.905c0.102-0.052,0.143-0.178,0.09-0.28
					c-0.028-0.055-0.08-0.095-0.141-0.108c-0.556-0.187-5.491-1.751-6.549-0.773c-0.2,0.171-0.285,0.441-0.218,0.695
					c0.069,0.481,0.362,0.901,0.79,1.132C206.449,415.804,207.36,415.888,208.23,415.689z M210.892,414.6
					c-1.339,0.435-3.845,1.108-5.004,0.457c-0.302-0.18-0.512-0.481-0.578-0.826c-0.036-0.107-0.002-0.224,0.085-0.295
					C205.979,413.402,208.85,414.002,210.892,414.6z"/>
				<path style="fill:#407BFF;" d="M211.61,414.802c0.049,0.008,0.1,0.001,0.146-0.019c0.055-0.062,0.068-0.151,0.032-0.227
					c-0.025-0.194-1.718-4.629-4.23-4.004c-0.62,0.168-0.763,0.495-0.754,0.753c0.001,1.235,3.228,3.147,4.701,3.547L211.61,414.802
					z M207.861,410.883c1.615-0.211,2.9,2.338,3.355,3.365c-1.623-0.603-3.998-2.231-3.961-2.989
					c-0.008-0.061-0.03-0.231,0.437-0.341L207.861,410.883z"/>
				<path style="fill:none;stroke:#407BFF;stroke-width:0.5;stroke-linecap:round;stroke-linejoin:round;stroke-miterlimit:10;" d="
					M211.026,414.559c1.035-0.793,2.428-1.1,3.701-0.816"/>
				<path style="fill:none;stroke:#407BFF;stroke-width:0.5;stroke-linecap:round;stroke-linejoin:round;stroke-miterlimit:10;" d="
					M210.63,417.451c1.035-0.793,2.428-1.1,3.701-0.816"/>
				<path style="fill:none;stroke:#407BFF;stroke-width:0.5;stroke-linecap:round;stroke-linejoin:round;stroke-miterlimit:10;" d="
					M209.634,420.549c1.035-0.793,2.428-1.1,3.701-0.816"/>
			</g>
		</g>
		<g>
			<g>
				
					<ellipse transform="matrix(0.9919 -0.1268 0.1268 0.9919 -53.3191 14.2715)" style="fill:#407BFF;" cx="85.465" cy="426.041" rx="14.307" ry="16.62"/>
				
					<ellipse transform="matrix(0.9919 -0.1268 0.1268 0.9919 -53.3191 14.2715)" style="opacity:0.4;enable-background:new    ;" cx="85.465" cy="426.041" rx="14.307" ry="16.62"/>
			</g>
			<polygon style="fill:#407BFF;" points="39.355,178.331 48.862,147.497 67.719,174.707 99.456,423.072 71.093,426.696 			"/>
			<path style="fill:#B97964;" d="M53.851,154.674c-2.258,2.256-4.755,2.595-7.508,0.98l-6.987,22.677c0,0,3.263,6.076,7.061-0.466
				c0,0,4.337,5.427,8.088-1.033c0,0,4.069,4.243,7.055-0.902c0,0,3.508,3.342,6.159-1.223L53.851,154.674z"/>
			<path style="opacity:0.3;fill:#FFFFFF;" d="M54.606,176.851l33.346,248.036l6.603-0.844
				c1.011-0.442-32.893-248.094-32.893-248.094C58.674,181.094,54.606,176.851,54.606,176.851z"/>
			<path style="opacity:0.3;fill:#FFFFFF;" d="M46.45,177.948c-2.095,3.608-4.025,3.377-5.336,2.445l33.113,246.302l6.603-0.844
				c0.963-0.421-29.727-224.95-32.667-246.442C47.121,178.785,46.45,177.948,46.45,177.948z"/>
			
				<rect x="70.322" y="423.103" transform="matrix(-0.9919 0.1268 -0.1268 -0.9919 224.1825 836.8282)" style="fill:#263238;" width="30.286" height="4.887"/>
		</g>
		<g>
			<g>
				<path style="fill:#EBB373;" d="M43.068,200.1c0,0,5.546-2.865,5.991-4.527c0.446-1.662-1.95-1.12-1.95-1.12
					s2.599-0.758,2.426-1.905c-0.207-1.377-2.714-0.798-2.714-0.798s2.097-0.706,1.875-1.715c-0.23-1.048-3.106-0.596-3.106-0.596
					s1.382-0.776,0.831-1.391c-0.552-0.615-6.674,0.227-8.265,1.679c-1.591,1.453-0.269,9.288,0.422,10.915
					c0.199,0.467,0.676,1.203,2.983,1.53c0.484,0.069,0.948-0.245,1.056-0.721l0.287-1.264L43.068,200.1z"/>
			</g>
			<g>
				<path style="opacity:0.2;" d="M47.082,194.326c-0.004,0.001-0.007,0.002-0.011,0.003l-4.467,1.538
					c-0.06,0.021-0.091,0.093-0.069,0.161c0.022,0.068,0.091,0.108,0.148,0.087l4.467-1.538c0.06-0.021,0.091-0.093,0.069-0.161
					C47.198,194.351,47.138,194.313,47.082,194.326z"/>
			</g>
			<g>
				<path style="opacity:0.2;" d="M46.663,191.653c-0.001,0-0.002,0-0.003,0.001l-4.408,1.136c-0.061,0.016-0.097,0.085-0.08,0.154
					c0.018,0.07,0.07,0.104,0.143,0.098l4.408-1.136c0.061-0.016,0.097-0.085,0.08-0.155
					C46.786,191.682,46.723,191.639,46.663,191.653z"/>
			</g>
			<g>
				<path style="opacity:0.2;" d="M45.41,189.346l-3.3,0.75c-0.062,0.014-0.099,0.083-0.083,0.153
					c0.016,0.07,0.079,0.116,0.141,0.102l3.3-0.751c0.062-0.014,0.099-0.082,0.083-0.152
					C45.535,189.378,45.472,189.332,45.41,189.346z"/>
			</g>
		</g>
		<g>
			<g>
				<path style="fill:#263238;" d="M126.615,429.966h3.752c0.849,0,1.634,0.43,2.136,1.114c2.163,2.955,3.79,1.838,6.143-0.94
					c1.496-0.174,1.899,1.543,2.021,2.004l2.805,10.202c0.244,0.852-0.249,1.74-1.101,1.984c-0.152,0.043-0.309,0.064-0.466,0.062
					c-4.556,0-6.712,0-12.382,0h-17.342c-4.728,0-5.707-4.764-3.76-5.205c8.757-1.935,14.958-4.512,17.664-7.059
					C126.585,431.681,126.069,431.347,126.615,429.966z"/>
				<path style="fill:#407BFF;" d="M121.239,431.672c0.953,0.703,1.978,1.304,3.056,1.795c0.109,0.036,0.227-0.024,0.262-0.134
					c0.019-0.059,0.011-0.124-0.022-0.176c-0.259-0.526-2.624-5.132-4.063-5.194c-0.262-0.022-0.514,0.109-0.647,0.335
					c-0.293,0.388-0.385,0.892-0.247,1.358C119.903,430.488,120.485,431.195,121.239,431.672z M123.887,432.794
					c-1.251-0.644-3.495-1.949-3.849-3.23c-0.085-0.341-0.02-0.702,0.18-0.992c0.05-0.101,0.158-0.159,0.27-0.148
					C121.277,428.464,122.873,430.924,123.887,432.794z"/>
				<path style="fill:#407BFF;" d="M124.249,433.447c0.029,0.041,0.07,0.072,0.116,0.09c0.083-0.005,0.155-0.059,0.183-0.137
					c0.12-0.155,2.077-4.48-0.136-5.823c-0.556-0.322-0.889-0.193-1.066-0.004c-0.876,0.871,0.039,4.508,0.793,5.836
					L124.249,433.447z M124.391,428.025c1.288,0.998,0.383,3.705-0.026,4.752c-0.715-1.577-1.232-4.409-0.668-4.917
					c0.038-0.048,0.143-0.184,0.55,0.07L124.391,428.025z"/>
				<path style="fill:none;stroke:#407BFF;stroke-width:0.5;stroke-linecap:round;stroke-linejoin:round;stroke-miterlimit:10;" d="
					M124.01,432.861c1.292,0.176,2.491,0.948,3.186,2.052"/>
				<path style="fill:none;stroke:#407BFF;stroke-width:0.5;stroke-linecap:round;stroke-linejoin:round;stroke-miterlimit:10;" d="
					M121.679,434.616c1.292,0.176,2.491,0.949,3.186,2.052"/>
				<path style="fill:none;stroke:#407BFF;stroke-width:0.5;stroke-linecap:round;stroke-linejoin:round;stroke-miterlimit:10;" d="
					M118.778,436.092c1.292,0.176,2.491,0.949,3.186,2.052"/>
			</g>
		</g>
		<g>
			<g>
				<path style="fill:#263238;" d="M98.348,192.566c0,0-6.632,14.809-5.809,20.616c1.1,7.757,7.775,17.459,14.249,32.208
					l36.342-5.632c-4.413-14.701-7.758-22.915-10.373-55.509c-5.38-0.004-7.865,0.244-13.184,1.383
					c-5.669,1.142-11.249,2.685-16.699,4.616C95.863,192.836,98.348,192.566,98.348,192.566z"/>
				<path style="fill:#263238;" d="M130.589,184.756c0,0,2.343-1.4,6.037,0.437c3.694,1.838,14.5,12.517,14.5,12.517
					s-12.891,16.051-13.081,16.051c-0.19,0-7.077-9.352-7.077-9.352L130.589,184.756z"/>
			</g>
		</g>
		<path style="fill:#263238;" d="M93.136,210.11l-8.808-10.303c0,0,10.802-7.229,13.876-8.392c3.075-1.163,4.669-1.165,4.669-1.165
			L93.136,210.11z"/>
		<g>
			<path style="fill:#407BFF;" d="M106.788,245.39c-6.247,21.368-4.623,70.622,1.036,106.15
				c4.06,32.097,13.793,72.643,13.793,72.643l19.555-3.066c0,0-6.544-52.563-8.116-74.974c-2.13-30.882-2.257-104.473-2.257-104.473
				l-25.927-0.663L106.788,245.39z"/>
			<path style="opacity:0.4;enable-background:new    ;" d="M106.788,245.39c-6.247,21.368-4.623,70.622,1.036,106.15
				c4.06,32.097,13.793,72.643,13.793,72.643l19.555-3.066c0,0-6.544-52.563-8.116-74.974c-2.13-30.882-2.257-104.473-2.257-104.473
				l-25.927-0.663L106.788,245.39z"/>
			<path style="opacity:0.2;enable-background:new    ;" d="M131.208,269.023c-2.567-6.838-4.308-10.465-4.765-3.657
				c-0.954,14.406,1.187,30.872,4.921,39.039C131.394,292.16,131.015,279.594,131.208,269.023z"/>
			<path style="fill:#407BFF;" d="M105.059,241.007c0,0,12.928,13.975,22.457,34.16c9.924,21.022,16.605,48.612,23.923,65.598
				c11.586,26.895,53.963,64.474,53.963,64.474l10.013-8.309c0,0-30.274-42.834-38.289-61.075
				c-25.668-58.397-18.048-83.131-33.997-96.178l-1.505-5.036L105.059,241.007z"/>
			<path style="opacity:0.4;enable-background:new    ;" d="M105.059,241.007c0,0,12.928,13.975,22.457,34.16
				c9.924,21.022,16.605,48.612,23.923,65.598c11.586,26.895,53.963,64.474,53.963,64.474l10.013-8.309
				c0,0-30.274-42.834-38.289-61.075c-25.668-58.397-18.048-83.131-33.997-96.178l-1.505-5.036L105.059,241.007z"/>
		</g>
		<path style="fill:#263238;" d="M92.227,154.692c0.061-0.02,0.115-0.06,0.152-0.112c0.072-0.132,0.024-0.297-0.106-0.372
			c-2.798-2.023-3.641-5.819-1.962-8.836c2.806-5.454,9.872-3.522,9.945-3.508c0.139,0.064,0.303,0.003,0.366-0.135
			c0.064-0.139,0.003-0.303-0.135-0.366c-0.026-0.012-0.054-0.02-0.082-0.023c-0.064,0.018-7.577-2.074-10.589,3.784
			c-1.758,3.267-0.847,7.329,2.138,9.532C92.033,154.71,92.134,154.724,92.227,154.692z"/>
		<path style="fill:#263238;" d="M92.753,154.886c0.089-0.026,0.159-0.093,0.19-0.18c0.042-0.143-0.037-0.293-0.177-0.34
			c0,0-3.312-1.098-4.339-3.527c-0.489-1.27-0.381-2.693,0.294-3.875c0.077-0.132,0.032-0.301-0.1-0.377
			c-0.003-0.002-0.006-0.003-0.009-0.005c-0.136-0.072-0.305-0.024-0.382,0.109c-0.749,1.327-0.863,2.919-0.311,4.339
			c1.129,2.664,4.527,3.783,4.679,3.832C92.645,154.886,92.7,154.895,92.753,154.886z"/>
		<path style="fill:#263238;" d="M124.175,173.808c2.055-0.403,3.799-1.753,4.703-3.641c0.072-0.132,0.024-0.297-0.106-0.372
			c-0.126-0.075-0.288-0.034-0.364,0.092c-0.003,0.005-0.006,0.01-0.008,0.015c-1.873,4.74-11.271,3.853-11.365,3.845
			c-0.151-0.018-0.289,0.09-0.307,0.241c0,0.003-0.001,0.005-0.001,0.008c-0.018,0.145,0.085,0.278,0.23,0.296
			c0.005,0.001,0.01,0.001,0.016,0.001C119.384,174.534,121.818,174.37,124.175,173.808z"/>
		<g>
			<path style="fill:#263238;" d="M161.972,158.116c-1.853,0.949-3.959,1.395-6.037,1.279c2.793-2.471,3.874-6.701,2.608-10.209
				c-4.817,3.619-11.85,3.977-17.009,0.867c-3.814-2.299-6.618-6.258-10.827-7.711c-3.652-1.261-11.237-1.008-12.227,4.392
				l1.637,3.984c2.802-1.239,7.16,3.039,8.698,5.689c1.538,2.65,1.741,5.834,2.05,8.883c0.308,3.048,0.838,6.265,2.839,8.586
				c1.736,2.013,4.395,3.069,7.043,3.303c2.648,0.234,5.307-0.279,7.873-0.976c1.056-0.287,2.155-0.635,2.909-1.429
				c0.754-0.794,1.005-2.17,0.252-2.964c-1.845,0.289-3.784-0.066-5.406-0.991c3.884,0.316,7.975-0.342,11.156-2.593
				C160.708,165.974,162.768,161.93,161.972,158.116z"/>
		</g>
		<path style="fill:#263238;" d="M91.858,156.796c-2.115-5.109-0.103-10.992,4.697-13.737c3.174-2.042,7.419-2.313,11.481-1.855
			c8.859,0.998,15.73,8.298,16.309,17.195c0.476,7.315-1.582,15.238-11.876,17.307C92.15,179.79,91.858,156.796,91.858,156.796z"/>
		<path style="fill:#EBB373;" d="M121.016,185.424c0,0-3.17,3.067-7.204,7.432c-0.84,0.909-1.787,1.721-2.808,2.422
			c-2.754,1.891-5.325,3.086-6.209,1.756c-0.196-0.292-0.359-0.615-0.49-0.957c-0.884-2.297-1.011-5.652,0.728-7.393
			c1.961-1.963,2.834-3.55,2.18-5.83c-0.354-1.294-0.986-2.6-1.694-3.857l2.32-1.779l7.856-9.971
			C115.306,172.855,115.97,182.71,121.016,185.424z"/>
		<path style="opacity:0.2;" d="M107.343,183.356c2.276-1.728,4.669-4.547,4.02-7.382c-0.281-1.193-0.672-2.309-1.046-3.011
			l-4.211,7.131C106.634,181.105,106.863,181.788,107.343,183.356z"/>
		<path style="fill:#EBB373;" d="M116.264,156.95c0.204,9.216,0.483,13.103-3.678,18.422c-6.26,8.001-17.428,6.822-20.333-2.005
			c-2.615-7.945-2.509-21.682,6.008-26.535C106.652,142.049,116.06,147.734,116.264,156.95z"/>
		<path style="fill:#263238;" d="M104.312,161.341c0.065,0.97-0.367,1.822-0.966,1.903c-0.598,0.081-1.136-0.64-1.201-1.61
			c-0.065-0.97,0.367-1.822,0.965-1.903C103.709,159.65,104.247,160.371,104.312,161.341z"/>
		<path style="fill:#263238;" d="M95.041,162.349c0.061,0.94-0.373,1.768-0.969,1.849c-0.597,0.08-1.13-0.616-1.191-1.557
			c-0.061-0.94,0.373-1.768,0.97-1.848C94.447,160.711,94.98,161.408,95.041,162.349z"/>
		<path style="fill:#263238;" d="M106.308,157.687c-0.115,0.026-0.236,0.006-0.336-0.067c-1.553-1.141-3.083-0.504-3.101-0.496
			c-0.227,0.095-0.479-0.011-0.56-0.244c-0.08-0.233,0.04-0.501,0.269-0.6c0.08-0.034,2-0.835,3.928,0.581
			c0.192,0.141,0.228,0.426,0.08,0.635C106.517,157.598,106.416,157.663,106.308,157.687z"/>
		<path style="fill:#263238;" d="M92.243,158.031c-0.095-0.02-0.18-0.08-0.231-0.175c-0.106-0.197-0.035-0.471,0.16-0.612
			c1.951-1.41,3.598-0.695,3.668-0.663c0.196,0.088,0.27,0.342,0.164,0.568c-0.104,0.225-0.348,0.336-0.544,0.249
			c-0.064-0.029-1.351-0.562-2.902,0.559C92.458,158.03,92.344,158.053,92.243,158.031z"/>
		<path style="fill:#E4873E;" d="M98.187,161.54c0,0-1.038,3.577-2.405,5.889c-0.239,0.404-0.003,0.927,0.453,1.038
			c1.174,0.286,2.449-0.239,2.449-0.239L98.187,161.54z"/>
		<path style="fill:#263238;" d="M103.459,159.731l-2.15-0.256C101.309,159.475,102.632,160.906,103.459,159.731z"/>
		<path style="fill:#263238;" d="M94.169,160.79l-2.15-0.256C92.019,160.534,93.342,161.965,94.169,160.79z"/>
		<path style="fill:#263238;" d="M110.271,158.943c0,0-4.241-5.967-1.638-11.072c0,0-17.321-2.848-17.831,13.784
			c0,0-3.475-15.199,11.83-18.429c15.305-3.231,19.446,19.262,12.757,27.434C115.385,170.684,113.673,163.077,110.271,158.943z"/>
		<path style="fill:#EBB373;" d="M119.87,164.069c-0.864,1.993-2.481,3.368-4.04,3.953c-2.345,0.881-4.034-2.859-3.486-5.372
			c0.494-2.262,2.702-3.974,5.106-3.767C119.818,159.088,120.859,161.79,119.87,164.069z"/>
		
			<path style="opacity:0.2;fill:none;stroke:#000000;stroke-width:0.5;stroke-linecap:round;stroke-linejoin:round;stroke-miterlimit:10;" d="
			M114.713,164.165c-0.041-0.87,0.276-1.752,0.862-2.397c0.586-0.645,1.433-1.046,2.303-1.089"/>
		<path style="fill:#263238;" d="M98.389,171.23c0.684,0.888,1.305,1.824,1.857,2.8l0.574-0.164c2.517-0.96,3.359-2.235,3.556-3.314
			c0.078-0.549,0.021-1.108-0.167-1.63c-0.095-0.3-0.231-0.586-0.404-0.85c-1.288,1.284-2.84,2.272-4.548,2.896
			C98.722,171.111,98.389,171.23,98.389,171.23z"/>
		<path style="fill:#FFFFFF;" d="M99.232,170.885l0.576,0.812c2.361-0.904,3.913-1.865,4.375-2.858
			c-0.096-0.3-0.231-0.586-0.404-0.85C102.492,169.272,100.94,170.261,99.232,170.885z"/>
		<path style="fill:#C15854;" d="M100.807,173.824c2.517-0.96,3.359-2.235,3.556-3.314c-0.951,0.381-1.825,0.931-2.581,1.622
			C101.29,172.582,100.95,173.173,100.807,173.824z"/>
	</g>
	<path style="opacity:0.2;enable-background:new    ;" d="M92.615,210.11l2.222-8.023c0,0-5.311,5.57-3.797,10.915l1.428-1.129
		L92.615,210.11z"/>
	<path style="opacity:0.2;enable-background:new    ;" d="M135.796,210.899c0,0-4.392-5.869-4.392-5.9l5.641,12.652L135.796,210.899
		z"/>
</g>
<g id="Device">
	<g>
		<path style="fill:#407BFF;" d="M312.584,438.355h-128.35c-10.114,0-18.313-8.199-18.313-18.313V125.349
			c0-15.58,12.63-28.211,28.211-28.211h111.736c15.581,0,28.211,12.631,28.211,28.211V416.86
			C334.079,428.731,324.455,438.355,312.584,438.355z"/>
		<path style="fill:#FFFFFF;" d="M306.611,430.33H193.389c-11.419,0-20.677-9.257-20.677-20.677V125.84
			c0-11.419,9.257-20.677,20.677-20.677h113.223c11.419,0,20.677,9.257,20.677,20.677v283.814
			C327.288,421.073,318.031,430.33,306.611,430.33z"/>
		<rect x="215.776" y="120.326" style="fill:none;stroke:#407BFF;stroke-miterlimit:10;" width="63.596" height="3.976"/>
		<g>
			<path style="fill:#407BFF;" d="M303.375,117.972c0,0.849-0.681,1.538-1.522,1.538c-0.841,0-1.522-0.688-1.522-1.538
				c0-0.849,0.681-1.537,1.522-1.537C302.693,116.435,303.375,117.123,303.375,117.972z"/>
			<path style="fill:#407BFF;" d="M303.375,121.884c0,0.849-0.681,1.537-1.522,1.537c-0.841,0-1.522-0.688-1.522-1.537
				c0-0.849,0.681-1.538,1.522-1.538C302.693,120.346,303.375,121.035,303.375,121.884z"/>
			<path style="fill:#407BFF;" d="M303.375,125.796c0,0.849-0.681,1.538-1.522,1.538c-0.841,0-1.522-0.688-1.522-1.538
				s0.681-1.537,1.522-1.537C302.693,124.258,303.375,124.947,303.375,125.796z"/>
		</g>
		<polyline style="fill:none;stroke:#407BFF;stroke-linecap:round;stroke-linejoin:round;stroke-miterlimit:10;" points="
			198.155,119.049 195.24,121.849 198.155,124.719 		"/>
		<rect x="185.637" y="148.939" style="fill:none;stroke:#407BFF;stroke-miterlimit:10;" width="129.2" height="22.833"/>
		<path style="fill:none;stroke:#407BFF;stroke-miterlimit:10;" d="M172.664,137.42c51.773,0,103.546,0,155.319,0"/>
		<rect x="185.637" y="182.732" style="fill:none;stroke:#407BFF;stroke-miterlimit:10;" width="129.2" height="65.313"/>
		<path style="fill:none;stroke:#407BFF;stroke-miterlimit:10;" d="M185.637,248.046l40.682-32.807
			c1.452-1.171,3.474-1.3,5.06-0.323l21.178,13.042l27.67-21.378c1.616-1.248,3.829-1.352,5.552-0.259l29.058,18.426"/>
		<ellipse style="fill:none;stroke:#407BFF;stroke-miterlimit:10;" cx="251.749" cy="201.933" rx="8.092" ry="8.175"/>
		<rect x="185.637" y="257.891" style="fill:none;stroke:#407BFF;stroke-miterlimit:10;" width="28.723" height="6.641"/>
		<rect x="185.637" y="272.28" style="fill:none;stroke:#407BFF;stroke-miterlimit:10;" width="129.2" height="4.427"/>
		<rect x="185.637" y="282.241" style="fill:none;stroke:#407BFF;stroke-miterlimit:10;" width="129.2" height="4.427"/>
		<rect x="185.637" y="292.202" style="fill:none;stroke:#407BFF;stroke-miterlimit:10;" width="57.594" height="4.427"/>
		<rect x="185.637" y="373.276" style="fill:none;stroke:#407BFF;stroke-miterlimit:10;" width="129.2" height="4.427"/>
		<rect x="185.637" y="383.237" style="fill:none;stroke:#407BFF;stroke-miterlimit:10;" width="129.2" height="4.427"/>
		<rect x="185.637" y="393.199" style="fill:none;stroke:#407BFF;stroke-miterlimit:10;" width="57.594" height="4.427"/>
		<g>
			<rect x="185.609" y="306.71" style="fill:none;stroke:#407BFF;stroke-miterlimit:10;" width="54.569" height="55.129"/>
			<line style="fill:none;stroke:#407BFF;stroke-miterlimit:10;" x1="185.609" y1="361.839" x2="240.179" y2="306.71"/>
			<line style="fill:none;stroke:#407BFF;stroke-miterlimit:10;" x1="240" y1="361.839" x2="185.43" y2="306.71"/>
		</g>
		<g>
			<rect x="257.669" y="307.211" style="fill:none;stroke:#407BFF;stroke-miterlimit:10;" width="54.569" height="55.129"/>
			<line style="fill:none;stroke:#407BFF;stroke-miterlimit:10;" x1="257.669" y1="362.34" x2="312.238" y2="307.211"/>
			<line style="fill:none;stroke:#407BFF;stroke-miterlimit:10;" x1="312.059" y1="362.34" x2="257.49" y2="307.211"/>
		</g>
	</g>
</g>
<g id="Character_2">
	<g>
		<g>
			<g>
				<g>
					<path style="fill:#263238;enable-background:new    ;" d="M347.55,401.3c0,0,89.761-18.257,93.453,0.436
						c5.271,26.683-59.573,42.617-93.799,40.515C312.978,440.149,347.55,401.3,347.55,401.3z"/>
					<path style="opacity:0.2;enable-background:new    ;" d="M347.55,401.3c0,0,89.761-18.257,93.453,0.436
						c5.271,26.683-59.573,42.617-93.799,40.515C312.978,440.149,347.55,401.3,347.55,401.3z"/>
					<path style="opacity:0.2;enable-background:new    ;" d="M411.584,406.602l-42.649,25.371l5.353,8.105
						c0,0-3.071,4.274-8.279-9.288l26.406-16.358c0,0-8.083-1.053-7.842-2.314c0.406-2.072,18.332-5.506,26.507-7.05
						c0.424-0.139,0.88,0.092,1.019,0.516C412.238,406.007,412.007,406.463,411.584,406.602z"/>
					<path style="opacity:0.2;enable-background:new    ;" d="M367.505,428.931l6.915,11.982c-9.002,1.3-18.118,1.748-27.216,1.338
						c-2.992-0.107-5.94-0.731-8.702-1.843l-2.413-4.74l5.819-10.888L367.505,428.931z"/>
					<g>
						<g>
							<g>
								<g>
									<g>
										<polygon style="fill:#895555;" points="381.504,424.66 362.535,435.92 365.605,445.056 387.757,435.875 										"/>
									</g>
								</g>
							</g>
						</g>
						<g>
							<g>
								<g>
									<g>
										<g>
											<g>
												<g>
													<g>
														<g>
															<g>
																<g>
																	<g>
																		<path style="fill:#263238;" d="M352.196,438.644l1.636,6.553c0,0,1.364,0.33,1.751,1.71
																			c0.217,0.775-0.41,2.877-0.41,2.877l4.366,18.055c0.026-0.006,1.238-0.296,1.725-0.626
																			c0.594-0.403,1.078-0.818,1.469-1.243c1.367-1.489,1.578-3.698,1.676-5.337
																			c0.164-2.746,1.979-10.728,1.979-10.728s0.664-2.074,2.927-3.851c1.262-0.991,1.87-2.272,1.778-3.078
																			c-0.184-1.645-1.342-2.295-2.88-2.155l-1.786,0.164c-1.244-0.985-1.587-2.597-0.736-4.117
																			c0,0,1.167-3.871-0.488-3.263c-0.944,0.347-5.11,2.06-8.44,3.315c-0.776,0.293-1.511,0.569-2.155,0.811l0,0.002
																			C353.179,438.273,352.196,438.644,352.196,438.644z"/>
																	</g>
																</g>
															</g>
														</g>
													</g>
												</g>
												<g>
													<g>
														<g>
															<g>
																<path style="fill:#407BFF;" d="M365.575,454.168c0.053-0.099,0.03-0.226-0.051-0.305
																	c-0.374-0.365-0.841-0.632-1.374-0.76c-0.281-0.068-0.423,0.383-0.14,0.451c0.474,0.114,0.886,0.347,1.213,0.665
																	c0.109,0.106,0.278,0.086,0.35-0.047C365.573,454.171,365.574,454.17,365.575,454.168z"/>
															</g>
														</g>
													</g>
												</g>
												<g>
													<g>
														<g>
															<g>
																<path style="fill:#407BFF;" d="M365.988,452.594c0.053-0.099,0.03-0.226-0.052-0.305
																	c-0.374-0.364-0.841-0.632-1.374-0.76c-0.281-0.067-0.423,0.383-0.14,0.451c0.474,0.114,0.886,0.347,1.213,0.665
																	c0.109,0.106,0.278,0.086,0.349-0.047C365.986,452.596,365.987,452.595,365.988,452.594z"/>
															</g>
														</g>
													</g>
												</g>
												<g>
													<g>
														<g>
															<g>
																<path style="fill:#407BFF;" d="M366.339,450.988c0.053-0.099,0.03-0.226-0.052-0.305
																	c-0.374-0.365-0.841-0.632-1.374-0.76c-0.281-0.067-0.424,0.383-0.14,0.451c0.474,0.114,0.885,0.347,1.213,0.665
																	c0.11,0.106,0.278,0.086,0.35-0.047C366.337,450.991,366.338,450.99,366.339,450.988z"/>
															</g>
														</g>
													</g>
												</g>
											</g>
										</g>
									</g>
								</g>
							</g>
						</g>
						<g>
							<path style="opacity:0.2;fill:#FFFFFF;enable-background:new    ;" d="M354.609,437.733l0,0.002
								c-1.431,0.538-2.413,0.91-2.413,0.91l1.636,6.553c0,0,1.364,0.33,1.751,1.71c0.217,0.775-0.41,2.877-0.41,2.877l4.366,18.055
								c0.026-0.007,1.238-0.296,1.725-0.626c0.273-0.185,0.516-0.373,0.745-0.563l-7.04-29.054
								C354.85,437.642,354.722,437.69,354.609,437.733z"/>
						</g>
						<path style="fill:none;stroke:#407BFF;stroke-width:0.25;stroke-miterlimit:10;" d="M366.09,450.871
							c0.613-0.206,1.23-0.413,1.87-0.509c0.64-0.096,1.31-0.075,1.911,0.164c0.28,0.111,0.567,0.305,0.62,0.601
							c0.055,0.311-0.175,0.605-0.438,0.781c-0.505,0.339-1.159,0.406-1.753,0.275C367.705,452.052,366.573,451.24,366.09,450.871"
							/>
						<path style="fill:none;stroke:#407BFF;stroke-width:0.25;stroke-miterlimit:10;" d="M366.071,450.795
							c0.518-0.387,1.04-0.776,1.483-1.247c0.443-0.471,0.807-1.034,0.953-1.664c0.068-0.293,0.072-0.639-0.141-0.851
							c-0.224-0.223-0.597-0.2-0.892-0.085c-0.566,0.222-0.994,0.722-1.224,1.285C366.02,448.795,366.044,450.188,366.071,450.795"
							/>
					</g>
				</g>
			</g>
			<path style="fill:#895555;" d="M386.053,345.666c0,0,2.401,29.079,3.225,30.66c2.787,5.345,22.012,14.936,22.012,14.936
				l9.999-1.789l6.946,6.157l-4.804,3.539l-5.448-2.244c-3.022,0.448-6.078,0.625-9.132,0.53
				c-5.133-0.151-30.714-6.549-34.642-13.573c-3.928-7.023-3.873-39.645-3.873-39.645L386.053,345.666z"/>
			<g>
				<path style="fill:#407BFF;" d="M369.55,356.582c0,0-6.887-25.679,2.837-32.464c9.724-6.786,16.259,28.433,16.259,28.433
					L369.55,356.582z"/>
				<path style="opacity:0.5;fill:#FFFFFF;" d="M369.55,356.582c0,0-6.887-25.679,2.837-32.464
					c9.724-6.786,16.259,28.433,16.259,28.433L369.55,356.582z"/>
				<path style="fill:#407BFF;" d="M374.205,403.317l0.921-33.739l0.637-46.215l-19.806-4.912l-13.871-0.131l-23.46,7.305
					l-0.795,11.321c0,0,0.723,52.114,0.55,53.679c-0.212,1.919-6.167,13.827-6.167,13.827
					C336.985,410.87,374.546,405.048,374.205,403.317z"/>
				<polygon style="opacity:0.2;" points="375.264,355.376 375.598,335.25 379.138,354.558 				"/>
				<path style="opacity:0.2;" d="M332.97,357.301c0.618-0.102,3.137-0.846,3.137-0.846l-5.723-19.609l8.859,21.545l-5.77,2.102
					L332.97,357.301z"/>
			</g>
			<g>
				<path style="fill:#895555;" d="M330.77,341.28c0,0,3.887,32.32,6.592,35.41c4.57,5.222,27.553,19.398,27.553,19.398l11.79-3.748
					c0.826-0.245,1.726-0.071,2.379,0.459l7.799,6.325l-0.781,0.62c-0.337,0.268-0.815,0.31-1.198,0.106l-1.222-0.654l1.347,1.4
					l-0.45,0.357c-0.448,0.355-1.058,0.47-1.614,0.303l-3.54-1.062l3.228,2.288c-0.753,0.598-1.783,0.783-2.714,0.488l-5.176-1.642
					c-3.584,0.71-7.225,1.122-10.883,1.233c-6.157,0.197-34.881-10.799-40.072-18.383c-5.191-7.584-9.86-38.578-9.86-38.578
					L330.77,341.28z"/>
				<g>
					<path style="fill:#407BFF;" d="M314.695,362.231c0,0-6.373-29.376,3.351-36.161c9.724-6.786,18.061,30.386,18.061,30.386
						L314.695,362.231z"/>
					<path style="opacity:0.5;fill:#FFFFFF;" d="M314.695,362.231c0,0-6.373-29.376,3.351-36.161
						c9.724-6.786,18.061,30.386,18.061,30.386L314.695,362.231z"/>
				</g>
			</g>
			<g>
				<g>
					<path style="fill:#263238;" d="M391.487,401.595l-17.949-0.529l-19.046-0.561c0,0.004,0,0.008,0,0.012
						c-0.032,1.413,1.511,2.599,3.448,2.649l19.029,0.561l10.886,0.321c0.017,0.001,0.033,0.001,0.05,0.002c0.001,0,0.002,0,0.003,0
						l30.294,0.893c1.921,0.043,3.5-1.054,3.532-2.456L391.487,401.595z"/>
				</g>
				<path style="fill:#263238;" d="M418.761,404.815l-33.797-0.996c-0.583-0.021-1.041-0.417-1.022-0.886
					c0.003-0.088,0.024-0.175,0.061-0.257l16.051-34.025c0.409-0.973,1.56-1.613,2.845-1.579l33.818,0.997
					c0.572,0.017,1.025,0.403,1.011,0.862c-0.003,0.096-0.027,0.191-0.07,0.28l-16.051,34.025
					C421.191,404.205,420.043,404.843,418.761,404.815z"/>
				<path style="opacity:0.7;fill:#FFFFFF;enable-background:new    ;" d="M436.716,368.068l-33.817-0.997
					c-1.284-0.033-2.436,0.606-2.845,1.579l-15.445,32.742l-11.07-0.326l-19.046-0.561c0,0.004,0,0.008,0,0.012
					c-0.032,1.413,1.511,2.599,3.448,2.649l19.029,0.561l10.886,0.321c0.017,0.001,0.033,0.001,0.05,0.002c0.001,0,0.002,0,0.003,0
					l30.294,0.893c0.609,0.014,1.176-0.098,1.678-0.287c0.794-0.242,1.438-0.748,1.726-1.421l16.051-34.025
					c0.043-0.089,0.067-0.184,0.07-0.28C437.74,368.471,437.288,368.085,436.716,368.068z"/>
				<path style="fill:#FFFFFF;" d="M415.865,385.819c-0.779,1.633-2.293,2.725-3.39,2.461c-1.097-0.264-1.347-1.78-0.589-3.418
					c0.758-1.638,2.288-2.704,3.385-2.44C416.368,382.687,416.655,384.143,415.865,385.819z"/>
				<g style="opacity:0.3;">
					
						<line style="fill:none;stroke:#000000;stroke-width:0;stroke-linecap:round;stroke-linejoin:round;" x1="383.988" y1="401.374" x2="384.608" y2="401.393"/>
					<path d="M400.054,368.65l-15.445,32.742l1.567,0.046l16.724-34.368C401.614,367.038,400.462,367.677,400.054,368.65z"/>
				</g>
			</g>
			<g>
				<g>
					<g>
						<g>
							<g>
								<g>
									<polygon style="fill:#895555;" points="399.694,440.101 421.361,444.247 425.118,435.371 402.448,427.558 									"/>
								</g>
							</g>
						</g>
					</g>
					<g>
						<g>
							<g>
								<g>
									<g>
										<g>
											<g>
												<g>
													<g>
														<g>
															<g>
																<g>
																	<path style="fill:#263238;" d="M430.907,449.061l3.12-5.991c0,0-0.802-1.151-0.177-2.441
																		c0.351-0.725,2.215-1.882,2.215-1.882l8.702-16.412c-0.024-0.013-1.123-0.6-1.706-0.675
																		c-0.711-0.092-1.349-0.102-1.924-0.043c-2.011,0.208-3.633,1.723-4.793,2.884
																		c-1.943,1.947-8.594,6.719-8.594,6.719s-1.872,1.112-4.744,0.942c-1.602-0.094-2.906,0.461-3.372,1.125
																		c-0.953,1.354-0.517,2.608,0.727,3.523l1.446,1.061c0.278,1.562-0.534,2.997-2.178,3.571
																		c0,0-3.44,2.124-1.798,2.766c0.938,0.366,5.191,1.845,8.516,3.114c0.775,0.295,1.508,0.576,2.152,0.822
																		l0.001-0.001C429.925,448.688,430.907,449.061,430.907,449.061z"/>
																</g>
															</g>
														</g>
													</g>
												</g>
											</g>
											<g>
												<g>
													<g>
														<g>
															<path style="fill:#407BFF;" d="M431.182,428.569c-0.105,0.039-0.172,0.149-0.164,0.263
																c0.038,0.521,0.21,1.031,0.525,1.48c0.166,0.237,0.571-0.006,0.404-0.245c-0.279-0.399-0.433-0.847-0.467-1.302
																c-0.012-0.152-0.151-0.249-0.293-0.197C431.185,428.568,431.184,428.569,431.182,428.569z"/>
														</g>
													</g>
												</g>
											</g>
											<g>
												<g>
													<g>
														<g>
															<path style="fill:#407BFF;" d="M429.829,429.475c-0.106,0.039-0.172,0.149-0.164,0.262
																c0.038,0.521,0.21,1.031,0.525,1.48c0.166,0.237,0.571-0.006,0.404-0.245c-0.279-0.399-0.433-0.847-0.467-1.303
																c-0.011-0.152-0.151-0.249-0.293-0.197C429.832,429.474,429.831,429.474,429.829,429.475z"/>
														</g>
													</g>
												</g>
											</g>
											<g>
												<g>
													<g>
														<g>
															<path style="fill:#407BFF;" d="M428.502,430.444c-0.106,0.039-0.172,0.149-0.164,0.262
																c0.038,0.521,0.21,1.031,0.525,1.48c0.166,0.237,0.571-0.006,0.404-0.245c-0.279-0.399-0.433-0.847-0.467-1.302
																c-0.012-0.152-0.151-0.249-0.293-0.197C428.505,430.443,428.503,430.443,428.502,430.444z"/>
														</g>
													</g>
												</g>
											</g>
										</g>
									</g>
								</g>
							</g>
						</g>
					</g>
					<path style="opacity:0.2;fill:#FFFFFF;enable-background:new    ;" d="M433.849,440.629c0.351-0.725,2.215-1.882,2.215-1.882
						l8.702-16.412c-0.024-0.013-1.123-0.6-1.706-0.675c-0.327-0.042-0.634-0.063-0.931-0.072l-13.991,26.418
						c0.118,0.045,0.246,0.094,0.358,0.137l0.001-0.001c1.428,0.546,2.41,0.919,2.41,0.919l3.12-5.991
						C434.027,443.07,433.224,441.919,433.849,440.629z"/>
					<path style="fill:none;stroke:#407BFF;stroke-width:0.25;stroke-miterlimit:10;" d="M428.611,430.696
						c-0.596-0.252-1.195-0.506-1.737-0.858c-0.542-0.352-1.03-0.812-1.322-1.389c-0.135-0.269-0.223-0.604-0.066-0.86
						c0.165-0.27,0.532-0.337,0.846-0.295c0.602,0.081,1.137,0.465,1.494,0.957C428.185,428.741,428.493,430.1,428.611,430.696"/>
					<path style="fill:none;stroke:#407BFF;stroke-width:0.25;stroke-miterlimit:10;" d="M428.574,430.766
						c-0.645-0.054-1.293-0.108-1.937-0.049c-0.644,0.059-1.29,0.239-1.817,0.614c-0.245,0.175-0.478,0.431-0.459,0.731
						c0.02,0.315,0.314,0.546,0.611,0.655c0.571,0.209,1.223,0.118,1.768-0.151C427.287,432.297,428.192,431.239,428.574,430.766"/>
				</g>
				<path style="fill:#263238;" d="M318.184,427.763c-4.475-7.615-14.489-28.191,7.162-31.504c21.651-3.313,92.592,33,92.592,33
					l-4.964,13.597l-66.656-12.531c0,0,8.803,12.503-2.294,11.618C327.904,439.867,324.137,435.885,318.184,427.763z"/>
				<path style="opacity:0.2;enable-background:new    ;" d="M347.896,430.741l-18.202-6.322c0,0,15.135,9.884,20.755,11.172
					L347.896,430.741z"/>
			</g>
		</g>
		<g>
			<path style="fill:#895555;" d="M338.176,321.619c4.898-4.69,3.918-17.417,2.612-23.99l15.415,11.88
				c-0.311,0.77-0.569,1.56-0.771,2.365c-0.416,1.441-0.454,2.965-0.11,4.425c0.334,1.202,1.888,4.515,1.888,4.515
				s0.955,3.75-9.043,4.146C343.799,325.605,338.176,321.619,338.176,321.619z"/>
			<path style="opacity:0.2;enable-background:new    ;" d="M343.807,304.219c-0.433,7.784,7.533,11.083,11.522,12.092
				c-0.344-1.46-0.306-2.984,0.11-4.425L343.807,304.219z"/>
			<g>
				<g>
					<path style="fill:#895555;" d="M337.938,291.997c2.34,9.032,3.471,14.173,9.129,17.93c8.511,5.65,19.087-0.564,19.575-10.137
						c0.439-8.617-3.461-21.94-13.375-23.761C343.499,274.235,335.599,282.965,337.938,291.997z"/>
					<path style="fill:#263238;" d="M333.993,279.704c0.343-5.641,14.218-8.303,18.627-6.28c0.659,0.302-6.792,5.858-6.328,5.587
						l-3.622,2.027c-0.621-0.017-1.662,0.88-1.922,2.794c0,0,3.326,14.89-0.207,20.044c-3.831-1.005-5.18-6.901-6.967-10.227
						C330.909,288.693,327.437,281.354,333.993,279.704z"/>
					<path style="fill:#895555;" d="M335.69,300.314c1.206,2.213,3.356,3.66,5.396,4.211c3.069,0.828,3.542-2.35,2.721-5.18
						c-0.739-2.547-2.126-5.559-5.222-5.14C335.534,294.618,334.311,297.784,335.69,300.314z"/>
					<path style="fill:#263238;" d="M350.719,291.722c0.18,0.935,0.836,1.593,1.466,1.469c0.629-0.124,0.993-0.983,0.813-1.919
						c-0.18-0.935-0.836-1.593-1.466-1.469C350.903,289.927,350.539,290.786,350.719,291.722z"/>
					<path style="fill:#263238;" d="M360.227,290.624c0.18,0.936,0.836,1.593,1.465,1.469c0.629-0.124,0.993-0.983,0.813-1.919
						c-0.18-0.935-0.836-1.593-1.465-1.469C360.411,288.829,360.047,289.688,360.227,290.624z"/>
					<path style="fill:#6D3939;" d="M358.223,290.58c0,0,3.944,4.076,5.286,5.785c-1.114,1.427-3.527,1.318-3.527,1.318
						L358.223,290.58z"/>
					<path style="fill:#263238;" d="M348.713,288.143c0.156,0.03,0.326-0.02,0.44-0.146c1.359-1.504,3.035-1.306,3.052-1.304
						c0.251,0.032,0.485-0.139,0.522-0.382c0.037-0.243-0.137-0.467-0.386-0.5c-0.088-0.012-2.188-0.261-3.874,1.606
						c-0.168,0.186-0.151,0.467,0.038,0.627C348.566,288.096,348.638,288.129,348.713,288.143z"/>
				</g>
				
					<path style="opacity:0.2;fill:none;stroke:#000000;stroke-width:0.5;stroke-linecap:round;stroke-linejoin:round;stroke-miterlimit:10;" d="
					M337.352,297.384c0.274-0.617,1.009-0.962,1.697-0.929c0.688,0.034,1.323,0.389,1.827,0.843
					c0.604,0.546,1.058,1.249,1.301,2.017"/>
			</g>
			<path style="fill:#263238;" d="M364.803,285.793c0.08-0.033,0.152-0.089,0.204-0.166c0.141-0.206,0.086-0.484-0.123-0.62
				c-2.098-1.362-4.036-0.546-4.128-0.52c-0.232,0.099-0.341,0.363-0.243,0.589c0.098,0.226,0.364,0.329,0.595,0.233
				c0.079-0.037,1.581-0.648,3.264,0.446C364.505,285.841,364.666,285.85,364.803,285.793z"/>
			<g>
				<path style="fill:#263238;" d="M359.813,300.831c-0.729,1.061-1.379,2.172-1.947,3.327c-0.216-0.065-0.438-0.126-0.65-0.202
					c-2.936-0.929-3.996-2.325-4.265-3.599c-0.121-0.626-0.093-1.271,0.081-1.884c0.09-0.348,0.228-0.681,0.41-0.991
					c1.263,1.423,3.925,2.499,5.377,3.013C359.454,300.687,359.813,300.831,359.813,300.831z"/>
				<path style="fill:#FFFFFF;" d="M358.852,300.476l-0.602,0.966c-2.756-0.879-4.579-1.86-5.184-2.988
					c0.09-0.348,0.228-0.681,0.41-0.991C354.747,298.9,357.401,299.962,358.852,300.476z"/>
				<path style="fill:#C15854;" d="M357.25,303.937c-2.936-0.929-3.996-2.325-4.265-3.599c1.109,0.373,2.143,0.939,3.055,1.673
					C356.634,302.511,357.057,303.184,357.25,303.937z"/>
			</g>
			<path style="fill:#263238;" d="M338.465,278.143c0,0,4.255-13.934,17.015-13.606c-1.151,0.478-2.199,1.172-3.089,2.044
				c0,0,10.547-2.912,15.275,4.003l-2.278-0.816c0,0,3.873,5.724,1.432,10.428l-0.973-1.956c0,0-3.386,6.245-10.228,5.911
				l2.052-1.576c0,0-11.344,1.733-14.613-0.615C341.389,280.865,339.848,279.584,338.465,278.143z"/>
		</g>
	</g>
</g>
</svg>
