<?xml version="1.0" encoding="utf-8"?>
<!-- Generator: Adobe Illustrator 27.5.0, SVG Export Plug-In . SVG Version: 6.00 Build 0)  -->
<svg version="1.1" xmlns="http://www.w3.org/2000/svg" xmlns:xlink="http://www.w3.org/1999/xlink" x="0px" y="0px"
	 viewBox="0 0 500 500" style="enable-background:new 0 0 500 500;" xml:space="preserve">
<g id="Shadows">
	
		<ellipse style="fill:#263238;stroke:#263238;stroke-width:2.5;stroke-linecap:round;stroke-linejoin:round;stroke-miterlimit:10;" cx="303.957" cy="450.33" rx="134.33" ry="10.029"/>
	
		<ellipse style="fill:#263238;stroke:#263238;stroke-width:2.5;stroke-linecap:round;stroke-linejoin:round;stroke-miterlimit:10;" cx="208.238" cy="433.617" rx="134.33" ry="10.029"/>
</g>
<g id="Like">
	<g>
		<path style="fill:#FFFFFF;stroke:#FFFFFF;stroke-width:2.5;stroke-miterlimit:10;" d="M456.17,294.673h-20.652
			c-5.021,0-9.092-4.07-9.092-9.092V264.93c0-5.021,4.07-9.092,9.092-9.092h20.652c5.021,0,9.092,4.07,9.092,9.092v20.652
			C465.262,290.602,461.191,294.673,456.17,294.673z"/>
		<path style="fill:#FF7D7D;" d="M456.17,294.673h-20.652c-5.021,0-9.092-4.07-9.092-9.092V264.93c0-5.021,4.07-9.092,9.092-9.092
			h20.652c5.021,0,9.092,4.07,9.092,9.092v20.652C465.262,290.602,461.191,294.673,456.17,294.673z"/>
		<path style="fill:#FFFFFF;" d="M456.17,255.838h-20.652c-3.612,0-6.722,2.111-8.189,5.163c1.427-0.932,3.129-1.478,4.961-1.478
			h22.869c3.797,0,6.874,3.078,6.874,6.874v22.869c0,1.409-0.33,2.738-0.902,3.929c2.485-1.623,4.131-4.424,4.131-7.613V264.93
			C465.262,259.908,461.191,255.838,456.17,255.838z"/>
		<path style="fill:none;stroke:#263238;stroke-width:2.5;stroke-linecap:round;stroke-linejoin:round;stroke-miterlimit:10;" d="
			M456.17,294.673h-20.652c-5.021,0-9.092-4.07-9.092-9.092V264.93c0-5.021,4.07-9.092,9.092-9.092h20.652
			c5.021,0,9.092,4.07,9.092,9.092v20.652C465.262,290.602,461.191,294.673,456.17,294.673z"/>
	</g>
	<g>
		
			<rect x="432.964" y="270.833" style="fill:#263238;stroke:#263238;stroke-width:2.5;stroke-linecap:round;stroke-linejoin:round;stroke-miterlimit:10;" width="6.761" height="13.521"/>
		
			<path style="fill:#FFFFFF;stroke:#263238;stroke-width:2.5;stroke-linecap:round;stroke-linejoin:round;stroke-miterlimit:10;" d="
			M457.373,273.796c0.786-0.266,1.352-1.009,1.352-1.884c0-0.906-0.606-1.67-1.435-1.911c-0.134-0.096-7.307-0.1-7.307-0.1
			l0.333-1.54c0.387-1.789,0.118-3.657-0.756-5.264l0,0c-0.49-0.901-1.45-1.445-2.474-1.403h0c-1.442,0.059-2.581,1.246-2.581,2.689
			v1.905l-3.672,5.77h-1.107l0.058,10.782l1.457,0.058l1.923,0.874l10.956-0.056c0.083,0,0.544-0.002,0.71-0.002
			c1.1,0,1.991-0.891,1.991-1.991c0-0.414-0.126-0.798-0.342-1.116c0.487-0.363,0.804-0.942,0.804-1.596
			c0-0.622-0.285-1.177-0.732-1.542c0.996-0.11,1.771-0.953,1.771-1.978C458.321,274.772,457.941,274.146,457.373,273.796z"/>
	</g>
</g>
<g id="Device">
	<g>
		<g>
			<g>
				<path style="fill:none;stroke:#263238;stroke-width:2.5;stroke-linecap:round;stroke-linejoin:round;stroke-miterlimit:10;" d="
					M438.131,209.755c-0.585,6.863-3.096,8.805-3.096,8.805"/>
				<path style="fill:none;stroke:#263238;stroke-width:2.5;stroke-linecap:round;stroke-linejoin:round;stroke-miterlimit:10;" d="
					M430.969,213.91c-2.074,6.568-8.941,14.298-8.941,14.298"/>
			</g>
		</g>
	</g>
	<g>
		<path style="fill:#FECEA0;" d="M283.673,433.616H123.215c-11.024,0-19.96-8.936-19.96-19.96V96.557
			c0-11.024,8.936-19.96,19.96-19.96h160.459c11.024,0,19.96,8.936,19.96,19.96v317.099
			C303.633,424.68,294.697,433.616,283.673,433.616z"/>
		
			<path style="fill:#FECEA0;stroke:#263238;stroke-width:2.5;stroke-linecap:round;stroke-linejoin:round;stroke-miterlimit:10;" d="
			M283.673,433.616H123.215c-11.024,0-19.96-8.936-19.96-19.96V96.557c0-11.024,8.936-19.96,19.96-19.96h160.459
			c11.024,0,19.96,8.936,19.96,19.96v317.099C303.633,424.68,294.697,433.616,283.673,433.616z"/>
		
			<path style="fill:#FFFFFF;stroke:#263238;stroke-width:2.5;stroke-linecap:round;stroke-linejoin:round;stroke-miterlimit:10;" d="
			M285.754,87.595h-48.694l-1.278,4.783c-1.142,4.273-5.012,7.246-9.436,7.246h-45.804c-4.423,0-8.294-2.973-9.436-7.246
			l-1.278-4.783h-48.694c-5.431,0-9.834,4.403-9.834,9.834V413.57c0,5.431,4.403,9.834,9.834,9.834h164.619
			c5.431,0,9.834-4.403,9.834-9.834V97.429C295.588,91.998,291.185,87.595,285.754,87.595z"/>
		
			<path style="fill:#FFFFFF;stroke:#263238;stroke-width:2.5;stroke-linecap:round;stroke-linejoin:round;stroke-miterlimit:10;" d="
			M111.3,390.35v23.22c0,5.431,4.403,9.834,9.834,9.834h164.619c5.431,0,9.834-4.403,9.834-9.834v-23.22H111.3z"/>
		
			<path style="fill:#FFFFFF;stroke:#263238;stroke-width:2.5;stroke-linecap:round;stroke-linejoin:round;stroke-miterlimit:10;" d="
			M295.588,145.319v-47.89c0-5.431-4.403-9.834-9.834-9.834h-48.694l-1.278,4.783c-1.141,4.273-5.013,7.246-9.435,7.246h-45.804
			c-4.423,0-8.294-2.973-9.435-7.246l-1.278-4.783h-48.694c-5.431,0-9.834,4.403-9.834,9.834v47.89H295.588z"/>
		<path style="fill:none;stroke:#263238;stroke-width:2.5;stroke-linecap:round;stroke-linejoin:round;stroke-miterlimit:10;" d="
			M256.547,116.457c4.588,0,9.177,0,13.765,0"/>
		<path style="fill:none;stroke:#263238;stroke-width:2.5;stroke-linecap:round;stroke-linejoin:round;stroke-miterlimit:10;" d="
			M213.657,116.457c9.268,0,18.536,0,27.803,0"/>
	</g>
</g>
<g id="Social_media_icons">
	<g>
		<path style="fill:#FFFFFF;stroke:#FFFFFF;stroke-width:2.5;stroke-miterlimit:10;" d="M402.486,367.946h-34.618
			c-8.417,0-15.24-6.823-15.24-15.24v-34.618c0-8.417,6.823-15.24,15.24-15.24h34.618c8.417,0,15.24,6.823,15.24,15.24v34.618
			C417.726,361.122,410.903,367.946,402.486,367.946z"/>
		<path style="fill:#FECEA0;" d="M402.486,367.946h-34.618c-8.417,0-15.24-6.823-15.24-15.24v-34.618
			c0-8.417,6.823-15.24,15.24-15.24h34.618c8.417,0,15.24,6.823,15.24,15.24v34.618
			C417.726,361.122,410.903,367.946,402.486,367.946z"/>
		<path style="fill:#FFFFFF;" d="M402.486,302.847h-34.618c-5.189,0-9.765,2.598-12.517,6.559c0.459-0.061,0.924-0.103,1.399-0.103
			h43.928c5.846,0,10.585,4.739,10.585,10.585v43.928c0,0.48-0.043,0.95-0.105,1.413c3.966-2.752,6.568-7.331,6.568-12.524v-34.618
			C417.726,309.671,410.903,302.847,402.486,302.847z"/>
		<path style="fill:none;stroke:#263238;stroke-width:2.5;stroke-linecap:round;stroke-linejoin:round;stroke-miterlimit:10;" d="
			M402.486,367.946h-34.618c-8.417,0-15.24-6.823-15.24-15.24v-34.618c0-8.417,6.823-15.24,15.24-15.24h34.618
			c8.417,0,15.24,6.823,15.24,15.24v34.618C417.726,361.122,410.903,367.946,402.486,367.946z"/>
		<path style="fill:none;stroke:#263238;stroke-width:2.5;stroke-linecap:round;stroke-linejoin:round;stroke-miterlimit:10;" d="
			M395.206,354.255h-20.057c-4.877,0-8.83-3.953-8.83-8.83v-20.057c0-4.877,3.953-8.83,8.83-8.83h20.057
			c4.877,0,8.83,3.953,8.83,8.83v20.057C404.035,350.302,400.082,354.255,395.206,354.255z"/>
		<path style="fill:none;stroke:#263238;stroke-width:2.5;stroke-linecap:round;stroke-linejoin:round;stroke-miterlimit:10;" d="
			M385.177,342.992L385.177,342.992c-4.195,0-7.596-3.401-7.596-7.596l0,0c0-4.195,3.401-7.596,7.596-7.596l0,0
			c4.195,0,7.596,3.401,7.596,7.596l0,0C392.773,339.591,389.372,342.992,385.177,342.992z"/>
		<circle style="fill:#263238;" cx="396.277" cy="324.447" r="2.553"/>
	</g>
	<g>
		<path style="fill:#FFFFFF;stroke:#FFFFFF;stroke-width:2.5;stroke-miterlimit:10;" d="M116.071,277.517H87.392
			c-6.638,0-12.019-5.381-12.019-12.019V239.54c0-6.638,5.381-12.019,12.019-12.019h28.679c6.638,0,12.019,5.381,12.019,12.019
			v25.959C128.09,272.136,122.709,277.517,116.071,277.517z"/>
		<g>
			<path style="fill:#FECEA0;" d="M116.071,277.517H87.392c-6.638,0-12.019-5.381-12.019-12.019V239.54
				c0-6.638,5.381-12.019,12.019-12.019h28.679c6.638,0,12.019,5.381,12.019,12.019v25.959
				C128.09,272.136,122.709,277.517,116.071,277.517z"/>
			<path style="fill:#FECEA0;" d="M116.071,277.517H87.392c-6.638,0-12.019-5.381-12.019-12.019V239.54
				c0-6.638,5.381-12.019,12.019-12.019h28.679c6.638,0,12.019,5.381,12.019,12.019v25.959
				C128.09,272.136,122.709,277.517,116.071,277.517z"/>
			<path style="fill:#FFFFFF;" d="M116.071,227.521H87.392c-5.272,0-9.74,3.399-11.36,8.122c1.89-1.238,4.145-1.963,6.573-1.963
				h32.389c4.589,0,8.309,3.72,8.309,8.309v29.669c0,1.366-0.239,2.673-0.659,3.897c3.277-2.147,5.446-5.845,5.446-10.056V239.54
				C128.09,232.902,122.709,227.521,116.071,227.521z"/>
			<path style="fill:none;stroke:#263238;stroke-width:2.5;stroke-linecap:round;stroke-linejoin:round;stroke-miterlimit:10;" d="
				M116.071,277.517H87.392c-6.638,0-12.019-5.381-12.019-12.019V239.54c0-6.638,5.381-12.019,12.019-12.019h28.679
				c6.638,0,12.019,5.381,12.019,12.019v25.959C128.09,272.136,122.709,277.517,116.071,277.517z"/>
			<g>
				<path style="fill:#263238;" d="M94.736,250.505c0.055-6.644,4.019-11.206,11.065-11.206c4.954,0,8.037,2.037,8.037,2.037
					l-3.413,5.537c0,0-1.321-0.62-2.918-0.62c-2.478,0-3.028,1.329-3.028,4.473v4.607h6.496v5.98h-6.496v16.743h-9.744v-16.743
					h-4.074v-5.98h4.074V250.505z"/>
			</g>
		</g>
	</g>
</g>
<g id="Envelope">
	<g>
		<g>
			<path style="fill:#FFFFFF;" d="M125.514,395.889H66.68c-4.129,0-7.476-3.347-7.476-7.476V355.89c0-4.129,3.347-7.476,7.476-7.476
				h58.834c4.129,0,7.476,3.347,7.476,7.476v32.522C132.99,392.541,129.643,395.889,125.514,395.889z"/>
			<path style="fill:none;stroke:#263238;stroke-width:2.5;stroke-linecap:round;stroke-linejoin:round;stroke-miterlimit:10;" d="
				M125.514,395.889H66.68c-4.129,0-7.476-3.347-7.476-7.476V355.89c0-4.129,3.347-7.476,7.476-7.476h58.834
				c4.129,0,7.476,3.347,7.476,7.476v32.522C132.99,392.541,129.643,395.889,125.514,395.889z"/>
			<path style="fill:#FF7D7D;" d="M132.99,355.89c0-4.129-3.347-7.476-7.476-7.476H66.68c-4.129,0-7.476,3.347-7.476,7.476
				l30.071,17.005c5.174,2.926,11.53,2.808,16.592-0.308L132.99,355.89z"/>
			<path style="fill:#FFFFFF;" d="M61.923,353.201h58.834c2.612,0,4.909,1.342,6.246,3.373l5.987-0.684
				c0-4.129-3.347-7.476-7.476-7.476H66.68c-4.129,0-7.476,0.345-7.476,4.474l0.944,0.534
				C60.718,353.283,61.31,353.201,61.923,353.201z"/>
			<path style="fill:none;stroke:#263238;stroke-width:2.5;stroke-linecap:round;stroke-linejoin:round;stroke-miterlimit:10;" d="
				M132.99,355.89c0-4.129-3.347-7.476-7.476-7.476H66.68c-4.129,0-7.476,3.347-7.476,7.476l30.071,17.005
				c5.174,2.926,11.53,2.808,16.592-0.308L132.99,355.89z"/>
			
				<line style="fill:none;stroke:#263238;stroke-width:2.5;stroke-linecap:round;stroke-linejoin:round;stroke-miterlimit:10;" x1="87.959" y1="372.151" x2="61.011" y2="393.278"/>
			
				<line style="fill:none;stroke:#263238;stroke-width:2.5;stroke-linecap:round;stroke-linejoin:round;stroke-miterlimit:10;" x1="105.867" y1="372.587" x2="130.832" y2="393.278"/>
		</g>
		
			<line style="fill:none;stroke:#263238;stroke-width:2.5;stroke-linecap:round;stroke-linejoin:round;stroke-miterlimit:10;" x1="33.599" y1="366.305" x2="55.265" y2="366.305"/>
		
			<line style="fill:none;stroke:#263238;stroke-width:2.5;stroke-linecap:round;stroke-linejoin:round;stroke-miterlimit:10;" x1="43.929" y1="375.01" x2="54.265" y2="375.01"/>
	</g>
</g>
<g id="Speecj_bubbles">
	<g>
		<g>
			<path style="fill:#FF7D7D;" d="M108.109,84.467H54.505c-3.762,0-6.812,3.05-6.812,6.812v29.632c0,3.762,3.05,6.812,6.812,6.812
				h5.422l21.381,11.888l-7.518-11.888h34.32c3.762,0,6.812-3.05,6.812-6.812V91.279C114.921,87.517,111.871,84.467,108.109,84.467z
				"/>
			<g>
				<path style="fill:#FFFFFF;" d="M108.109,84.467H54.505c-3.284,0-6.025,2.325-6.668,5.418c0.623-0.188,1.284-0.292,1.968-0.292
					h53.605c3.762,0,6.812,3.05,6.812,6.812v29.632c0,0.478-0.05,0.943-0.144,1.393c2.802-0.845,4.843-3.443,4.843-6.52V91.279
					C114.921,87.517,111.871,84.467,108.109,84.467z"/>
			</g>
			<path style="fill:none;stroke:#263238;stroke-width:2.5;stroke-linecap:round;stroke-linejoin:round;stroke-miterlimit:10;" d="
				M108.109,84.467H54.505c-3.762,0-6.812,3.05-6.812,6.812v29.632c0,3.762,3.05,6.812,6.812,6.812h5.422l21.381,11.888
				l-7.518-11.888h34.32c3.762,0,6.812-3.05,6.812-6.812V91.279C114.921,87.517,111.871,84.467,108.109,84.467z"/>
			
				<path style="fill:#FFFFFF;stroke:#263238;stroke-width:2.5;stroke-linecap:round;stroke-linejoin:round;stroke-miterlimit:10;" d="
				M98.4,55.71h53.605c3.762,0,6.812,3.05,6.812,6.812v29.632c0,3.762-3.05,6.812-6.812,6.812h-5.422l-21.381,11.888l7.518-11.888
				H98.4c-3.762,0-6.812-3.05-6.812-6.812V62.522C91.588,58.76,94.638,55.71,98.4,55.71z"/>
		</g>
		<g>
			<g>
				<circle style="fill:#263238;" cx="141.204" cy="77.944" r="3.966"/>
			</g>
			<g>
				<circle style="fill:#263238;" cx="125.443" cy="77.944" r="3.966"/>
			</g>
			<g>
				<path style="fill:#263238;" d="M113.648,77.944c0,2.19-1.776,3.966-3.966,3.966c-2.19,0-3.966-1.776-3.966-3.966
					c0-2.19,1.776-3.966,3.966-3.966C111.872,73.978,113.648,75.753,113.648,77.944z"/>
			</g>
		</g>
		<g>
			<g>
				<path style="fill:#263238;" d="M101.034,106.562c0,2.19-1.776,3.966-3.966,3.966c-2.19,0-3.966-1.776-3.966-3.966
					c0-2.19,1.776-3.966,3.966-3.966C99.258,102.596,101.034,104.372,101.034,106.562z"/>
			</g>
			<g>
				<path style="fill:#263238;" d="M85.273,106.562c0,2.19-1.776,3.966-3.966,3.966c-2.19,0-3.966-1.776-3.966-3.966
					c0-2.19,1.776-3.966,3.966-3.966C83.497,102.596,85.273,104.372,85.273,106.562z"/>
			</g>
			<g>
				<path style="fill:#263238;" d="M69.512,106.562c0,2.19-1.776,3.966-3.966,3.966c-2.19,0-3.966-1.776-3.966-3.966
					c0-2.19,1.776-3.966,3.966-3.966C67.736,102.596,69.512,104.372,69.512,106.562z"/>
			</g>
		</g>
	</g>
</g>
<g id="Character">
	<g>
		
			<rect x="365.463" y="194.627" transform="matrix(0.9782 0.2076 -0.2076 0.9782 50.3619 -72.4031)" style="fill:#FFFFFF;stroke:#263238;stroke-width:2.5;stroke-linecap:round;stroke-linejoin:round;stroke-miterlimit:10;" width="9.256" height="18.167"/>
		<g>
			<g>
				<g>
					<g>
						<g>
							<g>
								<g>
									<g>
										<g>
											<g>
												<path style="fill:#FFFFFF;" d="M392.715,155.344c-2.91-0.768-8.745-2.179-13.797-2.591
													c-7.048-0.576-18.528-4.209-19.526-11.101c-0.32-2.209-1.928-3.603-3.854-4.977c-1.527-1.09-3.253-2.168-4.696-3.631
													c-2.413-2.447-3.686-7.503-3.686-7.503l-14.482,13.758c-6.762,6.424-16.076,9.492-25.311,8.189
													c-12.147-1.715-30.423-2.021-46.267,7.043c-26.519,15.17-17.032,27.58-39.393,31.217s-18.917,6.274-30.33,11.372
													c-11.413,5.099-7.521,3.723-7.521,3.723s11.954-0.665,16.145,19.258c0.312,1.482,0.542,2.954,0.721,4.417
													c2.231,18.205-4.473,34.784,12.493,45.757c18.329,11.855,23.182,6.292,36.525,17.526
													c13.343,11.235,29.802,29.583,35.432,31.888l0.001,0c2.765,1.13,15.427-9.845,16.874-21.412
													c1.5-11.985-0.01-24.809,14.787-37.363c29.08-24.671,35.814-46.598,39.274-61.307
													c0.584-2.482,20.222-20.411,23.849-25.092C383.581,169.832,393.865,155.647,392.715,155.344z"/>
												<g>
													<path style="fill:#FFFFFF;" d="M354.871,137.588c1.343,1.362,2.927,2.389,4.373,3.405
														c-0.517-1.835-1.98-3.087-3.705-4.318c-0.811-0.579-1.677-1.159-2.528-1.791
														C353.527,135.882,354.146,136.853,354.871,137.588z"/>
												</g>
												
													<path style="fill:none;stroke:#263238;stroke-width:2.5;stroke-linecap:round;stroke-linejoin:round;stroke-miterlimit:10;" d="
													M398.082,159.343c-2.91-0.768-14.112-6.178-19.164-6.59c-7.048-0.576-18.528-4.209-19.526-11.101
													c-0.32-2.209-1.928-3.603-3.854-4.977c-1.527-1.09-3.253-2.168-4.696-3.631c-2.413-2.447-3.686-7.503-3.686-7.503
													l-14.482,13.758c-6.762,6.424-16.076,9.492-25.311,8.189c-12.147-1.715-30.423-2.021-46.267,7.043
													c-26.519,15.17-17.032,27.58-39.393,31.217s-18.917,6.274-30.33,11.372c-11.413,5.099-7.521,3.723-7.521,3.723
													s11.954-0.665,16.145,19.258c0.312,1.482,0.542,2.954,0.721,4.417c2.231,18.205-4.473,34.784,12.493,45.757
													c18.329,11.855,23.182,6.292,36.525,17.526c13.343,11.235,29.802,29.583,35.432,31.888l0.001,0
													c2.499,1.022,15.98-11.594,16.874-21.412c1.12-12.303-1.385-23.642,14.787-37.363
													c29.08-24.671,35.814-46.598,39.274-61.307c0.584-2.482,20.222-20.411,23.849-25.092
													C383.581,169.832,399.232,159.646,398.082,159.343z"/>
												<path style="fill:#D2BAFF;" d="M316.921,141.905c0.039-0.103,0.072-0.214,0.112-0.315
													c0.068-0.192,0.15-0.374,0.23-0.556c0.085-0.198,0.174-0.392,0.264-0.586c0.107-0.23,0.212-0.461,0.325-0.686
													c0.052-0.107,0.112-0.206,0.165-0.311c0.065-0.123,0.128-0.247,0.196-0.368c0.233-0.424,0.477-0.836,0.741-1.232
													c0.059-0.09,0.12-0.178,0.18-0.266c0.164-0.245,0.327-0.486,0.499-0.722c0.099-0.125,0.198-0.247,0.297-0.371
													c0.057-0.072,0.115-0.144,0.173-0.215c0.059-0.073,0.117-0.148,0.176-0.22c0.007-0.021,0.024-0.044,0.043-0.056
													c0.018-0.013,0.036-0.035,0.043-0.056c0.228-0.253,0.455-0.507,0.684-0.75c0.359-0.374,0.732-0.719,1.116-1.047
													c0.077-0.066,0.154-0.132,0.232-0.196c0.078-0.063,0.151-0.134,0.231-0.195c0.254-0.207,0.5-0.402,0.768-0.58
													c0.027-0.024,0.047-0.027,0.084-0.052c0.005-0.003,0.009-0.006,0.014-0.009c0.065-0.045,0.133-0.083,0.199-0.127
													c0.189-0.128,0.377-0.258,0.576-0.367c0.037-0.025,0.074-0.05,0.111-0.076c0.137-0.081,0.279-0.151,0.418-0.227
													c0.04-0.022,0.08-0.044,0.12-0.065c0.409-0.217,0.823-0.419,1.248-0.59c0.316-0.124,0.643-0.24,0.963-0.334
													c0.143-0.047,0.294-0.079,0.442-0.12c0.085-0.023,0.168-0.047,0.253-0.069c0.097-0.024,0.19-0.056,0.288-0.078
													c0.323-0.075,0.639-0.128,0.974-0.184c0.011,0.008,0.011,0.008,0.02-0.003l0.011,0.008
													c0.028-0.006,0.056-0.005,0.084-0.01c0.025-0.003,0.05-0.006,0.075-0.009c0.104-0.013,0.209-0.029,0.308-0.036
													c0.398-0.044,0.798-0.069,1.202-0.064c1.38-0.018,2.704,0.213,3.945,0.648c0.072,0.01,0.146,0.03,0.209,0.052
													c0.804,0.286,1.578,0.657,2.322,1.094c0.056,0.033,0.109,0.07,0.165,0.103c0.301,0.183,0.598,0.374,0.887,0.58
													c0.097,0.069,0.191,0.142,0.286,0.214c0.241,0.18,0.479,0.366,0.712,0.562c0.12,0.101,0.238,0.207,0.356,0.312
													c0.195,0.175,0.387,0.354,0.576,0.539c0.142,0.139,0.281,0.282,0.418,0.428c0.148,0.156,0.292,0.316,0.435,0.48
													c0.166,0.189,0.33,0.381,0.489,0.579c0.092,0.115,0.181,0.232,0.27,0.349c0.199,0.26,0.395,0.524,0.583,0.798
													c0.006,0.009,0.012,0.016,0.018,0.025c0.016,0.023,0.03,0.05,0.047,0.073c0.233,0.344,0.459,0.696,0.673,1.06
													c0.013,0.022,0.028,0.042,0.041,0.064c0.025,0.037,0.04,0.075,0.077,0.121c0.013,0.018,0.014,0.028,0.026,0.047
													c0.055,0.097,0.1,0.204,0.154,0.302c0.193,0.353,0.377,0.714,0.552,1.083c0.076,0.161,0.154,0.32,0.227,0.484
													c0.991,2.229,1.645,4.727,1.889,7.39c0.007,0.074,0.016,0.146,0.022,0.22c0.055,0.661,0.092,1.328,0.094,2.006
													c0.009,3.29-0.64,6.376-1.761,9.097c-0.974,2.369-2.304,4.464-3.92,6.136l0,0v0c-1.775,1.841-3.87,3.202-6.173,3.896
													c-0.285,0.086-0.579,0.161-0.872,0.227c-0.477,0.116-0.971,0.202-1.464,0.247c-0.393,0.04-0.794,0.07-1.206,0.079
													c-7.06,0.016-13.004-6.03-14.852-14.283c-0.065-0.314-0.149-0.618-0.203-0.941c-0.085-0.465-0.138-0.945-0.198-1.421
													l0,0l0,0c-0.123-0.974-0.212-1.96-0.216-2.978c-0.002-0.161,0.005-0.334,0.003-0.495
													c0.004-0.263,0.008-0.526,0.022-0.79c0.079-1.692,0.335-3.317,0.737-4.864c0.016-0.062,0.035-0.123,0.051-0.185
													c0.079-0.294,0.153-0.589,0.243-0.877c0.041-0.131,0.093-0.253,0.136-0.382
													C316.691,142.524,316.804,142.214,316.921,141.905z"/>
												<path style="fill:#FFFFFF;" d="M322.586,155.438c-0.064-0.314-0.149-0.618-0.203-0.941
													c-0.085-0.465-0.138-0.945-0.198-1.421l0,0c-0.123-0.974-0.212-1.961-0.216-2.978c-0.002-0.161,0.005-0.334,0.003-0.495
													c0.004-0.263,0.008-0.526,0.022-0.79c0.079-1.692,0.335-3.317,0.737-4.864c0.016-0.062,0.035-0.123,0.051-0.185
													c0.079-0.293,0.153-0.589,0.243-0.877c0.041-0.131,0.093-0.253,0.136-0.383c0.104-0.318,0.217-0.628,0.334-0.938
													c0.039-0.103,0.072-0.214,0.112-0.314c0.068-0.192,0.15-0.374,0.23-0.557c0.085-0.198,0.174-0.392,0.264-0.586
													c0.107-0.23,0.212-0.461,0.325-0.686c0.052-0.107,0.112-0.206,0.165-0.311c0.065-0.123,0.128-0.247,0.196-0.368
													c0.233-0.424,0.477-0.836,0.741-1.232c0.059-0.09,0.12-0.178,0.18-0.267c0.164-0.245,0.327-0.486,0.499-0.722
													c0.099-0.125,0.198-0.247,0.297-0.371c0.057-0.072,0.115-0.144,0.173-0.215c0.059-0.073,0.117-0.148,0.176-0.22
													c0.007-0.021,0.024-0.044,0.043-0.056c0.019-0.013,0.036-0.035,0.043-0.056c0.228-0.253,0.455-0.507,0.684-0.75
													c0.359-0.374,0.732-0.719,1.116-1.047c0.077-0.066,0.154-0.132,0.232-0.196c0.078-0.064,0.152-0.134,0.231-0.195
													c0.254-0.207,0.5-0.402,0.768-0.58c0.027-0.024,0.047-0.027,0.084-0.052c0.005-0.003,0.009-0.006,0.014-0.009
													c0.065-0.045,0.133-0.083,0.199-0.127c0.189-0.128,0.377-0.258,0.576-0.367c0.037-0.025,0.074-0.051,0.111-0.076
													c0.138-0.081,0.279-0.151,0.419-0.227c0.04-0.022,0.08-0.044,0.12-0.065c0.409-0.217,0.823-0.419,1.248-0.59
													c0.246-0.097,0.5-0.18,0.751-0.26c-0.872-0.201-1.774-0.311-2.706-0.299c-0.405-0.005-0.805,0.02-1.203,0.064
													c-0.099,0.007-0.204,0.022-0.308,0.036c-0.025,0.003-0.05,0.005-0.075,0.009c-0.028,0.005-0.055,0.004-0.084,0.01
													l-0.011-0.008c-0.008,0.011-0.008,0.011-0.02,0.003c-0.335,0.056-0.651,0.11-0.974,0.184
													c-0.097,0.022-0.191,0.054-0.288,0.078c-0.085,0.021-0.169,0.046-0.253,0.069c-0.147,0.04-0.299,0.073-0.442,0.12
													c-0.32,0.094-0.648,0.21-0.964,0.334c-0.425,0.171-0.839,0.373-1.248,0.59c-0.04,0.021-0.08,0.043-0.12,0.065
													c-0.139,0.076-0.281,0.145-0.418,0.227c-0.037,0.025-0.074,0.051-0.111,0.076c-0.199,0.109-0.387,0.239-0.576,0.367
													c-0.066,0.044-0.134,0.082-0.199,0.127c-0.005,0.003-0.009,0.006-0.014,0.009c-0.037,0.025-0.057,0.028-0.084,0.052
													c-0.268,0.178-0.514,0.373-0.768,0.58c-0.079,0.061-0.153,0.132-0.231,0.195c-0.078,0.065-0.155,0.13-0.232,0.196
													c-0.383,0.329-0.756,0.673-1.116,1.047c-0.229,0.243-0.456,0.497-0.684,0.75c-0.007,0.021-0.024,0.044-0.043,0.056
													c-0.018,0.013-0.035,0.035-0.043,0.056c-0.059,0.071-0.117,0.147-0.176,0.22c-0.058,0.071-0.116,0.143-0.173,0.215
													c-0.099,0.124-0.199,0.246-0.297,0.371c-0.172,0.236-0.336,0.477-0.499,0.722c-0.06,0.089-0.121,0.176-0.18,0.266
													c-0.264,0.395-0.508,0.808-0.741,1.232c-0.067,0.121-0.131,0.245-0.196,0.368c-0.054,0.105-0.114,0.204-0.165,0.311
													c-0.113,0.225-0.218,0.456-0.325,0.687c-0.09,0.194-0.18,0.387-0.264,0.586c-0.079,0.183-0.161,0.365-0.23,0.556
													c-0.041,0.101-0.073,0.212-0.112,0.315c-0.117,0.309-0.23,0.62-0.334,0.938c-0.043,0.13-0.095,0.252-0.136,0.382
													c-0.09,0.287-0.164,0.583-0.243,0.877c-0.017,0.062-0.035,0.123-0.051,0.185c-0.402,1.547-0.658,3.172-0.737,4.864
													c-0.014,0.264-0.018,0.527-0.022,0.79c0.002,0.161-0.005,0.334-0.003,0.495c0.004,1.017,0.093,2.004,0.216,2.978l0,0
													c0.06,0.476,0.112,0.956,0.198,1.421c0.054,0.323,0.139,0.628,0.203,0.941c1.848,8.253,7.792,14.299,14.852,14.283
													c0.411-0.009,0.813-0.039,1.205-0.079c0.493-0.045,0.988-0.131,1.464-0.247c0.294-0.065,0.588-0.141,0.873-0.227
													c0.097-0.029,0.192-0.067,0.288-0.098C328.874,168.085,324.189,162.595,322.586,155.438z"/>
												
													<path style="fill:none;stroke:#263238;stroke-width:2.5;stroke-linecap:round;stroke-linejoin:round;stroke-miterlimit:10;" d="
													M316.921,141.905c0.039-0.103,0.072-0.214,0.112-0.315c0.068-0.192,0.15-0.374,0.23-0.556
													c0.085-0.198,0.174-0.392,0.264-0.586c0.107-0.23,0.212-0.461,0.325-0.686c0.052-0.107,0.112-0.206,0.165-0.311
													c0.065-0.123,0.128-0.247,0.196-0.368c0.233-0.424,0.477-0.836,0.741-1.232c0.059-0.09,0.12-0.178,0.18-0.266
													c0.164-0.245,0.327-0.486,0.499-0.722c0.099-0.125,0.198-0.247,0.297-0.371c0.057-0.072,0.115-0.144,0.173-0.215
													c0.059-0.073,0.117-0.148,0.176-0.22c0.007-0.021,0.024-0.044,0.043-0.056c0.018-0.013,0.036-0.035,0.043-0.056
													c0.228-0.253,0.455-0.507,0.684-0.75c0.359-0.374,0.732-0.719,1.116-1.047c0.077-0.066,0.154-0.132,0.232-0.196
													c0.078-0.063,0.151-0.134,0.231-0.195c0.254-0.207,0.5-0.402,0.768-0.58c0.027-0.024,0.047-0.027,0.084-0.052
													c0.005-0.003,0.009-0.006,0.014-0.009c0.065-0.045,0.133-0.083,0.199-0.127c0.189-0.128,0.377-0.258,0.576-0.367
													c0.037-0.025,0.074-0.05,0.111-0.076c0.137-0.081,0.279-0.151,0.418-0.227c0.04-0.022,0.08-0.044,0.12-0.065
													c0.409-0.217,0.823-0.419,1.248-0.59c0.316-0.124,0.643-0.24,0.963-0.334c0.143-0.047,0.294-0.079,0.442-0.12
													c0.085-0.023,0.168-0.047,0.253-0.069c0.097-0.024,0.19-0.056,0.288-0.078c0.323-0.075,0.639-0.128,0.974-0.184
													c0.011,0.008,0.011,0.008,0.02-0.003l0.011,0.008c0.028-0.006,0.056-0.005,0.084-0.01
													c0.025-0.003,0.05-0.006,0.075-0.009c0.104-0.013,0.209-0.029,0.308-0.036c0.398-0.044,0.798-0.069,1.202-0.064
													c1.38-0.018,2.704,0.213,3.945,0.648c0.072,0.01,0.146,0.03,0.209,0.052c0.804,0.286,1.578,0.657,2.322,1.094
													c0.056,0.033,0.109,0.07,0.165,0.103c0.301,0.183,0.598,0.374,0.887,0.58c0.097,0.069,0.191,0.142,0.286,0.214
													c0.241,0.18,0.479,0.366,0.712,0.562c0.12,0.101,0.238,0.207,0.356,0.312c0.195,0.175,0.387,0.354,0.576,0.539
													c0.142,0.139,0.281,0.282,0.418,0.428c0.148,0.156,0.292,0.316,0.435,0.48c0.166,0.189,0.33,0.381,0.489,0.579
													c0.092,0.115,0.181,0.232,0.27,0.349c0.199,0.26,0.395,0.524,0.583,0.798c0.006,0.009,0.012,0.016,0.018,0.025
													c0.016,0.023,0.03,0.05,0.047,0.073c0.233,0.344,0.459,0.696,0.673,1.06c0.013,0.022,0.028,0.042,0.041,0.064
													c0.025,0.037,0.04,0.075,0.077,0.121c0.013,0.018,0.014,0.028,0.026,0.047c0.055,0.097,0.1,0.204,0.154,0.302
													c0.193,0.353,0.377,0.714,0.552,1.083c0.076,0.161,0.154,0.32,0.227,0.484c0.991,2.229,1.645,4.727,1.889,7.39
													c0.007,0.074,0.016,0.146,0.022,0.22c0.055,0.661,0.092,1.328,0.094,2.006c0.009,3.29-0.64,6.376-1.761,9.097
													c-0.974,2.369-2.304,4.464-3.92,6.136l0,0v0c-1.775,1.841-3.87,3.202-6.173,3.896c-0.285,0.086-0.579,0.161-0.872,0.227
													c-0.477,0.116-0.971,0.202-1.464,0.247c-0.393,0.04-0.794,0.07-1.206,0.079c-7.06,0.016-13.004-6.03-14.852-14.283
													c-0.065-0.314-0.149-0.618-0.203-0.941c-0.085-0.465-0.138-0.945-0.198-1.421l0,0l0,0
													c-0.123-0.974-0.212-1.96-0.216-2.978c-0.002-0.161,0.005-0.334,0.003-0.495c0.004-0.263,0.008-0.526,0.022-0.79
													c0.079-1.692,0.335-3.317,0.737-4.864c0.016-0.062,0.035-0.123,0.051-0.185c0.079-0.294,0.153-0.589,0.243-0.877
													c0.041-0.131,0.093-0.253,0.136-0.382C316.691,142.524,316.804,142.214,316.921,141.905z"/>
											</g>
											<g>
												<g>
													<g>
														<g>
															<g>
																<g>
																	<g>
																		<path style="fill:#263238;" d="M315.807,154.839c-0.189,1.217-0.312,2.477-0.354,3.77
																			c-0.005,0.149-0.01,0.308-0.015,0.457c-0.191,10.108,4.435,18.158,10.323,17.979
																			c3.479-0.105,6.612-3.064,8.643-7.537c-1.139,0.344-2.32,0.546-3.542,0.548
																			C323.535,170.073,317.395,163.567,315.807,154.839z"/>
																	</g>
																</g>
															</g>
														</g>
													</g>
												</g>
												<path style="fill:#263238;" d="M291.191,94.146c9.934-4.118,21.625,0.367,26.291,10.056
													c1.754,3.643,2.332,7.544,1.887,11.279c-0.563,4.724,1.436,9.29,4.961,12.485c0.184,0.167,0.371,0.426,0.645,0.666
													c1.804,1.582,3.555,2.346,5.69,2.141c0.052-0.005,0.093-0.007,0.122-0.007c1.38-0.018,2.704,0.213,3.945,0.648
													c0.072,0.01,0.146,0.03,0.209,0.052c2.971,1.055,5.567,3.191,7.516,6.062c0.264,0.378,0.522,0.786,0.76,1.198
													c0.025,0.037,0.041,0.075,0.077,0.121c0.013,0.019,0.014,0.028,0.026,0.047c-2.331,5.358-8.889,9.783-17.092,10.911
													c-3.864,0.532-7.586,0.256-10.81-0.653c0.003-0.059,0.01-0.117,0.014-0.176c-4.224-0.273-8.183-2.745-10.141-6.835
													l-0.072-0.151c-2.173-4.584-6.359-7.794-11.275-9.045c-5.677-1.444-10.695-5.297-13.423-10.996
													C275.472,111.399,280.244,98.684,291.191,94.146z"/>
												<g>
													<path style="fill:#263238;" d="M309.773,81.421c-1.926,0.17-2.526,2.853-0.848,3.813
														c4.109,2.352,10.548,6.526,12.721,10.655c3.284,6.242,10.307,3.626,9.026-1.284
														c-1.278-4.899-9.735-10.304-16.029-12.485C312.715,81.452,311.094,81.305,309.773,81.421z"/>
													<path style="fill:#263238;" d="M325.883,106.668c0.64,1.065,1.963,1.387,2.956,0.719
														c0.993-0.668,1.279-2.072,0.64-3.137c-0.64-1.065-1.963-1.387-2.956-0.719
														C325.53,104.198,325.243,105.603,325.883,106.668z"/>
												</g>
											</g>
										</g>
									</g>
									<path style="fill:#263238;" d="M360.786,128.262c0,0-12.298-7.099-13.176-4.63c-2.279,6.407,6.984,12.382,6.984,12.382
										L360.786,128.262z"/>
									<path style="fill:#263238;" d="M200.436,226.233c0,0,0.241-6.612-2.056-12.975c-2.596-7.192-9.532-14.043-15.947-13.212
										c-10.591,5.553,7.029,40.546,7.029,40.546L200.436,226.233z"/>
									
										<path style="fill:none;stroke:#263238;stroke-width:2.5;stroke-linecap:round;stroke-linejoin:round;stroke-miterlimit:10;" d="
										M239.807,174.513c-3.243,4.247-14.416,21.063-25.734,18.492"/>
									
										<path style="fill:none;stroke:#263238;stroke-width:2.5;stroke-linecap:round;stroke-linejoin:round;stroke-miterlimit:10;" d="
										M335.834,175.268c-1.02,4.492-5.058,7.397-9.029,6.495"/>
								</g>
								<path style="fill:#D2BAFF;" d="M421.938,59.694c1.401-1.435,2.82-2.245,4.599-3.206c9-4.86,7.5-9.86,0-8.86
									c-3.35,0.447-8.047,1.074-12.219,1.631c-5.834,0.779-10.751,4.729-12.773,10.257c-0.555,1.516-1.144,3.114-1.735,4.7
									l-23.273,44.912l-20.997,27.546c1.925,1.374,3.534,2.768,3.854,4.977c0.998,6.892,12.478,10.525,19.526,11.101
									c5.052,0.412,10.887,1.823,13.797,2.591l5.488-5.435l15.333-19.149l21.5-51.742l-6.36,0.485l4.86-21.04L421.938,59.694z"/>
								<g>
									<polygon style="fill:#FFFFFF;" points="434.944,79.025 434.832,79.508 435.036,79.018 									"/>
									<path style="fill:#FFFFFF;" d="M431.116,63.318c-1.778,0.96-3.197,1.771-4.599,3.206l5.286-0.561l0.812-3.516
										C432.152,62.737,431.654,63.028,431.116,63.318z"/>
									<path style="fill:#FFFFFF;" d="M360.119,143.504l20.997-31.548l21.626-41.163c0.591-1.586,1.18-3.184,1.735-4.7
										c2.022-5.528,6.258-11.693,12.092-12.472c2.949-0.394,6.173-1.198,8.8-1.683c1.526-0.282,3.95-0.482,4.772-1.798
										c0.971-1.554,0.665-3.08-3.606-2.511c-3.35,0.447-8.047,1.074-12.219,1.631c-5.834,0.779-10.751,4.729-12.773,10.257
										c-0.555,1.516-1.144,3.114-1.735,4.7l-23.273,44.912l-20.997,27.546c1.925,1.374,3.534,2.768,3.854,4.977
										c0.358,2.47,2.066,4.519,4.43,6.162C363.302,145.983,361.841,144.733,360.119,143.504z"/>
								</g>
								
									<path style="fill:none;stroke:#263238;stroke-width:2.5;stroke-linecap:round;stroke-linejoin:round;stroke-miterlimit:10;" d="
									M421.938,59.694c1.401-1.435,2.82-2.245,4.599-3.206c9-4.86,7.5-9.86,0-8.86c-3.35,0.447-8.047,1.074-12.219,1.631
									c-5.834,0.779-10.751,4.729-12.773,10.257c-0.555,1.516-1.144,3.114-1.735,4.7l-23.273,44.912l-20.997,27.546
									c1.925,1.374,3.534,2.768,3.854,4.977c0.998,6.892,12.478,10.525,19.526,11.101c5.052,0.412,11.164,3.884,14.074,4.652
									c0,0,14.679-17.23,20.544-26.645c5.865-9.414,21.5-51.742,21.5-51.742l-6.36,0.485l4.86-21.04L421.938,59.694z"/>
							</g>
							
								<path style="fill:#FECEA0;stroke:#263238;stroke-width:2.5;stroke-linecap:round;stroke-linejoin:round;stroke-miterlimit:10;" d="
								M413.491,47.39l14.478-8.104c0.128-0.116,0.295-0.161,0.455-0.123l40.148,4.467c0.629,0.148,0.561,1.19-0.08,1.233
								L413.866,48.5C413.331,48.535,413.072,47.769,413.491,47.39z"/>
							
								<polygon style="fill:#FECEA0;stroke:#263238;stroke-width:2.5;stroke-linecap:round;stroke-linejoin:round;stroke-miterlimit:10;" points="
								435.036,39.149 449.416,33.621 468.573,43.629 							"/>
							
								<path style="fill:none;stroke:#263238;stroke-width:2.5;stroke-linecap:round;stroke-linejoin:round;stroke-miterlimit:10;" d="
								M421.938,59.694c-0.007,4.641-4.068,7.969-8.005,9.622"/>
							
								<path style="fill:#FECEA0;stroke:#263238;stroke-width:2.5;stroke-linecap:round;stroke-linejoin:round;stroke-miterlimit:10;" d="
								M466.34,45.006c-0.637,0.948-32.803,13.457-32.803,13.457l-11.599,1.232c0,0,8.491-5.142,9.902-7.344
								c1.412-2.202,0.363-4.85,0.363-4.85L466.34,45.006z"/>
							
								<path style="fill:#FFFFFF;stroke:#263238;stroke-width:2.5;stroke-linecap:round;stroke-linejoin:round;stroke-miterlimit:10;" d="
								M421.036,48.501c0,2.128,3.876,5.12,8.667,5.12"/>
							
								<path style="fill:#D2BAFF;stroke:#263238;stroke-width:2.5;stroke-linecap:round;stroke-linejoin:round;stroke-miterlimit:10;" d="
								M444.385,62.222c3.591-3.036,1.921-8.918-2.736-9.567c-2.37-0.331-4.978-0.266-7.291,0.771
								c-6.265,2.808-12.53,6.913-9.505,10.369c3.024,3.456,14.31,1.299,15.338,0.901C441.88,64.042,443.26,63.173,444.385,62.222z"
								/>
							
								<path style="fill:#D2BAFF;stroke:#263238;stroke-width:2.5;stroke-linecap:round;stroke-linejoin:round;stroke-miterlimit:10;" d="
								M444.385,74.441c3.591-3.036,1.921-8.918-2.736-9.567c-2.37-0.331-4.978-0.266-7.291,0.771
								c-6.265,2.808-12.53,6.913-9.505,10.369c3.024,3.457,14.31,1.299,15.338,0.901C441.88,76.261,443.26,75.392,444.385,74.441z"
								/>
							
								<path style="fill:#D2BAFF;stroke:#263238;stroke-width:2.5;stroke-linecap:round;stroke-linejoin:round;stroke-miterlimit:10;" d="
								M439.672,87.347c3.726-0.915,4.642-5.82,1.474-7.986c-1.612-1.102-3.541-2.001-5.609-2.083
								c-5.598-0.222-11.667,0.503-10.712,4.127c0.955,3.624,9.986,6.145,10.883,6.227C437.18,87.768,438.504,87.634,439.672,87.347
								z"/>
						</g>
					</g>
					<g>
						<g>
							
								<path style="fill:#D2BAFF;stroke:#263238;stroke-width:2.5;stroke-linecap:round;stroke-linejoin:round;stroke-miterlimit:10;" d="
								M269.748,443.341l2.595,0.555h39.776l-6.075-10.252l-2.089-13.821c-6.206,0.323-14.438,3.531-20.809,7.154
								c-8.204,4.667-9.377,4.667-19.925,2.667c-0.48-0.091-0.94-0.148-1.401-0.207v4.1
								C261.821,438.266,265.125,442.351,269.748,443.341z"/>
							
								<path style="fill:#FECEA0;stroke:#263238;stroke-width:2.5;stroke-linecap:round;stroke-linejoin:round;stroke-miterlimit:10;" d="
								M306.046,433.644c0,0-25.544-5.192-26.415-4.751c-5.308,2.688-7.586,2.424-16.408,0.751c-0.48-0.091-0.94-0.148-1.401-0.207
								l-2.186,20.523l64.723,0.37L306.046,433.644z"/>
							<g>
								<path style="fill:#FFFFFF;stroke:#FECEA0;stroke-linecap:round;stroke-linejoin:round;stroke-miterlimit:10;" d="
									M268.248,430.532c-1.424-0.216-3.055-0.514-5.025-0.888c-0.48-0.091-0.94-0.148-1.401-0.207v1.212
									C264.458,431.005,266.337,431.008,268.248,430.532z"/>
							</g>
						</g>
					</g>
					<g>
						<path style="fill:#FECEA0;" d="M425.882,173.074c-1.639-0.65-2.901-0.7-7.082-0.202l-14.006,3.684
							c-5.968,1.57-12.283,1.189-18.019-1.087l-10.555-4.189c-2.823-1.12-7.331,3.564-10.069,10.462
							c-2.737,6.898-2.668,13.399,0.155,14.52l10.697,4.245c5.48,2.175,10.165,5.974,13.425,10.886l9.007,13.572
							c0.243,0.452,0.513,0.861,0.811,1.222l0.014,0.022l0.001-0.002c0.586,0.705,1.275,1.232,2.071,1.548
							c6.063,2.406,15.918-8.092,22.012-23.448C430.439,188.95,431.945,175.48,425.882,173.074z"/>
						<path style="fill:#FFFFFF;" d="M426.965,196.921c1.97-9.03,1.35-15.83-2.79-17.48c-1.63-0.65-2.9-0.7-7.08-0.2l-14,3.68
							c-5.97,1.57-12.29,1.19-18.02-1.08l-10.56-4.19c-2.82-1.12-7.33,3.56-10.07,10.46c-0.03,0.08-0.06,0.16-0.09,0.24
							c0.28-2.03,0.88-4.3,1.8-6.61c2.73-6.9,7.24-11.58,10.06-10.46l10.56,4.19c5.74,2.27,12.05,2.65,18.02,1.08l14-3.68
							c4.19-0.5,5.45-0.45,7.09,0.2C430.945,175.081,430.725,184.811,426.965,196.921z"/>
						
							<path style="fill:none;stroke:#263238;stroke-width:2.5;stroke-linecap:round;stroke-linejoin:round;stroke-miterlimit:10;" d="
							M425.882,173.074c-1.639-0.65-2.901-0.7-7.082-0.202l-14.006,3.684c-5.968,1.57-12.283,1.189-18.019-1.087l-10.555-4.189
							c-2.823-1.12-7.331,3.564-10.069,10.462c-2.737,6.898-2.668,13.399,0.155,14.52l10.697,4.245
							c5.48,2.175,10.165,5.974,13.425,10.886l9.007,13.572c0.243,0.452,0.513,0.861,0.811,1.222l0.014,0.022l0.001-0.002
							c0.586,0.705,1.275,1.232,2.071,1.548c6.063,2.406,15.918-8.092,22.012-23.448C430.439,188.95,431.945,175.48,425.882,173.074
							z"/>
						
							<path style="fill:#263238;stroke:#263238;stroke-width:2.5;stroke-linecap:round;stroke-linejoin:round;stroke-miterlimit:10;" d="
							M424.326,204.361c-6.48,14.95-15.8,25.32-20.82,23.14c-3.62-1.57-4.01-9.23-1.51-18.99c0.96-3.77,2.35-7.85,4.16-12.02
							c1.12-2.6,2.33-5.05,3.59-7.33c5.99-10.85,13.08-17.61,17.23-15.82C431.986,175.521,430.806,189.401,424.326,204.361z"/>
						
							<path style="fill:#FFFFFF;stroke:#263238;stroke-width:2.5;stroke-linecap:round;stroke-linejoin:round;stroke-miterlimit:10;" d="
							M419.196,193.571l-7.91,18.26l-9.29-3.32c0.96-3.77,2.35-7.85,4.16-12.02c1.12-2.6,2.33-5.05,3.59-7.33L419.196,193.571z"/>
						
							<path style="fill:#FFFFFF;stroke:#263238;stroke-width:2.5;stroke-linecap:round;stroke-linejoin:round;stroke-miterlimit:10;" d="
							M418.303,204.029c-2.185,5.044-5.328,8.538-7.02,7.805c-1.691-0.733-1.291-5.416,0.895-10.46
							c2.186-5.044,5.328-8.538,7.02-7.805C420.889,194.302,420.489,198.985,418.303,204.029z"/>
						<path style="fill:#FF7D7D;" d="M376.479,200.121c-0.43-9.61,4.588-18.384,12.007-24.042c-0.574-0.188-1.146-0.386-1.71-0.609
							l-10.56-4.19c-2.82-1.12-7.33,3.56-10.06,10.46c-2.74,6.9-2.67,13.4,0.15,14.52l10.186,4.046
							C376.488,200.244,376.482,200.183,376.479,200.121z"/>
						<path style="fill:#FFFFFF;" d="M383.974,180.255c1.369-1.524,2.877-2.929,4.511-4.175c-0.574-0.188-1.146-0.386-1.71-0.609
							l-10.56-4.19c-1.846-0.733-4.416,1.03-6.737,4.265C374.47,176.678,379.308,178.261,383.974,180.255z"/>
						
							<path style="fill:none;stroke:#263238;stroke-width:2.5;stroke-linecap:round;stroke-linejoin:round;stroke-miterlimit:10;" d="
							M376.479,200.121c-0.43-9.61,4.588-18.384,12.007-24.042c-0.574-0.188-1.146-0.386-1.71-0.609l-10.56-4.19
							c-2.82-1.12-7.33,3.56-10.06,10.46c-2.74,6.9-2.67,13.4,0.15,14.52l10.186,4.046
							C376.488,200.244,376.482,200.183,376.479,200.121z"/>
						<g>
							
								<path style="fill:none;stroke:#263238;stroke-width:2.5;stroke-linecap:round;stroke-linejoin:round;stroke-miterlimit:10;" d="
								M402.523,183.764c1.32-0.067,2.637-0.231,3.925-0.535"/>
							
								<path style="fill:none;stroke:#263238;stroke-width:2.5;stroke-linecap:round;stroke-linejoin:round;stroke-miterlimit:10;" d="
								M389.027,181.62c1.847,1.578,5.619,1.73,7.929,1.97"/>
						</g>
					</g>
					<g>
						<path style="fill:#FF7D7D;" d="M192.755,301.291c-7.373-9.553-10.095-19.839-10.526-29.183l-7.183,7.304
							c0,0-3.5,6.712,0,23.212s28.5,47,28.5,47s0,0,8-4.5c3.053-1.717,9.71-6.496,16.775-11.747
							C223.585,331.158,209.753,323.314,192.755,301.291z"/>
					</g>
					<g>
						<path style="fill:#FFFFFF;" d="M200.017,345.159c3.224,4.259,3.529,4.465,3.529,4.465s0,0,8-4.5
							c3.052-1.717,9.71-6.496,16.775-11.747c-1.251-0.586-3.142-1.57-5.553-3.099C217.207,334.402,202.149,344.311,200.017,345.159
							z"/>
					</g>
					<g>
						
							<path style="fill:none;stroke:#263238;stroke-width:2.5;stroke-linecap:round;stroke-linejoin:round;stroke-miterlimit:10;" d="
							M192.755,301.291c-7.373-9.553-10.095-19.839-10.526-29.183l-7.183,7.304c0,0-3.5,6.712,0,23.212s28.5,47,28.5,47s0,0,8-4.5
							c3.053-1.717,9.71-6.496,16.775-11.747C223.585,331.158,209.753,323.314,192.755,301.291z"/>
					</g>
					<g>
						<path style="fill:#263238;" d="M173.491,340.627c-0.065-2.846,3.763-4.162,5.442-1.863
							c4.113,5.631,11.271,14.374,17.669,16.88c9.67,3.788,6.988,14.493-0.407,13.419c-7.379-1.071-16.668-12.568-20.887-21.424
							C174.016,344.927,173.536,342.579,173.491,340.627z"/>
						<path style="fill:#263238;" d="M213.068,360.088c1.663,0.763,2.35,2.647,1.535,4.21c-0.815,1.562-2.824,2.21-4.487,1.448
							c-1.663-0.763-2.35-2.647-1.535-4.21C209.397,359.974,211.406,359.326,213.068,360.088z"/>
					</g>
					<g>
						<path style="fill:#263238;" d="M167.109,260.348c2.629-1.094,5.244,1.996,3.711,4.395c-3.754,5.876-9.274,16.66-8.274,30.094
							c0.887,11.921,8.822,22.775,8.729,27.278c-0.177,8.564-8.548-0.988-11.333-5.015c-15.396-22.263-5.43-45.367,1.291-52.513
							C163.293,262.398,165.306,261.098,167.109,260.348z"/>
					</g>
				</g>
				<g>
					<path style="fill:#D2BAFF;" d="M386.805,220.148c-0.95,4.2-3.797,6.609-4.047,7.219c0.25,0.39,9.527,2.78-5.148,15.447
						c-2.844,2.455-12.639,13.98-73.699,13.51c-2.81-0.02-6.62-1.45-10.94-3.8l-0.01-0.01c-11.39-7.87-24.162-24.106-28.732-28.116
						c-0.21-0.18-0.42-0.36-0.62-0.55c0.5-0.53,1.07-1.12,1.71-1.79c4.54-4.75,4.659,1.776,15.269-1.654
						c10.06-3.26,11.295-7.059,22.057-19.876l13.343,14.333l40.07-3.89c0,0-0.23-2.82,3.62-8.3c3.77-5.39,7.27-4.65,7.4-4.62
						l-2.22,9.78l7.55,1.72c0,0,0-0.01,0.01-0.03c0.25-0.39,3.13-5.06,5.61-9.08c0.16-0.01,0.33-0.01,0.51-0.01
						c2.18,0,5.763,1.747,5.493,4.717c0,0.02-1.647,6.683-1.637,6.683C382.584,211.921,387.815,215.718,386.805,220.148z"/>
					<g>
						<path style="fill:#FFFFFF;" d="M384.494,228.454c-1.134,2.071-3.332,4.708-7.237,8.078
							c-2.844,2.455-9.786,10.743-70.785,13.524c-5.667,0.258-13.864-5.825-13.864-5.825c-10.61-10.042-15.489-17.1-21.325-23.31
							c-0.407,0.277-5.471,0.623-5.963,1.137c-0.641,0.67-1.211,1.261-1.711,1.791c0.001,0.02,0.002,0.026,0.003,0.046
							c3.919,2.884,17.395,20.359,29.35,28.619l0.01,0.01c4.32,2.35,8.13,3.78,10.94,3.8c61.06,0.47,70.855-11.056,73.699-13.51
							C387.948,233.891,386.399,230.071,384.494,228.454z"/>
					</g>
					
						<path style="fill:none;stroke:#263238;stroke-width:2.5;stroke-linecap:round;stroke-linejoin:round;stroke-miterlimit:10;" d="
						M386.592,220.959c-0.95,4.2-3.584,5.797-3.834,6.407c0.25,0.39,12.529,3.781-5.148,15.447
						c-3.136,2.069-12.639,13.98-73.699,13.51c-2.81-0.02-6.62-1.45-10.94-3.8l-0.01-0.01c-7.9-4.31-20.492-20.686-28.732-28.116
						c-0.21-0.18-0.42-0.36-0.62-0.55c0.5-0.53,1.07-1.12,1.71-1.79c4.54-4.75,10.482,1.763,20.474-3.187
						c5.726-2.837,6.624-8.26,17.564-18.51l12.63,14.499l40.07-3.89c0,0-0.23-2.82,3.62-8.3c3.77-5.39,7.27-4.65,7.4-4.62
						l-2.22,9.78l7.55,1.72c0,0,0-0.01,0.01-0.03c0.17-0.4,1.98-4.79,4.59-9.02c0,0,0.41-0.04,1.02-0.06
						c0.16-0.01,0.33-0.01,0.51-0.01c2.18,0,5.763,1.747,5.493,4.717c0,0.02,0.127-1.277,0.117-1.257
						c-0.511,2.363-1.624,7.95-1.754,7.94C382.584,211.921,387.602,216.529,386.592,220.959z"/>
					
						<path style="fill:none;stroke:#263238;stroke-width:2.5;stroke-linecap:round;stroke-linejoin:round;stroke-miterlimit:10;" d="
						M384.031,205.148c-1.095,5.917-2.783,10.432-5.415,13.833"/>
					
						<path style="fill:none;stroke:#263238;stroke-width:2.5;stroke-linecap:round;stroke-linejoin:round;stroke-miterlimit:10;" d="
						M385.512,223.53c0,0-2.707,5.285-8.04,8.696"/>
				</g>
				<path style="fill:#263238;" d="M265.034,432.981c0,0-10.043-13.201-16.043-17.201s-11.014-4.858-11.41-3.256
					C234.614,424.524,265.034,432.981,265.034,432.981z"/>
				<path style="fill:#263238;" d="M303.957,419.823c0,0,11.378-0.818,12.104,2.158c1.532,6.277-10.108,6.885-10.108,6.885
					L303.957,419.823z"/>
			</g>
			<path style="fill:none;stroke:#263238;stroke-width:2.5;stroke-linecap:round;stroke-linejoin:round;stroke-miterlimit:10;" d="
				M174.205,209.749c-1.262,2.235,1.169,18.164,5.142,23.784"/>
			<path style="fill:none;stroke:#263238;stroke-width:2.5;stroke-linecap:round;stroke-linejoin:round;stroke-miterlimit:10;" d="
				M168.873,212.625c-0.998,4.001-0.238,8.153,0.908,12.035"/>
			<path style="fill:#FF7D7D;" d="M303.755,368.428c-2.139-10.443-3.122-37.719-11.785-43.93c-2.025-1.452-4.289-3.056-6.801-4.809
				l-0.001,0c-5.629-2.304-22.089-20.653-35.432-31.888c-13.343-11.235-18.196-5.671-36.525-17.526
				c-16.966-10.973-10.262-27.552-12.493-45.757l-12.14,16.074c0,0-7.152,14.123-6.35,31.517
				c0.431,9.345,3.153,19.631,10.526,29.183c3.865,5.008,7.566,9.282,11.035,12.924c11.784,12.375,20.873,17.448,24.532,19.162
				c1.142,0.535,1.762,0.747,1.762,0.747s2.521,34.595,5.95,48.359c2.793,11.208,12.807,8.01,2.984,29.854
				c-1.043,2.319,0-7.667,24.205,17.306c9.066,9.354,23.736,6.478,27.103,3.027c6.931-7.107,7.425-12.525,13.631-12.848
				c1.787-0.093,3.414,0.04,4.77,0.488c6.067,2,6.067,2,6.067,2L303.755,368.428z"/>
			<g>
				<path style="fill:#FFFFFF;" d="M303.755,368.428c-2.139-10.443-3.122-37.719-11.784-43.93c-2.025-1.452-4.29-3.056-6.801-4.809
					l-0.001,0c-5.629-2.304-22.089-20.653-35.432-31.888c-8.928-7.517-14.059-7.518-21.965-10.244
					c2.288,2.585,12.143,9.368,16.082,12.684c13.343,11.235,30.713,30.57,36.342,32.875c0,0,4.982,3.974,7.007,5.426
					c8.663,6.212,9.819,31.75,11.958,42.193l10.472,49.688c0.288,0.064,5.161,1.89,5.161,1.89L303.755,368.428z"/>
			</g>
			<path style="fill:none;stroke:#263238;stroke-width:2.5;stroke-linecap:round;stroke-linejoin:round;stroke-miterlimit:10;" d="
				M303.755,368.428c-2.139-10.443-3.122-37.719-11.785-43.93c-2.025-1.452-4.289-3.056-6.801-4.809l-0.001,0
				c-5.629-2.304-22.089-20.653-35.432-31.888c-13.343-11.235-18.196-5.671-36.525-17.526
				c-16.966-10.973-10.262-27.552-12.493-45.757l-12.14,16.074c0,0-7.152,14.123-6.35,31.517
				c0.431,9.345,3.153,19.631,10.526,29.183c3.865,5.008,7.566,9.282,11.035,12.924c11.784,12.375,20.873,17.448,24.532,19.162
				c1.142,0.535,1.762,0.747,1.762,0.747s2.521,34.595,5.95,48.359c2.793,11.208,12.807,8.01,2.984,29.854
				c-1.043,2.319,0-7.667,24.205,17.306c9.066,9.354,23.736,6.478,27.103,3.027c6.931-7.107,7.425-12.525,13.631-12.848
				c1.787-0.093,3.414,0.04,4.77,0.488c6.067,2,6.067,2,6.067,2L303.755,368.428z"/>
			<path style="fill:none;stroke:#263238;stroke-width:2.5;stroke-linecap:round;stroke-linejoin:round;stroke-miterlimit:10;" d="
				M263.609,372.151c2.729,9.957-4.165,26.553-9.016,30.383"/>
		</g>
		<path style="fill:none;stroke:#263238;stroke-width:2.5;stroke-linecap:round;stroke-linejoin:round;stroke-miterlimit:10;" d="
			M239.877,190.981c0,0,1.04,4.723,4.777,10.319c3.737,5.596,4.836,3.005,7.86,12.926c3.024,9.921,8.104,12.918,8.104,12.918
			s0.566-0.647,3.361-3.581c0.457-0.482,0.976-1.021,1.558-1.632c4.15-4.335,6.777,1.121,16.462-2.012
			c9.183-2.978,8.429-4.793,18.52-16.785c0.534-0.504,6.313-10.985,15.253-6.515"/>
		<path style="fill:none;stroke:#263238;stroke-width:2.5;stroke-linecap:round;stroke-linejoin:round;stroke-miterlimit:10;" d="
			M315.418,198.646c0,0,0,0-0.01-0.026c-0.013-0.082,1.26-0.042,0.868-2.007c-0.488-2.485-6.474-9.26-12.692-14.107
			c-6.228-4.841-0.25-1.59-3.836-13.563c-2.636-8.801-12.961-10.628-12.961-10.628"/>
		
			<path style="fill:#263238;stroke:#263238;stroke-width:2.5;stroke-linecap:round;stroke-linejoin:round;stroke-miterlimit:10;" d="
			M310.914,205.974c0,0,9.618-7.569,4.011-9.811c-7.638-3.054-11.567,4.649-11.567,4.649L310.914,205.974z"/>
		<path style="fill:none;stroke:#263238;stroke-width:2.5;stroke-linecap:round;stroke-linejoin:round;stroke-miterlimit:10;" d="
			M286.824,168.943c-0.756,3.327,10.574,7.281,16.757,13.565"/>
		<path style="fill:none;stroke:#263238;stroke-width:2.5;stroke-linecap:round;stroke-linejoin:round;stroke-miterlimit:10;" d="
			M282.1,169.98c-0.598,2.634,1.498,5.352,4.686,6.076"/>
		<path style="fill:none;stroke:#263238;stroke-width:2.5;stroke-linecap:round;stroke-linejoin:round;stroke-miterlimit:10;" d="
			M351.775,211.064c4.006-6.491,4.829-13.977,4.171-21.43"/>
		<path style="fill:none;stroke:#263238;stroke-width:2.5;stroke-linecap:round;stroke-linejoin:round;stroke-miterlimit:10;" d="
			M314.369,263.117c0,0-18.172,12.556-22.559,21.056"/>
	</g>
</g>
</svg>
