<?xml version="1.0" encoding="utf-8"?>
<!-- Generator: Adobe Illustrator 27.5.0, SVG Export Plug-In . SVG Version: 6.00 Build 0)  -->
<svg version="1.1" xmlns="http://www.w3.org/2000/svg" xmlns:xlink="http://www.w3.org/1999/xlink" x="0px" y="0px"
	 viewBox="0 0 500 500" style="enable-background:new 0 0 500 500;" xml:space="preserve">
<g id="Background_Complete">
	<g>
		<rect y="382.398" style="fill:#EBEBEB;" width="500" height="0.25"/>
		<rect x="52.459" y="398.494" style="fill:#EBEBEB;" width="33.122" height="0.25"/>
		<rect x="171.14" y="401.208" style="fill:#EBEBEB;" width="8.693" height="0.25"/>
		<rect x="86.582" y="389.208" style="fill:#EBEBEB;" width="25.418" height="0.25"/>
		<rect x="422" y="390.888" style="fill:#EBEBEB;" width="27.901" height="0.25"/>
		<rect x="391.471" y="390.888" style="fill:#EBEBEB;" width="21.625" height="0.25"/>
		<rect x="277.213" y="395.111" style="fill:#EBEBEB;" width="51.454" height="0.25"/>
		<path style="fill:#EBEBEB;" d="M237.014,337.8H43.915c-3.147,0-5.708-2.561-5.708-5.708V60.66c0-3.147,2.561-5.708,5.708-5.708
			h193.099c3.146,0,5.707,2.561,5.707,5.708v271.432C242.721,335.239,240.16,337.8,237.014,337.8z M43.915,55.203
			c-3.01,0-5.458,2.448-5.458,5.458v271.432c0,3.01,2.448,5.458,5.458,5.458h193.099c3.009,0,5.457-2.448,5.457-5.458V60.66
			c0-3.009-2.448-5.458-5.457-5.458H43.915z"/>
		<path style="fill:#EBEBEB;" d="M453.31,337.8H260.212c-3.147,0-5.707-2.561-5.707-5.708V60.66c0-3.147,2.561-5.708,5.707-5.708
			H453.31c3.148,0,5.708,2.561,5.708,5.708v271.432C459.019,335.239,456.458,337.8,453.31,337.8z M260.212,55.203
			c-3.009,0-5.457,2.448-5.457,5.458v271.432c0,3.01,2.448,5.458,5.457,5.458H453.31c3.01,0,5.458-2.448,5.458-5.458V60.66
			c0-3.009-2.448-5.458-5.458-5.458H260.212z"/>
	</g>
	<g>
		<g>
			<path style="fill:#F0F0F0;" d="M307.474,220.693H67.688c-6.367,0-11.577-5.209-11.577-11.577V83.91
				c0-6.367,5.209-11.577,11.577-11.577h239.786c6.367,0,11.577,5.21,11.577,11.577v125.207
				C319.05,215.484,313.841,220.693,307.474,220.693z"/>
			<path style="fill:#FAFAFA;" d="M67.688,217.799c-4.788,0-8.682-3.895-8.682-8.682V83.91c0-4.788,3.895-8.682,8.682-8.682h239.786
				c4.788,0,8.683,3.895,8.683,8.682v125.207c0,4.788-3.895,8.682-8.683,8.682H67.688z"/>
			<circle style="fill:#EBEBEB;" cx="77.442" cy="85.601" r="3.537"/>
			<circle style="fill:#EBEBEB;" cx="91.115" cy="85.601" r="3.537"/>
			<circle style="fill:#EBEBEB;" cx="104.788" cy="85.601" r="3.537"/>
		</g>
		<g>
			<g>
				<path style="fill:#FFFFFF;" d="M422.938,210.813H285.084c-8.749,0-15.906-7.158-15.906-15.906v-84.764
					c0-8.748,7.158-15.906,15.906-15.906h137.854c8.749,0,15.906,7.158,15.906,15.906v84.764
					C438.844,203.656,431.687,210.813,422.938,210.813z"/>
				<path style="fill:#E0E0E0;" d="M422.938,211.477H285.084c-9.136,0-16.569-7.434-16.569-16.569v-84.764
					c0-9.136,7.433-16.569,16.569-16.569h137.854c9.136,0,16.569,7.434,16.569,16.569v84.764
					C439.507,204.043,432.074,211.477,422.938,211.477z M285.084,94.9c-8.405,0-15.243,6.838-15.243,15.243v84.764
					c0,8.405,6.838,15.243,15.243,15.243h137.854c8.405,0,15.244-6.838,15.244-15.243v-84.764c0-8.405-6.838-15.243-15.244-15.243
					H285.084z"/>
			</g>
			<g>
				<path style="fill:#E0E0E0;" d="M335.705,196.276c-7.678-3.212-14.372-8.389-19.425-15.013l5.382-4.099
					c10.877,14.292,30.369,20.109,47.771,12.971c10.387-4.261,18.068-12.326,22.083-21.923l6.243,2.611
					C387.719,194.827,359.709,206.316,335.705,196.276z"/>
				<path style="fill:#EBEBEB;" d="M397.759,170.823l-6.243-2.611c4.014-9.598,4.363-20.73,0.102-31.117
					c-4.261-10.387-12.337-18.063-21.931-22.065l2.619-6.261c11.604,4.854,20.81,14.13,25.579,25.756
					C402.659,146.162,402.613,159.219,397.759,170.823z"/>
				<path style="fill:#F5F5F5;" d="M316.28,181.263c-10.249-13.461-12.548-31.43-6.028-47.041
					c10.045-23.991,38.055-35.48,62.054-25.453l-2.619,6.261c-9.598-4.015-20.717-4.368-31.105-0.107
					c-20.762,8.516-30.694,32.261-22.178,53.023c1.378,3.36,3.163,6.454,5.257,9.219L316.28,181.263z"/>
			</g>
		</g>
	</g>
</g>
<g id="Background_Simple" style="display:none;">
	<g style="display:inline;">
		<path style="fill:#407BFF;" d="M401.084,105.906c-44.726-40.377-99.811-49.083-131.195-11.561
			c-36.001,47.668-27.922,120.979-91.861,145.21C76.04,262.638,140.329,368.596,175.32,382.64
			c74.968,34.541,200.749-81.71,227.974-111.25C459.612,212.958,464.924,164.25,401.084,105.906z"/>
		<path style="opacity:0.9;fill:#FFFFFF;" d="M401.084,105.906c-44.726-40.377-99.811-49.083-131.195-11.561
			c-36.001,47.668-27.922,120.979-91.861,145.21C76.04,262.638,140.329,368.596,175.32,382.64
			c74.968,34.541,200.749-81.71,227.974-111.25C459.612,212.958,464.924,164.25,401.084,105.906z"/>
	</g>
</g>
<g id="Shadow_1_">
	<ellipse id="_x3C_Path_x3E__288_" style="fill:#F5F5F5;" cx="250" cy="416.238" rx="193.889" ry="11.323"/>
</g>
<g id="Dashboard">
	<g>
		<g style="opacity:0.3;">
			<path style="fill:#FFFFFF;" d="M407.507,357.954H94.034c-5.165,0-9.351-4.187-9.351-9.351V109.94
				c0-5.165,4.187-9.351,9.351-9.351h313.473c5.165,0,9.351,4.187,9.351,9.351v238.662
				C416.858,353.767,412.672,357.954,407.507,357.954z"/>
			<path style="opacity:0.4;fill:#407BFF;" d="M407.507,357.954H94.034c-5.165,0-9.351-4.187-9.351-9.351V109.94
				c0-5.165,4.187-9.351,9.351-9.351h313.473c5.165,0,9.351,4.187,9.351,9.351v238.662
				C416.858,353.767,412.672,357.954,407.507,357.954z"/>
		</g>
		<g>
			<path style="opacity:0.1;fill:#407BFF;" d="M402.634,229.271H98.907c-0.905,0-1.638-0.733-1.638-1.638v-99.721
				c0-0.905,0.733-1.638,1.638-1.638h303.727c0.905,0,1.638,0.733,1.638,1.638v99.721
				C404.272,228.538,403.539,229.271,402.634,229.271z"/>
			<path style="fill:#FFFFFF;" d="M400.282,226.883H101.259c-0.905,0-1.638-0.733-1.638-1.638V125.67
				c0-0.905,0.733-1.638,1.638-1.638h299.022c0.904,0,1.638,0.733,1.638,1.638v99.575
				C401.919,226.15,401.186,226.883,400.282,226.883z"/>
			<g>
				<rect x="121.97" y="129.289" style="opacity:0.1;fill:#407BFF;" width="2.005" height="92.336"/>
				<rect x="147.53" y="129.289" style="opacity:0.1;fill:#407BFF;" width="2.005" height="92.336"/>
				<rect x="173.089" y="129.289" style="opacity:0.1;fill:#407BFF;" width="2.005" height="92.336"/>
				<rect x="198.649" y="129.289" style="opacity:0.1;fill:#407BFF;" width="2.005" height="92.336"/>
				<rect x="224.209" y="129.289" style="opacity:0.1;fill:#407BFF;" width="2.005" height="92.336"/>
				<rect x="249.768" y="129.289" style="opacity:0.1;fill:#407BFF;" width="2.005" height="92.336"/>
				<rect x="275.328" y="129.289" style="opacity:0.1;fill:#407BFF;" width="2.005" height="92.336"/>
				<rect x="300.887" y="129.289" style="opacity:0.1;fill:#407BFF;" width="2.005" height="92.336"/>
				<rect x="326.447" y="129.289" style="opacity:0.1;fill:#407BFF;" width="2.005" height="92.336"/>
				<rect x="352.006" y="129.289" style="opacity:0.1;fill:#407BFF;" width="2.005" height="92.336"/>
				<rect x="377.566" y="129.289" style="opacity:0.1;fill:#407BFF;" width="2.005" height="92.336"/>
			</g>
			<g>
				<path style="fill:#E0E0E0;" d="M285.235,199.924c-0.131,0-0.259-0.049-0.358-0.14l-49.71-45.704l-52.239,26.495
					c-0.134,0.067-0.291,0.076-0.431,0.021l-19.251-7.455l-55.026,20.866c-0.274,0.101-0.579-0.033-0.683-0.308
					c-0.104-0.273,0.034-0.579,0.307-0.683l55.215-20.938c0.123-0.045,0.258-0.046,0.379,0.002l19.22,7.442l52.355-26.554
					c0.197-0.1,0.436-0.067,0.598,0.082l49.773,45.762l60.433-14.49l47.341-41.553c0.22-0.194,0.554-0.172,0.747,0.048
					c0.193,0.22,0.171,0.555-0.049,0.747l-47.439,41.64c-0.065,0.057-0.142,0.098-0.226,0.117l-60.835,14.586
					C285.317,199.919,285.276,199.924,285.235,199.924z"/>
				<path style="fill:#407BFF;" d="M108.031,206.511c-0.11,0-0.221-0.034-0.316-0.104c-0.234-0.175-0.283-0.507-0.108-0.741
					l24.346-32.672c0.141-0.188,0.389-0.262,0.61-0.18l57.889,21.657l78.807-34.848c0.159-0.07,0.344-0.058,0.493,0.034
					l29.349,18.16l20.418-13.913c0.073-0.05,0.158-0.08,0.246-0.089l73.692-7.293c0.294-0.035,0.55,0.184,0.579,0.475
					c0.029,0.291-0.184,0.55-0.475,0.578l-73.558,7.28l-20.591,14.03c-0.173,0.118-0.399,0.122-0.577,0.013l-29.404-18.194
					l-78.749,34.822c-0.127,0.057-0.27,0.061-0.4,0.012l-57.719-21.594l-24.109,32.354
					C108.352,206.438,108.193,206.511,108.031,206.511z"/>
			</g>
		</g>
		<path style="opacity:0.2;fill:#407BFF;" d="M391.216,341.133h-81.279c-7.211,0-13.056-5.846-13.056-13.056v-70.928
			c0-7.211,5.846-13.057,13.056-13.057h81.279c7.211,0,13.056,5.846,13.056,13.057v70.928
			C404.272,335.288,398.426,341.133,391.216,341.133z"/>
		<g>
			<polygon style="opacity:0.4;fill:#407BFF;" points="216.621,328.782 202.556,327.783 200.654,357.954 216.621,357.954 			"/>
			<g>
				<path style="fill:#407BFF;" d="M302.833,412.767h-81.279c-7.211,0-13.468-5.846-13.975-13.056l-4.99-70.928
					c-0.507-7.211,4.927-13.057,12.138-13.057h81.279c7.211,0,13.468,5.846,13.975,13.057l4.99,70.928
					C315.478,406.922,310.044,412.767,302.833,412.767z"/>
				<path style="opacity:0.8;fill:#FFFFFF;" d="M296.006,315.726h-81.279c-7.211,0-12.645,5.846-12.138,13.056l4.038,57.401H314.02
					l-4.038-57.401C309.474,321.572,303.217,315.726,296.006,315.726z"/>
				<path style="fill:#FFFFFF;" d="M259.703,377.888c-14.831,0-27.746-12.065-28.789-26.896c-0.507-7.214,1.83-13.994,6.583-19.092
					c4.736-5.081,11.303-7.879,18.492-7.879c14.831,0,27.746,12.065,28.789,26.896c0.507,7.213-1.83,13.993-6.582,19.091
					C273.459,375.09,266.892,377.888,259.703,377.888z M255.988,325.08c-6.892,0-13.184,2.679-17.717,7.542
					c-4.55,4.881-6.787,11.379-6.301,18.296c1.005,14.287,13.446,25.911,27.733,25.911c6.892,0,13.184-2.679,17.717-7.542
					c4.55-4.881,6.787-11.378,6.301-18.295l0,0C282.716,336.704,270.275,325.08,255.988,325.08z"/>
				<polygon style="fill:#407BFF;" points="272.449,350.955 248.44,337.634 250.314,364.275 				"/>
			</g>
		</g>
	</g>
</g>
<g id="Character_2">
	<g>
		<polygon style="fill:#B55B52;" points="360.273,408.831 352.3,408.831 352.387,390.365 360.36,390.365 		"/>
		<polygon style="fill:#B55B52;" points="408.149,408.831 400.175,408.831 397.048,390.365 405.022,390.365 		"/>
		<path style="fill:#263238;" d="M399.652,407.907h8.958c0.326,0,0.597,0.226,0.653,0.545l1.237,7.088
			c0.128,0.735-0.483,1.431-1.235,1.418c-3.125-0.054-4.635-0.237-8.575-0.237c-2.424,0-8.961,0.252-12.307,0.252
			c-3.273,0-3.626-3.309-2.242-3.609c6.208-1.344,10.142-3.197,12.193-4.965C398.704,408.079,399.176,407.907,399.652,407.907z"/>
		<path style="fill:#263238;" d="M352.396,407.907h8.708c0.326,0,0.597,0.226,0.653,0.545l1.237,7.088
			c0.128,0.735-0.463,1.431-1.215,1.418c-3.139-0.053-7.669-0.237-11.617-0.237c-4.616,0-7.152,0.252-12.565,0.252
			c-3.273,0-4.024-3.309-2.64-3.609c6.303-1.365,9.94-1.511,15.489-4.834C351.049,408.167,351.708,407.907,352.396,407.907z"/>
		<path style="fill:#B55B52;" d="M359.504,160.506l-10.895-3.182c0,0-11.583,29.023-14.435,32.014
			c-3.88,4.071-7.787,12.762-14.128,20.036c0.444,1.282,2.545,4.17,3.662,4.64c8.502-5.829,19.031-15.531,21.173-20.236
			C349.764,183.05,359.504,160.506,359.504,160.506z"/>
		<path style="fill:#407BFF;" d="M362.802,155.533c3.096,6.896-6.082,21.543-6.082,21.543l-16.301-7.074
			c0,0,3.03-10.912,7.96-19.704C353.443,141.27,359.405,147.965,362.802,155.533z"/>
		<path style="opacity:0.4;fill:#FFFFFF;" d="M362.802,155.533c3.096,6.896-6.082,21.543-6.082,21.543l-16.301-7.074
			c0,0,3.03-10.912,7.96-19.704C353.443,141.27,359.405,147.965,362.802,155.533z"/>
		<path style="fill:#B55B52;" d="M322.65,207.212l-8.239,4.064l6.567,7.875c0,0,1.931-1.271,4.135-6.682L322.65,207.212z"/>
		<path style="fill:#B55B52;" d="M311.264,220.77l1.708,1.424c1.166,0.972,2.852,0.997,4.046,0.061l3.96-3.104l-6.567-7.875
			l-3.699,5.143C309.726,217.79,309.967,219.69,311.264,220.77z"/>
		<g>
			<g>
				<path style="fill:#FFFFFF;" d="M324.925,285.244l-77.827,23.437c-6.905,2.079-14.188-1.832-16.267-8.737l-20.452-67.916
					c-2.079-6.905,1.833-14.188,8.737-16.267l77.827-23.437c6.905-2.079,14.187,1.833,16.267,8.737l20.452,67.916
					C335.741,275.882,331.829,283.165,324.925,285.244z"/>
				<path style="opacity:0.5;fill:#407BFF;" d="M324.925,285.244l-77.827,23.437c-6.905,2.079-14.188-1.832-16.267-8.737
					l-20.452-67.916c-2.079-6.905,1.833-14.188,8.737-16.267l77.827-23.437c6.905-2.079,14.187,1.833,16.267,8.737l20.452,67.916
					C335.741,275.882,331.829,283.165,324.925,285.244z"/>
			</g>
			<g>
				<path style="fill:#407BFF;" d="M272.048,250.52l-31.985,14.915c-6.255-13.415-3.436-29.404,7.03-39.87
					c12.061-12.061,31.226-13.738,45.198-3.954L272.048,250.52z"/>
				<path style="fill:#FFFFFF;" d="M292.747,224.446c0.995,0.79,1.946,1.638,2.842,2.534c6.243,6.243,9.682,14.603,9.682,23.541
					c0,8.938-3.438,17.298-9.682,23.541c-6.243,6.243-14.604,9.682-23.541,9.682c-8.937,0-17.298-3.438-23.541-9.682
					c-2.281-2.281-4.204-4.859-5.733-7.684l30.119-14.045l0.486-0.226l0.307-0.439L292.747,224.446 M292.291,221.611l-20.243,28.91
					l-31.985,14.915c1.74,3.731,4.119,7.129,7.03,10.04c6.845,6.845,15.9,10.267,24.955,10.267c9.055,0,18.11-3.422,24.955-10.267
					c13.69-13.69,13.69-36.22,0-49.91C295.551,224.113,293.974,222.789,292.291,221.611L292.291,221.611z"/>
			</g>
		</g>
		<g>
			<polygon style="opacity:0.2;" points="352.388,390.37 352.342,399.888 360.319,399.888 360.365,390.37 			"/>
			<polygon style="opacity:0.2;" points="405.025,390.37 397.048,390.37 398.663,399.888 406.64,399.888 			"/>
		</g>
		<path style="fill:#407BFF;" d="M352.668,146.115c0,0-10.637,27.4-3.838,72.242c12.85,0,36.396,0,42.649,0
			c0.606-6.547-1.906-41.805,5.88-72.652c0,0-7.24-1.467-14.191-1.803c-5.437-0.263-13.318-0.437-18.13,0.001
			C358.695,144.478,352.668,146.115,352.668,146.115z"/>
		<path style="opacity:0.4;fill:#FFFFFF;" d="M352.668,146.115c0,0-10.637,27.4-3.838,72.242c12.85,0,36.396,0,42.649,0
			c0.606-6.547-1.906-41.805,5.88-72.652c0,0-7.24-1.467-14.191-1.803c-5.437-0.263-13.318-0.437-18.13,0.001
			C358.695,144.478,352.668,146.115,352.668,146.115z"/>
		<path style="opacity:0.2;" d="M387.731,153.32c-0.952,5.076,0.069,17.223,4.234,31.259c0.531-10.802,1.778-23.327,4.655-35.806
			l0.003-0.06C393.827,148.425,388.638,148.561,387.731,153.32z"/>
		<path style="fill:#B55B52;" d="M381.608,126.945c-1.422,5.833-2.335,13.063,1.561,16.956c0,0-2.627,5.917-13.466,5.917
			c-9.905,0-4.664-5.917-4.664-5.917c6.579-1.553,6.624-9.598,5.707-14.13L381.608,126.945z"/>
		<path style="fill:#FFFFFF;" d="M369.71,149.818c6.389,1.379,7.657,4.045,7.657,4.045s7.951-3.232,7.652-10.248
			c0,0-1.872-1.144-3.052-2.074C381.968,141.542,381.271,147.008,369.71,149.818z"/>
		<path style="fill:#FFFFFF;" d="M369.71,149.818c-5.168,0.32-7.569,2.707-7.569,2.707s-1.302-1.687,0.875-8.624
			c0,0,1.771-0.727,3.528-1.105C366.544,142.797,365.499,148.317,369.71,149.818z"/>
		<path style="opacity:0.2;" d="M370.74,129.776c0.548,2.655,0.755,6.519-0.501,9.577c0.964-0.141,1.958-0.435,2.948-0.892
			c3.75-1.73,5.687-4.451,7.762-8.488c0.191-1.034,0.413-2.047,0.656-3.026L370.74,129.776z"/>
		<g>
			<path style="fill:#B55B52;" d="M361.666,123.396c0.617,2.018,2.118,3.516,3.674,4.247c2.34,1.099,4.037-0.956,3.829-3.443
				c-0.188-2.238-1.632-5.507-4.193-5.56C362.452,118.587,360.96,121.089,361.666,123.396z"/>
			<path style="opacity:0.2;" d="M361.666,123.396c0.617,2.018,2.118,3.516,3.674,4.247c2.34,1.099,4.037-0.956,3.829-3.443
				c-0.188-2.238-1.632-5.507-4.193-5.56C362.452,118.587,360.96,121.089,361.666,123.396z"/>
		</g>
		<path style="fill:#263238;" d="M370.066,107.004c-3.217-1.178-8.398,10.641-1.218,11.329
			C376.028,119.02,374.908,108.778,370.066,107.004z"/>
		<path style="fill:#B55B52;" d="M386.679,119.836c-2.483,7.647-3.555,12.231-8.437,15.368c-7.344,4.718-15.824-0.886-15.63-9.019
			c0.174-7.32,4.206-18.595,12.465-20.049C383.213,104.703,389.162,112.189,386.679,119.836z"/>
		<path style="fill:#263238;" d="M369.71,111.198c-6.247-4.743-2.683-14.344,2.249-14.962c6.7-0.839,10.536,12.439,18.299,13.057
			c7.763,0.618,4.411,12.968-5.678,16.409c-3.711,1.265-4.29-3.441-0.585-9.969C381.605,116.286,373.322,113.94,369.71,111.198z"/>
		<path style="fill:#263238;" d="M369.636,127.927c2.516,0.199,4.083-1.261,4.154-1.329c0.076-0.073,0.08-0.192,0.01-0.266
			c-0.071-0.075-0.19-0.076-0.266-0.004c-0.018,0.017-1.8,1.682-4.554,1.126c-0.102-0.021-0.202,0.046-0.225,0.148
			c-0.023,0.102,0.041,0.201,0.143,0.222C369.152,127.874,369.399,127.908,369.636,127.927z"/>
		<path style="fill:#B55B52;" d="M387.899,129.129c-1.544,1.545-3.621,2.262-5.369,2.27c-2.629,0.012-3.133-2.523-1.723-4.656
			c1.269-1.919,4.166-4.239,6.478-3.228C389.564,124.513,389.664,127.362,387.899,129.129z"/>
		<path style="fill:#407BFF;" d="M376.862,218.356c0,0-1.082,10.023-2.474,23.617c-1.587,15.399-3.564,35.391-4.821,50.628
			c-0.002,0.077-0.014,0.142-0.016,0.207c-0.241,2.895-0.457,5.605-0.634,8.086c-1.784,24.846-5.954,97.153-5.954,97.153h-13.506
			c0,0-5.09-73.787-4.786-99.08c0.292-24.313,4.156-80.611,4.156-80.611H376.862z"/>
		<path style="fill:#263238;" d="M364.081,392.759c0.063,0-0.237,5.562-0.237,5.562h-15.569l-0.391-6.106L364.081,392.759z"/>
		<path style="opacity:0.2;" d="M374.387,241.973c-1.587,15.399-3.564,35.391-4.821,50.628c-0.002,0.077-0.014,0.142-0.016,0.207
			c-2.973-14.442-3.895-32.41-2.741-61.99L374.387,241.973z"/>
		<path style="fill:#407BFF;" d="M363.959,218.356c0,0,6.218,57.615,10.097,80.444c4.247,25,20.978,99.244,20.978,99.244h14.605
			c0,0-9.847-72.226-11.77-96.978c-2.087-26.864-6.39-82.711-6.39-82.711H363.959z"/>
		<path style="fill:#263238;" d="M409.847,393.091c0.063,0,0.506,5.229,0.506,5.229h-16.053l-1.171-5.834L409.847,393.091z"/>
		<path style="fill:#263238;" d="M374.561,119.476c-0.164,0.631-0.626,1.071-1.031,0.982c-0.406-0.089-0.601-0.672-0.437-1.303
			c0.164-0.631,0.626-1.071,1.031-0.982C374.529,118.262,374.725,118.845,374.561,119.476z"/>
		<path style="fill:#263238;" d="M367.549,117.943c-0.164,0.631-0.626,1.071-1.031,0.982c-0.406-0.089-0.601-0.672-0.437-1.303
			c0.164-0.631,0.626-1.071,1.031-0.982C367.518,116.729,367.713,117.313,367.549,117.943z"/>
		<path style="fill:#A02724;" d="M369.697,118.745c0,0-2.357,3.332-4.367,4.749c0.826,1.282,2.816,1.213,2.816,1.213
			L369.697,118.745z"/>
		<path style="fill:#263238;" d="M376.99,118.566c-0.108-0.032-0.198-0.114-0.235-0.229c-0.521-1.576-1.86-1.892-1.874-1.894
			c-0.191-0.035-0.321-0.246-0.266-0.45c0.054-0.204,0.262-0.332,0.464-0.288c0.072,0.015,1.751,0.409,2.396,2.365
			c0.065,0.196-0.045,0.413-0.243,0.487C377.149,118.587,377.065,118.588,376.99,118.566z"/>
		<path style="fill:#263238;" d="M392.28,112.575c0.042-0.155,0.154-0.287,0.317-0.345c2.225-0.805,2.622-2.726,2.624-2.746
			c0.042-0.274,0.338-0.467,0.631-0.398c0.292,0.069,0.484,0.361,0.428,0.65c-0.019,0.103-0.512,2.511-3.275,3.509
			c-0.276,0.1-0.591-0.047-0.703-0.327C392.256,112.804,392.251,112.684,392.28,112.575z"/>
		<path style="fill:#263238;" d="M396.88,114.402c-0.154,0.048-0.325,0.023-0.461-0.084c-1.869-1.452-3.705-0.761-3.723-0.752
			c-0.254,0.111-0.576-0.036-0.673-0.321c-0.097-0.284,0.046-0.602,0.32-0.709c0.097-0.039,2.397-0.908,4.715,0.895
			c0.232,0.18,0.276,0.525,0.099,0.769C397.086,114.3,396.987,114.369,396.88,114.402z"/>
		<path style="fill:#263238;" d="M365.058,115.139c-0.052-0.015-0.102-0.042-0.144-0.082c-0.149-0.139-0.152-0.378-0.006-0.535
			c1.457-1.566,3.167-1.325,3.239-1.314c0.2,0.023,0.337,0.223,0.296,0.431c-0.041,0.207-0.238,0.349-0.441,0.319l0,0
			c-0.057-0.009-1.392-0.182-2.556,1.068C365.342,115.138,365.19,115.177,365.058,115.139z"/>
		<path style="fill:#B55B52;" d="M402.089,156.594l-10.075,6.089c0,0,12.575,24.623,11.182,28.474
			c-1.894,5.24-4.776,16.741-8.133,22.521c0.321,1.275,2.17,4.223,3.263,4.757c8.007-5.509,16.832-23.23,16.823-28.24
			C415.129,178.771,402.089,156.594,402.089,156.594z"/>
		<path style="fill:#407BFF;" d="M397.359,145.704c7.492,1.097,14.884,27.239,14.884,27.239l-16.272,8.95
			c0,0-6.385-12.434-9.386-21.666C383.442,150.552,389.324,144.527,397.359,145.704z"/>
		<path style="opacity:0.4;fill:#FFFFFF;" d="M397.359,145.704c7.492,1.097,14.884,27.239,14.884,27.239l-16.272,8.95
			c0,0-6.385-12.434-9.386-21.666C383.442,150.552,389.324,144.527,397.359,145.704z"/>
		<path style="fill:#407BFF;" d="M396.949,409.299c-0.607,0-1.169-0.103-1.516-0.406c-0.275-0.24-0.39-0.577-0.343-0.999
			c0.034-0.314,0.208-0.463,0.349-0.534c0.894-0.451,3.399,1.127,3.682,1.309c0.062,0.041,0.093,0.116,0.077,0.192
			c-0.016,0.074-0.075,0.134-0.15,0.152C398.488,409.147,397.686,409.299,396.949,409.299z M395.843,407.65
			c-0.099,0-0.182,0.015-0.247,0.047c-0.052,0.027-0.113,0.075-0.129,0.221c-0.034,0.301,0.039,0.525,0.223,0.686
			c0.418,0.367,1.457,0.416,2.824,0.143C397.638,408.227,396.454,407.65,395.843,407.65z"/>
		<path style="fill:#407BFF;" d="M399.004,409.019c-0.031,0-0.062-0.007-0.089-0.022c-0.804-0.448-2.316-2.195-2.104-3.085
			c0.038-0.161,0.17-0.44,0.625-0.494c0.297-0.037,0.561,0.046,0.792,0.242c0.89,0.757,0.971,3.059,0.974,3.156
			c0.003,0.069-0.034,0.136-0.094,0.173C399.076,409.009,399.04,409.019,399.004,409.019z M397.55,405.786
			c-0.028,0-0.056,0.003-0.086,0.006c-0.247,0.03-0.274,0.143-0.285,0.19c-0.125,0.525,0.828,1.846,1.619,2.468
			c-0.061-0.673-0.251-2.014-0.822-2.499C397.845,405.841,397.705,405.786,397.55,405.786z"/>
		<path style="fill:#407BFF;" d="M349.013,409.301c-0.792,0-1.518-0.122-1.914-0.49c-0.252-0.233-0.356-0.543-0.309-0.919
			c0.028-0.224,0.144-0.398,0.335-0.502c0.993-0.544,4.121,1.084,4.475,1.272c0.069,0.037,0.106,0.115,0.09,0.195
			c-0.015,0.08-0.078,0.143-0.157,0.159C350.851,409.15,349.892,409.301,349.013,409.301z M347.649,407.65
			c-0.147,0-0.268,0.022-0.356,0.069c-0.077,0.043-0.116,0.103-0.128,0.202c-0.031,0.255,0.034,0.454,0.199,0.608
			c0.47,0.435,1.779,0.509,3.553,0.217C349.839,408.221,348.404,407.65,347.649,407.65z"/>
		<path style="fill:#407BFF;" d="M351.496,409.019c-0.026,0-0.052-0.006-0.077-0.016c-0.941-0.432-2.766-2.156-2.577-3.059
			c0.044-0.211,0.207-0.475,0.728-0.527c0.381-0.047,0.734,0.069,1.032,0.323c0.975,0.834,1.087,2.98,1.091,3.072
			c0.003,0.066-0.03,0.131-0.086,0.171C351.575,409.007,351.536,409.019,351.496,409.019z M349.706,405.786
			c-0.037,0-0.075,0.003-0.114,0.006c-0.342,0.035-0.37,0.168-0.379,0.212c-0.113,0.542,1.118,1.896,2.072,2.486
			c-0.072-0.627-0.295-1.912-0.935-2.458C350.157,405.868,349.945,405.786,349.706,405.786z"/>
		<path style="fill:#B55B52;" d="M396.409,213.319l-7.563-0.583l3.598,8.385c0,0,6.639,0.29,7.99-4.789L396.409,213.319z"/>
		<path style="fill:#B55B52;" d="M383.46,218.524l1.657,3.377c0.568,1.157,1.951,1.653,3.125,1.122l4.202-1.902l-3.598-8.385
			l-4.475,2.694C383.311,216.069,382.915,217.413,383.46,218.524z"/>
		<path style="fill:#B55B52;" d="M317.119,209.921c-2.045,0.838-6.384,1.724-7.95,1.736c-0.302,0.002-0.523,0.293-0.455,0.588
			c0.151,0.659,0.763,1.331,1.482,1.501c0.842,0.198,2.983,0.605,3.479,0.698c0.073,0.014,0.129,0.04,0.188,0.084
			c0.438,0.327,2.509,1.788,4.554,1.777c1.946-0.01-0.033-4.69-0.693-6.141C317.619,209.933,317.354,209.825,317.119,209.921z"/>
	</g>
</g>
<g id="Character_1">
	<g>
		<path style="fill:#FFC3BD;" d="M150.231,140.563c0.873,5.282,1.615,14.935-2.164,18.33c0,0,3.494,6.541,12.465,8.896
			c8.282-4.2,3.856-8.41,3.856-8.41c-5.814-1.573-5.534-5.913-4.393-9.963L150.231,140.563z"/>
		<path style="fill:#FFC3BD;" d="M138.298,172.161c-0.62,5.063-1.421,9.994-2.403,14.96c-0.953,4.96-2.077,9.902-3.518,14.843
			c-0.727,2.473-1.562,4.97-2.477,7.298c-0.891,2.356-1.819,4.679-2.776,6.99c-1.91,4.623-3.932,9.189-6.12,13.703l-4.226-1.501
			c1.133-4.864,2.396-9.687,3.714-14.474c1.283-4.8,2.745-9.548,3.789-14.145c1.071-4.685,1.949-9.495,2.777-14.321
			c0.795-4.821,1.552-9.72,2.262-14.514L138.298,172.161z"/>
		<path style="fill:#407BFF;" d="M132.743,160.451c-3.52,1.339-6.991,15.568-6.991,15.568l13.975,10.643
			c0,0,5.03-13.862,3.203-18.405C141.027,163.525,136.76,158.923,132.743,160.451z"/>
		<path style="fill:#FFC3BD;" d="M117.637,226.767l-6.379,7.128l9,0.267c0,0,2.888-4.897,0.976-8.042L117.637,226.767z"/>
		<path style="opacity:0.2;fill:#407BFF;" d="M162.074,329.371l-80.491,11.29c-7.141,1.002-13.742-3.975-14.743-11.116
			l-9.852-70.241c-1.002-7.141,3.975-13.742,11.116-14.743l80.491-11.29c7.141-1.002,13.742,3.975,14.743,11.116l9.853,70.241
			C174.192,321.769,169.215,328.37,162.074,329.371z"/>
		<path style="fill:#FFFFFF;" d="M84.274,331.493c-4.232,0-7.936-3.124-8.541-7.432l-8.687-61.931
			c-0.32-2.283,0.268-4.554,1.655-6.395c1.388-1.841,3.409-3.031,5.692-3.351l70.304-9.861c4.712-0.668,9.084,2.635,9.745,7.347
			l8.687,61.931c0.32,2.283-0.268,4.554-1.656,6.395c-1.388,1.841-3.409,3.031-5.692,3.351l-70.304,9.861
			C85.074,331.465,84.671,331.493,84.274,331.493z M145.902,242.969c-0.373,0-0.751,0.026-1.13,0.079l-70.304,9.861
			c-2.143,0.301-4.04,1.418-5.343,3.145c-1.302,1.728-1.854,3.859-1.554,6.002l8.687,61.931c0.62,4.424,4.729,7.513,9.147,6.897
			l70.304-9.861c2.143-0.301,4.04-1.418,5.343-3.146c1.303-1.728,1.855-3.859,1.554-6.002l-8.687-61.931
			C153.352,245.901,149.874,242.969,145.902,242.969z"/>
		<polygon style="fill:#FFC3BD;" points="110.767,241.323 118.314,241.139 120.258,234.162 111.258,233.895 		"/>
		<path style="fill:#407BFF;" d="M180.123,166.271c0.196,5.601-0.775,18.67-6.66,49.11l-35.944-1.069
			c1.038-14.611,1.324-23.632-4.775-53.862c0,0,7.58-1.414,15.323-1.557c6.057-0.112,11.019-0.157,16.322,0.486
			c4.159,0.505,8.641,1.369,11.589,1.986C178.323,161.857,180.039,163.876,180.123,166.271z"/>
		<path style="fill:#FFC3BD;" d="M179.597,167.935c1.679,4.815,3.185,9.61,4.591,14.475c1.432,4.848,2.743,9.738,3.937,14.669
			l0.437,1.854l0.217,0.927l0.108,0.464c0.012,0.034-0.048-0.109-0.049-0.098c-0.068-0.077,0.049,0.199,0.282,0.481
			c0.229,0.295,0.542,0.643,0.902,0.989c1.478,1.402,3.449,2.794,5.432,4.11c4.018,2.623,8.363,5.107,12.655,7.518l-1.698,4.15
			c-4.953-1.48-9.71-3.261-14.43-5.571c-2.361-1.181-4.685-2.43-7.046-4.267c-0.592-0.471-1.194-0.984-1.8-1.626
			c-0.597-0.653-1.24-1.399-1.802-2.631c-0.132-0.276-0.278-0.72-0.355-0.987l-0.134-0.445l-0.267-0.891l-0.536-1.781
			c-1.447-4.748-2.941-9.493-4.444-14.239l-4.574-14.194L179.597,167.935z"/>
		<path style="fill:#407BFF;" d="M176.22,161.425c6.622,1.409,8.765,15.355,8.765,15.355l-11.377,10.393
			c0,0-9.304-15.812-7.097-20.183C168.808,162.437,170.845,160.281,176.22,161.425z"/>
		<path style="fill:#FFC3BD;" d="M205.97,212.453l8.967,3.393l-7.293,4.847c0,0-4.325-2.562-4.006-6.144L205.97,212.453z"/>
		<polygon style="fill:#FFC3BD;" points="218.52,220.564 212.979,224.046 207.643,220.693 214.936,215.846 		"/>
		<path style="fill:#263238;" d="M170.144,130.97c0.058,0.712,0.483,1.258,0.948,1.22c0.465-0.038,0.795-0.646,0.737-1.358
			c-0.058-0.712-0.483-1.258-0.948-1.22C170.415,129.65,170.086,130.258,170.144,130.97z"/>
		<path style="fill:#263238;" d="M170.678,129.668l1.669-0.633C172.348,129.035,171.58,130.443,170.678,129.668z"/>
		<path style="fill:#ED847E;" d="M170.881,132.503c0,0,1.459,2.965,2.91,4.335c-0.868,0.954-2.498,0.684-2.498,0.684
			L170.881,132.503z"/>
		<path style="fill:#263238;" d="M167.379,129.32c0.176,0.012,0.348-0.088,0.418-0.26c0.731-1.798,3.16-2.381,3.184-2.386
			c0.226-0.052,0.366-0.278,0.314-0.503c-0.052-0.225-0.276-0.367-0.503-0.314c-0.117,0.027-2.879,0.692-3.772,2.888
			c-0.087,0.215,0.016,0.459,0.231,0.546C167.293,129.307,167.337,129.317,167.379,129.32z"/>
		<path style="fill:#FFC3BD;" d="M145.845,130.341c1.254,8.697,1.599,12.406,6.383,16.53c7.195,6.204,17.604,2.761,18.973-6.136
			c1.233-8.008-1.025-20.886-9.867-23.663C152.622,114.338,144.591,121.644,145.845,130.341z"/>
		<path style="fill:#263238;" d="M160.331,114.674c-3.887-4.764-22.191-4.499-16.955,7.763c-7.707,1.059-7.619,8.557-6.913,14.203
			c0.706,5.646-5.911,4.587-7.057,11.469c-1.147,6.881,1.783,7.556-3.056,13.013c-4.838,5.457,2.144,16.716,11.319,13.805
			c9.175-2.911,16.477,2.816,27.901,0.543c11.424-2.273,12.516-11.472,10.008-16.644c-2.341-4.826-5.583-5.54-4.885-10.144
			c1.029-6.793-3.441-13.344-7.41-15.428C167.974,128.705,182.17,114.939,160.331,114.674z"/>
		<path style="fill:#FFC3BD;" d="M163.653,134.461c0.684,1.372,1.846,2.218,2.928,2.492c1.629,0.413,2.389-1.373,1.892-3.157
			c-0.448-1.605-1.835-3.755-3.448-3.366C163.436,130.813,162.87,132.892,163.653,134.461z"/>
		<path style="fill:#407BFF;" d="M100.474,406.522c-0.876-0.089-1.67-0.307-2.081-0.76c-0.261-0.288-0.353-0.642-0.273-1.054
			c0.048-0.246,0.19-0.426,0.411-0.519c1.139-0.481,4.468,1.669,4.843,1.916c0.075,0.049,0.11,0.139,0.088,0.226
			c-0.021,0.086-0.095,0.15-0.184,0.158C102.515,406.561,101.444,406.62,100.474,406.522z M99.09,404.539
			c-0.162-0.017-0.297-0.006-0.397,0.036c-0.091,0.038-0.141,0.104-0.161,0.212c-0.054,0.279,0.002,0.506,0.171,0.693
			c0.485,0.535,1.926,0.766,3.912,0.641C101.465,405.418,99.924,404.624,99.09,404.539z"/>
		<path style="fill:#407BFF;" d="M103.237,406.489c-0.029-0.003-0.058-0.012-0.084-0.027c-1.002-0.581-2.885-2.693-2.621-3.674
			c0.062-0.232,0.26-0.509,0.844-0.509c0.431,0,0.808,0.161,1.118,0.478c1.014,1.035,0.975,3.427,0.973,3.528
			c-0.002,0.074-0.042,0.142-0.107,0.178C103.323,406.485,103.28,406.493,103.237,406.489z M101.502,402.704
			c-0.041-0.004-0.083-0.006-0.126-0.006c-0.385,0-0.425,0.15-0.438,0.199c-0.159,0.589,1.099,2.227,2.103,2.985
			c-0.033-0.701-0.181-2.153-0.846-2.832C101.994,402.845,101.767,402.731,101.502,402.704z"/>
		<polygon style="fill:#FFC3BD;" points="102.63,407.931 111.484,407.931 116.05,387.427 107.196,387.427 		"/>
		<path style="fill:#263238;" d="M102.657,405.944l9.852-1.374c0.359-0.05,0.634,0.165,0.663,0.518l0.646,7.856
			c0.067,0.815-0.675,1.699-1.501,1.799c-3.431,0.418-5.074,0.442-9.407,1.046c-2.665,0.372-7.115,1.183-10.832,1.183
			c-3.635,0-3.177-3.675-1.563-4.008c7.238-1.492,8.209-3.94,10.643-6.262C101.597,406.284,102.132,406.017,102.657,405.944z"/>
		<g style="opacity:0.2;">
			<polygon points="116.047,387.433 113.695,398.002 104.837,398.002 107.189,387.433 			"/>
		</g>
		<path style="fill:#263238;" d="M137.519,214.313c-9.708,13.707-15.331,64.049-18.82,90.964
			c-3.629,27.996-14.278,90.678-14.278,90.678h11.973c0,0,16.522-63.495,22.797-90.821c6.926-30.164,21.342-90.821,21.342-90.821
			S147.142,214.313,137.519,214.313z"/>
		<path style="opacity:0.2;" d="M147.53,237.61c-5.85,17.68-6.1,39.96-5.43,54.98c3.6-15.53,8.08-34.54,11.72-49.94L147.53,237.61z"
			/>
		<path style="fill:#407BFF;" d="M161.507,407.521c0.881,0,1.692-0.136,2.148-0.545c0.289-0.26,0.416-0.603,0.379-1.021
			c-0.023-0.25-0.146-0.443-0.356-0.558c-1.084-0.594-4.615,1.208-5.013,1.416c-0.079,0.041-0.124,0.128-0.111,0.216
			c0.013,0.088,0.079,0.159,0.167,0.176C159.472,407.354,160.531,407.521,161.507,407.521z M163.085,405.689
			c0.163,0,0.296,0.024,0.391,0.076c0.087,0.047,0.129,0.117,0.139,0.227c0.026,0.283-0.053,0.503-0.241,0.672
			c-0.537,0.483-1.994,0.567-3.957,0.242C160.632,406.323,162.246,405.689,163.085,405.689z"/>
		<path style="fill:#407BFF;" d="M158.761,407.208c0.029,0,0.059-0.006,0.086-0.019c1.056-0.477,3.143-2.387,2.98-3.389
			c-0.038-0.238-0.207-0.533-0.788-0.592c-0.429-0.043-0.821,0.078-1.161,0.362c-1.113,0.927-1.318,3.31-1.326,3.411
			c-0.006,0.074,0.027,0.146,0.088,0.188C158.676,407.196,158.718,407.208,158.761,407.208z M160.87,403.619
			c0.041,0,0.083,0.002,0.126,0.007c0.383,0.039,0.408,0.192,0.416,0.242c0.098,0.602-1.319,2.104-2.395,2.756
			c0.104-0.694,0.398-2.124,1.129-2.732C160.367,403.709,160.604,403.619,160.87,403.619z"/>
		<polygon style="fill:#FFC3BD;" points="149.944,407.931 158.798,407.931 158.365,387.427 149.511,387.427 		"/>
		<path style="fill:#263238;" d="M159.657,406.906h-9.947c-0.362,0-0.656,0.251-0.707,0.605l-1.133,7.87
			c-0.117,0.816,0.585,1.589,1.42,1.575c3.468-0.06,5.139-0.263,9.514-0.263c2.691,0,10.421,0.28,14.137,0.28
			c3.635,0,3.914-3.675,2.367-4.008c-6.939-1.492-11.833-3.55-14.17-5.514C160.716,407.097,160.187,406.906,159.657,406.906z"/>
		<g style="opacity:0.2;">
			<polygon points="158.364,387.433 158.589,398.002 149.73,398.002 149.506,387.433 			"/>
		</g>
		<path style="fill:#263238;" d="M173.463,215.382c0,0-3.67,66.643-6.207,93.531c-2.638,27.968-6.962,87.043-6.962,87.043h-11.973
			c0,0-2.621-60.144-0.674-87.678c2.122-30.017-5.736-71.654-0.505-93.678C152.01,214.599,173.463,215.382,173.463,215.382z"/>
		<polygon style="fill:#407BFF;" points="147.284,396.384 161.332,396.384 162.027,390.859 146.708,391.952 		"/>
		<polygon style="fill:#407BFF;" points="103.586,396.384 117.634,396.384 119.041,390.509 103.398,391.965 		"/>
		<path style="fill:#407BFF;" d="M137.044,212.187l-1.015,3.19c-0.133,0.246,0.155,0.509,0.57,0.521l36.994,1.1
			c0.324,0.01,0.597-0.141,0.624-0.344l0.42-3.208c0.029-0.222-0.246-0.419-0.601-0.43l-36.399-1.083
			C137.369,211.927,137.129,212.029,137.044,212.187z"/>
		<g>
			<path style="fill:#263238;" d="M141.811,216.402l-0.975-0.029c-0.194-0.006-0.339-0.11-0.322-0.232l0.581-4.167
				c0.017-0.122,0.19-0.217,0.384-0.211l0.975,0.029c0.194,0.006,0.339,0.11,0.322,0.232l-0.581,4.167
				C142.178,216.313,142.005,216.408,141.811,216.402z"/>
			<path style="fill:#263238;" d="M170.843,217.266l-0.975-0.029c-0.194-0.006-0.339-0.11-0.322-0.232l0.581-4.167
				c0.017-0.122,0.19-0.217,0.384-0.211l0.975,0.029c0.194,0.006,0.339,0.11,0.322,0.232l-0.581,4.167
				C171.21,217.177,171.037,217.272,170.843,217.266z"/>
			<path style="fill:#263238;" d="M156.327,216.834l-0.975-0.029c-0.194-0.006-0.339-0.11-0.322-0.232l0.581-4.167
				c0.017-0.122,0.19-0.217,0.384-0.211l0.975,0.029c0.194,0.006,0.339,0.11,0.322,0.232l-0.581,4.167
				C156.694,216.745,156.521,216.84,156.327,216.834z"/>
		</g>
	</g>
</g>
</svg>
