<?xml version="1.0" encoding="utf-8"?>
<!-- Generator: Adobe Illustrator 27.5.0, SVG Export Plug-In . SVG Version: 6.00 Build 0)  -->
<svg version="1.1" xmlns="http://www.w3.org/2000/svg" xmlns:xlink="http://www.w3.org/1999/xlink" x="0px" y="0px"
	 viewBox="0 0 2500 2500" style="enable-background:new 0 0 2500 2500;" xml:space="preserve">
<g id="Background">
	<rect style="fill:#FFFFFF;" width="2500" height="2500"/>
</g>
<g id="Illustration">
	<g id="Unboxing_video_1_">
		<circle style="fill:#F2E6DC;" cx="1250" cy="1250" r="915"/>
		<g>
			<g>
				<g>
					<g>
						<g>
							
								<rect x="352.967" y="440.447" transform="matrix(-1 -1.224647e-16 1.224647e-16 -1 2272.1934 1991.5457)" style="fill:#363E44;" width="1566.26" height="1110.651"/>
							<rect x="402.112" y="489.589" style="fill:#F7F1EB;" width="1467.968" height="917.183"/>
							<path style="fill:#363E44;" d="M971.226,1574.63h46.37l0,0c0,34.784,28.198,62.982,62.982,62.982h111.037
								c34.784,0,62.982-28.198,62.982-62.982l0,0h46.368l46.37,246.424v20.609h-422.48v-20.609L971.226,1574.63z"/>
							<path style="fill:#363E44;" d="M1347.337,1869.629H924.856c-1.219,0-2.205-0.987-2.205-2.205
								c0-1.218,0.986-2.205,2.205-2.205h422.481c1.219,0,2.205,0.987,2.205,2.205
								C1349.542,1868.642,1348.556,1869.629,1347.337,1869.629z"/>
						</g>
					</g>
				</g>
			</g>
			<g>
				<g>
					<g>
						<path style="fill:#E2A18D;" d="M1161.832,709.171l-113.147,74.333l109.067,248.365c0,0,85.987-37.051,109.545-117.383
							C1290.855,834.155,1161.832,709.171,1161.832,709.171z"/>
						<path style="fill:#FFFFFF;" d="M383.416,781.364L547.149,924.28l22.827-27.114l5.529,215.26l525.025,8.96l-26.409-340.022
							l117.607-68.445c0,0-105.59-191.874-443.625-129.651C483.335,632.004,383.416,781.364,383.416,781.364z"/>
						<g>
							<rect x="636.611" y="840.263" style="fill:#EFBC73;" width="580.499" height="429.815"/>
							<path style="fill:#E0AA63;" d="M780.247,1247.326c-1.219,0-2.205-0.987-2.205-2.205V865.221c0-1.218,0.986-2.205,2.205-2.205
								c1.219,0,2.205,0.987,2.205,2.205v379.901C782.451,1246.339,781.465,1247.326,780.247,1247.326z"/>
							<path style="fill:#E0AA63;" d="M1039.448,1247.326c-1.219,0-2.205-0.987-2.205-2.205V992.38c0-1.218,0.986-2.205,2.205-2.205
								c1.219,0,2.205,0.987,2.205,2.205v252.741C1041.653,1246.339,1040.667,1247.326,1039.448,1247.326z"/>
							<g>
								<path style="fill:#F7F1EB;" d="M1094.461,979.317c-0.573,0-1.137-0.224-1.559-0.646l-28.232-28.231l-23.426,23.427
									c-0.827,0.827-2.291,0.827-3.118,0l-24.214-24.213l-27.916,27.918c-0.631,0.632-1.58,0.819-2.403,0.478
									c-0.825-0.341-1.361-1.146-1.361-2.037V845.959c0-1.218,0.986-2.205,2.205-2.205s2.205,0.987,2.205,2.205v124.73
									l25.711-25.712c0.827-0.827,2.291-0.827,3.118,0l24.214,24.213l23.426-23.427c0.827-0.827,2.291-0.827,3.118,0
									l26.027,26.026V845.959c0-1.218,0.986-2.205,2.205-2.205c1.219,0,2.205,0.987,2.205,2.205v131.153
									c0,0.891-0.536,1.696-1.361,2.037C1095.032,979.262,1094.745,979.317,1094.461,979.317z"/>
							</g>
						</g>
						<g>
							<g>
								<path style="fill:#E2A18D;" d="M522.859,968.507c-10.484-6.284-12.65-19.986,8.474-58.032L396.789,793.036
									c-36.533,54.096-92.676,184.893-0.169,280.609c46.141,47.741,223.251,119.245,238.387,128.199
									c12.243,7.824,40.411,25.941,46.606,17.516c8.437-11.476-18.743-35.159-18.817-37.041
									c8.928,6.323,39.662,26.024,47.134,16.716c5.743-7.154-18.74-35.672-24.587-43.069c0.779,0.143,32.45,29.243,41.872,18.399
									c8.02-9.23-14.297-37.068-19.264-44.856c8.772,5.317,37.885,21.184,39.93,10.469
									C754.865,1103.39,594.814,1011.639,522.859,968.507z"/>
							</g>
							<g>
								<path style="fill:#363E44;" d="M708.818,1130.965c-0.64,0-1.273-0.276-1.708-0.807c-3.82-4.663-7.999-9.1-12.419-13.188
									c-7.939-7.342-16.814-13.714-26.38-18.943c-1.068-0.583-1.462-1.924-0.878-2.992c0.583-1.07,1.925-1.463,2.993-0.877
									c9.885,5.402,19.057,11.988,27.259,19.575c4.571,4.224,8.888,8.811,12.837,13.63c0.773,0.942,0.633,2.331-0.308,3.103
									C709.804,1130.801,709.309,1130.965,708.818,1130.965z"/>
								<path style="fill:#363E44;" d="M686.229,1157.822c-0.558,0-1.115-0.21-1.546-0.632c-0.9-0.886-1.834-1.775-2.795-2.664
									c-7.936-7.339-16.812-13.713-26.38-18.943c-1.068-0.583-1.462-1.924-0.879-2.992c0.583-1.069,1.923-1.464,2.993-0.877
									c9.887,5.404,19.057,11.99,27.259,19.576c0.995,0.919,1.959,1.839,2.894,2.755c0.868,0.854,0.881,2.249,0.026,3.118
									C687.371,1157.601,686.8,1157.822,686.229,1157.822z"/>
								<path style="fill:#363E44;" d="M662.347,1183.891c-0.472,0-0.95-0.152-1.352-0.464c-5.577-4.337-11.571-8.266-17.815-11.679
									c-1.068-0.583-1.462-1.924-0.878-2.992c0.583-1.069,1.925-1.463,2.993-0.877c6.451,3.526,12.645,7.586,18.409,12.066
									c0.96,0.747,1.135,2.133,0.385,3.094C663.656,1183.599,663.006,1183.891,662.347,1183.891z"/>
							</g>
						</g>
						<g>
							<path style="fill:#E2A18D;" d="M1219.234,973.017c17.551,0.12,24.385,7.12,24.635,15.699
								c0.25,8.579-6.18,15.488-23.731,15.368c-17.551-0.12-39.577-7.224-39.827-15.803
								C1180.063,979.702,1201.683,972.897,1219.234,973.017z"/>
							<path style="fill:#E2A18D;" d="M1214.525,943.325c20.342,0.139,28.263,8.253,28.552,18.196
								c0.289,9.943-7.163,17.951-27.505,17.812c-20.341-0.14-45.87-8.374-46.159-18.316
								C1169.125,951.072,1194.184,943.185,1214.525,943.325z"/>
							<path style="fill:#E2A18D;" d="M1217.786,923.261c17.551,0.12,23.98-6.789,23.731-15.368
								c-0.25-8.579-7.084-15.579-24.635-15.699c-17.551-0.12-39.172,6.685-38.922,15.264S1200.235,923.141,1217.786,923.261z"/>
							<path style="fill:#E2A18D;" d="M1214.804,952.901c20.342,0.14,27.794-7.868,27.504-17.811
								c-0.289-9.943-8.211-18.056-28.552-18.196c-20.342-0.139-45.401,7.748-45.111,17.691
								C1168.934,944.527,1194.462,952.761,1214.804,952.901z"/>
						</g>
					</g>
					<g>
						<g>
							<path style="fill:#E2A18D;" d="M751.311,644.917l0.026,0.015c21.799,12.55,49.643,5.121,62.293-16.62l50.852-87.397
								c12.69-21.81,5.299-49.779-16.51-62.472h0c-21.808-12.693-49.776-5.306-62.473,16.5l-50.878,87.382
								C721.879,604.21,729.365,632.283,751.311,644.917z"/>
						</g>
						<circle style="fill:#B77250;" cx="711.375" cy="490.209" r="76.276"/>
						<path style="fill:#B77250;" d="M722.76,545.372c-11.814,0-23.562-2.7-34.483-8.054
							c-38.854-19.049-54.966-66.159-35.917-105.014c9.228-18.823,25.233-32.925,45.067-39.709
							c19.839-6.785,41.123-5.437,59.948,3.791c18.823,9.228,32.924,25.234,39.708,45.068c6.785,19.835,5.437,41.124-3.792,59.947
							c-9.228,18.822-25.233,32.924-45.068,39.708C739.896,543.958,731.31,545.372,722.76,545.372z M722.891,392.743
							c-8.072,0-16.174,1.335-24.035,4.024c-18.72,6.402-33.826,19.712-42.538,37.478c-17.977,36.672-2.771,81.135,33.901,99.113
							c17.766,8.709,37.857,9.981,56.578,3.578c18.719-6.402,33.826-19.712,42.537-37.478c8.709-17.764,9.98-37.858,3.576-56.578
							c-6.404-18.72-19.712-33.826-37.478-42.535C745.129,395.293,734.04,392.743,722.891,392.743z"/>
						<path style="fill:#B77250;" d="M694.868,549.08c-11.814,0-23.562-2.7-34.483-8.054c-18.823-9.228-32.924-25.234-39.708-45.069
							c-6.785-19.835-5.437-41.124,3.792-59.947c9.228-18.822,25.233-32.924,45.067-39.708c19.837-6.785,41.125-5.437,59.948,3.791
							c18.823,9.228,32.924,25.235,39.708,45.068c6.785,19.835,5.437,41.124-3.792,59.947
							c-9.228,18.822-25.233,32.924-45.067,39.708C712.005,547.665,703.418,549.08,694.868,549.08z M694.999,396.451
							c-8.072,0-16.174,1.335-24.036,4.024c-18.719,6.402-33.826,19.712-42.538,37.478c-8.709,17.764-9.98,37.858-3.576,56.578
							c6.403,18.719,19.712,33.826,37.478,42.535c17.766,8.709,37.859,9.98,56.578,3.578c18.719-6.402,33.826-19.712,42.538-37.478
							c8.709-17.764,9.98-37.858,3.576-56.577c-6.403-18.72-19.712-33.827-37.478-42.536
							C717.237,399,706.148,396.451,694.999,396.451z"/>
						<path style="fill:#E2A18D;" d="M840.154,362.344c4.144-0.125,43.842-0.731,65.83,27.849
							c16.361,21.266,16.771,47.194,10.882,90.785c-6.934,51.334-18.251,81.051-33.772,90.243
							c-24.523,14.522-92.412-26.121-115.846-72.903c-16.915-33.769-11.956-75.484,10.345-106.294
							C799.833,361.3,837.51,362.424,840.154,362.344z"/>
						<path style="fill:#363E44;" d="M843.306,573.446c-0.306,0-0.62-0.065-0.917-0.2c-29.175-13.381-63.046-45.859-77.113-73.941
							c-0.545-1.088-0.103-2.414,0.984-2.958c1.096-0.549,2.414-0.104,2.961,0.984c13.675,27.304,46.622,58.89,75.007,71.906
							c1.107,0.508,1.593,1.817,1.085,2.924C844.94,572.969,844.141,573.446,843.306,573.446z"/>
						<g>
							<path style="fill:#FFFFFF;" d="M830.92,455.358c0,0,14.352-3.285,29.423,0.863c3.206,0.882-9.902,24.877-12.546,22.586
								C836.171,468.737,830.92,455.358,830.92,455.358z"/>
							<path style="fill:#373E44;" d="M869.927,459.98c-3.134-1.655-6.365-2.851-9.566-3.734
								c-8.07,4.974-12.58,13.629-12.572,22.548c2.645,2.294,5.621,4.42,8.941,6.174c17.9,9.453,39.009,4.622,39.009,4.622
								S887.827,469.433,869.927,459.98z"/>
						</g>
						<path style="fill:#363E44;" d="M877.007,532.444c-3.484,0-6.858-1.425-9.147-4.081c-4.401-5.111-2.22-11.679-2.125-11.955
							c0.396-1.152,1.649-1.769,2.801-1.37c1.152,0.395,1.766,1.648,1.372,2.8c-0.013,0.04-1.447,4.465,1.294,7.647
							c2.198,2.55,6.031,3.284,9.33,1.781c1.107-0.508,2.416-0.018,2.922,1.091c0.504,1.108,0.017,2.416-1.092,2.921
							C880.637,532.063,878.807,532.444,877.007,532.444z"/>
						<path style="fill:#363E44;" d="M905.777,516.61c-0.853,0-1.664-0.497-2.026-1.33c-0.482-1.117,0.03-2.416,1.148-2.899
							c4.076-1.766,6.498-3.714,6.645-5.344c0.069-0.749-0.362-1.439-1.264-2.805c-0.827-1.251-1.854-2.807-2.691-5.035
							c-1.238-3.292-1.619-6.898-1.133-10.717c0.155-1.207,1.258-2.056,2.465-1.909c1.208,0.154,2.063,1.259,1.91,2.466
							c-0.396,3.098-0.097,5.994,0.885,8.608c0.663,1.764,1.503,3.035,2.244,4.155c1.075,1.629,2.188,3.313,1.977,5.633
							c-0.314,3.48-3.352,6.423-9.284,8.993C906.365,516.551,906.068,516.61,905.777,516.61z"/>
						<path style="fill:#B77250;" d="M871.349,397.509l13.513,39.509c17.84,0.721,35.68,1.444,53.521,2.167
							c-0.421-8.311-2.133-21.452-8.87-35.812c-12.276-26.166-33.011-38.852-38.991-42.399
							c-33.749-20.02-80.639-20.121-111.662,3.146c-1.555,1.167-8.553,6.504-16.047,16.044
							c-32.202,40.999-26.079,116.67-8.127,124.384c5.603,2.408,16.541-7.13,63.382-70.235c18.204,0.737,36.409,1.475,54.613,2.212
							L871.349,397.509z"/>
						<g>
							
								<ellipse transform="matrix(0.93 -0.3676 0.3676 0.93 -116.8207 326.6931)" style="fill:#E2A18D;" cx="799.147" cy="469.997" rx="27.561" ry="32.608"/>
							<path style="fill:#363E44;" d="M787.617,480.352c-0.743,0-1.469-0.376-1.884-1.056c-0.644-1.054-1.204-2.179-1.662-3.342
								c-1.817-4.598-2.007-9.54-0.53-13.917c1.52-4.509,4.612-7.883,8.705-9.501c2.078-0.823,4.285-1.139,6.55-0.939
								c1.214,0.107,2.11,1.176,2.005,2.389c-0.108,1.213-1.195,2.118-2.388,2.004c-1.582-0.138-3.111,0.079-4.545,0.647
								c-2.866,1.134-5.049,3.552-6.149,6.808c-1.143,3.39-0.982,7.257,0.454,10.89c0.366,0.929,0.812,1.825,1.324,2.663
								c0.635,1.039,0.306,2.395-0.732,3.031C788.405,480.247,788.008,480.352,787.617,480.352z"/>
						</g>
					</g>
				</g>
				<g>
					<g>
						<rect x="1380.712" y="799.338" style="fill:#FFD092;" width="427.35" height="316.892"/>
						<path style="fill:#E0AA63;" d="M1486.454,1100.034c-1.219,0-2.205-0.987-2.205-2.205V817.738c0-1.218,0.986-2.205,2.205-2.205
							c1.219,0,2.205,0.987,2.205,2.205v280.091C1488.659,1099.047,1487.673,1100.034,1486.454,1100.034z"/>
						<path style="fill:#E0AA63;" d="M1677.272,1100.034c-1.219,0-2.205-0.987-2.205-2.205V911.49c0-1.218,0.986-2.205,2.205-2.205
							c1.219,0,2.205,0.987,2.205,2.205v186.339C1679.477,1099.047,1678.491,1100.034,1677.272,1100.034z"/>
						<g>
							<path style="fill:#F7F1EB;" d="M1717.771,902.438c-0.575,0-1.139-0.224-1.561-0.647l-20.369-20.401l-16.833,16.859
								c-0.827,0.829-2.295,0.829-3.122,0l-17.412-17.438l-20.138,20.17c-0.631,0.632-1.578,0.82-2.405,0.479
								c-0.822-0.34-1.361-1.144-1.361-2.037v-95.885c0-1.218,0.986-2.205,2.205-2.205s2.205,0.987,2.205,2.205v90.556
								l17.933-17.961c0.827-0.829,2.295-0.829,3.122,0l17.412,17.438l16.833-16.859c0.413-0.414,0.975-0.647,1.561-0.647l0,0
								c0.586,0,1.148,0.233,1.561,0.647l18.164,18.192v-91.367c0-1.218,0.986-2.205,2.205-2.205s2.205,0.987,2.205,2.205v96.696
								c0,0.893-0.538,1.697-1.361,2.037C1718.341,902.383,1718.055,902.438,1717.771,902.438z"/>
						</g>
					</g>
					<g>
						<rect x="1497.015" y="594.508" style="fill:#E0AA63;" width="276.105" height="204.74"/>
						<path style="fill:#EFBC73;" d="M1565.332,789.565c-1.219,0-2.205-0.987-2.205-2.205V606.397c0-1.218,0.986-2.205,2.205-2.205
							c1.219,0,2.205,0.987,2.205,2.205V787.36C1567.537,788.577,1566.551,789.565,1565.332,789.565z"/>
						<path style="fill:#EFBC73;" d="M1688.619,789.565c-1.219,0-2.205-0.987-2.205-2.205V666.968c0-1.218,0.986-2.205,2.205-2.205
							c1.219,0,2.205,0.987,2.205,2.205V787.36C1690.824,788.577,1689.838,789.565,1688.619,789.565z"/>
						<g>
							<path style="fill:#F7F1EB;" d="M1714.784,661.9c-0.575,0-1.139-0.224-1.561-0.647l-12.609-12.628l-10.322,10.339
								c-0.827,0.829-2.295,0.829-3.122,0l-10.697-10.714l-12.458,12.478c-0.631,0.632-1.58,0.82-2.405,0.479
								c-0.823-0.34-1.361-1.144-1.361-2.037v-61.95c0-1.218,0.986-2.205,2.205-2.205s2.205,0.987,2.205,2.205v56.621l10.253-10.269
								c0.827-0.829,2.295-0.829,3.122,0l10.697,10.713l10.322-10.338c0.827-0.829,2.295-0.829,3.122,0l10.404,10.42v-57.146
								c0-1.218,0.986-2.205,2.205-2.205c1.219,0,2.205,0.987,2.205,2.205v62.474c0,0.893-0.538,1.697-1.361,2.037
								C1715.355,661.845,1715.068,661.9,1714.784,661.9z"/>
						</g>
					</g>
				</g>
				<g>
					<g>
						<g>
							<ellipse style="fill:#FFFFFF;" cx="1120.726" cy="1221.219" rx="86.557" ry="86.72"/>
						</g>
						<polygon style="fill:#D87355;" points="1171.73,1221.219 1090.222,1174.071 1090.222,1268.366 						"/>
					</g>
					<rect x="440.229" y="1328.494" style="fill:#FFFFFF;" width="1360.994" height="23.269"/>
					<g>
						<g>
							<ellipse style="fill:#FFFFFF;" cx="1364.769" cy="1221.219" rx="77.26" ry="77.405"/>
						</g>
						<polygon style="fill:#D87355;" points="1416.268,1221.219 1358.599,1187.861 1358.599,1254.576 						"/>
						<rect x="1329.7" y="1187.861" style="fill:#D87355;" width="11.64" height="66.715"/>
					</g>
					<g>
						<g>
							<ellipse style="fill:#FFFFFF;" cx="883.553" cy="1221.219" rx="77.26" ry="77.405"/>
						</g>
						<polygon style="fill:#D87355;" points="832.054,1221.219 889.722,1187.861 889.722,1254.576 						"/>
						
							<rect x="906.982" y="1187.861" transform="matrix(-1 -1.224647e-16 1.224647e-16 -1 1825.6031 2442.437)" style="fill:#D87355;" width="11.64" height="66.715"/>
					</g>
				</g>
				<g>
					<g>
						<path style="fill:#363E44;" d="M1564.324,962.438c-2.491,0-4.989-0.051-7.493-0.153
							c-48.034-1.953-92.432-22.495-125.018-57.842c-32.586-35.347-49.453-81.267-47.5-129.302
							c4.031-99.16,87.891-176.568,187.145-172.521c48.035,1.953,92.435,22.496,125.018,57.843
							c32.586,35.347,49.453,81.267,47.5,129.302c-1.953,48.036-22.494,92.435-57.842,125.019
							C1652.629,945.672,1609.625,962.438,1564.324,962.438z M1564.055,606.88c-93.554,0-171.5,74.125-175.337,168.44
							c-1.906,46.858,14.551,91.653,46.338,126.134s75.097,54.52,121.956,56.425c46.848,1.895,91.653-14.551,126.133-46.337
							c34.483-31.787,54.52-75.098,56.425-121.956l0,0c1.906-46.858-14.551-91.654-46.336-126.134
							c-31.787-34.481-75.099-54.521-121.958-56.426C1568.863,606.928,1566.452,606.88,1564.055,606.88z"/>
						<g>
							<path style="fill:#363E44;" d="M1339.093,982.481c-0.603,0-1.204-0.247-1.639-0.731c-0.816-0.905-0.741-2.298,0.164-3.113
								l26.346-23.692c0.904-0.815,2.3-0.742,3.113,0.166c0.816,0.905,0.741,2.299-0.164,3.113l-26.346,23.692
								C1340.146,982.295,1339.618,982.481,1339.093,982.481z"/>
							<path style="fill:#363E44;" d="M1347.35,991.596c-0.603,0-1.204-0.247-1.639-0.731c-0.816-0.905-0.741-2.3,0.164-3.114
								l26.346-23.692c0.906-0.815,2.297-0.741,3.113,0.166c0.816,0.905,0.741,2.299-0.164,3.113l-26.346,23.692
								C1348.403,991.41,1347.875,991.596,1347.35,991.596z"/>
							<path style="fill:#363E44;" d="M1293.384,1052.365c-0.256,0-0.515-0.005-0.773-0.017c-4.761-0.201-9.155-2.245-12.378-5.753
								l-2.855-3.106c0,0,0,0,0-0.001c-6.653-7.243-6.173-18.548,1.068-25.2l79.305-72.856c3.641-3.348,9.332-3.112,12.689,0.537
								l14.837,16.151c3.35,3.647,3.107,9.339-0.538,12.687l-79.305,72.856C1302.115,1050.711,1297.862,1052.365,1293.384,1052.365z
								 M1280.624,1040.506l2.855,3.106c2.427,2.642,5.736,4.179,9.319,4.331c3.563,0.149,7.009-1.1,9.65-3.527l79.305-72.856
								c1.856-1.704,1.979-4.601,0.276-6.457l-14.837-16.15c-1.707-1.859-4.603-1.978-6.457-0.275l-79.305,72.856
								C1275.978,1026.543,1275.616,1035.053,1280.624,1040.506L1280.624,1040.506z"/>
							<path style="fill:#363E44;" d="M1382.985,965.209c-0.594,0-1.188-0.24-1.623-0.713l-13.623-14.827
								c-0.396-0.432-0.605-1.002-0.579-1.587s0.282-1.136,0.713-1.531l48.715-44.629c0.898-0.82,2.289-0.763,3.113,0.135
								l13.621,14.828c0.396,0.431,0.605,1.001,0.579,1.586s-0.282,1.136-0.713,1.531l-48.713,44.628
								C1384.05,965.018,1383.516,965.209,1382.985,965.209z M1372.479,948.313l10.639,11.578l45.462-41.649l-10.636-11.58
								L1372.479,948.313z"/>
						</g>
						<path style="fill:#363E44;" d="M1456.118,667.166c-0.594,0-1.186-0.239-1.621-0.711c-0.825-0.896-0.769-2.29,0.127-3.116
							c47.86-44.12,117.09-55.253,176.377-28.356c1.109,0.503,1.6,1.81,1.098,2.919c-0.504,1.108-1.811,1.603-2.92,1.097
							c-57.668-26.162-125.012-15.335-171.567,27.583C1457.188,666.973,1456.652,667.166,1456.118,667.166z"/>
						<path style="fill:#363E44;" d="M1519.066,937.276c-0.205,0-0.413-0.029-0.622-0.091
							c-27.963-8.217-53.243-23.949-73.104-45.495c-0.825-0.896-0.769-2.29,0.127-3.116c0.898-0.825,2.291-0.768,3.116,0.127
							c19.32,20.958,43.907,36.26,71.105,44.253c1.167,0.343,1.837,1.569,1.492,2.737
							C1520.898,936.652,1520.019,937.276,1519.066,937.276z"/>
					</g>
				</g>
			</g>
		</g>
		<g>
			<g>
				<path style="fill:#84524D;" d="M1656.32,1456.974c17.41-36.607,30.785-56.411,54.122-64.582
					c31.363-10.982,61.696,9.479,64.831,11.663c2.001,1.394,31.644,19.502,33.333,54.414c1.216,25.144-7.31,50.118-23.349,68.695
					c-11.067,12.818-12.827,31.219-4.169,45.774l54.457,91.548c-2.479,24.356-24.232,42.092-48.588,39.613l-5.517-0.561
					c-24.356-2.479-72.978-21.211-70.5-45.567l-42.818-97.431c-15.319-2.865-27.087-8.587-31.19-16.911
					C1629.583,1528.717,1635.817,1500.083,1656.32,1456.974z"/>
				<path style="fill:#363E44;" d="M1667.546,1561.473c-1.047,0-1.974-0.746-2.166-1.81c-0.22-1.198,0.575-2.346,1.774-2.564
					l18.818-3.423c1.191-0.214,2.347,0.577,2.562,1.774c0.22,1.198-0.575,2.346-1.774,2.564l-18.818,3.423
					C1667.809,1561.461,1667.678,1561.473,1667.546,1561.473z"/>
				<path style="fill:#363E44;" d="M1698.487,1508.57c-0.605,0-1.21-0.249-1.645-0.738c-0.812-0.909-0.732-2.303,0.179-3.113
					c2.338-2.084,4.429-4.019,6.604-6.03c1.787-1.652,3.63-3.357,5.708-5.236c0.902-0.815,2.293-0.748,3.116,0.156
					c0.816,0.903,0.745,2.297-0.157,3.115c-2.065,1.868-3.897,3.561-5.673,5.203c-2.192,2.029-4.304,3.981-6.664,6.085
					C1699.533,1508.386,1699.01,1508.57,1698.487,1508.57z"/>
				<path style="fill:#EFBC73;" d="M1854.313,1479.934c6.408-19.284-4.031-40.112-23.316-46.52c-0.03-0.01-0.06-0.018-0.091-0.028
					c3.025-3.235,5.438-7.135,6.926-11.614c5.519-16.608-3.471-34.544-20.078-40.063c-3.47-1.153-6.993-1.639-10.453-1.587
					c4.354-16.1-4.538-32.988-20.565-38.313c-9.056-3.009-18.494-1.68-26.11,2.822c-3.001-11.766-11.736-21.81-24.114-25.923
					c-18.723-6.222-38.899,3.397-45.987,21.571c-0.866-0.377-1.746-0.732-2.66-1.036c-16.608-5.519-34.544,3.47-40.063,20.078
					c-5.519,16.607,3.47,34.544,20.078,40.063c0.479,0.159,0.963,0.265,1.444,0.4c-7.446,30.046,22.519,43.633,24.216,44.691
					c-7.888,12.302-15.775,24.606-23.662,36.909c4.658,3.128,10.117,7.209,14.775,10.337c7.562-13.165,14.909-16.839,23.244-15.675
					c13.127,1.833,21.044,16.947,18.25,29.478c-2.551,11.438-10.301,21.765-22.902,24.544c12.477,4.361,25.662,8.562,39.538,12.483
					c7.239,2.046,14.352,3.926,21.322,5.654c5.024-1.371,37.506-10.83,53.834-43.109
					C1833.902,1505.735,1849.022,1495.855,1854.313,1479.934z"/>
			</g>
			<g>
				<path style="fill:#8B865C;" d="M1554.302,1721.629l68.687,232.693l85.448,205.575h446.268c1.04-0.74,2.081-1.526,3.098-2.335
					v-367.015l-69.033-123.85L1987,1484.172c0,0-70.93,41.499-128.496,68.595
					C1801.699,1579.493,1554.302,1721.629,1554.302,1721.629z"/>
				<g>
					<path style="fill:#84524D;" d="M1120.028,1951.096c2.269-5.826,8.107-9.928,14.918-10.789
						c-0.618-0.536-8.914-7.971-7.386-19.02c1.162-8.408,7.53-15.43,16.102-17.687c-3.876-7.298-4.262-15.464-0.548-21.291
						c11.167-17.523,70.93,6.884,99.271,17.548c12.509,4.707,118.885,46.472,192.744,75.536l7.621-35.291
						c73.561,25.479,159.025,48.42,159.025,48.42c-15.219,89.843-49.703,133.028-49.703,133.028l0.001,0
						c-33.137,38.309-76.72,36.334-98.588,29.981c-56.379-16.378-106.354-35.648-213.414-88.939
						c-45.585-22.691-82.401-43.906-107.574-53.401c-7.866-5.124-12.021-13.874-10.547-22.119c1.33-7.441,6.759-11.757,8.323-12.915
						C1120.945,1969.474,1116.898,1959.134,1120.028,1951.096z"/>
					<path style="fill:#363E44;" d="M1481.476,1995.083c-0.254,0-0.513-0.045-0.767-0.138c-13.479-4.991-43.16-16.27-71.865-27.179
						c-28.639-10.883-58.253-22.138-71.693-27.112c-1.141-0.423-1.725-1.691-1.301-2.833c0.422-1.141,1.684-1.719,2.833-1.303
						c13.455,4.982,43.08,16.24,71.728,27.127c28.695,10.905,58.37,22.181,71.831,27.164c1.141,0.423,1.725,1.691,1.3,2.834
						C1483.214,1994.532,1482.372,1995.083,1481.476,1995.083z"/>
					<path style="fill:#363E44;" d="M1179.736,1908.503c-0.211,0-0.426-0.031-0.639-0.096c-1.165-0.353-1.824-1.584-1.471-2.75
						l3.865-12.753c0.353-1.163,1.578-1.822,2.75-1.469c1.165,0.354,1.824,1.585,1.471,2.751l-3.865,12.751
						C1181.558,1907.888,1180.684,1908.503,1179.736,1908.503z"/>
					<path style="fill:#363E44;" d="M1169.881,1940.846c-0.211,0-0.426-0.031-0.64-0.096c-1.165-0.353-1.824-1.584-1.471-2.75
						l3.865-12.753c0.353-1.164,1.58-1.825,2.75-1.47c1.165,0.354,1.824,1.585,1.471,2.751l-3.865,12.751
						C1171.703,1940.231,1170.829,1940.846,1169.881,1940.846z"/>
					<path style="fill:#363E44;" d="M1159.484,1973.67c-0.211,0-0.426-0.031-0.64-0.096c-1.165-0.353-1.824-1.584-1.471-2.75
						l3.865-12.752c0.353-1.164,1.583-1.825,2.75-1.471c1.165,0.353,1.824,1.584,1.471,2.75l-3.865,12.752
						C1161.306,1973.055,1160.431,1973.67,1159.484,1973.67z"/>
					<path style="fill:#363E44;" d="M1150.667,2003.632c-0.211,0-0.426-0.031-0.64-0.096c-1.165-0.353-1.824-1.584-1.471-2.75
						l3.865-12.752c0.353-1.163,1.582-1.823,2.749-1.471c1.165,0.353,1.824,1.584,1.471,2.75l-3.865,12.752
						C1152.488,2003.017,1151.614,2003.632,1150.667,2003.632z"/>
				</g>
				<g>
					<path style="fill:#8B865C;" d="M1630.683,2025.013l-220.988-72.258c0,0,10.393-164.295,183.567-254.346
						c110.104-57.254,86.949,261.655,86.949,261.655L1630.683,2025.013z"/>
					<path style="fill:#363E44;" d="M1649.436,1990.879c-0.37,0-0.745-0.093-1.089-0.29c-1.057-0.602-1.428-1.949-0.825-3.007
						l32.14-56.409c0.603-1.059,1.949-1.43,3.008-0.824c1.057,0.603,1.428,1.949,0.825,3.007l-32.14,56.409
						C1650.948,1990.479,1650.203,1990.879,1649.436,1990.879z"/>
				</g>
				<g>
					<g>
						<g>
							<g>
								<path style="fill:#84524D;" d="M1955.07,1355.093c0,0-100.749-81.673-169.178-101.188
									c-136.808-39.015-164.157-91.434-151.865-102.477c13.34-11.984,33.058,8.81,47.88,17.625
									c-0.789-2.869-1.426-11.708,4.963-17.861c9.455-9.106,18.896-4.664,19.923-4.609c-0.349-0.945-3.814-11.254,1.549-18.339
									c6.042-7.98,14.361-9.994,21.735-8.56c-0.79-2.378-2.782-11.509,2.565-18.182c5.5-6.864,15.106-8.234,23.453-6.144
									c39.825,9.968,70.012,15.16,91.19,24.437c41.675,18.255,183.789,79.538,235.802,122.261
									c34.618,35.922-1.964,99.486-56.786,120.424C1991.804,1375.656,1955.07,1355.093,1955.07,1355.093z"/>
								<g>
									<path style="fill:#363E44;" d="M1757.264,1124.876c-0.487,0-0.978-0.16-1.385-0.492c-0.947-0.766-1.094-2.154-0.327-3.101
										l8.961-11.061c0.769-0.945,2.155-1.095,3.101-0.325c0.947,0.766,1.094,2.154,0.327,3.1l-8.961,11.061
										C1758.542,1124.597,1757.907,1124.876,1757.264,1124.876z"/>
									<path style="fill:#363E44;" d="M1734.58,1153.058c-0.51,0-1.021-0.176-1.438-0.533c-0.924-0.795-1.027-2.187-0.233-3.11
										l10.501-12.208c0.794-0.924,2.185-1.026,3.109-0.235c0.922,0.793,1.027,2.185,0.233,3.109l-10.501,12.21
										C1735.816,1152.798,1735.2,1153.058,1734.58,1153.058z"/>
									<path style="fill:#363E44;" d="M1711.593,1179.412c-0.487,0-0.975-0.16-1.384-0.49c-0.945-0.765-1.094-2.154-0.327-3.1
										c1.69-2.092,3.228-3.966,4.767-5.843c1.501-1.829,3.004-3.66,4.653-5.699c0.764-0.945,2.151-1.095,3.1-0.327
										c0.947,0.765,1.094,2.153,0.327,3.1c-1.656,2.047-3.165,3.886-4.672,5.723c-1.533,1.869-3.064,3.734-4.748,5.817
										C1712.874,1179.132,1712.237,1179.412,1711.593,1179.412z"/>
									<path style="fill:#363E44;" d="M1695.16,1203.358c-0.437,0-0.878-0.129-1.264-0.401c-0.997-0.699-1.238-2.075-0.538-3.07
										l8.1-11.543c0.698-0.996,2.071-1.241,3.07-0.538c0.997,0.699,1.238,2.075,0.538,3.07l-8.1,11.543
										C1696.538,1203.031,1695.856,1203.358,1695.16,1203.358z"/>
								</g>
							</g>
						</g>
						<path style="fill:#84524D;" d="M1942.034,1321.209v194.805l179.82,91.111c3.394-115.565,2.119-243.236-26.334-341.816
							L1942.034,1321.209z"/>
					</g>
					<path style="fill:#8B865C;" d="M2117.856,1721.949c20.033-70.005,20.033-205.935,20.033-205.935l-205.221-72.787l-21.128,82.83
						L2117.856,1721.949z"/>
					<path style="fill:#363E44;" d="M2117.859,1724.154c-0.676,0-1.342-0.309-1.774-0.894l-63.436-85.705
						c-0.726-0.979-0.519-2.359,0.461-3.083c0.98-0.727,2.36-0.517,3.083,0.461l63.436,85.705c0.726,0.979,0.519,2.359-0.461,3.083
						C2118.774,1724.013,2118.313,1724.154,2117.859,1724.154z"/>
				</g>
			</g>
		</g>
		<g>
			<g>
				<path style="fill:#363E44;" d="M682.608,1761.77c-0.515,0-1.029-0.178-1.447-0.542c-0.919-0.799-1.016-2.191-0.217-3.11
					l15.186-17.463c0.801-0.922,2.192-1.015,3.111-0.216c0.919,0.799,1.016,2.191,0.217,3.11l-15.186,17.463
					C683.835,1761.514,683.224,1761.77,682.608,1761.77z"/>
				<path style="fill:#363E44;" d="M676.652,1819.854c-0.543,0-1.085-0.198-1.509-0.599c-0.887-0.834-0.93-2.23-0.097-3.117
					l19.456-20.693c0.835-0.888,2.233-0.929,3.116-0.096c0.887,0.834,0.93,2.23,0.097,3.117l-19.456,20.693
					C677.826,1819.62,677.238,1819.854,676.652,1819.854z"/>
				<path style="fill:#363E44;" d="M662.241,1894.076c-0.657,0-1.307-0.292-1.742-0.849c-0.747-0.961-0.575-2.346,0.385-3.095
					l29.203-22.752c0.958-0.749,2.345-0.576,3.094,0.384c0.747,0.961,0.575,2.346-0.385,3.095l-29.203,22.752
					C663.191,1893.924,662.715,1894.076,662.241,1894.076z"/>
				<path style="fill:#363E44;" d="M652.337,1947.174c-0.706,0-1.399-0.338-1.826-0.966c-0.685-1.008-0.422-2.379,0.586-3.063
					l20.102-13.653c1.006-0.686,2.379-0.422,3.062,0.585c0.685,1.008,0.422,2.379-0.586,3.063l-20.102,13.653
					C653.194,1947.052,652.763,1947.174,652.337,1947.174z"/>
				<path style="fill:#363E44;" d="M635.303,2000.132c-0.816,0-1.6-0.453-1.983-1.235c-0.534-1.094-0.082-2.415,1.012-2.95
					l21.592-10.574c1.094-0.537,2.414-0.083,2.95,1.01c0.534,1.094,0.082,2.415-1.012,2.95l-21.592,10.574
					C635.958,2000.06,635.628,2000.132,635.303,2000.132z"/>
				
					<ellipse transform="matrix(0.2088 -0.978 0.978 0.2088 -1334.9587 2121.4744)" style="fill:#8B865C;" cx="643.616" cy="1885.757" rx="198.437" ry="117.442"/>
				<path style="fill:#776E42;" d="M685.047,1691.693c-0.206-0.044-0.416-0.047-0.619-0.084l-82.841,388.037
					c0.201,0.047,0.394,0.132,0.6,0.176c36.525,7.798,84.682-72.768,107.563-179.947
					C732.631,1792.696,721.572,1699.491,685.047,1691.693z"/>
				<path style="fill:#363E44;" d="M570.765,2034.65c-1.014,0-1.927-0.703-2.151-1.734c-8.938-40.935-6.492-99.886,6.716-161.738
					c14.349-67.213,39.125-126.439,66.274-158.433c0.792-0.93,2.181-1.04,3.109-0.255c0.928,0.788,1.042,2.18,0.254,3.108
					c-26.701,31.463-51.122,89.968-65.326,156.501c-13.078,61.259-15.529,119.531-6.72,159.875c0.261,1.19-0.493,2.365-1.684,2.625
					C571.079,2034.634,570.92,2034.65,570.765,2034.65z"/>
				<path style="fill:#363E44;" d="M649.049,2053.167c-0.463,0-0.93-0.145-1.328-0.446c-0.971-0.735-1.163-2.118-0.429-3.089
					c24.632-32.576,47.173-88.732,60.301-150.219c14.633-68.545,15.765-135.136,2.958-173.786c-0.383-1.155,0.243-2.403,1.4-2.786
					c1.156-0.383,2.403,0.243,2.786,1.399c13.039,39.351,11.954,106.826-2.834,176.094
					c-13.255,62.085-36.093,118.891-61.093,151.956C650.375,2052.866,649.716,2053.167,649.049,2053.167z"/>
				<path style="fill:#363E44;" d="M575.622,1798.294c-0.665,0-1.32-0.298-1.755-0.868l-22.651-29.682
					c-0.739-0.968-0.553-2.351,0.415-3.09c0.967-0.74,2.351-0.552,3.09,0.415l22.651,29.682c0.739,0.968,0.553,2.351-0.416,3.09
					C576.559,1798.147,576.088,1798.294,575.622,1798.294z"/>
				<path style="fill:#363E44;" d="M557.198,1871.659c-0.549,0-1.098-0.203-1.524-0.612l-38.968-37.305
					c-0.881-0.842-0.911-2.237-0.069-3.117c0.844-0.881,2.244-0.908,3.118-0.068l38.968,37.305c0.881,0.842,0.911,2.237,0.069,3.117
					C558.359,1871.431,557.777,1871.659,557.198,1871.659z"/>
				<path style="fill:#363E44;" d="M543.282,1923.903c-0.508,0-1.016-0.173-1.432-0.529l-28.019-23.927
					c-0.926-0.79-1.036-2.182-0.245-3.108c0.794-0.927,2.185-1.036,3.109-0.244l28.019,23.927c0.926,0.79,1.036,2.182,0.245,3.108
					C544.522,1923.64,543.904,1923.903,543.282,1923.903z"/>
				<path style="fill:#363E44;" d="M542.287,1980.284c-0.426,0-0.859-0.124-1.238-0.381l-32.545-22.133
					c-1.005-0.685-1.268-2.055-0.583-3.063c0.687-1.003,2.061-1.266,3.064-0.583l32.545,22.133c1.005,0.685,1.268,2.055,0.583,3.063
					C543.687,1979.946,542.994,1980.284,542.287,1980.284z"/>
				<path style="fill:#363E44;" d="M742.825,1774.635c-0.747,0-1.475-0.379-1.89-1.066c-0.629-1.043-0.293-2.397,0.749-3.027
					l25.349-15.293c1.04-0.628,2.396-0.294,3.027,0.749c0.629,1.043,0.293,2.397-0.749,3.027l-25.349,15.293
					C743.606,1774.533,743.212,1774.635,742.825,1774.635z"/>
				<path style="fill:#363E44;" d="M729.443,1908.433c-0.906,0-1.755-0.563-2.076-1.464c-0.411-1.147,0.187-2.408,1.335-2.819
					l50.804-18.141c1.143-0.408,2.409,0.189,2.816,1.335c0.411,1.147-0.187,2.408-1.335,2.819l-50.803,18.141
					C729.94,1908.391,729.688,1908.433,729.443,1908.433z"/>
				<path style="fill:#363E44;" d="M706.687,2001.681c-1.049,0-1.979-0.749-2.168-1.817c-0.213-1.199,0.583-2.344,1.783-2.558
					l38.744-6.913c1.217-0.213,2.345,0.587,2.558,1.783c0.213,1.199-0.583,2.344-1.783,2.558l-38.744,6.913
					C706.945,2001.67,706.816,2001.681,706.687,2001.681z"/>
				<path style="fill:#363E44;" d="M676.652,1819.854c-0.543,0-1.085-0.198-1.509-0.599c-0.887-0.834-0.93-2.23-0.097-3.117
					l19.456-20.693c0.835-0.888,2.233-0.929,3.116-0.096c0.887,0.834,0.93,2.23,0.097,3.117l-19.456,20.693
					C677.826,1819.62,677.238,1819.854,676.652,1819.854z"/>
				<path style="fill:#363E44;" d="M652.337,1947.174c-0.706,0-1.399-0.338-1.826-0.966c-0.685-1.008-0.422-2.379,0.586-3.063
					l20.102-13.653c1.006-0.686,2.379-0.422,3.062,0.585c0.685,1.008,0.422,2.379-0.586,3.063l-20.102,13.653
					C653.194,1947.052,652.763,1947.174,652.337,1947.174z"/>
				<path style="fill:#363E44;" d="M656.697,1756.24c-0.945,0-1.819-0.614-2.11-1.564l-6.731-22.142
					c-0.353-1.166,0.304-2.398,1.468-2.751c1.171-0.362,2.396,0.305,2.752,1.467l6.731,22.142c0.353,1.166-0.304,2.398-1.468,2.751
					C657.125,1756.209,656.908,1756.24,656.697,1756.24z"/>
				<path style="fill:#363E44;" d="M621.263,1885.327c-0.79,0-1.552-0.424-1.949-1.17l-17.367-32.696
					c-0.573-1.075-0.164-2.411,0.913-2.982c1.077-0.569,2.409-0.164,2.98,0.913l17.367,32.696c0.573,1.075,0.164,2.41-0.913,2.982
					C621.965,1885.245,621.611,1885.327,621.263,1885.327z"/>
				<path style="fill:#363E44;" d="M602.543,1993.137c-0.633,0-1.26-0.27-1.697-0.793l-15.391-18.47
					c-0.779-0.936-0.652-2.325,0.282-3.105c0.939-0.781,2.325-0.652,3.107,0.282l15.391,18.47c0.779,0.936,0.652,2.325-0.282,3.105
					C603.54,1992.969,603.041,1993.137,602.543,1993.137z"/>
			</g>
			<g>
				<path style="fill:#363E44;" d="M477.678,1850.774c-0.078,0-0.155-0.004-0.233-0.012c-1.212-0.128-2.091-1.213-1.961-2.423
					l1.912-18.156c0.127-1.212,1.221-2.082,2.422-1.963c1.212,0.128,2.091,1.213,1.961,2.423l-1.912,18.156
					C479.749,1849.932,478.793,1850.774,477.678,1850.774z"/>
				<path style="fill:#363E44;" d="M500.109,1891.004c-0.105,0-0.211-0.008-0.319-0.023c-1.204-0.174-2.039-1.293-1.865-2.498
					l3.21-22.175c0.172-1.207,1.279-2.037,2.498-1.867c1.204,0.174,2.039,1.293,1.865,2.498l-3.21,22.175
					C502.131,1890.213,501.188,1891.004,500.109,1891.004z"/>
				<path style="fill:#363E44;" d="M524.375,1945.492c-0.213,0-0.433-0.032-0.648-0.098c-1.163-0.359-1.817-1.591-1.46-2.756
					l8.578-27.918c0.357-1.161,1.593-1.816,2.756-1.46c1.163,0.359,1.817,1.591,1.46,2.756l-8.578,27.918
					C526.193,1944.881,525.318,1945.492,524.375,1945.492z"/>
				<path style="fill:#363E44;" d="M541.999,1984.288c-0.26,0-0.525-0.047-0.784-0.145c-1.139-0.433-1.71-1.706-1.277-2.844
					l6.813-17.918c0.431-1.138,1.707-1.707,2.844-1.277c1.139,0.433,1.71,1.706,1.277,2.844l-6.813,17.918
					C543.726,1983.745,542.888,1984.288,541.999,1984.288z"/>
				<path style="fill:#363E44;" d="M554.95,2026.217c-0.36,0-0.726-0.088-1.064-0.275c-1.066-0.589-1.453-1.93-0.863-2.996
					l9.17-16.603c0.586-1.064,1.925-1.452,2.995-0.865c1.066,0.589,1.453,1.93,0.863,2.996l-9.17,16.603
					C556.481,2025.806,555.727,2026.217,554.95,2026.217z"/>
				
					<ellipse transform="matrix(0.9209 -0.3899 0.3899 0.9209 -719.0525 352.7953)" style="fill:#776E42;" cx="509.574" cy="1947.761" rx="92.65" ry="156.546"/>
				<path style="fill:#8B865C;" d="M448.542,1803.603c-0.153,0.065-0.29,0.158-0.438,0.226l122.036,288.25
					c0.151-0.061,0.314-0.093,0.467-0.158c27.133-11.487,21.801-85.341-11.907-164.958
					C524.993,1847.345,475.674,1792.115,448.542,1803.603z"/>
				<path style="fill:#363E44;" d="M528.867,2077.725c-0.536,0-1.07-0.193-1.494-0.585c-24.346-22.453-49.477-61.717-68.954-107.722
					c-21.165-49.995-31.966-99.565-28.891-132.598c0.114-1.213,1.199-2.098,2.401-1.991c1.212,0.113,2.104,1.188,1.992,2.4
					c-3.012,32.341,7.663,81.115,28.559,130.471c19.241,45.448,43.982,84.156,67.882,106.199c0.896,0.825,0.952,2.22,0.127,3.116
					C530.053,2077.486,529.461,2077.725,528.867,2077.725z"/>
				<path style="fill:#363E44;" d="M587.837,2054.27c-0.028,0-0.056,0-0.082-0.001c-1.219-0.045-2.168-1.068-2.123-2.285
					c1.176-32.134-9.652-78.549-28.964-124.162c-21.525-50.843-50.864-94.317-76.57-113.454c-0.975-0.728-1.178-2.109-0.45-3.085
					c0.726-0.974,2.104-1.179,3.086-0.452c26.296,19.58,56.182,63.749,77.995,115.274c19.551,46.176,30.508,93.296,29.309,126.042
					C589.995,2053.335,589.017,2054.27,587.837,2054.27z"/>
				<path style="fill:#363E44;" d="M416.034,1876.88c-0.254,0-0.51-0.044-0.762-0.137l-21.919-8.067
					c-1.141-0.421-1.727-1.688-1.307-2.83c0.42-1.143,1.692-1.727,2.831-1.308l21.919,8.067c1.141,0.421,1.727,1.688,1.307,2.83
					C417.776,1876.326,416.931,1876.88,416.034,1876.88z"/>
				<path style="fill:#363E44;" d="M446.352,1978.533c-0.112,0-0.224-0.009-0.338-0.026l-42.062-6.478
					c-1.204-0.185-2.028-1.311-1.843-2.515c0.185-1.204,1.309-2.026,2.515-1.843l42.062,6.478c1.204,0.185,2.028,1.311,1.843,2.515
					C448.361,1977.753,447.422,1978.533,446.352,1978.533z"/>
				<path style="fill:#363E44;" d="M454.818,2055.898c-1.204,0-2.188-0.968-2.205-2.175c-0.017-1.218,0.958-2.218,2.175-2.235
					l31.046-0.423c0.011,0,0.022,0,0.03,0c1.204,0,2.188,0.968,2.205,2.175c0.017,1.218-0.958,2.218-2.175,2.235l-31.046,0.423
					C454.837,2055.898,454.827,2055.898,454.818,2055.898z"/>
				<path style="fill:#363E44;" d="M549.087,1870.275c-0.329,0-0.665-0.074-0.98-0.23c-1.09-0.543-1.535-1.866-0.993-2.956
					l13.119-26.372c0.543-1.089,1.867-1.533,2.956-0.993c1.09,0.543,1.535,1.866,0.993,2.956l-13.119,26.372
					C550.678,1869.827,549.899,1870.275,549.087,1870.275z"/>
				<path style="fill:#363E44;" d="M592.867,1962.758c-0.482,0-0.967-0.157-1.374-0.482c-0.952-0.759-1.107-2.147-0.347-3.098
					l18.138-22.714c0.76-0.949,2.147-1.108,3.098-0.347c0.952,0.759,1.107,2.147,0.347,3.098l-18.138,22.714
					C594.157,1962.474,593.515,1962.758,592.867,1962.758z"/>
				<path style="fill:#363E44;" d="M477.678,1850.774c-0.078,0-0.155-0.004-0.233-0.012c-1.212-0.128-2.091-1.213-1.961-2.423
					l1.912-18.156c0.127-1.212,1.221-2.082,2.422-1.963c1.212,0.128,2.091,1.213,1.961,2.423l-1.912,18.156
					C479.749,1849.932,478.793,1850.774,477.678,1850.774z"/>
				<path style="fill:#363E44;" d="M524.375,1945.492c-0.213,0-0.433-0.032-0.648-0.098c-1.163-0.359-1.817-1.591-1.46-2.756
					l8.578-27.918c0.357-1.161,1.593-1.816,2.756-1.46c1.163,0.359,1.817,1.591,1.46,2.756l-8.578,27.918
					C526.193,1944.881,525.318,1945.492,524.375,1945.492z"/>
				<path style="fill:#363E44;" d="M554.95,2026.217c-0.36,0-0.726-0.088-1.064-0.275c-1.066-0.589-1.453-1.93-0.863-2.996
					l9.17-16.603c0.586-1.064,1.925-1.452,2.995-0.865c1.066,0.589,1.453,1.93,0.863,2.996l-9.17,16.603
					C556.481,2025.806,555.727,2026.217,554.95,2026.217z"/>
				<path style="fill:#363E44;" d="M471.699,1903.03c-0.448,0-0.9-0.136-1.29-0.418l-18.155-13.129
					c-0.986-0.714-1.208-2.093-0.495-3.079c0.711-0.987,2.093-1.21,3.079-0.495l18.155,13.129c0.986,0.714,1.208,2.093,0.495,3.079
					C473.057,1902.713,472.384,1903.03,471.699,1903.03z"/>
				<path style="fill:#363E44;" d="M509.525,1998.037c-0.293,0-0.588-0.058-0.872-0.181l-17.608-7.579
					c-1.117-0.481-1.634-1.778-1.154-2.897c0.482-1.121,1.785-1.635,2.898-1.153l17.609,7.579c1.117,0.481,1.634,1.778,1.154,2.897
					C511.192,1997.537,510.378,1998.037,509.525,1998.037z"/>
			</g>
			<polygon style="fill:#D87355;" points="714.397,2160.29 440.75,2160.29 409.477,2027.019 745.67,2027.019 			"/>
			<path style="fill:#EFBC73;" d="M729.886,1647.229c0,33.088-21.38,59.911-47.755,59.911c-26.374,0-47.755-26.823-47.755-59.911
				l19.97,11.288l14.76-14.76l14.76,12.156l16.497-13.024l12.156,12.156L729.886,1647.229z"/>
		</g>
	</g>
</g>
</svg>
