<?xml version="1.0" encoding="utf-8"?>
<!-- Generator: Adobe Illustrator 27.5.0, SVG Export Plug-In . SVG Version: 6.00 Build 0)  -->
<svg version="1.1" xmlns="http://www.w3.org/2000/svg" xmlns:xlink="http://www.w3.org/1999/xlink" x="0px" y="0px"
	 viewBox="0 0 3710 3710" style="enable-background:new 0 0 3710 3710;" xml:space="preserve">
<g id="Background">
	<g>
		<g>
			<rect style="fill:#FFFFFF;" width="3710" height="3710"/>
		</g>
	</g>
</g>
<g id="Illustration">
	<g>
		<linearGradient id="SVGID_1_" gradientUnits="userSpaceOnUse" x1="3453.0212" y1="3272.3257" x2="1386.6241" y2="1464.2296">
			<stop  offset="0" style="stop-color:#B37CFF"/>
			<stop  offset="1" style="stop-color:#F895E7"/>
		</linearGradient>
		<path style="opacity:0.3;fill:url(#SVGID_1_);" d="M3101.071,2333.704c-266.896,629.345-977.844,981.909-1594.38,886.806
			c-100.323-15.476-375.36-61.573-618.868-279.047c-468.769-418.654-569.019-1247.644-190.877-1831.853
			c275.221-425.202,768.582-666.234,1237.372-654.177c100.977,2.597,487.965,18.602,828.06,299.445
			c49.953,41.25,160.13,139.272,259.426,294.778C3254.969,1414.81,3275.01,1923.551,3101.071,2333.704z"/>
		<g>
			<g>
				
					<linearGradient id="SVGID_00000054227806191039868040000011653074535310314173_" gradientUnits="userSpaceOnUse" x1="-5472.228" y1="1136.7014" x2="-7572.6943" y2="2736.011" gradientTransform="matrix(-1 0 0 1 -4605.7437 0)">
					<stop  offset="0" style="stop-color:#2B3582"/>
					<stop  offset="1" style="stop-color:#150E42"/>
				</linearGradient>
				<path style="fill:url(#SVGID_00000054227806191039868040000011653074535310314173_);" d="M3128.867,1134.071L754.695,1093.95
					c-95.585-1.615-172.306,80.367-166.625,178.053l81.721,1405.342c4.471,76.913,66.335,137.162,141.602,137.906l2282.153,22.569
					c56.369,0.559,102.941-44.893,105.088-102.555l54.602-1466.738C3255.938,1195.942,3199.817,1135.27,3128.867,1134.071z"/>
				
					<linearGradient id="SVGID_00000137090139893527584670000002317248480105429172_" gradientUnits="userSpaceOnUse" x1="3190.5134" y1="2954.8408" x2="-1944.7667" y2="-1159.4417">
					<stop  offset="0" style="stop-color:#FDF53F"/>
					<stop  offset="1" style="stop-color:#D93C65"/>
				</linearGradient>
				<path style="fill:url(#SVGID_00000137090139893527584670000002317248480105429172_);" d="M3092.473,1169.872l-2312.207-38.17
					c-93.091-1.537-167.809,76.46-162.277,169.4l79.587,1337.046c4.356,73.176,64.605,130.497,137.907,131.205l2222.589,21.473
					c54.898,0.53,100.256-42.712,102.347-97.572l53.176-1395.459C3216.227,1228.737,3161.573,1171.013,3092.473,1169.872z"/>
			</g>
			<path style="opacity:0.5;fill:#FFFFFF;" d="M3040.428,1207.672l-2223.261-36.348c-89.51-1.464-161.353,72.81-156.035,161.308
				l76.526,1273.187c4.189,69.68,62.12,124.264,132.602,124.939l2137.092,20.446c52.786,0.506,96.398-40.67,98.407-92.911
				l51.131-1328.807C3159.422,1263.724,3106.869,1208.758,3040.428,1207.672z"/>
			<g>
				<g style="opacity:0.49;">
					<path style="fill:#FFFFFF;" d="M2739.985,1981.679h250.433c34.215,0,61.474,28.624,59.8,62.799l-28.498,582.02
						c-1.563,31.889-27.874,56.943-59.801,56.943h-221.935c-33.066,0-59.871-26.806-59.871-59.871v-582.02
						C2680.115,2008.484,2706.919,1981.679,2739.985,1981.679z"/>
					<path style="fill:#FFFFFF;" d="M2137.62,1453.578l878.917,13.575c33.848,0.522,60.531,28.981,58.875,62.792l-14.635,298.883
						c-1.561,31.889-27.873,56.944-59.8,56.944h-864.283c-33.065,0-59.871-26.806-59.871-59.872v-312.456
						C2076.824,1480.015,2104.196,1453.063,2137.62,1453.578z"/>
					<path style="fill:#FFFFFF;" d="M2102.875,1995.738h409.297c33.066,0,59.872,26.805,59.872,59.872v582.02
						c0,33.065-26.805,59.871-59.872,59.871h-409.297c-33.065,0-59.871-26.806-59.871-59.871v-582.02
						C2043.005,2022.543,2069.81,1995.738,2102.875,1995.738z"/>
				</g>
				<g>
					<g style="opacity:0.64;">
						<path style="fill:#FFFFFF;" d="M1657.758,1830.657h244.998c15.379,0,27.845,12.467,27.845,27.845
							c0,15.378-12.466,27.843-27.845,27.843h-244.998c-15.378,0-27.845-12.465-27.845-27.843
							C1629.913,1843.124,1642.38,1830.657,1657.758,1830.657z"/>
						<path style="fill:#FFFFFF;" d="M1284.111,1830.657h244.998c15.378,0,27.844,12.467,27.844,27.845
							c0,15.378-12.465,27.843-27.844,27.843h-244.998c-15.379,0-27.844-12.465-27.844-27.843
							C1256.267,1843.124,1268.733,1830.657,1284.111,1830.657z"/>
						<path style="fill:#FFFFFF;" d="M1155.462,1886.345H910.464c-15.378,0-27.844-12.465-27.844-27.843
							c0-15.378,12.466-27.845,27.844-27.845h244.998c15.377,0,27.845,12.467,27.845,27.845
							C1183.307,1873.88,1170.839,1886.345,1155.462,1886.345z"/>
						<path style="fill:#FFFFFF;" d="M1657.758,1917.284h244.998c15.379,0,27.845,12.467,27.845,27.844v163.971
							c0,15.378-12.466,27.845-27.845,27.845h-244.998c-15.378,0-27.845-12.467-27.845-27.845v-163.971
							C1629.913,1929.75,1642.38,1917.284,1657.758,1917.284z"/>
						<path style="fill:#FFFFFF;" d="M1284.111,1917.284h244.998c15.378,0,27.844,12.467,27.844,27.844v163.971
							c0,15.378-12.465,27.845-27.844,27.845h-244.998c-15.379,0-27.844-12.467-27.844-27.845v-163.971
							C1256.267,1929.75,1268.733,1917.284,1284.111,1917.284z"/>
						<path style="fill:#FFFFFF;" d="M910.464,1917.284h244.998c15.377,0,27.845,12.467,27.845,27.844v163.971
							c0,15.378-12.468,27.845-27.845,27.845H910.464c-15.378,0-27.844-12.467-27.844-27.845v-163.971
							C882.62,1929.75,895.086,1917.284,910.464,1917.284z"/>
					</g>
				</g>
				<g>
					
						<rect x="1865.004" y="2453.88" transform="matrix(-1 -1.224647e-16 1.224647e-16 -1 3780.729 5137.3218)" style="fill:#FFFFFF;" width="50.72" height="229.562"/>
					
						<rect x="1780.258" y="2532.777" transform="matrix(-1 -1.224647e-16 1.224647e-16 -1 3611.2349 5216.2183)" style="fill:#FFFFFF;" width="50.72" height="150.665"/>
					
						<rect x="1695.51" y="2337.788" transform="matrix(-1 -1.224647e-16 1.224647e-16 -1 3441.739 5021.23)" style="fill:#FFFFFF;" width="50.72" height="345.654"/>
					
						<rect x="1610.762" y="2600.403" transform="matrix(-1 -1.224647e-16 1.224647e-16 -1 3272.2437 5283.8442)" style="fill:#FFFFFF;" width="50.719" height="83.039"/>
					
						<rect x="1526.014" y="2384" transform="matrix(-1 -1.224647e-16 1.224647e-16 -1 3102.7488 5067.4414)" style="fill:#FFFFFF;" width="50.72" height="299.442"/>
					
						<rect x="1441.266" y="2435.846" transform="matrix(-1 -1.224647e-16 1.224647e-16 -1 2933.2537 5119.2881)" style="fill:#FFFFFF;" width="50.721" height="247.596"/>
					
						<rect x="1356.52" y="2492.201" transform="matrix(-1 -1.224647e-16 1.224647e-16 -1 2763.7583 5175.6431)" style="fill:#FFFFFF;" width="50.719" height="191.24"/>
					
						<rect x="1271.772" y="2267.908" transform="matrix(-1 -1.224647e-16 1.224647e-16 -1 2594.2634 4951.3496)" style="fill:#FFFFFF;" width="50.719" height="415.534"/>
					
						<rect x="1187.024" y="2311.865" transform="matrix(-1 -1.224647e-16 1.224647e-16 -1 2424.7688 4995.3071)" style="fill:#FFFFFF;" width="50.72" height="371.576"/>
					
						<rect x="1102.276" y="2378.365" transform="matrix(-1 -1.224647e-16 1.224647e-16 -1 2255.2727 5061.8062)" style="fill:#FFFFFF;" width="50.72" height="305.077"/>
					
						<rect x="1017.53" y="2608.11" transform="matrix(-1 -1.224647e-16 1.224647e-16 -1 2085.7781 5291.5513)" style="fill:#FFFFFF;" width="50.719" height="75.332"/>
					
						<rect x="932.782" y="2461.77" transform="matrix(-1 -1.224647e-16 1.224647e-16 -1 1916.2827 5145.2114)" style="fill:#FFFFFF;" width="50.72" height="221.672"/>
				</g>
				<path style="opacity:0.54;fill:#FFFFFF;" d="M1783.008,2267.908h223.166c9.803,0,17.752,7.948,17.752,17.752
					c0,9.803-7.948,17.752-17.752,17.752h-223.166c-9.804,0-17.752-7.948-17.752-17.752
					C1765.256,2275.856,1773.204,2267.908,1783.008,2267.908z"/>
				<path style="opacity:0.54;fill:#FFFFFF;" d="M1783.008,2212.359h223.166c9.803,0,17.752,7.948,17.752,17.751
					c0,9.803-7.948,17.752-17.752,17.752h-223.166c-9.804,0-17.752-7.948-17.752-17.752
					C1765.256,2220.306,1773.204,2212.359,1783.008,2212.359z"/>
				<path style="opacity:0.54;fill:#FFFFFF;" d="M1380.404,2267.908h223.166c9.803,0,17.751,7.948,17.751,17.752
					c0,9.803-7.948,17.752-17.751,17.752h-223.166c-9.805,0-17.752-7.948-17.752-17.752
					C1362.652,2275.856,1370.599,2267.908,1380.404,2267.908z"/>
				<path style="opacity:0.54;fill:#FFFFFF;" d="M1380.404,2212.359h223.166c9.803,0,17.751,7.948,17.751,17.751
					c0,9.803-7.948,17.752-17.751,17.752h-223.166c-9.805,0-17.752-7.948-17.752-17.752
					C1362.652,2220.306,1370.599,2212.359,1380.404,2212.359z"/>
			</g>
		</g>
		<g>
			<g>
				
					<linearGradient id="SVGID_00000011027600910864020000000015136055478705361547_" gradientUnits="userSpaceOnUse" x1="239.0459" y1="2355.9519" x2="2308.0828" y2="623.8938">
					<stop  offset="0" style="stop-color:#53D8FF"/>
					<stop  offset="1" style="stop-color:#3840F7"/>
				</linearGradient>
				<path style="fill:url(#SVGID_00000011027600910864020000000015136055478705361547_);" d="M2523.392,1556.98H892.455
					c-36.09,0-65.346-29.256-65.346-65.346V740.536c0-35.687,28.63-64.773,64.312-65.338l1633.804-25.856
					c71.86-1.137,130.725,56.803,130.725,128.672v646.409C2655.949,1497.632,2596.601,1556.98,2523.392,1556.98z"/>
				
					<linearGradient id="SVGID_00000099626216246338536730000017842626975818961295_" gradientUnits="userSpaceOnUse" x1="1305.626" y1="1496.0439" x2="3401.6211" y2="-343.8489">
					<stop  offset="0" style="stop-color:#53D8FF"/>
					<stop  offset="1" style="stop-color:#3840F7"/>
				</linearGradient>
				<path style="fill:url(#SVGID_00000099626216246338536730000017842626975818961295_);" d="M2481.13,1523.298H948.517
					c-33.914,0-61.407-26.359-61.407-58.874V787.718c0-32.152,26.904-58.358,60.435-58.867l1535.307-23.295
					c67.528-1.025,122.844,51.177,122.844,115.928v582.385C2605.696,1469.828,2549.926,1523.298,2481.13,1523.298z"/>
				
					<linearGradient id="SVGID_00000127006847316770306090000013892475795535008136_" gradientUnits="userSpaceOnUse" x1="566.2531" y1="1776.9985" x2="2190.6763" y2="417.141">
					<stop  offset="0" style="stop-color:#53D8FF"/>
					<stop  offset="1" style="stop-color:#3840F7"/>
				</linearGradient>
				<path style="fill:url(#SVGID_00000127006847316770306090000013892475795535008136_);" d="M2656.243,876.361v-98.347
					c0-71.869-59.012-129.809-130.872-128.672L891.167,675.198c-35.682,0.564-64.713,29.652-64.713,65.338v135.825H2656.243z"/>
				
					<ellipse transform="matrix(0.2298 -0.9732 0.9732 0.2298 -58.8854 1520.684)" style="opacity:0.37;fill:#FFFFFF;" cx="931.291" cy="797.544" rx="23.962" ry="23.962"/>
			</g>
			<g>
				<g>
					<path style="opacity:0.74;fill:#FFFFFF;" d="M1218.61,1131.835c14.427-26.513,41.438-45.014,73.101-47.927l2.212-132.494
						c-90.211,0.584-167.824,53.667-202.567,131.192L1218.61,1131.835z"/>
					<path style="fill:#FFFFFF;" d="M1316.995,1084.914c42.615,7.375,75.753,42.776,79.71,85.905l130.625,7.775
						c-1.659-116.43-92.218-214.087-208.131-225.968L1316.995,1084.914z"/>
					<path style="opacity:0.74;fill:#FFFFFF;" d="M1395.695,1195.783c-7.719,43.904-46.263,76.893-92.89,76.316
						c-13.778-0.171-26.89-3.257-38.742-8.663l-70.679,112.569c32.664,17.769,69.958,27.919,109.421,28.095
						c117.477,0.524,212.781-87.641,223.531-200.738L1395.695,1195.783z"/>
					<path style="opacity:0.74;fill:#FFFFFF;" d="M1171.569,1362.532l70.86-112.653c-21.356-17.669-35.008-44.251-35.008-73.788
						c0-7.137,0.803-14.072,2.315-20.729l-127.389-49.077c-6.703,21.215-10.316,43.837-10.316,67.362
						C1072.03,1251.547,1111.534,1320.745,1171.569,1362.532z"/>
				</g>
				<g>
					<path style="fill:#FFFFFF;" d="M1704.75,1141.902c13.602-25.752,39.068-43.734,68.924-46.584l2.086-128.664
						c-85.055,0.647-158.21,52.249-190.951,127.532L1704.75,1141.902z"/>
					<path style="opacity:0.74;fill:#FFFFFF;" d="M1797.517,1096.279c40.192,7.135,71.449,41.496,75.183,83.383l123.25,7.485
						c-1.566-113.107-87.018-207.899-196.354-219.337L1797.517,1096.279z"/>
					<path style="opacity:0.74;fill:#FFFFFF;" d="M1871.747,1203.908c-7.281,42.645-43.638,74.699-87.611,74.154
						c-12.993-0.161-25.356-3.154-36.532-8.398l-66.635,109.32c30.793,17.247,65.954,27.097,103.167,27.264
						c110.805,0.494,200.731-85.166,210.875-195.039L1871.747,1203.908z"/>
					<path style="opacity:0.74;fill:#FFFFFF;" d="M1660.406,1365.906l66.8-109.399c-20.134-17.147-33.005-42.951-33.005-71.63
						c0-6.929,0.757-13.663,2.182-20.127l-120.065-47.571c-6.316,20.598-9.721,42.559-9.721,65.395
						C1566.597,1258.192,1603.823,1325.353,1660.406,1365.906z"/>
				</g>
				<g>
					<path style="opacity:0.74;fill:#FFFFFF;" d="M2163.442,1151.401c12.845-25.034,36.896-42.524,65.095-45.313l1.97-125.048
						c-80.328,0.702-149.399,50.903-180.306,124.071L2163.442,1151.401z"/>
					<path style="opacity:0.74;fill:#FFFFFF;" d="M2251.059,1107.006c37.969,6.909,67.502,40.289,71.03,81.004l116.482,7.216
						c-1.48-109.968-82.244-202.059-185.549-213.084L2251.059,1107.006z"/>
					<path style="fill:#FFFFFF;" d="M2321.189,1211.579c-6.88,41.455-41.229,72.625-82.77,72.111
						c-12.272-0.152-23.95-3.056-34.506-8.15l-62.928,106.253c29.078,16.755,62.285,26.324,97.434,26.48
						c104.686,0.467,189.676-82.826,199.265-189.654L2321.189,1211.579z"/>
					<path style="opacity:0.74;fill:#FFFFFF;" d="M2121.569,1369.089l63.079-106.327c-19.015-16.656-31.168-41.726-31.168-69.594
						c0-6.734,0.715-13.278,2.061-19.56l-113.355-46.154c-5.962,20.015-9.175,41.353-9.175,63.539
						C2033.01,1264.459,2068.15,1329.698,2121.569,1369.089z"/>
				</g>
			</g>
		</g>
		<g>
			
				<linearGradient id="SVGID_00000062157487341028707210000010844231268049174686_" gradientUnits="userSpaceOnUse" x1="7152.7012" y1="3085.4177" x2="6486.6445" y2="3809.9011" gradientTransform="matrix(1 0 0 1 -6061.9053 0)">
				<stop  offset="0" style="stop-color:#2B3582"/>
				<stop  offset="1" style="stop-color:#150E42"/>
			</linearGradient>
			<path style="fill:url(#SVGID_00000062157487341028707210000010844231268049174686_);" d="M880.255,3139.388
				c0,0-6.898,39.049-10.28,77.705c-1.322,15.106,10.325,28.224,25.478,28.855c51.477,2.144,161.589,6.312,201.101,4.549
				c5.94-0.265,9.824-6.346,7.626-11.87c-1.843-4.629-5.396-8.372-9.922-10.452l-181.885-83.594L880.255,3139.388z"/>
			
				<linearGradient id="SVGID_00000013152234500504805050000001741324019641106332_" gradientUnits="userSpaceOnUse" x1="6936.5093" y1="3139.2261" x2="6995.6714" y2="3139.2261" gradientTransform="matrix(1 0 0 1 -6061.9053 0)">
				<stop  offset="0" style="stop-color:#F9B776"/>
				<stop  offset="1" style="stop-color:#F47960"/>
			</linearGradient>
			<path style="fill:url(#SVGID_00000013152234500504805050000001741324019641106332_);" d="M874.604,3116.443l5.542,46.708
				c0,0,31.861,14.832,53.62-1.869l-13.194-52.053L874.604,3116.443z"/>
			
				<linearGradient id="SVGID_00000181801465266268371530000014083977476615971463_" gradientUnits="userSpaceOnUse" x1="7205.146" y1="2266.1052" x2="6638.396" y2="3034.262" gradientTransform="matrix(1 0 0 1 -6061.9053 0)">
				<stop  offset="0" style="stop-color:#2B3582"/>
				<stop  offset="1" style="stop-color:#150E42"/>
			</linearGradient>
			<path style="fill:url(#SVGID_00000181801465266268371530000014083977476615971463_);" d="M878.769,2238.303
				c-2.394,12.198-12.849,608.695,50.912,876.006c1.04,4.362-1.171,8.857-5.322,10.554c-9.779,3.996-28.951,9.781-51.928,10.553
				c-7.115,0.239-13.495-4.385-15.503-11.216c-18.226-62.021-105.561-372.76-116.955-669.599c-12.73-331.689,0-11.294,0-11.294
				l7.467-205.03L878.769,2238.303z"/>
			
				<linearGradient id="SVGID_00000034789201322373590170000016201804149326935681_" gradientUnits="userSpaceOnUse" x1="7003.2817" y1="2948.0488" x2="6337.2256" y2="3672.532" gradientTransform="matrix(1 0 0 1 -6061.9053 0)">
				<stop  offset="0" style="stop-color:#2B3582"/>
				<stop  offset="1" style="stop-color:#150E42"/>
			</linearGradient>
			<path style="fill:url(#SVGID_00000034789201322373590170000016201804149326935681_);" d="M671.027,3159.759
				c0,0-10.98,19.714-21.61,72.098c-1.919,9.461,4.691,18.515,14.298,19.459c16.998,1.672,43.165,3.822,64.126,3.677
				c9.663-0.066,17.204-8.48,16.039-18.073c-2.321-19.121-9.555-50.491-31.899-74.942L671.027,3159.759z"/>
			
				<linearGradient id="SVGID_00000119094105997033904530000010980894049859163018_" gradientUnits="userSpaceOnUse" x1="6723.2881" y1="3136.1926" x2="6774.3696" y2="3136.1926" gradientTransform="matrix(1 0 0 1 -6061.9053 0)">
				<stop  offset="0" style="stop-color:#F9B776"/>
				<stop  offset="1" style="stop-color:#F47960"/>
			</linearGradient>
			<path style="fill:url(#SVGID_00000119094105997033904530000010980894049859163018_);" d="M661.383,3099.681l12.95,70.636
				c0,0,12.804,9.524,38.132,2.62l-6.18-76L661.383,3099.681z"/>
			
				<linearGradient id="SVGID_00000091711886574784068630000018220003298163591325_" gradientUnits="userSpaceOnUse" x1="7104.1377" y1="2191.5803" x2="6537.3877" y2="2959.7368" gradientTransform="matrix(1 0 0 1 -6061.9053 0)">
				<stop  offset="0" style="stop-color:#2B3582"/>
				<stop  offset="1" style="stop-color:#150E42"/>
			</linearGradient>
			<path style="fill:url(#SVGID_00000091711886574784068630000018220003298163591325_);" d="M626.401,2256.607
				c-52.148,314.718,11.312,777.85,32.714,868.495c1.31,5.55,5.789,9.802,11.414,10.735c9.553,1.583,25.282,2.875,40.788-1.628
				c5.342-1.551,9.096-6.37,9.314-11.93c2.871-73.285-2.297-523.181,46.294-700.983c2.462-9.01,7.965-16.869,15.578-22.281
				l94.31-67.046l7.23-108.374L626.401,2256.607z"/>
			<g>
				
					<linearGradient id="SVGID_00000057124985394035794660000016399985059039374252_" gradientUnits="userSpaceOnUse" x1="6589.2583" y1="2147.8455" x2="7520.1821" y2="1477.8907" gradientTransform="matrix(1 0 0 1 -6061.9053 0)">
					<stop  offset="0" style="stop-color:#CB236D"/>
					<stop  offset="1" style="stop-color:#4C246D"/>
				</linearGradient>
				<path style="fill:url(#SVGID_00000057124985394035794660000016399985059039374252_);" d="M958.689,1660.279
					c-156.278-2.582-328.712,41.033-328.712,41.033c-46.583,271.812-8.146,585.327-8.146,585.327
					c120.986,31.728,257.466-19.398,257.466-19.398c20.109-113.611,113.931-433.349,113.931-433.349
					c76.357-9.476,139.258-31.507,191.059-60.632c-39.512-45.8-58.139-104.078-66.229-138.528
					C1062.802,1651.904,1006.891,1661.076,958.689,1660.279z"/>
				
					<linearGradient id="SVGID_00000061446136247809726520000000858666361264070318_" gradientUnits="userSpaceOnUse" x1="-2460.322" y1="1243.5996" x2="-2355.9377" y2="1541.8411" gradientTransform="matrix(-1 0 0 1 -1086.623 0)">
					<stop  offset="0" style="stop-color:#F9B776"/>
					<stop  offset="1" style="stop-color:#F47960"/>
				</linearGradient>
				<path style="fill:url(#SVGID_00000061446136247809726520000000858666361264070318_);" d="M1420.306,1430.09
					c-15.352-18.542-34.782-9.77-34.782-9.77c-22.998,97.145-143.583,175.911-267.468,214.412
					c8.09,34.45,26.717,92.728,66.229,138.528C1389.884,1657.661,1420.306,1430.09,1420.306,1430.09z"/>
			</g>
			<g>
				
					<linearGradient id="SVGID_00000176733673477198514130000016995840995494197384_" gradientUnits="userSpaceOnUse" x1="-2549.5405" y1="1274.826" x2="-2445.1567" y2="1573.0664" gradientTransform="matrix(-1 0 0 1 -1086.623 0)">
					<stop  offset="0" style="stop-color:#F9B776"/>
					<stop  offset="1" style="stop-color:#F47960"/>
				</linearGradient>
				<path style="fill:url(#SVGID_00000176733673477198514130000016995840995494197384_);" d="M1416.58,1434.805
					c1.607,5.107-16.995,12.883-27.948-8.003c-0.384-10.01-6.47-52.894-0.489-61.048c31.856-43.431,93.618-97.874,93.618-97.874
					c10.438,10.299,1.839,20.418,1.839,20.418l-29.962,31.212c6.267,11.325,13.911,20.885,17.494,34.583
					c2.714,10.374,1.054,21.46-4.186,30.901c-5.259,9.474-12.435,21.792-19.218,31.431
					C1434.889,1434.668,1416.58,1434.805,1416.58,1434.805z"/>
				
					<linearGradient id="SVGID_00000017478784739667469160000014132438435362805376_" gradientUnits="userSpaceOnUse" x1="-2469.3508" y1="1465.3713" x2="-2547.9788" y2="1306.76" gradientTransform="matrix(-1 0 0 1 -1086.623 0)">
					<stop  offset="0" style="stop-color:#F9B776"/>
					<stop  offset="1" style="stop-color:#F47960"/>
				</linearGradient>
				<path style="fill:url(#SVGID_00000017478784739667469160000014132438435362805376_);" d="M1440.534,1339.762l-27.304,23.146
					l-8.572,23.045l24.344,27.007c0,0,8.185-45.725,14.268-55.621C1449.354,1347.441,1446.199,1342.656,1440.534,1339.762z"/>
			</g>
			
				<linearGradient id="SVGID_00000044141000953485333050000012938252197971139738_" gradientUnits="userSpaceOnUse" x1="6466.5874" y1="1977.3916" x2="7397.5112" y2="1307.4369" gradientTransform="matrix(1 0 0 1 -6061.9053 0)">
				<stop  offset="0" style="stop-color:#CB236D"/>
				<stop  offset="1" style="stop-color:#4C246D"/>
			</linearGradient>
			<path style="fill:url(#SVGID_00000044141000953485333050000012938252197971139738_);" d="M689.919,1852.636l-59.942-151.323
				c0,0-145.972,99.182-169.979,224.933c27.581,2.031,77.771,9.206,126.897,34.011
				C597.691,1900.878,689.919,1852.636,689.919,1852.636z"/>
			
				<linearGradient id="SVGID_00000179622861190557009550000006424930069956782525_" gradientUnits="userSpaceOnUse" x1="6518.5762" y1="2023.8822" x2="6901.0762" y2="2023.8822" gradientTransform="matrix(1 0 0 1 -6061.9053 0)">
				<stop  offset="0" style="stop-color:#F9B776"/>
				<stop  offset="1" style="stop-color:#F47960"/>
			</linearGradient>
			<path style="fill:url(#SVGID_00000179622861190557009550000006424930069956782525_);" d="M817.482,1995.026
				c0,0-163.889,92.623-219.189,13.534c-11.481-16.423-14.226-32.743-11.398-48.303c-49.126-24.805-99.315-31.98-126.897-34.011
				c-7.238,37.911-3.411,78.23,18.865,118.981c96.865,177.193,360.307-9.792,360.307-9.792L817.482,1995.026z"/>
			<g>
				
					<linearGradient id="SVGID_00000022520683826498937100000005593395717472189365_" gradientUnits="userSpaceOnUse" x1="7016.7964" y1="1751.9365" x2="7227.1196" y2="2628.2852" gradientTransform="matrix(1 0 0 1 -6061.9053 0)">
					<stop  offset="0" style="stop-color:#2B3582"/>
					<stop  offset="1" style="stop-color:#150E42"/>
				</linearGradient>
				<path style="fill:url(#SVGID_00000022520683826498937100000005593395717472189365_);" d="M797.79,2112.203l89.446-312.362
					c1.015-3.546,4.039-6.132,7.704-6.559c16.206-1.89,63.163-7.198,117.382-11.784c65.308-5.524,141.15-10,186.47-6.192
					c6.443,0.541,10.337,7.356,7.472,13.152c-25.772,52.14-131.782,264.233-184.868,333.712c-1.76,2.302-4.479,3.647-7.376,3.621
					l-207.527-1.931C800.453,2123.802,796.128,2118.008,797.79,2112.203z"/>
				
					<linearGradient id="SVGID_00000052106258926652550370000004609307488336897211_" gradientUnits="userSpaceOnUse" x1="6872.6772" y1="1983.7773" x2="6991.8413" y2="1983.7773" gradientTransform="matrix(1 0 0 1 -6061.9053 0)">
					<stop  offset="0" style="stop-color:#F9B776"/>
					<stop  offset="1" style="stop-color:#F47960"/>
				</linearGradient>
				<path style="fill:url(#SVGID_00000052106258926652550370000004609307488336897211_);" d="M819.4,2036.736
					c0,0-12.459-51.234-7.434-69.411c5.027-18.177,14.764-41.547,47.223-36.354c32.459,5.193,70.747,18.867,70.747,18.867
					s-1.934,23.676-26.603,16.038l15.298,11.837c0,0-2.186,18.957-23.024,8.829l14.229,15.698c0,0-8.949,15.57-24.279,5.584
					C870.226,1997.836,862.877,2042.906,819.4,2036.736z"/>
			</g>
			
				<linearGradient id="SVGID_00000072985064869801977130000014838078005433923486_" gradientUnits="userSpaceOnUse" x1="6812.2832" y1="1614.9664" x2="6963.5107" y2="1614.9664" gradientTransform="matrix(1 0 0 1 -6061.9053 0)">
				<stop  offset="0" style="stop-color:#F9B776"/>
				<stop  offset="1" style="stop-color:#F47960"/>
			</linearGradient>
			<path style="fill:url(#SVGID_00000072985064869801977130000014838078005433923486_);" d="M800.393,1533.406l-49.725,143.802
				c-0.823,2.382,0.155,5.02,2.361,6.24c13.554,7.494,62.389,29.156,121.239-8.156c6.13-3.887,10.304-10.226,11.235-17.426
				l16.102-124.46H800.393z"/>
			<g>
				
					<linearGradient id="SVGID_00000080926350878570754070000001057510900031167162_" gradientUnits="userSpaceOnUse" x1="3381.113" y1="5842.9854" x2="3189.1001" y2="6097.0029" gradientTransform="matrix(0.817 -0.5767 0.5767 0.817 -5259.3599 -1428.4956)">
					<stop  offset="0" style="stop-color:#F9B776"/>
					<stop  offset="1" style="stop-color:#F47960"/>
				</linearGradient>
				<path style="fill:url(#SVGID_00000080926350878570754070000001057510900031167162_);" d="M902.805,1372.698
					c1.46,2.068,46.113,163.381,46.113,163.381l-92.65,23.539l-65.037-146.604C791.231,1413.014,878.364,1338.073,902.805,1372.698z
					"/>
				
					<linearGradient id="SVGID_00000178169059760571029810000016697355873967959955_" gradientUnits="userSpaceOnUse" x1="3234.47" y1="5904.2603" x2="3463.833" y2="5904.2603" gradientTransform="matrix(0.817 -0.5767 0.5767 0.817 -5259.3599 -1428.4956)">
					<stop  offset="0" style="stop-color:#2B3582"/>
					<stop  offset="1" style="stop-color:#150E42"/>
				</linearGradient>
				<path style="fill:url(#SVGID_00000178169059760571029810000016697355873967959955_);" d="M826.12,1435.288l28.193,79.856
					c0.362,1.024,0.846,1.971,1.471,2.859c3.826,5.436,18.36,23.173,35.6,7.196c15.643-14.497,30.136-27.495,43.519-29.854
					c6.01-1.06,11.831,2.607,13.457,8.489c4.053,14.657,12.576,47.855,15.58,77.828c0.609,6.083-3.59,11.579-9.595,12.72
					c-18.096,3.437-56.463,9.617-88.493,7.358c-4.34-0.306-8.16-2.909-9.97-6.866c-8.826-19.288-35.872-77.812-45.931-92.954
					c-9.441-14.213-32.586-13.814-42.293-12.954c-3.182,0.282-6.312-0.743-8.714-2.849c-8.492-7.444-24.653-26.447-1.919-49.197
					c4.758-4.761,4.63-12.442-0.274-17.054c-9.763-9.179-20.205-25.46-3.938-45.652c16.534-20.523,38.358-17.257,51.729-12.378
					c5.407,1.974,11.305-0.312,14.244-5.261c1.673-2.817,4.592-4.949,9.653-4.514c6.819,0.587,12.554-5.104,12.431-11.948
					c-0.237-13.148,4.471-29.76,27.28-36.858c40.472-12.597,65.712,26.503,68.212,55.68c2.5,29.177-42.157,40.339-68.416,38.371
					c-19.965-1.496-34.789,18.293-40.748,27.865C825.308,1428.202,824.931,1431.92,826.12,1435.288z"/>
				
					<linearGradient id="SVGID_00000137855090887410830080000006562536441245039277_" gradientUnits="userSpaceOnUse" x1="887.8242" y1="1425.9308" x2="486.8228" y2="1779.756">
					<stop  offset="0" style="stop-color:#F9B776"/>
					<stop  offset="1" style="stop-color:#F47960"/>
				</linearGradient>
				<path style="fill:url(#SVGID_00000137855090887410830080000006562536441245039277_);" d="M820.505,1530.892
					c0,0-6.537-50.651-27.608-53.133c-21.071-2.481-41.579,14.835-20.631,43.265
					C798.323,1556.388,820.505,1530.892,820.505,1530.892z"/>
			</g>
		</g>
		<g>
			<g>
				
					<linearGradient id="SVGID_00000015324454855382543430000003918498449275597202_" gradientUnits="userSpaceOnUse" x1="-5494.4204" y1="2643.1411" x2="-5795.0229" y2="3323.4531" gradientTransform="matrix(-1 0 0 1 -2522.6255 0)">
					<stop  offset="0" style="stop-color:#A737D5"/>
					<stop  offset="1" style="stop-color:#EF497A"/>
				</linearGradient>
				<path style="fill:url(#SVGID_00000015324454855382543430000003918498449275597202_);" d="M3076.531,2698.554
					c8.714,12.895,43.347,304.842,48.768,412.668c0.367,7.292-5.466,13.371-12.768,13.371c-6.296,0-11.654-4.586-12.625-10.807
					l-63.347-405.946L3076.531,2698.554z"/>
				
					<linearGradient id="SVGID_00000119823174115860222380000015465325933447230083_" gradientUnits="userSpaceOnUse" x1="-5246.2988" y1="2752.7766" x2="-5546.9014" y2="3433.0896" gradientTransform="matrix(-1 0 0 1 -2522.6255 0)">
					<stop  offset="0" style="stop-color:#A737D5"/>
					<stop  offset="1" style="stop-color:#EF497A"/>
				</linearGradient>
				<path style="fill:url(#SVGID_00000119823174115860222380000015465325933447230083_);" d="M2798.079,2698.554
					c-8.714,12.895-43.347,304.842-48.768,412.668c-0.367,7.292,5.466,13.371,12.767,13.371c6.296,0,11.654-4.586,12.625-10.807
					l63.347-405.946L2798.079,2698.554z"/>
				
					<linearGradient id="SVGID_00000069397968073440007150000015120514704656435375_" gradientUnits="userSpaceOnUse" x1="3007.5642" y1="2408.1633" x2="2881.1116" y2="2898.8003">
					<stop  offset="0" style="stop-color:#A737D5"/>
					<stop  offset="1" style="stop-color:#EF497A"/>
				</linearGradient>
				<path style="fill:url(#SVGID_00000069397968073440007150000015120514704656435375_);" d="M3128.922,2675.769l0.029,3.183
					c0.209,22.905-19.522,41.691-44.229,42.112l-292.803,4.98c-24.351,0.415-44.649-17.183-45.831-39.732l-0.153-2.913
					c-1.232-23.517,18.738-43.329,44.133-43.784l292.927-5.25C3108.066,2633.916,3128.71,2652.526,3128.922,2675.769z"/>
			</g>
			<g>
				<g>
					
						<linearGradient id="SVGID_00000074421742265611578950000011719045311464347317_" gradientUnits="userSpaceOnUse" x1="-5167.3013" y1="3099.7288" x2="-4954.9834" y2="3099.7288" gradientTransform="matrix(-1 0 0 1 -2522.6255 0)">
						<stop  offset="0" style="stop-color:#CB236D"/>
						<stop  offset="1" style="stop-color:#4C246D"/>
					</linearGradient>
					<path style="fill:url(#SVGID_00000074421742265611578950000011719045311464347317_);" d="M2559.299,3100.618
						c52.05,0,75.08-4.465,85.377-8.538c-2.001,8.548-9.614,15.296-19.235,15.296h-184.136c-6.201,0-10.115-5.935-8.633-11.31
						C2453.661,3097.755,2498.242,3100.618,2559.299,3100.618z"/>
					
						<linearGradient id="SVGID_00000042697426567183752180000017359678090709183365_" gradientUnits="userSpaceOnUse" x1="-5003.7192" y1="2691.468" x2="-5061.73" y2="3092.27" gradientTransform="matrix(-1 0 0 1 -2522.6255 0)">
						<stop  offset="0" style="stop-color:#CB236D"/>
						<stop  offset="1" style="stop-color:#4C246D"/>
					</linearGradient>
					<path style="fill:url(#SVGID_00000042697426567183752180000017359678090709183365_);" d="M2432.672,3096.067
						c0.298-1.084,0.737-2.15,1.508-3.134c14.026-17.908,42.203-46.031,80.531-45.492c56.149,0.79,75.726,6.882,119.36,0.342
						l10.293,34.12c1.049,3.478,1.068,6.951,0.312,10.178c-10.296,4.072-33.326,8.538-85.377,8.538
						C2498.242,3100.618,2453.661,3097.755,2432.672,3096.067z"/>
				</g>
				
					<linearGradient id="SVGID_00000018221660786251604290000006234419916814868105_" gradientUnits="userSpaceOnUse" x1="-5156.6958" y1="3035.7461" x2="-5099.249" y2="3035.7461" gradientTransform="matrix(-1 0 0 1 -2522.6255 0)">
					<stop  offset="0" style="stop-color:#F9B776"/>
					<stop  offset="1" style="stop-color:#F47960"/>
				</linearGradient>
				<path style="fill:url(#SVGID_00000018221660786251604290000006234419916814868105_);" d="M2621.435,3011.015l12.635,42.973
					c0,0-27.993,12.743-52.613,2.513l-4.834-37.231L2621.435,3011.015z"/>
				<g>
					
						<linearGradient id="SVGID_00000085939808763920095770000010043678019933754284_" gradientUnits="userSpaceOnUse" x1="-4834.292" y1="3057.6526" x2="-4662.8696" y2="3057.6526" gradientTransform="matrix(-1 0 0 1 -2522.6255 0)">
						<stop  offset="0" style="stop-color:#CB236D"/>
						<stop  offset="1" style="stop-color:#4C246D"/>
					</linearGradient>
					<path style="fill:url(#SVGID_00000085939808763920095770000010043678019933754284_);" d="M2239.79,3073.555
						c40.575,32.601,61.311,43.562,71.877,46.852c-6.889,5.378-17.03,5.845-24.529-0.18l-143.542-115.335
						c-4.834-3.884-4.185-10.94,0.32-14.182C2159.226,3005.167,2192.193,3035.312,2239.79,3073.555z"/>
					
						<linearGradient id="SVGID_00000128461696385371565410000015592846502560564614_" gradientUnits="userSpaceOnUse" x1="-4716.3794" y1="2733.0544" x2="-4774.3906" y2="3133.8579" gradientTransform="matrix(-1 0 0 1 -2522.6255 0)">
						<stop  offset="0" style="stop-color:#CB236D"/>
						<stop  offset="1" style="stop-color:#4C246D"/>
					</linearGradient>
					<path style="fill:url(#SVGID_00000128461696385371565410000015592846502560564614_);" d="M2143.915,2990.71
						c0.909-0.653,1.916-1.206,3.13-1.487c22.097-5.108,61.594-9.28,91.136,15.146c43.278,35.783,54.741,52.771,92.832,75.027
						l-13.245,32.918c-1.351,3.355-3.501,6.062-6.102,8.092c-10.566-3.29-31.302-14.251-71.877-46.852
						C2192.193,3035.312,2159.226,3005.167,2143.915,2990.71z"/>
				</g>
				
					<linearGradient id="SVGID_00000042018157367916607030000010858789041105047979_" gradientUnits="userSpaceOnUse" x1="-5474.3477" y1="2776.5308" x2="-5019.5923" y2="2776.5308" gradientTransform="matrix(-1 0 0 1 -2522.6255 0)">
					<stop  offset="0" style="stop-color:#2B3582"/>
					<stop  offset="1" style="stop-color:#150E42"/>
				</linearGradient>
				<path style="fill:url(#SVGID_00000042018157367916607030000010858789041105047979_);" d="M2891.729,2521.407
					c0,0-311.624,25.444-375.551,55.538c-63.927,30.094,52.168,451.873,52.168,451.873s17.404,8.376,56.128-3.663
					c0,0-39.71-311.257-10.161-378.75l337.408-55.188L2891.729,2521.407z"/>
				
					<linearGradient id="SVGID_00000069396432595887297880000013176262852237197223_" gradientUnits="userSpaceOnUse" x1="-4884.6006" y1="3040.5811" x2="-4816.0171" y2="3040.5811" gradientTransform="matrix(-1 0 0 1 -2522.6255 0)">
					<stop  offset="0" style="stop-color:#F9B776"/>
					<stop  offset="1" style="stop-color:#F47960"/>
				</linearGradient>
				<path style="fill:url(#SVGID_00000069396432595887297880000013176262852237197223_);" d="M2361.975,3020.149
					c-2.893,2.637-30.962,59.248-30.962,59.248s-31.249-6.761-37.622-26.537l28.118-51.094L2361.975,3020.149z"/>
				
					<linearGradient id="SVGID_00000158006893621288493120000004559135804879113391_" gradientUnits="userSpaceOnUse" x1="-5061.27" y1="2587.0623" x2="-5560.5166" y2="3153.1091" gradientTransform="matrix(-1 0 0 1 -2522.6255 0)">
					<stop  offset="0" style="stop-color:#2B3582"/>
					<stop  offset="1" style="stop-color:#150E42"/>
				</linearGradient>
				<path style="fill:url(#SVGID_00000158006893621288493120000004559135804879113391_);" d="M3079.417,2518.802
					c0,0,10.156,24.435,9.741,56.907c-0.573,44.907-36.677,81.348-81.532,83.587l-368.39,16.799
					c-7.78,0.355-14.362,5.739-16.312,13.279c-8.656,33.485-50.97,136.311-257.809,341.492c-5.502,5.459-14.076,6.388-20.629,2.249
					l-29.444-18.599c-3.091-1.953-4.077-6.005-2.23-9.16l214.495-366.284c11.267-18.592,29.376-32.023,50.438-37.407l313.983-80.26
					L3079.417,2518.802z"/>
				
					<linearGradient id="SVGID_00000114753320499614799070000001962315360522603708_" gradientUnits="userSpaceOnUse" x1="-5265.5571" y1="2074.1335" x2="-5231.7446" y2="1988.8673" gradientTransform="matrix(-1 0 0 1 -2522.6255 0)">
					<stop  offset="0" style="stop-color:#F9B776"/>
					<stop  offset="1" style="stop-color:#F47960"/>
				</linearGradient>
				<path style="fill:url(#SVGID_00000114753320499614799070000001962315360522603708_);" d="M2716.372,1946.636
					c0,0,39.464,69.775,79.7,103.578l-83.166,46.402c0,0-18.741-73.866-61.555-95.499L2716.372,1946.636z"/>
				
					<linearGradient id="SVGID_00000137828449068082325290000017261493624623353768_" gradientUnits="userSpaceOnUse" x1="-5405.416" y1="2267.9128" x2="-5033.0093" y2="2879.2817" gradientTransform="matrix(-1 0 0 1 -2522.6255 0)">
					<stop  offset="0" style="stop-color:#53D8FF"/>
					<stop  offset="1" style="stop-color:#3840F7"/>
				</linearGradient>
				<path style="fill:url(#SVGID_00000137828449068082325290000017261493624623353768_);" d="M3086.109,2521.407
					c0,0-99.452,24.237-194.379,0c0,0-132.831-178.562-184.22-227.162c0,0-81.97,129.348-264.42,147.679l-10.176-22.738
					c0,0,145.25-66.957,189.965-169.837c44.716-102.882,62.675-146.762,103.357-173.604c25.336-16.716,40.506-28.136,48.345-34.373
					c4.292-3.414,10.215-3.8,14.899-0.946C2832.653,2066.734,3035.798,2205.866,3086.109,2521.407z"/>
				
					<linearGradient id="SVGID_00000166644668052843831100000006811707984413275062_" gradientUnits="userSpaceOnUse" x1="2712.906" y1="2241.7844" x2="2762.0557" y2="2241.7844">
					<stop  offset="0" style="stop-color:#53D8FF"/>
					<stop  offset="1" style="stop-color:#3840F7"/>
				</linearGradient>
				<path style="fill:url(#SVGID_00000166644668052843831100000006811707984413275062_);" d="M2762.056,2198.219
					c0,0-17.68,46.091-49.15,87.132L2762.056,2198.219z"/>
				
					<linearGradient id="SVGID_00000085247384788475880590000007114662401810568362_" gradientUnits="userSpaceOnUse" x1="-4976.6851" y1="2405.7378" x2="-4818.2656" y2="2405.7378" gradientTransform="matrix(-1 0 0 1 -2522.6255 0)">
					<stop  offset="0" style="stop-color:#F9B776"/>
					<stop  offset="1" style="stop-color:#F47960"/>
				</linearGradient>
				<path style="fill:url(#SVGID_00000085247384788475880590000007114662401810568362_);" d="M2454.059,2407.31l-20.537-5.474
					l-62.353-14.439c-7.506-1.738-15.395-0.408-21.917,3.695l-53.613,33.731l148.057-0.25L2454.059,2407.31z"/>
				<g>
					
						<linearGradient id="SVGID_00000065033961842704853100000015756267819611222189_" gradientUnits="userSpaceOnUse" x1="-3194.3137" y1="1558.3336" x2="-3364.082" y2="1688.2323" gradientTransform="matrix(-0.9914 -0.1306 -0.1306 0.9914 -323.6269 -61.3823)">
						<stop  offset="0" style="stop-color:#F9B776"/>
						<stop  offset="1" style="stop-color:#F47960"/>
					</linearGradient>
					<path style="fill:url(#SVGID_00000065033961842704853100000015756267819611222189_);" d="M2653.713,1842.007
						c0,0-38.353,63.754-45.007,98.991c-6.654,35.238-17.338,57.263,22.766,69.819c40.103,12.557,77.375-3.335,100.765-36.227
						c0,0,36.528-50.619,32.885-73.801C2761.478,1877.61,2653.713,1842.007,2653.713,1842.007z"/>
					
						<linearGradient id="SVGID_00000178173738629268176690000010715627347980627121_" gradientUnits="userSpaceOnUse" x1="-3313.5842" y1="1455.7914" x2="-3159.8535" y2="1653.7192" gradientTransform="matrix(-0.9914 -0.1306 -0.1306 0.9914 -323.6269 -61.3823)">
						<stop  offset="0" style="stop-color:#2B3582"/>
						<stop  offset="1" style="stop-color:#150E42"/>
					</linearGradient>
					<path style="fill:url(#SVGID_00000178173738629268176690000010715627347980627121_);" d="M2721.561,1947.32l-5.189-0.684
						c0,0,27.157-41.036,9.387-51.215c-17.77-10.179-90.183-35.158-102.759-63.677c-12.124-27.493,6.011-58.554,27.876-65.034
						c1.383-0.41,2.843,0.407,3.344,1.76l1.284,3.463c0.879,2.371,4.198,2.466,5.212,0.15c0.962-2.198,4.107-2.29,5.098-0.106
						c3.875,8.544,15.49,23.136,50.314,34.426c49.413,16.019,80.193,40.927,76.405,76.035c-0.24,2.225,1.969,3.759,4.015,2.855
						c4.038-1.786,10.163-2.067,17.273,5.71c12.366,13.525,2.679,43.107-31.092,64.041c-1.605,0.995-1.891,3.258-0.457,4.486
						c5.052,4.326,12.161,13.972-10.689,22.57c-23.374,8.795-36.129,5.82-40.842,3.93c-1.268-0.509-1.992-1.821-1.731-3.162
						l6.002-30.764c0.311-1.592-0.785-3.115-2.392-3.327L2721.561,1947.32z"/>
					
						<linearGradient id="SVGID_00000024684881310045435970000011861805113674539668_" gradientUnits="userSpaceOnUse" x1="-3215.3723" y1="1530.8138" x2="-3385.1396" y2="1660.7117" gradientTransform="matrix(-0.9914 -0.1306 -0.1306 0.9914 -323.6269 -61.3823)">
						<stop  offset="0" style="stop-color:#F9B776"/>
						<stop  offset="1" style="stop-color:#F47960"/>
					</linearGradient>
					<path style="fill:url(#SVGID_00000024684881310045435970000011861805113674539668_);" d="M2719.431,1953.641
						c0,0,16.924-41.723,34.698-27.058c17.774,14.666-16.429,47.083-32.215,46.648L2719.431,1953.641z"/>
				</g>
			</g>
			<g>
				<g>
					
						<linearGradient id="SVGID_00000023969067701330844900000000916098789292189347_" gradientUnits="userSpaceOnUse" x1="25786.9863" y1="-22732.0527" x2="25363.3047" y2="-22322.4375" gradientTransform="matrix(1.388 -0.0686 0.0685 1.3855 2167.5483 -570.6171)">
						<stop  offset="0" style="stop-color:#9CFFFB"/>
						<stop  offset="1" style="stop-color:#9BFFFA"/>
					</linearGradient>
					<path style="fill:url(#SVGID_00000023969067701330844900000000916098789292189347_);" d="M2511.26,2453.867
						c-0.241,0.012-0.483,0.019-0.727,0.017l-316.298-0.316c-7.819-0.006-14.15-6.339-14.141-14.144
						c0.008-7.808,6.377-14.259,14.175-14.119l316.298,0.316c7.819,0.005,14.15,6.339,14.141,14.144
						C2524.698,2447.328,2518.741,2453.498,2511.26,2453.867z"/>
				</g>
			</g>
			<g>
				
					<linearGradient id="SVGID_00000181793956522738348790000003090079315982960811_" gradientUnits="userSpaceOnUse" x1="-4950.1045" y1="3164.9546" x2="-4918.4629" y2="3911.189" gradientTransform="matrix(-1 0 0 1 -2522.6255 0)">
					<stop  offset="0" style="stop-color:#53D8FF"/>
					<stop  offset="1" style="stop-color:#3840F7"/>
				</linearGradient>
				<path style="fill:url(#SVGID_00000181793956522738348790000003090079315982960811_);" d="M2370.423,2469.743
					c1.382,5.723,133.359,500.703,166.821,626.189c3.856,14.462-6.913,28.662-21.715,28.662c-10.321,0-19.316-7.11-21.815-17.245
					l-146.505-593.995L2370.423,2469.743z"/>
				
					<linearGradient id="SVGID_00000155861317562789228910000010088927352444494725_" gradientUnits="userSpaceOnUse" x1="-4733.8081" y1="3155.7813" x2="-4702.1665" y2="3902.0117" gradientTransform="matrix(-1 0 0 1 -2522.6255 0)">
					<stop  offset="0" style="stop-color:#53D8FF"/>
					<stop  offset="1" style="stop-color:#3840F7"/>
				</linearGradient>
				<path style="fill:url(#SVGID_00000155861317562789228910000010088927352444494725_);" d="M2298.153,2469.743
					c-1.382,5.723-133.359,500.703-166.82,626.189c-3.857,14.462,6.913,28.662,21.714,28.662c10.321,0,19.316-7.11,21.816-17.245
					l146.505-593.995L2298.153,2469.743z"/>
				
					<linearGradient id="SVGID_00000030475454953703840490000006667512438537253762_" gradientUnits="userSpaceOnUse" x1="-4827.8394" y1="3159.7703" x2="-4796.1978" y2="3906.0029" gradientTransform="matrix(-1 0 0 1 -2522.6255 0)">
					<stop  offset="0" style="stop-color:#53D8FF"/>
					<stop  offset="1" style="stop-color:#3840F7"/>
				</linearGradient>
				<path style="fill:url(#SVGID_00000030475454953703840490000006667512438537253762_);" d="M2292.653,2453.558h82.196v66.009
					c0,9.487-7.598,17.178-16.972,17.178h-11.275v148.268c0,7.182-5.753,13.004-12.85,13.004c-7.097,0-12.85-5.822-12.85-13.004
					v-148.268h-5.722c-12.441,0-22.527-10.208-22.527-22.799V2453.558z"/>
				
					<linearGradient id="SVGID_00000041254759319388125580000005973133708370414985_" gradientUnits="userSpaceOnUse" x1="-4864.1426" y1="2434.7642" x2="-4922.4629" y2="2865.98" gradientTransform="matrix(-1 0 0 1 -2522.6255 0)">
					<stop  offset="0" style="stop-color:#2B3582"/>
					<stop  offset="1" style="stop-color:#150E42"/>
				</linearGradient>
				<path style="fill:url(#SVGID_00000041254759319388125580000005973133708370414985_);" d="M2576.955,2437.702h-458.961
					c-6.414,0-12.016,4.393-13.62,10.679l-6.408,25.127c-2.306,9.043,4.472,17.846,13.701,17.792l470.941-2.74
					c9.128-0.053,15.789-8.755,13.559-17.713l-5.573-22.387C2589.019,2442.135,2583.399,2437.702,2576.955,2437.702z"/>
			</g>
		</g>
		<path style="fill:#FFFFFF;" d="M2465.65,2135.865v217.823c0,34.058-27.609,61.667-61.667,61.667h-298.335
			c-34.979,0-63.335-28.355-63.335-63.333v-327.968c0-27.601,34.074-40.62,52.478-20.05l57.651,64.435
			c22.192,24.801,59.756,28.289,86.135,7.997l5.52-4.246c20.344-15.65,48.861-14.953,68.416,1.674l31.573,26.847
			c24.307,20.667,58.271,25.666,87.503,12.878l0,0C2447.654,2106.561,2465.65,2118.33,2465.65,2135.865z"/>
	</g>
</g>
</svg>
