<?xml version="1.0" encoding="utf-8"?>
<!-- Generator: Adobe Illustrator 27.5.0, SVG Export Plug-In . SVG Version: 6.00 Build 0)  -->
<svg version="1.1" xmlns="http://www.w3.org/2000/svg" xmlns:xlink="http://www.w3.org/1999/xlink" x="0px" y="0px"
	 viewBox="0 0 3710 3710" style="enable-background:new 0 0 3710 3710;" xml:space="preserve">
<g id="Background">
	<g>
		<g>
			<rect style="fill:#FFFFFF;" width="3710" height="3710"/>
		</g>
	</g>
</g>
<g id="Illustration">
	<g>
		<linearGradient id="SVGID_1_" gradientUnits="userSpaceOnUse" x1="3452.6355" y1="3265.2437" x2="1410.2721" y2="1478.177">
			<stop  offset="0" style="stop-color:#B37CFF"/>
			<stop  offset="1" style="stop-color:#F895E7"/>
		</linearGradient>
		<path style="opacity:0.3;fill:url(#SVGID_1_);" d="M3105.54,2337.14c-263.956,621.509-967.072,969.683-1576.817,875.765
			c-99.218-15.283-371.226-60.806-612.051-275.573c-463.605-413.442-562.751-1232.11-188.774-1809.045
			c272.189-419.907,760.116-657.939,1223.742-646.032c99.865,2.564,482.59,18.371,818.938,295.716
			c49.403,40.737,158.366,137.538,256.568,291.107C3257.742,1429.688,3277.563,1932.095,3105.54,2337.14z"/>
		<g>
			<g>
				
					<linearGradient id="SVGID_00000129913883540453548140000005539806925453732506_" gradientUnits="userSpaceOnUse" x1="2888.8032" y1="3068.3669" x2="711.0302" y2="897.4625">
					<stop  offset="0" style="stop-color:#CB236D"/>
					<stop  offset="0.0721" style="stop-color:#C2236D"/>
					<stop  offset="1" style="stop-color:#4C246D"/>
				</linearGradient>
				<path style="fill:url(#SVGID_00000129913883540453548140000005539806925453732506_);" d="M3145.455,1188.892L609.89,1146.044
					c-102.083-1.724-184.019,85.83-177.952,190.157l87.276,1500.875c4.775,82.141,70.845,146.486,151.228,147.281l2437.291,24.103
					c60.2,0.597,109.939-47.944,112.232-109.527l58.313-1566.445C3281.165,1254.97,3221.229,1190.173,3145.455,1188.892z"/>
				
					<linearGradient id="SVGID_00000166669879020051249800000010165114935691352763_" gradientUnits="userSpaceOnUse" x1="-7602.8691" y1="3394.6072" x2="-5045.6245" y2="341.7679" gradientTransform="matrix(-1 0 0 1 -4605.7437 0)">
					<stop  offset="0" style="stop-color:#FDF53F"/>
					<stop  offset="1" style="stop-color:#D93C65"/>
				</linearGradient>
				<path style="fill:url(#SVGID_00000166669879020051249800000010165114935691352763_);" d="M3106.588,1227.128L637.2,1186.363
					c-99.419-1.642-179.217,81.658-173.309,180.916l84.998,1427.937c4.653,78.15,68.997,139.368,147.282,140.124l2373.678,22.933
					c58.631,0.566,107.071-45.615,109.304-104.205l56.791-1490.321C3238.755,1289.994,3180.385,1228.346,3106.588,1227.128z"/>
				
					<linearGradient id="SVGID_00000175322769730888865240000009168631888682738818_" gradientUnits="userSpaceOnUse" x1="-6666.1499" y1="2145.7991" x2="-6014.2075" y2="-178.3077" gradientTransform="matrix(-1 0 0 1 -4605.7437 0)">
					<stop  offset="0" style="stop-color:#2B3582"/>
					<stop  offset="1" style="stop-color:#150E42"/>
				</linearGradient>
				<path style="fill:url(#SVGID_00000175322769730888865240000009168631888682738818_);" d="M631.496,1185.18l2479.736,40.937
					c74.106,1.223,132.721,63.13,129.9,137.191l-4.004,105.056H463.504l-6.042-101.51
					C451.53,1267.181,531.661,1183.532,631.496,1185.18z"/>
				<g style="opacity:0.85;">
					<path style="fill:#FFFFFF;" d="M3033.255,1276.897c0,12.317,9.985,22.302,22.303,22.302c12.317,0,22.303-9.985,22.303-22.302
						c0-12.318-9.986-22.303-22.303-22.303C3043.24,1254.594,3033.255,1264.579,3033.255,1276.897z"/>
					<path style="fill:#FFFFFF;" d="M3033.255,1342.249c0,12.318,9.985,22.304,22.303,22.304c12.317,0,22.303-9.986,22.303-22.304
						c0-12.317-9.986-22.303-22.303-22.303C3043.24,1319.946,3033.255,1329.932,3033.255,1342.249z"/>
					<path style="fill:#FFFFFF;" d="M3033.255,1407.601c0,12.318,9.985,22.303,22.303,22.303c12.317,0,22.303-9.985,22.303-22.303
						c0-12.318-9.986-22.302-22.303-22.302C3043.24,1385.299,3033.255,1395.283,3033.255,1407.601z"/>
				</g>
				<g>
					<path style="opacity:0.54;fill:#FFFFFF;" d="M2694.098,2336.954h267.457c36.541,0,65.653,20.931,63.865,45.921l-30.435,425.594
						c-1.669,23.319-29.768,41.639-63.866,41.639h-237.022c-35.313,0-63.941-19.601-63.941-43.78v-425.594
						C2630.158,2356.554,2658.785,2336.954,2694.098,2336.954z"/>
					<path style="opacity:0.54;fill:#FFFFFF;" d="M1507.106,1536.643l1472.141,23.284c56.693,0.896,101.385,49.708,98.612,107.701
						l-24.512,512.642c-2.615,54.695-46.686,97.67-100.161,97.67H1505.556c-55.382,0-100.28-45.978-100.28-102.692v-535.924
						C1405.276,1581.986,1451.123,1535.758,1507.106,1536.643z"/>
					<path style="opacity:0.54;fill:#FFFFFF;" d="M2049.797,2336.954h437.12c35.314,0,63.941,19.601,63.941,43.781v425.594
						c0,24.178-28.627,43.78-63.941,43.78h-437.12c-35.313,0-63.941-19.601-63.941-43.78v-425.594
						C1985.856,2356.554,2014.484,2336.954,2049.797,2336.954z"/>
					<path style="opacity:0.54;fill:#FFFFFF;" d="M747.594,1538.295h507.51c41.001,0,74.238,28.02,74.238,62.585v608.399
						c0,34.563-33.237,62.584-74.238,62.584h-507.51c-40.999,0-74.237-28.021-74.237-62.584V1600.88
						C673.357,1566.314,706.594,1538.295,747.594,1538.295z"/>
					<path style="opacity:0.54;fill:#FFFFFF;" d="M768.796,2331.945h691.921c55.899,0,101.213,20.778,101.213,46.411v451.161
						c0,25.631-45.314,46.409-101.213,46.409H768.796c-55.897,0-101.212-20.779-101.212-46.409v-451.161
						C667.584,2352.723,712.899,2331.945,768.796,2331.945z"/>
					<path style="opacity:0.6;fill:#FFFFFF;" d="M1512.563,1584.092l878.943,20.099c33.849,0.773,60.532,42.909,58.876,92.968
						l-14.635,442.517c-1.561,47.214-27.874,84.31-59.802,84.31h-864.308c-33.066,0-59.872-39.688-59.872-88.645v-462.614
						C1451.765,1623.233,1479.138,1583.328,1512.563,1584.092z"/>
					<g style="opacity:0.6;">
						<path style="fill:#FFFFFF;" d="M1187.94,2680.976c-1.094,8.557-1.985,17.141-2.672,25.743
							c-0.164,2.052,0.236,4.842,2.217,5.042c1.193,0.121,2.186-0.88,2.99-1.799c3.414-3.906,7.081-8.942,5.429-13.923
							c-0.615-1.853-1.923-3.412-2.426-5.301c-0.757-2.841,0.429-5.864,0.124-8.794c-0.305-2.93-3.825-5.812-5.796-3.684
							L1187.94,2680.976z"/>
						<path style="fill:#FFFFFF;" d="M968.323,2399.506c-13.426-7.097-21.87-8.056-36.325-6.483
							c-13.634,1.484-22.847,8.334-32.208,18.095c-2.129,2.22-4.198,4.65-6.959,5.925c-11.569,5.341-26.241,4.264-38.054,9.536
							c-14.062,6.275-18.029,25.792-30.872,34.421c-7.435,4.995-16.803,5.627-24.967,9.202
							c-12.085,5.292-17.658,16.283-24.521,26.981c-4.22,6.578-19.764,17.849-18.883,25.542c0.161,1.401,0.748,2.718,1.484,3.905
							c4.28,6.899,10.673,7.625,17.417,9.596c8.911,2.603,14.286,6.602,22.17,12.179c8.222,5.816,19.408,10.902,20.12,21.179
							c0.33,4.769-1.896,9.276-2.984,13.923c-4.91,20.958,13.311,39.784,31.045,51.118c17.735,11.334,38.659,22.531,44.3,43.291
							c0.514,1.892,0.947,3.945,2.323,5.3c5.177,5.093,9.055-6.428,10.623-10.091c1.01-2.358,0.095-5.189-1.483-7.186
							c-1.578-1.997-3.732-3.397-5.673-5.016c-6.55-5.462-10.799-13.78-11.471-22.456c-0.085-1.103-0.093-2.296,0.51-3.21
							c3.074-4.654,10.737-6.563,14.495-12.201c5.377-8.067,6.604-15.721,7.52-25.294c3.362-35.172,35.384-22.721,55.485-38.317
							c3.742-2.903,6.554-7.486,7.198-12.168c0.355-2.582,0.051-5.194-1.12-7.572c-1.979-4.017-6.025-6.602-10.237-7.758
							c-4.212-1.157-8.637-1.073-12.994-0.98c-4.044,0.086-8.088,0.171-12.132,0.257c-1.195,0.025-2.426,0.058-3.522,0.552
							c-1.549,0.699-2.598,2.211-3.438,3.728c-2.705,4.887-4.039,10.576-3.799,16.202c-5.33,1.874-10.506-3.208-13.414-8.194
							c-3.356-5.757-5.769-12.1-7.104-18.679c-0.516-2.542-0.833-5.356,0.439-7.595c0.701-1.235,1.815-2.155,2.938-2.992
							c4.528-3.373,9.751-5.922,15.3-6.529c9.476-1.036,18.686,3.639,26.454,9.37c7.46,5.503,19.628,12.089,27.998,4.18
							c4.322-4.083,4.399-11.515,1.388-16.707c-4.891-8.433-17.362-12.845-25.487-17.104c-3.803-1.993-6.246-6.096-7.326-10.363
							c-1.08-4.267-0.977-8.746-0.867-13.155c11.246-4.595,24.462-3.697,35.03,2.382c1.5,0.863,3.1,2.063,3.277,3.829
							c0.182,1.814-1.205,3.329-2.299,4.761c-9.727,12.726-0.983,23.002,10.463,30.184c0.273-32.269,0.346-64.702,0.365-97.005
							C981.583,2405.798,974.814,2402.937,968.323,2399.506z"/>
						<path style="fill:#FFFFFF;" d="M1070.001,2426.832c-1.567-2.113-4.677-1.58-7.25-1.563c-8.22,0.053-14.75-7.114-22.652-9.458
							c-4.14-1.229-8.524-1.089-12.831-1.154c-13.133-0.199-26.228-2.444-38.742-6.569c-0.019,32.302-0.092,64.736-0.365,97.005
							c7.134,4.476,15.317,7.751,20.735,9.666c5.749,2.032,11.237,5.374,17.381,4.124c5.703-1.16,10.834-7.599,16.744-9.24
							c4.281-1.188,8.853-0.565,13.199-1.468s8.876-4.272,8.696-8.853c-0.147-3.731-3.317-6.537-6.47-8.353
							c0,0.356-5.464-4.115-5.982-5.084c-4.768-9.556,2.165-17.973,4.818-26.223c3.841-11.945-1.847-18.967,9.967-25.582
							C1069.764,2432.673,1071.74,2429.177,1070.001,2426.832z"/>
						<path style="fill:#FFFFFF;" d="M910.339,2729.303c2.057,4.333,3.746,8.425,4.194,11.908
							c1.949,15.151-10.661,33.795-16.023,47.627c-1.491,3.847-3.011,7.94-2.339,12.026c0.283,1.721,0.945,3.347,1.605,4.954
							c4.869,11.863,14.435,22.599,22.934,31.747c2.906-7.843,2.691-26.677,1.893-35.032c-0.263-2.756-0.722-5.64,0.259-8.216
							c3.147-8.262,13.39-19.631,20.453-24.56c6.923-4.831,16.021-8.709,17.815-17.146c0.69-3.244,0.109-6.718,1.125-9.869
							c0.609-1.889,1.753-3.534,2.666-5.289c4.478-8.61,7.019-25.232-1.948-31.348c-10.023-6.837-24.208,3.176-32.808-7.975
							c-1.297-1.683-2.264-3.642-3.74-5.158c-2.74-2.814-6.948-3.705-10.757-3.046
							C890.318,2694.315,902.804,2713.433,910.339,2729.303z"/>
						<path style="fill:#FFFFFF;" d="M1069.519,2604.14c8.005,5.296,21.822-6.323,26.903-19.906c0.636-1.7,1.225-3.475,2.39-4.844
							c2.371-2.786,6.45-3.142,10.003-2.628c3.553,0.514,7.096,1.693,10.655,1.221c5.107-0.677,9.325-4.733,11.709-9.453
							c2.385-4.72,3.243-10.082,4.068-15.339c3.778-0.963,7.861-0.592,11.419,1.038c2.747,1.259,5.459,4.034,4.692,7.039
							c-0.352,1.38-1.371,2.453-2.33,3.479c-2.996,3.206-5.787,6.616-8.35,10.202c-1.581,2.212-3.132,5.097-1.946,7.559
							c3.233,6.709,9.146,3.219,7.447,12.813c-2.138,12.019-17.921,16.932-8.905,31.289c3.299,5.254,9.3,8.397,15.351,8.681
							c4.341,0.204,9.687-2.122,9.742-6.617c0.016-1.333-0.459-2.704-0.055-3.969c0.526-1.646,2.329-2.453,3.986-2.713
							c5.422-0.853,10.662,1.962,15.665,4.285c1.51,0.701,3.313,1.354,4.749,0.503c4.678-2.774,2.495-5.063,8.855-5.676
							c5.423-0.523,11.769,3.802,14.841,8.079c0.739,1.028,1.406,2.353,0.938,3.539c-0.407,1.031-1.531,1.562-2.099,2.507
							c-0.935,1.559,0.007,3.712,1.482,4.73c1.475,1.018,3.309,1.242,5.046,1.612c8.148,1.735,8.339,9.771,14.097,13.781
							c4.675,3.256,16.583,3.898,15.532-5.467c-0.384-3.423-3.706-6.24-3.162-9.639c0.48-2.993,3.731-4.586,6.64-4.967
							c2.909-0.381,6.014-0.096,8.615-1.498c1.733-0.934,3.042-2.522,4.622-3.712c9.725-7.323,32.762-1.102,40.224,7.109
							c6.972,7.671,7.753,20.892,16.725,25.863c-1.048-10.194-6.021-19.9-13.588-26.52c-1.392-1.217-2.922-2.408-3.652-4.135
							c-0.613-1.45-0.578-3.095-0.5-4.676c0.398-8.074,1.929-15.593,4.059-23.13c-0.255,0.901,5.695-15.477,1.417-12.379
							c7.656-5.544,24.366-14.651,33.961-14.058c4.996,0.309,9.928,3.298,12.026,8c2.098,4.701,0.833,10.952-3.298,13.877
							c-3.954,2.8-9.442,2.262-13.458,4.966c-3.867,2.603-5.519,8.222-3.707,12.611c2.517-3.59,6.322-6.191,10.501-7.179
							c5.609-1.327,11.979,0.07,16.822-3.143c3.573-2.371,5.45-6.9,5.493-11.292c0.043-4.391-1.528-8.651-3.631-12.466
							c-1.521-2.759-3.352-5.402-4.166-8.465c-1.305-4.911,0.241-10.258,2.988-14.484c10.215-15.716,29.123-22.509,46.616-16.73
							c1.165,0.385,2.407,0.901,3.013,1.999c0.879,1.593,0.032,3.627,0.404,5.42c0.587,2.826,4.753,3.896,6.549,1.681
							c1.241-1.531,1.164-3.739,1.634-5.677c1.222-5.039,6.186-8.122,11.011-9.559c5.899-1.757,21.751-9.865,23.38,0.855
							c0.143,0.938,0.113,1.929,0.506,2.788c1.106,2.417,4.812,2.07,6.573,0.114c3.633-4.035,4.271-10.661,7.79-15.169
							c3.114-3.99,7.712-6.381,10.318-10.833c6.458-11.035,1.539-25.457-9.696-30.801c-10.766-5.121-23.292-2.85-34.954-0.681
							c-8.028,1.493-35.601,7.217-37.565-6.238c-0.161-1.103-0.126-2.278-0.642-3.257c-0.639-1.212-1.976-1.848-2.791-2.942
							c-1.04-1.396-1.082-3.303-1.642-4.968c-2.034-6.045-9.7-7.153-15.887-7.228c0.624-3.749,0.963-8.317-1.952-10.637
							c-1.647-1.312-3.87-1.456-5.947-1.548c-5.396-0.238-18.41,1.765-22.884-1.5c-5.925-4.326-1.844-11.695-4.427-17.661
							c-2.745-6.336-12.952-7.217-14.087-14.061c-0.245-1.48,0.023-3.005-0.148-4.497c-0.417-3.637-3.281-6.378-5.96-8.773
							c-4.856-4.34-10.357-8.933-16.772-8.763c-1.206,0.986-0.123,3.055,1.237,3.797c1.36,0.741,3.097,1.127,3.785,2.548
							c1.32,2.727-2.465,4.966-5.361,5.537c-0.141,3.985,3.733,6.626,6.725,9.14c5.054,4.247,8.645,10.32,9.999,16.909
							c-10.196,1.894-20.644,2.338-30.956,1.316c-12.426-1.232-20.407,19.17-35.135,13.515c-2.175-0.836-4.12-2.335-6.4-2.781
							c-5.733-1.123-10.352,4.496-15.504,7.329c-7.845,4.314-17.463,2.077-25.87-0.894c-10.046-3.549-22.261-8.645-32.387-2.522
							c-3.784,2.289-6.807,5.85-10.814,7.689c-8.409,3.861-17.951-0.879-27.109-1.788c-22.596-2.243-36.194,20.63-43.535,39.678
							c-1.114,2.891-2.113,5.928-1.968,9.036s1.672,6.326,4.414,7.606c4.063,1.896,8.785-1.115,11.437-4.822
							c2.652-3.706,4.265-8.236,7.51-11.397c3.245-3.161,9.209-4.178,11.772-0.406c1.261,1.856,1.313,4.286,1.317,6.555
							c0.009,4.309,0.018,8.618,0.026,12.928c0.005,2.37-0.006,4.822-0.937,6.987c-1.553,3.616-5.26,5.612-8.703,7.336
							c-7.478,3.744-14.957,7.489-22.435,11.233c-2.524,1.264-5.078,2.547-7.221,4.419c-9.769,8.53-3.205,20.335-10.741,28.547
							c-3.042,3.315-8.089,4.312-10.584,8.085c-1.844,2.788-1.835,6.416-1.757,9.793
							C1063.798,2596.659,1066.141,2601.906,1069.519,2604.14z"/>
						<path style="fill:#FFFFFF;" d="M1330.244,2675.813c-3.028,5.664-2.61,13.067-9.453,16.194
							c-4.552,2.08-10.378,1.13-14.086,4.565c-4.229,3.918-3.125,10.866-2.307,16.677c0.146,1.042,0.264,2.148-0.147,3.112
							c-1.09,2.55-4.997,2.483-6.337,4.902c-1.15,2.076,0.275,4.694,1.99,6.299c5.226,4.892,13.721,5.532,19.578,1.477
							c1.558-1.079,3.247-2.521,5.068-2.059c2.125,0.54,2.837,3.208,3.415,5.392c1.229,4.647,3.654,9.115,7.487,11.857
							c12.059,8.623,29.023-1.87,42.415,10.297c1.645,1.495,3.21,3.272,3.69,5.481c0.519,2.388-0.257,5.13,1.041,7.177
							c1.625,2.563,5.624,2.215,7.811,0.148s3.065-5.182,3.978-8.097c0.913-2.916,2.111-5.997,4.623-7.627
							c4.229-2.743,9.05-1.694,11.391-7.274c2.92-7.119-5.793-13.015-3.027-19.501c1.235-2.896,3.209-6.056,1.97-8.951
							c-0.629-1.47-1.964-2.453-3.067-3.592c-5.161-5.337-6.039-10.359-12.916-13.615c-4.388-2.077-13.479,0.611-15.281-6.961
							c-0.469-1.973,0.203-4.449-1.268-5.796c-0.833-0.763-2.053-0.815-3.166-0.812c-7.695,0.028-16.846,0.147-21.232-6.394
							c-4.847-7.229-5.415-12.442-15.258-8.852C1333.577,2671.165,1331.577,2673.32,1330.244,2675.813z"/>
						<path style="fill:#FFFFFF;" d="M1100.878,2636.035c-1.604,2.301-2.508,5.073-4.199,7.306
							c-4.759,6.282-6.825,0.729-12.203,2.844c-1.857,0.732-3.5,2.034-5.436,2.495c-3.915,0.931-7.805-1.771-11.822-1.788
							c-15.475-0.065-7.352,25.672,0.14,30.607c1.387,0.913,3.135,0.926,4.779,0.909c5.102-0.052,10.204-0.103,15.306-0.155
							c1.454-0.015,3.013,0.002,4.211,0.854c3.691,2.626,0.175,9.113,2.394,13.138c1.523,2.762,5.062,3.275,8.088,3.843
							c6.396,1.201,7.796,8.402,11.711,12.844c5.033,5.71,9.835,8.012,12.672,16.302c1.684,4.923,2.268,10.248,4.49,14.937
							c4.57,9.642,16.422,14.838,26.297,11.528c9.875-3.31,16.53-14.71,14.764-25.292c-1.031-6.182-4.472-11.597-6.861-17.362
							c-4.833-11.662-1.564-25.864,11.827-28.089c3.38-0.562,7.672-0.758,8.933-4.05c1.818-4.744-5.194-10.293-2.287-14.416
							c1.047-1.484,3.072-2.015,3.992-3.586c1.236-2.112-0.171-4.846-1.893-6.555c-1.722-1.709-3.893-3.19-4.605-5.548
							c-4.004-13.277-17.155-4.979-25.93-3.229c-7.827,1.561-12.291,0.547-18.803-3.348
							C1126.361,2634.194,1111.082,2621.391,1100.878,2636.035z"/>
						<path style="fill:#FFFFFF;" d="M1134.222,2428.408c1.156-2.234,3.983-2.757,6.427-2.928
							c8.422-0.591,16.919-0.023,25.197,1.684c-6.853,5.574-14.503,11.435-23.216,11.131c-3.953-0.137-8.054-1.547-11.752-0.096
							c-0.865-2.695-0.388-5.812,1.24-8.098L1134.222,2428.408z"/>
						<path style="fill:#FFFFFF;" d="M1036.847,2530.922c8.594,7.036,38.91-2.353,24.767-11.435
							c-2.285-1.467-5.026-1.919-7.685-2.34c-3.574-0.566-7.239-1.13-10.779-0.371c-3.54,0.759-6.987,3.13-8.049,6.705
							C1034.079,2526.921,1034.913,2529.338,1036.847,2530.922z"/>
						<path style="fill:#FFFFFF;" d="M1411.278,2469.016c5.316,4.822,12.76,6.008,19.765,6.995c3.497,0.493,8.075,0.359,9.282-3.071
							c1.273-3.617-2.837-6.958-6.536-7.377c-3.699-0.419-7.629,0.592-11.056-0.908c-3.04-1.331-5.433-4.544-8.734-4.516
							c-3.843,0.034-6.169,5.834-3.477,8.672L1411.278,2469.016z"/>
					</g>
				</g>
				<g>
					
						<linearGradient id="SVGID_00000171709294521575548070000001075942778638844598_" gradientUnits="userSpaceOnUse" x1="37877.4219" y1="-9239.748" x2="36261.6289" y2="-8810.6592" gradientTransform="matrix(-1 0 0 1 -4605.7437 0)">
						<stop  offset="0" style="stop-color:#FDF53F"/>
						<stop  offset="1" style="stop-color:#D93C65"/>
					</linearGradient>
					<polygon style="fill:url(#SVGID_00000171709294521575548070000001075942778638844598_);" points="2475.528,2819.075 
						2522,2819.075 2522,2592.225 2475.528,2592.225 					"/>
					
						<linearGradient id="SVGID_00000011002526626816750280000017917079140489210785_" gradientUnits="userSpaceOnUse" x1="37888.3711" y1="-9196.2197" x2="36272.6055" y2="-8767.1367" gradientTransform="matrix(-1 0 0 1 -4605.7437 0)">
						<stop  offset="0" style="stop-color:#FDF53F"/>
						<stop  offset="1" style="stop-color:#D93C65"/>
					</linearGradient>
					<polygon style="fill:url(#SVGID_00000011002526626816750280000017917079140489210785_);" points="2397.882,2819.075 
						2444.352,2819.075 2444.352,2643.858 2397.882,2643.858 					"/>
					
						<linearGradient id="SVGID_00000162331267316555956460000005492512915901168559_" gradientUnits="userSpaceOnUse" x1="37868.1016" y1="-9272.9668" x2="36252.3359" y2="-8843.8838" gradientTransform="matrix(-1 0 0 1 -4605.7437 0)">
						<stop  offset="0" style="stop-color:#FDF53F"/>
						<stop  offset="1" style="stop-color:#D93C65"/>
					</linearGradient>
					<polygon style="fill:url(#SVGID_00000162331267316555956460000005492512915901168559_);" points="2320.236,2819.075 
						2366.705,2819.075 2366.705,2438.358 2320.236,2438.358 					"/>
					
						<linearGradient id="SVGID_00000047780563622786164030000013792465088024357784_" gradientUnits="userSpaceOnUse" x1="37878.3281" y1="-9234.9258" x2="36262.5547" y2="-8805.8418" gradientTransform="matrix(-1 0 0 1 -4605.7437 0)">
						<stop  offset="0" style="stop-color:#FDF53F"/>
						<stop  offset="1" style="stop-color:#D93C65"/>
					</linearGradient>
					<polygon style="fill:url(#SVGID_00000047780563622786164030000013792465088024357784_);" points="2242.588,2819.075 
						2289.059,2819.075 2289.059,2478.632 2242.588,2478.632 					"/>
					
						<linearGradient id="SVGID_00000043429959878325294500000015101146166590591366_" gradientUnits="userSpaceOnUse" x1="37891.0742" y1="-9187.2266" x2="36275.2891" y2="-8758.1387" gradientTransform="matrix(-1 0 0 1 -4605.7437 0)">
						<stop  offset="0" style="stop-color:#FDF53F"/>
						<stop  offset="1" style="stop-color:#D93C65"/>
					</linearGradient>
					<polygon style="fill:url(#SVGID_00000043429959878325294500000015101146166590591366_);" points="2164.941,2819.075 
						2211.412,2819.075 2211.412,2539.56 2164.941,2539.56 					"/>
					
						<linearGradient id="SVGID_00000103259722840881240060000004373299905297383301_" gradientUnits="userSpaceOnUse" x1="37921.9414" y1="-9069.5566" x2="36306.1719" y2="-8640.4727" gradientTransform="matrix(-1 0 0 1 -4605.7437 0)">
						<stop  offset="0" style="stop-color:#FDF53F"/>
						<stop  offset="1" style="stop-color:#D93C65"/>
					</linearGradient>
					<polygon style="fill:url(#SVGID_00000103259722840881240060000004373299905297383301_);" points="2087.295,2819.075 
						2133.764,2819.075 2133.764,2750.055 2087.295,2750.055 					"/>
					
						<linearGradient id="SVGID_00000103233402278738258010000014913679278177192070_" gradientUnits="userSpaceOnUse" x1="37910.5234" y1="-9112.9434" x2="36294.7578" y2="-8683.8604" gradientTransform="matrix(-1 0 0 1 -4605.7437 0)">
						<stop  offset="0" style="stop-color:#FDF53F"/>
						<stop  offset="1" style="stop-color:#D93C65"/>
					</linearGradient>
					<polygon style="fill:url(#SVGID_00000103233402278738258010000014913679278177192070_);" points="2009.648,2819.075 
						2056.118,2819.075 2056.118,2615.976 2009.648,2615.976 					"/>
				</g>
				<path style="opacity:0.54;fill:#FFFFFF;" d="M1672.064,2406.325H1910.4c10.47,0,18.958,8.489,18.958,18.959
					c0,10.47-8.489,18.958-18.958,18.958h-238.337c-10.47,0-18.958-8.489-18.958-18.958
					C1653.105,2414.813,1661.593,2406.325,1672.064,2406.325z"/>
				<path style="opacity:0.54;fill:#FFFFFF;" d="M1672.064,2346.999H1910.4c10.47,0,18.958,8.488,18.958,18.958
					c0,10.47-8.489,18.958-18.958,18.958h-238.337c-10.47,0-18.958-8.489-18.958-18.958
					C1653.105,2355.487,1661.593,2346.999,1672.064,2346.999z"/>
				<path style="opacity:0.54;fill:#FFFFFF;" d="M1672.064,2774.347h238.337c10.47,0,18.958,8.489,18.958,18.959
					c0,10.47-8.488,18.958-18.958,18.958h-238.337c-10.471,0-18.959-8.489-18.959-18.958
					C1653.105,2782.836,1661.593,2774.347,1672.064,2774.347z"/>
				<path style="opacity:0.54;fill:#FFFFFF;" d="M1672.064,2715.021h238.337c10.47,0,18.958,8.488,18.958,18.958
					c0,10.47-8.488,18.958-18.958,18.958h-238.337c-10.471,0-18.959-8.489-18.959-18.958
					C1653.105,2723.51,1661.593,2715.021,1672.064,2715.021z"/>
			</g>
			<path style="fill:#FFFFFF;" d="M1878.472,1832.542v149.492c0,13.702,14.46,22.58,26.679,16.38l130.016-65.965
				c12.658-6.422,13.559-24.162,1.617-31.834l-130.016-83.526C1894.544,1809.235,1878.472,1818.012,1878.472,1832.542z"/>
			<path style="opacity:0.6;fill:#FFFFFF;" d="M2998.345,1716.988h-490.266c-5.145,0-9.315-4.17-9.315-9.315v-78.816
				c0-5.144,4.17-9.315,9.315-9.315h489.933c4.05,0,7.333,3.283,7.333,7.333v83.112
				C3005.345,1713.854,3002.211,1716.988,2998.345,1716.988z"/>
			<path style="opacity:0.6;fill:#FFFFFF;" d="M1278.43,1963.038H715.079c-5.144,0-9.315-4.17-9.315-9.315v-360.328
				c0-5.144,4.17-9.315,9.315-9.315h563.017c4.05,0,7.333,3.283,7.333,7.333v364.625
				C1285.43,1959.904,1282.296,1963.038,1278.43,1963.038z"/>
			<path style="opacity:0.6;fill:#FFFFFF;" d="M1278.851,2069.334H715.5c-5.144,0-9.315-4.17-9.315-9.315v-66.452
				c0-5.144,4.17-9.315,9.315-9.315h563.017c4.05,0,7.333,3.283,7.333,7.333v70.748
				C1285.851,2066.2,1282.717,2069.334,1278.851,2069.334z"/>
			<path style="opacity:0.6;fill:#FFFFFF;" d="M1278.486,2231.294H715.135c-5.144,0-9.315-4.17-9.315-9.315v-49.446
				c0-5.145,4.17-9.315,9.315-9.315h563.017c4.05,0,7.333,3.283,7.333,7.333v53.742
				C1285.486,2228.16,1282.352,2231.294,1278.486,2231.294z"/>
			<path style="opacity:0.6;fill:#FFFFFF;" d="M2998.012,1841.231h-489.933c-5.145,0-9.315-4.17-9.315-9.315V1753.1
				c0-5.144,4.17-9.315,9.315-9.315h490.266c3.866,0,7,3.134,7,7v83.112C3005.345,1837.948,3002.062,1841.231,2998.012,1841.231z"/>
			<path style="opacity:0.6;fill:#FFFFFF;" d="M2943.19,2223.985h-375.533c-38.048,0-68.893-30.844-68.893-68.893v-232.318
				c0-24.853,20.147-45.001,45-45.001h416.58c24.853,0,45,20.147,45,45.001l-12.313,253.729
				C2991.742,2203.091,2969.809,2223.985,2943.19,2223.985z"/>
			<path style="opacity:0.6;fill:#FFFFFF;" d="M868.013,2132.35H731.553c-2.2,0-4-1.8-4-4v-21.234c0-2.2,1.8-4,4-4h136.459
				c2.2,0,4,1.8,4,4v21.234C872.013,2130.55,870.213,2132.35,868.013,2132.35z"/>
		</g>
		<g>
			<g style="opacity:0.64;">
				<path style="fill:#FFFFFF;" d="M785.92,1200.491c-2.902,0-5.577-1.897-6.437-4.822c-1.018-3.47-2.004-6.951-2.96-10.446
					c-0.977-3.576,1.13-7.267,4.704-8.244c3.575-0.976,7.266,1.129,8.243,4.704c0.932,3.413,1.897,6.816,2.892,10.204
					c1.043,3.556-0.994,7.285-4.55,8.33C787.182,1200.403,786.545,1200.491,785.92,1200.491z"/>
				<path style="fill:#FFFFFF;" d="M774.85,1156.293c-3.113,0-5.905-2.177-6.564-5.345c-1.468-7.06-2.82-14.232-4.015-21.317
					c-0.616-3.656,1.847-7.117,5.501-7.735c3.673-0.602,7.119,1.846,7.735,5.501c1.167,6.92,2.485,13.923,3.92,20.816
					c0.755,3.628-1.576,7.183-5.204,7.938C775.763,1156.248,775.303,1156.293,774.85,1156.293z M766.138,1100.722
					c-3.388,0-6.3-2.556-6.665-6.001c-0.76-7.145-1.396-14.415-1.889-21.607c-0.253-3.698,2.539-6.901,6.237-7.154
					c3.716-0.233,6.901,2.54,7.154,6.237c0.481,7.026,1.102,14.126,1.844,21.103c0.392,3.686-2.277,6.992-5.963,7.384
					C766.615,1100.71,766.375,1100.722,766.138,1100.722z M762.957,1044.563c-3.683,0-6.684-2.973-6.71-6.663
					c-0.01-1.467-0.016-2.936-0.016-4.406c0-5.731,0.086-11.544,0.256-17.279c0.11-3.704,3.228-6.543,6.908-6.509
					c3.704,0.11,6.618,3.202,6.509,6.908c-0.167,5.602-0.25,11.282-0.25,16.88c0,1.438,0.005,2.873,0.016,4.308
					c0.026,3.707-2.956,6.732-6.663,6.76C762.989,1044.563,762.974,1044.563,762.957,1044.563z M765.275,988.36
					c-0.201,0-0.404-0.009-0.608-0.028c-3.691-0.33-6.415-3.591-6.083-7.284c0.642-7.17,1.429-14.421,2.336-21.55
					c0.468-3.677,3.828-6.277,7.504-5.811c3.677,0.468,6.279,3.827,5.811,7.504c-0.886,6.965-1.654,14.05-2.282,21.058
					C771.639,985.736,768.711,988.36,765.275,988.36z M773.019,932.667c-0.414,0-0.834-0.038-1.256-0.118
					c-3.643-0.69-6.036-4.201-5.347-7.842c1.337-7.061,2.829-14.202,4.433-21.224c0.825-3.615,4.427-5.878,8.036-5.048
					c3.614,0.824,5.874,4.424,5.048,8.036c-1.566,6.859-3.023,13.834-4.328,20.731C778.996,930.423,776.18,932.667,773.019,932.667z
					 M786.187,877.999c-0.626,0-1.263-0.088-1.895-0.274c-3.556-1.045-5.592-4.775-4.546-8.331
					c2.029-6.904,4.218-13.863,6.507-20.684c1.18-3.514,4.989-5.407,8.496-4.229c3.514,1.178,5.408,4.984,4.229,8.496
					c-2.235,6.663-4.373,13.459-6.355,20.202C791.765,876.103,789.088,877.999,786.187,877.999z M804.697,824.898
					c-0.839,0-1.692-0.159-2.518-0.493c-3.435-1.392-5.091-5.306-3.699-8.74c2.713-6.694,5.589-13.421,8.55-19.993
					c1.521-3.379,5.496-4.888,8.874-3.363c3.381,1.522,4.887,5.495,3.363,8.874c-2.89,6.419-5.699,12.987-8.348,19.524
					C809.861,823.316,807.35,824.898,804.697,824.898z M828.43,773.798c-1.054,0-2.123-0.249-3.12-0.773
					c-3.281-1.726-4.541-5.784-2.814-9.064c3.358-6.382,6.885-12.787,10.482-19.034c1.848-3.21,5.951-4.318,9.165-2.467
					c3.211,1.849,4.316,5.952,2.467,9.165c-3.513,6.1-6.956,12.354-10.236,18.585C833.172,772.493,830.841,773.798,828.43,773.798z
					 M857.092,725.325c-1.269,0-2.552-0.36-3.691-1.112c-3.093-2.042-3.945-6.205-1.903-9.299c3.964-6.003,8.102-12.022,12.3-17.891
					c2.155-3.016,6.347-3.709,9.363-1.553c3.015,2.156,3.709,6.348,1.553,9.363c-4.101,5.733-8.144,11.613-12.015,17.477
					C861.409,724.265,859.272,725.325,857.092,725.325z M890.382,679.933c-1.486,0-2.982-0.492-4.226-1.501
					c-2.877-2.336-3.316-6.563-0.98-9.44c4.534-5.584,9.241-11.165,13.992-16.588c2.442-2.789,6.68-3.067,9.47-0.625
					c2.788,2.442,3.067,6.682,0.625,9.47c-4.64,5.297-9.24,10.748-13.667,16.203C894.269,679.085,892.333,679.933,890.382,679.933z
					 M927.956,638.046c-1.707,0-3.412-0.646-4.721-1.941c-2.633-2.607-2.656-6.857-0.049-9.491
					c5.075-5.128,10.304-10.217,15.541-15.128c2.703-2.535,6.95-2.399,9.486,0.305c2.535,2.704,2.399,6.951-0.305,9.486
					c-5.115,4.796-10.223,9.768-15.181,14.779C931.414,637.382,929.685,638.046,927.956,638.046z M969.43,600.05
					c-1.928,0-3.841-0.826-5.168-2.425c-2.367-2.852-1.974-7.083,0.878-9.451c5.545-4.602,11.244-9.154,16.938-13.531
					c2.94-2.256,7.153-1.704,9.411,1.232c2.258,2.939,1.707,7.151-1.232,9.411c-5.562,4.274-11.128,8.721-16.545,13.216
					C972.459,599.542,970.94,600.05,969.43,600.05z M1014.406,566.301c-2.154,0-4.268-1.034-5.565-2.952
					c-2.076-3.071-1.272-7.243,1.798-9.32c5.961-4.032,12.073-8.004,18.169-11.804c3.149-1.96,7.284-1.001,9.246,2.144
					c1.961,3.146,1,7.285-2.144,9.246c-5.955,3.712-11.927,7.592-17.749,11.531C1017.006,565.928,1015.699,566.301,1014.406,566.301
					z M1621.25,545.703c-1.147,0-2.308-0.295-3.371-0.914c-6.073-3.536-12.3-7.007-18.505-10.315
					c-3.27-1.742-4.509-5.807-2.766-9.078c1.743-3.272,5.808-4.506,9.078-2.767c6.353,3.387,12.729,6.939,18.948,10.562
					c3.202,1.865,4.286,5.973,2.421,9.177C1625.809,544.508,1623.561,545.703,1621.25,545.703z M1062.444,537.13
					c-2.384,0-4.691-1.273-5.908-3.514c-1.766-3.26-0.556-7.332,2.703-9.098c6.335-3.433,12.804-6.783,19.228-9.959
					c3.325-1.64,7.348-0.279,8.99,3.042c1.642,3.323,0.281,7.348-3.042,8.991c-6.275,3.101-12.594,6.374-18.779,9.727
					C1064.619,536.869,1063.523,537.13,1062.444,537.13z M1571.298,519.839c-0.933,0-1.88-0.195-2.784-0.608
					c-6.37-2.909-12.91-5.745-19.435-8.431c-3.428-1.41-5.063-5.333-3.653-8.76c1.41-3.429,5.333-5.061,8.76-3.653
					c6.684,2.75,13.379,5.656,19.904,8.635c3.371,1.539,4.856,5.521,3.316,8.892C1576.28,518.382,1573.845,519.839,1571.298,519.839
					z M1113.084,512.827c-2.62,0-5.109-1.544-6.19-4.111c-1.437-3.416,0.168-7.351,3.585-8.789
					c6.604-2.777,13.367-5.472,20.099-8.011c3.467-1.308,7.339,0.446,8.647,3.913c1.307,3.468-0.444,7.339-3.913,8.647
					c-6.575,2.479-13.18,5.112-19.63,7.825C1114.834,512.658,1113.952,512.827,1113.084,512.827z M1519.032,499.047
					c-0.72,0-1.45-0.115-2.168-0.36c-6.66-2.273-13.449-4.448-20.179-6.464c-3.551-1.064-5.567-4.805-4.504-8.355
					c1.064-3.552,4.805-5.562,8.355-4.504c6.892,2.066,13.844,4.292,20.663,6.618c3.508,1.198,5.381,5.011,4.184,8.519
					C1524.43,497.292,1521.823,499.047,1519.032,499.047z M1165.841,493.645c-2.867,0-5.521-1.851-6.41-4.734
					c-1.093-3.542,0.893-7.298,4.434-8.39c6.9-2.13,13.911-4.149,20.84-5.999c3.589-0.961,7.26,1.172,8.216,4.75
					c0.958,3.581-1.169,7.259-4.75,8.216c-6.764,1.809-13.611,3.779-20.35,5.858
					C1167.164,493.548,1166.497,493.645,1165.841,493.645z M1464.962,483.539c-0.506,0-1.02-0.058-1.535-0.178
					c-6.841-1.6-13.813-3.095-20.721-4.438c-3.637-0.708-6.014-4.231-5.306-7.87c0.708-3.639,4.229-6.015,7.87-5.306
					c7.073,1.376,14.211,2.906,21.216,4.546c3.609,0.844,5.85,4.455,5.005,8.064
					C1470.767,481.451,1468.009,483.539,1464.962,483.539z M1220.331,479.753c-3.128,0-5.926-2.197-6.571-5.379
					c-0.737-3.632,1.612-7.174,5.244-7.91c7.052-1.429,14.228-2.743,21.33-3.905c3.665-0.606,7.108,1.884,7.707,5.541
					c0.598,3.657-1.882,7.107-5.539,7.706c-6.937,1.134-13.945,2.417-20.832,3.813
					C1221.221,479.709,1220.773,479.753,1220.331,479.753z M1409.618,473.433c-0.294,0-0.59-0.02-0.889-0.059
					c-6.955-0.921-14.041-1.725-21.06-2.39c-3.69-0.349-6.398-3.623-6.048-7.313c0.349-3.691,3.595-6.406,7.314-6.049
					c7.183,0.68,14.436,1.502,21.556,2.445c3.674,0.486,6.259,3.86,5.773,7.534C1415.817,470.977,1412.933,473.433,1409.618,473.433
					z M1275.928,471.327c-3.403,0-6.319-2.577-6.669-6.036c-0.374-3.687,2.313-6.979,6.002-7.352
					c7.135-0.722,14.404-1.32,21.608-1.779c3.728-0.241,6.888,2.574,7.124,6.272c0.235,3.699-2.573,6.888-6.272,7.124
					c-7.038,0.447-14.141,1.032-21.11,1.737C1276.381,471.316,1276.153,471.327,1275.928,471.327z M1353.538,468.768
					c-0.079,0-0.156-0.001-0.236-0.004c-6.568-0.227-13.209-0.342-19.735-0.342l-1.447,0.001c-0.007,0-0.013,0-0.018,0
					c-3.699,0-6.701-2.993-6.711-6.693c-0.01-3.707,2.987-6.719,6.693-6.729l1.484-0.001c6.68,0,13.476,0.118,20.199,0.35
					c3.704,0.128,6.604,3.235,6.475,6.939C1360.116,465.914,1357.138,468.768,1353.538,468.768z"/>
				<path style="fill:#FFFFFF;" d="M1659.886,570.331c-1.321,0-2.657-0.389-3.825-1.201c-2.901-2.017-5.823-4.01-8.764-5.974
					c-3.082-2.059-3.91-6.227-1.851-9.309c2.059-3.082,6.229-3.909,9.309-1.851c3.01,2.012,5.999,4.049,8.968,6.113
					c3.044,2.117,3.795,6.3,1.679,9.342C1664.099,569.327,1662.01,570.331,1659.886,570.331z"/>
			</g>
			<g style="opacity:0.64;">
				<path style="fill:#FFFFFF;" d="M1896.021,936.206c-3.177,0-5.999-2.265-6.593-5.503c-0.638-3.481-1.308-6.952-2.011-10.413
					c-0.739-3.632,1.607-7.175,5.239-7.913c3.628-0.735,7.175,1.607,7.913,5.239c0.721,3.544,1.406,7.099,2.06,10.667
					c0.669,3.645-1.745,7.142-5.391,7.811C1896.83,936.169,1896.423,936.206,1896.021,936.206z"/>
				<path style="fill:#FFFFFF;" d="M1338.682,1610.821c-3.686,0-6.685-2.975-6.71-6.667c-0.025-3.705,2.96-6.731,6.667-6.756
					c6.902-0.046,13.911-0.223,20.828-0.524c3.745-0.139,6.836,2.709,6.997,6.412c0.161,3.703-2.709,6.836-6.412,6.997
					c-7.081,0.309-14.256,0.49-21.324,0.537C1338.714,1610.821,1338.698,1610.821,1338.682,1610.821z M1304.415,1610.04
					c-0.118,0-0.237-0.003-0.357-0.009c-3.259-0.172-6.522-0.368-9.789-0.595c-3.851-0.267-7.692-0.57-11.519-0.911
					c-3.693-0.329-6.419-3.588-6.09-7.28c0.329-3.693,3.58-6.432,7.28-6.09c3.741,0.333,7.492,0.629,11.256,0.89
					c3.194,0.221,6.382,0.416,9.565,0.582c3.702,0.194,6.545,3.353,6.351,7.053C1310.924,1607.262,1307.96,1610.04,1304.415,1610.04
					z M1393.927,1607.77c-3.395,0-6.309-2.565-6.668-6.016c-0.383-3.686,2.294-6.986,5.981-7.369
					c6.904-0.72,13.864-1.574,20.688-2.542c3.683-0.535,7.066,2.032,7.587,5.702c0.52,3.67-2.032,7.066-5.702,7.587
					c-6.988,0.991-14.114,1.867-21.183,2.602C1394.394,1607.758,1394.159,1607.77,1393.927,1607.77z M1249.299,1604.506
					c-0.329,0-0.662-0.025-0.998-0.075c-7.037-1.049-14.122-2.239-21.055-3.536c-3.644-0.683-6.044-4.189-5.362-7.832
					c0.683-3.644,4.191-6.035,7.832-5.362c6.771,1.269,13.69,2.43,20.565,3.455c3.666,0.547,6.195,3.961,5.648,7.627
					C1255.432,1602.114,1252.568,1604.506,1249.299,1604.506z M1448.635,1599.368c-3.123,0-5.921-2.192-6.569-5.37
					c-0.741-3.632,1.603-7.177,5.234-7.918c6.79-1.385,13.633-2.914,20.343-4.544c3.597-0.878,7.231,1.333,8.106,4.936
					c0.876,3.602-1.334,7.23-4.936,8.106c-6.87,1.67-13.877,3.236-20.828,4.655
					C1449.53,1599.323,1449.079,1599.368,1448.635,1599.368z M1194.985,1593.699c-0.539,0-1.087-0.066-1.633-0.202
					c-6.889-1.722-13.826-3.593-20.615-5.56c-3.559-1.033-5.609-4.755-4.577-8.316c1.034-3.557,4.754-5.61,8.314-4.577
					c6.63,1.923,13.403,3.749,20.134,5.432c3.595,0.899,5.782,4.542,4.883,8.139
					C1200.729,1591.663,1197.992,1593.699,1194.985,1593.699z M1502.269,1585.671c-2.868,0-5.522-1.852-6.411-4.736
					c-1.092-3.543,0.895-7.298,4.437-8.39c6.6-2.033,13.244-4.217,19.749-6.488c3.501-1.22,7.327,0.625,8.549,4.124
					c1.222,3.5-0.624,7.327-4.124,8.549c-6.661,2.325-13.464,4.562-20.221,6.643
					C1503.59,1585.576,1502.924,1585.671,1502.269,1585.671z M1141.978,1577.672c-0.749,0-1.509-0.126-2.253-0.391
					c-6.669-2.378-13.389-4.917-19.975-7.545c-3.442-1.374-5.119-5.279-3.745-8.721c1.372-3.442,5.267-5.128,8.72-3.745
					c6.431,2.567,12.994,5.045,19.506,7.366c3.492,1.245,5.313,5.085,4.069,8.575
					C1147.32,1575.959,1144.735,1577.672,1141.978,1577.672z M1554.219,1566.853c-2.625,0-5.117-1.549-6.193-4.122
					c-1.431-3.42,0.182-7.351,3.601-8.781c6.366-2.663,12.773-5.484,19.043-8.384c3.362-1.557,7.355-0.089,8.908,3.274
					c1.556,3.364,0.091,7.352-3.274,8.908c-6.419,2.969-12.978,5.857-19.496,8.583
					C1555.959,1566.685,1555.082,1566.853,1554.219,1566.853z M1090.788,1556.547c-0.959,0-1.932-0.206-2.856-0.641
					c-6.425-3.027-12.865-6.209-19.142-9.457c-3.291-1.703-4.58-5.753-2.876-9.044c1.704-3.291,5.754-4.581,9.044-2.876
					c6.13,3.172,12.42,6.279,18.694,9.234c3.353,1.579,4.791,5.578,3.211,8.932
					C1095.719,1555.124,1093.305,1556.547,1090.788,1556.547z M1604.126,1543.069c-2.391,0-4.704-1.281-5.917-3.535
					c-1.755-3.264-0.531-7.334,2.734-9.089c6.087-3.272,12.195-6.702,18.157-10.195c3.194-1.873,7.309-0.801,9.183,2.399
					c1.873,3.197,0.8,7.309-2.399,9.183c-6.102,3.574-12.354,7.086-18.587,10.436
					C1606.288,1542.811,1605.2,1543.069,1604.126,1543.069z M1041.907,1530.538c-1.169,0-2.354-0.307-3.432-0.949
					c-6.078-3.625-12.178-7.418-18.128-11.273c-3.112-2.015-4.001-6.17-1.985-9.28c2.016-3.113,6.171-3.997,9.28-1.984
					c5.813,3.765,11.771,7.469,17.708,11.01c3.183,1.898,4.225,6.018,2.325,9.202
					C1046.421,1529.369,1044.193,1530.538,1041.907,1530.538z M1651.527,1514.558c-2.165,0-4.29-1.046-5.584-2.981
					c-2.062-3.08-1.235-7.249,1.846-9.309c5.729-3.834,11.482-7.84,17.098-11.904c2.999-2.171,7.196-1.501,9.372,1.502
					c2.173,3.003,1.501,7.199-1.502,9.372c-5.749,4.16-11.637,8.26-17.504,12.185
					C1654.107,1514.19,1652.809,1514.558,1651.527,1514.558z M1695.973,1481.599c-1.943,0-3.871-0.839-5.197-2.46
					c-2.348-2.868-1.926-7.096,0.942-9.444c5.338-4.369,10.68-8.911,15.88-13.5c2.779-2.452,7.019-2.186,9.473,0.591
					c2.453,2.78,2.188,7.02-0.591,9.473c-5.324,4.698-10.796,9.348-16.26,13.822
					C1698.973,1481.102,1697.469,1481.599,1695.973,1481.599z M1737.058,1444.504c-1.724,0-3.447-0.659-4.758-1.979
					c-2.614-2.628-2.602-6.876,0.026-9.49c4.911-4.885,9.795-9.924,14.515-14.975c2.53-2.708,6.775-2.855,9.485-0.323
					c2.709,2.53,2.854,6.777,0.322,9.485c-4.831,5.172-9.831,10.33-14.859,15.33
					C1740.48,1443.854,1738.77,1444.504,1737.058,1444.504z M1774.39,1403.609c-1.507,0-3.025-0.506-4.277-1.543
					c-2.855-2.363-3.252-6.594-0.887-9.449c4.426-5.344,8.804-10.832,13.011-16.313c2.255-2.94,6.467-3.495,9.41-1.236
					c2.94,2.257,3.493,6.47,1.236,9.41c-4.307,5.61-8.789,11.228-13.32,16.701
					C1778.236,1402.781,1776.319,1403.609,1774.39,1403.609z M1807.617,1359.284c-1.294,0-2.601-0.374-3.753-1.153
					c-3.071-2.076-3.876-6.249-1.8-9.318c3.89-5.752,7.716-11.642,11.375-17.507c1.961-3.143,6.103-4.103,9.246-2.142
					c3.145,1.961,4.104,6.1,2.142,9.246c-3.745,6.003-7.663,12.033-11.645,17.921
					C1811.886,1358.249,1809.77,1359.284,1807.617,1359.284z M1836.401,1311.926c-1.081,0-2.178-0.262-3.196-0.815
					c-3.257-1.768-4.464-5.842-2.695-9.099c3.302-6.083,6.541-12.32,9.624-18.541c1.645-3.32,5.669-4.682,8.993-3.032
					c3.32,1.645,4.678,5.672,3.032,8.993c-3.156,6.369-6.471,12.756-9.854,18.984
					C1841.09,1310.656,1838.783,1311.926,1836.401,1311.926z M1860.451,1261.962c-0.872,0-1.756-0.17-2.608-0.53
					c-3.415-1.443-5.014-5.379-3.572-8.794c2.699-6.389,5.314-12.918,7.773-19.407c1.315-3.466,5.185-5.206,8.655-3.897
					c3.466,1.315,5.21,5.188,3.897,8.655c-2.519,6.644-5.197,13.329-7.959,19.871
					C1865.554,1260.424,1863.067,1261.962,1860.451,1261.962z M1879.494,1209.923c-0.662,0-1.333-0.098-1.998-0.304
					c-3.539-1.102-5.514-4.864-4.413-8.403c2.058-6.612,4.019-13.345,5.825-20.013c0.969-3.577,4.657-5.685,8.233-4.723
					c3.577,0.97,5.691,4.656,4.723,8.233c-1.851,6.828-3.858,13.722-5.964,20.493
					C1885.005,1208.081,1882.354,1209.923,1879.494,1209.923z M1893.358,1156.341c-0.451,0-0.91-0.046-1.368-0.14
					c-3.63-0.752-5.961-4.305-5.209-7.934c1.405-6.781,2.701-13.673,3.855-20.486c0.62-3.654,4.084-6.112,7.736-5.497
					c3.654,0.617,6.116,4.082,5.497,7.736c-1.18,6.975-2.508,14.031-3.947,20.971
					C1899.266,1154.159,1896.472,1156.341,1893.358,1156.341z M1901.968,1101.666c-0.242,0-0.486-0.012-0.733-0.039
					c-3.685-0.4-6.347-3.712-5.947-7.397c0.743-6.846,1.374-13.833,1.873-20.764c0.265-3.695,3.455-6.479,7.176-6.212
					c3.696,0.266,6.478,3.48,6.212,7.176c-0.511,7.093-1.156,14.242-1.918,21.249
					C1908.259,1099.118,1905.35,1101.666,1901.968,1101.666z M1905.31,1046.409c-0.029,0-0.058,0-0.086,0
					c-3.707-0.049-6.673-3.091-6.626-6.798c0.031-2.429,0.047-4.854,0.047-7.276c0-4.538-0.054-9.064-0.162-13.577
					c-0.088-3.706,2.844-6.781,6.55-6.87c3.791-0.062,6.781,2.844,6.87,6.55c0.109,4.62,0.165,9.251,0.165,13.897
					c0,2.48-0.016,4.963-0.047,7.449C1911.972,1043.461,1908.976,1046.409,1905.31,1046.409z M1903.338,991.079
					c-3.451,0-6.385-2.646-6.68-6.149c-0.579-6.895-1.296-13.873-2.131-20.742c-0.447-3.679,2.175-7.024,5.854-7.471
					c3.681-0.447,7.023,2.175,7.471,5.854c0.853,7.032,1.587,14.176,2.181,21.234c0.311,3.694-2.432,6.939-6.125,7.25
					C1903.717,991.071,1903.527,991.079,1903.338,991.079z"/>
				<path style="fill:#FFFFFF;" d="M995.597,1499.758c-1.383,0-2.778-0.426-3.977-1.308c-2.915-2.15-5.808-4.323-8.679-6.525
					c-2.941-2.255-3.498-6.467-1.243-9.409c2.253-2.941,6.469-3.5,9.409-1.243c2.805,2.15,5.63,4.273,8.477,6.37
					c2.983,2.2,3.619,6.401,1.421,9.385C999.69,1498.813,997.656,1499.758,995.597,1499.758z"/>
			</g>
			<g>
				
					<linearGradient id="SVGID_00000053511568494732094350000006097790389043849091_" gradientUnits="userSpaceOnUse" x1="4885.3643" y1="2733.7449" x2="6232.9644" y2="5111.2222" gradientTransform="matrix(-0.4937 0.8696 -0.8696 -0.4937 6622.9307 -1869.9039)">
					<stop  offset="0" style="stop-color:#CB236D"/>
					<stop  offset="1" style="stop-color:#4C246D"/>
				</linearGradient>
				<path style="fill:url(#SVGID_00000053511568494732094350000006097790389043849091_);" d="M1025.708,1345.015
					c1.849,2.266,4.933,3.11,7.678,2.1l78.311-28.799c30.871,23.775,65.757,42.801,103.679,55.834l19.1,81.167
					c0.669,2.848,3.072,4.955,5.982,5.251l99.573,10.087c2.911,0.294,5.687-1.291,6.914-3.943l34.989-75.689
					c39.766-5.165,77.757-16.806,112.769-33.909l70.946,43.918c2.487,1.539,5.676,1.331,7.942-0.517l77.542-63.277
					c2.267-1.85,3.11-4.933,2.1-7.677l-28.798-78.31c23.776-30.871,42.8-65.757,55.834-103.68l81.169-19.1
					c2.847-0.67,4.955-3.072,5.25-5.981l10.087-99.575c0.295-2.91-1.289-5.687-3.944-6.913l-75.689-34.989
					c-5.164-39.767-16.805-77.758-33.908-112.769l43.918-70.947c1.538-2.486,1.331-5.676-0.518-7.941l-63.277-77.541
					c-1.849-2.268-4.932-3.109-7.677-2.1l-78.311,28.799c-30.87-23.777-65.757-42.801-103.679-55.835l-19.1-81.169
					c-0.67-2.847-3.072-4.955-5.981-5.251l-99.575-10.086c-2.909-0.296-5.686,1.289-6.913,3.944l-34.989,75.689
					c-39.766,5.163-77.758,16.805-112.77,33.909l-70.944-43.917c-2.486-1.541-5.678-1.332-7.943,0.517l-77.541,63.277
					c-2.265,1.849-3.109,4.932-2.1,7.678l28.798,78.31c-23.776,30.871-42.8,65.757-55.834,103.68l-81.169,19.1
					c-2.845,0.668-4.955,3.072-5.249,5.982l-10.087,99.573c-0.294,2.91,1.289,5.686,3.943,6.914l75.689,34.989
					c5.165,39.765,16.807,77.756,33.909,112.769l-43.917,70.946c-1.54,2.487-1.331,5.675,0.517,7.943L1025.708,1345.015z"/>
				<path style="fill:#FFFFFF;" d="M1334.333,1122.671c-20.097,0-39.585-6.411-56.01-18.617
					c-20.204-15.014-33.353-36.996-37.021-61.9c-3.67-24.902,2.577-49.744,17.59-69.948c15.014-20.204,36.996-33.351,61.9-37.021
					c24.905-3.669,49.745,2.576,69.948,17.591c20.204,15.013,33.353,36.996,37.021,61.9c7.576,51.406-28.083,99.393-79.49,106.969
					l0,0C1343.613,1122.331,1338.956,1122.671,1334.333,1122.671z M1334.708,944.899c-4.099,0-8.223,0.3-12.351,0.908
					c-22.065,3.252-41.544,14.902-54.847,32.803c-13.303,17.903-18.838,39.913-15.586,61.979
					c3.252,22.065,14.902,41.542,32.803,54.845c17.901,13.304,39.914,18.838,61.978,15.588
					c45.549-6.714,77.145-49.232,70.433-94.782c-3.252-22.065-14.902-41.543-32.803-54.846
					C1369.783,950.58,1352.512,944.899,1334.708,944.899z"/>
				<path style="fill:#FFFFFF;" d="M1336.247,1271.132c-8.202,0-16.462-0.413-24.793-1.256l0,0
					c-17.338-1.756-34.456-5.345-50.881-10.667c-1.135-0.367-1.857-1.42-1.859-2.551c0-0.275,0.043-0.554,0.132-0.83
					c0.456-1.409,1.97-2.186,3.38-1.726c16.065,5.204,32.809,8.714,49.767,10.431c131.04,13.266,248.395-82.517,261.666-213.528
					c0.827-8.157,1.231-16.26,1.229-24.289c-0.021-120.936-91.903-224.932-214.758-237.376
					c-131.036-13.264-248.395,82.517-261.666,213.527c-0.818,8.077-1.224,16.165-1.222,24.23
					c0.008,34.954,7.663,69.519,22.537,101.184c0.173,0.37,0.256,0.759,0.254,1.142c0,1.008-0.57,1.973-1.543,2.43
					c-1.342,0.629-2.941,0.054-3.572-1.288c-15.21-32.379-23.038-67.724-23.046-103.463c-0.003-8.247,0.412-16.516,1.248-24.774
					c13.572-133.957,133.6-231.884,267.549-218.33c125.618,12.725,219.566,119.06,219.587,242.714
					c0.001,8.209-0.412,16.495-1.256,24.834C1566.276,1177.173,1459.911,1271.132,1336.247,1271.132z"/>
			</g>
		</g>
		<g>
			<g style="opacity:0.64;">
				<path style="fill:#FFFFFF;" d="M1744.25,1669.497c-1.751,0-3.367-1.146-3.885-2.912c-0.962-3.272-1.874-6.564-2.738-9.874
					c-0.564-2.166,0.734-4.378,2.898-4.944c2.162-0.568,4.378,0.734,4.944,2.898c0.841,3.23,1.733,6.443,2.671,9.636
					c0.631,2.146-0.599,4.398-2.746,5.029C1745.014,1669.443,1744.628,1669.497,1744.25,1669.497z"/>
				<path style="fill:#FFFFFF;" d="M1737.107,1640.428c-1.893,0-3.587-1.333-3.97-3.262c-1.296-6.521-2.417-13.176-3.329-19.781
					c-0.307-2.216,1.242-4.261,3.46-4.568c2.184-0.297,4.259,1.24,4.568,3.46c0.89,6.447,1.984,12.944,3.25,19.308
					c0.435,2.196-0.989,4.328-3.183,4.766C1737.635,1640.402,1737.368,1640.428,1737.107,1640.428z M1731.682,1601.178
					c-2.095,0-3.868-1.612-4.036-3.735c-0.52-6.633-0.851-13.371-0.985-20.03c-0.044-2.238,1.733-4.087,3.97-4.133
					c2.261,0.016,4.087,1.733,4.133,3.97c0.129,6.503,0.453,13.083,0.961,19.56c0.174,2.229-1.492,4.18-3.723,4.356
					C1731.896,1601.174,1731.789,1601.178,1731.682,1601.178z M1730.897,1561.563c-0.051,0-0.103,0-0.156-0.002
					c-2.235-0.085-3.978-1.966-3.895-4.204c0.136-3.585,0.328-7.179,0.578-10.782c0.214-3.086,0.469-6.16,0.76-9.223
					c0.212-2.226,2.16-3.854,4.419-3.648c2.228,0.214,3.86,2.192,3.648,4.42c-0.287,2.991-0.534,5.994-0.744,9.011
					c-0.241,3.517-0.429,7.029-0.562,10.531C1734.861,1559.847,1733.065,1561.563,1730.897,1561.563z M1734.683,1522.131
					c-0.208,0-0.415-0.016-0.627-0.047c-2.21-0.342-3.725-2.413-3.383-4.625c1.021-6.586,2.247-13.219,3.646-19.714
					c0.471-2.19,2.621-3.575,4.813-3.108c2.188,0.471,3.579,2.625,3.108,4.813c-1.365,6.34-2.562,12.817-3.559,19.251
					C1738.371,1520.701,1736.646,1522.131,1734.683,1522.131z M1743.018,1483.41c-0.358,0-0.724-0.05-1.086-0.15
					c-2.156-0.597-3.418-2.831-2.819-4.987c1.779-6.408,3.775-12.853,5.931-19.154c0.724-2.119,3.035-3.245,5.146-2.522
					c2.117,0.726,3.246,3.029,2.522,5.146c-2.107,6.152-4.055,12.443-5.792,18.699
					C1746.423,1482.232,1744.792,1483.41,1743.018,1483.41z M1755.843,1445.932c-0.51,0-1.031-0.099-1.535-0.305
					c-2.069-0.849-3.06-3.215-2.212-5.286c2.53-6.174,5.276-12.35,8.162-18.353c0.973-2.018,3.399-2.859,5.407-1.897
					c2.018,0.969,2.867,3.391,1.897,5.407c-2.817,5.86-5.498,11.888-7.969,17.917
					C1758.951,1444.983,1757.44,1445.932,1755.843,1445.932z M1773.025,1410.173c-0.665,0-1.341-0.164-1.964-0.51
					c-1.955-1.086-2.661-3.553-1.573-5.51c3.233-5.816,6.685-11.623,10.261-17.255c1.197-1.889,3.703-2.447,5.593-1.248
					c1.889,1.201,2.447,3.703,1.248,5.593c-3.494,5.5-6.865,11.168-10.02,16.847
					C1775.83,1409.421,1774.449,1410.173,1773.025,1410.173z M1794.286,1376.7c-0.821,0-1.648-0.247-2.364-0.766
					c-1.816-1.308-2.228-3.84-0.918-5.654c3.899-5.413,8.006-10.772,12.206-15.929c1.416-1.735,3.969-1.994,5.7-0.584
					c1.735,1.412,1.996,3.964,0.583,5.699c-4.099,5.035-8.109,10.267-11.917,15.55
					C1796.784,1376.116,1795.544,1376.7,1794.286,1376.7z M1819.307,1345.957c-0.977,0-1.956-0.352-2.734-1.064
					c-1.65-1.511-1.763-4.073-0.251-5.723c4.497-4.91,9.199-9.753,13.975-14.39c1.604-1.561,4.172-1.519,5.729,0.083
					c1.559,1.606,1.521,4.17-0.083,5.729c-4.663,4.528-9.255,9.256-13.646,14.05
					C1821.497,1345.514,1820.405,1345.957,1819.307,1345.957z M1847.73,1318.345c-1.136,0-2.265-0.475-3.068-1.403
					c-1.462-1.693-1.276-4.251,0.417-5.715c5.039-4.354,10.269-8.615,15.546-12.663c1.776-1.359,4.319-1.027,5.682,0.748
					c1.361,1.776,1.027,4.319-0.748,5.682c-5.154,3.953-10.26,8.113-15.182,12.366
					C1849.611,1318.021,1848.667,1318.345,1847.73,1318.345z M1879.157,1294.236c-1.298,0-2.574-0.621-3.357-1.776
					c-1.256-1.852-0.774-4.372,1.078-5.628c5.521-3.747,11.211-7.369,16.909-10.766c1.923-1.145,4.412-0.518,5.555,1.405
					c1.146,1.923,0.516,4.41-1.405,5.555c-5.563,3.316-11.118,6.853-16.509,10.513
					C1880.732,1294.01,1879.941,1294.236,1879.157,1294.236z M2236.23,1280.253c-0.681,0-1.371-0.172-2.004-0.532
					c-5.626-3.211-11.44-6.305-17.286-9.195c-2.006-0.993-2.827-3.422-1.836-5.428c0.989-2.004,3.415-2.829,5.428-1.836
					c5.988,2.962,11.947,6.131,17.71,9.421c1.945,1.11,2.619,3.585,1.511,5.527
					C2239.005,1279.519,2237.636,1280.253,2236.23,1280.253z M1913.16,1273.954c-1.464,0-2.878-0.795-3.599-2.184
					c-1.033-1.984-0.259-4.431,1.727-5.462c5.901-3.066,11.971-5.998,18.038-8.714c2.042-0.92,4.439,0,5.353,2.042
					c0.914,2.044,0,4.439-2.042,5.353c-5.927,2.653-11.852,5.516-17.615,8.509
					C1914.428,1273.808,1913.789,1273.954,1913.16,1273.954z M2200.715,1262.692c-0.526,0-1.06-0.105-1.577-0.323
					c-5.979-2.528-12.119-4.916-18.252-7.094c-2.107-0.75-3.209-3.066-2.461-5.175c0.748-2.111,3.068-3.211,5.175-2.461
					c6.279,2.232,12.57,4.677,18.695,7.268c2.061,0.87,3.025,3.248,2.152,5.31
					C2203.795,1261.762,2202.294,1262.692,2200.715,1262.692z M1949.278,1257.793c-1.634,0-3.175-0.999-3.788-2.619
					c-0.793-2.093,0.261-4.431,2.354-5.223c6.22-2.356,12.588-4.554,18.926-6.536c2.125-0.657,4.408,0.524,5.076,2.659
					c0.667,2.137-0.522,4.408-2.659,5.076c-6.188,1.933-12.402,4.079-18.475,6.378
					C1950.24,1257.708,1949.755,1257.793,1949.278,1257.793z M2163.381,1249.433c-0.374,0-0.754-0.053-1.132-0.162
					c-6.222-1.806-12.6-3.454-18.958-4.898c-2.182-0.495-3.551-2.665-3.054-4.847c0.497-2.184,2.675-3.557,4.847-3.054
					c6.515,1.478,13.049,3.167,19.425,5.017c2.148,0.625,3.385,2.873,2.762,5.021
					C2166.756,1248.28,2165.137,1249.433,2163.381,1249.433z M1987.052,1245.981c-1.816,0-3.468-1.23-3.927-3.072
					c-0.542-2.172,0.781-4.37,2.952-4.91c6.473-1.612,13.065-3.049,19.595-4.269c2.204-0.416,4.315,1.039,4.726,3.239
					c0.411,2.198-1.039,4.315-3.238,4.726c-6.372,1.193-12.807,2.594-19.124,4.166
					C1987.707,1245.943,1987.376,1245.981,1987.052,1245.981z M2124.742,1240.651c-0.219,0-0.443-0.018-0.667-0.055
					c-6.417-1.064-12.946-1.957-19.409-2.649c-2.226-0.237-3.836-2.234-3.596-4.459c0.235-2.224,2.2-3.86,4.459-3.597
					c6.617,0.708,13.304,1.62,19.872,2.712c2.208,0.366,3.701,2.453,3.333,4.659
					C2128.406,1239.247,2126.689,1240.651,2124.742,1240.651z M2025.985,1238.695c-2.01,0-3.755-1.496-4.014-3.541
					c-0.281-2.222,1.29-4.247,3.51-4.53c6.602-0.837,13.318-1.488,19.961-1.933c2.194-0.21,4.164,1.537,4.313,3.771
					c0.15,2.231-1.537,4.164-3.771,4.313c-6.483,0.437-13.039,1.072-19.482,1.889
					C2026.327,1238.685,2026.155,1238.695,2025.985,1238.695z M2085.334,1236.43c-0.067,0-0.135-0.002-0.204-0.004
					c-5.506-0.273-11.09-0.409-16.602-0.409l-2.983,0.012c-2.35-0.052-4.065-1.782-4.083-4.02c-0.018-2.237,1.782-4.065,4.02-4.083
					l3.047-0.012c5.644,0,11.364,0.141,17.002,0.417c2.233,0.111,3.957,2.012,3.848,4.247
					C2089.271,1234.744,2087.479,1236.43,2085.334,1236.43z"/>
				<path style="fill:#FFFFFF;" d="M2261.75,1296.361c-0.797,0-1.604-0.235-2.309-0.726c-2.736-1.901-5.498-3.763-8.293-5.585
					c-1.875-1.223-2.404-3.733-1.183-5.606c1.222-1.876,3.735-2.404,5.606-1.183c2.863,1.866,5.696,3.775,8.495,5.723
					c1.838,1.276,2.291,3.802,1.013,5.638C2264.292,1295.755,2263.032,1296.361,2261.75,1296.361z"/>
			</g>
			<g style="opacity:0.64;">
				<path style="fill:#FFFFFF;" d="M2402.233,1516.716c-1.937,0-3.65-1.391-3.988-3.365c-0.568-3.292-1.181-6.57-1.844-9.832
					c-0.445-2.194,0.971-4.333,3.163-4.778c2.202-0.449,4.333,0.971,4.778,3.163c0.678,3.341,1.308,6.698,1.887,10.073
					c0.38,2.204-1.1,4.299-3.306,4.679C2402.692,1516.698,2402.461,1516.716,2402.233,1516.716z"/>
				<path style="fill:#FFFFFF;" d="M2063.395,1912.423c-0.024,0-0.048,0-0.071,0c-6.006-0.103-12.088-0.366-18.072-0.781
					l-2.659-0.194c-2.232-0.172-3.901-2.119-3.729-4.35c0.17-2.23,2.139-3.923,4.35-3.729l2.601,0.19
					c5.842,0.406,11.781,0.663,17.646,0.762c2.238,0.04,4.02,1.883,3.982,4.121
					C2067.407,1910.655,2065.599,1912.423,2063.395,1912.423z M2083.888,1912.156c-2.156,0-3.951-1.701-4.044-3.878
					c-0.097-2.235,1.638-4.125,3.874-4.222c6.71-0.291,13.506-0.791,20.198-1.488c2.25-0.221,4.218,1.385,4.449,3.61
					s-1.385,4.218-3.61,4.449c-6.853,0.714-13.814,1.227-20.689,1.523C2084.007,1912.154,2083.948,1912.156,2083.888,1912.156z
					 M2022.513,1909.28c-0.184,0-0.37-0.012-0.558-0.038c-6.847-0.94-13.733-2.099-20.468-3.444
					c-2.194-0.437-3.618-2.572-3.179-4.766c0.437-2.194,2.572-3.62,4.766-3.179c6.574,1.312,13.298,2.443,19.985,3.361
					c2.216,0.305,3.767,2.348,3.462,4.566C2026.242,1907.81,2024.505,1909.28,2022.513,1909.28z M2124.647,1907.907
					c-1.947,0-3.664-1.405-3.992-3.387c-0.368-2.208,1.124-4.295,3.332-4.661c6.641-1.106,13.326-2.427,19.864-3.931
					c2.192-0.489,4.356,0.86,4.857,3.041c0.5,2.182-0.861,4.356-3.041,4.857c-6.7,1.539-13.547,2.894-20.351,4.026
					C2125.09,1907.889,2124.867,1907.907,2124.647,1907.907z M1982.304,1901.257c-0.34,0-0.688-0.045-1.035-0.136
					c-6.683-1.761-13.377-3.747-19.898-5.899c-2.125-0.702-3.278-2.993-2.578-5.118c0.702-2.127,2.993-3.276,5.118-2.578
					c6.364,2.103,12.899,4.04,19.423,5.761c2.164,0.57,3.456,2.786,2.884,4.95C1985.74,1900.055,1984.1,1901.257,1982.304,1901.257z
					 M2164.587,1898.731c-1.749,0-3.363-1.143-3.884-2.906c-0.633-2.146,0.592-4.4,2.738-5.033
					c6.431-1.899,12.895-4.022,19.211-6.313c2.103-0.76,4.427,0.323,5.189,2.427c0.764,2.103-0.323,4.427-2.427,5.189
					c-6.469,2.346-13.09,4.522-19.678,6.467C2165.353,1898.676,2164.967,1898.731,2164.587,1898.731z M1943.369,1888.414
					c-0.499,0-1.007-0.095-1.5-0.291c-6.38-2.546-12.784-5.332-19.031-8.279c-2.024-0.954-2.89-3.369-1.935-5.393
					c0.953-2.024,3.369-2.89,5.393-1.935c6.099,2.876,12.349,5.597,18.576,8.081c2.079,0.829,3.09,3.187,2.261,5.264
					C1946.501,1887.449,1944.979,1888.414,1943.369,1888.414z M2203.065,1884.78c-1.567,0-3.058-0.914-3.719-2.443
					c-0.89-2.054,0.053-4.439,2.107-5.328c6.167-2.673,12.329-5.565,18.313-8.602c1.998-1.017,4.434-0.214,5.446,1.778
					c1.013,1.996,0.216,4.435-1.778,5.446c-6.133,3.112-12.444,6.075-18.76,8.811
					C2204.149,1884.671,2203.604,1884.78,2203.065,1884.78z M1906.294,1870.916c-0.659,0-1.327-0.16-1.945-0.501
					c-6.048-3.318-12.064-6.863-17.88-10.534c-1.893-1.195-2.459-3.697-1.264-5.589c1.197-1.893,3.698-2.457,5.589-1.264
					c5.68,3.585,11.551,7.045,17.453,10.285c1.963,1.076,2.681,3.539,1.602,5.5
					C1909.113,1870.157,1907.726,1870.916,1906.294,1870.916z M2239.585,1866.255c-1.391,0-2.746-0.716-3.5-2.004
					c-1.132-1.929-0.483-4.412,1.448-5.543c5.802-3.401,11.575-7.021,17.152-10.756c1.854-1.248,4.372-0.752,5.62,1.11
					c1.246,1.86,0.75,4.376-1.11,5.62c-5.713,3.828-11.623,7.533-17.567,11.017
					C2240.986,1866.077,2240.281,1866.255,2239.585,1866.255z M2273.62,1843.451c-1.222,0-2.431-0.55-3.229-1.599
					c-1.355-1.78-1.009-4.323,0.771-5.678c5.347-4.069,10.641-8.358,15.737-12.748c1.698-1.462,4.256-1.268,5.716,0.425
					c1.46,1.695,1.27,4.255-0.426,5.715c-5.221,4.495-10.643,8.888-16.121,13.057
					C2275.337,1843.182,2274.474,1843.451,2273.62,1843.451z M2304.673,1816.709c-1.056,0-2.111-0.411-2.906-1.229
					c-1.559-1.604-1.521-4.17,0.083-5.729c4.815-4.679,9.557-9.575,14.097-14.552c1.508-1.65,4.069-1.771,5.723-0.263
					c1.654,1.507,1.771,4.069,0.263,5.723c-4.647,5.098-9.506,10.111-14.438,14.905
					C2306.709,1816.327,2305.69,1816.709,2304.673,1816.709z M2332.294,1786.417c-0.894,0-1.792-0.295-2.542-0.898
					c-1.741-1.405-2.014-3.957-0.609-5.698c4.22-5.229,8.339-10.663,12.244-16.153c1.3-1.824,3.826-2.251,5.65-0.954
					s2.249,3.828,0.953,5.65c-4,5.622-8.22,11.189-12.54,16.545C2334.648,1785.902,2333.477,1786.417,2332.294,1786.417z
					 M2356.066,1752.997c-0.732,0-1.472-0.198-2.139-0.613c-1.899-1.183-2.479-3.684-1.296-5.581
					c3.567-5.721,6.997-11.619,10.198-17.526c1.066-1.966,3.52-2.7,5.494-1.632c1.966,1.066,2.696,3.525,1.632,5.494
					c-3.28,6.052-6.795,12.089-10.448,17.949C2358.74,1752.321,2357.419,1752.997,2356.066,1752.997z M2375.617,1716.923
					c-0.574,0-1.153-0.121-1.707-0.378c-2.028-0.944-2.908-3.353-1.965-5.383c2.839-6.101,5.528-12.374,7.992-18.646
					c0.819-2.083,3.167-3.112,5.252-2.289c2.083,0.819,3.108,3.171,2.289,5.252c-2.524,6.424-5.28,12.849-8.186,19.101
					C2378.606,1716.056,2377.144,1716.923,2375.617,1716.923z M2390.617,1678.753c-0.414,0-0.835-0.065-1.25-0.2
					c-2.129-0.69-3.294-2.975-2.604-5.104c2.069-6.384,3.97-12.926,5.652-19.445c0.558-2.166,2.774-3.474,4.934-2.912
					c2.166,0.558,3.47,2.768,2.912,4.934c-1.721,6.679-3.67,13.383-5.791,19.924
					C2393.915,1677.663,2392.326,1678.753,2390.617,1678.753z M2400.856,1639.073c-0.255,0-0.514-0.024-0.776-0.073
					c-2.196-0.427-3.632-2.554-3.207-4.75c1.278-6.584,2.374-13.31,3.256-19.989c0.293-2.218,2.354-3.777,4.546-3.486
					c2.218,0.293,3.779,2.328,3.486,4.546c-0.902,6.841-2.024,13.727-3.332,20.471
					C2404.455,1637.729,2402.758,1639.073,2400.856,1639.073z M2406.222,1598.45c-0.103,0-0.204-0.004-0.309-0.012
					c-2.232-0.168-3.903-2.113-3.735-4.344l0.059-0.839c0.447-6.422,0.712-12.944,0.787-19.389c0.026-2.222,1.836-4.004,4.05-4.004
					c0.018,0,0.034,0,0.05,0c2.237,0.028,4.03,1.862,4.004,4.099c-0.079,6.602-0.35,13.28-0.807,19.852l-0.063,0.89
					C2410.097,1596.83,2408.321,1598.45,2406.222,1598.45z M2406.698,1557.459c-2.149,0-3.939-1.688-4.044-3.858
					c-0.323-6.708-0.859-13.502-1.593-20.193c-0.243-2.224,1.361-4.224,3.586-4.469c2.168-0.245,4.224,1.361,4.469,3.587
					c0.752,6.853,1.3,13.813,1.632,20.687c0.107,2.234-1.618,4.133-3.854,4.241
					C2406.831,1557.458,2406.766,1557.459,2406.698,1557.459z"/>
				<path style="fill:#FFFFFF;" d="M1871.452,1848.919c-0.819,0-1.646-0.247-2.364-0.764c-2.772-1.996-5.514-4.032-8.222-6.109
					c-1.776-1.361-2.113-3.903-0.75-5.68c1.363-1.774,3.907-2.109,5.68-0.75c2.645,2.026,5.32,4.014,8.028,5.963
					c1.814,1.308,2.228,3.84,0.92,5.654C1873.952,1848.334,1872.712,1848.919,1871.452,1848.919z"/>
			</g>
			<g>
				
					<linearGradient id="SVGID_00000158012036921958665970000018054078493044930475_" gradientUnits="userSpaceOnUse" x1="2363.9028" y1="1075.3545" x2="1922.8008" y2="1811.7697">
					<stop  offset="0" style="stop-color:#CB236D"/>
					<stop  offset="0.0721" style="stop-color:#C2236D"/>
					<stop  offset="1" style="stop-color:#4C246D"/>
				</linearGradient>
				<path style="fill:url(#SVGID_00000158012036921958665970000018054078493044930475_);" d="M1886.236,1754.995
					c1.095,1.342,2.92,1.841,4.546,1.243l46.37-17.052c18.28,14.078,38.936,25.344,61.391,33.061l11.31,48.061
					c0.396,1.687,1.819,2.934,3.542,3.109l58.96,5.973c1.723,0.174,3.367-0.764,4.094-2.335l20.718-44.818
					c23.547-3.059,46.042-9.951,66.774-20.078l42.009,26.005c1.472,0.911,3.361,0.788,4.703-0.306l45.915-37.468
					c1.342-1.096,1.841-2.921,1.243-4.546l-17.052-46.37c14.078-18.279,25.344-38.937,33.061-61.391l48.062-11.31
					c1.686-0.397,2.934-1.819,3.109-3.541l5.973-58.961c0.175-1.723-0.763-3.367-2.335-4.093l-44.818-20.718
					c-3.058-23.547-9.951-46.042-20.078-66.774l26.005-42.01c0.911-1.472,0.788-3.361-0.307-4.702l-37.468-45.914
					c-1.095-1.343-2.921-1.841-4.546-1.243l-46.37,17.052c-18.279-14.079-38.936-25.344-61.391-33.061l-11.31-48.062
					c-0.397-1.685-1.819-2.934-3.542-3.109l-58.961-5.972c-1.723-0.175-3.366,0.763-4.093,2.335l-20.718,44.818
					c-23.547,3.057-46.043,9.951-66.774,20.078l-42.008-26.004c-1.472-0.912-3.362-0.788-4.703,0.306l-45.914,37.468
					c-1.341,1.095-1.841,2.92-1.244,4.546l17.052,46.37c-14.079,18.279-25.343,38.936-33.061,61.391l-48.063,11.31
					c-1.685,0.396-2.934,1.819-3.108,3.542l-5.973,58.96c-0.174,1.723,0.763,3.367,2.335,4.094l44.817,20.718
					c3.058,23.546,9.952,46.042,20.078,66.773l-26.004,42.009c-0.912,1.472-0.789,3.36,0.306,4.703L1886.236,1754.995z"/>
				<path style="opacity:0.56;fill:#FFFFFF;" d="M2068.978,1624.212c-12.086,0-23.805-3.856-33.683-11.195
					c-12.149-9.029-20.056-22.25-22.264-37.226c-2.208-14.976,1.549-29.916,10.578-42.067c9.029-12.149,22.25-20.056,37.226-22.264
					c14.978-2.206,29.916,1.549,42.067,10.578c12.149,9.029,20.056,22.25,22.264,37.226s-1.549,29.916-10.578,42.067
					c-9.029,12.149-22.25,20.056-37.226,22.264l0,0C2074.559,1624.008,2071.759,1624.212,2068.978,1624.212z M2069.201,1518.948
					c-2.384,0-4.781,0.174-7.183,0.528c-12.835,1.891-24.167,8.669-31.904,19.081c-7.739,10.414-10.958,23.217-9.067,36.051
					c1.891,12.835,8.669,24.167,19.081,31.904c10.414,7.741,23.217,10.96,36.051,9.067l0,0c12.835-1.891,24.167-8.669,31.904-19.081
					c7.739-10.414,10.958-23.217,9.066-36.051c-1.891-12.835-8.669-24.167-19.081-31.904
					C2089.604,1522.252,2079.558,1518.948,2069.201,1518.948z"/>
				<path style="opacity:0.56;fill:#FFFFFF;" d="M2070.115,1713.71c-4.938,0-9.911-0.249-14.928-0.756
					c-3.179-0.322-6.344-0.748-9.49-1.272c-6.105-1.019-12.133-2.415-18.026-4.18c-0.137-0.042-0.275-0.083-0.413-0.125
					c-0.906-0.273-1.81-0.556-2.71-0.849c-1.713-0.554-2.803-2.142-2.805-3.85c0-0.416,0.065-0.837,0.2-1.252
					c0.691-2.127,2.971-3.29,5.102-2.605c9.348,3.027,19.091,5.068,28.96,6.069c0.781,0.079,1.565,0.152,2.346,0.22
					c0.018,0,0.028,0.002,0.055,0.004c23.48,1.984,46.619-1.947,67.666-11.262c0.016-0.006,0.032-0.014,0.048-0.022
					c0.109-0.047,0.222-0.097,0.33-0.146c10.341-4.613,20.169-10.529,29.289-17.688c0.293-0.229,0.58-0.457,0.87-0.688
					c0.133-0.105,0.267-0.212,0.398-0.319c0.283-0.227,0.566-0.455,0.847-0.684c28.755-23.465,46.65-56.724,50.389-93.647
					c0.485-4.78,0.724-9.543,0.724-14.281c-0.004-31.88-10.881-62.536-31.309-87.572c-23.465-28.755-56.724-46.651-93.647-50.389
					c-76.244-7.725-144.523,48.012-152.242,124.234c-0.477,4.701-0.712,9.405-0.712,14.097c0.004,20.337,4.457,40.447,13.112,58.869
					c0.261,0.558,0.386,1.146,0.384,1.723c0,1.521-0.861,2.977-2.328,3.668c-2.024,0.95-4.439,0.081-5.391-1.945
					c-9.161-19.502-13.876-40.789-13.88-62.309c-0.002-4.968,0.249-9.947,0.752-14.918c3.959-39.08,22.899-74.278,53.331-99.111
					c30.434-24.832,68.736-36.316,107.79-32.371c39.08,3.958,74.275,22.899,99.109,53.331
					c21.621,26.494,33.131,58.938,33.135,92.676c0.002,5.015-0.251,10.058-0.764,15.114
					C2208.642,1657.125,2144.589,1713.71,2070.115,1713.71z"/>
			</g>
		</g>
		<g>
			<g>
				
					<linearGradient id="SVGID_00000157276815130023330730000007023589650499484039_" gradientUnits="userSpaceOnUse" x1="-3034.4246" y1="2859.5017" x2="-2907.366" y2="2859.5017" gradientTransform="matrix(-0.9937 -0.112 -0.112 0.9937 200.8691 24.4975)">
					<stop  offset="0" style="stop-color:#2B3582"/>
					<stop  offset="1" style="stop-color:#150E42"/>
				</linearGradient>
				<path style="fill:url(#SVGID_00000157276815130023330730000007023589650499484039_);" d="M2883.354,3159.37
					c0,0,11.537,23.697,8.085,86.012c-0.321,5.806-5.445,10.206-11.223,9.554l-109.729-12.371c-4.415-0.498-7.078-5.182-5.192-9.205
					c8.576-18.305,33.248-62.511,79.616-84.133L2883.354,3159.37z"/>
				
					<linearGradient id="SVGID_00000176015559035056739510000014753262279329489571_" gradientUnits="userSpaceOnUse" x1="-3021.541" y1="2800.4585" x2="-2970.0085" y2="2800.4585" gradientTransform="matrix(-0.9937 -0.112 -0.112 0.9937 200.8691 24.4975)">
					<stop  offset="0" style="stop-color:#FEBBBA"/>
					<stop  offset="1" style="stop-color:#FF928E"/>
				</linearGradient>
				<path style="fill:url(#SVGID_00000176015559035056739510000014753262279329489571_);" d="M2892.854,3117.952l-12.074,51.34
					c-1.042,4.429-4.965,7.627-9.516,7.638c-6.078,0.015-14.857-0.482-23.177-2.836c-7.562-2.14-12.334-9.629-11.454-17.439
					l5.665-50.244L2892.854,3117.952z"/>
				
					<linearGradient id="SVGID_00000156581876532706522220000012626376230058781839_" gradientUnits="userSpaceOnUse" x1="-2681.5754" y1="2706.7988" x2="-2482.2202" y2="2706.7988" gradientTransform="matrix(-0.9997 -0.025 -0.025 0.9997 19.2226 402.4167)">
					<stop  offset="0" style="stop-color:#2B3582"/>
					<stop  offset="1" style="stop-color:#150E42"/>
				</linearGradient>
				<path style="fill:url(#SVGID_00000156581876532706522220000012626376230058781839_);" d="M2612.849,3126.424
					c0,0,20.309,33.369,18.731,78.436c-0.372,10.615-9.472,18.852-20.091,18.586l-171.444-4.28
					c-8.028-0.2-11.03-10.598-4.345-15.047c33.011-21.971,97.838-62.938,144.375-78.514L2612.849,3126.424z"/>
				
					<linearGradient id="SVGID_00000178167805427251367060000017443903722676445312_" gradientUnits="userSpaceOnUse" x1="-2677.4199" y1="2658.4019" x2="-2626.1714" y2="2658.4019" gradientTransform="matrix(-0.9991 -0.0423 -0.0423 0.9991 63.9312 332.9418)">
					<stop  offset="0" style="stop-color:#FEBBBA"/>
					<stop  offset="1" style="stop-color:#FF928E"/>
				</linearGradient>
				<path style="fill:url(#SVGID_00000178167805427251367060000017443903722676445312_);" d="M2627.556,3077.053l-16.047,64.055
					c-1.795,7.165-9.071,11.725-16.206,9.813c-4.337-1.163-9.422-3.254-14.796-6.938c-5.106-3.502-7.5-9.854-6.17-15.902
					l17.085-77.702L2627.556,3077.053z"/>
				
					<linearGradient id="SVGID_00000130638317530672728430000007495787006892083869_" gradientUnits="userSpaceOnUse" x1="-3053.5894" y1="2323.0051" x2="-2704.1924" y2="2323.0051" gradientTransform="matrix(-0.9937 -0.112 -0.112 0.9937 200.8691 24.4975)">
					<stop  offset="0" style="stop-color:#2B3582"/>
					<stop  offset="1" style="stop-color:#150E42"/>
				</linearGradient>
				<path style="fill:url(#SVGID_00000130638317530672728430000007495787006892083869_);" d="M2971.54,2201.654
					c0,0,41.453,45.769,44.611,95.567c3.157,49.799-119.515,839.571-119.515,839.571s-46.89,2.468-68.995-14.584
					c0,0,29.923-518.159,21.95-639.571c0,0-172.322,520.81-214.271,613.694c0,0-44.95,0.395-58.298-9.654
					c0,0,107.351-688.198,158.135-806.975L2971.54,2201.654z"/>
				<path style="fill:#666694;" d="M2853.381,2465.419c-0.525,0-1.055-0.091-1.57-0.291c-2.252-0.868-3.378-3.397-2.51-5.649
					l28.008-72.791c0.396-1.026,1.159-1.865,2.147-2.352l45.294-22.334c2.157-1.059,4.781-0.177,5.854,1.99
					c1.069,2.166,0.177,4.786-1.99,5.854l-43.762,21.576l-27.392,71.197C2856.792,2464.355,2855.137,2465.419,2853.381,2465.419z"/>
				
					<linearGradient id="SVGID_00000014624655633570161200000010670119853627951763_" gradientUnits="userSpaceOnUse" x1="2549.8379" y1="485.4946" x2="2622.8145" y2="2360.9788">
					<stop  offset="0" style="stop-color:#53D8FF"/>
					<stop  offset="1" style="stop-color:#3840F7"/>
				</linearGradient>
				<path style="fill:url(#SVGID_00000014624655633570161200000010670119853627951763_);" d="M2569.022,1691.933
					c195.575,5.76,241.695,51.567,241.695,51.567l-109.688,136.503c0,0-189.965-25.227-314.531-145.755
					c28.632-24.618,49.789-53.006,63.829-75.385C2483.858,1677.449,2523.402,1690.589,2569.022,1691.933z"/>
				
					<linearGradient id="SVGID_00000064333223726814097610000009224438366467610513_" gradientUnits="userSpaceOnUse" x1="-2418.3748" y1="1276.985" x2="-2227.9211" y2="1276.985" gradientTransform="matrix(-0.9937 -0.112 -0.112 0.9937 200.8691 24.4975)">
					<stop  offset="0" style="stop-color:#FEBBBA"/>
					<stop  offset="1" style="stop-color:#FF928E"/>
				</linearGradient>
				<path style="fill:url(#SVGID_00000064333223726814097610000009224438366467610513_);" d="M2297.663,1373.308
					c0.96-6.18,9.566-6.92,11.569-0.995l18.777,55.546c3.627,10.733,3.871,22.32,0.699,33.196l-12.135,29.729
					c-4.282,14.683-2.101,30.467,6.055,43.407c19.515,30.962,62.049,88.287,127.7,124.674
					c-14.039,22.378-35.197,50.766-63.829,75.385c-45.706-44.224-82.62-101.262-98.097-174.614
					c-10.846-4.718-17.161-16.142-15.391-27.837L2297.663,1373.308z"/>
				
					<linearGradient id="SVGID_00000175305272341059179380000003651720752803229091_" gradientUnits="userSpaceOnUse" x1="-2593.5872" y1="1225.8213" x2="-2697.8428" y2="2213.1877" gradientTransform="matrix(-0.9937 -0.112 -0.112 0.9937 200.8691 24.4975)">
					<stop  offset="0" style="stop-color:#53D8FF"/>
					<stop  offset="1" style="stop-color:#3840F7"/>
				</linearGradient>
				<path style="fill:url(#SVGID_00000175305272341059179380000003651720752803229091_);" d="M2495.633,1769.969
					c76.499-65.81,210.169-84.368,286.931-89.528c33.629-2.26,64.048,19.741,72.186,52.449
					c23.592,94.817,88.968,341.947,102.225,384.648c10.877,35.033,22.488,69.358,29.902,90.837
					c4.431,12.832-2.282,26.832-15.094,31.318c-66.729,23.371-184.502,45.044-232.189,53.303
					c-10.49,1.817-19.742-6.948-18.549-17.527c1.011-8.971-0.435-18.051-4.184-26.262l-142-311.095
					c-122.609,108.553-219.296,108.841-289.632,74.126c16.624-36.71,28.994-73.972,37.175-111.778
					C2432.81,1894.116,2495.633,1769.969,2495.633,1769.969z"/>
				
					<linearGradient id="SVGID_00000005961894536905558400000009874729721630506391_" gradientUnits="userSpaceOnUse" x1="-1987.1035" y1="1318.5037" x2="-2398.6321" y2="1830.4845" gradientTransform="matrix(-0.9937 -0.112 -0.112 0.9937 200.8691 24.4975)">
					<stop  offset="0" style="stop-color:#FEBBBA"/>
					<stop  offset="1" style="stop-color:#FF928E"/>
				</linearGradient>
				<path style="fill:url(#SVGID_00000005961894536905558400000009874729721630506391_);" d="M2145.661,1859.994l22.486-23.859
					c58.383,50.596,110.118,66.862,154.256,64.325c-8.18,37.807-20.551,75.068-37.175,111.778
					C2192.567,1966.504,2145.661,1859.994,2145.661,1859.994z"/>
				
					<linearGradient id="SVGID_00000076561411231047647340000014879770140885606072_" gradientUnits="userSpaceOnUse" x1="-1909.0808" y1="1381.2073" x2="-2320.6179" y2="1893.1991" gradientTransform="matrix(-0.9937 -0.112 -0.112 0.9937 200.8691 24.4975)">
					<stop  offset="0" style="stop-color:#FEBBBA"/>
					<stop  offset="1" style="stop-color:#FF928E"/>
				</linearGradient>
				<path style="fill:url(#SVGID_00000076561411231047647340000014879770140885606072_);" d="M2159.39,1862.019l-110.609-8.123
					l-95.008-68.062c15.583-7.482,95.784,20.445,95.784,20.445s87.504-3.312,110.794-0.716
					c19.343,2.155,13.444,29.655,10.891,38.912c-0.521,1.888-0.903,3.017-0.903,3.017L2159.39,1862.019z"/>
				
					<linearGradient id="SVGID_00000045582904437874928100000004262334003157672379_" gradientUnits="userSpaceOnUse" x1="-2450.0911" y1="1009.1118" x2="-2848.6514" y2="1741.4272" gradientTransform="matrix(-0.9937 -0.112 -0.112 0.9937 200.8691 24.4975)">
					<stop  offset="0" style="stop-color:#FEBBBA"/>
					<stop  offset="1" style="stop-color:#FF928E"/>
				</linearGradient>
				<path style="fill:url(#SVGID_00000045582904437874928100000004262334003157672379_);" d="M2694.316,1533.787l42.117,148.338
					c0,0-71.971,38.683-125.188,28.229l-14.624-130.761L2694.316,1533.787z"/>
				<g>
					
						<linearGradient id="SVGID_00000137837896071143380400000011808677442541768856_" gradientUnits="userSpaceOnUse" x1="6359.5991" y1="1517.6501" x2="6141.3306" y2="1684.6588" gradientTransform="matrix(-0.989 -0.1476 -0.1476 0.989 9092.3379 913.5228)">
						<stop  offset="0" style="stop-color:#FEBBBA"/>
						<stop  offset="1" style="stop-color:#FF928E"/>
					</linearGradient>
					<path style="fill:url(#SVGID_00000137837896071143380400000011808677442541768856_);" d="M2598.007,1400.624
						c0,0-50.712,81.106-60.046,126.257c-9.334,45.151-23.555,73.229,27.72,90.258c51.275,17.028,99.539-2.575,130.336-44.341
						c0,0,48.077-64.262,43.906-94.143C2735.75,1448.775,2598.007,1400.624,2598.007,1400.624z"/>
					
						<linearGradient id="SVGID_00000018202204267068166430000007142256233123296948_" gradientUnits="userSpaceOnUse" x1="2812.3455" y1="1227.1897" x2="3096.9519" y2="796.6314">
						<stop  offset="0" style="stop-color:#CB236D"/>
						<stop  offset="1" style="stop-color:#4C246D"/>
					</linearGradient>
					<path style="fill:url(#SVGID_00000018202204267068166430000007142256233123296948_);" d="M2682.894,1537.504l-2.799-1.769
						c-3.564-2.252-4.518-7.036-2.049-10.453c9.565-13.235,28.944-43.943,11.394-54.401
						c-22.618-13.479-115.151-47.191-130.686-84.13c-14.931-35.502,8.876-74.897,37.014-82.912c1.883-0.536,3.867,0.409,4.516,2.256
						l1.576,4.483c1.078,3.069,5.344,3.266,6.699,0.308c1.302-2.839,5.334-2.825,6.58,0.039c4.817,11.077,19.453,30.053,63.89,45.31
						c63.156,21.683,102.17,54.376,96.538,99.414c-0.358,2.861,2.438,4.899,5.095,3.779c5.233-2.206,13.11-2.432,22.079,7.723
						c15.597,17.66,2.49,55.474-41.389,81.639c-2.084,1.243-2.502,4.145-0.687,5.754c6.4,5.673,15.328,18.23-14.238,28.778
						c-30.581,10.91-51.544,6.511-59.486,3.951c-1.976-0.636-2.988-2.792-2.247-4.732l14.581-38.146
						c0.825-2.158-0.558-4.527-2.844-4.869L2682.894,1537.504z"/>
					
						<linearGradient id="SVGID_00000035493488712759593140000001497735153295322259_" gradientUnits="userSpaceOnUse" x1="6332.5239" y1="1482.2706" x2="6114.2559" y2="1649.2789" gradientTransform="matrix(-0.989 -0.1476 -0.1476 0.989 9092.3379 913.5228)">
						<stop  offset="0" style="stop-color:#FEBBBA"/>
						<stop  offset="1" style="stop-color:#FF928E"/>
					</linearGradient>
					<path style="fill:url(#SVGID_00000035493488712759593140000001497735153295322259_);" d="M2680.016,1545.583
						c0,0,22.68-53.26,45.203-34.015c22.524,19.245-22.162,60.161-42.443,59.253L2680.016,1545.583z"/>
				</g>
			</g>
		</g>
	</g>
</g>
</svg>
