<?xml version="1.0" encoding="utf-8"?>
<!-- Generator: Adobe Illustrator 27.5.0, SVG Export Plug-In . SVG Version: 6.00 Build 0)  -->
<svg version="1.1" xmlns="http://www.w3.org/2000/svg" xmlns:xlink="http://www.w3.org/1999/xlink" x="0px" y="0px"
	 viewBox="0 0 500 500" style="enable-background:new 0 0 500 500;" xml:space="preserve">
<g id="BACKGROUND">
	<rect id="XMLID_1_" style="fill:#FFFFFF;" width="500" height="500"/>
</g>
<g id="OBJECTS">
	<g>
		<path style="fill:#FFAE34;" d="M215.644,298.286l-0.002-3c2.631-0.002,5.285-0.085,7.885-0.248l0.188,2.994
			C221.052,298.199,218.337,298.284,215.644,298.286z M207.575,298.04c-2.671-0.164-5.376-0.415-8.039-0.746l0.37-2.977
			c2.601,0.323,5.243,0.568,7.853,0.729L207.575,298.04z M231.751,297.277l-0.373-2.977c2.598-0.326,5.218-0.739,7.788-1.228
			l0.561,2.947C237.095,296.52,234.412,296.943,231.751,297.277z M191.559,296.046c-2.634-0.497-5.286-1.086-7.883-1.749
			l0.742-2.906c2.536,0.647,5.126,1.222,7.698,1.708L191.559,296.046z M247.609,294.262l-0.745-2.906
			c2.531-0.648,5.079-1.389,7.572-2.199l0.928,2.853C252.81,292.84,250.201,293.597,247.609,294.262z M175.918,292.052
			c-2.55-0.826-5.111-1.746-7.612-2.735l1.102-2.789c2.443,0.965,4.944,1.864,7.434,2.671L175.918,292.052z M262.961,289.272
			l-1.107-2.789c2.433-0.966,4.864-2.02,7.224-3.133l1.28,2.713C267.941,287.204,265.452,288.283,262.961,289.272z M160.884,286.107
			c-2.423-1.141-4.846-2.376-7.202-3.672l1.446-2.629c2.301,1.267,4.667,2.473,7.033,3.586L160.884,286.107z M277.541,282.394
			l-1.447-2.627c2.287-1.26,4.567-2.611,6.778-4.018l1.61,2.531C282.218,279.721,279.883,281.105,277.541,282.394z M146.727,278.317
			c-2.264-1.439-4.512-2.967-6.68-4.544l1.764-2.426c2.119,1.539,4.314,3.033,6.526,4.439L146.727,278.317z M291.152,273.738
			l-1.766-2.426c2.111-1.536,4.206-3.163,6.227-4.837l1.913,2.311C295.458,270.499,293.313,272.164,291.152,273.738z
			 M133.665,268.82c-2.061-1.705-4.1-3.501-6.059-5.34l2.053-2.188c1.915,1.796,3.906,3.551,5.919,5.217L133.665,268.82z
			 M303.581,263.445l-2.055-2.185c1.911-1.796,3.788-3.673,5.578-5.578l2.187,2.055
			C307.458,259.686,305.537,261.607,303.581,263.445z M121.893,257.773c-1.832-1.948-3.63-3.984-5.345-6.051l2.31-1.916
			c1.674,2.02,3.431,4.009,5.221,5.912L121.893,257.773z M314.634,251.681l-2.31-1.914c1.672-2.019,3.301-4.115,4.841-6.232
			l2.426,1.766C318.014,247.468,316.346,249.615,314.634,251.681z M111.593,245.349c-1.575-2.162-3.105-4.405-4.546-6.669
			l2.53-1.611c1.408,2.211,2.902,4.402,4.44,6.513L111.593,245.349z M324.139,238.622l-2.531-1.61
			c1.405-2.208,2.759-4.493,4.024-6.79l2.628,1.447C326.965,234.021,325.578,236.361,324.139,238.622z M102.93,231.743
			c-1.294-2.345-2.529-4.761-3.673-7.181l2.713-1.281c1.116,2.363,2.323,4.723,3.587,7.013L102.93,231.743z M331.937,224.47
			l-2.714-1.279c1.119-2.374,2.175-4.811,3.139-7.246l2.789,1.105C334.164,219.542,333.082,222.038,331.937,224.47z M96.045,217.165
			c-0.989-2.489-1.912-5.045-2.743-7.595l2.853-0.929c0.811,2.49,1.712,4.985,2.678,7.417L96.045,217.165z M337.89,209.438
			l-2.853-0.926c0.809-2.494,1.547-5.042,2.195-7.574l2.906,0.743C339.475,204.275,338.719,206.885,337.89,209.438z M91.046,201.816
			c-0.666-2.591-1.259-5.243-1.762-7.88l2.947-0.563c0.491,2.576,1.07,5.165,1.72,7.696L91.046,201.816z M341.892,193.8
			l-2.947-0.559c0.487-2.569,0.899-5.19,1.224-7.79l2.977,0.372C342.813,188.485,342.391,191.169,341.892,193.8z M88.022,185.962
			c-0.335-2.658-0.59-5.362-0.759-8.038l2.994-0.188c0.164,2.614,0.413,5.255,0.741,7.851L88.022,185.962z M343.895,177.785
			l-2.994-0.186c0.161-2.61,0.243-5.262,0.243-7.883v-0.27h3v0.27C344.144,172.398,344.06,175.113,343.895,177.785z M90.006,169.852
			h-3v-0.135c0-2.638,0.081-5.307,0.241-7.931l2.994,0.182c-0.156,2.564-0.235,5.171-0.235,7.749V169.852z M340.883,161.565
			c-0.168-2.619-0.42-5.26-0.749-7.851l2.976-0.378c0.337,2.651,0.595,5.355,0.768,8.036L340.883,161.565z M90.965,154.115
			l-2.978-0.369c0.331-2.665,0.749-5.349,1.245-7.978l2.948,0.556C91.697,148.891,91.288,151.513,90.965,154.115z M338.894,145.927
			c-0.493-2.57-1.074-5.159-1.729-7.693l2.905-0.75c0.67,2.595,1.266,5.246,1.77,7.878L338.894,145.927z M93.884,138.625
			l-2.907-0.74c0.662-2.597,1.415-5.208,2.24-7.758l2.854,0.923C95.266,133.54,94.53,136.089,93.884,138.625z M334.954,130.665
			c-0.813-2.487-1.717-4.981-2.687-7.414l2.787-1.11c0.993,2.491,1.918,5.045,2.751,7.592L334.954,130.665z M98.738,123.614
			l-2.79-1.102c0.986-2.497,2.065-4.995,3.206-7.424l2.715,1.276C100.755,118.736,99.702,121.175,98.738,123.614z M329.123,116.032
			c-1.119-2.363-2.329-4.721-3.595-7.009l2.625-1.452c1.296,2.343,2.535,4.757,3.681,7.177L329.123,116.032z M105.452,109.329
			l-2.629-1.444c1.292-2.353,2.676-4.693,4.113-6.958l2.533,1.608C108.066,104.746,106.715,107.032,105.452,109.329z M321.5,102.251
			c-1.408-2.204-2.904-4.395-4.447-6.509l2.423-1.769c1.58,2.164,3.112,4.406,4.553,6.663L321.5,102.251z M113.905,96.007
			l-2.428-1.763c1.573-2.166,3.238-4.314,4.949-6.385l2.313,1.911C117.067,91.793,115.441,93.891,113.905,96.007z M312.206,89.524
			c-1.673-2.013-3.431-4.001-5.227-5.905l2.184-2.058c1.837,1.951,3.638,3.984,5.351,6.046L312.206,89.524z M123.953,83.85
			l-2.188-2.052c1.835-1.957,3.754-3.88,5.704-5.716l2.057,2.185C127.62,80.06,125.745,81.938,123.953,83.85z M301.393,78.049
			c-1.91-1.789-3.903-3.542-5.924-5.211l1.91-2.313c2.068,1.708,4.109,3.503,6.065,5.334L301.393,78.049z M135.433,73.043
			l-1.916-2.309c2.065-1.713,4.208-3.381,6.37-4.958l1.768,2.424C139.543,69.74,137.449,71.37,135.433,73.043z M289.231,68.007
			c-2.12-1.538-4.316-3.029-6.53-4.431l1.605-2.534c2.267,1.436,4.516,2.963,6.686,4.538L289.231,68.007z M148.165,63.756
			l-1.612-2.529c2.26-1.441,4.594-2.828,6.936-4.122l1.451,2.626C152.652,60.995,150.372,62.35,148.165,63.756z M275.904,59.563
			c-2.297-1.261-4.664-2.465-7.038-3.579l1.275-2.716c2.43,1.141,4.855,2.374,7.207,3.665L275.904,59.563z M161.951,56.14
			l-1.283-2.712c2.422-1.146,4.91-2.228,7.395-3.216L169.171,53C166.745,53.965,164.316,55.021,161.951,56.14z M261.616,52.856
			c-2.439-0.962-4.94-1.858-7.436-2.663l0.921-2.855c2.556,0.825,5.118,1.743,7.616,2.728L261.616,52.856z M176.587,50.317
			l-0.931-2.852c2.549-0.832,5.157-1.592,7.752-2.261l0.748,2.905C181.622,48.762,179.075,49.505,176.587,50.317z M246.602,48.01
			c-2.532-0.644-5.123-1.216-7.7-1.7l0.554-2.948c2.64,0.496,5.293,1.081,7.886,1.741L246.602,48.01z M191.851,46.385l-0.563-2.946
			c2.632-0.503,5.315-0.929,7.975-1.266l0.377,2.977C197.041,45.478,194.421,45.894,191.851,46.385z M231.109,45.099
			c-2.591-0.32-5.233-0.563-7.852-0.721l0.181-2.994c2.682,0.162,5.387,0.41,8.04,0.737L231.109,45.099z M207.489,44.404
			l-0.19-2.994c2.667-0.169,5.382-0.257,8.07-0.262l0.005,3C212.747,44.152,210.094,44.238,207.489,44.404z"/>
		<path style="fill:#FFAE34;" d="M352.786,426.192l-0.002-2.861c2.509-0.002,5.04-0.081,7.52-0.236l0.179,2.855
			C357.944,426.109,355.355,426.19,352.786,426.192z M345.091,425.958c-2.548-0.156-5.127-0.396-7.667-0.712l0.353-2.839
			c2.481,0.308,5,0.542,7.489,0.695L345.091,425.958z M368.148,425.23l-0.356-2.839c2.477-0.311,4.977-0.705,7.428-1.171
			l0.535,2.811C373.245,424.508,370.686,424.911,368.148,425.23z M329.817,424.057c-2.512-0.474-5.041-1.036-7.518-1.668
			l0.708-2.772c2.419,0.618,4.889,1.165,7.341,1.629L329.817,424.057z M383.272,422.355l-0.711-2.772
			c2.414-0.618,4.844-1.324,7.221-2.097l0.885,2.721C388.232,420.999,385.744,421.721,383.272,422.355z M314.9,420.247
			c-2.432-0.788-4.874-1.665-7.259-2.609l1.051-2.66c2.33,0.92,4.715,1.778,7.09,2.547L314.9,420.247z M397.913,417.596l-1.055-2.66
			c2.32-0.921,4.639-1.926,6.889-2.988l1.221,2.587C402.663,415.623,400.289,416.652,397.913,417.596z M300.562,414.577
			c-2.311-1.088-4.621-2.266-6.869-3.502l1.379-2.507c2.195,1.208,4.451,2.358,6.708,3.42L300.562,414.577z M411.818,411.036
			l-1.38-2.505c2.181-1.202,4.356-2.491,6.464-3.832l1.536,2.414C416.279,408.487,414.051,409.807,411.818,411.036z M287.06,407.148
			c-2.159-1.372-4.303-2.829-6.371-4.334l1.682-2.314c2.02,1.468,4.114,2.893,6.224,4.233L287.06,407.148z M424.799,402.781
			l-1.684-2.314c2.013-1.465,4.011-3.017,5.939-4.613l1.824,2.204C428.906,399.691,426.86,401.28,424.799,402.781z M274.602,398.09
			c-1.966-1.626-3.91-3.339-5.779-5.093l1.958-2.086c1.826,1.713,3.725,3.386,5.644,4.975L274.602,398.09z M436.653,392.964
			l-1.96-2.084c1.823-1.713,3.612-3.503,5.32-5.32l2.085,1.96C440.351,389.379,438.519,391.211,436.653,392.964z M263.375,387.555
			c-1.747-1.858-3.462-3.8-5.097-5.771l2.203-1.827c1.597,1.926,3.272,3.823,4.979,5.638L263.375,387.555z M447.195,381.745
			l-2.204-1.826c1.595-1.925,3.148-3.925,4.617-5.943l2.313,1.684C450.418,377.727,448.827,379.774,447.195,381.745z
			 M253.553,375.706c-1.502-2.062-2.961-4.201-4.335-6.36l2.413-1.537c1.342,2.109,2.768,4.199,4.235,6.211L253.553,375.706z
			 M456.259,369.291l-2.414-1.536c1.34-2.106,2.632-4.285,3.838-6.475l2.506,1.38C458.954,364.903,457.632,367.134,456.259,369.291z
			 M245.29,362.73c-1.234-2.237-2.412-4.541-3.503-6.849l2.587-1.222c1.065,2.254,2.216,4.504,3.421,6.689L245.29,362.73z
			 M463.696,355.793l-2.588-1.22c1.067-2.264,2.074-4.589,2.994-6.91l2.66,1.053C465.82,351.094,464.788,353.475,463.696,355.793z
			 M238.724,348.827c-0.943-2.374-1.824-4.811-2.616-7.244l2.721-0.886c0.773,2.375,1.633,4.755,2.554,7.073L238.724,348.827z
			 M469.374,341.458l-2.721-0.883c0.772-2.378,1.476-4.809,2.094-7.223l2.772,0.709
			C470.885,336.533,470.164,339.022,469.374,341.458z M233.956,334.188c-0.635-2.471-1.201-5-1.681-7.515l2.811-0.536
			c0.469,2.456,1.02,4.926,1.641,7.34L233.956,334.188z M473.191,326.543l-2.811-0.533c0.464-2.45,0.857-4.95,1.167-7.429
			l2.839,0.355C474.068,321.475,473.667,324.034,473.191,326.543z M231.073,319.068c-0.32-2.535-0.563-5.114-0.724-7.666l2.855-0.18
			c0.157,2.493,0.395,5.012,0.707,7.487L231.073,319.068z M475.101,311.27l-2.855-0.177c0.154-2.49,0.232-5.019,0.232-7.518v-0.258
			h2.861v0.258C475.338,306.133,475.258,308.722,475.101,311.27z M232.964,303.704h-2.861v-0.129c0-2.516,0.077-5.061,0.23-7.564
			l2.855,0.174c-0.148,2.445-0.224,4.931-0.224,7.39V303.704z M472.228,295.801c-0.16-2.498-0.4-5.017-0.715-7.487l2.838-0.36
			c0.322,2.529,0.568,5.107,0.732,7.664L472.228,295.801z M233.88,288.696l-2.84-0.352c0.315-2.542,0.715-5.102,1.187-7.609
			l2.812,0.53C234.577,283.714,234.188,286.214,233.88,288.696z M470.331,280.886c-0.47-2.451-1.025-4.92-1.648-7.337l2.77-0.715
			c0.639,2.475,1.207,5.003,1.688,7.514L470.331,280.886z M236.663,273.923l-2.773-0.706c0.631-2.477,1.35-4.966,2.136-7.399
			l2.722,0.88C237.981,269.073,237.279,271.504,236.663,273.923z M466.573,266.331c-0.775-2.372-1.638-4.751-2.562-7.071
			l2.658-1.059c0.947,2.375,1.829,4.811,2.624,7.24L466.573,266.331z M241.293,259.606l-2.661-1.051
			c0.94-2.381,1.969-4.763,3.058-7.08l2.589,1.217C243.216,254.955,242.212,257.281,241.293,259.606z M461.013,252.376
			c-1.067-2.254-2.221-4.503-3.428-6.685l2.503-1.385c1.236,2.234,2.417,4.537,3.51,6.845L461.013,252.376z M247.696,245.982
			l-2.507-1.378c1.233-2.244,2.552-4.476,3.923-6.635l2.416,1.533C250.189,241.612,248.9,243.792,247.696,245.982z M453.742,239.232
			c-1.342-2.103-2.769-4.191-4.241-6.208l2.311-1.687c1.507,2.064,2.968,4.202,4.342,6.355L453.742,239.232z M255.757,233.277
			l-2.315-1.681c1.5-2.066,3.088-4.114,4.72-6.089l2.205,1.823C258.774,229.258,257.222,231.26,255.757,233.277z M444.878,227.094
			c-1.595-1.92-3.272-3.815-4.985-5.632l2.082-1.962c1.752,1.86,3.469,3.8,5.103,5.766L444.878,227.094z M265.34,221.683
			l-2.087-1.957c1.75-1.866,3.58-3.7,5.44-5.451l1.961,2.083C268.837,218.068,267.05,219.86,265.34,221.683z M434.566,216.151
			c-1.822-1.706-3.723-3.378-5.65-4.969l1.822-2.206c1.973,1.629,3.919,3.341,5.784,5.088L434.566,216.151z M276.289,211.376
			l-1.827-2.202c1.969-1.634,4.013-3.225,6.075-4.729l1.686,2.312C280.208,208.227,278.212,209.781,276.289,211.376z
			 M422.967,206.574c-2.021-1.466-4.117-2.889-6.227-4.226l1.531-2.417c2.162,1.369,4.307,2.826,6.377,4.327L422.967,206.574z
			 M288.431,202.52l-1.538-2.412c2.155-1.374,4.381-2.697,6.615-3.931l1.384,2.504C292.71,199.886,290.536,201.178,288.431,202.52z
			 M410.258,198.52c-2.191-1.202-4.449-2.351-6.712-3.413l1.215-2.59c2.318,1.088,4.63,2.264,6.873,3.495L410.258,198.52z
			 M301.579,195.256l-1.224-2.586c2.31-1.092,4.683-2.124,7.053-3.067l1.057,2.659C306.151,193.182,303.834,194.189,301.579,195.256
			z M396.63,192.124c-2.326-0.917-4.712-1.772-7.092-2.54l0.878-2.723c2.438,0.787,4.881,1.662,7.263,2.601L396.63,192.124z
			 M315.537,189.702l-0.888-2.72c2.431-0.793,4.918-1.519,7.393-2.156l0.714,2.771C320.34,188.22,317.911,188.928,315.537,189.702z
			 M382.312,187.502c-2.414-0.614-4.885-1.16-7.344-1.621l0.528-2.812c2.518,0.473,5.048,1.032,7.521,1.661L382.312,187.502z
			 M330.095,185.953l-0.537-2.81c2.51-0.48,5.069-0.886,7.605-1.208l0.359,2.839C335.045,185.088,332.546,185.484,330.095,185.953z
			 M367.536,184.726c-2.471-0.305-4.991-0.536-7.489-0.687l0.172-2.855c2.557,0.154,5.137,0.391,7.668,0.703L367.536,184.726z
			 M345.009,184.063l-0.182-2.855c2.544-0.162,5.133-0.245,7.696-0.25l0.005,2.861C350.024,183.823,347.494,183.905,345.009,184.063
			z"/>
		<linearGradient id="SVGID_1_" gradientUnits="userSpaceOnUse" x1="249.3949" y1="458.8927" x2="250.2479" y2="378.0266">
			<stop  offset="0" style="stop-color:#A0F4E5"/>
			<stop  offset="1" style="stop-color:#61ACDF"/>
		</linearGradient>
		<ellipse style="fill:url(#SVGID_1_);" cx="250" cy="401.528" rx="220.485" ry="46.774"/>
		
			<linearGradient id="SVGID_00000034809934933651086380000007199824854911834516_" gradientUnits="userSpaceOnUse" x1="250" y1="435.7576" x2="250" y2="353.9">
			<stop  offset="0" style="stop-color:#BFFFF3"/>
			<stop  offset="1" style="stop-color:#61D2DF"/>
		</linearGradient>
		
			<ellipse style="fill:url(#SVGID_00000034809934933651086380000007199824854911834516_);" cx="250" cy="401.528" rx="202.762" ry="35.103"/>
		<g>
			
				<linearGradient id="SVGID_00000002368273434823779700000015572336360373113743_" gradientUnits="userSpaceOnUse" x1="415.2472" y1="80.24" x2="332.9846" y2="249.5246">
				<stop  offset="0" style="stop-color:#E525C7"/>
				<stop  offset="1" style="stop-color:#FFD030"/>
			</linearGradient>
			<path style="fill:url(#SVGID_00000002368273434823779700000015572336360373113743_);" d="M428.606,174.464l12.437-4.218
				c-0.539-6.578-0.465-5.685-1.004-12.263l-12.958-2.138c-1.676-4.685-2.058-5.755-3.734-10.44l8.662-9.871
				c-3.756-5.428-3.246-4.691-7.001-10.118l-12.291,4.627c-3.794-3.219-4.66-3.954-8.454-7.174l2.566-12.88
				c-5.966-2.823-5.156-2.439-11.123-5.262l-8.331,10.152c-4.895-0.891-6.013-1.095-10.909-1.986l-4.218-12.437
				c-6.578,0.539-5.685,0.466-12.263,1.004l-2.138,12.958c-4.685,1.676-5.755,2.058-10.44,3.734l-9.871-8.662
				c-5.428,3.755-4.691,3.246-10.118,7.001l4.627,12.291c-3.22,3.794-3.955,4.66-7.174,8.454l-12.88-2.566
				c-2.823,5.966-2.439,5.156-5.262,11.122l10.152,8.331c-0.891,4.895-1.095,6.013-1.986,10.909l-12.437,4.218
				c0.539,6.578,0.465,5.685,1.004,12.263l12.958,2.138c1.676,4.685,2.058,5.755,3.734,10.44l-8.662,9.871
				c3.756,5.428,3.246,4.691,7.001,10.118l12.291-4.627c3.794,3.219,4.66,3.955,8.454,7.174l-2.566,12.88
				c5.966,2.823,5.156,2.439,11.122,5.262l8.331-10.153c4.895,0.891,6.013,1.095,10.908,1.986l4.218,12.437
				c6.578-0.539,5.685-0.466,12.263-1.004l2.138-12.958c4.685-1.676,5.755-2.058,10.44-3.734l9.872,8.662
				c5.428-3.756,4.691-3.246,10.118-7.001l-4.627-12.291c3.22-3.794,3.955-4.66,7.174-8.454l12.88,2.566
				c2.823-5.966,2.439-5.156,5.262-11.122l-10.152-8.331C427.512,180.478,427.715,179.359,428.606,174.464z M364.595,209.056
				c-21.709-3.952-36.104-24.755-32.151-46.465c3.953-21.709,24.755-36.104,46.465-32.152c21.709,3.952,36.104,24.755,32.151,46.465
				C407.107,198.614,386.304,213.009,364.595,209.056z"/>
			
				<linearGradient id="SVGID_00000134937751696601560950000015200250885461021059_" gradientUnits="userSpaceOnUse" x1="415.2471" y1="80.24" x2="332.9846" y2="249.5244">
				<stop  offset="0" style="stop-color:#E525C7"/>
				<stop  offset="1" style="stop-color:#FFD030"/>
			</linearGradient>
			<path style="fill:url(#SVGID_00000134937751696601560950000015200250885461021059_);" d="M366.919,196.291
				c-14.636-2.665-24.375-16.74-21.711-31.376c2.665-14.636,16.74-24.375,31.376-21.711c14.636,2.665,24.375,16.74,21.711,31.376
				C395.63,189.216,381.555,198.956,366.919,196.291z M375.578,148.73c-11.589-2.11-22.735,5.602-24.845,17.191
				c-2.11,11.589,5.602,22.735,17.192,24.845c11.589,2.11,22.735-5.603,24.844-17.191
				C394.879,161.986,387.167,150.84,375.578,148.73z"/>
		</g>
		<g>
			
				<linearGradient id="SVGID_00000097498302485291962580000010367540503699703174_" gradientUnits="userSpaceOnUse" x1="211.1814" y1="342.4458" x2="85.9225" y2="184.8621">
				<stop  offset="0" style="stop-color:#A0F4E5"/>
				<stop  offset="1" style="stop-color:#61ACDF"/>
			</linearGradient>
			<path style="fill:url(#SVGID_00000097498302485291962580000010367540503699703174_);" d="M216.299,261.858l16.2-5.494
				c-0.702-8.568-0.606-7.405-1.308-15.973l-16.879-2.785c-2.183-6.102-2.681-7.496-4.864-13.599l11.283-12.858
				c-4.892-7.07-4.228-6.11-9.12-13.179l-16.01,6.027c-4.941-4.193-6.07-5.151-11.012-9.345l3.342-16.777
				c-7.772-3.676-6.716-3.177-14.488-6.854l-10.851,13.224c-6.376-1.161-7.832-1.426-14.209-2.587l-5.494-16.2
				c-8.569,0.702-7.405,0.606-15.974,1.308l-2.785,16.878c-6.103,2.183-7.496,2.682-13.6,4.864l-12.858-11.283
				c-7.07,4.892-6.11,4.228-13.18,9.119l6.027,16.01c-4.194,4.942-5.151,6.07-9.344,11.012l-16.777-3.342
				c-3.676,7.771-3.177,6.716-6.854,14.487l13.224,10.851c-1.161,6.376-1.426,7.833-2.587,14.209l-16.201,5.494
				c0.702,8.569,0.606,7.405,1.308,15.973l16.879,2.785c2.182,6.102,2.681,7.496,4.864,13.599l-11.283,12.858
				c4.892,7.07,4.228,6.11,9.12,13.179l16.009-6.027c4.942,4.194,6.071,5.151,11.012,9.345l-3.342,16.777
				c7.772,3.676,6.716,3.177,14.488,6.854l10.851-13.224c6.376,1.161,7.832,1.426,14.209,2.587l5.494,16.2
				c8.569-0.702,7.405-0.607,15.974-1.308l2.785-16.878c6.103-2.183,7.496-2.682,13.599-4.864l12.859,11.283
				c7.07-4.892,6.11-4.228,13.18-9.119l-6.028-16.01c4.194-4.942,5.152-6.07,9.345-11.012l16.777,3.342
				c3.677-7.771,3.177-6.716,6.854-14.487l-13.224-10.851C214.873,269.691,215.138,268.234,216.299,261.858z M132.92,306.916
				c-28.277-5.148-47.028-32.245-41.879-60.523c5.148-28.278,32.245-47.028,60.523-41.879c28.277,5.148,47.027,32.245,41.879,60.523
				C188.294,293.315,161.197,312.065,132.92,306.916z"/>
			
				<linearGradient id="SVGID_00000116224020035701034630000013693850392501956240_" gradientUnits="userSpaceOnUse" x1="211.1813" y1="342.4458" x2="85.9226" y2="184.8623">
				<stop  offset="0" style="stop-color:#A0F4E5"/>
				<stop  offset="1" style="stop-color:#61ACDF"/>
			</linearGradient>
			<path style="fill:url(#SVGID_00000116224020035701034630000013693850392501956240_);" d="M147.226,228.338
				c-15.095-2.748-29.613,7.297-32.362,22.393c-2.748,15.095,7.298,29.613,22.393,32.362c15.095,2.748,29.613-7.297,32.361-22.393
				C172.367,245.604,162.321,231.086,147.226,228.338z"/>
		</g>
		<g>
			
				<linearGradient id="SVGID_00000056414243937015648030000018342561303274205631_" gradientUnits="userSpaceOnUse" x1="396.6345" y1="132.2899" x2="457.9679" y2="38.9563">
				<stop  offset="0" style="stop-color:#A0F4E5"/>
				<stop  offset="1" style="stop-color:#61ACDF"/>
			</linearGradient>
			<path style="fill:url(#SVGID_00000056414243937015648030000018342561303274205631_);" d="M468.061,78.943l7.545-2.559
				c-0.327-3.99-0.282-3.449-0.609-7.439l-7.861-1.297c-1.017-2.842-1.249-3.491-2.265-6.333l5.255-5.988
				c-2.278-3.292-1.969-2.845-4.247-6.138l-7.456,2.807c-2.301-1.953-2.827-2.399-5.128-4.352l1.557-7.813
				c-3.619-1.712-3.128-1.48-6.747-3.192l-5.054,6.159c-2.97-0.541-3.648-0.664-6.617-1.205l-2.559-7.545
				c-3.991,0.327-3.449,0.282-7.439,0.609l-1.297,7.861c-2.842,1.016-3.491,1.249-6.333,2.265l-5.988-5.255
				c-3.293,2.278-2.845,1.969-6.138,4.247l2.807,7.456c-1.953,2.302-2.399,2.827-4.352,5.129l-7.813-1.556
				c-1.712,3.619-1.48,3.128-3.192,6.747l6.159,5.054c-0.541,2.969-0.664,3.648-1.205,6.617l-7.545,2.559
				c0.327,3.991,0.282,3.449,0.609,7.439l7.861,1.297c1.016,2.842,1.249,3.491,2.265,6.333l-5.255,5.988
				c2.278,3.292,1.969,2.845,4.247,6.138l7.456-2.807c2.302,1.953,2.827,2.399,5.129,4.352l-1.556,7.813
				c3.619,1.712,3.128,1.48,6.747,3.192l5.054-6.159c2.969,0.541,3.648,0.664,6.617,1.205l2.559,7.545
				c3.991-0.327,3.449-0.283,7.439-0.609l1.297-7.861c2.842-1.017,3.491-1.249,6.333-2.265l5.988,5.255
				c3.293-2.278,2.845-1.969,6.138-4.247l-2.807-7.456c1.953-2.301,2.399-2.827,4.352-5.129l7.813,1.557
				c1.712-3.619,1.48-3.128,3.192-6.747l-6.159-5.054C467.397,82.591,467.52,81.912,468.061,78.943z M429.23,99.927
				c-13.169-2.397-21.902-15.017-19.504-28.187s15.017-21.902,28.187-19.504c13.169,2.398,21.902,15.017,19.504,28.187
				C455.019,93.593,442.399,102.325,429.23,99.927z"/>
			
				<linearGradient id="SVGID_00000005231849834255838930000012679580239871780520_" gradientUnits="userSpaceOnUse" x1="396.6344" y1="132.2899" x2="457.9675" y2="38.9567">
				<stop  offset="0" style="stop-color:#A0F4E5"/>
				<stop  offset="1" style="stop-color:#61ACDF"/>
			</linearGradient>
			<path style="fill:url(#SVGID_00000005231849834255838930000012679580239871780520_);" d="M435.892,63.332
				c-7.03-1.28-13.791,3.398-15.071,10.429c-1.28,7.03,3.399,13.791,10.429,15.071c7.03,1.28,13.791-3.398,15.071-10.429
				C447.601,71.373,442.923,64.612,435.892,63.332z"/>
		</g>
		<g>
			<path style="fill:#2B2345;" d="M364.127,377.495H135.873c-2.415,0-4.373-1.958-4.373-4.373V95.758
				c0-2.415,1.958-4.373,4.373-4.373h228.254c2.415,0,4.373,1.958,4.373,4.373v277.364
				C368.5,375.537,366.542,377.495,364.127,377.495z"/>
			<g>
				<defs>
					<path id="XMLID_62_" d="M353.337,368.425H146.663c-2.442,0-4.422-1.98-4.422-4.422V104.878c0-2.442,1.98-4.422,4.422-4.422
						h206.673c2.442,0,4.422,1.98,4.422,4.422v259.125C357.758,366.445,355.779,368.425,353.337,368.425z"/>
				</defs>
				<use xlink:href="#XMLID_62_"  style="overflow:visible;fill:#DFE9FF;"/>
				<clipPath id="XMLID_00000121970398417277336460000006862354419043529648_">
					<use xlink:href="#XMLID_62_"  style="overflow:visible;"/>
				</clipPath>
				
					<linearGradient id="SVGID_00000057845608687855840500000008671944979182296506_" gradientUnits="userSpaceOnUse" x1="121.4251" y1="351.3333" x2="380.0917" y2="351.3333">
					<stop  offset="0" style="stop-color:#E525C7"/>
					<stop  offset="1" style="stop-color:#FFD030"/>
				</linearGradient>
				
					<rect x="121.425" y="317" style="clip-path:url(#XMLID_00000121970398417277336460000006862354419043529648_);fill:url(#SVGID_00000057845608687855840500000008671944979182296506_);" width="258.667" height="68.667"/>
				
					<rect x="164.771" y="324.691" style="clip-path:url(#XMLID_00000121970398417277336460000006862354419043529648_);fill:#FFFFFF;" width="111.326" height="5.458"/>
				
					<rect x="164.771" y="338.722" style="clip-path:url(#XMLID_00000121970398417277336460000006862354419043529648_);fill:#FFFFFF;" width="58.44" height="5.458"/>
				
					<linearGradient id="SVGID_00000070832519608136873270000004188683080136451255_" gradientUnits="userSpaceOnUse" x1="121.4251" y1="110.6074" x2="380.0917" y2="110.6074">
					<stop  offset="0" style="stop-color:#E525C7"/>
					<stop  offset="1" style="stop-color:#FFD030"/>
				</linearGradient>
				
					<rect x="121.425" y="76.274" style="clip-path:url(#XMLID_00000121970398417277336460000006862354419043529648_);fill:url(#SVGID_00000070832519608136873270000004188683080136451255_);" width="258.667" height="68.667"/>
				
					<linearGradient id="SVGID_00000158741237625300413390000002430563980019378823_" gradientUnits="userSpaceOnUse" x1="84.2813" y1="387.0869" x2="319.3221" y2="387.0869">
					<stop  offset="0" style="stop-color:#E525C7"/>
					<stop  offset="1" style="stop-color:#FFD030"/>
				</linearGradient>
				
					<rect x="121.425" y="352.754" style="clip-path:url(#XMLID_00000121970398417277336460000006862354419043529648_);fill:url(#SVGID_00000158741237625300413390000002430563980019378823_);" width="258.667" height="68.667"/>
				
					<linearGradient id="SVGID_00000107553390994855868840000001355190456112143027_" gradientUnits="userSpaceOnUse" x1="84.2813" y1="81.9237" x2="319.3221" y2="81.9237">
					<stop  offset="0" style="stop-color:#E525C7"/>
					<stop  offset="1" style="stop-color:#FFD030"/>
				</linearGradient>
				
					<rect x="121.425" y="47.59" style="clip-path:url(#XMLID_00000121970398417277336460000006862354419043529648_);fill:url(#SVGID_00000107553390994855868840000001355190456112143027_);" width="258.667" height="68.667"/>
				<path style="clip-path:url(#XMLID_00000121970398417277336460000006862354419043529648_);fill:#FFFFFF;" d="M267.395,287.092
					h-93.792c-5.207,0-9.428-4.221-9.428-9.428v-93.792c0-5.207,4.221-9.428,9.428-9.428h93.792c5.207,0,9.428,4.221,9.428,9.428
					v93.792C276.823,282.871,272.602,287.092,267.395,287.092z"/>
				<path style="clip-path:url(#XMLID_00000121970398417277336460000006862354419043529648_);fill:#FFAE34;" d="M220.499,230.768
					l20.81-36.217c-6.332-3.638-13.508-5.553-20.81-5.553c-22.914,0-41.77,18.856-41.77,41.77c0,22.914,18.856,41.77,41.77,41.77
					s41.77-18.856,41.77-41.77H220.499z"/>
				<path style="clip-path:url(#XMLID_00000121970398417277336460000006862354419043529648_);fill:#1DAFD8;" d="M220.499,230.768
					l33.235,25.302c5.536-7.272,8.535-16.163,8.535-25.302c0-15.635-8.779-30.013-22.686-37.156L220.499,230.768z"/>
				<g style="clip-path:url(#XMLID_00000121970398417277336460000006862354419043529648_);">
					<defs>
						<rect id="XMLID_63_" x="296.415" y="174.444" width="40.344" height="51.345"/>
					</defs>
					<use xlink:href="#XMLID_63_"  style="overflow:visible;fill:#FFFFFF;"/>
					<clipPath id="XMLID_00000008854239606066708030000017809673885625733514_">
						<use xlink:href="#XMLID_63_"  style="overflow:visible;"/>
					</clipPath>
					
						<rect x="296.16" y="174.27" style="clip-path:url(#XMLID_00000008854239606066708030000017809673885625733514_);fill:#FFAE34;" width="40.599" height="40.599"/>
				</g>
				<g style="clip-path:url(#XMLID_00000121970398417277336460000006862354419043529648_);">
					<defs>
						<rect id="XMLID_64_" x="296.415" y="235.307" width="40.344" height="51.345"/>
					</defs>
					<use xlink:href="#XMLID_64_"  style="overflow:visible;fill:#FFFFFF;"/>
					<clipPath id="XMLID_00000005981396872515302520000000725878107759907736_">
						<use xlink:href="#XMLID_64_"  style="overflow:visible;"/>
					</clipPath>
					
						<rect x="296.16" y="235.133" style="clip-path:url(#XMLID_00000005981396872515302520000000725878107759907736_);fill:#1DAFD8;" width="40.599" height="40.599"/>
				</g>
			</g>
			<rect x="164.771" y="128.051" style="fill:#FFFFFF;" width="171.591" height="5.458"/>
		</g>
		<g>
			<path style="fill:#1DAFD8;" d="M127.677,154.913c0,0,5.928,9.565,16.914,3.113c10.987-6.452,6.715-15.545,6.715-15.545
				L127.677,154.913z"/>
			<g>
				<defs>
					<path id="XMLID_66_" d="M115.397,140.877c0,0,4.308,12.046,8.755,15.308s29.65-8.426,30.541-15.043
						c0.891-6.617-7.016-16.028-7.016-16.028L115.397,140.877z"/>
				</defs>
				<use xlink:href="#XMLID_66_"  style="overflow:visible;fill:#61DCE4;"/>
				<clipPath id="XMLID_00000169532606642531975590000001341611348356018623_">
					<use xlink:href="#XMLID_66_"  style="overflow:visible;"/>
				</clipPath>
				<path style="clip-path:url(#XMLID_00000169532606642531975590000001341611348356018623_);fill:#1DAFD8;" d="M110.578,149.393
					c13.034-0.533,25.865-5.237,36.154-13.256c5.459-4.255,10.174-9.373,14.861-14.466c-1.302,6.91-5.736,12.936-11.205,17.357
					c-5.468,4.421-11.587,8.366-18.097,11.023c-7.363,3.005-15.632,4.733-23.482,3.465"/>
				<path style="clip-path:url(#XMLID_00000169532606642531975590000001341611348356018623_);fill:#1DAFD8;" d="M106.238,140.714
					c13.034-0.532,25.865-5.237,36.154-13.256c5.459-4.255,10.174-9.374,14.861-14.467c-1.302,6.91-5.736,12.936-11.205,17.357
					s-11.587,8.366-18.097,11.023c-7.363,3.005-15.631,4.733-23.482,3.464"/>
			</g>
			<g>
				<defs>
					<path id="XMLID_65_" d="M92.112,57.447c26.275-13.185,52.051-3.55,58.085,19.032c5.515,20.636-9.954,33.768-2.519,48.635
						c-3.391,7.518-25.633,18.849-32.281,15.763c-5.916-11.831-26.167-2.496-40.059-23.753
						C61.252,95.572,67.005,70.046,92.112,57.447z"/>
				</defs>
				<use xlink:href="#XMLID_65_"  style="overflow:visible;fill:#FFAE34;"/>
				<clipPath id="XMLID_00000121269633458047538680000005673600849309652877_">
					<use xlink:href="#XMLID_65_"  style="overflow:visible;"/>
				</clipPath>
				
					<linearGradient id="SVGID_00000026139672538804921740000013900683337103399071_" gradientUnits="userSpaceOnUse" x1="121.0945" y1="158.6012" x2="121.0945" y2="181.5997" gradientTransform="matrix(0.8944 -0.4472 0.4472 0.8944 -51.6184 38.9713)">
					<stop  offset="0" style="stop-color:#E525C7"/>
					<stop  offset="1" style="stop-color:#FFAE34"/>
				</linearGradient>
				
					<path style="opacity:0.5;clip-path:url(#XMLID_00000121269633458047538680000005673600849309652877_);fill:url(#SVGID_00000026139672538804921740000013900683337103399071_);" d="
					M155.49,128.626c-2.941-5.882-14.959-5.832-26.843,0.11c-11.884,5.942-19.134,15.527-16.193,21.409
					c2.941,5.881,14.959,5.832,26.843-0.11C151.181,144.092,158.431,134.507,155.49,128.626z"/>
				<path style="clip-path:url(#XMLID_00000121269633458047538680000005673600849309652877_);fill:#FFFFFF;" d="M125.639,135.01
					c-0.586,0-1.142-0.346-1.383-0.919c-3.408-8.109-8.785-19.308-13.595-26.883c-6.933,2.682-10.438-0.052-11.652-1.397
					c-1.901-2.109-2.363-5.266-1.099-7.507c1.094-1.94,3.223-2.813,5.695-2.339c0.982,0.189,3.391,0.651,8.138,7.496
					c2.23-1.057,4.2-2.206,5.899-3.389c-1.795-5.89-0.745-10.933,1.8-13.502c1.82-1.837,4.262-2.182,6.376-0.901
					c1.762,1.069,2.653,2.832,2.508,4.965c-0.2,2.957-2.494,6.841-7.114,10.532c0.479,1.142,1.091,2.336,1.857,3.572
					c7.34,11.846,13.275,22.879,13.334,22.989c0.392,0.73,0.118,1.639-0.612,2.031c-0.73,0.394-1.639,0.119-2.031-0.612
					c-0.059-0.109-5.952-11.064-13.241-22.828c-0.699-1.128-1.292-2.247-1.785-3.347c-1.571,1.047-3.343,2.062-5.32,3.017
					c1.554,2.455,3.318,5.52,5.318,9.354c4.581,8.785,8.253,17.5,8.29,17.587c0.321,0.764-0.038,1.643-0.802,1.964
					C126.029,134.972,125.833,135.01,125.639,135.01z M102.283,98.832c-0.815,0-1.405,0.316-1.76,0.945
					c-0.543,0.964-0.478,2.702,0.715,4.025c1.546,1.715,4.311,2,7.713,0.836c-2.283-3.251-4.355-5.429-5.912-5.728
					C102.768,98.858,102.516,98.832,102.283,98.832z M123.171,87.898c-0.548,0-1.082,0.261-1.599,0.781
					c-1.399,1.413-2.489,4.823-1.378,9.42c3.242-2.789,4.997-5.587,5.138-7.669c0.069-1.014-0.271-1.712-1.071-2.197
					C123.893,88.01,123.529,87.898,123.171,87.898z"/>
			</g>
		</g>
		<path style="opacity:0.48;fill:#FFFFFF;" d="M75.02,87.006c-1.948,8.29-1.682,17.911,4.063,24.197
			c1.512,1.654,3.72,3.085,5.877,2.478c1.775-0.5,2.938-2.273,3.334-4.074c0.396-1.801,0.186-3.67,0.127-5.513
			c-0.185-5.766,1.166-11.574,3.875-16.667c1.436-2.7,3.247-5.205,4.437-8.023c1.19-2.817,1.704-6.113,0.454-8.904
			c-2.914-6.51-9.749-3.626-13.519-0.038C79.093,74.815,76.444,80.945,75.02,87.006z"/>
		<path id="XMLID_67_" style="opacity:0.48;fill:#FFFFFF;" d="M92.018,126.292c1.946,0.875,4.119,1.113,6.252,1.154
			c1.102,0.021,2.348-0.071,3.063-0.91c0.58-0.68,0.628-1.702,0.304-2.535c-0.324-0.833-0.964-1.504-1.654-2.073
			c-2.367-1.952-7.271-3.908-10.284-2.27C86.036,121.65,89.347,125.091,92.018,126.292z"/>
		<g>
			<path style="fill:#61DCE4;" d="M362.764,241.075c10.153,5.089,21.933,5.891,33.269,5.202c8.843-0.538,17.813-1.982,25.672-6.072
				c7.859-4.09,14.522-11.16,16.428-19.811c2.603-11.815-4.351-24.285-14.499-30.873c-16.309-10.588-48.695-11.814-65.094-0.095
				C338.669,203.625,341.21,230.272,362.764,241.075z"/>
			<path style="fill:#61DCE4;" d="M376.623,236.872c-0.55,8.794,2.606,17.762,8.544,24.272c0.583-8.34,1.899-16.629,3.927-24.74"/>
		</g>
		<text transform="matrix(1 0 0 1 367.8481 230.8945)" style="fill:#FFFFFF; font-family:'Amatic-Bold'; font-size:46.4145px;">Idea</text>
		<g>
			<path style="fill:#FFD0C4;" d="M392.559,267.345c0-0.23-2.57-5.583-1.515-8.949c1.056-3.365,3.656-4.207,4.574-4.054
				c0.918,0.153,0.306-4.666,0.841-5.048s1.53-0.229,1.912,0.077c0.382,0.306-0.382,8.337-0.382,8.337s1.3-0.382,1.683,0.688
				c0.382,1.071-2.677,7.342-2.677,7.342L392.559,267.345z"/>
			<path style="fill:#FFFFFF;" d="M397.207,405.669l-1.548,5.387c0,0-11.539,3.835-12.154,4.274
				c-0.615,0.439-0.615,2.635,0.088,2.811c0.703,0.176,20.64-1.054,20.64-1.054v-9.925"/>
			<path style="fill:#FFFFFF;" d="M430.039,407.799l-0.993,5.517c0,0-11.09,4.987-11.657,5.486
				c-0.567,0.499-0.344,2.684,0.373,2.787c0.717,0.103,20.427-3.144,20.427-3.144l-1.008-9.874"/>
			<path style="fill:#2B2345;" d="M405.16,343.934c0,0-9.538,59.732-9.5,62.446c0.038,2.714,8.771,2.714,10.56,0.905
				c1.789-1.81,12.528-53.113,12.528-53.113h5.334c0,0,3.031,54.272,4.388,55.859c1.357,1.587,8.596,1.127,9.953,0
				c1.357-1.127,1.335-66.097,1.335-66.097"/>
			<path style="fill:#8F73E4;" d="M391.74,267.1c0,0-3.623,31.983,17.451,47.728c-4.154,24.546-5.815,31.144-5.815,31.144
				s9.138,1.614,17.861,1.246c8.723-0.368,19.107-1.246,19.107-1.246v-34.428c0,0,7.775,8.848,7.418,13.147
				c-0.357,4.299-1.926,9.283-2.341,10.529c-0.415,1.246-0.831,4.155,1.661,6.647s11.953-12.462,12.369-18.692
				c0.415-6.231-15.369-23.676-19.107-26.999c-3.738-3.323-29.491,0-29.491,0s-11.148-13.301-12.876-31.153
				C392.633,263.595,391.74,267.1,391.74,267.1z"/>
			<path style="fill:#FFD0C4;" d="M416.008,274.75c-0.391,1.475-2.706,10.289-0.392,14.524c1.218,2.229,6.042,2.055,6.042,2.055
				l-0.024,4.796c0,0-3.25,1-3.625,1.75s5.875,8.102,5.875,8.102s9.974-7.352,9.799-8.602c-0.174-1.25-1.799-1.625-1.799-1.625
				l-0.076-7.036c0,0,3.076-2.214,2.701-8.964s-4.125-10.625-7-11.25S417.378,269.577,416.008,274.75z"/>
			<path style="fill:#422C49;" d="M416.008,274.75c0,0-3.75-3.621-0.75-6.998c3-3.377,20.375,0.625,20.375,0.625
				s0.672,16.33-2.135,19.8l-1.691,0.537c0,0,0.481-3.677-0.015-5.988c1.211-0.88,1.208-2.708,1.1-3.522
				c-0.299-2.267-2.806-0.825-2.806-0.825l-0.77,4.127l-1.871-0.055l0.062-9.576C427.508,272.875,422.108,274.903,416.008,274.75z"
				/>
			<path style="fill:#FFD0C4;" d="M445.142,336.575c0,0,0.175,3.672,1.94,5.292c-0.838,1.832-4.501,3.157-4.501,3.157
				s-5.229,0.362-7.189,0.021c-0.475-0.083-0.831-0.83-0.353-1.11c0.947-0.555,4.063-0.937,4.063-0.937s-3.71-0.293-5.001-0.58
				c-0.749-0.166-0.585-1.296-0.236-1.472c0.484-0.245,5.06-0.78,5.06-0.78s-3.407-0.118-4.553-0.643
				c-0.515-0.236-0.174-1.145,0.019-1.472c0.334-0.239,5.064-0.353,5.064-0.353s0.301-0.556,0.889-2.558
				c1.537,0.622,1.836,2.235,1.836,2.235L445.142,336.575z"/>
		</g>
		<circle style="fill:#FFAE34;" cx="273.267" cy="56.965" r="5.124"/>
		<g>
			
				<rect x="272.986" y="-2.039" transform="matrix(0.4637 -0.886 0.886 0.4637 97.3375 272.7906)" style="fill:#FFAE34;" width="2.001" height="116.073"/>
			
				<rect x="322.248" y="79.554" transform="matrix(0.8877 0.4605 -0.4605 0.8877 74.6367 -140.5501)" style="fill:#FFAE34;" width="6.306" height="6.306"/>
			
				<rect x="219.413" y="25.935" transform="matrix(0.8877 0.4605 -0.4605 0.8877 38.3942 -99.2179)" style="fill:#FFAE34;" width="6.306" height="6.306"/>
		</g>
		<g>
			<path style="fill:#E97434;" d="M141.165,310.042c-1.382,2.421-3.25,4.538-4.638,6.956c-1.389,2.418-2.286,5.326-1.482,7.996
				c1.083,3.595,4.834,5.684,6.724,8.928c1.6,2.746,1.735,6.073,1.83,9.25"/>
			<path style="fill:#FFFFFF;" d="M85.076,398.625l-6.05,0.646c0,0-6.754-2.963-7.146-2.963s-1.097,1.254-1.176,1.724
				c-0.078,0.47,4.451,6.662,4.451,6.662l11.757-1.489"/>
			<path style="fill:#FFFFFF;" d="M84.092,386.277l-6.29,3.619c0,0-7.671,0.624-8.067,0.764c-0.396,0.14-0.094,1.938-0.005,2.441
				c0.089,0.503,10.485,1.513,10.485,1.513l5.85-4.355"/>
			<path style="fill:#1896C4;" d="M130.086,378.552c0,0-24.718-5.673-27.303-5.489c-2.585,0.185-22.745,13.747-22.782,14.301
				c-0.037,0.554,2.659,4.582,4.605,4.582c1.274,0,20.447-7.271,20.447-7.271l25.033,7.271l18.227-11.027L130.086,378.552z"/>
			<path style="fill:#E97434;" d="M138.87,322.864c1.235,3.179,1.723,6.645,1.414,10.041c-0.365,4.013-1.821,7.915-1.726,11.943
				c0.118,5.012,2.818,9.894,7.001,12.659c3.399-5.142,4.859-11.489,4.292-17.627c-0.567-6.138-3.118-12.042-7.01-16.822"/>
			<path style="fill:#1DAFD8;" d="M160.038,383.553c0,0,1.286,14.226-7.124,15.37c-8.41,1.144-37.945,1.535-37.945,1.535
				s-29.908,4.027-31.082,3.871c-1.174-0.155-3.325-5.045-2.543-6.414c0.782-1.369,27.191-7.825,30.994-8.607
				c3.804-0.782,31.969-8.39,31.969-8.39L160.038,383.553z"/>
			<path style="fill:#2B2345;" d="M104.093,337.292l7.581-2.287c0,0,0.845,1.051,0.508,1.837c-1.573,0.562-7.431,2.471-7.431,2.471
				L104.093,337.292z"/>
			<path style="fill:#FFD0C4;" d="M121.659,352.11l-9.684,5.62l-7.431-13.44c0,0,2.825-3.86,2.601-5.545
				c-0.225-1.685-4.381-3.547-5.842-3.739c-1.46-0.192-4.044,3.301-4.157,3.857c-0.112,0.556,1.797,2.374,1.797,2.374
				s7.415,24.307,8.875,25.119c1.46,0.812,17.975-6.603,17.975-6.603L121.659,352.11z"/>
			<path style="fill:#4B4B99;" d="M138.636,336.816c0,0-15.296,11.278-18.493,14.603c0.847,4.661,4.169,9.398,4.169,9.398
				l7.454-3.434l-1.68,21.169c0,0,18.104,6.566,29.953,5.001c1.269-4.179,2.264-22.604,2.264-22.604l2.669,6.189l10.609-3.709
				c0,0-7.065-18.038-8.94-20.09C163.141,339.506,146.656,334.786,138.636,336.816z"/>
			<path style="fill:#FFD0C4;" d="M155.892,324.757l0.902,15.436c0,0-5.829,7-10.956,7.596c-2.268-2.859,0-9.293,0-9.293
				l-0.481-4.155c0,0-5.123,0.08-6.672-1.635c-1.549-1.716-2.039-13.393-0.662-17.324c1.377-3.931,12.219-5.84,16.15-2.8
				S155.892,324.757,155.892,324.757z"/>
			<path style="fill:#E97434;" d="M141.718,315.052c0,0,3.142,4.983,10.767,5.709c1.303,2.751-3.171,15.35,0.972,21.799
				c4.143,6.449,2.475,15.622,2.475,15.622s9.523-2.736,10.778-14.593c1.255-11.857-7.757-12.234-4.621-21.934
				c3.136-9.7-4.934-19.139-14.227-18.055c-8.502,0.992-16.049,7.482-12.665,20.041c0.201,0.745,1.465-2.942,2.04-2.273
				C138.418,318.389,141.718,315.052,141.718,315.052z"/>
			<path style="fill:#FFD0C4;" d="M174.563,363.784c0,0,3.532,9.232,3.035,11.363c-0.464,1.989-10.213,11.879-14.706,13.564
				c-4.494,1.685-6.033-1.551-6.033-1.551s-5.69,0.341-6.281,0.271c-0.513-0.06-0.609-0.967-0.609-0.967s5.333-3.653,6.825-3.456
				c1.492,0.198,5.087,0.784,5.087,0.784l7.983-9.936l-3.618-7.165L174.563,363.784z"/>
			<path style="fill:#2B2345;" d="M98.891,338.683l-4.288,1.185l-1.448,1.58l1.596,0.662l4.714-1.551
				C99.465,340.559,100.525,339.738,98.891,338.683z"/>
			<path style="fill:#FFD0C4;" d="M151.467,321.678c0.279-0.259,0.559-0.518,0.838-0.777c0.477-0.443,0.993-0.905,1.636-1.013
				c0.844-0.141,1.702,0.413,2.091,1.175c0.389,0.762,0.374,1.677,0.155,2.504c-0.204,0.77-0.58,1.497-1.113,2.088
				c-0.485,0.538-1.133,0.973-1.856,1.018c-1.116,0.07-2.06-0.766-2.861-1.547c-0.087-0.084-0.168-0.243-0.064-0.305"/>
			<path style="fill:#E97434;" d="M152.639,328.302c-0.33,3.022-1.396,5.906-2.308,8.806c-0.911,2.9-1.682,5.923-1.394,8.949
				c0.288,3.026,1.816,6.087,4.511,7.494c-1.486-3.084-3.007-6.329-2.855-9.749c0.121-2.708,1.295-5.267,2.747-7.556
				c1.452-2.289,3.196-4.383,4.643-6.675"/>
		</g>
		<g>
			<polygon style="fill:#1DAFD8;" points="84.062,353.031 44.584,361.776 44.584,321.403 84.062,330.148 			"/>
			<polygon style="fill:#FFFFFF;" points="63.133,355.344 48.743,358.072 48.743,325.108 63.133,327.835 			"/>
			<polygon style="fill:#FFFFFF;" points="75.686,335.212 66.169,334.201 66.169,328.41 75.686,330.214 			"/>
			<polygon style="fill:#FFFFFF;" points="82.212,340.23 66.169,339.822 66.169,336.926 82.212,338.002 			"/>
			<polygon style="fill:#FFFFFF;" points="82.212,344.184 66.169,344.962 66.169,342.067 82.212,341.957 			"/>
			<polygon style="fill:#FFFFFF;" points="78.855,348.853 66.169,350.473 66.169,347.578 78.855,346.485 			"/>
		</g>
		<g>
			<g>
				<path style="fill:#FFFFFF;" d="M250.476,403.155l-0.815,8.346c0,0,6.697,1.949,8.909,0.15v-8.496"/>
				<path style="fill:#FFFFFF;" d="M279.136,405.914l-0.347,8.379c0,0,5.995,1.602,8.102-0.317l-0.722-8.514"/>
				<path style="fill:#2B2345;" d="M252.491,341.707l-3.606,62.866c0,0,6.071,3.261,10.293,0.513
					c1.143-3.261,6.582-49.785,6.582-49.785l6.83-1.629c0,0,3.299,50.068,4.496,52.702c1.197,2.634,9.31,2.498,10.385,0
					c1.075-2.498-2.1-64.668-2.1-64.668H252.491z"/>
				<path style="fill:#FFD0C4;" d="M263.736,286.598c0.674,3.321,0.874,6.738,0.592,10.116c-0.121,1.449-0.33,2.901-0.221,4.351
					c0.022,0.295,0.073,0.618,0.298,0.809c0.195,0.165,0.47,0.186,0.725,0.199c2.749,0.145,5.498,0.291,8.246,0.436
					c0.214,0.011,0.444,0.019,0.627-0.095c0.263-0.164,0.328-0.512,0.366-0.819c0.629-5.156,0.323-10.425-0.899-15.474"/>
				<path style="fill:#CA4094;" d="M251.547,298.944c-1.33,1.015-2.528,42.45-1.496,45.211c1.032,2.761,37.445,0.656,37.445,0.656
					s2.491-43.261,0.487-45.723C285.979,296.626,263.3,289.973,251.547,298.944z"/>
			</g>
			<path style="fill:#FFD0C4;" d="M222.468,279.072c0,0-6.482-8.884-6.772-10.3c-0.29-1.416,0.677-1.9,0.677-1.9l2.225,3.192
				c0,0-2.419-6.772-1.935-7.256c0.484-0.483,1.838-0.677,1.838-0.677l2.058,5.321c0,0-0.747-5.804-0.387-6.385
				c0.36-0.581,1.521-0.484,1.715-0.29c0.193,0.193,1.161,6.482,1.161,6.482s0.316-6.394,0.787-6.728
				c0.471-0.334,1.342-0.237,1.535,0.247s0.677,7.77,0.677,7.77s2.673-3.417,3.223-3.417s0.807,0.398,0.678,1.118
				c-0.128,0.72-1.966,6.041-1.966,6.041l0.387,6.783"/>
			<path style="fill:#FFD0C4;" d="M314.782,267.345c0,0,6.482-8.884,6.772-10.3c0.29-1.416-0.677-1.9-0.677-1.9l-2.225,3.192
				c0,0,2.419-6.773,1.935-7.256c-0.484-0.483-1.838-0.677-1.838-0.677l-2.058,5.321c0,0,0.747-5.804,0.387-6.385
				c-0.361-0.58-1.521-0.484-1.715-0.29c-0.193,0.194-1.161,6.482-1.161,6.482s-0.316-6.394-0.787-6.728
				c-0.471-0.334-1.341-0.237-1.535,0.246c-0.194,0.484-0.677,7.77-0.677,7.77s-2.673-3.417-3.223-3.417
				c-0.55,0-0.807,0.398-0.678,1.118c0.128,0.72,1.966,6.041,1.966,6.041l-0.387,6.783"/>
			<path style="fill:#CA4094;" d="M252.337,310.607c0,0-25.155-6.07-31.962-32.058c6.4-4.899,9.108-2.344,9.108-2.344
				s7.515,19.278,33.717,21.675"/>
			<path style="fill:#CA4094;" d="M282.222,299.858c0,0,18.121-7.805,25.117-35.177c5.958-2.687,9.228,1.137,9.228,1.137
				s-6.583,38.823-34.345,49.328"/>
			<path style="fill:#422C49;" d="M259.455,269.722c-2.028,1.966-4.523,15.957,1.079,20.466c7.269,5.851,17.415,2.137,19.187,0.154
				s5.081-13.047,0.567-20.236C276.823,264.591,264.849,264.492,259.455,269.722z"/>
		</g>
	</g>
</g>
<g id="DESIGNED_BY_FREEPIK">
	<g>
		<g id="XMLID_25_">
			<g id="XMLID_44_">
				<path id="XMLID_52_" style="fill:#1D262D;" d="M260.104,465.465c-0.432,0.443-0.803,0.931-1.109,1.453l-0.465-0.241
					c-0.067-0.298-0.349-0.503-0.659-0.466c-0.331,0.039-0.568,0.339-0.529,0.67c0.039,0.331,0.339,0.568,0.67,0.529
					c0.065-0.008,0.127-0.026,0.183-0.052l0.451,0.234c-0.251,0.554-0.433,1.139-0.539,1.744l0.746,0.132
					c0.23-1.306,0.85-2.507,1.792-3.473L260.104,465.465z"/>
				<path id="XMLID_51_" style="fill:#1D262D;" d="M265.592,463.163c-0.171,0-0.341,0.006-0.51,0.017l-0.074-0.626
					c0.188-0.149,0.296-0.389,0.266-0.645c-0.046-0.393-0.402-0.674-0.795-0.628c-0.393,0.046-0.674,0.402-0.628,0.795
					c0.03,0.254,0.19,0.461,0.405,0.564l0.074,0.624c-0.714,0.116-1.403,0.332-2.06,0.646l0.327,0.684
					c0.934-0.447,1.942-0.673,2.995-0.673c0.496,0,0.993,0.053,1.475,0.158l0.16-0.741
					C266.692,463.222,266.142,463.163,265.592,463.163z"/>
				<path id="XMLID_50_" style="fill:#1D262D;" d="M272.194,465.711c0.331-0.04,0.566-0.341,0.525-0.672
					c-0.04-0.331-0.341-0.566-0.672-0.526c-0.309,0.038-0.535,0.304-0.53,0.609l-0.416,0.363c-0.418-0.43-0.89-0.813-1.408-1.139
					l-0.404,0.641c1.134,0.715,2.02,1.726,2.563,2.925l0.69-0.313c-0.251-0.554-0.568-1.072-0.942-1.545l0.402-0.351
					C272.065,465.716,272.129,465.719,272.194,465.711z"/>
				<path id="XMLID_49_" style="fill:#1D262D;" d="M265.044,473.372c-0.386,0.023-0.775,0.035-1.157,0.035
					c-0.88,0-1.733-0.061-2.478-0.179c-0.39-0.062-0.846-0.155-1.27-0.292c1.046,1.861,3.069,3.125,5.388,3.125
					c2.855,0,5.262-1.916,5.95-4.504c-0.682,0.449-1.505,0.825-2.459,1.123C267.839,473.047,266.464,473.286,265.044,473.372z"/>
				<path id="XMLID_45_" style="fill:#1D262D;" d="M265.592,464.68c-3.352,0-6.08,2.666-6.08,5.943c0,0.426,0.046,0.849,0.137,1.261
					c0.674,0.483,2.706,0.89,5.348,0.731c2.88-0.173,5.297-0.957,6.672-2.159c-0.005-0.195-0.021-0.39-0.045-0.582
					C271.244,466.913,268.651,464.68,265.592,464.68z M263.432,471.194c-1.02,0-1.85-0.83-1.85-1.85c0-1.02,0.83-1.85,1.85-1.85
					s1.85,0.83,1.85,1.85C265.282,470.365,264.452,471.194,263.432,471.194z M268.17,470.286c-0.75,0-1.36-0.61-1.36-1.36
					s0.61-1.361,1.36-1.361c0.75,0,1.361,0.61,1.361,1.361S268.92,470.286,268.17,470.286z"/>
			</g>
			<path id="XMLID_42_" style="fill:#1D262D;" d="M281.595,466.547c-0.295-0.116-0.805-0.309-1.382-0.237
				c-0.551,0.069-0.844,0.341-0.844,1.007v0.866h2.228v1.717h-2.228v5.455h-1.932v-5.455h-1.339v-1.717h1.339v-0.888
				c0-1.68,0.896-2.783,2.568-2.783c0.642,0,1.157,0.122,1.59,0.308L281.595,466.547z"/>
			<path id="XMLID_40_" style="fill:#1D262D;" d="M286.298,469.879c-0.177-0.03-0.358-0.046-0.526-0.046
				c-0.896,0-1.51,0.548-1.51,1.614v3.908h-1.932v-7.172h1.873v0.785c0.451-0.673,1.14-0.977,2.021-0.977
				c0.414,0,0.848,0.128,1.094,0.337L286.298,469.879z"/>
			<path id="XMLID_37_" style="fill:#1D262D;" d="M293.965,471.757c0,0.222-0.015,0.489-0.037,0.651h-5.085
				c0.207,1.036,0.933,1.488,1.843,1.488c0.622,0,1.295-0.252,1.813-0.688l1.132,1.243c-0.814,0.748-1.85,1.088-3.057,1.088
				c-2.198,0-3.723-1.495-3.723-3.753c0-2.258,1.48-3.797,3.627-3.797C292.544,467.99,293.958,469.522,293.965,471.757z
				 M288.851,471.091h3.175c-0.177-0.918-0.733-1.436-1.561-1.436C289.554,469.655,289.021,470.203,288.851,471.091z"/>
			<path id="XMLID_34_" style="fill:#1D262D;" d="M301.618,471.757c0,0.222-0.015,0.489-0.037,0.651h-5.085
				c0.207,1.036,0.933,1.488,1.843,1.488c0.622,0,1.295-0.252,1.813-0.688l1.132,1.243c-0.814,0.748-1.85,1.088-3.057,1.088
				c-2.198,0-3.723-1.495-3.723-3.753c0-2.258,1.48-3.797,3.626-3.797C300.197,467.99,301.611,469.522,301.618,471.757z
				 M296.504,471.091h3.175c-0.178-0.918-0.733-1.436-1.562-1.436C297.207,469.655,296.674,470.203,296.504,471.091z"/>
			<path id="XMLID_31_" style="fill:#1D262D;" d="M309.964,471.764c0,2.154-1.495,3.775-3.471,3.775
				c-0.962,0-1.643-0.378-2.109-0.933v3.708h-1.924v-10.133h1.887v0.792c0.466-0.585,1.155-0.984,2.139-0.984
				C308.469,467.99,309.964,469.61,309.964,471.764z M304.287,471.764c0,1.132,0.747,1.976,1.843,1.976
				c1.14,0,1.85-0.881,1.85-1.976c0-1.095-0.71-1.976-1.85-1.976C305.035,469.788,304.287,470.632,304.287,471.764z"/>
			<path id="XMLID_28_" style="fill:#1D262D;" d="M313.068,465.836c0,0.696-0.54,1.229-1.236,1.229
				c-0.696,0-1.229-0.533-1.229-1.229c0-0.696,0.533-1.243,1.229-1.243C312.527,464.592,313.068,465.14,313.068,465.836z
				 M312.809,475.354h-1.932v-7.172h1.932V475.354z"/>
			<path id="XMLID_26_" style="fill:#1D262D;" d="M316.032,470.736l2.701-2.554h2.368l-3.479,3.375l3.501,3.797h-2.376l-2.716-2.901
				v2.901h-1.932v-10.658h1.932V470.736z"/>
		</g>
		<g>
			<path style="fill:#1D262D;" d="M184.412,475.289v-1.055c-0.527,0.718-1.391,1.23-2.387,1.23c-1.846,0-3.149-1.406-3.149-3.706
				c0-2.256,1.289-3.721,3.149-3.721c0.952,0,1.816,0.469,2.387,1.245v-3.765h1.099v9.77H184.412z M184.412,473.37v-3.208
				c-0.395-0.615-1.245-1.143-2.124-1.143c-1.421,0-2.27,1.172-2.27,2.739c0,1.567,0.85,2.724,2.27,2.724
				C183.167,474.483,184.017,473.986,184.412,473.37z"/>
			<path style="fill:#1D262D;" d="M186.932,471.744c0-2.051,1.465-3.706,3.486-3.706c2.139,0,3.398,1.67,3.398,3.794v0.279h-5.727
				c0.088,1.333,1.025,2.446,2.549,2.446c0.805,0,1.626-0.322,2.182-0.894l0.527,0.718c-0.703,0.703-1.655,1.084-2.813,1.084
				C188.44,475.465,186.932,473.956,186.932,471.744z M190.403,468.947c-1.509,0-2.256,1.274-2.314,2.358h4.643
				C192.718,470.25,192.014,468.947,190.403,468.947z"/>
			<path style="fill:#1D262D;" d="M194.607,474.351l0.571-0.791c0.469,0.542,1.362,1.011,2.329,1.011c1.084,0,1.67-0.513,1.67-1.216
				c0-1.714-4.38-0.659-4.38-3.281c0-1.098,0.952-2.036,2.636-2.036c1.201,0,2.051,0.454,2.622,1.026l-0.513,0.762
				c-0.424-0.513-1.201-0.894-2.109-0.894c-0.967,0-1.567,0.483-1.567,1.113c0,1.552,4.38,0.527,4.38,3.281
				c0,1.187-0.952,2.138-2.783,2.138C196.306,475.465,195.325,475.113,194.607,474.351z"/>
			<path style="fill:#1D262D;" d="M201.477,466.471c0-0.41,0.337-0.747,0.732-0.747c0.41,0,0.747,0.337,0.747,0.747
				c0,0.41-0.337,0.732-0.747,0.732C201.814,467.203,201.477,466.881,201.477,466.471z M201.667,475.289v-7.075h1.099v7.075H201.667
				z"/>
			<path style="fill:#1D262D;" d="M204.582,477.105l0.556-0.82c0.586,0.703,1.289,0.967,2.3,0.967c1.172,0,2.27-0.571,2.27-2.124
				v-1.011c-0.513,0.718-1.377,1.26-2.373,1.26c-1.845,0-3.149-1.377-3.149-3.662c0-2.27,1.289-3.677,3.149-3.677
				c0.952,0,1.802,0.469,2.373,1.245v-1.069h1.098v6.87c0,2.344-1.64,3.076-3.369,3.076
				C206.237,478.16,205.417,477.926,204.582,477.105z M209.709,473.253v-3.091c-0.381-0.615-1.23-1.143-2.109-1.143
				c-1.421,0-2.27,1.128-2.27,2.695c0,1.553,0.849,2.695,2.27,2.695C208.478,474.41,209.328,473.868,209.709,473.253z"/>
			<path style="fill:#1D262D;" d="M217.413,475.289v-4.629c0-1.245-0.63-1.641-1.582-1.641c-0.865,0-1.685,0.527-2.095,1.099v5.17
				h-1.099v-7.075h1.099v1.025c0.498-0.586,1.465-1.201,2.519-1.201c1.48,0,2.256,0.747,2.256,2.285v4.966H217.413z"/>
			<path style="fill:#1D262D;" d="M219.932,471.744c0-2.051,1.465-3.706,3.486-3.706c2.139,0,3.398,1.67,3.398,3.794v0.279h-5.727
				c0.088,1.333,1.025,2.446,2.549,2.446c0.806,0,1.626-0.322,2.183-0.894l0.527,0.718c-0.703,0.703-1.655,1.084-2.812,1.084
				C221.441,475.465,219.932,473.956,219.932,471.744z M223.404,468.947c-1.509,0-2.256,1.274-2.314,2.358h4.643
				C225.718,470.25,225.015,468.947,223.404,468.947z"/>
			<path style="fill:#1D262D;" d="M233.35,475.289v-1.055c-0.527,0.718-1.391,1.23-2.388,1.23c-1.846,0-3.149-1.406-3.149-3.706
				c0-2.256,1.289-3.721,3.149-3.721c0.952,0,1.817,0.469,2.388,1.245v-3.765h1.098v9.77H233.35z M233.35,473.37v-3.208
				c-0.396-0.615-1.245-1.143-2.124-1.143c-1.421,0-2.27,1.172-2.27,2.739c0,1.567,0.85,2.724,2.27,2.724
				C232.105,474.483,232.954,473.986,233.35,473.37z"/>
			<path style="fill:#1D262D;" d="M239.692,475.289v-9.77h1.099v3.765c0.572-0.776,1.421-1.245,2.388-1.245
				c1.845,0,3.149,1.465,3.149,3.721c0,2.299-1.304,3.706-3.149,3.706c-0.996,0-1.86-0.513-2.388-1.23v1.055H239.692z
				 M242.9,474.483c1.436,0,2.285-1.157,2.285-2.724c0-1.568-0.85-2.739-2.285-2.739c-0.864,0-1.728,0.527-2.109,1.143v3.208
				C241.171,473.986,242.036,474.483,242.9,474.483z"/>
			<path style="fill:#1D262D;" d="M247.528,477.061c0.161,0.073,0.425,0.117,0.601,0.117c0.483,0,0.806-0.161,1.055-0.747
				l0.469-1.069l-2.959-7.148h1.187l2.358,5.8l2.344-5.8h1.201l-3.545,8.51c-0.425,1.025-1.143,1.421-2.08,1.435
				c-0.234,0-0.601-0.044-0.805-0.103L247.528,477.061z"/>
		</g>
	</g>
</g>
</svg>
