<svg xmlns="http://www.w3.org/2000/svg" xmlns:xlink="http://www.w3.org/1999/xlink" width="556" height="310" viewBox="0 0 556 310"><defs><style>.a{fill:#363229;}.b{fill:#fff;}.c{fill:#ccc;}.d{fill:#999;}.e{fill:#514c3f;}.f{fill:#686251;}.g{fill:#ac6510;}.h{fill:#583914;}.i{fill:#db7803;}.j{fill:#9e631d;}.k{fill:#333;}.l{fill:url(#a);}.m{fill:#f2f2f2;}.n{fill:#eee;}.o{fill:#433f34;}.p,.q{fill:#8cb347;}.q{mix-blend-mode:multiply;isolation:isolate;}.r{fill:#738942;}.s{fill:#52632d;}.t{fill:#6a803b;}.u{fill:#aad155;}.v{fill:#738d3b;}.w,.x{fill:#ffc400;}.x{stroke:#fff;stroke-miterlimit:10;stroke-width:6.054px;}.y{fill:#ebebeb;}</style><linearGradient id="a" y1="0.5" x2="1" y2="0.5" gradientUnits="objectBoundingBox"><stop offset="0"/><stop offset="1" stop-color="#ccc"/></linearGradient></defs><g transform="translate(-948 -638)"><g transform="translate(19 183)"><g transform="translate(958.484 455)"><g transform="translate(121.047 52.373)"><g transform="translate(0 108.107)"><path class="a" d="M658.151,540.889,590.178,650.11H726.123Z" transform="translate(-590.178 -540.889)"/><path class="b" d="M722.489,540.889l-18.915,30.336,7.636-1.571Z" transform="translate(-654.517 -540.889)"/><path class="c" d="M732.5,540.889l-11.279,28.765,8.865,2.32" transform="translate(-664.531 -540.889)"/><path class="d" d="M744.13,540.889l-2.414,31.085,12.468-2.348" transform="translate(-676.158 -540.889)"/><path class="b" d="M747.3,540.889l10.054,28.737,2.889.75Z" transform="translate(-679.324 -540.889)"/><path class="d" d="M747.3,540.889l12.942,29.487,4.9-.821" transform="translate(-679.324 -540.889)"/></g><g transform="translate(48.375 28.175)"><path class="e" d="M807.6,356.127,702,545.181H913.212Z" transform="translate(-701.996 -356.127)"/></g><g transform="translate(128.446 0)"><path class="f" d="M1025.592,291,887.08,509.255H1164.1Z" transform="translate(-887.08 -291)"/><path class="b" d="M1156.7,291l-38.545,60.62,15.561-3.139Z" transform="translate(-1018.186 -291)"/><path class="c" d="M1177.106,291l-22.984,57.481,18.065,4.636" transform="translate(-1038.594 -291)"/><path class="d" d="M1200.8,291l-4.92,62.117,25.407-4.693" transform="translate(-1062.285 -291)"/><path class="b" d="M1207.25,291l20.487,57.424,5.886,1.5Z" transform="translate(-1068.738 -291)"/><path class="d" d="M1207.25,291l26.373,58.922,9.979-1.641" transform="translate(-1068.738 -291)"/></g></g><g transform="translate(378.201)"><g transform="translate(3.881 4.582)"><path class="g" d="M1215.954,194.163l-22.251-3.436.785-10.045,22.252,3.436Z" transform="translate(-1193.641 -180.617)"/><path class="g" d="M1215.926,194.142l-.065-.01-22.3-3.444.793-10.157.065.01,22.3,3.444Zm-22.242-3.548,22.135,3.418.776-9.933-22.135-3.418Z" transform="translate(-1193.559 -180.531)"/><g transform="translate(15.296 3.434)"><path class="h" d="M1236.017,198.669l-6.954,1.219.785-10.045,6.953-1.219Z" transform="translate(-1229 -188.557)"/><path class="h" d="M1228.916,199.867l.794-10.158.046-.009,7.026-1.232-.794,10.159-.046.008Zm.9-10.066-.776,9.931,6.834-1.2.776-9.931Z" transform="translate(-1228.916 -188.468)"/></g><g transform="translate(15.298 4.655)"><path class="i" d="M1251.315,204.923l-22.252-3.436.785-10.045,22.251,3.436-7.025,4.8Z" transform="translate(-1229.002 -191.377)"/><path class="i" d="M1251.427,204.924l-22.507-3.476.793-10.157.065.01,22.388,3.457-7.079,4.835Zm-22.382-3.57,22,3.4-6.141-5.162.061-.042,6.91-4.719-22.05-3.4Z" transform="translate(-1228.92 -191.291)"/></g></g><path class="i" d="M1185.529,225.184l-.941-.03,4.021-51.467.941.03Z" transform="translate(-1184.588 -172.066)"/><path class="j" d="M1194.3,171.629a1.776,1.776,0,0,1-1.847,1.578,1.59,1.59,0,0,1-1.592-1.689,1.776,1.776,0,0,1,1.847-1.578A1.59,1.59,0,0,1,1194.3,171.629Z" transform="translate(-1188.144 -169.94)"/></g><g transform="translate(378.855 24.884)"><path class="k" d="M1197.195,251.707a7.547,7.547,0,0,1,.5-1.391c.173-.459.325-.935.5-1.384s.353-.9.524-1.367.314-.935.486-1.377a4.4,4.4,0,0,1,.446.02c.056.49.16.966.253,1.438l.581,2.808c.1.456.224.931.306,1.37a7.679,7.679,0,0,0-.962.6,8.253,8.253,0,0,1-.931.617,1.155,1.155,0,0,1-.45-.322l-.423-.338C1197.829,252.218,1197.342,251.851,1197.195,251.707Zm2.023,18.128,2.612.194,2.3-21.575a.329.329,0,0,1,.058.134l.245,1.028.792,3.6a8.56,8.56,0,0,0,.634,2.318,1.307,1.307,0,0,0,1.959-.2c.056-.086.08-.2.131-.288l.013-.164a2.964,2.964,0,0,1-.09-.52c-.2-1.137-.5-2.354-.757-3.483-.148-.656-.317-1.3-.449-1.974-.066-.333-.136-.673-.206-1a2.58,2.58,0,0,0-.3-.928c-.877-1.586-1.529-1.7-3.6-1.768l-5.561-.18c-.922-.029-1.8,0-2.706-.02s-1.853-.064-2.77-.1-1.862-.07-2.792-.1c-.45-.013-.94-.034-1.388-.029a1.257,1.257,0,0,0-.937.388.858.858,0,0,0-.256.949.985.985,0,0,0,.624.667,17.856,17.856,0,0,0,2.714.158l2.792.09c.909.029,1.859.037,2.762.091.023.165-.582,7.615-.628,8.175-.022.274-.232.331-.479.414-.224.077-.435.15-.642.228-.857.326-1.726.63-2.572.952a5.935,5.935,0,0,0-1.252.533c-1.3.867-.708,2.576-.3,3.679.442,1.212.946,2.269,1.34,3.521a8.51,8.51,0,0,0,.375,1.217,9.52,9.52,0,0,0,1.321-.347,8.416,8.416,0,0,0,1.286-.369c0-.112-.774-2.706-.875-3.028l-.169-.578c-.016-.064-.031-.1-.056-.183-.075-.251-.147-.5-.22-.748s-.151-.505-.225-.761-.162-.5-.215-.744a17.63,17.63,0,0,1,1.817-.484,23,23,0,0,1,6.457-.47l-.867,11.089c-.031.4-.1.489.083.608Z" transform="translate(-1186.1 -237.289)"/><path class="k" d="M1213.7,227.469a4.639,4.639,0,0,0-2.8,1.1,3.5,3.5,0,0,0-1.234,2.62,3.245,3.245,0,0,0,.682,1.974,4.139,4.139,0,0,0,3.38,1.51,4.432,4.432,0,0,0,1.6-.336,4.011,4.011,0,0,0,2.063-1.826,3.322,3.322,0,0,0,.043-2.979,3.521,3.521,0,0,0-.774-1.073A4.057,4.057,0,0,0,1213.7,227.469Z" transform="translate(-1199.469 -227.458)"/></g><path class="l" d="M178.821,509.3a16.3,16.3,0,0,1-.95-2.77,36.3,36.3,0,0,1-1.272-5.146,28.507,28.507,0,0,1-.391-5.821,24.309,24.309,0,0,1,1.091-6.366,23.642,23.642,0,0,1,3-6.19,26.475,26.475,0,0,1,4.531-5.075c.414-.38.84-.7,1.266-1.044s.859-.645,1.294-.958.873-.6,1.313-.877l.663-.42.754-.437.76-.429c.14-.079.25-.139.315-.17l.242-.124.485-.248.243-.124c.5-.26.313-.155.5-.25l1.217-.574,1.207-.533a95.675,95.675,0,0,1,9.5-3.464c3.14-.978,6.27-1.832,9.407-2.608,6.274-1.553,12.584-2.832,18.963-3.984,12.755-2.289,25.787-4.087,39.092-5.705s154.37-14.579,168.818-16.228c7.22-.829,14.434-1.726,21.581-2.776,3.573-.526,7.13-1.089,10.647-1.717s7-1.314,10.378-2.111c1.687-.4,3.348-.827,4.949-1.293s3.145-.974,4.539-1.525c.347-.137,8.09-3.22-1.671-9.168-1.26-.947-2.614-1.868-4.017-2.764-2.812-1.791-5.813-3.484-8.884-5.115s-6.222-3.2-9.4-4.738c-6.368-3.073-45.231-21.3-48.4-23.074a88.592,88.592,0,0,1-9.339-5.9,36.844,36.844,0,0,1-4.461-3.823q-.539-.551-1.061-1.162c-.174-.2-.344-.42-.514-.63-.177-.226-.384-.509-.553-.746l-.173-.259c-.008-.014-.173-.252-.27-.419l-.275-.47c-.09-.15-.175-.346-.259-.518a8.177,8.177,0,0,1-.442-1.159c-.063-.205-.11-.442-.157-.662a4.826,4.826,0,0,1-.1-.7,6.426,6.426,0,0,1,.4-2.968,7.513,7.513,0,0,1,1.442-2.35,5.745,5.745,0,0,1,.419-.441c.14-.134.285-.279.425-.4.276-.229.568-.479.841-.663l.417-.293.407-.254c.276-.175.538-.315.8-.46a22.13,22.13,0,0,1,3.042-1.313c.979-.344,1.935-.63,2.876-.878,1.881-.491,3.716-.864,5.531-1.174s1.782-2,123.7-18.149c0,0,21.855-2.728,11.535-8.854a67.632,67.632,0,0,0-7.283-3.457c-4.939-2.166-9.89-4.183-14.7-6.223q-3.609-1.526-7.119-3.064-1.754-.77-3.479-1.548c-1.163-.529-2.264-1.019-3.444-1.587a28.42,28.42,0,0,1-3.391-1.921,13.735,13.735,0,0,1-1.6-1.233,7.481,7.481,0,0,1-1.412-1.646c-.095-.175-.192-.343-.276-.525a4.633,4.633,0,0,1-.213-.582,3.349,3.349,0,0,1-.124-.63c-.01-.109-.026-.216-.026-.326l.013-.33a4,4,0,0,1,.105-.648,4.832,4.832,0,0,1,.219-.6,4.015,4.015,0,0,1,.3-.538l.165-.249c.058-.078.119-.15.179-.225a7.632,7.632,0,0,1,1.591-1.42,13.439,13.439,0,0,1,1.691-.984,27.384,27.384,0,0,1,3.427-1.4c1.143-.39,2.285-.724,3.42-1.027,2.272-.6,4.522-1.085,6.741-1.508,4.439-.842,8.755-1.457,12.925-1.981s8.2-.938,12.07-1.3c7.744-.718,67.63-4.872,67.63-4.872s-59.738,5.573-67.426,6.49c-3.843.462-7.836.982-11.958,1.608s-8.374,1.352-12.7,2.291c-2.161.471-4.338,1-6.5,1.635-1.078.318-2.15.664-3.2,1.053a24.359,24.359,0,0,0-3.015,1.324,10.465,10.465,0,0,0-1.313.811,4.772,4.772,0,0,0-.969.9,1.369,1.369,0,0,0-.34.8,1.459,1.459,0,0,0,.277.814,4.72,4.72,0,0,0,.907.972,10.738,10.738,0,0,0,1.274.924,25.316,25.316,0,0,0,3.041,1.609c1.063.478,2.257.973,3.394,1.453q1.728.724,3.492,1.442c2.349.957,17.013,6.64,22.108,8.711,2.547,1.043,5.117,2.13,7.691,3.4a41.433,41.433,0,0,1,3.849,2.143,19.946,19.946,0,0,1,1.9,1.358,11.523,11.523,0,0,1,1.8,1.8,6.2,6.2,0,0,1,1.282,2.686l.065.406.022.416a5.325,5.325,0,0,1-.046.83,3.74,3.74,0,0,1-.465,1.526c-.978,1.4-2.116,3.609-12.509,6.423C542.4,347.676,431.99,363.3,426.53,364.945c-8.021,2.419-10.029,7.426-.8,12.566,2.947,1.642,65.125,29.59,68.4,31.55,1.639.983,3.27,2.024,4.888,3.168a45.09,45.09,0,0,1,4.79,3.862,27.5,27.5,0,0,1,2.3,2.426,19.326,19.326,0,0,1,2.1,3.044,15.187,15.187,0,0,1,.866,1.857,12.971,12.971,0,0,1,.608,2.133,11.468,11.468,0,0,1-.076,4.764,12.77,12.77,0,0,1-1.88,4.227c-.206.291-.414.6-.632.864l-.328.408c-.511.58-.27.3-.442.491l-.223.241c-.078.084-.313.307-.467.45q-.261.242-.53.476c-.2.178-.3.241-.447.362l-.417.32c-.141.11-.279.211-.412.3l-.811.547c-.523.319-1.058.647-1.566.913-.52.291-1.017.527-1.523.778-.5.233-.995.462-1.486.673-1.962.84-3.869,1.514-5.76,2.123s-3.761,1.139-5.625,1.634c-3.726.983-7.423,1.814-11.112,2.572s-7.368,1.441-11.041,2.082c-7.347,1.279-14.674,2.386-21.982,3.422-14.617,2.061-100.733,11.922-128.006,15.281-13.634,1.68-27,3.428-40,5.354s-25.631,4.021-37.652,6.511c-6,1.249-32.028,6.92-16.142,28.955Z" transform="translate(-176.188 -238.627)"/><g transform="translate(245.641 80.548)"><path class="b" d="M907.565,356.127l-29.388,52.509,11.864-2.719Z" transform="translate(-878.177 -356.127)"/><path class="c" d="M923.125,356.127,905.6,405.917l6.087,1.775" transform="translate(-893.737 -356.127)"/><path class="d" d="M946.108,356.127v53.019l15.62-3.278" transform="translate(-916.72 -356.127)"/><path class="b" d="M946.108,356.127l15.62,49.741,4.488,1.3Z" transform="translate(-916.72 -356.127)"/><path class="d" d="M946.108,356.127l20.108,51.039,7.609-1.422" transform="translate(-916.72 -356.127)"/><path class="b" d="M931.109,356.127l-11.437,51.565,11.437,1.454Z" transform="translate(-901.72 -356.127)"/></g></g><g transform="translate(949 629.159)"><g transform="translate(0 92.791)"><path class="m" d="M25.865,0C40.15,0,51.73,2.123,51.73,4.742S40.15,9.484,25.865,9.484,0,7.361,0,4.742,11.58,0,25.865,0Z" transform="translate(420.741 8.083)"/><ellipse class="n" cx="26" cy="5" rx="26" ry="5" transform="translate(352 8.05)"/><ellipse class="m" cx="26" cy="4.5" rx="26" ry="4.5" transform="translate(265 34.05)"/><ellipse class="m" cx="26" cy="5" rx="26" ry="5" transform="translate(172 21.05)"/><ellipse class="m" cx="26" cy="5" rx="26" ry="5" transform="translate(87 4.05)"/><ellipse class="m" cx="36" cy="4.5" rx="36" ry="4.5" transform="translate(0 0.05)"/></g><g transform="translate(5.866 0)"><g transform="translate(397.632)"><rect class="o" width="14" height="46" transform="translate(35.503 60.841)"/><g transform="translate(0)"><path class="p" d="M395.142,356.688a19.069,19.069,0,0,0-6.384-12.772,17.68,17.68,0,0,0-4.012-2.674,18.681,18.681,0,0,0,.294-4.91,19.666,19.666,0,0,0-19.091-18.242,19.1,19.1,0,0,0-5.31-7.824c-4.04-3.556-8.719-4.659-13.962-4.659-10.059,0-17.756,10.106-17.468,19.581a19.552,19.552,0,0,0-8.144,12.773,19.292,19.292,0,0,0-5.495,32.381l4.155,2.79a19.43,19.43,0,0,0,10.074,1.958l4.9-1.03a19.991,19.991,0,0,0,2.459-1.069c.25.241.5.477.764.707l4.984,3.347a23.317,23.317,0,0,0,12.085,2.348l5.875-1.235a23.376,23.376,0,0,0,6.323-3.4,21.987,21.987,0,0,0,10.526,2.281C388.042,377.034,395.884,366.375,395.142,356.688Z" transform="translate(-309.009 -305.606)"/><path class="q" d="M327.184,356.763c0-21.379,15.11-39.758,35.072-44.882a18.717,18.717,0,0,0-1.617-1.615c-4.04-3.556-8.719-4.659-13.962-4.659-10.059,0-17.756,10.106-17.468,19.581a19.552,19.552,0,0,0-8.144,12.773,19.292,19.292,0,0,0-5.495,32.381l4.155,2.79a19.43,19.43,0,0,0,10.074,1.958l1.159-.244A45.29,45.29,0,0,1,327.184,356.763Z" transform="translate(-309.009 -305.606)"/></g></g><g transform="translate(361.688 86.568)"><path class="r" d="M2621.3,1779.8a24.944,24.944,0,0,1-2.131-18.616s8.074,1.794,10.766,18.616Z" transform="translate(-2618.308 -1761.183)"/><path class="s" d="M2664.844,1856.4s-2.108-10.093-3.286-12.112c0,0,3.543,6.392,4.071,12.112Z" transform="translate(-2658.173 -1837.786)"/></g><g transform="translate(369.688 87.039)"><path class="t" d="M2729.147,1781.658a24.946,24.946,0,0,0,2.131-18.616s-8.075,1.794-10.766,18.616Z" transform="translate(-2720.511 -1763.042)"/><path class="s" d="M2774.6,1858.26s2.108-10.093,3.285-12.112c0,0-3.543,6.392-4.071,12.112Z" transform="translate(-2769.646 -1839.644)"/></g><g transform="translate(376.523 81.332)"><path class="u" d="M2818.981,1718.285s6.361-9.9,2.747-24c0,0-10.409,2.313-13.878,24Z" transform="translate(-2807.849 -1694.287)"/><path class="v" d="M2877.577,1817.029s2.718-13.011,4.236-15.613c0,0-4.567,8.24-5.248,15.613Z" transform="translate(-2871.187 -1793.031)"/></g><g transform="translate(349.601 81.332)"><path class="u" d="M2467.726,1718.285s-6.361-9.9-2.747-24c0,0,10.409,2.313,13.878,24Z" transform="translate(-2463.868 -1694.287)"/><path class="v" d="M2523.857,1817.029s-2.717-13.011-4.236-15.613c0,0,4.568,8.24,5.247,15.613Z" transform="translate(-2515.257 -1793.031)"/></g><g transform="translate(183.218 99.5)"><path class="r" d="M2621.3,1779.8a24.944,24.944,0,0,1-2.131-18.616s8.074,1.794,10.766,18.616Z" transform="translate(-2618.308 -1761.183)"/><path class="s" d="M2664.844,1856.4s-2.108-10.093-3.286-12.112c0,0,3.543,6.392,4.071,12.112Z" transform="translate(-2658.173 -1837.786)"/></g><g transform="translate(191.218 99.972)"><path class="t" d="M2729.147,1781.658a24.946,24.946,0,0,0,2.131-18.616s-8.075,1.794-10.766,18.616Z" transform="translate(-2720.511 -1763.042)"/><path class="s" d="M2774.6,1858.26s2.108-10.093,3.285-12.112c0,0-3.543,6.392-4.071,12.112Z" transform="translate(-2769.646 -1839.644)"/></g><g transform="translate(198.053 94.265)"><path class="u" d="M2818.981,1718.285s6.361-9.9,2.747-24c0,0-10.409,2.313-13.878,24Z" transform="translate(-2807.849 -1694.287)"/><path class="v" d="M2877.577,1817.029s2.718-13.011,4.236-15.613c0,0-4.567,8.24-5.248,15.613Z" transform="translate(-2871.187 -1793.031)"/></g><g transform="translate(171.131 94.265)"><path class="u" d="M2467.726,1718.285s-6.361-9.9-2.747-24c0,0,10.409,2.313,13.878,24Z" transform="translate(-2463.868 -1694.287)"/><path class="v" d="M2523.857,1817.029s-2.717-13.011-4.236-15.613c0,0,4.568,8.24,5.247,15.613Z" transform="translate(-2515.257 -1793.031)"/></g><g transform="translate(16.944 71.139)"><path class="r" d="M2622.5,1787.278s-6.917-10.768-2.987-26.1c0,0,11.318,2.515,15.091,26.1Z" transform="translate(-2618.308 -1761.183)"/><path class="s" d="M2666.164,1861.267s-2.955-14.148-4.606-16.978c0,0,4.967,8.96,5.706,16.978Z" transform="translate(-2656.813 -1835.172)"/></g><g transform="translate(28.157 71.8)"><path class="t" d="M2732.616,1789.137s6.917-10.769,2.986-26.1c0,0-11.319,2.515-15.092,26.1Z" transform="translate(-2720.511 -1763.042)"/><path class="s" d="M2774.919,1863.125s2.955-14.148,4.606-16.978c0,0-4.967,8.96-5.706,16.978Z" transform="translate(-2767.97 -1837.03)"/></g><g transform="translate(37.739 63.801)"><path class="u" d="M2823.453,1727.925s8.917-13.881,3.85-33.638c0,0-14.59,3.242-19.454,33.638Z" transform="translate(-2807.849 -1694.287)"/><path class="v" d="M2877.983,1823.3s3.81-18.238,5.937-21.885c0,0-6.4,11.55-7.355,21.885Z" transform="translate(-2869.026 -1789.663)"/></g><g transform="translate(0 63.801)"><path class="u" d="M2469.276,1727.925s-8.916-13.881-3.85-33.638c0,0,14.591,3.242,19.454,33.638Z" transform="translate(-2463.868 -1694.287)"/><path class="v" d="M2525.558,1823.3s-3.809-18.238-5.937-21.885c0,0,6.4,11.55,7.356,21.885Z" transform="translate(-2513.504 -1789.663)"/></g><g transform="translate(253.649 56.472)"><rect class="o" width="9" height="32" transform="translate(25.486 42.368)"/><g transform="translate(0 0)"><path class="p" d="M369.582,341.529a13.41,13.41,0,0,0-4.49-8.982,12.433,12.433,0,0,0-2.821-1.881,13.14,13.14,0,0,0,.207-3.453,13.83,13.83,0,0,0-13.425-12.829,13.434,13.434,0,0,0-3.735-5.5c-2.841-2.5-6.132-3.277-9.819-3.277-7.074,0-12.487,7.107-12.285,13.771a13.75,13.75,0,0,0-5.727,8.983,13.567,13.567,0,0,0-3.864,22.772l2.922,1.962a13.664,13.664,0,0,0,7.084,1.377l3.444-.724a14.055,14.055,0,0,0,1.729-.752c.176.17.354.336.538.5l3.505,2.354a16.4,16.4,0,0,0,8.5,1.651l4.131-.869a16.439,16.439,0,0,0,4.447-2.394,15.462,15.462,0,0,0,7.4,1.6C364.589,355.838,370.1,348.342,369.582,341.529Z" transform="translate(-309.009 -305.606)"/><path class="q" d="M321.791,341.582a32.944,32.944,0,0,1,24.664-31.564,13.163,13.163,0,0,0-1.137-1.136c-2.841-2.5-6.132-3.277-9.819-3.277-7.074,0-12.487,7.107-12.285,13.771a13.75,13.75,0,0,0-5.727,8.983,13.567,13.567,0,0,0-3.864,22.772l2.922,1.962a13.664,13.664,0,0,0,7.084,1.377l.815-.172A31.85,31.85,0,0,1,321.791,341.582Z" transform="translate(-309.009 -305.606)"/></g></g><g transform="translate(72.592 16.956)"><rect class="o" width="12" height="36" transform="translate(28.542 48.885)"/><g transform="translate(0 0)"><path class="p" d="M378.569,346.859a15.4,15.4,0,0,0-5.156-10.314,14.279,14.279,0,0,0-3.24-2.16,15.09,15.09,0,0,0,.237-3.965,15.882,15.882,0,0,0-15.417-14.732,15.426,15.426,0,0,0-4.289-6.319c-3.262-2.872-7.042-3.763-11.276-3.763-8.124,0-14.34,8.162-14.107,15.814a15.79,15.79,0,0,0-6.577,10.316,15.58,15.58,0,0,0-4.437,26.151l3.355,2.253a15.692,15.692,0,0,0,8.135,1.581l3.955-.832a16.146,16.146,0,0,0,1.986-.863c.2.195.407.385.617.571l4.025,2.7a18.83,18.83,0,0,0,9.759,1.9l4.744-1a18.879,18.879,0,0,0,5.107-2.75,17.757,17.757,0,0,0,8.5,1.842C372.835,363.291,379.169,354.683,378.569,346.859Z" transform="translate(-309.009 -305.606)"/><path class="q" d="M323.687,346.92a37.832,37.832,0,0,1,28.324-36.247,15.108,15.108,0,0,0-1.306-1.3c-3.262-2.872-7.042-3.763-11.276-3.763-8.124,0-14.34,8.162-14.107,15.814a15.79,15.79,0,0,0-6.577,10.316,15.58,15.58,0,0,0-4.437,26.151l3.355,2.253a15.692,15.692,0,0,0,8.135,1.581l.936-.2A36.576,36.576,0,0,1,323.687,346.92Z" transform="translate(-309.009 -305.606)"/></g></g></g></g></g><g transform="translate(487.481 355.332)"><g transform="translate(555.763 282.668)"><path class="w" d="M672.1,340.835c-28.865,4.046-29.685,7.9-4.571,22.641-28.079-7.73-30.225-4.573-12.466,18.489-23.062-17.759-26.219-15.614-18.489,12.466-14.741-25.114-18.6-24.294-22.641,4.571-4.046-28.865-7.9-29.685-22.641-4.571,7.73-28.079,4.573-30.225-18.489-12.466,17.759-23.061,15.613-26.219-12.466-18.489,25.113-14.741,24.294-18.6-4.571-22.641,28.865-4.046,29.684-7.9,4.571-22.641,28.079,7.73,30.225,4.573,12.466-18.489,23.062,17.759,26.219,15.614,18.489-12.466,14.741,25.114,18.6,24.294,22.641-4.571,4.045,28.865,7.9,29.685,22.641,4.571-7.73,28.079-4.573,30.225,18.489,12.466-17.76,23.062-15.614,26.219,12.466,18.489C642.412,332.935,643.232,336.789,672.1,340.835Z" transform="translate(-555.763 -282.668)"/></g><circle class="x" cx="32.242" cy="32.242" r="32.242" transform="translate(581.688 308.593)"/></g><path class="y" d="M935.819,129.762a16.991,16.991,0,0,0-20.4-25.076,13.169,13.169,0,0,0-16.61-17.528A11.477,11.477,0,0,0,883.8,74.408a14.254,14.254,0,1,0-28.063-3.525c0,.015,0,.029,0,.042a14.079,14.079,0,0,0-16.816,18.726,16.945,16.945,0,0,0-6.867,16.635,21.118,21.118,0,0,0-30.894,23.477Z" transform="translate(147.462 674.217)"/><path class="y" d="M889.745,104.852A11.2,11.2,0,0,0,876.3,88.317a8.684,8.684,0,0,0-10.953-11.558,7.568,7.568,0,0,0-9.9-8.408,9.4,9.4,0,1,0-18.505-2.324c0,.01,0,.019,0,.028A9.284,9.284,0,0,0,825.851,78.4a11.174,11.174,0,0,0-4.528,10.969,13.925,13.925,0,0,0-20.372,15.481Z" transform="translate(375.462 599.647)"/></g></svg>