<?xml version="1.0" encoding="utf-8"?>
<!-- Generator: Adobe Illustrator 27.5.0, SVG Export Plug-In . SVG Version: 6.00 Build 0)  -->
<svg version="1.1" xmlns="http://www.w3.org/2000/svg" xmlns:xlink="http://www.w3.org/1999/xlink" x="0px" y="0px"
	 viewBox="0 0 3710 3710" style="enable-background:new 0 0 3710 3710;" xml:space="preserve">
<g id="Background">
	<g>
		<g>
			<rect style="fill:#FFFFFF;" width="3710" height="3710"/>
		</g>
	</g>
</g>
<g id="Illustration">
	<g>
		<linearGradient id="SVGID_1_" gradientUnits="userSpaceOnUse" x1="3498.1064" y1="3674.7878" x2="1533.6545" y2="1583.5975">
			<stop  offset="0" style="stop-color:#B37CFF"/>
			<stop  offset="1" style="stop-color:#F895E7"/>
		</linearGradient>
		<path style="opacity:0.3;fill:url(#SVGID_1_);" d="M2908.281,2835.811c-72.52,74.751-137.407,118.692-187.088,151.864
			c-484.524,323.521-1038.388,230.275-1209.629,198.403c-276.276-51.421-509.491-87.696-709.865-268.725
			c-455.309-411.354-433.164-1269.469-85.252-1801.034c41.252-63.028,388.637-577.961,943.7-650.519
			c13.576-1.775,23.705-2.785,32.578-3.725c85.867-9.091,617.967-57.074,1051.841,306.426
			c62.107,52.033,162.055,145.888,254.74,289.032C3338.203,1580.931,3339.276,2391.558,2908.281,2835.811z"/>
		<g>
			
				<linearGradient id="SVGID_00000055680645620340343340000002800023831023434894_" gradientUnits="userSpaceOnUse" x1="1938.1377" y1="654.8365" x2="1825.5804" y2="2957.1445">
				<stop  offset="0" style="stop-color:#2B3582"/>
				<stop  offset="1" style="stop-color:#150E42"/>
			</linearGradient>
			<path style="fill:url(#SVGID_00000055680645620340343340000002800023831023434894_);" d="M642.849,2890.78
				c0,24.229,19.843,44.052,44.095,44.052h2384.455c24.252,0,44.095-19.823,44.095-44.052l19.841-1370.281
				c0-24.228-28.545-71.529-80.86-67.975l-2330.352-60.297c-30.429-0.787-59.851,10.925-81.399,32.403
				c-21.548,21.478-33.339,50.844-32.619,81.245L642.849,2890.78z"/>
			
				<linearGradient id="SVGID_00000104690206077287798490000002194055525992547473_" gradientUnits="userSpaceOnUse" x1="2819.4084" y1="1329.9838" x2="765.4333" y2="3133.3274">
				<stop  offset="0" style="stop-color:#A737D5"/>
				<stop  offset="1" style="stop-color:#EF497A"/>
			</linearGradient>
			<path style="fill:url(#SVGID_00000104690206077287798490000002194055525992547473_);" d="M686.381,2848.517
				c0,22.943,18.772,41.716,41.716,41.716h2285.798c22.944,0,41.716-18.773,41.716-41.716l18.723-1243.953
				c-2.205-74.858-67.834-101.763-107.618-100.174l-2233.431-59.919c-21.378-0.573-42.047,7.663-57.188,22.765
				c-15.141,15.102-23.469,35.771-22.932,57.15L686.381,2848.517z"/>
			<g>
				<path style="fill:#FFFFFF;" d="M3030.912,2257.552c-0.031,0-0.061,0-0.092,0c-3.377-0.049-6.075-2.825-6.023-6.206l1.48-100.882
					c0.049-3.344,2.777-6.023,6.108-6.023c0.031,0,0.061,0,0.092,0c3.378,0.049,6.075,2.825,6.023,6.206l-1.48,100.882
					C3036.972,2254.874,3034.244,2257.552,3030.912,2257.552z"/>
				<path style="fill:#FFFFFF;" d="M3034.543,2010.338c-0.031,0-0.061,0-0.092,0c-3.378-0.049-6.075-2.831-6.023-6.206
					l5.672-386.382c-0.107-22.951-7.073-41.276-20.708-54.341c-25.452-24.385-65.862-23.14-67.564-23.06l-713.854-19.143
					c-3.375-0.085-6.038-2.899-5.947-6.273c0.088-3.375,2.682-6.249,6.276-5.944l713.429,19.143
					c4.439-0.262,47.463-1.007,76.116,26.447c16.119,15.445,24.354,36.723,24.476,63.231l-5.675,386.504
					C3040.603,2007.659,3037.875,2010.338,3034.543,2010.338z"/>
			</g>
			
				<linearGradient id="SVGID_00000125579265064127177830000011759628123675614123_" gradientUnits="userSpaceOnUse" x1="1866.5195" y1="3195.7371" x2="1794.509" y2="1899.5348">
				<stop  offset="0" style="stop-color:#2B3582"/>
				<stop  offset="1" style="stop-color:#150E42"/>
			</linearGradient>
			<path style="fill:url(#SVGID_00000125579265064127177830000011759628123675614123_);" d="M455.065,3048.582h2799.87
				c3.11,0,5.654-2.544,5.654-5.654v-109.09c0-3.109-2.544-5.654-5.654-5.654H455.065c-3.109,0-5.654,2.544-5.654,5.654v109.09
				C449.411,3046.038,451.955,3048.582,455.065,3048.582z"/>
		</g>
		<g>
			<g>
				
					<ellipse transform="matrix(0.7071 -0.7071 0.7071 0.7071 -679.0011 1886.1971)" style="fill:#FFFFFF;" cx="1937.341" cy="1762.725" rx="914.284" ry="914.285"/>
				<g>
					
						<linearGradient id="SVGID_00000068669943473011087600000009004142098804882872_" gradientUnits="userSpaceOnUse" x1="2211.7605" y1="1059.3298" x2="1024.9087" y2="4101.4863">
						<stop  offset="0" style="stop-color:#53D8FF"/>
						<stop  offset="1" style="stop-color:#3840F7"/>
					</linearGradient>
					
						<circle style="fill:url(#SVGID_00000068669943473011087600000009004142098804882872_);" cx="1937.341" cy="1762.726" r="780.307"/>
					<path style="fill:#FFFFFF;" d="M1938.929,2560.359c-56.651,0-113.697-6.065-170.386-18.345
						c-208.155-45.089-386.293-168.536-501.599-347.607c-115.307-179.071-153.978-392.326-108.891-600.479
						c45.087-208.157,168.536-386.295,347.607-501.602c179.071-115.304,392.328-153.978,600.479-108.889
						c208.155,45.089,386.293,168.536,501.599,347.607c115.307,179.067,153.978,392.323,108.891,600.48
						c-45.087,208.156-168.536,386.295-347.607,501.602C2238.721,2517.029,2090.296,2560.359,1938.929,2560.359z M1935.822,999.21
						c-144.906,0-286.959,41.469-411.699,121.792c-171.411,110.375-289.579,280.893-332.738,480.146
						c-43.159,199.251-6.142,403.384,104.233,574.794c110.375,171.41,280.893,289.582,480.145,332.74
						c199.252,43.154,403.385,6.141,574.796-104.233c171.41-110.375,289.579-280.892,332.738-480.146
						c43.159-199.251,6.142-403.384-104.233-574.794c-110.373-171.411-280.893-289.582-480.145-332.739
						C2044.667,1005.019,1990.038,999.21,1935.822,999.21z"/>
				</g>
				<g>
					
						<linearGradient id="SVGID_00000016058801796735517100000001135776760422519726_" gradientUnits="userSpaceOnUse" x1="2119.21" y1="796.9397" x2="1723.5916" y2="2897.8054">
						<stop  offset="0" style="stop-color:#53D8FF"/>
						<stop  offset="1" style="stop-color:#3840F7"/>
					</linearGradient>
					
						<circle style="fill:url(#SVGID_00000016058801796735517100000001135776760422519726_);" cx="1937.341" cy="1762.725" r="475.712"/>
					<path style="fill:#FFFFFF;" d="M1937.437,2255.547c-34.451,0-69.404-3.64-104.413-11.224
						c-265.552-57.522-434.799-320.363-377.279-585.915c27.863-128.639,104.153-238.728,214.819-309.985
						c110.664-71.261,242.453-95.151,371.094-67.294c128.638,27.864,238.726,104.153,309.985,214.818
						c71.259,110.664,95.157,242.458,67.294,371.097l0,0C2369,2097.585,2164.301,2255.547,1937.437,2255.547z M1936.426,1303.91
						c-87.078,0-172.44,24.919-247.399,73.186c-103.006,66.328-174.015,168.796-199.95,288.533
						c-53.539,247.174,103.993,491.82,351.167,545.362c247.179,53.532,491.823-103.997,545.36-351.167l16.666,3.61l-16.666-3.61
						c25.935-119.737,3.69-242.405-62.636-345.412c-66.326-103.004-168.796-174.015-288.531-199.95
						C2001.836,1307.4,1969.005,1303.91,1936.426,1303.91z"/>
				</g>
				<g>
					
						<linearGradient id="SVGID_00000080172852926599039950000018111062939707674553_" gradientUnits="userSpaceOnUse" x1="1511.5785" y1="2266.2351" x2="2034.4366" y2="1647.8992">
						<stop  offset="0" style="stop-color:#53D8FF"/>
						<stop  offset="1" style="stop-color:#3840F7"/>
					</linearGradient>
					
						<circle style="fill:url(#SVGID_00000080172852926599039950000018111062939707674553_);" cx="1937.341" cy="1762.725" r="184.305"/>
					<path style="fill:#FFFFFF;" d="M1937.743,1964.153c-14.306,0-28.713-1.532-43.029-4.633
						c-52.565-11.387-97.55-42.561-126.67-87.78c-29.117-45.222-38.883-99.074-27.497-151.64
						c11.385-52.566,42.56-97.552,87.78-126.671c45.221-29.119,99.072-38.884,151.64-27.497
						c52.564,11.387,97.55,42.561,126.669,87.78c29.117,45.222,38.883,99.074,27.497,151.64
						c-11.385,52.566-42.561,97.552-87.782,126.671C2013.448,1953.212,1975.968,1964.153,1937.743,1964.153z M1937.007,1595.417
						c-31.754,0-62.881,9.086-90.215,26.688c-37.562,24.187-63.455,61.552-72.913,105.216c-9.457,43.66-1.346,88.393,22.839,125.955
						c24.187,37.562,61.554,63.454,105.216,72.913c43.667,9.459,88.395,1.346,125.955-22.841
						c37.561-24.187,63.456-61.552,72.913-105.216l0,0c9.457-43.66,1.346-88.393-22.839-125.955
						c-24.186-37.562-61.554-63.454-105.215-72.913C1960.859,1596.689,1948.887,1595.417,1937.007,1595.417z"/>
				</g>
			</g>
			<g>
				
					<linearGradient id="SVGID_00000079485111936137845380000015111948822727859131_" gradientUnits="userSpaceOnUse" x1="2308.7319" y1="1306.8269" x2="1296.3112" y2="2052.5007" gradientTransform="matrix(0.976 -0.2178 0.2178 0.976 414.8186 -66.6929)">
					<stop  offset="0" style="stop-color:#CB236D"/>
					<stop  offset="1" style="stop-color:#4C246D"/>
				</linearGradient>
				<polygon style="fill:url(#SVGID_00000079485111936137845380000015111948822727859131_);" points="3034.989,648.02 
					3059.783,672.506 2132.53,1611.405 2107.735,1586.919 				"/>
				
					<linearGradient id="SVGID_00000183943118840208122350000016750186718436023714_" gradientUnits="userSpaceOnUse" x1="2286.2236" y1="1276.2678" x2="1273.8041" y2="2021.9409" gradientTransform="matrix(0.976 -0.2178 0.2178 0.976 414.8186 -66.6929)">
					<stop  offset="0" style="stop-color:#CB236D"/>
					<stop  offset="1" style="stop-color:#4C246D"/>
				</linearGradient>
				<path style="fill:url(#SVGID_00000183943118840208122350000016750186718436023714_);" d="M2124.816,1527.355
					c14.048-14.225,81.107,52.003,67.059,66.227l-245.964,195.862c-9.087,7.236-20.994-4.523-13.871-13.7L2124.816,1527.355z"/>
				
					<linearGradient id="SVGID_00000152260353237847520640000013138222765347454610_" gradientUnits="userSpaceOnUse" x1="353.8796" y1="4355.2642" x2="237.7372" y2="5601.1655" gradientTransform="matrix(-0.7115 -0.7027 0.7027 -0.7115 132.3182 4193.9668)">
					<stop  offset="0" style="stop-color:#FDF53F"/>
					<stop  offset="1" style="stop-color:#D93C65"/>
				</linearGradient>
				<path style="fill:url(#SVGID_00000152260353237847520640000013138222765347454610_);" d="M3059.254,673.042l125.606,11.693
					l-171.25,173.401c-56.109,56.813-134.742,85.464-214.248,78.062l0,0L3059.254,673.042z"/>
				
					<linearGradient id="SVGID_00000064345252846554225030000001046287155548117632_" gradientUnits="userSpaceOnUse" x1="228.2711" y1="4355.4976" x2="112.1293" y2="5601.3921" gradientTransform="matrix(0.7115 0.7027 0.7027 -0.7115 -360.5599 3707.5161)">
					<stop  offset="0" style="stop-color:#FDF53F"/>
					<stop  offset="1" style="stop-color:#D93C65"/>
				</linearGradient>
				<path style="fill:url(#SVGID_00000064345252846554225030000001046287155548117632_);" d="M3034.459,648.556l-13.26-125.45
					l-171.25,173.401c-56.109,56.813-83.775,135.798-75.382,215.205l0,0L3034.459,648.556z"/>
			</g>
		</g>
		<g>
			<g>
				
					<linearGradient id="SVGID_00000064317402670208228370000008301782222683740803_" gradientUnits="userSpaceOnUse" x1="772.8488" y1="1763.2365" x2="1101.9636" y2="1321.7417">
					<stop  offset="0" style="stop-color:#2B3582"/>
					<stop  offset="1" style="stop-color:#150E42"/>
				</linearGradient>
				<path style="fill:url(#SVGID_00000064317402670208228370000008301782222683740803_);" d="M803.946,1218.057
					c0,0,150.617,397.225,198.202,479.859c55.237,95.922,216.558,34.798,208.531-45.478s-196.507-412.084-196.507-412.084
					L803.946,1218.057z"/>
				
					<linearGradient id="SVGID_00000034071611500322347440000014886568786508266640_" gradientUnits="userSpaceOnUse" x1="1327.1139" y1="695.5621" x2="1926.1761" y2="1762.5068">
					<stop  offset="0" style="stop-color:#CB236D"/>
					<stop  offset="1" style="stop-color:#4C246D"/>
				</linearGradient>
				<polygon style="fill:url(#SVGID_00000034071611500322347440000014886568786508266640_);" points="1007.456,928.699 
					1943.594,604.125 1933.763,1482.473 981.873,1270.083 				"/>
				
					<linearGradient id="SVGID_00000090976825965777804770000012933234892083076240_" gradientUnits="userSpaceOnUse" x1="3259.9424" y1="580.1951" x2="2599.7563" y2="813.8897">
					<stop  offset="0" style="stop-color:#A737D5"/>
					<stop  offset="1" style="stop-color:#EF497A"/>
				</linearGradient>
				
					<ellipse style="fill:url(#SVGID_00000090976825965777804770000012933234892083076240_);" cx="1944.476" cy="1045.848" rx="91.972" ry="451.389"/>
				
					<linearGradient id="SVGID_00000039839779606386361830000015479331225534428325_" gradientUnits="userSpaceOnUse" x1="1355.8336" y1="1787.072" x2="2175.0281" y2="764.1183">
					<stop  offset="0" style="stop-color:#CB236D"/>
					<stop  offset="1" style="stop-color:#4C246D"/>
				</linearGradient>
				<path style="fill:url(#SVGID_00000039839779606386361830000015479331225534428325_);" d="M1951.457,1466.368
					c-8.312-8.455-26.422-41.068-41.946-125.404c-15.005-81.502-23.267-187.215-23.267-297.665
					c0-110.451,8.262-216.163,23.267-297.665c15.525-84.337,33.634-116.95,41.946-125.405c8.313,8.455,26.422,41.069,41.946,125.405
					c15.005,81.502,23.268,187.214,23.268,297.665c0,110.45-8.263,216.163-23.268,297.665
					C1977.879,1425.3,1959.769,1457.913,1951.457,1466.368z"/>
				<g>
					<defs>
						<path id="SVGID_00000076587610008985273950000010228814385030699921_" d="M1951.457,1466.368
							c-8.312-8.455-26.422-41.068-41.946-125.404c-15.005-81.502-23.267-187.215-23.267-297.665
							c0-110.451,8.262-216.163,23.267-297.665c15.525-84.337,33.634-116.95,41.946-125.405
							c8.313,8.455,26.422,41.069,41.946,125.405c15.005,81.502,133.405,187.214,133.405,297.665
							c0,110.45-118.4,216.163-133.405,297.665C1977.879,1425.3,1959.769,1457.913,1951.457,1466.368z"/>
					</defs>
					<clipPath id="SVGID_00000036230895781110965270000018347635788608372919_">
						<use xlink:href="#SVGID_00000076587610008985273950000010228814385030699921_"  style="overflow:visible;"/>
					</clipPath>
					
						<linearGradient id="SVGID_00000075849355651857208140000002650959556624578473_" gradientUnits="userSpaceOnUse" x1="2162.3276" y1="911.9221" x2="1675.5134" y2="1196.2212">
						<stop  offset="0" style="stop-color:#2B3582"/>
						<stop  offset="1" style="stop-color:#150E42"/>
					</linearGradient>
					
						<path style="clip-path:url(#SVGID_00000036230895781110965270000018347635788608372919_);fill:url(#SVGID_00000075849355651857208140000002650959556624578473_);" d="
						M2069.34,1039.938c0,76.696-41.316,138.871-123.09,138.871c-81.774,0-148.065-62.175-148.065-138.871
						c0-76.696,66.291-138.87,148.065-138.87C2028.024,901.067,2069.34,963.242,2069.34,1039.938z"/>
				</g>
				
					<linearGradient id="SVGID_00000114038637818991586030000016238210867625080991_" gradientUnits="userSpaceOnUse" x1="911.4447" y1="1260.3185" x2="887.3626" y2="654.2647">
					<stop  offset="0" style="stop-color:#2B3582"/>
					<stop  offset="1" style="stop-color:#150E42"/>
				</linearGradient>
				<path style="fill:url(#SVGID_00000114038637818991586030000016238210867625080991_);" d="M856.472,909.818
					c44.038-5.114,107.186-6.955,175.464,8.682c-22.495,117.508-19.1,239.986,6.916,366.808l-192.579,0
					c-30.704,0-56.885-22.302-61.673-52.63c-9.598-60.791-21.331-162.966-8.82-245.028
					C782.059,946.467,815.09,914.623,856.472,909.818z"/>
				<path style="fill:#FFFFFF;" d="M972.048,999.815H822.006c-5.093,0-9.586-2.67-12.02-7.144
					c-2.433-4.474-2.234-9.698,0.533-13.973c1.158-1.788,3.547-2.291,5.335-1.143c1.789,1.158,2.301,3.547,1.143,5.338
					c-1.206,1.864-1.292,4.14-0.232,6.091c1.061,1.949,3.022,3.115,5.242,3.115h150.042c3.29,0,5.967-2.675,5.967-5.966v-10.678
					c0-3.291-2.676-5.966-5.967-5.966H820.893c-2.131,0-3.858-1.728-3.858-3.858c0-2.13,1.727-3.858,3.858-3.858h151.155
					c7.545,0,13.683,6.139,13.683,13.682v10.678C985.731,993.676,979.593,999.815,972.048,999.815z"/>
				<path style="fill:#FFFFFF;" d="M958.669,1066.265H808.627c-5.093,0-9.587-2.67-12.021-7.143
					c-2.433-4.474-2.234-9.698,0.533-13.973c1.158-1.786,3.548-2.291,5.335-1.143c1.788,1.158,2.301,3.547,1.143,5.338
					c-1.206,1.864-1.292,4.14-0.232,6.091c1.061,1.949,3.022,3.115,5.242,3.115h150.042c3.29,0,5.967-2.675,5.967-5.965v-10.675
					c0-3.291-2.677-5.968-5.967-5.968H807.514c-2.131,0-3.858-1.728-3.858-3.858c0-2.13,1.727-3.858,3.858-3.858h151.155
					c7.545,0,13.683,6.139,13.683,13.684v10.675C972.352,1060.126,966.214,1066.265,958.669,1066.265z"/>
				<path style="fill:#FFFFFF;" d="M1143.483,904.925c-1.635,0-3.152-1.047-3.675-2.688c-0.647-2.032,0.476-4.2,2.505-4.848
					l709.02-225.623c2.029-0.645,4.2,0.477,4.846,2.507c0.647,2.032-0.476,4.2-2.505,4.848l-709.02,225.623
					C1144.266,904.867,1143.871,904.925,1143.483,904.925z"/>
				<path style="fill:#FFFFFF;" d="M1047.604,944.12c-1.521,0-2.961-0.904-3.573-2.399c-0.806-1.972,0.139-4.225,2.112-5.031
					l36.491-14.915c1.97-0.811,4.225,0.141,5.031,2.112s-0.139,4.225-2.112,5.031l-36.491,14.915
					C1048.585,944.029,1048.09,944.12,1047.604,944.12z"/>
				<path style="fill:#FFFFFF;" d="M972.048,1144.089H822.006c-5.093,0-9.585-2.67-12.019-7.144
					c-2.434-4.474-2.236-9.698,0.531-13.973c1.158-1.791,3.547-2.296,5.335-1.145c1.789,1.158,2.301,3.547,1.143,5.335
					c-1.207,1.866-1.294,4.145-0.231,6.096c1.061,1.949,3.02,3.115,5.241,3.115h150.042c3.29,0,5.967-2.678,5.967-5.968v-10.675
					c0-3.291-2.676-5.966-5.967-5.966H820.893c-2.131,0-3.858-1.728-3.858-3.858c0-2.13,1.727-3.858,3.858-3.858h151.155
					c7.545,0,13.683,6.139,13.683,13.682v10.675C985.731,1137.95,979.593,1144.089,972.048,1144.089z"/>
				<path style="fill:#FFFFFF;" d="M986.096,1230.471H836.055c-5.093,0-9.585-2.67-12.019-7.144
					c-2.434-4.473-2.235-9.698,0.531-13.973c1.159-1.791,3.548-2.296,5.335-1.145c1.788,1.158,2.301,3.547,1.143,5.335
					c-1.207,1.866-1.294,4.145-0.231,6.096c1.061,1.949,3.021,3.115,5.241,3.115h150.042c3.291,0,5.967-2.675,5.967-5.966v-10.678
					c0-3.291-2.677-5.966-5.967-5.966H834.942c-2.131,0-3.858-1.728-3.858-3.858c0-2.13,1.727-3.858,3.858-3.858h151.155
					c7.546,0,13.684,6.139,13.684,13.682v10.678C999.78,1224.332,993.642,1230.471,986.096,1230.471z"/>
				<path style="fill:#FFFFFF;" d="M1120.103,1700.13c-6.914,0-13.902-0.746-20.873-2.266
					c-30.505-6.646-55.339-26.761-68.135-55.187L911.22,1376.361c-0.875-1.942-0.009-4.225,1.934-5.102
					c1.943-0.876,4.227-0.005,5.102,1.937l119.875,266.315c11.782,26.171,34.651,44.693,62.742,50.812
					c27.609,6.021,55.545-1.125,76.652-19.597c1.132-0.99,2.268-2.007,3.41-3.049c1.573-1.437,4.013-1.329,5.451,0.246
					c1.437,1.572,1.327,4.014-0.246,5.451c-1.184,1.083-2.361,2.135-3.534,3.16
					C1164.973,1691.961,1142.961,1700.13,1120.103,1700.13z"/>
				<path style="fill:#FFFFFF;" d="M897.016,1339.259c-1.472,0-2.877-0.847-3.52-2.273l-13.373-29.71
					c-0.876-1.942-0.009-4.225,1.934-5.102c1.942-0.874,4.228-0.005,5.102,1.934l13.373,29.708c0.876,1.944,0.009,4.227-1.934,5.104
					C898.083,1339.151,897.544,1339.259,897.016,1339.259z"/>
				<path style="fill:#FFFFFF;" d="M2047.42,1035.94c-2.007,0-3.7-1.552-3.844-3.584c-2.666-37.58-15.692-65.597-38.714-83.272
					c-39.813-30.567-96.621-20.062-97.192-19.949c-2.104,0.399-4.114-0.965-4.518-3.057c-0.404-2.092,0.966-4.117,3.058-4.519
					c2.462-0.475,60.814-11.25,103.351,21.403c24.848,19.077,38.882,48.971,41.71,88.846c0.151,2.125-1.449,3.971-3.576,4.122
					C2047.604,1035.937,2047.512,1035.94,2047.42,1035.94z"/>
			</g>
		</g>
		<g>
			<g>
				
					<linearGradient id="SVGID_00000042719330761913543680000018346094959408279199_" gradientUnits="userSpaceOnUse" x1="2972.697" y1="3329.877" x2="2206.8308" y2="1780.7411" gradientTransform="matrix(0.9999 -0.015 0.015 0.9999 -44.3337 10.1347)">
					<stop  offset="0" style="stop-color:#2B3582"/>
					<stop  offset="1" style="stop-color:#150E42"/>
				</linearGradient>
				<path style="fill:url(#SVGID_00000042719330761913543680000018346094959408279199_);" d="M2199.145,1963.698
					c-1.236,200.055-4.627,890.106,5.604,1134.467c1.084,25.888,19.142,46.409,41.292,46.924
					c109.554,2.548,511.097,7.148,690.055-4.329c37.275-2.392,66.406-38.184,66.525-81.861
					c0.572-209.973-0.08-800.511-23.654-1070.687c-2.826-32.372-24.955-57.852-52.665-60.673
					c-119.449-12.165-523.073-40.226-677.62-26.158C2220.812,1903.918,2199.348,1930.984,2199.145,1963.698z"/>
				
					<linearGradient id="SVGID_00000096748883947554073110000006190983020414743710_" gradientUnits="userSpaceOnUse" x1="2811.0505" y1="2230.6328" x2="1152.9899" y2="4351.7012" gradientTransform="matrix(0.9999 -0.015 0.015 0.9999 -44.3337 10.1347)">
					<stop  offset="0" style="stop-color:#FDF53F"/>
					<stop  offset="1" style="stop-color:#D93C65"/>
				</linearGradient>
				<path style="fill:url(#SVGID_00000096748883947554073110000006190983020414743710_);" d="M2248.92,2024.324
					c-3.47,161.51-13.999,698.804-5.12,897.293c1.298,29.011,21.205,52.187,46.014,53.511
					c102.144,5.455,450.51,15.633,599.966-0.635c26.912-2.929,47.677-28.743,48.657-60.348
					c5.114-164.798,19.385-665.161,10.782-861.428c-1.372-31.31-22.497-56.58-49.222-58.982
					c-110.566-9.938-480.911-31.975-607.972-21.947C2268.174,1973.669,2249.522,1996.362,2248.92,2024.324z"/>
				<path style="opacity:0.5;fill:#FFFFFF;" d="M2469.34,1933.022L2469.34,1933.022c0.092,6.137,4.256,11.137,9.5,11.379
					c25.885,1.197,98.802,4.585,131.394,6.308c6.426,0.339,11.363-6.488,10.034-13.855l-0.227-1.257
					c-0.905-5.029-4.536-8.768-8.913-9.17c-22.043-2.03-88.547-7.574-132.517-5.077
					C2473.327,1921.65,2469.247,1926.835,2469.34,1933.022z"/>
			</g>
			<g>
				<g>
					<g style="opacity:0.53;">
						<rect x="2289.02" y="2332.741" style="fill:#FFFFFF;" width="33.535" height="591.503"/>
						<rect x="2345.054" y="2332.741" style="fill:#FFFFFF;" width="33.535" height="591.503"/>
						<rect x="2401.088" y="2332.741" style="fill:#FFFFFF;" width="33.535" height="591.503"/>
						<rect x="2457.123" y="2332.741" style="fill:#FFFFFF;" width="33.535" height="591.503"/>
						<rect x="2513.157" y="2332.741" style="fill:#FFFFFF;" width="33.535" height="591.503"/>
						<rect x="2569.191" y="2332.741" style="fill:#FFFFFF;" width="33.535" height="591.503"/>
						<rect x="2625.226" y="2332.741" style="fill:#FFFFFF;" width="33.535" height="591.503"/>
					</g>
					
						<linearGradient id="SVGID_00000150094353215794621360000001468908059838100113_" gradientUnits="userSpaceOnUse" x1="2305.6807" y1="2758.478" x2="2309.4888" y2="3150.6709">
						<stop  offset="0" style="stop-color:#CB236D"/>
						<stop  offset="1" style="stop-color:#4C246D"/>
					</linearGradient>
					
						<rect x="2289.02" y="2614.688" style="fill:url(#SVGID_00000150094353215794621360000001468908059838100113_);" width="33.535" height="309.556"/>
					
						<linearGradient id="SVGID_00000174581852005471548780000001347999656493883289_" gradientUnits="userSpaceOnUse" x1="2361.189" y1="2757.4988" x2="2364.9951" y2="3149.4834">
						<stop  offset="0" style="stop-color:#CB236D"/>
						<stop  offset="1" style="stop-color:#4C246D"/>
					</linearGradient>
					
						<rect x="2345.054" y="2721.077" style="fill:url(#SVGID_00000174581852005471548780000001347999656493883289_);" width="33.535" height="203.167"/>
					
						<linearGradient id="SVGID_00000150819174905541627000000009654190577221944753_" gradientUnits="userSpaceOnUse" x1="2418.488" y1="2756.2656" x2="2422.2974" y2="3148.5947">
						<stop  offset="0" style="stop-color:#CB236D"/>
						<stop  offset="1" style="stop-color:#4C246D"/>
					</linearGradient>
					
						<rect x="2401.088" y="2458.143" style="fill:url(#SVGID_00000150819174905541627000000009654190577221944753_);" width="33.535" height="466.101"/>
					
						<linearGradient id="SVGID_00000045587827246743036190000004852125108516228491_" gradientUnits="userSpaceOnUse" x1="2472.7964" y1="2755.5708" x2="2476.5977" y2="3147.0591">
						<stop  offset="0" style="stop-color:#CB236D"/>
						<stop  offset="1" style="stop-color:#4C246D"/>
					</linearGradient>
					
						<rect x="2457.123" y="2812.269" style="fill:url(#SVGID_00000045587827246743036190000004852125108516228491_);" width="33.535" height="111.975"/>
					
						<linearGradient id="SVGID_00000080189069166173950960000005973190088285586843_" gradientUnits="userSpaceOnUse" x1="2530.2336" y1="2754.1384" x2="2534.0425" y2="3146.4263">
						<stop  offset="0" style="stop-color:#CB236D"/>
						<stop  offset="1" style="stop-color:#4C246D"/>
					</linearGradient>
					
						<rect x="2513.157" y="2520.457" style="fill:url(#SVGID_00000080189069166173950960000005973190088285586843_);" width="33.535" height="403.787"/>
					
						<linearGradient id="SVGID_00000109005323305980605630000002849327132184546463_" gradientUnits="userSpaceOnUse" x1="2585.9182" y1="2753.0959" x2="2589.7266" y2="3145.3191">
						<stop  offset="0" style="stop-color:#CB236D"/>
						<stop  offset="1" style="stop-color:#4C246D"/>
					</linearGradient>
					
						<rect x="2569.191" y="2590.37" style="fill:url(#SVGID_00000109005323305980605630000002849327132184546463_);" width="33.535" height="333.874"/>
					
						<linearGradient id="SVGID_00000065791325214017447780000015869020661478930876_" gradientUnits="userSpaceOnUse" x1="2641.574" y1="2752.074" x2="2645.3811" y2="3144.189">
						<stop  offset="0" style="stop-color:#CB236D"/>
						<stop  offset="1" style="stop-color:#4C246D"/>
					</linearGradient>
					
						<rect x="2625.226" y="2666.363" style="fill:url(#SVGID_00000065791325214017447780000015869020661478930876_);" width="33.535" height="257.881"/>
				</g>
				<g>
					<g>
						
							<ellipse transform="matrix(0.0825 -0.9966 0.9966 0.0825 128.4445 5031.1997)" style="opacity:0.91;fill:#FFFFFF;" cx="2796.621" cy="2445.843" rx="95.807" ry="95.807"/>
						
							<linearGradient id="SVGID_00000057857635269243537400000004342953932877941691_" gradientUnits="userSpaceOnUse" x1="2927.0955" y1="2325.155" x2="2593.0654" y2="2642.1589">
							<stop  offset="0" style="stop-color:#FDF53F"/>
							<stop  offset="1" style="stop-color:#D93C65"/>
						</linearGradient>
						<path style="fill:url(#SVGID_00000057857635269243537400000004342953932877941691_);" d="M2853.549,2425.594
							c2.965,7.211,4.612,15.104,4.612,23.384c0,33.988-27.552,61.54-61.54,61.54c-33.988,0-61.54-27.552-61.54-61.54
							c0-33.987,27.552-61.54,61.54-61.54c1.041,0,2.076,0.028,3.104,0.078v-15.6c-1.03-0.041-2.064-0.067-3.104-0.067
							c-42.597,0-77.128,34.531-77.128,77.128c0,42.597,34.531,77.128,77.128,77.128c42.597,0,77.128-34.531,77.128-77.128
							c0-10.489-2.097-20.486-5.889-29.602L2853.549,2425.594z"/>
						<path style="opacity:0.5;fill:#FFFFFF;" d="M2875.368,2582.233h-156.126c-9.8,0-17.744,7.945-17.744,17.744
							c0,9.8,7.944,17.743,17.744,17.743h156.126c9.799,0,17.744-7.944,17.744-17.743
							C2893.113,2590.178,2885.167,2582.233,2875.368,2582.233z"/>
					</g>
					<g>
						<circle style="opacity:0.91;fill:#FFFFFF;" cx="2796.21" cy="2137.911" r="95.807"/>
						
							<linearGradient id="SVGID_00000079448160718610290490000001739081778546496675_" gradientUnits="userSpaceOnUse" x1="2904.9685" y1="2036.4994" x2="2608.4475" y2="2317.906">
							<stop  offset="0" style="stop-color:#FDF53F"/>
							<stop  offset="1" style="stop-color:#D93C65"/>
						</linearGradient>
						<path style="fill:url(#SVGID_00000079448160718610290490000001739081778546496675_);" d="M2828.778,2193.113
							c-9.494,5.992-20.733,9.473-32.79,9.473c-33.987,0-61.539-27.552-61.539-61.54c0-33.987,27.552-61.54,61.539-61.54
							c1.041,0,2.076,0.028,3.104,0.079v-15.6c-1.03-0.041-2.064-0.067-3.104-0.067c-42.597,0-77.128,34.531-77.128,77.128
							c0,42.597,34.531,77.128,77.128,77.128c14.867,0,28.748-4.21,40.524-11.497L2828.778,2193.113z"/>
						<path style="opacity:0.5;fill:#FFFFFF;" d="M2875.779,2274.302h-156.127c-9.799,0-17.743,7.944-17.743,17.744
							c0,9.8,7.944,17.743,17.743,17.743h156.127c9.8,0,17.744-7.944,17.744-17.743
							C2893.523,2282.246,2885.579,2274.302,2875.779,2274.302z"/>
					</g>
					<g>
						<circle style="opacity:0.91;fill:#FFFFFF;" cx="2796.963" cy="2755.343" r="95.807"/>
						
							<linearGradient id="SVGID_00000123423100856869361170000001171990864878417572_" gradientUnits="userSpaceOnUse" x1="2907.7861" y1="2651.3843" x2="2611.2654" y2="2932.7905">
							<stop  offset="0" style="stop-color:#FDF53F"/>
							<stop  offset="1" style="stop-color:#D93C65"/>
						</linearGradient>
						<path style="fill:url(#SVGID_00000123423100856869361170000001171990864878417572_);" d="M2849.14,2789.943
							c-11.076,16.26-29.736,26.94-50.893,26.94c-33.988,0-61.54-27.552-61.54-61.54c0-33.987,27.552-61.54,61.54-61.54
							c1.041,0,2.076,0.028,3.104,0.078v-15.6c-1.03-0.041-2.064-0.067-3.104-0.067c-42.597,0-77.128,34.532-77.128,77.128
							s34.532,77.128,77.128,77.128c26.351,0,49.612-13.219,63.525-33.383L2849.14,2789.943z"/>
						<path style="opacity:0.5;fill:#FFFFFF;" d="M2718.9,2924.085h156.127c9.799,0,17.743-7.944,17.743-17.744
							c0-9.8-7.944-17.744-17.743-17.744H2718.9c-9.8,0-17.744,7.945-17.744,17.744
							C2701.156,2916.141,2709.101,2924.085,2718.9,2924.085z"/>
					</g>
				</g>
				<path style="opacity:0.75;fill:#FFFFFF;" d="M2658.513,2274.302h-359.138c-5.719,0-10.355-4.636-10.355-10.355v-223.56
					c0-5.719,4.636-10.355,10.355-10.355h359.138c5.719,0,10.355,4.636,10.355,10.355v223.56
					C2668.868,2269.665,2664.232,2274.302,2658.513,2274.302z"/>
			</g>
		</g>
		<g>
			
				<linearGradient id="SVGID_00000154395632325665601620000001523880640573453752_" gradientUnits="userSpaceOnUse" x1="1832.8848" y1="2483.9924" x2="1761.5079" y2="2591.0576">
				<stop  offset="0" style="stop-color:#F9B776"/>
				<stop  offset="1" style="stop-color:#F47960"/>
			</linearGradient>
			<path style="fill:url(#SVGID_00000154395632325665601620000001523880640573453752_);" d="M1733.24,2656.151l78.85,0.975
				l-27.596-25.976c-6.859-6.456-17.329-7.502-25.247-2.367c-4.636,3.007-9.663,7.089-14.019,12.493
				c0,0-49.186-17.975-73.031-58.193c-7.426,11.031-16.11,26.047-23.634,44.727
				C1669.939,2640.359,1697.647,2650.226,1733.24,2656.151z"/>
			
				<linearGradient id="SVGID_00000129181772265431312840000000270318262718111379_" gradientUnits="userSpaceOnUse" x1="1716.7043" y1="3224.3921" x2="1839.2405" y2="3224.3921">
				<stop  offset="0" style="stop-color:#53D8FF"/>
				<stop  offset="1" style="stop-color:#3840F7"/>
			</linearGradient>
			<path style="fill:url(#SVGID_00000129181772265431312840000000270318262718111379_);" d="M1835.78,3218.465
				c-20.992,1.815-57.424,4.762-86.146,6.027c-17.265,0.76-27.205-0.931-32.93-3.222c0.01,0.645,0.028,1.255,0.054,1.822
				c0.136,3.022,2.592,5.44,5.644,5.61c54.271,3.03,97.433,1.048,112.799,0.114c3.177-0.194,5.071-3.646,3.446-6.355
				C1837.834,3221.104,1836.849,3219.777,1835.78,3218.465z"/>
			
				<linearGradient id="SVGID_00000177455943912673324170000014910190186827392900_" gradientUnits="userSpaceOnUse" x1="1838.8329" y1="3019.3909" x2="1810.9355" y2="3106.0195">
				<stop  offset="0" style="stop-color:#CB236D"/>
				<stop  offset="1" style="stop-color:#4C246D"/>
			</linearGradient>
			<path style="fill:url(#SVGID_00000177455943912673324170000014910190186827392900_);" d="M1749.634,3224.492
				c28.722-1.264,65.154-4.212,86.146-6.027c-20.638-25.321-86.146-42.387-86.146-42.387h-18.502
				c-12.725,18.343-14.568,35.806-14.428,45.191C1722.429,3223.561,1732.369,3225.251,1749.634,3224.492z"/>
			
				<linearGradient id="SVGID_00000086669993629603193160000004957412389513219224_" gradientUnits="userSpaceOnUse" x1="1728.0175" y1="3166.8479" x2="1762.5336" y2="3166.8479">
				<stop  offset="0" style="stop-color:#F9B776"/>
				<stop  offset="1" style="stop-color:#F47960"/>
			</linearGradient>
			<path style="fill:url(#SVGID_00000086669993629603193160000004957412389513219224_);" d="M1728.017,3145.873l1.731,34.261
				c0.188,3.71,2.965,6.828,6.68,7.359c3.697,0.529,8.648,0.596,13.898-1.152c3.23-1.075,5.628-3.797,6.223-7.116l5.983-33.352
				H1728.017z"/>
			<g>
				
					<linearGradient id="SVGID_00000034057149153994153940000018136300652873599930_" gradientUnits="userSpaceOnUse" x1="1497.9944" y1="3245.0232" x2="1544.9521" y2="3245.0232">
					<stop  offset="0" style="stop-color:#53D8FF"/>
					<stop  offset="1" style="stop-color:#3840F7"/>
				</linearGradient>
				<path style="fill:url(#SVGID_00000034057149153994153940000018136300652873599930_);" d="M1513.285,3247.916
					c-9.103-1.478-13.222-6.984-14.949-12.87c-0.011,0.053-0.023,0.106-0.034,0.159c-1.339,6.209,1.766,12.644,7.973,15.704
					c7.503,3.699,15.706,4.329,22.074,4.023c6.833-0.327,13.104-3.619,16.552-8.888l0.052-0.079
					C1538.094,3249.916,1528.467,3250.382,1513.285,3247.916z"/>
				
					<linearGradient id="SVGID_00000001660380769571118130000005161815849977787304_" gradientUnits="userSpaceOnUse" x1="1616.9241" y1="2947.9285" x2="1589.0269" y2="3034.5569">
					<stop  offset="0" style="stop-color:#CB236D"/>
					<stop  offset="1" style="stop-color:#4C246D"/>
				</linearGradient>
				<path style="fill:url(#SVGID_00000001660380769571118130000005161815849977787304_);" d="M1556.206,3156.429h-15.257
					c-23.241-0.553-37.835,56.517-42.612,78.617c1.727,5.886,5.846,11.392,14.949,12.87c15.182,2.465,24.808,2,31.667-1.951
					c12.556-19.236,18.78-47.41,21.773-63.852C1570.128,3163.414,1556.206,3156.429,1556.206,3156.429z"/>
			</g>
			
				<linearGradient id="SVGID_00000090976583277722469450000002629331798122500762_" gradientUnits="userSpaceOnUse" x1="1534.1621" y1="3148.8491" x2="1575.4119" y2="3148.8491">
				<stop  offset="0" style="stop-color:#F9B776"/>
				<stop  offset="1" style="stop-color:#F47960"/>
			</linearGradient>
			<path style="fill:url(#SVGID_00000090976583277722469450000002629331798122500762_);" d="M1542.909,3124.629l-8.472,33.697
				c-1.039,4.131,0.938,8.405,4.759,10.365c4.74,2.433,11.412,4.988,17.545,4.248c2.884-0.348,5.28-2.379,6.233-5.095l12.438-35.453
				L1542.909,3124.629z"/>
			
				<linearGradient id="SVGID_00000146489398891343285480000006786026780903522691_" gradientUnits="userSpaceOnUse" x1="1867.8149" y1="2703.7107" x2="1515.6345" y2="3280.6157">
				<stop  offset="0" style="stop-color:#53D8FF"/>
				<stop  offset="1" style="stop-color:#3840F7"/>
			</linearGradient>
			<path style="fill:url(#SVGID_00000146489398891343285480000006786026780903522691_);" d="M1840.949,2680.813
				c0,0-75.714,473.274-74.466,475.875c0,0-20.911,9.504-43.708,1.211c0,0,6.847-252.999,22.89-350.005
				c0,0-129.218,226.131-170.252,338.808c0,0-21.402-2.552-39.118-14.211c0,0,139.131-407.025,176.249-461.239L1840.949,2680.813z"
				/>
			
				<linearGradient id="SVGID_00000132089483303527470420000002472586698594452658_" gradientUnits="userSpaceOnUse" x1="1756.6349" y1="2811.0754" x2="1789.8589" y2="2745.9302">
				<stop  offset="0" style="stop-color:#53D8FF"/>
				<stop  offset="1" style="stop-color:#3840F7"/>
			</linearGradient>
			<path style="fill:url(#SVGID_00000132089483303527470420000002472586698594452658_);" d="M1748.686,2806.604
				c-0.618,0-1.244-0.167-1.807-0.52c-1.595-0.999-2.08-3.104-1.081-4.699l28.293-45.192c0.498-0.796,1.299-1.349,2.218-1.535
				l20.823-4.19c1.842-0.373,3.644,0.823,4.017,2.671c0.371,1.845-0.824,3.644-2.671,4.017l-19.384,3.9l-27.514,43.947
				C1750.932,2806.038,1749.822,2806.604,1748.686,2806.604z"/>
			
				<linearGradient id="SVGID_00000002377429402584869290000009170128276509028245_" gradientUnits="userSpaceOnUse" x1="2101.5361" y1="2279.9631" x2="1938.1633" y2="2492.5066">
				<stop  offset="0" style="stop-color:#F9B776"/>
				<stop  offset="1" style="stop-color:#F47960"/>
			</linearGradient>
			<path style="fill:url(#SVGID_00000002377429402584869290000009170128276509028245_);" d="M2188.394,2217.375
				c0,0-51.09,11.268-82.165,25.615c-6.171,2.849-11.094,7.832-13.898,13.973c-9.294,20.358-37.099,71.408-91.023,95.771
				c7.765,10.308,20.269,31.747,25.716,67.783c32.387-24.105,60.348-64.363,73.771-130.385c0,0,10.222,5.557,22.974-0.636
				c6.737-3.272,14.516-7.913,20.355-11.563c5.818-3.637,10.152-9.29,11.834-15.893c2.223-8.719,0.914-16.385,0.914-24.61
				l26.261-8.136C2183.135,2229.293,2191.029,2226.314,2188.394,2217.375z"/>
			
				<linearGradient id="SVGID_00000007418160201304655550000014375408171352779394_" gradientUnits="userSpaceOnUse" x1="1907.7288" y1="2329.7512" x2="1362.2882" y2="2976.1992">
				<stop  offset="0" style="stop-color:#FDF53F"/>
				<stop  offset="1" style="stop-color:#D93C65"/>
			</linearGradient>
			<path style="fill:url(#SVGID_00000007418160201304655550000014375408171352779394_);" d="M2027.025,2420.518
				c-5.447-36.036-17.951-57.475-25.716-67.783c-33.499,15.135-77.074,19.973-132.563,0.745c-5.115-1.772-10.45-2.81-15.86-3.127
				c-29.539-1.732-126.882-4.892-207.429,21.719c-16.952,5.601-30.682,18.132-37.758,34.37
				c-21.789,50.003-57.066,163.878,40.865,221.368c7.524-18.68,16.208-33.695,23.634-44.727
				c-15.771-26.601-20.442-62.934,7.544-110.248c20.407,55.103,29.98,135.504,31.981,171.086
				c0.659,11.715-1.397,23.407-5.993,34.224l-0.501,1.18c-0.984,2.314,0.37,4.974,2.845,5.53
				c55.131,12.384,112.472,9.02,129.603,7.604c3.058-0.253,5.599-2.441,6.3-5.397c26.809-112.961,26.87-190.016,20.306-238.726
				C1889.361,2453.943,1966.047,2465.902,2027.025,2420.518z"/>
			<path style="fill:#EEAA4E;" d="M1864.389,2452.549c-1.684,0-3.149-1.249-3.375-2.964c-6.251-47.227-18.948-67.847-19.074-68.05
				c-1.002-1.592-0.528-3.697,1.063-4.703c1.592-0.996,3.692-0.533,4.699,1.052c0.553,0.869,13.597,21.869,20.073,70.808
				c0.248,1.865-1.066,3.58-2.932,3.827C1864.691,2452.539,1864.539,2452.549,1864.389,2452.549z"/>
			
				<linearGradient id="SVGID_00000027602431401796393870000007331613835054164112_" gradientUnits="userSpaceOnUse" x1="1737.3818" y1="2417.3335" x2="1755.255" y2="2323.499">
				<stop  offset="0" style="stop-color:#F9B776"/>
				<stop  offset="1" style="stop-color:#F47960"/>
			</linearGradient>
			<path style="fill:url(#SVGID_00000027602431401796393870000007331613835054164112_);" d="M1728.337,2284.548
				c0,0-5.577,58.97-10.488,76.414c-0.745,2.646,0.405,5.437,2.809,6.811c8.334,4.762,28.324,12.529,55.667-0.871
				c4.43-2.171,7.093-6.789,6.886-11.675l-2.409-56.984L1728.337,2284.548z"/>
			<g>
				
					<linearGradient id="SVGID_00000004546708106104687610000014606199757810908302_" gradientUnits="userSpaceOnUse" x1="1785.7443" y1="2245.1768" x2="1683.7662" y2="2323.2056">
					<stop  offset="0" style="stop-color:#F9B776"/>
					<stop  offset="1" style="stop-color:#F47960"/>
				</linearGradient>
				<path style="fill:url(#SVGID_00000004546708106104687610000014606199757810908302_);" d="M1782.005,2209.107
					c0,0,17.838,40.979,19.036,62.487c1.198,21.508,5.833,35.464-19.036,39.795c-24.869,4.331-45.82-8.058-57.169-29.482
					c0,0-17.783-33.013-13.794-46.533C1715.031,2221.854,1782.005,2209.107,1782.005,2209.107z"/>
				
					<linearGradient id="SVGID_00000143591554272944175440000008699811481591262649_" gradientUnits="userSpaceOnUse" x1="1713.9564" y1="2183.3953" x2="1808.9326" y2="2305.677">
					<stop  offset="0" style="stop-color:#2B3582"/>
					<stop  offset="1" style="stop-color:#150E42"/>
				</linearGradient>
				<path style="fill:url(#SVGID_00000143591554272944175440000008699811481591262649_);" d="M1733.334,2266.502l1.416-0.624
					c1.802-0.794,2.573-2.94,1.668-4.689c-3.507-6.776-10.344-22.303-1.512-25.925c11.382-4.668,56.468-13.862,66.195-29.86
					c9.349-15.375,1.065-35.222-11.384-40.868c-0.833-0.377-1.815-0.077-2.243,0.731l-1.037,1.963
					c-0.71,1.344-2.695,1.14-3.118-0.32l0,0c-0.406-1.401-2.27-1.674-3.043-0.436c-2.99,4.787-11.062,12.546-32.65,16.53
					c-30.68,5.662-50.965,18.078-51.469,39.279c-0.032,1.347-1.465,2.095-2.615,1.395c-2.266-1.381-5.891-2.029-10.735,2.045
					c-8.426,7.085-4.978,25.463,13.493,40.581c0.877,0.718,0.87,2.087-0.08,2.706c-3.349,2.18-8.341,7.367,4.594,14.281
					c13.378,7.152,23.369,6.565,27.216,5.93c0.957-0.158,1.574-1.084,1.365-2.032l-4.106-18.634c-0.233-1.054,0.57-2.053,1.65-2.053
					H1733.334z"/>
				
					<linearGradient id="SVGID_00000106839230838957527380000016154039057333104572_" gradientUnits="userSpaceOnUse" x1="1773.0956" y1="2228.645" x2="1671.1168" y2="2306.6743">
					<stop  offset="0" style="stop-color:#F9B776"/>
					<stop  offset="1" style="stop-color:#F47960"/>
				</linearGradient>
				<path style="fill:url(#SVGID_00000106839230838957527380000016154039057333104572_);" d="M1734.106,2270.435
					c0,0-6.805-26.176-18.542-18.837c-11.736,7.339,6.09,29.33,15.526,30.309L1734.106,2270.435z"/>
			</g>
			<path style="fill:#F8A570;" d="M2114.423,2285.219c-0.756,0-1.517-0.25-2.15-0.763c-1.462-1.189-1.684-3.337-0.494-4.799
				c1.947-2.395,19.222-23.514,26.013-27.354c2.914-1.648,3.474-2.857,3.579-3.304c0.033-0.14,0.042-0.296,0.025-0.469
				l-18.798,3.763l-11.179,9.599c-1.43,1.226-3.584,1.059-4.809-0.366c-1.227-1.429-1.063-3.584,0.366-4.809l11.857-10.178
				c0.445-0.38,0.978-0.643,1.552-0.756l22.303-4.466c1.354-0.28,2.731,0.3,3.497,1.439c1.803,2.674,2.416,5.302,1.823,7.813
				c-0.696,2.948-2.939,5.459-6.861,7.674c-4.27,2.411-17.034,17.056-24.077,25.719
				C2116.396,2284.789,2115.414,2285.219,2114.423,2285.219z"/>
			
				<linearGradient id="SVGID_00000035531587668977828420000006002759818361142703_" gradientUnits="userSpaceOnUse" x1="1747.825" y1="2603.8542" x2="1700.7756" y2="2674.4282">
				<stop  offset="0" style="stop-color:#F9B776"/>
				<stop  offset="1" style="stop-color:#F47960"/>
			</linearGradient>
			<path style="fill:url(#SVGID_00000035531587668977828420000006002759818361142703_);" d="M1700.217,2624.398
				c0,0,6.708-11.181,22.362-11.181c15.653,0,33.542,29.07,33.542,29.07s-24.598,11.181-33.542,20.126
				C1713.634,2671.357,1700.217,2642.287,1700.217,2624.398z"/>
		</g>
	</g>
</g>
</svg>
